<svg xmlns="http://www.w3.org/2000/svg" width="113.909" height="96.11" viewBox="0 0 113.909 96.11">
  <g id="libro" transform="translate(0)">
    <path id="Trazado_187371" data-name="Trazado 187371" d="M17.787,64H10v79.647H119.459V64Zm0,0" transform="translate(-7.776 -49.761)" fill="#ffc66c"/>
    <path id="Trazado_187372" data-name="Trazado 187372" d="M95.83,98.546a14.472,14.472,0,0,0-13.356-8.9H50V10H82.474A14.472,14.472,0,0,1,95.83,18.9Zm0,0" transform="translate(-38.876 -7.775)" fill="#fff"/>
    <path id="Trazado_187373" data-name="Trazado 187373" d="M301.83,23.867V10H269.356A14.472,14.472,0,0,0,256,18.9V98.546a14.472,14.472,0,0,1,13.356-8.9H301.83Zm0,0" transform="translate(-199.046 -7.775)" fill="#edf2fa"/>
    <path id="Trazado_187374" data-name="Trazado 187374" d="M93.225,55.45a2.225,2.225,0,1,0-1.573-.652A2.242,2.242,0,0,0,93.225,55.45Zm0,0" transform="translate(-70.755 -39.654)"/>
    <path id="Trazado_187375" data-name="Trazado 187375" d="M130.725,55.45H145.52a2.225,2.225,0,0,0,0-4.45H130.725a2.225,2.225,0,1,0,0,4.45Zm0,0" transform="translate(-99.912 -39.654)"/>
    <path id="Trazado_187376" data-name="Trazado 187376" d="M93.225,119.45h23.138a2.225,2.225,0,0,0,0-4.45H93.225a2.225,2.225,0,0,0,0,4.45Zm0,0" transform="translate(-70.755 -89.415)"/>
    <path id="Trazado_187377" data-name="Trazado 187377" d="M93.225,183.45h23.138a2.225,2.225,0,0,0,0-4.45H93.225a2.225,2.225,0,0,0,0,4.45Zm0,0" transform="translate(-70.755 -139.176)"/>
    <path id="Trazado_187378" data-name="Trazado 187378" d="M93.225,247.45h23.138a2.225,2.225,0,0,0,0-4.45H93.225a2.225,2.225,0,0,0,0,4.45Zm0,0" transform="translate(-70.755 -188.938)"/>
    <path id="Trazado_187379" data-name="Trazado 187379" d="M118.587,309.225A2.225,2.225,0,0,0,116.362,307H93.225a2.225,2.225,0,0,0,0,4.45h23.138A2.225,2.225,0,0,0,118.587,309.225Zm0,0" transform="translate(-70.755 -238.699)"/>
    <path id="Trazado_187380" data-name="Trazado 187380" d="M297,53.225a2.225,2.225,0,0,0,2.225,2.225h23.138a2.225,2.225,0,0,0,0-4.45H299.229A2.225,2.225,0,0,0,297,53.225Zm0,0" transform="translate(-230.928 -39.654)"/>
    <path id="Trazado_187381" data-name="Trazado 187381" d="M322.366,115H299.229a2.225,2.225,0,0,0,0,4.45h23.138a2.225,2.225,0,0,0,0-4.45Zm0,0" transform="translate(-230.928 -89.415)"/>
    <path id="Trazado_187382" data-name="Trazado 187382" d="M322.366,179H299.229a2.225,2.225,0,0,0,0,4.45h23.138a2.225,2.225,0,0,0,0-4.45Zm0,0" transform="translate(-230.928 -139.176)"/>
    <path id="Trazado_187383" data-name="Trazado 187383" d="M322.366,243H299.229a2.225,2.225,0,0,0,0,4.45h23.138a2.225,2.225,0,0,0,0-4.45Zm0,0" transform="translate(-230.928 -188.938)"/>
    <path id="Trazado_187384" data-name="Trazado 187384" d="M322.366,307H299.229a2.225,2.225,0,0,0,0,4.45h23.138a2.225,2.225,0,0,0,0-4.45Zm0,0" transform="translate(-230.928 -238.699)"/>
    <path id="Trazado_187385" data-name="Trazado 187385" d="M111.683,12.014h-6.674V2.225A2.225,2.225,0,0,0,102.784,0H70.31A16.649,16.649,0,0,0,56.954,6.673,16.649,16.649,0,0,0,43.6,0H11.123A2.225,2.225,0,0,0,8.9,2.225v9.789H2.224A2.225,2.225,0,0,0,0,14.239V93.886A2.225,2.225,0,0,0,2.224,96.11H79.053a2.225,2.225,0,1,0,0-4.45H58.992l.008-.02a.094.094,0,0,0,.007-.013A12.218,12.218,0,0,1,70.31,84.1h32.474a2.225,2.225,0,0,0,2.225-2.225V16.463h4.45v75.2H97.241a2.225,2.225,0,1,0,0,4.45h14.442a2.225,2.225,0,0,0,2.225-2.225V14.239a2.225,2.225,0,0,0-2.225-2.225ZM13.348,4.45H43.6a12.216,12.216,0,0,1,11.132,7.138v72.3A16.662,16.662,0,0,0,43.6,79.647H13.348Zm-8.9,12.014H8.9V81.872A2.225,2.225,0,0,0,11.124,84.1H43.6a12.218,12.218,0,0,1,11.3,7.531.1.1,0,0,0,.007.013l.008.02H4.449Zm96.11,63.184H70.31a16.662,16.662,0,0,0-11.132,4.241v-72.3A12.216,12.216,0,0,1,70.31,4.45H100.56Zm0,0"/>
    <path id="Trazado_187386" data-name="Trazado 187386" d="M388.725,412a2.225,2.225,0,1,0,1.573.652A2.242,2.242,0,0,0,388.725,412Zm0,0" transform="translate(-300.513 -320.339)"/>
  </g>
</svg>
