<svg id="Grupo_121511" data-name="Grupo 121511" xmlns="http://www.w3.org/2000/svg" xmlns:xlink="http://www.w3.org/1999/xlink" width="114.435" height="114.435" viewBox="0 0 114.435 114.435">
  <defs>
    <clipPath id="clip-path">
      <rect id="Rectángulo_38430" data-name="Rectángulo 38430" width="114.435" height="114.435" fill="none"/>
    </clipPath>
  </defs>
  <g id="Grupo_121508" data-name="Grupo 121508">
    <g id="Grupo_121507" data-name="Grupo 121507" clip-path="url(#clip-path)">
      <path id="Trazado_183449" data-name="Trazado 183449" d="M110.52,16.7H5.03l-1.115.447c-1.236,0-1.791.558-1.791,1.8l.224,62.108c0,1.24.331,1.351,1.567,1.351l37.533.223a6.587,6.587,0,0,1,3.541,1.859l2.031,2.64a4.745,4.745,0,0,0,3.559,1.6H63.932c1.38,0,2.021.075,2.919-.963l3.487-3.7a3.53,3.53,0,0,1,2.669-1.215H110.52c1.235,0,1.789-.558,1.789-1.8l.447-1.79V18.946A2.24,2.24,0,0,0,110.52,16.7" fill="#bde4ff"/>
      <path id="Trazado_183450" data-name="Trazado 183450" d="M73.007,79.265a6.607,6.607,0,0,0-5.2,2.638l-2.817,3.615a1.336,1.336,0,0,1-1.055.529l-13.354,0a1.339,1.339,0,0,1-1.047-.518l-2.925-3.681a6.607,6.607,0,0,0-5.159-2.581H9.5a4.47,4.47,0,0,1-4.47-4.47V16.7H3.915a2.241,2.241,0,0,0-2.238,2.244V81.054A2.241,2.241,0,0,0,3.915,83.3H41.448A3.53,3.53,0,0,1,44.1,84.488L47.02,87.8a4.75,4.75,0,0,0,3.559,1.6H63.932a4.743,4.743,0,0,0,3.59-1.633l2.816-3.251A3.53,3.53,0,0,1,73.007,83.3H110.52a2.24,2.24,0,0,0,2.236-2.245V79.265Z" fill="#99dbff"/>
      <path id="Trazado_183451" data-name="Trazado 183451" d="M102.588,9.89H60.57l-2.906.671-.447,64.506,45.371.223a1.873,1.873,0,0,0,2.012-2.011l.223-1.119V12.125a2.235,2.235,0,0,0-2.235-2.235" fill="#f9f8f9"/>
      <path id="Trazado_183452" data-name="Trazado 183452" d="M50.94,75.065H11.847c-1.234,0-1.788-.552-1.788-1.788l-.447-1.118V12.123a2.235,2.235,0,0,1,2.235-2.235h2.66l.728.731.288,54.915c0,3.079,1.506,5.223,4.589,5.223a5.757,5.757,0,0,0,.828-.061,52.409,52.409,0,0,1,7.677-.568A49.993,49.993,0,0,1,50.94,75.065" fill="#e8e8e8"/>
      <path id="Trazado_183453" data-name="Trazado 183453" d="M14.507,9.889,14.519,65.4a5.6,5.6,0,0,0,5.593,5.583,5.732,5.732,0,0,0,.827-.061,52.4,52.4,0,0,1,7.677-.568,51.127,51.127,0,0,1,11.722,1.355.229.229,0,0,1-.052.453H9.612v1.118a2.234,2.234,0,0,0,2.235,2.235H57.218V9.889Z" fill="#dcdbdd"/>
      <path id="Trazado_183454" data-name="Trazado 183454" d="M57.218,9.89l.338.512.423,63.333-.761,1.473a53.981,53.981,0,0,0-36.77-8.051,1.875,1.875,0,0,1-2.33-1.955l.19-60.6c0-1.1.358-1.586,1.446-1.762.486-.078.973-.6,1.459-.662a53.752,53.752,0,0,1,36,7.713" fill="#f9f8f9"/>
      <path id="Trazado_183455" data-name="Trazado 183455" d="M57.218,70.989v4.22A53.81,53.81,0,0,0,20.448,67.6,2.241,2.241,0,0,1,17.87,65.4L17.86,4.6a2.239,2.239,0,0,1,1.893-2.21q.73-.118,1.46-.216l.01,59.457a2.236,2.236,0,0,0,2.428,2.225c1.657-.141,3.317-.212,4.965-.212a56.886,56.886,0,0,1,25.249,5.831Z" fill="#e8e8e8"/>
      <path id="Trazado_183456" data-name="Trazado 183456" d="M104.823,72.16v1.118a2.235,2.235,0,0,1-2.235,2.235H57.217V9.889H60.57V72.16Z" fill="#e8e8e8"/>
      <path id="Trazado_183457" data-name="Trazado 183457" d="M57.313,95.722c-1.91.054-3-1.468-3-3.35L54.089,57.65a2.988,2.988,0,0,1,3.129-3.115c.105,0,.177-.005.278,0l34.932.223V37.6l-65.421.551h-.018a2.981,2.981,0,0,1-3.127-3.113c0-.236-.2-.466-.158-.688a3.357,3.357,0,0,1,3.271-2.681l68.342-.343h.017a3.357,3.357,0,0,1,3.042,1.941,3.428,3.428,0,0,1,.31,1.467V57.662a3.352,3.352,0,0,1-3.352,3.351H61.241a.672.672,0,0,0-.671.671V92.295a3.4,3.4,0,0,1-3.257,3.427" fill="#857e87"/>
      <path id="Trazado_183458" data-name="Trazado 183458" d="M29.537,35.692l1.217,1.389-1.217,1.284-2.53.014H26.99a3.356,3.356,0,0,1-3.354-3.338,3.4,3.4,0,0,1,.069-.69A3.348,3.348,0,0,0,26.388,35.7h.018Z" fill="#6f6571"/>
      <path id="Trazado_183459" data-name="Trazado 183459" d="M93.472,35.542l-7.278-.136-56.658.286v2.673l56.66-.287,5.111-.025a.671.671,0,0,1,.674.67V53.639a.67.67,0,0,1-.671.67H57.495a4.312,4.312,0,0,0-1.191.115,3.3,3.3,0,0,0-2.439,3.564V92.371a3.352,3.352,0,0,0,2.711,3.292,3.406,3.406,0,0,1-.051-.593V60.35l-.005-1.375a1.954,1.954,0,0,1,1.926-1.958L59.877,57l33.553.012a1.211,1.211,0,0,0,1.211-1.21V36.733a1.193,1.193,0,0,0-1.169-1.191" fill="#6f6571"/>
      <path id="Trazado_183460" data-name="Trazado 183460" d="M60.652,82.464H53.784c-.071,0-.14,0-.21.006,0,0-2.9,1.9-2.9,3.688l.119,22.627a3.353,3.353,0,0,0,3.353,3.353l5.811-.067c1.776,0,4.036-2.442,4.036-2.442,0-.073.007-.148.007-.223V85.815a3.352,3.352,0,0,0-3.353-3.351" fill="#ffe07d"/>
      <path id="Trazado_183461" data-name="Trazado 183461" d="M64,109.63a3.353,3.353,0,0,1-3.345,3.129h-6.87a3.353,3.353,0,0,1-3.352-3.352V85.816a3.353,3.353,0,0,1,3.144-3.346c-.008.408-.015,1.407-.015,3.346v20.238a3.577,3.577,0,0,0,3.576,3.576Z" fill="#ffd064"/>
      <path id="Trazado_183462" data-name="Trazado 183462" d="M86.2,25.766V44.154a3.859,3.859,0,0,1-.03.484,4.287,4.287,0,0,1-.643,1.319,3.309,3.309,0,0,1-3.165,1.81H33.375a3.466,3.466,0,0,1-3.615-3.613V25.767A3.31,3.31,0,0,1,31.567,22.6a4.253,4.253,0,0,1,1.321-.643,3.919,3.919,0,0,1,.487-.031H82.359A3.837,3.837,0,0,1,86.2,25.766" fill="#ffe07d"/>
    </g>
  </g>
  <g id="Grupo_121510" data-name="Grupo 121510">
    <g id="Grupo_121509" data-name="Grupo 121509" clip-path="url(#clip-path)">
      <path id="Trazado_183463" data-name="Trazado 183463" d="M37.359,44.638a4.47,4.47,0,0,1-4.47-4.47V21.959a3.839,3.839,0,0,0-3.352,3.807V44.153a3.839,3.839,0,0,0,3.838,3.838H82.358a3.838,3.838,0,0,0,3.808-3.352Z" fill="#ffd064"/>
      <path id="Trazado_183464" data-name="Trazado 183464" d="M110.52,15.025H106.5V9.9a1.676,1.676,0,0,0-1.675-1.677H57.71A53.986,53.986,0,0,0,39.115.989a56.66,56.66,0,0,0-21.578.1A1.675,1.675,0,0,0,16.183,2.73V7.9H9.612A1.677,1.677,0,0,0,7.935,9.576v5.449H3.915A3.921,3.921,0,0,0,0,18.946V81.054a3.921,3.921,0,0,0,3.913,3.921H41.448a1.854,1.854,0,0,1,1.39.622l2.926,3.311a6.449,6.449,0,0,0,2.99,1.9V97.6a1.676,1.676,0,0,0,3.353,0V86.126a1.841,1.841,0,0,1,1.839-1.84h6.543a1.842,1.842,0,0,1,1.839,1.84v23.117a1.842,1.842,0,0,1-1.839,1.839H53.946a1.842,1.842,0,0,1-1.839-1.839V105.42a1.676,1.676,0,1,0-3.353,0v3.823a5.2,5.2,0,0,0,5.192,5.192h6.543a5.2,5.2,0,0,0,5.191-5.192V90.833a6.441,6.441,0,0,0,3.11-1.97l2.815-3.252a1.852,1.852,0,0,1,1.4-.636H110.52a3.922,3.922,0,0,0,3.913-3.921V18.946a3.921,3.921,0,0,0-3.913-3.921m-54.979-4.2v9.431h-8.1a1.677,1.677,0,1,0,0,3.353H82.358a2.164,2.164,0,0,1,2.162,2.161V44.152a2.165,2.165,0,0,1-2.162,2.162H33.374a2.164,2.164,0,0,1-2.161-2.162V25.765A2.163,2.163,0,0,1,33.374,23.6h6.24a1.677,1.677,0,0,0,0-3.353h-6.24a5.521,5.521,0,0,0-5.514,5.514v4.226l-.9.005a5.029,5.029,0,0,0,.024,10.057h.025l.846,0v4.1a5.521,5.521,0,0,0,5.513,5.515H55.541V52.91a5.036,5.036,0,0,0-3.353,4.74V70.538a56.111,56.111,0,0,0-32.641-4.491l-.01-61.92a51.935,51.935,0,0,1,36,6.693m3.353,50.193v19.92H55.541V57.65a1.678,1.678,0,0,1,1.676-1.676c.331.033,34.439,0,34.764.011a1.676,1.676,0,0,0,1.676-1.676V38.05a1.676,1.676,0,0,0-1.676-1.676h-.01l-4.1.021V33.042l7.459-.037a1.662,1.662,0,0,1,1.183.488,1.688,1.688,0,0,1,.493,1.188V57.662a1.677,1.677,0,0,1-1.676,1.676H60.57a1.676,1.676,0,0,0-1.676,1.675M82.358,49.667a5.521,5.521,0,0,0,5.515-5.515v-4.4l2.431-.012v12.9H58.894V49.667ZM27.86,36.7l-.871.005a1.677,1.677,0,0,1-.007-3.353l.878,0Zm20.894,49.43v1a2.97,2.97,0,0,1-.478-.433l-2.925-3.31a5.209,5.209,0,0,0-3.9-1.756H3.915a.566.566,0,0,1-.562-.568V18.946a.566.566,0,0,1,.562-.568h4.02v8.758a1.677,1.677,0,1,0,3.353,0V11.253h4.9L16.2,68.047a1.675,1.675,0,0,0,2,1.644,52.826,52.826,0,0,1,33.14,4.153H11.288V34.958a1.677,1.677,0,0,0-3.353,0V75.52A1.677,1.677,0,0,0,9.612,77.2H52.188V81.24a5.2,5.2,0,0,0-3.434,4.886m62.326-5.072a.564.564,0,0,1-.56.568H73.007a5.2,5.2,0,0,0-3.936,1.794l-2.816,3.251a3.02,3.02,0,0,1-.575.509v-1.05a5.2,5.2,0,0,0-3.434-4.886V77.2H84.178a1.676,1.676,0,0,0,0-3.352H62.246V62.689H95.333a5.034,5.034,0,0,0,5.029-5.027V34.681a5.06,5.06,0,0,0-1.482-3.564,5,5,0,0,0-3.547-1.465h-.025l-7.435.038V25.765a5.521,5.521,0,0,0-5.515-5.514H58.894V11.575h44.253V73.844H92A1.676,1.676,0,1,0,92,77.2h12.822A1.676,1.676,0,0,0,106.5,75.52V18.378h4.021a.565.565,0,0,1,.561.568V81.054Z"/>
    </g>
  </g>
</svg>
