<svg xmlns="http://www.w3.org/2000/svg" xmlns:xlink="http://www.w3.org/1999/xlink" width="395" height="292" viewBox="0 0 395 292">
  <defs>
    <clipPath id="clip-path">
      <rect id="Rectángulo_38752" data-name="Rectángulo 38752" width="384.625" height="236.216" fill="none"/>
    </clipPath>
  </defs>
  <g id="Grupo_122049" data-name="Grupo 122049" transform="translate(19378 8638)">
    <g id="Grupo_121810" data-name="Grupo 121810" transform="translate(-19372.57 -8601.107)">
      <g id="Grupo_121809" data-name="Grupo 121809" clip-path="url(#clip-path)">
        <path id="Trazado_186924" data-name="Trazado 186924" d="M.793,253.168c2.978,7.128,13.47,9.531,23.433,5.368s15.626-13.317,12.647-20.444-13.47-9.532-23.433-5.368S-2.185,246.041.793,253.168" transform="translate(0 -46.726)" fill="#d2d6d1"/>
        <path id="Trazado_186925" data-name="Trazado 186925" d="M58.723,262.774c3.372,1.532,7.841-1.047,9.982-5.761s1.144-9.777-2.229-11.309-7.841,1.048-9.982,5.762-1.144,9.776,2.229,11.308" transform="translate(-11.215 -49.679)" fill="#d2d6d1"/>
        <path id="Trazado_186926" data-name="Trazado 186926" d="M11.448,247.632l-.41-.582c.085-.059,8.592-5.937,25.541-8.074,16.913-2.132,48.691,3.379,49.01,3.435l-.123.7c-.318-.056-31.991-5.549-48.8-3.43-16.755,2.113-25.137,7.892-25.22,7.951" transform="translate(-2.236 -48.306)" fill="#899eaa"/>
        <rect id="Rectángulo_38741" data-name="Rectángulo 38741" width="17.347" height="0.711" transform="translate(50.062 206.709) rotate(-64.498)" fill="#899eaa"/>
        <path id="Trazado_186927" data-name="Trazado 186927" d="M469.575,48.676c2.846,9.25-5.329,19.974-18.258,23.951s-25.718-.3-28.564-9.545,5.329-19.974,18.258-23.952,25.718.3,28.564,9.546" transform="translate(-85.516 -7.625)" fill="#d2d6d1"/>
        <path id="Trazado_186928" data-name="Trazado 186928" d="M384.2,32.818c5.526-.132,10.155,6.021,10.34,13.744s-4.144,14.093-9.669,14.226-10.155-6.022-10.34-13.746,4.144-14.091,9.669-14.224" transform="translate(-75.861 -6.647)" fill="#d2d6d1"/>
        <path id="Trazado_186929" data-name="Trazado 186929" d="M435.524,133.872c-3.32,6.87-13.8,8.677-23.4,4.037s-14.7-13.97-11.376-20.84,13.8-8.677,23.4-4.037,14.7,13.97,11.376,20.84" transform="translate(-80.968 -22.374)" fill="#d2d6d1"/>
        <path id="Trazado_186930" data-name="Trazado 186930" d="M341.152,126.87l-.542-.46c.083-.1,8.488-10,19.613-21.579,10.274-10.695,25.038-25.053,37.025-32.717A120.469,120.469,0,0,1,425.7,58.469a57.294,57.294,0,0,1,11.08-2.522l.057.71c-.161.013-16.411,1.485-39.2,16.057-11.928,7.626-26.647,21.941-36.893,32.607-11.111,11.565-19.5,21.45-19.587,21.549" transform="translate(-68.992 -11.332)" fill="#899eaa"/>
        <rect id="Rectángulo_38742" data-name="Rectángulo 38742" width="0.711" height="43.919" transform="translate(299.665 85.621) rotate(-64.968)" fill="#899eaa"/>
        <rect id="Rectángulo_38743" data-name="Rectángulo 38743" width="36.248" height="0.711" transform="translate(306.234 78.782) rotate(-87.943)" fill="#899eaa"/>
        <path id="Trazado_186931" data-name="Trazado 186931" d="M320.618,250.335a147.156,147.156,0,0,1,16.258-65.868c2.4-5.223,12.152-19.408,17.084-11.585,1.352,2.144-.726,5.81,1.42,7.156,2.654,1.368,4.575-1.84,5.3-4.017,1.92-5.54,15.2-21.458,20.455-13.773,2.12,3.1.814,5.671,1.56,7.648,1.462,2.8,4.8.249,7.246-1.75a63.469,63.469,0,0,1,24.521-9.855c10.15-2.581,19.277,3.754,15.32,14.624-3.549,8.827-13.422,12.2-20.473,17.653,4.988-1.047,24.666,1.776,15.3,11.136-8.588,8.578-27.62,1.935-34.213,11.037,4.88-.355,13.816,3.745,9.7,8.862-5.207,6.474-27.092,3.423-34,4.835,6.893,2.211,10.512,10.231,1.333,12.139-15.613,4.234-31.227,8.466-46.808,11.758" transform="translate(-64.943 -31.946)" fill="#e2dfcf"/>
        <path id="Trazado_186932" data-name="Trazado 186932" d="M406.16,203.911a93.016,93.016,0,0,0-10.479-2.279q-5.292-.89-10.647-1.286c-1.565-.118-3.133-.2-4.7-.254.62-.43,1.238-.865,1.862-1.289q3.821-2.591,7.742-5.031c2.659-1.655,5.374-3.218,8.043-4.857.68-.418-.007-1.592-.717-1.211-4.918,2.648-9.626,5.754-14.252,8.878q-6.882,4.648-13.465,9.728-5.394,4.167-10.533,8.64c0-.483-.013-.969,0-1.446.017-.827.03-1.653.046-2.48.033-1.653.033-3.307.02-4.961-.025-3.337-.132-6.669-.3-10q-.146-2.81-.353-5.616c-.058-.79-1.266-.605-1.217.179.416,6.58.538,13.166.52,19.757q0,1.385-.035,2.768c-.022.947-.138,1.908-.089,2.853a.643.643,0,0,0,.03.159q-6.664,5.876-12.9,12.224-6.58,6.71-12.633,13.911c-.566.674.521,1.5,1.084.827a240.78,240.78,0,0,1,23.06-23.877,243.537,243.537,0,0,1,22.316-17.92.676.676,0,0,0,.188.034,125.65,125.65,0,0,1,21.18,2.557c1.969.409,3.921.889,5.881,1.335.762.173,1.112-1.122.353-1.342" transform="translate(-67.236 -38.005)" fill="#bcb19a"/>
        <path id="Trazado_186933" data-name="Trazado 186933" d="M133.15,238.879a184.209,184.209,0,0,0-10.641-84.257c-2.223-6.842-12.289-25.9-19.557-16.885-1.991,2.468.059,7.329-2.805,8.691-3.5,1.315-5.421-2.951-6.01-5.765-1.583-7.167-15.777-28.887-23.431-20.1-3.085,3.544-1.837,6.932-3.05,9.284-2.225,3.266-6.01-.39-8.755-3.23A79.447,79.447,0,0,0,29.845,110.8C17.6,106.12,5.332,112.67,8.673,126.762c3.131,11.49,14.915,17.119,22.889,24.923-6.05-2.027-30.926-1.376-20.635,11.622,9.431,11.913,34.058,6.419,40.932,18.694-6.015-1.15-17.72,2.648-13.346,9.608,5.533,8.806,33.186,8.194,41.568,10.952-8.892,1.747-14.557,11.193-3.421,14.9,18.8,7.531,37.595,15.063,56.489,21.419" transform="translate(-1.644 -22.14)" fill="#e2dfcf"/>
        <path id="Trazado_186934" data-name="Trazado 186934" d="M44.52,169.971a116.251,116.251,0,0,1,13.36-1.31q6.707-.337,13.426-.053c1.963.081,3.923.212,5.882.368-.708-.625-1.413-1.255-2.128-1.873q-4.376-3.776-8.895-7.38c-3.065-2.445-6.214-4.781-9.293-7.208-.785-.618.241-1.978,1.067-1.4,5.73,4.008,11.132,8.553,16.429,13.11q7.883,6.78,15.327,14.052,6.1,5.964,11.84,12.273c.067-.6.156-1.2.213-1.8.1-1.029.2-2.06.3-3.09.2-2.06.441-4.116.7-6.171.516-4.144,1.135-8.273,1.833-12.391q.587-3.472,1.254-6.931c.187-.974,1.663-.569,1.486.4-1.473,8.12-2.581,16.291-3.516,24.489q-.2,1.721-.359,3.447c-.112,1.18-.106,2.392-.3,3.56a.791.791,0,0,1-.06.193q7.432,8.274,14.258,17.072,7.206,9.3,13.685,19.132c.606.92-.865,1.785-1.467.871a301.24,301.24,0,0,0-25.2-33.037,304.714,304.714,0,0,0-25.139-25.524.835.835,0,0,1-.24.016,157.262,157.262,0,0,0-26.7.1c-2.508.222-5,.536-7.506.805-.973.1-1.22-1.557-.244-1.72" transform="translate(-8.892 -30.581)" fill="#bcb19a"/>
        <path id="Trazado_186935" data-name="Trazado 186935" d="M321.4,4.31v227.6a4.309,4.309,0,0,1-4.309,4.309H149.26a4.31,4.31,0,0,1-4.31-4.309V4.31A4.31,4.31,0,0,1,149.26,0H317.091A4.309,4.309,0,0,1,321.4,4.31" transform="translate(-29.36 0)" fill="#bcb19a"/>
        <path id="Trazado_186936" data-name="Trazado 186936" d="M315.736,16.1V223.626a4.208,4.208,0,0,1-4.208,4.208h-150.6a4.208,4.208,0,0,1-4.208-4.208V16.1a4.208,4.208,0,0,1,4.208-4.208h150.6a4.208,4.208,0,0,1,4.208,4.208" transform="translate(-31.744 -2.41)" fill="#e2dfcf"/>
        <path id="Trazado_186937" data-name="Trazado 186937" d="M400.982,239.768v45.014H254.467a18.126,18.126,0,0,1-11.4-4.01c-.018-.013-.033-.027-.049-.04a18.154,18.154,0,0,1-6.762-14.156v-8.6a18.159,18.159,0,0,1,6.814-14.2c.071-.059.145-.118.219-.175a18.134,18.134,0,0,1,11.176-3.833Z" transform="translate(-47.855 -48.566)" fill="#899eaa"/>
        <path id="Trazado_186938" data-name="Trazado 186938" d="M311.393,244.794v37H243.07c-.017-.012-.032-.027-.049-.039a18.153,18.153,0,0,1-6.762-14.156v-8.6a18.158,18.158,0,0,1,6.813-14.2Z" transform="translate(-47.855 -49.584)" fill="#5f7884"/>
        <path id="Trazado_186939" data-name="Trazado 186939" d="M414.906,244.794v37H312.866c-2.257,0-4.293-2.048-5.73-5.333-.065-.151-.131-.3-.194-.464a23.928,23.928,0,0,1-1.071-3.386c-.035-.146-.068-.287-.1-.437a31.813,31.813,0,0,1-.652-4.317c-.012-.146-.025-.287-.034-.433-.061-.861-.094-1.744-.094-2.64V261.8c0-.463.008-.919.024-1.368.006-.146.013-.292.021-.437.057-1.179.17-2.327.333-3.422.022-.15.047-.3.072-.455a26.894,26.894,0,0,1,1.245-4.865c.055-.15.112-.3.17-.446,1.445-3.682,3.6-6.018,6.012-6.018Z" transform="translate(-61.777 -49.584)" fill="#e2dfcf"/>
        <path id="Trazado_186940" data-name="Trazado 186940" d="M415.336,250.838v.4c-5.195-.9-19.445-1.616-55.883-.768-21.213.494-42.554,1.351-52.338,1.77.055-.15.112-.3.17-.446,9.9-.428,31.252-1.285,52.426-1.77,37.07-.86,50.64-.088,55.626.813" transform="translate(-62.208 -50.568)" fill="#899eaa"/>
        <path id="Trazado_186941" data-name="Trazado 186941" d="M415,254.25v.411c-8.062,1.572-31.8,1.9-56.68,2.242-15.036.207-30.584.419-42.181.927-4.469.194-7.96.423-10.677.662.022-.15.047-.3.072-.455,2.643-.23,6.02-.446,10.331-.636,11.63-.517,27.3-.733,42.453-.94,14.522-.2,29.539-.407,40.633-.879A129.7,129.7,0,0,0,415,254.25" transform="translate(-61.873 -51.5)" fill="#899eaa"/>
        <path id="Trazado_186942" data-name="Trazado 186942" d="M398.074,262.65c9.209.08,14.185.433,16.838.905v.451c-.711-.128-1.608-.252-2.739-.362-3.24-.318-7.858-.494-14.117-.552-11.62-.1-27.219.265-42.3.613-20.321.472-39.879.931-50.733.345.006-.146.012-.291.02-.437,2.576.136,5.877.23,10.088.261,11.08.079,26.1-.27,40.623-.61,15.091-.348,30.7-.715,42.322-.613" transform="translate(-61.783 -53.197)" fill="#899eaa"/>
        <path id="Trazado_186943" data-name="Trazado 186943" d="M414.906,267.011v.4c-7.856,1.412-30.537,1.069-54.3.707-15.006-.226-30.522-.464-42.182-.238-6.123.119-10.434.362-13.435.667V268.1c9.7-1.006,29.51-.821,55.619-.423,14.671.225,28.529.433,39.163.252a113.713,113.713,0,0,0,15.133-.919" transform="translate(-61.777 -54.084)" fill="#899eaa"/>
        <path id="Trazado_186944" data-name="Trazado 186944" d="M400.739,273.442a141.919,141.919,0,0,1,14.191.777v.433c-2.8-.348-7.3-.64-14.349-.773-11.082-.212-26.105-.013-40.633.177-22.569.3-44.23.578-54.806-.455-.011-.145-.024-.287-.034-.432,3.107.3,7.314.494,12.794.609,11.528.234,27.042.03,42.044-.163,14.6-.19,29.692-.388,40.793-.172" transform="translate(-61.801 -55.332)" fill="#899eaa"/>
        <path id="Trazado_186945" data-name="Trazado 186945" d="M415.1,278.3v.428c-10.037,1.356-35.611,1.046-62.359.724-17.5-.212-35.373-.428-46.675-.057-.035-.146-.068-.287-.1-.437,10.859-.38,28.045-.172,46.778.053,16.094.195,32.738.4,45.308.177,8.616-.15,13.9-.486,17.049-.888" transform="translate(-61.976 -56.371)" fill="#899eaa"/>
        <path id="Trazado_186946" data-name="Trazado 186946" d="M357,284.837c24.884-.009,49.914-.419,58.4-.574v.442c-8.549.155-33.873.565-58.933.574h-.546c-24.655,0-39.433-.38-48.291-.9-.065-.151-.131-.3-.194-.464,8.972.53,23.913.919,48.505.919Z" transform="translate(-62.273 -57.509)" fill="#899eaa"/>
        <rect id="Rectángulo_38744" data-name="Rectángulo 38744" width="6.885" height="19.672" transform="translate(224.671 203.873)" fill="#899eaa"/>
        <path id="Trazado_186947" data-name="Trazado 186947" d="M440.147,293.193a2.06,2.06,0,1,1,2.06,2,2.033,2.033,0,0,1-2.06-2" transform="translate(-89.154 -58.982)" fill="#899eaa"/>
        <path id="Trazado_186948" data-name="Trazado 186948" d="M440.243,241.772a2.06,2.06,0,1,1,2.06,2,2.032,2.032,0,0,1-2.06-2" transform="translate(-89.173 -48.566)" fill="#899eaa"/>
        <path id="Trazado_186949" data-name="Trazado 186949" d="M294.015,172.621c-.924,0-1.793-.045-2.584-.085-.841-.043-1.638-.084-2.324-.063l-.043-1.423c.747-.022,1.569.02,2.44.065a23.169,23.169,0,0,0,6.621-.338l.32,1.388a19.6,19.6,0,0,1-4.431.457" transform="translate(-58.551 -34.592)" fill="#b65534"/>
        <path id="Trazado_186950" data-name="Trazado 186950" d="M250.339,156.731c-.925,0-1.793-.045-2.585-.085-.841-.043-1.634-.085-2.322-.063l-.042-1.423c.744-.022,1.567.02,2.438.065a23.179,23.179,0,0,0,6.623-.337l.321,1.387a19.613,19.613,0,0,1-4.432.457" transform="translate(-49.705 -31.373)" fill="#b65534"/>
        <path id="Trazado_186951" data-name="Trazado 186951" d="M195.232,150.295l-1.774-.132A5.606,5.606,0,0,1,195.831,146a11.682,11.682,0,0,1,9.018-1.558c1.207.27,2.417.642,3.588,1,3.022.931,5.874,1.81,8.644,1.044a16.35,16.35,0,0,0,3.447-1.584c1.824-1.01,3.71-2.057,5.92-1.97,2.4.089,4.305,1.465,6.151,2.8a12.3,12.3,0,0,0,4.553,2.435c2.858.565,5.475-1.134,8.246-2.932,2.51-1.63,5.105-3.315,8.12-3.466,3.05-.148,5.747,1.307,8.35,2.719,2.455,1.332,4.77,2.59,7.29,2.522a14.807,14.807,0,0,0,5.742-1.828,17.082,17.082,0,0,1,6.195-1.992c2.531-.148,4.868.765,7.127,1.649,1,.392,2.033.8,3.047,1.089,3.053.882,6.882.226,7.748-2.371l1.687.563c-1.215,3.645-6,4.65-9.928,3.516-1.092-.315-2.165-.734-3.2-1.141-2.175-.852-4.238-1.659-6.373-1.529a15.535,15.535,0,0,0-5.544,1.825,16.344,16.344,0,0,1-6.45,2c-2.988.08-5.632-1.351-8.187-2.737-2.5-1.354-4.848-2.636-7.412-2.506-2.536.127-4.927,1.68-7.24,3.181-2.947,1.913-5.992,3.892-9.56,3.185a13.8,13.8,0,0,1-5.248-2.735c-1.706-1.23-3.317-2.392-5.178-2.461-1.706-.061-3.307.816-4.992,1.749a17.951,17.951,0,0,1-3.834,1.742c-3.27.9-6.509-.093-9.641-1.058-1.138-.351-2.314-.714-3.452-.967a9.964,9.964,0,0,0-7.57,1.25,3.83,3.83,0,0,0-1.66,2.864" transform="translate(-39.186 -28.714)" fill="#bcb19a"/>
        <path id="Trazado_186952" data-name="Trazado 186952" d="M195.935,169.614l-.864-1.555a55.134,55.134,0,0,1,38.3-5.533c1.014.226,2.051.486,3.053.737,4.533,1.134,9.219,2.308,13.474.878a25.33,25.33,0,0,0,3.76-1.759c2.226-1.192,4.541-2.42,7.178-2.384s4.912,1.337,7.118,2.59c2.109,1.2,4.1,2.329,6.285,2.356h.078c2.052,0,3.965-.974,5.989-2a16.028,16.028,0,0,1,6.5-2.206c2.781-.116,5.256,1.113,7.65,2.3.781.389,1.589.791,2.38,1.128,2.988,1.276,6.792,1.351,8.281-.977l1.5.959c-2.116,3.307-6.915,3.175-10.478,1.653-.838-.357-1.669-.771-2.474-1.171-2.292-1.14-4.451-2.215-6.781-2.12a14.512,14.512,0,0,0-5.774,2.014c-2.151,1.1-4.373,2.218-6.895,2.2-2.643-.032-4.931-1.332-7.143-2.589-2.1-1.195-4.09-2.323-6.267-2.357s-4.191,1.037-6.31,2.173a26.729,26.729,0,0,1-4.033,1.877c-4.746,1.594-9.691.357-14.473-.839-.991-.248-2.016-.5-3.009-.726a53.346,53.346,0,0,0-37.052,5.352" transform="translate(-39.513 -32.408)" fill="#bcb19a"/>
        <path id="Trazado_186953" data-name="Trazado 186953" d="M176.267,21.213c-.309,5.52-.618,11.04-.73,17.284,40.314-.924,80.628-1.849,121.6-3.109.833-4.5,1.665-9,3.042-14.058-41.833-1.45-83.717-1.463-123.913-.116" transform="translate(-35.556 -4.096)" fill="#e2dfcf"/>
        <path id="Trazado_186954" data-name="Trazado 186954" d="M181.486,72.5a136.954,136.954,0,0,1-2.171,18.275c26.851-.726,53.7-1.453,81.453-1.876a59.728,59.728,0,0,1,.929-18.989c-27.026,1.2-54.052,2.4-80.212,2.59" transform="translate(-36.321 -14.161)" fill="#e2dfcf"/>
        <path id="Trazado_186955" data-name="Trazado 186955" d="M186.961,115.389c-.448,3.981-.9,7.961-1.418,11.435a478.983,478.983,0,0,0,77.857-2.348c.164-4.132.329-8.265.985-13.153-26.171,1.444-52.34,2.889-77.424,4.065" transform="translate(-37.583 -22.549)" fill="#e2dfcf"/>
        <path id="Trazado_186956" data-name="Trazado 186956" d="M190.943,178.725c0,3.182,0,6.363.029,9.33a335.844,335.844,0,0,1,35.66.557l.33-10.125a255.324,255.324,0,0,1-36.019.238" transform="translate(-38.676 -36.153)" fill="#e2dfcf"/>
        <path id="Trazado_186957" data-name="Trazado 186957" d="M244.668,176.641a30.818,30.818,0,0,0-.053,11.116c23.821-1.026,47.676-1.276,71.223-.794.23-3.7.459-7.4.762-11.075-24.411.274-48.821.549-71.932.754" transform="translate(-49.45 -35.627)" fill="#e2dfcf"/>
        <path id="Trazado_186958" data-name="Trazado 186958" d="M303.158,214.046a124.5,124.5,0,0,0,1.484-16.083c-36.89,2.557-73.851,3.374-110.789,2.777-.127,5.078-.1,9.758-.216,15.022,36.482.451,72.969.43,109.521-1.716" transform="translate(-39.222 -40.098)" fill="#e2dfcf"/>
        <path id="Trazado_186959" data-name="Trazado 186959" d="M132.336,260.485h-5.8L115.4,158.788l-2.148-19.608,3.683-19.366,2.145,19.605Z" transform="translate(-22.94 -24.269)" fill="#b65534"/>
        <path id="Trazado_186960" data-name="Trazado 186960" d="M197.517,260.343h-5.864L172.806,158.094l-3.575-19.4,2.254-19.584,3.575,19.4Z" transform="translate(-34.279 -24.127)" fill="#b65534"/>
        <rect id="Rectángulo_38745" data-name="Rectángulo 38745" width="47.289" height="4.979" transform="translate(85.245 163.922)" fill="#b27953"/>
        <rect id="Rectángulo_38746" data-name="Rectángulo 38746" width="45.632" height="4.979" transform="translate(89.32 138.854)" fill="#b27953"/>
        <rect id="Rectángulo_38747" data-name="Rectángulo 38747" width="43.764" height="4.979" transform="translate(93.749 115.199)" fill="#b27953"/>
        <path id="Trazado_186961" data-name="Trazado 186961" d="M110.2,136.532s.869,8.219,2.213,9.405,4.189-10.986,4.189-10.986l-1.9-1.976Z" transform="translate(-22.322 -26.935)" fill="#e2dfcf"/>
        <path id="Trazado_186962" data-name="Trazado 186962" d="M120.114,104.079,93.657,257.1H87.8l26.628-154Z" transform="translate(-17.785 -20.883)" fill="#b27953"/>
        <path id="Trazado_186963" data-name="Trazado 186963" d="M156.98,77.61l-4.713-1.94-.737,1.638L153.9,81.22Z" transform="translate(-30.693 -15.327)" fill="#838272"/>
        <path id="Trazado_186964" data-name="Trazado 186964" d="M163.167,81.724A14.08,14.08,0,0,1,157.753,81c-3.009-.991-3.656-1.718-3.656-1.718l2.541-7.059,4.557,2.069.1.085,2.4,1.955-.2,2Z" transform="translate(-31.213 -14.63)" fill="#fccb7d"/>
        <path id="Trazado_186965" data-name="Trazado 186965" d="M164.888,78.721a3.406,3.406,0,0,1-1.615-.073c-2.983-.8-2.278-4.533-2.278-4.533l1.687.648,2.405,1.955Z" transform="translate(-32.596 -15.012)" fill="#d2b569"/>
        <path id="Trazado_186966" data-name="Trazado 186966" d="M167.8,58.662s3.107,12.806-.633,14.894c-3.891,2.171-8.9-2.207-8.9-2.207V61.4l4.144-2.758Z" transform="translate(-32.057 -11.878)" fill="#fccb7d"/>
        <path id="Trazado_186967" data-name="Trazado 186967" d="M169.3,70.2a.688.688,0,0,1-.3-.067.116.116,0,1,1,.108-.206.446.446,0,0,0,.478-.069.319.319,0,0,0,.113-.232,2.731,2.731,0,0,0-.721-1.394.116.116,0,0,1,.175-.153c.033.038.825.943.777,1.565a.546.546,0,0,1-.2.392.664.664,0,0,1-.435.163" transform="translate(-34.218 -13.781)" fill="#d2b569"/>
        <path id="Trazado_186968" data-name="Trazado 186968" d="M168.287,72.547a1.568,1.568,0,0,1-1.008-.445.116.116,0,0,1,.16-.167c.033.031.8.751,1.41.128a.116.116,0,0,1,.167.163.992.992,0,0,1-.729.321" transform="translate(-33.876 -14.564)" fill="#d2b569"/>
        <path id="Trazado_186969" data-name="Trazado 186969" d="M167.183,67.8a.24.24,0,1,1-.259-.219.24.24,0,0,1,.259.219" transform="translate(-33.767 -13.689)"/>
        <path id="Trazado_186970" data-name="Trazado 186970" d="M170.623,66.936a.24.24,0,1,1-.259-.219.24.24,0,0,1,.259.219" transform="translate(-34.464 -13.514)"/>
        <path id="Trazado_186971" data-name="Trazado 186971" d="M165.875,65.163c.132.2-.143.615-.612.92s-.958.39-1.09.187.143-.614.613-.92.958-.39,1.089-.187" transform="translate(-33.247 -13.177)"/>
        <path id="Trazado_186972" data-name="Trazado 186972" d="M170.852,64.744c-.022.207-.345.341-.721.3s-.662-.242-.639-.449.345-.341.721-.3.661.242.639.449" transform="translate(-34.331 -13.022)"/>
        <path id="Trazado_186973" data-name="Trazado 186973" d="M166.059,68.076a.115.115,0,0,1-.08-.031.116.116,0,0,1,0-.163,1.549,1.549,0,0,1,1.322-.572.115.115,0,0,1,.093.134.113.113,0,0,1-.134.095,1.327,1.327,0,0,0-1.112.5.115.115,0,0,1-.085.036" transform="translate(-33.612 -13.632)"/>
        <path id="Trazado_186974" data-name="Trazado 186974" d="M203.066,67.841s3.927-8.019,5.389-7.427,13.973-2.526,9.195,2.252c-2.583,2.583-10.711,6.2-10.711,6.2Z" transform="translate(-41.132 -12.144)" fill="#fccb7d"/>
        <path id="Trazado_186975" data-name="Trazado 186975" d="M195.691,50.75a36.38,36.38,0,0,1-.7,9.313c19.474-.629,38.949-1.259,58.393-1.7.159-2.8.317-5.6.707-8.655-9.966.154-49.192.757-58.4,1.037" transform="translate(-39.496 -10.07)" fill="#e2dfcf"/>
        <path id="Trazado_186976" data-name="Trazado 186976" d="M202.46,68.086c.416-3.544.283-5.815,3.451-9.88a14.754,14.754,0,0,1,1.293-1.429,1.027,1.027,0,0,1,1.1-.189,1.211,1.211,0,0,1,.533.882c.25,1.347-.483,2.659-1.189,3.833l-2.526,4.2a5.044,5.044,0,0,1-2.665,2.579" transform="translate(-41.009 -11.444)" fill="#fccb7d"/>
        <path id="Trazado_186977" data-name="Trazado 186977" d="M169.721,67.094a.116.116,0,0,1-.085-.195c.024-.026.58-.625,1.081-.4a.117.117,0,0,1,.058.153.115.115,0,0,1-.154.058c-.343-.155-.81.34-.815.345a.117.117,0,0,1-.085.037" transform="translate(-34.354 -13.46)"/>
        <path id="Trazado_186978" data-name="Trazado 186978" d="M153.337,139.221l-7.943,67.454H132.354l4.5-64.372,8.654-5.809Z" transform="translate(-26.809 -27.648)" fill="#59404b"/>
        <path id="Trazado_186979" data-name="Trazado 186979" d="M143.987,136.571s-13.752,38.41-22.05,41.492-31.06-16.241-31.06-16.241l6.994-9.01,16.953,7.825s7.706-26.318,9.958-28.57,19.2,4.5,19.2,4.5" transform="translate(-18.408 -26.658)" fill="#59404b"/>
        <path id="Trazado_186980" data-name="Trazado 186980" d="M155.513,234.262H129.827l1.149-3.738.927-3.006.928-3.018h12.051Z" transform="translate(-26.297 -45.474)" fill="#405d64"/>
        <path id="Trazado_186981" data-name="Trazado 186981" d="M94.113,156.4l-7,9.01-14.8,3.689,14.8-19.771Z" transform="translate(-14.649 -30.248)" fill="#405d64"/>
        <path id="Trazado_186982" data-name="Trazado 186982" d="M149.055,228.7l-.025-.23a4.078,4.078,0,0,0,1.734-.43s-.008-.01-.022-.022c-.177-.165-.772-.04-1.25.061-.567.12-.923.187-1.108.053a.263.263,0,0,1-.108-.185.267.267,0,0,1,.058-.2c.151-.188.563-.233,1-.28a2.3,2.3,0,0,0,.666-.126s-.014-.018-.033-.038c-.2-.215-.714-.092-1.163.018-.482.117-.938.229-1.152-.022a.213.213,0,0,1-.05-.219c.077-.207.492-.283,1.163-.39.217-.034.494-.078.647-.122a3.4,3.4,0,0,0-.962.084c-.631.106-1.227.207-1.477-.061a.2.2,0,0,1-.055-.215c.073-.19.438-.242,1.254-.317.237-.021.539-.049.711-.083a5.876,5.876,0,0,0-2.13.058l-.041-.229c.191-.034,1.869-.325,2.4.017.112.073.121.152.108.2-.041.162-.283.2-1.023.264a4.88,4.88,0,0,0-1.031.157c.2.153.781.055,1.25-.024.546-.092,1.018-.171,1.237,0a.176.176,0,0,1,.08.188c-.04.157-.273.207-.927.312a3.135,3.135,0,0,0-.984.244c.133.127.557.022.931-.069.537-.131,1.092-.266,1.388.049a.261.261,0,0,1,.085.275c-.068.184-.357.225-.863.278-.317.034-.754.081-.843.195a.033.033,0,0,0-.009.03c.124.1.575.009.937-.069.586-.123,1.191-.251,1.457,0a.243.243,0,0,1,.085.263c-.12.359-1.39.532-1.93.589" transform="translate(-29.717 -45.708)"/>
        <path id="Trazado_186983" data-name="Trazado 186983" d="M81.262,170.378a.187.187,0,0,1-.15-.068c-.128-.159.009-.5.353-1.244.1-.216.227-.491.283-.657a5.874,5.874,0,0,0-1.016,1.873l-.218-.079c.065-.181.654-1.78,1.213-2.065.12-.061.192-.029.23.009.12.115.03.343-.282,1.017a4.929,4.929,0,0,0-.381.971c.234-.1.439-.648.606-1.094.193-.519.36-.967.616-1.072a.176.176,0,0,1,.2.025c.116.113.044.34-.194.958a3.127,3.127,0,0,0-.28.974c.175-.052.3-.471.406-.841.156-.53.316-1.078.736-1.177a.262.262,0,0,1,.282.063c.125.152.015.422-.191.887-.13.292-.307.693-.254.827a.035.035,0,0,0,.022.022c.152-.055.3-.494.41-.846.187-.569.379-1.156.726-1.262a.243.243,0,0,1,.27.058c.251.284-.234,1.47-.455,1.966l-.212-.094a4.038,4.038,0,0,0,.5-1.715s-.012,0-.03.008c-.231.07-.42.648-.573,1.112-.18.55-.3.892-.509.986a.259.259,0,0,1-.214,0,.267.267,0,0,1-.146-.152c-.088-.224.081-.6.258-1.006a2.259,2.259,0,0,0,.223-.639c-.006,0-.022,0-.049.01-.289.068-.436.572-.567,1.016-.139.477-.27.927-.6.987a.209.209,0,0,1-.214-.067c-.141-.169,0-.567.245-1.2.078-.2.178-.466.217-.62a3.413,3.413,0,0,0-.408.874c-.223.6-.435,1.167-.792,1.248a.273.273,0,0,1-.064.008" transform="translate(-16.309 -33.945)"/>
        <path id="Trazado_186984" data-name="Trazado 186984" d="M136.994,85.4s-26.218,5.041-31.556,14.758c-4.266,7.766-1.195,29.99,5.218,27.366,6.955-2.845,5.848-20.524,5.848-20.524l14.7-3.818Z" transform="translate(-20.958 -17.299)" fill="#bcb19a"/>
        <path id="Trazado_186985" data-name="Trazado 186985" d="M149.227,81.042s-8.043-2.872-13.817,17.6-6.565,19.758-3.878,23.789,16.717,8.14,23.138,5.927,10.9-45.126,3.628-44.874c-6.64.23-9.07-2.439-9.07-2.439" transform="translate(-26.343 -16.388)" fill="#bcb19a"/>
        <path id="Trazado_186986" data-name="Trazado 186986" d="M182.079,88.307s5.374-20.377,12.962-18.934C203.616,71,193.3,96.447,190.22,99.687s-37.706,7.009-36.908-6.019,28.768-5.361,28.768-5.361" transform="translate(-31.051 -14.037)" fill="#bcb19a"/>
        <path id="Trazado_186987" data-name="Trazado 186987" d="M149.243,75.633a4.436,4.436,0,0,0-2.752.136c-5.453,1.62-5.966,5.137-6.4,7.627-.426,2.438-7.113,10.1-.771,11.4s23.182-7.923,22.62-10.966c-.427-2.319-2.045-2.157-2.69-1.936a10.541,10.541,0,0,1-7.028-1.225c-2.075-1.191-2.978-5.037-2.978-5.037" transform="translate(-27.669 -15.291)" fill="#899eaa"/>
        <path id="Trazado_186988" data-name="Trazado 186988" d="M146.218,88.941l-.116-.45c2.664-.692,6.625-1.774,8.484-2.39a12.061,12.061,0,0,1-9.966-3.359l.353-.3a11.646,11.646,0,0,0,9.932,3.161c.726-.085,1.047-.093,1.1.184.049.26.11.583-9.786,3.155" transform="translate(-29.293 -16.699)" fill="#bcb19a"/>
        <path id="Trazado_186989" data-name="Trazado 186989" d="M159.758,59.944s1.849,1.148,3.2.771a1.408,1.408,0,0,0,1.172-1.522s2.862,1.463,3.652-.356-.039-4.069-3.359-4.544-7.393-.79-10.395,1.185-4.266,4.821-3.317,7.987c.623,2.079,1.62,2.564,1.62,2.564s-3.747,6.774,2.49,7.178c6.322.41,3.754-7.217,3.754-7.217V64.71a3.172,3.172,0,0,0,1.226.348c1.462-.146-.04-5.113-.04-5.113" transform="translate(-30.464 -10.925)"/>
        <path id="Trazado_186990" data-name="Trazado 186990" d="M161.739,67.714s-1.7-3.38-3.817-1.789.822,5.053,2.335,4.781,1.482-2.992,1.482-2.992" transform="translate(-31.837 -13.267)" fill="#fccb7d"/>
        <path id="Trazado_186991" data-name="Trazado 186991" d="M160.935,67.826a.114.114,0,0,1-.095-.048c-.8-1.128-2.453-.62-2.47-.615a.118.118,0,0,1-.146-.076.115.115,0,0,1,.076-.146c.018-.006,1.835-.565,2.73.7a.115.115,0,0,1-.095.183" transform="translate(-32.048 -13.533)" fill="#d2b569"/>
        <path id="Trazado_186992" data-name="Trazado 186992" d="M152.292,57.04s-3.507,1.955-3.938-1.5c-.317-2.534,2.529-3.359,2.529-3.359a3.238,3.238,0,0,1,2.725-3.715,2.994,2.994,0,0,1,3.4,1.423s3.122-1.225,4.07,1.067c.745,1.8-2.146,2.411-2.146,2.411l-3.781,1.778Z" transform="translate(-30.045 -9.799)"/>
        <path id="Trazado_186993" data-name="Trazado 186993" d="M153.049,58.367c-.027-.021-.663-.514-.682-1.028a.625.625,0,0,1,.229-.5.364.364,0,0,1,.335-.112c.184.061.239.325.3.628.052.254.118.569.256.652a.185.185,0,0,0,.16.007c.063-.02.1-.045.111-.077.041-.12-.159-.4-.321-.63-.211-.3-.411-.577-.366-.808a.35.35,0,0,1,.423-.26c.215.066.344.365.479.683.1.23.222.518.342.565a.089.089,0,0,0,.072,0,.085.085,0,0,0,.05-.051c.051-.144-.128-.5-.273-.777-.213-.417-.414-.811-.14-.96a.239.239,0,0,1,.2-.018c.17.061.27.309.384.6.089.219.21.521.327.564a.089.089,0,0,0,.077-.01c.043-.023.048-.044.05-.053.024-.1-.132-.324-.258-.5-.215-.307-.482-.69-.187-.923a.277.277,0,0,1,.249-.061.372.372,0,0,1,.2.153.624.624,0,0,1-.018-.333.428.428,0,0,1,.223-.273.4.4,0,0,1,.35-.034.516.516,0,0,1,.219.19.464.464,0,0,1,.244-.468.348.348,0,0,1,.337-.044.39.39,0,0,1,.18.2.616.616,0,0,1-.014-.409.26.26,0,0,1,.151-.139.246.246,0,0,1,.211.014c.175.095.241.386.317.722.044.193.116.517.193.554.15-.069.049-.42-.031-.7-.107-.376-.218-.765.049-.9a.223.223,0,0,1,.209-.009.311.311,0,0,1,.143.176.4.4,0,0,1,.044-.258.334.334,0,0,1,.29-.148c.23,0,.279.281.326.554.026.155.072.414.142.451a.086.086,0,0,0,.063-.012c.138-.065.136-.142-.01-.453-.108-.231-.272-.581.082-.773a.293.293,0,0,1,.288-.026c.123.078.112.25.1.451-.009.152-.022.36.049.429.01.009.038.035.126.029s.133-.049.149-.078c.1-.187-.095-.667-.241-.927l.2-.114c.045.081.434.791.243,1.15a.387.387,0,0,1-.335.2.371.371,0,0,1-.307-.094.356.356,0,0,1-.029-.032.363.363,0,0,1-.219.448.292.292,0,0,1-.27.009c-.174-.09-.22-.358-.265-.617a1.084,1.084,0,0,0-.1-.367.132.132,0,0,0-.09.043c-.065.106.089.451.191.679.132.292.226.5.144.636a.194.194,0,0,1-.163.089c-.4.013-.48-.459-.549-.838a1.182,1.182,0,0,0-.112-.4c-.1.059,0,.408.069.64.11.386.235.823-.07.97a.245.245,0,0,1-.223.006c-.177-.085-.242-.376-.318-.712-.047-.209-.118-.526-.2-.57l-.04.018c-.045.1.081.427.173.663.135.344.262.669.17.867a.271.271,0,0,1-.161.144.236.236,0,0,1-.208-.018c-.16-.1-.2-.375-.255-.7-.037-.232-.092-.584-.195-.632-.034-.014-.089.014-.118.032-.25.151-.108.452.12.863.166.3.338.606.09.75a.209.209,0,0,1-.184.018c-.154-.06-.226-.29-.327-.609-.089-.28-.21-.662-.37-.727a.168.168,0,0,0-.151.022.2.2,0,0,0-.11.128c-.053.2.163.54.335.815s.3.479.241.628a.206.206,0,0,1-.145.121c-.288.07-.443-.31-.6-.682-.084-.2-.21-.512-.3-.537-.01,0-.032.009-.045.02-.115.09.03.318.233.607.175.251.341.489.292.691a.307.307,0,0,1-.167.2.324.324,0,0,1-.265.024c-.215-.079-.341-.393-.463-.7-.064-.159-.182-.453-.249-.464-.085.045.132.473.226.655.189.371.368.721.284.96a.332.332,0,0,1-.426.195c-.21-.081-.336-.377-.47-.69-.1-.23-.222-.517-.335-.551-.009,0-.034-.011-.081.02a.087.087,0,0,0-.045.061c-.026.133.17.408.328.63.222.311.431.605.352.839a.365.365,0,0,1-.263.224.412.412,0,0,1-.347-.03c-.226-.134-.3-.474-.364-.8-.032-.152-.09-.435-.148-.455,0,0-.029,0-.108.065a.4.4,0,0,0-.151.321c.012.337.431.73.591.852Zm2.283-2.405c.077.187.213.517.3.537a2.093,2.093,0,0,0-.219-.4c-.028-.045-.057-.09-.085-.136m.82-.231a1.176,1.176,0,0,0,.171.4c.029-.03-.093-.258-.171-.4m.533-.829c.028.116.048.245.069.376.028.177.08.507.146.536.028-.009.033-.016.038-.025.05-.108-.081-.442-.175-.685-.027-.07-.053-.137-.077-.2m1.225-.638c.006.032.013.065.018.1.062.337.127.62.282.647a2.343,2.343,0,0,0-.153-.4c-.053-.117-.105-.235-.148-.349m1.022-.746a.34.34,0,0,0-.048.022c-.14.077-.12.179.018.471l.027.058a1.976,1.976,0,0,1,0-.322,1.389,1.389,0,0,0,0-.229" transform="translate(-30.863 -10.755)" fill="#fff"/>
        <path id="Trazado_186994" data-name="Trazado 186994" d="M174.459,111.247l-2.955,25.66-2.254,19.585L157.482,258.742h-5.809l14-121.646,2.254-19.584.726-6.3c1.919.107,3.884.114,5.8.04" transform="translate(-30.722 -22.526)" fill="#b27953"/>
        <rect id="Rectángulo_38748" data-name="Rectángulo 38748" width="49.485" height="4.979" transform="translate(76.347 213.707)" fill="#b27953"/>
        <rect id="Rectángulo_38749" data-name="Rectángulo 38749" width="49.485" height="4.979" transform="translate(81.232 188.788)" fill="#b27953"/>
        <path id="Trazado_186995" data-name="Trazado 186995" d="M331.361,114.356a137.7,137.7,0,0,0-26.763-.278,127.143,127.143,0,0,0-13.134,1.864c-.121-13.23-.327-26.293-.349-39.3q-.017-10.071.153-20.111c7.545-.309,15.023-.491,22.447-.829,5.436-.246,10.844-.581,16.233-1.114q-.037,9.147.071,18.385c.167,13.722.591,27.56,1.341,41.377" transform="translate(-58.967 -11.058)" fill="#fff"/>
        <path id="Trazado_186996" data-name="Trazado 186996" d="M334.786,119.026a137.7,137.7,0,0,0-26.763-.278,2.838,2.838,0,0,1,.786-.915c.857-.64,1.947-.921,2.8-1.569a4.14,4.14,0,0,0,1.1-5.133c-.708-1.3-2.106-2.152-2.644-3.529a4.168,4.168,0,0,1,.968-4.176,8.513,8.513,0,0,1,3.867-2.234c2-.627,4.507-1.274,4.981-3.32.317-1.366-.484-2.7-.961-4.02-1.7-4.685.915-10.124,5.016-12.956a20.588,20.588,0,0,1,9.506-3.248c.167,13.722.591,27.56,1.341,41.377" transform="translate(-62.392 -15.728)" fill="#bcb19a"/>
        <path id="Trazado_186997" data-name="Trazado 186997" d="M313.716,55.99a10.052,10.052,0,0,0-.5,2.109c-.309,2.515.2,5.426-1.526,7.289-1.455,1.576-3.867,1.658-6.012,1.7s-4.592.306-5.838,2.053c-1,1.395-.889,3.326-1.775,4.789-1.2,1.974-3.771,2.518-6.051,2.874-.292.046-.594.093-.9.128-.011-6.713.028-13.411.153-20.111,7.545-.309,15.023-.49,22.447-.829" transform="translate(-58.967 -11.341)" fill="#e2dfcf"/>
        <rect id="Rectángulo_38750" data-name="Rectángulo 38750" width="1.423" height="6.622" transform="translate(210.619 43.086) rotate(-42.828)" fill="#b65534"/>
        <path id="Trazado_186998" data-name="Trazado 186998" d="M264.936,58.106l-.876-1.121a19.45,19.45,0,0,0,4.592-5.124l1.211.748a20.863,20.863,0,0,1-4.927,5.5" transform="translate(-53.487 -10.505)" fill="#b65534"/>
        <path id="Trazado_186999" data-name="Trazado 186999" d="M266.106,60.668a6.27,6.27,0,1,1,6.27-6.27,6.277,6.277,0,0,1-6.27,6.27m0-11.117a4.847,4.847,0,1,0,4.847,4.847,4.853,4.853,0,0,0-4.847-4.847" transform="translate(-52.631 -9.749)" fill="#b65534"/>
        <path id="Trazado_187000" data-name="Trazado 187000" d="M278.275,115.365l-2.095-5.041,1.314-.546,1.3,3.137a30.589,30.589,0,0,1,3.694-2.831l.736,1.217a30.753,30.753,0,0,0-4.2,3.337Z" transform="translate(-55.942 -22.236)" fill="#405d64"/>
        <path id="Trazado_187001" data-name="Trazado 187001" d="M278.388,117.194c-3.733,0-6.77-2.718-6.77-6.058s3.037-6.058,6.77-6.058,6.77,2.718,6.77,6.058-3.037,6.058-6.77,6.058m0-10.672c-2.937,0-5.325,2.07-5.325,4.614s2.388,4.614,5.325,4.614,5.325-2.07,5.325-4.614-2.388-4.614-5.325-4.614" transform="translate(-55.018 -21.284)" fill="#405d64"/>
        <path id="Trazado_187002" data-name="Trazado 187002" d="M326.561,26.634l-2.095-5.042,1.313-.545,1.3,3.136a30.668,30.668,0,0,1,3.693-2.831l.737,1.217a30.777,30.777,0,0,0-4.2,3.337Z" transform="translate(-65.722 -4.263)" fill="#405d64"/>
        <path id="Trazado_187003" data-name="Trazado 187003" d="M326.673,28.462c-3.733,0-6.77-2.718-6.77-6.058s3.037-6.058,6.77-6.058,6.77,2.718,6.77,6.058-3.037,6.058-6.77,6.058m0-10.672c-2.937,0-5.325,2.07-5.325,4.614s2.388,4.614,5.325,4.614S332,24.948,332,22.4s-2.388-4.614-5.325-4.614" transform="translate(-64.798 -3.311)" fill="#405d64"/>
        <rect id="Rectángulo_38751" data-name="Rectángulo 38751" width="1.423" height="6.621" transform="translate(181.821 160.25) rotate(-23.329)" fill="#b65534"/>
        <path id="Trazado_187004" data-name="Trazado 187004" d="M228.3,205.723l-.876-1.122a19.423,19.423,0,0,0,4.592-5.123l1.211.748a20.838,20.838,0,0,1-4.927,5.5" transform="translate(-46.067 -40.405)" fill="#b65534"/>
        <path id="Trazado_187005" data-name="Trazado 187005" d="M229.274,208.277a6.242,6.242,0,1,1,6.672-6.227,6.468,6.468,0,0,1-6.672,6.227m0-10.85a4.642,4.642,0,1,0,5.068,4.623,4.866,4.866,0,0,0-5.068-4.623" transform="translate(-45.089 -39.665)" fill="#b65534"/>
      </g>
    </g>
    <rect id="Rectángulo_38863" data-name="Rectángulo 38863" width="395" height="292" transform="translate(-19378 -8638)" fill="none"/>
  </g>
</svg>
