<svg xmlns="http://www.w3.org/2000/svg" xmlns:xlink="http://www.w3.org/1999/xlink" width="395" height="292" viewBox="0 0 395 292">
  <defs>
    <clipPath id="clip-path">
      <rect id="Rectángulo_38753" data-name="Rectángulo 38753" width="341.484" height="273.185" fill="none"/>
    </clipPath>
  </defs>
  <g id="Grupo_122050" data-name="Grupo 122050" transform="translate(19378 8168)">
    <g id="Grupo_121812" data-name="Grupo 121812" transform="translate(-19351 -8163.468)">
      <g id="Grupo_121811" data-name="Grupo 121811" clip-path="url(#clip-path)">
        <path id="Trazado_187006" data-name="Trazado 187006" d="M119.862,124.324c1.251.881,1.494,2.751,3.831,3.228-2.334.568-2.657,2.37-3.8,3.415-.043-.22-.085-.44-.128-.66l-.258-.506.048-.017a2.471,2.471,0,0,0-2.109-1.9c-.044-.2-.087-.4-.131-.592a2.946,2.946,0,0,0,2.556-2.984Z" transform="translate(-20.113 -21.313)" fill="#e2dfcf"/>
        <path id="Trazado_187007" data-name="Trazado 187007" d="M205.647,21.151c-1.751.574-2.307,1.887-2.936,3.3a3.871,3.871,0,0,0-2.477-3.252,4.231,4.231,0,0,0,2.477-3.528,4.8,4.8,0,0,0,2.936,3.485" transform="translate(-34.332 -3.029)" fill="#e2dfcf"/>
        <path id="Trazado_187008" data-name="Trazado 187008" d="M152.887,67.051c.152-.321.538-.654-.041-.943a4.419,4.419,0,0,0,1.578-2.967c.548,1.692,1.226,2.84,2.948,3.4a4.427,4.427,0,0,0-2.842,3.68,5.605,5.605,0,0,0-1.644-3.168" transform="translate(-26.207 -10.826)" fill="#e2dfcf"/>
        <path id="Trazado_187009" data-name="Trazado 187009" d="M149.529,226.81c.429,1.96,1.794,3.019,3.943,3.807-2.733.819-3.8,2.795-4.521,5.312a7.1,7.1,0,0,0-.84-2.733,3.8,3.8,0,0,0-2.492-1.82,1,1,0,0,1-.647-.934c.007-.787.562-.18.847-.277,2.1-.71,2.718-2.5,3.137-4.661.258.586.415.946.573,1.306" transform="translate(-24.856 -38.664)" fill="#e2dfcf"/>
        <path id="Trazado_187010" data-name="Trazado 187010" d="M175.991,100.763c-2.476.568-3.214,2.568-3.829,4.73-.5-1.145-.478-2.455-1.51-3.274q-.307-.336-.612-.674a1.747,1.747,0,0,0-1.328-.718l-1.109-.356.061-.105-.1-.072q.572-.172,1.143-.34a2.367,2.367,0,0,0,1.659-.981l.429-.579-.02.046.475-.828-.042.036a1.711,1.711,0,0,0,.514-1.373l.387-.8c.575,1.027.512,2.4,1.707,3.011l.029.029c.089,1.346,2.08.879,2.144,2.249" transform="translate(-28.73 -16.37)" fill="#e2dfcf"/>
        <path id="Trazado_187011" data-name="Trazado 187011" d="M244.189,63.379a8.633,8.633,0,0,0-.617.99,13.049,13.049,0,0,0-.448,1.412c-.741-1.6-.939-3.275-2.507-4.008a.824.824,0,0,0-.816-.346l.033.022c.389-.391-1.641-.271-.177-.95a3.955,3.955,0,0,0,2.629-3.46.562.562,0,0,0,.4-.711c.263-.007.588-.056.653.278.442,2.274,2.108,3.422,3.984,4.385a7.431,7.431,0,0,0-3.136,2.387" transform="translate(-40.998 -9.657)" fill="#e2dfcf"/>
        <path id="Trazado_187012" data-name="Trazado 187012" d="M136.551,198.559a.68.68,0,0,1-.563-.684c2.493-.29,3.262-2.2,3.985-4.663.77,2.51,1.847,4.316,4.644,4.892-2.569.865-3.936,2.232-4.283,4.479-.5.383-.5.383-.831-.569a4.054,4.054,0,0,0-2.952-3.454" transform="translate(-23.316 -33.128)" fill="#e2dfcf"/>
        <path id="Trazado_187013" data-name="Trazado 187013" d="M241.788,142.027c-2.011.631-2.452,2.431-3.13,4.311-1.187-1.9-1.374-4.593-4.468-4.7,2.7-.806,3.939-2.571,4.366-5.55.794,2.717,1.714,4.724,4.331,5.147l-1.1.79" transform="translate(-40.154 -23.334)" fill="#e2dfcf"/>
        <path id="Trazado_187014" data-name="Trazado 187014" d="M171.014,171.315l-.776,1.81c-.5-2.4-1.444-4.279-4.252-5.022,1.344-.563,2.443-.928,3.008-1.981.805-.773.882-1.876,1.317-3.049.621,2.347,1.709,4.119,4.236,4.97-1.715.786-3.024,1.636-3.533,3.271" transform="translate(-28.459 -27.96)" fill="#e2dfcf"/>
        <path id="Trazado_187015" data-name="Trazado 187015" d="M199.3,155.512a5.276,5.276,0,0,0-3.271,3.962c-.531-1.972-1.193-3.254-3.29-3.889a4.51,4.51,0,0,0,3.269-3.564,4.875,4.875,0,0,0,3.292,3.491" transform="translate(-33.047 -26.065)" fill="#e2dfcf"/>
        <path id="Trazado_187016" data-name="Trazado 187016" d="M235.358,100.321a1.3,1.3,0,0,1-.788.776c-1.293.518-1.6,1.82-2.245,2.889l-.572-.827c-.084-1.446-1.232-1.922-2.53-2.6a3.919,3.919,0,0,0,2.929-3.665.76.76,0,0,0,.16-.219c.425,1.708,1.087,3.219,3.046,3.646" transform="translate(-39.302 -16.576)" fill="#e2dfcf"/>
        <path id="Trazado_187017" data-name="Trazado 187017" d="M281.68,187.089c.911-.712.665-1.978,1.382-2.949.5,2.422,1.66,4.159,4.273,4.907-2.09.843-3.556,2.027-3.953,4.156-.314.853-.616.847-.788-.045a5.043,5.043,0,0,0-3.792-4.02c1.1-.587,2.32-.875,2.878-2.05" transform="translate(-47.803 -31.572)" fill="#e2dfcf"/>
        <path id="Trazado_187018" data-name="Trazado 187018" d="M263.142,215.177a5.237,5.237,0,0,0-3.474,3.84c-.549-1.824-1.218-3.149-3.27-3.749,1.962-.687,2.87-1.863,3.21-4.143.616,2.119,1.336,3.429,3.535,4.052" transform="translate(-43.961 -36.199)" fill="#e2dfcf"/>
        <path id="Trazado_187019" data-name="Trazado 187019" d="M152.408,139.259c-1.9.681-2.7,2.03-3.3,3.968-.4-2.046-1.211-3.38-3.324-3.965a4.2,4.2,0,0,0,3.3-3.859c.632,1.828,1.425,3.19,3.32,3.856" transform="translate(-24.996 -23.216)" fill="#e2dfcf"/>
        <path id="Trazado_187020" data-name="Trazado 187020" d="M240.389,174.486c1.517-.718,2.546-1.509,2.812-3.112a4.64,4.64,0,0,0,2.864,2.956,4.779,4.779,0,0,0-2.789,3.642c-.519-1.9-1.094-3.129-2.887-3.486" transform="translate(-41.216 -29.383)" fill="#e2dfcf"/>
        <path id="Trazado_187021" data-name="Trazado 187021" d="M186.093,231.272l0,.006c-1.467.361-2.15,1.465-2.7,3.491-.411-1.929-.982-3.069-2.742-3.582a4.688,4.688,0,0,0,2.752-3c.46,1.5,1.643,2.228,2.686,3.088" transform="translate(-30.975 -39.124)" fill="#e2dfcf"/>
        <path id="Trazado_187022" data-name="Trazado 187022" d="M204.008,118.479c.616,1.572,1.228,2.664,3.206,3.144a4.247,4.247,0,0,0-3.142,3.2c-.632-1.4-1.075-2.684-3.2-3.061a4.208,4.208,0,0,0,3.139-3.279" transform="translate(-34.44 -20.314)" fill="#e2dfcf"/>
        <path id="Trazado_187023" data-name="Trazado 187023" d="M207.12,274.1c-.362-1.275-1.947-1.388-2.427-2.552,1.89-.361,2.556-1.723,2.844-3.6.721,1.6,1.31,3.179,3.544,3.776a5.1,5.1,0,0,0-3.366,3.679l-.6-1.306" transform="translate(-35.096 -45.942)" fill="#e2dfcf"/>
        <path id="Trazado_187024" data-name="Trazado 187024" d="M210.731,205.33c-.114.3-.227.6-.5,1.325-.589-2.7-1.535-4.685-4.668-5.265,3-.624,4.124-2.365,4.691-4.762a6.534,6.534,0,0,0,4.071,4.743,1.151,1.151,0,0,1-.107.167,1.032,1.032,0,0,1-.154.126,4.764,4.764,0,0,0-3.333,3.665" transform="translate(-35.245 -33.713)" fill="#e2dfcf"/>
        <path id="Trazado_187025" data-name="Trazado 187025" d="M289.46,158.754c.023-1.83-1.694-2.37-2.6-3.507,1.86-.245,2.353-1.705,2.861-3.4.627,1.582,1.265,2.973,3.288,3.593-2.075.649-2.03,2.631-3.3,3.574-.014.011-.1-.056-.136-.1a1.12,1.12,0,0,1-.11-.165" transform="translate(-49.184 -26.036)" fill="#e2dfcf"/>
        <path id="Trazado_187026" data-name="Trazado 187026" d="M254.629,255.578c-.362-2.253-1.2-3.506-3.211-4.15,2.012-.593,2.877-1.837,3.208-3.94.581,1.958,1.4,3.285,3.353,3.931-1.959.736-2.772,2.058-3.35,4.159" transform="translate(-43.107 -42.434)" fill="#e2dfcf"/>
        <path id="Trazado_187027" data-name="Trazado 187027" d="M135.464,110.061c1.242-.429.883-2.031,1.914-2.615a3.665,3.665,0,0,1,2.438-1.579c-.046-.706-.8-.635-1.129-1.026-1.892-.774-2.27-2.617-2.967-4.671-.428,2.918-1.59,4.788-4.674,5.458,2.843.646,4.088,2.132,4.418,4.433" transform="translate(-22.469 -17.175)" fill="#d2d6d1"/>
        <path id="Trazado_187028" data-name="Trazado 187028" d="M107.457,164.941,107,165.978c-.362,1.3-1.408,1.9-2.632,2.448,2.172.286,2.346,2.3,3.4,3.495a3.3,3.3,0,0,1,1.676-2.692l.389-.316.854-.349c-.056-.183-.113-.367-.17-.55-1.895-.056-2.1-1.922-3.067-3.073" transform="translate(-17.895 -28.28)" fill="#d2d6d1"/>
        <path id="Trazado_187029" data-name="Trazado 187029" d="M186.517,39.758c.707-1.724,1.476-3.086,3.525-3.819-2.16-.563-2.913-1.926-3.491-3.777-.478,1.907-1.138,3.316-3.117,3.839,1.967.464,2.52,1.97,3.082,3.757" transform="translate(-31.451 -5.515)" fill="#d2d6d1"/>
        <path id="Trazado_187030" data-name="Trazado 187030" d="M149.379,70.226c.457-1.691,1.066-2.77,2.38-3.257.152-.321.538-.654-.041-.943-1.563-.48-1.857-1.962-2.545-3.356-.37,1.8-1.073,3.2-2.9,3.858,1.82.558,2.3,2.067,3.111,3.7" transform="translate(-25.079 -10.745)" fill="#d2d6d1"/>
        <path id="Trazado_187031" data-name="Trazado 187031" d="M258.231,178.977a5.042,5.042,0,0,0-3.792-4.02c1.1-.587,2.32-.875,2.878-2.05-2.153-4.26-4.656-8.248-8.407-11.338a33.791,33.791,0,0,0-20.424-7.735c-.466-.023-.931-.071-1.4-.109a57.238,57.238,0,0,0-10.694,1.28,87.848,87.848,0,0,0-11.053,3.386c-6.956,2.786-13.761,6.049-21.236,7.255-6.723,1.085-13.164.751-18.111-4.9l-.776,1.81c-.5-2.394-1.444-4.278-4.252-5.022,1.344-.563,2.443-.928,3.008-1.981-1.264-8.333,4.446-17.36,12.383-19.576a10.865,10.865,0,0,1,13.606,12.372c-.594,3.283-3,4.621-6.1,3.365a11.9,11.9,0,0,1-3.1-1.841c-.845-.7-1.716-1.362-2.847-2.255a11.817,11.817,0,0,0,1.235,4.011c2.53,5.844,6.282,8.251,12.631,7.87,5.78-.348,10.586-2.95,14.814-6.787a22.835,22.835,0,0,0,7.8-18.878,29.129,29.129,0,0,0-5.106-14.248,40.98,40.98,0,0,0-20.878-16.611,46.072,46.072,0,0,0-17.71-1.188c-2.476.568-3.215,2.568-3.829,4.729-.5-1.145-.479-2.455-1.509-3.274l-1.128.225-4.751,2.007-1.288.721-3.092,1.786-.059-.035a.666.666,0,0,1-.788.471l0,.038c-.143.626-.679.822-1.169,1.068l-2.214,1.936-4.757,5.312-.338.389q-2.223,4.065-4.448,8.13a.374.374,0,0,1-.1.3,15.618,15.618,0,0,1-1.44,3.633q-.1.4-.2.8a6.294,6.294,0,0,1-.761,2.411l-.152.82q-.149.6-.3,1.2l-.257.828c-.438,3.032-1.043,6.051-1.279,9.1a40.365,40.365,0,0,0,2.1,16.642q.158.415.317.831l.105.133-.11.109-.35.242c.133.981,1.475.93,1.623,1.9l4.007,5.661c.822.667,1.663,1.312,2.461,2.005,7.719,6.711,16.539,10.145,26.882,9.075,1.165-.437,2.489-.036,3.612-.689l.851-.185.809-.107,4-1.307.833-.331a.761.761,0,0,1,.365-.131c5.762-2.361,11.507-4.766,17.911-4.7a18.088,18.088,0,0,1,17.875,16.535,11.948,11.948,0,0,1-11.374,12.984,25.546,25.546,0,0,1-12.4-2.826c-3.629-1.721-7.186-3.593-10.774-5.4l-.428-.316.012.031a1.366,1.366,0,0,1-1.2-.818,4.843,4.843,0,0,1-2.8-.859l-1.215-.4-.61-.352-1.012-.1-.187.027-.185-.036a6.532,6.532,0,0,1-2.433-.66c-.736-.046-1.476-.056-2.207-.142a24.276,24.276,0,0,0-16.607,4.167c-3.882,2.553-6.415,6.207-8.59,10.182.429,1.961,1.794,3.019,3.943,3.807-2.733.819-3.8,2.795-4.521,5.312a7.1,7.1,0,0,0-.84-2.733,23.616,23.616,0,0,0,2.387,14.224c2.829,5.519,7.164,8.793,13.532,9.142a44.476,44.476,0,0,0,10.745-1.122c3.939-.745,7.846-1.715,11.9-1.66A28.1,28.1,0,0,1,200,234.373c8.028,3.405,11.02,11.025,7.452,19-1.377,3.078-3.521,5.672-5.2,8.558l.355.346c12.713-6.657,15.222-20.632,9.5-31.369-2.475-4.642-6.855-6.489-11.584-7.787-4.96-1.362-10.143-1.8-15-3.6A13.858,13.858,0,0,1,180.5,216.7c-2.066-2-3.308-4.222-1.942-7.154-1.467.363-2.151,1.466-2.7,3.491-.411-1.929-.982-3.069-2.742-3.582a4.691,4.691,0,0,0,2.752-3c.46,1.495,1.643,2.227,2.685,3.087,3.093-3.68,7.026-4.229,11.581-3.6,5.69.78,10.255,3.636,14.853,6.729,3.174,2.136,6.168,4.561,9.682,6.212a36.515,36.515,0,0,0,8.4,2.571,48.651,48.651,0,0,0,20.753-4.1,24.3,24.3,0,0,0,14.241-15.719,41.235,41.235,0,0,0,.948-22.608c-.313.852-.616.846-.787-.046m-65.225-63.421c.616,1.571,1.229,2.663,3.206,3.144a4.246,4.246,0,0,0-3.141,3.2c-.632-1.4-1.076-2.684-3.2-3.061a4.206,4.206,0,0,0,3.139-3.279M147.553,137.4c-.4-2.046-1.211-3.38-3.324-3.965a4.2,4.2,0,0,0,3.3-3.858c.632,1.827,1.425,3.189,3.32,3.855-1.9.681-2.7,2.03-3.3,3.968M225.5,165.979c-.519-1.9-1.095-3.129-2.888-3.486,1.518-.717,2.547-1.509,2.812-3.112a4.644,4.644,0,0,0,2.863,2.957,4.777,4.777,0,0,0-2.787,3.641m13.646,34.229c-.549-1.824-1.218-3.149-3.27-3.749,1.962-.686,2.87-1.863,3.21-4.143.616,2.119,1.336,3.429,3.535,4.052a5.239,5.239,0,0,0-3.474,3.84" transform="translate(-23.44 -17.39)" fill="#d2d6d1"/>
        <path id="Trazado_187032" data-name="Trazado 187032" d="M193.726,212.8l0,.007h0Z" transform="translate(-33.216 -36.486)" fill="#d2d6d1"/>
        <path id="Trazado_187033" data-name="Trazado 187033" d="M236.079,127.142c-.01-.019-.019-.038-.029-.056,0,.026,0,.051.007.076Z" transform="translate(-40.472 -21.79)" fill="#d2d6d1"/>
        <path id="Trazado_187034" data-name="Trazado 187034" d="M214.38,87.663c2.886,4.606,8.6,8.232,14.788,3.256a.762.762,0,0,0,.161-.219,10.749,10.749,0,0,0,3.024-6.846c.051-3.4-1.8-4.971-5.126-4.275-1.3.273-2.567.732-4.033,1.16a4.593,4.593,0,0,1,2.815-4.021,8.573,8.573,0,0,1,10.428,3.646c2.3,4.236,1.873,7.672-1.406,11.233-.863.938-1.771,1.834-2.658,2.749a1.293,1.293,0,0,1-.789.776l-2.087,3.94q-.178.676-.357,1.351l.034.1-.1.071c-1.214,5.5.3,10.5,2.82,15.307q-.16-1.961-.321-3.924c-.417-5.038-.389-9.982,3.338-14.019a37.077,37.077,0,0,1,7.009-5.363c5.134-3.419,8.211-7.966,7.282-14.369-.9-6.186-3.8-11.122-9.7-13.9a8.634,8.634,0,0,0-.617.99,13.049,13.049,0,0,0-.448,1.412c-.741-1.6-.939-3.275-2.507-4.008l-.816-.345.032.021a35.306,35.306,0,0,0-8.179-.465,16.6,16.6,0,0,0-9.638,3.893c-4.27,3.81-5.6,8.778-5.51,14.285a22.276,22.276,0,0,0,2.554,7.557" transform="translate(-36.318 -10.601)" fill="#d2d6d1"/>
        <path id="Trazado_187035" data-name="Trazado 187035" d="M137.309,202.066a7.124,7.124,0,0,1-2.951-3.453.68.68,0,0,1-.564-.684,11.689,11.689,0,0,1-.993-3.714c-.124-.234-.2-.618-.383-.673-.418-.128-.26.307-.292.49a7.578,7.578,0,0,1-1.288,3.75,5.553,5.553,0,0,1-.566,1.664c-.693.911-1.019,2.369-2.654,2.128q-.081.324-.159.647c-1.1,1.124-2.8,1.046-4.271,1.935,5.236.718,8.483,4.588,9.041,10.455,1.409-5.073,3.621-9.435,9.593-10.589l-3.68-1.385c-.5.382-.5.382-.832-.57" transform="translate(-21.121 -33.18)" fill="#d2d6d1"/>
        <path id="Trazado_187036" data-name="Trazado 187036" d="M184.35,78.077c3.946,1.11,6,3.42,6.544,7.026l-.322.535c.819.748,1,.388,1.179-.534a8.673,8.673,0,0,1,3.737-5.706c.821-.552,2.013-.437,2.644-1.476-3.951-1.016-5.846-3.778-6.535-7.586-.036-.2.212-.93-.529-.551-.037.268-.075.534-.113.8-.334,3.888-2.367,6.391-6.6,7.49" transform="translate(-31.608 -11.947)" fill="#d2d6d1"/>
        <path id="Trazado_187037" data-name="Trazado 187037" d="M284,117.086q-.086-.385-.172-.771-.188-.6-.374-1.2l-.756-2.42q-.167-.424-.332-.847l-.393-.8-2.436-3.883a22.546,22.546,0,0,0-5.343-4.222c-7.63-3.822-18.985-1.165-24.759,5.676-3.726,4.414-4.615,9.368-3.535,14.877.7,3.566,1.312,7.207.419,10.783-1.485,5.946-5.48,10.142-10.161,13.864,7.162-1.864,14.238-3.933,20.023-8.946l0,.012.691-.829.921-1.167a16.756,16.756,0,0,0,2.042-6.433l0-.813q-.015-.8-.029-1.607a12.692,12.692,0,0,1,.419-6.46l.674-1.618A5.085,5.085,0,0,1,264.225,117l.006.031a1.152,1.152,0,0,1,1.227-.465l-.031.061.455-.293a4.138,4.138,0,0,1,2.03-.052,1.456,1.456,0,0,1,1.241.318l.848.437c2.117,1.474,2.483,3.234,1.188,5.7a1.532,1.532,0,0,1-.807,1.215c-1.428,2.288-3.254,2.022-5.228.818,0,.253.008.5.012.757a1.617,1.617,0,0,1,.181,1.229l.567,2.373,1.471,2.056a.281.281,0,0,1,.186.2l2.025,1.258a15.568,15.568,0,0,0,5.093.79l.876-.143,3.186-1.025.442-.271a16.369,16.369,0,0,0,3.3-3.212q.265-.46.529-.919a18.979,18.979,0,0,0,1.308-8.768,4.365,4.365,0,0,1-.324-2.014" transform="translate(-40.491 -17.351)" fill="#d2d6d1"/>
        <path id="Trazado_187038" data-name="Trazado 187038" d="M269.124,88.561c1.4-3.319,1.762-3.74,4.472-5.181-2.559-.667-3.738-2.489-4.453-4.815a5.324,5.324,0,0,1-4.664,4.95c3.037.6,4.109,2.479,4.645,5.047" transform="translate(-45.347 -13.471)" fill="#d2d6d1"/>
        <path id="Trazado_187039" data-name="Trazado 187039" d="M236.08,127.154l-.022.02.2.278-.181-.3" transform="translate(-40.474 -21.801)" fill="#d2d6d1"/>
        <path id="Trazado_187040" data-name="Trazado 187040" d="M203.536,271.733q-.644-1.346-1.288-2.7a5.667,5.667,0,0,1-4.309,5.088c2.994.735,3.91,2.652,4.419,5.531.491-2.726,1.607-4.386,3.6-5.371-.362-1.274-1.947-1.388-2.427-2.552" transform="translate(-33.938 -46.128)" fill="#d2d6d1"/>
        <path id="Trazado_187041" data-name="Trazado 187041" d="M218.563,205.487a6.066,6.066,0,0,1-3.429-2.779,4.764,4.764,0,0,0-3.334,3.664c1.649.747,1.829,2.488,2.626,4.124a6.731,6.731,0,0,1,4.136-5.009" transform="translate(-36.315 -34.756)" fill="#d2d6d1"/>
        <path id="Trazado_187042" data-name="Trazado 187042" d="M284.856,154.712a10.125,10.125,0,0,1-2.307-5.932l.036-.053c-.207.056-.414.112-.62.169.043,3.037-.847,5.6-3.639,7.206l-1.636.775-1.5.584c1.172.4,2.157.423,2.854,1.135,3.055,1.4,3.523,4.407,4.36,7.514.732-3.533,1.892-6.379,5.056-7.892.025-1.83-1.693-2.37-2.6-3.507" transform="translate(-47.183 -25.5)" fill="#d2d6d1"/>
        <path id="Trazado_187043" data-name="Trazado 187043" d="M308.8,173.155c-.23,2.058-1.28,2.94-2.837,3.8,1.838.582,2.408,1.979,3.1,3.53.639-1.637,1.235-2.979,3.221-3.517-1.824-.818-2.608-2.047-3.487-3.812" transform="translate(-52.46 -29.689)" fill="#d2d6d1"/>
        <path id="Trazado_187044" data-name="Trazado 187044" d="M300.015,115.568c.418,2.448,1.423,4.458,3.964,5.366-.084.736-.94.59-1.275,1.053a3.249,3.249,0,0,0-1.757,1.943c-.556.632-.554,1.479-.925,2.4-.7-2.375-1.353-4.657-4.239-4.9-.014-.159-.029-.32-.042-.48.489-.088,1.036-.033,1.342-.559l.407-.378a1.171,1.171,0,0,0,1.264-1.244,2.651,2.651,0,0,0,.851-2.389c.382-.151.356-.5.41-.819" transform="translate(-50.707 -19.815)" fill="#e2dfcf"/>
        <path id="Trazado_187045" data-name="Trazado 187045" d="M13.034,171.041c2.547-3.838,5.873-7.024,8.834-10.513,3.82-4.5,7.743-8.918,11.542-13.439,1.1-1.314,1.981-1.7,3.435-.466q21.486,18.225,43.042,36.366a2.045,2.045,0,0,1,.867,2.537c-1.032,2.9-3.438,4.783-5.343,7C70.7,198,66.024,203.514,61.2,208.9c-.6.667-1.092,1.468-2.109,1.572-.994-.251-1.481-1.2-2.306-1.681-13.374-11.151-26.575-22.509-39.95-33.659-1.421-1.185-3.068-2.237-3.805-4.091" transform="translate(-2.235 -25.011)" fill="#d2d6d1"/>
        <path id="Trazado_187046" data-name="Trazado 187046" d="M10.8,176.249c6.017,5.036,12.053,10.048,18.045,15.112q13.12,11.09,26.19,22.239c.566.9,0,1.592-.515,2.206a64.779,64.779,0,0,1-4.219,5.135c-2.448,2.389-4.523,4.96-5.212,8.416-4.652-3.31-8.827-7.188-13.149-10.9-3.344-2.873-6.844-5.565-10.161-8.483-4.419-3.885-8.974-7.616-13.477-11.4-1.938-1.631-3.938-3.19-5.831-4.869-3.112-2.759-3.308-4.7-.447-7.68,2.653-2.763,4.919-5.835,7.461-8.679a11.222,11.222,0,0,1,1.316-1.094" transform="translate(0 -30.219)" fill="#405d64"/>
        <path id="Trazado_187047" data-name="Trazado 187047" d="M66.493,218.417q10.038-11.588,20.085-23.169c.475-.548,1.047-1.012,1.575-1.515l4.978,4.282c.56,1.293-.5,1.968-1.14,2.709q-9.684,11.162-19.366,22.327c-1.167.989-1.892,2.436-3.284,3.195a1.471,1.471,0,0,1-1.195-.084c-1.267-.8-2.191-.569-3.153.621-.936,1.159-1.49,2.128-.234,3.382a1.321,1.321,0,0,1,.2,1.4,5.9,5.9,0,0,1-1.508,1.915c-1.94,1.8-3.711,1.817-5.627.076-1.939-1.761-2.19-3.6-.589-5.6,2.4-3,5.023-5.811,7.57-8.686a2.061,2.061,0,0,1,1.687-.853" transform="translate(-9.633 -33.217)" fill="#e2dfcf"/>
        <path id="Trazado_187048" data-name="Trazado 187048" d="M75.4,223.482q8.738-10.148,17.47-20.3c1.221-1.423,2.37-2.909,3.551-4.366.666-.262,1.43-.808,1.945.079.454.781-.22,1.362-.7,1.913L76.909,224.624c-1.008.286-1.407-.229-1.5-1.142" transform="translate(-12.929 -34.018)" fill="#d2d6d1"/>
        <path id="Trazado_187049" data-name="Trazado 187049" d="M66.138,223.148c-2.886,3.343-5.782,6.678-8.653,10.033-1.656,1.935-1.487,2.82.577,4.7,1.638,1.491,3.1,1.671,4.575-.18.56-.7,1.213-1.327,1.823-1.988.964-.13,1.607.124,1.512,1.263-.68.815-1.309,1.684-2.052,2.437-2.318,2.346-4.391,2.4-6.872.207-.921-.814-1.788-1.686-2.68-2.532-.969-3.045,1.04-4.97,2.776-6.853a63.615,63.615,0,0,0,7.169-8.9,3.627,3.627,0,0,1,1.825,1.819" transform="translate(-9.278 -37.948)" fill="#899eaa"/>
        <path id="Trazado_187050" data-name="Trazado 187050" d="M67.677,238.648a2.952,2.952,0,0,0-1.513-1.262,5.7,5.7,0,0,0-1.042-1.013c-1.388-.8-1.363-1.638-.209-2.612a2.027,2.027,0,0,0,.479-.555c1.339-2.481,3-2.827,5.044-.791.847.109,1.613.317,1.7,1.371,2.243,1.32,1.718,3.37,1.418,5.363-.156,1.039-.3,2.079-.494,3.437l-5.379-3.938" transform="translate(-10.984 -39.622)" fill="#b65534"/>
        <path id="Trazado_187051" data-name="Trazado 187051" d="M73.45,233.371,71.756,232l3.023-3.328,1.5,1.142-2.833,3.559" transform="translate(-12.303 -39.207)" fill="#899eaa"/>
        <path id="Trazado_187052" data-name="Trazado 187052" d="M84.343,81.932h0a3.746,3.746,0,0,0-2.96,2.893,36.127,36.127,0,0,0-1.363,9.033A8.268,8.268,0,0,0,82.939,91a5.873,5.873,0,0,0,5.056.359q.813-4.626,1.627-9.252c-1.754-.225-3.486-1.1-5.279-.179" transform="translate(-13.72 -13.977)" fill="#405d64"/>
        <path id="Trazado_187053" data-name="Trazado 187053" d="M75.448,138.058h0c-1.36.293-2.061,1.346-2.759,2.4a32.8,32.8,0,0,0-1.442,8.946,5.855,5.855,0,0,1,3.273-2.815c1.606-.367,3.146.2,4.716.333q.682-4.395,1.366-8.792c-1.713-.344-3.424-.864-5.154-.071" transform="translate(-12.216 -23.599)" fill="#405d64"/>
        <path id="Trazado_187054" data-name="Trazado 187054" d="M82.134,96.577h0a4.964,4.964,0,0,0-2.866,2.511,27.887,27.887,0,0,0-1.3,7.877,5.512,5.512,0,0,1,3.67-3,13.89,13.89,0,0,1,4.329.443q.611-3.858,1.222-7.715c-1.679-.268-3.354-.769-5.055-.118" transform="translate(-13.368 -16.504)" fill="#405d64"/>
        <path id="Trazado_187055" data-name="Trazado 187055" d="M89.673,82.234q19.2,3.023,38.4,6.033c1.3.2,1.658.844,1.457,2.095q-4.32,26.913-8.6,53.834a3.874,3.874,0,0,1-1.989-.02q-17.818-2.837-35.64-5.661a4.325,4.325,0,0,1-2.636-.944,2.379,2.379,0,0,1-.3-1.776c.377-2.484.643-4.988,1.256-7.431.554-5.064,1.5-10.068,2.3-15.1.6-3.81,1.056-7.647,1.911-11.416a57.447,57.447,0,0,1,1.22-7.636A11,11,0,0,1,87.5,91.4c.167-2.488.682-4.925,1.09-7.377a2.391,2.391,0,0,1,1.083-1.784" transform="translate(-13.771 -14.1)" fill="#5f7884"/>
        <path id="Trazado_187056" data-name="Trazado 187056" d="M85.082,105.864c-6.328,36.928-.869,22.821-12.278,28.464,1.6-9.226,2.266-18.095,4.752-27.374,1.4-2.219,5.83-3.1,7.526-1.09" transform="translate(-12.483 -17.958)" fill="#d2d6d1"/>
        <path id="Trazado_187057" data-name="Trazado 187057" d="M79.106,148.631q18.978,3.02,37.955,6.042a3.617,3.617,0,0,1,2.185.732q-.088.624-.175,1.249a1.7,1.7,0,0,1-2.011.57q-19.976-3.153-39.947-6.337c-1.067-.17-2.117-.385-2.965.542a8.091,8.091,0,0,0-.87,1.42,2.834,2.834,0,0,0,2.245,3.933,5.618,5.618,0,0,1,1.939.465c.666.759,1.47.284,2.227.241a12.436,12.436,0,0,1,2.512.413c.708.142,1.054,1.382,2.049.672,9.2,1.311,18.346,2.893,27.52,4.294.871,0,1.712.263,2.576.327.572.042,1.2.269,1.662-.317a1.023,1.023,0,0,1,.436-.213c.794.355.961,1.186,1.377,1.828-.028,1.138-.512,1.514-1.7,1.322-13.837-2.226-27.685-4.383-41.52-6.619-3.555-.575-5.066-4.23-3.479-8.082.168-2.154,1.9-2.685,3.492-3.361,1.6-.224,3.177-.321,4.5.878" transform="translate(-12.086 -25.309)" fill="#899eaa"/>
        <path id="Trazado_187058" data-name="Trazado 187058" d="M79.912,95.807c1.221-2.919,4.431-3.43,7.973-2.5-.049,1.837-.524,2.5-1,2.731-.839.415-1.684-.5-3.057-.424a4.553,4.553,0,0,0-3.086,1.9c-.434.389-.962.785-1.213.631-.354-.216,0-1.436.382-2.339" transform="translate(-13.611 -15.926)" fill="#d2d6d1"/>
        <path id="Trazado_187059" data-name="Trazado 187059" d="M126.853,158.688l1.648-.164q-.626,3.919-1.252,7.838c-.829-.257-1.549-.6-1.315-1.686a.944.944,0,0,1-.442-.963,5.039,5.039,0,0,1,.128-1.085,8.627,8.627,0,0,1,.168-1.048,8.525,8.525,0,0,1,.166-1.042,4.426,4.426,0,0,1,.138-.792,1.264,1.264,0,0,1,.761-1.058" transform="translate(-21.516 -27.18)" fill="#405d64"/>
        <path id="Trazado_187060" data-name="Trazado 187060" d="M95.149,121.133c.57-3.6,1.125-7.2,1.718-10.8.328-1.993,1.013-2.506,2.975-2.2q8.808,1.37,17.607,2.8c2.432.4,2.906,1.08,2.517,3.573q-1.554,9.97-3.163,19.931c-.106.661-.313,1.306-.476,1.958a1.586,1.586,0,0,1-2.006,1.3q-9.718-1.536-19.433-3.086c-1.478-.237-1.679-1.261-1.478-2.514q.876-5.48,1.739-10.962" transform="translate(-16.005 -18.527)" fill="#d2d6d1"/>
        <path id="Trazado_187061" data-name="Trazado 187061" d="M111.179,99.717c-3.323-.528-6.646-1.065-9.972-1.575-.981-.151-1.865-.49-1.694-1.634.163-1.089,1.032-1.3,2.063-1.139q9.966,1.6,19.941,3.163c1.011.158,1.755.5,1.54,1.709-.223,1.259-1.132,1.183-2.075,1.033q-4.9-.783-9.8-1.557" transform="translate(-17.059 -16.343)" fill="#d2d6d1"/>
        <path id="Trazado_187062" data-name="Trazado 187062" d="M79.847,154.078c1.868-.44,3.62.318,5.419.558.714.1.5.763.44,1.234-.167,1.383-.365,2.762-.551,4.141-1,1.218-.879-.615-1.461-.532a2.469,2.469,0,0,0-3.031-.49c-.521-.233-1.315,1.807-1.623-.195a1.708,1.708,0,0,1-.312-1.027,5.082,5.082,0,0,1,.133-1.066,8.278,8.278,0,0,1,.169-1.046,3.649,3.649,0,0,1,.245-1.038.931.931,0,0,1,.572-.539" transform="translate(-13.497 -26.395)" fill="#b65534"/>
        <path id="Trazado_187063" data-name="Trazado 187063" d="M81.064,159.841c1.705-1.3,1.705-1.3,3.031.49l-3.031-.49" transform="translate(-13.899 -27.248)" fill="#e2dfcf"/>
        <path id="Trazado_187064" data-name="Trazado 187064" d="M117.826,157.352q-20.576-3.282-41.154-6.558a2.417,2.417,0,0,0-2.84,1.234h0c-1.973,2.755-.911,5.378,2.4,5.916l1.8.3q.08-.536.16-1.072.083-.5.167-.993l.147-1c.056-.333.111-.666.167-1l.085-.329c1.019.2,2.056.249,3.077.426,2.194.38,2.18.392,1.95,2.562-.094.884-.6,1.873.363,2.628.665.1,1.332.184,2,.288q13.2,2.068,26.407,4.139c.993.172,1.991.313,2.974.527.9.2,1.254-.171,1.235-1.032l.147-.043c.022-.345.045-.688.068-1.032q.071-.513.143-1.027l.172-.971.149-1.026.085-.664.3-1.269" transform="translate(-12.489 -25.845)" fill="#e2dfcf"/>
        <path id="Trazado_187065" data-name="Trazado 187065" d="M339.818,313.023q-.3-1.041-.6-2.082a5.161,5.161,0,0,1-2.8.074l.961.036a2.174,2.174,0,0,0,1.736-.373,37.239,37.239,0,0,1-1.974-4.424c-.78-2.559-3.172-4-4.138-6.427a8.747,8.747,0,0,0-2.6-4.036,3.715,3.715,0,0,0-2.006-.754c-8.392-.916-16.676-2.518-24.981-3.989-4.583-.777-9.116-1.813-13.681-2.694a148.256,148.256,0,0,0-27.823-3.105c-2.2.037-4.408.013-6.614.02a44.692,44.692,0,0,0-7.174.726c-10.665,1.491-20.574,4.882-28.908,11.964-2.1,1.789-4.387,3.5-5.544,6.178.015.606.462.877.912,1.1a18.841,18.841,0,0,1,8.185,8.369c.346.638.664,1.315,1.48,1.485a8.055,8.055,0,0,0,3.4-.286,115.8,115.8,0,0,1,26.779-3.239,158.464,158.464,0,0,1,19.1,1.071c8.125.809,16.254,1.552,24.385,2.277,1.4,0,2.781.341,4.187.341q17.921.007,35.843-.008a2.8,2.8,0,0,0,2.217-.548q-.168-.836-.336-1.674" transform="translate(-36.636 -48.908)" fill="#bcb19a"/>
        <path id="Trazado_187066" data-name="Trazado 187066" d="M163.811,286.2c-6.987-3.327-14.537-4.125-22.1-4.561a109.77,109.77,0,0,0-20.96,1.15c-12.362,1.663-24.455,4.674-36.646,7.193-7.857,1.624-15.751,3.04-23.67,4.314a7.249,7.249,0,0,0-3.031.859c-.908.737-1.187,1.867-1.749,2.82-.878,1.491-1.406,3.438-2.682,4.376a6.967,6.967,0,0,0-2.409,3.745c-.721,1.993-1.489,3.968-2.237,5.951.462.446,1.049.31,1.6.326.225.007.449.008.674.013-.4,0-.8,0-1.2,0a1.961,1.961,0,0,0-1.433.342q-.168.66-.336,1.321c.786.751,1.784.56,2.709.552,9.276-.087,18.557.295,27.827-.339,5.125-.418,10.259-.673,15.389-.988,5.419-.333,10.829-.779,16.244-1.169,7.481-.539,14.964-.975,22.459-1.215,4.653-.148,9.281.326,13.917.639a62.47,62.47,0,0,1,14.859,2.588,3.9,3.9,0,0,0,1.708.141c.732-.338.974-1.057,1.307-1.7a16.249,16.249,0,0,1,13.363-9.219c.853-.092,1.82-.032,2.375-.937a4.555,4.555,0,0,0-.747-2.2,33.14,33.14,0,0,0-15.23-14" transform="translate(-8.166 -48.268)" fill="#bcb19a"/>
        <path id="Trazado_187067" data-name="Trazado 187067" d="M278.246,232.956a125.8,125.8,0,0,1,15.447-9.085c4.571-2.34,9.233-4.5,13.855-6.743l5.387-2.03c-1.07,3.836-2.073,7.415-3.065,11-.337,1.218-1.468.932-2.241,1.068q-8.014,1.4-15.925,3.282a129.872,129.872,0,0,0-13.363,3.865,2.394,2.394,0,0,1-1.451.321c-.153-1.047,1.109-.95,1.355-1.674" transform="translate(-47.473 -36.88)" fill="#bcb19a"/>
        <path id="Trazado_187068" data-name="Trazado 187068" d="M277.761,236.652c.089,1-1.256.831-1.355,1.674a6.746,6.746,0,0,1-2.358,1.037c.969-1.271,2.428-1.873,3.713-2.712" transform="translate(-46.987 -40.576)" fill="#838272"/>
        <path id="Trazado_187069" data-name="Trazado 187069" d="M225.656,320.767a14.023,14.023,0,0,0,3.421-.372c19.7-.6,39.41-.112,59.116-.259,2.963-.022,5.925.1,8.881.354a6.355,6.355,0,0,0,2.336-.088c13.2.642,26.408.162,39.612.307.95.01,1.9-.025,2.852-.039,1.836.258,2.738,1.08,2.638,2.405s-1.083,2.023-2.955,2.023q-55.024.006-110.049.015c-.7,0-1.469-.252-2.1.312a10.776,10.776,0,0,1-3.834-.037c-1.027-.193-1.976-.584-1.868-1.929.1-.35.283-.616.7-.4,1.359.7,1.409-.02,1.161-1.061-.1-.423-.281-.845.091-1.23" transform="translate(-38.355 -54.881)" fill="#5f7884"/>
        <path id="Trazado_187070" data-name="Trazado 187070" d="M47.1,320.666c9.278-.044,18.559.36,27.832-.252.945-.063,1.9-.019,2.846-.025,2.626.35,5.25-.056,7.87-.107,2.405-.046,4.815-.133,7.221-.137,21.249-.027,42.5,0,63.746-.04a38.972,38.972,0,0,0,4.32.263l1.276.365c.288.351.115.725.055,1.093-.078.471-.36,1.07.225,1.312.636.264.758-.424,1-.814.3-.48.4-1.209,1.253-1a1.885,1.885,0,0,1,.789,2.332,2.589,2.589,0,0,1-2.361,1.825c-1.655.16-3.339-.094-4.977.336-.39-1.017-1.273-.7-2-.7q-41.585-.014-83.169-.007-12.712,0-25.423,0a2.856,2.856,0,0,1-2.479-.732,2.1,2.1,0,0,1-.413-2.195,2.381,2.381,0,0,1,2.389-1.515" transform="translate(-7.642 -54.884)" fill="#5f7884"/>
        <path id="Trazado_187071" data-name="Trazado 187071" d="M208.4,307.957l.684.132c4.776,2.117,7.787,5.936,10.079,10.448a8.034,8.034,0,0,0,.293,1.1c.3.709.461,1.435-.275,1.916-.9.587-1.226-.283-1.662-.805-1.771-5.262-4.835-9.513-10.382-10.972-7.722-2.031-15.46,1.412-18.548,9.334-.235.557-.46,1.119-.709,1.67-.263.581-.616,1.146-1.361.833a1.157,1.157,0,0,1-.595-1.541c.153-.529.341-1.048.513-1.572,1.893-4.125,4.523-7.565,8.73-9.6a20.867,20.867,0,0,1,8.116-1.822c.413.432.921.22,1.4.208l2.079.168,1.641.507" transform="translate(-31.865 -52.65)" fill="#b65534"/>
        <path id="Trazado_187072" data-name="Trazado 187072" d="M263.484,285.742a16.289,16.289,0,0,1,7.077,0l-7.077,0" transform="translate(-45.176 -48.926)" fill="#d2d6d1"/>
        <path id="Trazado_187073" data-name="Trazado 187073" d="M159.681,307.269q-.034-2.514-.068-5.029c-.316-1.675.167-3.375-.151-5.05-.02-.253-.041-.505-.06-.758a.718.718,0,0,1-.047-1.027q.015-3.138.029-6.278a.616.616,0,0,1,.5-.2,57.853,57.853,0,0,1,15.41,1.94,4.8,4.8,0,0,1,1.865.713.457.457,0,0,1,.123.515c-.128,6.57-.255,13.142-.389,20.084l-3.063-2.25a6.112,6.112,0,0,1-1.959-1.062c-.187-.119-.355-.263-.529-.4-3.77-2.936-2.347-2.785-6.387-.4a4.424,4.424,0,0,1-1.272.5c-1.373.312-2.359,1.37-3.733,1.96-.42-.719-.091-1.519-.288-2.221a.846.846,0,0,1,.019-1.043" transform="translate(-27.289 -49.538)" fill="#b65534"/>
        <path id="Trazado_187074" data-name="Trazado 187074" d="M219.134,323.195c-1.236-.181-2.59-.221-2.319-2.08a1.326,1.326,0,0,0-.024-1.432,19.129,19.129,0,0,0-5.032-7.217,14.228,14.228,0,0,0-10.28-3.221,15.343,15.343,0,0,0-13.173,8.187,2.163,2.163,0,0,0-.423,2.044c.736.607,1.232,1.349.776,2.3a2.315,2.315,0,0,1-2.386,1.436c-1.1-.069-2.211-.007-3.316-.017-.58-.006-1.131,0-1.241.756a2.778,2.778,0,0,0,3.087,2.243q17.143.019,34.286-.006a2.824,2.824,0,0,0,3.123-2.622c-.953-.727-2.055-.22-3.078-.37" transform="translate(-31.156 -53.018)" fill="#405d64"/>
        <path id="Trazado_187075" data-name="Trazado 187075" d="M283.958,318.209c-11.548-1.165-23.095-2.341-34.724-1.466a94.914,94.914,0,0,0-19.043,3.027c.464.475,1.057.28,1.6.28q33.4.015,66.793,0c.65,0,1.353.218,1.943-.273-5.522-.52-11.047-1.012-16.564-1.568" transform="translate(-39.468 -54.256)" fill="#405d64"/>
        <path id="Trazado_187076" data-name="Trazado 187076" d="M167.815,319.731c-1.18-.354-2.344-.776-3.541-1.051a108.042,108.042,0,0,0-26.914-2.243c-17.607.417-35.127,2.331-52.7,3.315.519.5,1.173.29,1.765.29q39.906.014,79.81,0c.535,0,1.136.206,1.583-.307" transform="translate(-14.515 -54.247)" fill="#405d64"/>
        <path id="Trazado_187077" data-name="Trazado 187077" d="M159.824,288.8c.674-1.545,2.077-1.37,3.379-1.435a56.182,56.182,0,0,1,14.462,2.475c.431.656.476,1.235-.331,1.641a99.328,99.328,0,0,0-12.075-2.2,29.216,29.216,0,0,0-4.329-.1c-.468.015-.877.162-1.106-.385" transform="translate(-27.403 -49.271)" fill="#b65534"/>
        <path id="Trazado_187078" data-name="Trazado 187078" d="M304.251,296.416c-6.058-1.277-12.146-2.411-18.23-3.561a155.3,155.3,0,0,0-21.1-2.5,72.241,72.241,0,0,0-28.934,4.684,41.984,41.984,0,0,0-8.278,3.9c2.761-.906,5.444-2,8.184-2.931a78.028,78.028,0,0,1,22.453-4.363A124.538,124.538,0,0,1,282.37,293.6c10.745,1.725,21.417,3.826,32.122,5.76,2.047.37,4.062,1.032,6.2.823-5.48-1.262-10.943-2.6-16.446-3.765" transform="translate(-39.042 -49.768)" fill="#838272"/>
        <path id="Trazado_187079" data-name="Trazado 187079" d="M227.662,306.6c18.786-7.926,38.253-8,58-4.862-19.828-4.083-39.353-4.682-58,4.862" transform="translate(-39.034 -51.254)" fill="#838272"/>
        <path id="Trazado_187080" data-name="Trazado 187080" d="M235.522,311.74c15.063-4.732,30.366-4.148,45.733-2.143-15.4-2.807-30.73-3.908-45.733,2.143" transform="translate(-40.382 -52.695)" fill="#838272"/>
        <path id="Trazado_187081" data-name="Trazado 187081" d="M149.3,287.078a157.092,157.092,0,0,0-16.773.589c-5.39.563-10.735,1.341-16.063,2.3-6.433,1.153-12.737,2.876-19.117,4.264-3.046.663-6.045,1.539-9.066,2.318a1.3,1.3,0,0,0,1.041.194c10.638-2.544,21.318-4.834,32.157-6.406a149.983,149.983,0,0,1,25.749-1.527c.109-.022.217-.04.326-.056,1.02-.727,2.349-.729,3.378-1.435a2.563,2.563,0,0,0-1.632-.237" transform="translate(-15.137 -49.218)" fill="#838272"/>
        <path id="Trazado_187082" data-name="Trazado 187082" d="M148.5,303.465a134.856,134.856,0,0,0-19.294.291c-5.388.379-10.764,1.021-16.107,1.891a100.831,100.831,0,0,0-10.548,1.929c15.727-2,31.436-4.2,47.359-2.883.041-1.686-.471-1.158-1.409-1.227" transform="translate(-17.583 -51.991)" fill="#838272"/>
        <path id="Trazado_187083" data-name="Trazado 187083" d="M110.356,313.63a269.759,269.759,0,0,1,40.939-1.541q.009-.521.018-1.042c-13.725-.286-27.412.015-40.957,2.583" transform="translate(-18.921 -53.316)" fill="#838272"/>
        <path id="Trazado_187084" data-name="Trazado 187084" d="M152.479,297.72q-.024-.513-.046-1.027a4.648,4.648,0,0,0-1.983-.259,166.513,166.513,0,0,0-20.047,1.38c-3.885.459-7.748,1.116-11.62,1.684,11.214-1.113,22.388-2.612,33.7-1.777" transform="translate(-20.366 -50.826)" fill="#838272"/>
        <path id="Trazado_187085" data-name="Trazado 187085" d="M181.289,290.355a2.447,2.447,0,0,1-.331,1.641c.022.115.043.23.064.345,6.052,1.443,11.055,4.741,15.635,8.807-3.811-5.468-9.185-8.705-15.368-10.793" transform="translate(-31.027 -49.783)" fill="#838272"/>
        <path id="Trazado_187086" data-name="Trazado 187086" d="M172.217,312.3c-2.158-.493-4.308-1.14-6.556-.529a1.266,1.266,0,0,0-1.04.677l10.148,1.355-1.614-1.309c-.36.156-.626-.123-.938-.194" transform="translate(-28.225 -53.413)" fill="#838272"/>
        <path id="Trazado_187087" data-name="Trazado 187087" d="M279.616,209.393c-3.452,1.018-8.712,2.643-15.031,4.9-21.258,7.593-36.481,13.2-49.23,26.3a73.916,73.916,0,0,0-11.6,15.658,193.865,193.865,0,0,0-3.84-32.55,114.425,114.425,0,0,0-5-18.679,111.752,111.752,0,0,0-14.469-26.488c-3.164-4.376-6.438-8.661-9.757-12.915-.773-.991-1.511-1.435-2.788-.617-5.543,3.549-11.136,7.021-16.719,10.506q-6.443,4.022-12.908,8.01c2.927,2.694,5.847,5.4,8.7,8.174,4.1,3.989,8.154,8.023,12.021,12.248,2.952,3.225,5.971,6.4,8.84,9.69A262.292,262.292,0,0,1,185.356,235.8c3.913,5.615,7.753,11.276,10.622,17.537a48.672,48.672,0,0,1,4.218,15.172c.045.41-.148,1.1.453,1.184,0,.009-.007.018-.012.027v10.805L209.67,268.1c.732.061,1.01-.7,1.366-1.169q7.919-10.36,16.767-19.936a128.1,128.1,0,0,1,22.99-20.006l-.024.019c1.262-.942,2.7-1.6,3.986-2.5A203.931,203.931,0,0,1,282.4,209.658c.168-.075.612-.326,1.232-.641,2.22-1.132,4.124-1.983,5.54-2.58-2.1.635-5.446,1.659-9.556,2.956" transform="translate(-23.709 -28.218)" fill="#e2dfcf"/>
        <path id="Trazado_187088" data-name="Trazado 187088" d="M182.985,274.446a12.2,12.2,0,0,0-1.672-2.718c-.25-.218-.5-.442-.74-.666a3.13,3.13,0,0,0-.251-.536,124.179,124.179,0,0,0-15.509-20.146A140.9,140.9,0,0,0,152.4,238.464c-6.247-5.2-12.76-10.045-19.444-14.656l-5.383-3.709a.873.873,0,0,1-.072.364,8.409,8.409,0,0,0-4.634-2.857,3.02,3.02,0,0,1-.538.636c-2.583,1.719-5.047,3.6-7.541,5.445a189.2,189.2,0,0,0-15.737,13.548c-5.1,4.724-9.822,9.839-14.607,14.882a.993.993,0,1,0,.846,1.786,42.973,42.973,0,0,1,4.845.448c6.473.456,12.929,1.07,19.389,1.669,7.238.671,14.464,1.42,21.675,2.344a203.293,203.293,0,0,1,28.678,5.455c6.514,1.81,12.831,4.047,18.24,8.3a44.8,44.8,0,0,1,3.542,3.347c.389.381.9.986,1.412.647.65-.432.153-1.129-.09-1.664" transform="translate(-14.37 -37.31)" fill="#e2dfcf"/>
        <path id="Trazado_187089" data-name="Trazado 187089" d="M183.628,298.144a10.763,10.763,0,0,0-.891-3.648,7.351,7.351,0,0,1-.59-1.1c-1.232-5.633-4.534-10.029-8.913-13.664-3.833-3.183-8.422-5.009-13.1-6.637-9.595-3.339-19.525-5.121-29.54-6.512-5.248-.729-10.508-1.365-15.8-1.776-5.447-.423-10.88-1.038-16.319-1.568-2.132-.063-4.237-.565-6.384-.38l-.029.035a1.4,1.4,0,0,0-.109-.218,20.34,20.34,0,0,0-4.395-.708c-.75-.109-1.532-.351-2.21.248a1.291,1.291,0,0,1-.412.887c-4.685,4.76-9.045,9.816-13.485,14.8-4.072,4.574-8.2,9.1-12.032,13.876,6.381-.714,12.692-1.89,18.979-3.134,10.949-2.165,21.846-4.593,32.782-6.829a159.435,159.435,0,0,1,22.72-3.052,91.469,91.469,0,0,1,19.579.957c6.484,1.024,12.612,2.974,17.95,6.973,4.466,3.346,8.116,7.336,10.175,12.616.3.759.874.61,1.455.432a1.486,1.486,0,0,0,.564-1.6" transform="translate(-10.189 -44.892)" fill="#e2dfcf"/>
        <path id="Trazado_187090" data-name="Trazado 187090" d="M196.621,279.238c-.117-.49-.263-.972-.376-1.463a45.48,45.48,0,0,0-3.765-18.472c-3.729-8.793-9.44-16.359-15.076-23.952-4.6-6.2-9.4-12.239-14.492-18.045-4.463-5.09-8.935-10.174-13.817-14.876a65.265,65.265,0,0,0-5.293-5.219c.022-.046.051-.085.07-.133a16.679,16.679,0,0,0-5.084-4.786c-.023-.017-.1.041-.15.063a2.178,2.178,0,0,1-.935.927,165.342,165.342,0,0,0-18.934,12.509,5.777,5.777,0,0,0,1.95,1.566c11.59,7.364,23.071,14.881,33.993,23.225A131.59,131.59,0,0,1,174.247,249a120.423,120.423,0,0,1,15.466,21.945c2.6,4.852,4.9,9.84,5.125,15.5.023.574-.043,1.319.892,1.322.633-.35.6-1,.713-1.588a27,27,0,0,0,.178-6.937" transform="translate(-20.364 -32.969)" fill="#e2dfcf"/>
        <path id="Trazado_187091" data-name="Trazado 187091" d="M329.486,289.224c-5.155-7.605-10.4-15.154-15.384-22.869a9.194,9.194,0,0,0-6.023-4.16q-9.975-2.469-20.115-4.056a102.461,102.461,0,0,0-11.734-1.5,81.245,81.245,0,0,0-16.731.558,55.546,55.546,0,0,0-16.959,5.44c-.429.226-2.873,1.972-2.968,2a16.07,16.07,0,0,0-1.2,1.157c-3.071,3.631-6.2,7.216-9.171,10.928-3.665,4.582-7.261,9.223-10.472,14.145v0a54.7,54.7,0,0,0-5.654,8.4.509.509,0,0,0,.684.132,19.4,19.4,0,0,1,1.454-2.022,45.982,45.982,0,0,1,14.611-10.672,69.968,69.968,0,0,1,25.019-5.929,32.186,32.186,0,0,1,7.077,0c3.519-.028,7.008.408,10.51.623,7.085.435,13.965,2.071,20.931,3.206,3.345.545,6.586,1.647,9.989,1.908a22.882,22.882,0,0,0,4.4.871c7.476,1.413,14.984,2.635,22.553,3.459a4.045,4.045,0,0,0-.814-1.633" transform="translate(-36.533 -43.975)" fill="#e2dfcf"/>
        <path id="Trazado_187092" data-name="Trazado 187092" d="M173.37,312.084c-1.944.412-3.767-.515-5.677-.513a15.064,15.064,0,0,1-1.817-.21c.84-.931,2.063-1.3,3.031-2.041.618-.476,1.039.031,1.461.36,1.012.788,2,1.6,3,2.4" transform="translate(-28.441 -53.002)" fill="#bcb19a"/>
        <path id="Trazado_187093" data-name="Trazado 187093" d="M112.723,208.584c27.139,14.959,79.679,55.153,75.3,82.262-1.851-2.2-1.423-8.47-4.364-12.063C168.408,252.79,100.808,256.92,83.507,252.4c33.541,1.046,86.886,5.731,99.461,22.079-18.184-33.867-47.39-47.509-70.245-65.891" transform="translate(-14.318 -35.763)" fill="#a1904c"/>
        <path id="Trazado_187094" data-name="Trazado 187094" d="M209.724,272.033c11.744-14.969,24.519-30.794,41.11-41.092-32.432,22.342-55.154,69.57-51.359,53.442,3.441-37.189-41.856-75.7-58.433-93.737-1.108-.589-4.456-4.75-1.01-2.178,30.134,29.145,63.92,64.442,61.039,93.511-1.2,5.613,5.568-8.655,8.653-9.946" transform="translate(-23.749 -32.172)" fill="#838272"/>
        <path id="Trazado_187095" data-name="Trazado 187095" d="M302.066,76.259a5.288,5.288,0,0,1,2.528-3.2q13.708-7.688,27.368-15.461c.944-.539,1.455-.457,1.912.457a7.047,7.047,0,0,1,1.853,2.344q10.765,19.142,21.585,38.254a4.519,4.519,0,0,1,1.005,2.8c-.278.907-1.1,1.233-1.816,1.643-8.27,4.729-16.59,9.368-24.89,14.041-1.917,1.08-3.694,2.145-4.013,4.573a.761.761,0,0,1-.42.5c-1.069-.18-1.3-1.157-1.721-1.9-4.8-8.338-9.445-16.761-14.227-25.109q-3.962-6.918-7.836-13.884a12.04,12.04,0,0,1-1.384-3.047,2.306,2.306,0,0,1,.054-2" transform="translate(-51.747 -9.817)" fill="#e2dfcf"/>
        <path id="Trazado_187096" data-name="Trazado 187096" d="M287.884,82.834a8.438,8.438,0,0,1,2.532-1.409,1.467,1.467,0,0,1,.788.829c4.667,8.572,9.575,17.009,14.34,25.526,2.984,5.336,6.095,10.6,9.006,15.975a2.813,2.813,0,0,1,.457,2.547,3.624,3.624,0,0,1-1.642,1.39c-8.2,4.651-16.425,9.249-24.645,13.862-.846.475-1.681,1.229-2.8.66-1.3-1.217-1.924-2.88-2.771-4.378q-10.263-18.154-20.5-36.323a5.037,5.037,0,0,1-.954-2.651c-.121-.514-.756-.966.187-1.487,7.328-4.046,14.625-8.151,21.931-12.238.563.1.821.546,1.069.977q2.409,4.2,4.791,8.415a2.526,2.526,0,0,1,.442,1.742c-.325.8-1.086,1.1-1.758,1.481-5.005,2.879-10.056,5.677-15.046,8.581,4.914-2.677,9.773-5.453,14.645-8.207a5.017,5.017,0,0,1,2.607-1.07,2.411,2.411,0,0,1,1.326,2.422c-.941,1.514-2.6,2.063-4.038,2.847-4.269,2.331-8.429,4.853-12.692,7.192q6.7-3.639,13.32-7.41a12.736,12.736,0,0,1,3.891-1.881,2.388,2.388,0,0,1,1.367,2.4c-.422,1.028-1.411,1.409-2.271,1.9-4.58,2.613-9.166,5.214-13.782,7.763a1.3,1.3,0,0,0-.579.5c4.883-2.728,9.636-5.487,14.455-8.13.867-.476,1.659-1.2,2.771-1.053a2.638,2.638,0,0,1,1.278,2.437c-.646,1.072-1.8,1.475-2.808,2.032-4.252,2.359-8.44,4.832-12.731,7.12a3.891,3.891,0,0,0-1.278.927c5.16-2.883,10.011-5.743,14.97-8.409a4.447,4.447,0,0,1,2.307-.909,2.331,2.331,0,0,1,1.311,2.4c-.512,1.036-1.557,1.408-2.467,1.926-4.753,2.709-9.532,5.372-14.258,8.127,5.118-2.757,10.14-5.686,15.212-8.525a3.28,3.28,0,0,1,2-.749,2.5,2.5,0,0,1,1.379,2.394c-.267.754-.938,1.078-1.564,1.439-5.082,2.936-10.257,5.71-15.306,8.706,4.671-2.466,9.229-5.137,13.841-7.711,1.1-.616,2.1-1.519,3.487-1.511.773.628,1.785.989,2.236,1.984a2.483,2.483,0,0,1-1.343,1.2c-5.371,3-10.741,6-16.06,9.094,6.463-3.555,12.848-7.253,19.358-10.728a2.879,2.879,0,0,1,1.491-.041c-2.2-3.582-4.191-7.281-6.251-10.941q-5.266-9.356-10.559-18.7c-.4-.713-.974-1.405-.7-2.334" transform="translate(-44.815 -13.961)" fill="#e2dfcf"/>
        <path id="Trazado_187097" data-name="Trazado 187097" d="M261.488,94.761q7.9,13.929,15.8,27.86,4.3,7.59,8.579,15.191c.781,1.1,1.664.574,2.506.126,2.87-1.526,5.673-3.174,8.505-4.769q7.911-4.456,15.808-8.934A6.751,6.751,0,0,1,318,123.4,3.473,3.473,0,0,0,322.036,121a5.539,5.539,0,0,1,2.917-3.68c8.042-4.564,16.119-9.064,24.145-13.659.891-.51,2.042-.853,1.9-2.254q-9.751-17.329-19.5-34.659c-1.613-2.871-3.182-5.767-4.772-8.651,1.4-1.032,2.248-.664,3.1.858q11.766,21.063,23.644,42.063c1.019,1.812.961,2.03-.921,3.09q-12.446,7.013-24.914,13.982c-1.248.693-1.967,1.35-1.685,2.962a3.392,3.392,0,0,1-1.852,3.663c-1.463.826-2.892,1.718-4.385,2.486a3.9,3.9,0,0,1-4.489-.829c-.637-.827-1.085-.661-1.794-.257q-7.52,4.29-15.066,8.534c-3.661,2.061-7.375,4.036-10.991,6.174-1.483.877-2.215.588-3.018-.871-3-5.45-6.108-10.839-9.169-16.254-4.8-8.487-9.551-17-14.417-25.446-.9-1.563-.941-2.614.717-3.489" transform="translate(-44.605 -9.861)" fill="#5f7884"/>
        <path id="Trazado_187098" data-name="Trazado 187098" d="M320.714,126.1a2.583,2.583,0,0,0-.443-1.895c-3.936-7.075-8.049-14.049-11.914-21.166-3.385-6.234-7.043-12.32-10.576-18.475a12.094,12.094,0,0,1-1.355-3.245c1.042-.756,2.159-.469,3.273-.235.91-.4,1.182.466,1.693.856,2.076,4.14,4.448,8.115,6.706,12.153,2.449,4.379,4.956,8.729,7.381,13.123,3.2,5.8,6.51,11.54,9.778,17.3.329.58.692,1.141,1.039,1.711.212.619-.326.493-.51.4a6.324,6.324,0,0,0-4.634-.339c-.152.038-.312-.077-.437-.189" transform="translate(-50.824 -13.86)" fill="#e2dfcf"/>
        <path id="Trazado_187099" data-name="Trazado 187099" d="M302.069,81.834c-.774.128-1.082-.661-1.693-.856.307-.582.95-.546,1.444-.787l.249,1.643" transform="translate(-51.502 -13.749)" fill="#5f7884"/>
        <path id="Trazado_187100" data-name="Trazado 187100" d="M319.816,131.189a4.662,4.662,0,0,1,5.392.307.142.142,0,0,0,.135-.025.425.425,0,0,0,.053-.153c-.125-2.346.989-3.806,3.034-4.94,8.926-4.946,17.79-10,26.672-15.027a14.178,14.178,0,0,0,1.221-.865c1.08,1.147.325,1.669-.682,2.235-8.5,4.774-16.969,9.59-25.473,14.35a4.27,4.27,0,0,0-2.317,3.279c-.265,1.715-3.062,3.327-4.648,2.7a4.615,4.615,0,0,0-4.188.324c-8.436,4.767-16.908,9.472-25.309,14.3-1.382.795-2.063.734-2.518-.781.541.435.961-.013,1.361-.239Q306,139.1,319.426,131.506a2.879,2.879,0,0,0,.39-.317" transform="translate(-49.927 -18.944)" fill="#e2dfcf"/>
        <path id="Trazado_187101" data-name="Trazado 187101" d="M286.744,92.131c.373.565,1,1.137-.166,1.781q-7.72,4.267-15.393,8.621c-.653.369-1.071.408-1.5-.335-.447-.78-.06-1.139.527-1.472q7.6-4.3,15.214-8.6c.378-.213.8-.47,1.315,0" transform="translate(-46.207 -15.751)" fill="#e2dfcf"/>
        <path id="Trazado_187102" data-name="Trazado 187102" d="M315.587,127.074c.5.849-.171,1.057-.7,1.356-3.019,1.71-6.032,3.433-9.054,5.139q-6.213,3.506-12.445,6.979c-.4.224-.928.969-1.389.127-.442-.808.448-.927.843-1.152q10.578-6.024,21.192-11.978a2.025,2.025,0,0,1,1.553-.471" transform="translate(-50.045 -21.781)" fill="#e2dfcf"/>
        <path id="Trazado_187103" data-name="Trazado 187103" d="M289.873,136.074c1.858-1.082,3.582-2.119,5.335-3.1q8.481-4.755,16.982-9.475c.394-.219.81-.825,1.26-.134s-.25.872-.635,1.091q-9.479,5.378-18.977,10.722c-1.022.577-2.044,1.153-3.077,1.711-.28.152-.616.365-.889-.015a.564.564,0,0,1,0-.8" transform="translate(-49.673 -21.096)" fill="#e2dfcf"/>
        <path id="Trazado_187104" data-name="Trazado 187104" d="M317.878,131.013c.529.932-.292,1.077-.767,1.347-2.822,1.61-5.66,3.192-8.493,4.783q-6.376,3.579-12.756,7.149c-.446.248-1.036.912-1.442.254-.476-.773.437-1.008.919-1.28q10.6-6,21.241-11.949c.366-.2.76-.775,1.3-.3" transform="translate(-50.458 -22.432)" fill="#e2dfcf"/>
        <path id="Trazado_187105" data-name="Trazado 187105" d="M306.4,122.038a4.158,4.158,0,0,1,2.094.128q-9.714,5.5-19.433,11c-.4.224-.964.735-1.317.118-.405-.712.362-.909.819-1.167q8.915-5.046,17.836-10.08" transform="translate(-49.317 -20.909)" fill="#e2dfcf"/>
        <path id="Trazado_187106" data-name="Trazado 187106" d="M303.105,118.788l.7,1.133q-7.993,4.457-15.983,8.913c-.441.245-.888.477-1.335.71-.368.191-.747.663-1.125.039-.366-.6.156-.773.534-.988,2.288-1.3,4.582-2.584,6.867-3.887q5.175-2.952,10.342-5.92" transform="translate(-48.906 -20.367)" fill="#e2dfcf"/>
        <path id="Trazado_187107" data-name="Trazado 187107" d="M292.15,99.358l.567.981q-8.529,4.846-17.058,9.694c-.418.238-.842.756-1.249.055-.392-.675.219-.851.648-1.093l17.092-9.637" transform="translate(-47.028 -17.036)" fill="#e2dfcf"/>
        <path id="Trazado_187108" data-name="Trazado 187108" d="M298.785,111.1l.589.974-16.961,9.573c-.433.244-.95.664-1.314.066-.408-.667.321-.835.715-1.057q8.478-4.791,16.971-9.556" transform="translate(-48.176 -19.048)" fill="#e2dfcf"/>
        <path id="Trazado_187109" data-name="Trazado 187109" d="M294.307,103.194l.548.988q-6.827,3.922-13.655,7.84c-1.114.638-2.247,1.245-3.38,1.85-.4.212-.842.8-1.257.083-.406-.7.321-.872.693-1.085,3.442-1.973,6.906-3.908,10.358-5.862,2.235-1.264,4.462-2.542,6.692-3.814" transform="translate(-47.398 -17.693)" fill="#e2dfcf"/>
        <path id="Trazado_187110" data-name="Trazado 187110" d="M296.512,107.036l.7,1.148q-8.4,4.7-16.81,9.4c-.449.25-1.018.877-1.43.2s.378-.914.832-1.172q8-4.565,16.014-9.112c.241-.138.465-.307.7-.461" transform="translate(-47.812 -18.352)" fill="#e2dfcf"/>
        <path id="Trazado_187111" data-name="Trazado 187111" d="M300.947,114.947l.566.968-17.181,9.8c-.379.216-.788.627-1.115,0-.431-.826.425-.95.815-1.173,4.753-2.722,9.529-5.4,14.3-8.092.876-.495,1.745-1,2.617-1.5" transform="translate(-48.539 -19.708)" fill="#e2dfcf"/>
        <path id="Trazado_187112" data-name="Trazado 187112" d="M272.189,105.629c.621-.375,1.231-.768,1.863-1.124,4.574-2.576,9.145-5.157,13.742-7.691.38-.21.934-1.022,1.372-.2.336.631-.346.954-.834,1.227q-7.523,4.227-15.057,8.433c-.322.179-.7.742-1.152.2-.22-.263-.341-.6.066-.843" transform="translate(-46.623 -16.503)" fill="#e2dfcf"/>
        <path id="Trazado_187113" data-name="Trazado 187113" d="M292.527,83.125l18.215,32.22a5.191,5.191,0,0,1-6.277-1.293q-2.866-4.464-5.711-9.306c-3.9-6.648-7.306-13.117-10.295-19.318a23.182,23.182,0,0,1,4.068-2.3" transform="translate(-49.458 -14.252)" fill="#b65534"/>
        <path id="Trazado_187114" data-name="Trazado 187114" d="M397.834,165.718q-9.653-7.891-19.281-15.812c-3.206-2.777-6.464-5.492-9.889-8-1.083-.49-1.362.52-1.787,1.051q-6.6,8.245-13.141,16.543c-6.307,7.97-12.512,16.022-18.927,23.906a3.656,3.656,0,0,0-1.241,2.626,1.7,1.7,0,0,0,.472.859q4.02,3.532,8.29,6.76a1.409,1.409,0,0,0,1.239.333,3.717,3.717,0,0,0,1.564,2.071q9.281,7.54,18.615,15.015c.512.408.983.929,1.749.769q16.339-21.8,32.69-43.593a1.57,1.57,0,0,0-.353-2.53m-22.387,23.6c-1.874,2.333-3.572,4.806-5.318,7.239-1.53,2.13-1.728,2.165-3.727.574-4.115-3.273-8.181-6.605-12.281-9.9a8.783,8.783,0,0,0-3.093-2c-.036-.7-.711-1.036-1.164-1.459-1.357-1.268-2.872-2.354-4.3-3.537-1.093-.9-1.248-1.72-.278-2.825,1.618-1.845,3.015-3.873,4.577-5.767,3.078-3.733,3.057-3.708,6.874-.635.951.765,1.715,1.972,3.175,1.857.094,1.124,1.017,1.658,1.781,2.278,4.443,3.607,8.839,7.273,13.295,10.865,1.283,1.034,1.573,1.923.463,3.305" transform="translate(-57.191 -24.309)" fill="#5f7884"/>
        <path id="Trazado_187115" data-name="Trazado 187115" d="M364.9,139.336c-.283-.279-.544-.583-.849-.835-3.643-3-5.32-2.823-8.235.868q-5.926,7.5-11.845,15.015Q333.68,167.456,323.4,180.537a.586.586,0,0,0,.563.661c1.984-.029,3.544,1.109,5.249,1.842a2.461,2.461,0,0,0,.378-.01c.741.769,1.748,1.233,2.472,2.022q6.192-7.9,12.386-15.8,4.784-6.087,9.592-12.156,6.422-8.071,12.879-16.113a6.089,6.089,0,0,0-2.025-1.65" transform="translate(-55.45 -23.388)" fill="#405d64"/>
        <path id="Trazado_187116" data-name="Trazado 187116" d="M326.019,192.748a1.822,1.822,0,0,0-2.757.121,3.756,3.756,0,0,0-.513.1c-2.811,1.853-3,3.927-.542,6.087,1.949,1.714,4.038,3.255,6.048,4.893q12.91,10.527,25.858,21.007c.841.679,1.614,1.66,2.938,1.364l2.839-3.743,1.139-1.339q-17.5-14.258-35.01-28.494" transform="translate(-54.951 -32.95)" fill="#e2dfcf"/>
        <path id="Trazado_187117" data-name="Trazado 187117" d="M353.049,191c-2.177-1.814-4.327-3.662-6.541-5.429-.962-.767-1.188-1.438-.356-2.459,2.5-3.076,5-6.162,7.41-9.313.971-1.27,1.729-1.267,2.888-.242,1.831,1.618,3.8,3.086,5.7,4.618,5.417,4.477,10.794,9,16.281,13.394,1.159.927,1.078,1.523.315,2.535-2.4,3.182-4.8,6.358-7.074,9.628-.883,1.271-1.449,1.017-2.458.2-5.358-4.348-10.773-8.627-16.167-12.93" transform="translate(-59.262 -29.631)" fill="#b65534"/>
        <path id="Trazado_187118" data-name="Trazado 187118" d="M331.543,208.365c-3.185-3.147-13.064-9.107-12.791-12.563.71-3.5,3.921-7.749,7.9-5.311,5.778,3.7,10.15,8.449,15.9,12.793,6.454,6.291,15.344,10.861,20.076,17.285-3.039,2.373-9.952-6.511-12.323-7.529-7.658-6.158-14.932-12.086-22.568-18.278-1.383-.988-2.568-2.807-4.549-2.124-6.091,3.636,1.042,6.537,3.959,9.382,10.058,8.743,21.023,15.939,30.125,25.045.422,4.647-26.194-18.177-25.734-18.7" transform="translate(-54.651 -32.538)" fill="#5f7884"/>
        <path id="Trazado_187119" data-name="Trazado 187119" d="M147.866,51.925l3.864,6.92a2.04,2.04,0,0,1,.292,1.521c-.4,2.226.663,3.635,2.347,4.985,2.3,1.848,4.525,2.254,7.015.555,3.713-.282,7.236.877,10.814,1.523,10.649,1.925,21.3,3.833,31.945,5.787q8.882,1.631,17.771,3.221a5.239,5.239,0,0,1,2.356.789c.969.211,1.93.468,2.908.621.955.15,1.715.53,1.479,1.594-.212.956-1.079.919-1.881.776q-7.341-1.312-14.683-2.62Q188.5,73.38,164.9,69.144a5.052,5.052,0,0,0-3.721.426c-4.767,2.762-13.433-3.412-12.39-8.845a3.757,3.757,0,0,0-.909-3.59,8.556,8.556,0,0,1-3.423-6.416q-13.548-24.133-27.1-48.266c-.418-.746-.94-1.626.017-2.218,1.078-.666,1.624.205,2.094,1.067.51.933,1.082,1.833,1.627,2.747a4.291,4.291,0,0,1,1.829,1.959c7.079,12.724,14.307,25.364,21.292,38.141.668,1.805,1.939,3.276,2.775,4.989a4.885,4.885,0,0,1,.871,2.787" transform="translate(-20.033 0)" fill="#b65534"/>
        <path id="Trazado_187120" data-name="Trazado 187120" d="M148.207,61.214l3.423,6.417L144.256,77.99c-.949-1.35-.056-3.236-1.2-3.722-1.032-.438-2.487.121-4.351.3l9.5-13.35" transform="translate(-23.782 -10.496)" fill="#5f7884"/>
        <path id="Trazado_187121" data-name="Trazado 187121" d="M130.522,7.583a2.393,2.393,0,0,0-1.411-1.077c-2.382-.514-4.753-1.075-7.129-1.618L144.749,45.63c3.058.2,5.3-1.319,7.241-3.453-5.756-12.4-13.206-23.749-21.468-34.594" transform="translate(-20.915 -0.838)" fill="#e2dfcf"/>
        <path id="Trazado_187122" data-name="Trazado 187122" d="M227.838,75.934h0c-1.559-3.541-3.821-5.956-8.014-6.555-3.913-.558-7.708-1.912-11.575-2.834-12.28-2.926-24.556-5.888-37.2-6.829-.5-.036-1.119.228-1.751-.483a72.347,72.347,0,0,1,16.935.979,271.342,271.342,0,0,1,36.39,8.527c.627.189,1.565.91,1.929-.246.273-.867-.666-.836-1.2-.994C208.214,63.057,193,59,177.2,57.695c-.416-.034-1.075.289-1.27-.6.72-.088,1.394-.192,2.073-.25,10.519-.9,20.946.138,31.34,1.6,4.617.65,9.2,1.549,13.8,2.31.534.089,1.309.5,1.457-.485.116-.774-.616-.729-1.09-.89a5.35,5.35,0,0,0-.676-.128c-12.415-2.388-24.891-4.238-37.576-4.17-2.771.015-5.542.164-8.314.252a3.505,3.505,0,0,1,1.66-.722,131.413,131.413,0,0,1,26.745-1.961c5.583.08,11.161.445,16.744.645.51.018,1.331.478,1.486-.494.194-1.224-.829-.828-1.4-.894-1.291-.151-2.591-.236-3.889-.3-13.782-.71-27.548-.945-41.169,1.834-2.557.522-5.053,1.337-8.085,2.153a113.2,113.2,0,0,1,12.979-9.1,252.887,252.887,0,0,1,31.548-15.863c.621-.267,1.808-.348,1.331-1.428-.41-.931-1.208-.159-1.766.068-6.168,2.514-12.2,5.328-18.136,8.347-10.248,5.214-20.193,10.921-29.147,18.818.934-3,1.893-5.579,2.535-8.232C171.894,33.7,172,18.957,171.141,4.163c-.054-.917-.133-1.832-.211-2.747-.031-.379-.053-.821-.573-.814s-.883.254-.859.84c.019.458.071.915.1,1.373a176.973,176.973,0,0,1-.93,36.195c-.192,1.362-.441,2.717-.688,4.07-.23,1.26-.494,2.514-.742,3.77.617-15.057-.916-29.875-3.318-44.629-.123-.75.3-2.269-1.075-2.061-1.211.183-.378,1.413-.292,2.119.617,5.09,1.445,10.155,1.962,15.254,1.15,11.355,2.014,22.727.185,34.1a11.369,11.369,0,0,1-1.444,4.786c-.75-3.293-1.329-6.372-2.157-9.382C156.983,32.079,150.838,17.9,144.412,3.826c-.292-.638-.307-2.1-1.453-1.573-1.1.5-.031,1.458.193,2.171a21.8,21.8,0,0,0,1.027,2.3,324.742,324.742,0,0,1,14.195,36.085,38.337,38.337,0,0,1,2.124,9.944l-1.911-4.545c-2.7.379-5.074,1.3-6.506,3.822a15.63,15.63,0,0,0,3.9,7.345c3.1,1.637,6.291,3.147,8.779,5.728a3.03,3.03,0,0,0,.368.174c.011.512.544.747,1.006,1.018q17.383,3.066,34.767,6.13,13.881,2.432,27.769,4.823l-.828-1.317" transform="translate(-24.428 -0.024)" fill="#e2dfcf"/>
        <path id="Trazado_187123" data-name="Trazado 187123" d="M149.46,53.347a64.019,64.019,0,0,0,7.241-3.453,23.754,23.754,0,0,1,3.084,6.846c-2.088,1.283-4.434,2.128-6.325,3.74a67.749,67.749,0,0,1-4-7.134" transform="translate(-25.626 -8.555)" fill="#5f7884"/>
        <path id="Trazado_187124" data-name="Trazado 187124" d="M167.993,76.861q.423.8.845,1.59c-2.365,1.94-4.255,2.095-6.565.538-4.095-2.76-4.643-4.031-3.438-7.967a20.869,20.869,0,0,1,9.159,5.84" transform="translate(-27.137 -12.177)" fill="#5f7884"/>
      </g>
    </g>
    <rect id="Rectángulo_38864" data-name="Rectángulo 38864" width="395" height="292" transform="translate(-19378 -8168)" fill="none"/>
  </g>
</svg>
