<svg id="Grupo_121515" data-name="Grupo 121515" xmlns="http://www.w3.org/2000/svg" xmlns:xlink="http://www.w3.org/1999/xlink" width="84.485" height="114.435" viewBox="0 0 84.485 114.435">
  <defs>
    <clipPath id="clip-path">
      <rect id="Rectángulo_38437" data-name="Rectángulo 38437" width="84.485" height="114.435" fill="none"/>
    </clipPath>
  </defs>
  <g id="Grupo_121514" data-name="Grupo 121514" clip-path="url(#clip-path)">
    <path id="Trazado_183479" data-name="Trazado 183479" d="M82.809,20.021v89.385c0,.076,0,.15-.007.224,0,0-2.328,2.442-4.105,2.442l-72.92.014a3.353,3.353,0,0,1-3.352-3.353L2,5.464C2,3.687,4.8,1.683,4.8,1.683c.074,0,.148-.007.224-.007H13.41l1.4.953,1.955-.953H64.378a1.118,1.118,0,0,1,.461.1,2.29,2.29,0,0,0,.242.523L82.348,19.278a3.608,3.608,0,0,0,.36.277,1.129,1.129,0,0,1,.1.466" fill="#f9f8f9"/>
    <path id="Trazado_183480" data-name="Trazado 183480" d="M82.8,109.63a3.352,3.352,0,0,1-3.343,3.129H71.075l-1.864-1.238-1.488,1.238H16.763l-1.736-.753-1.617.753H5.029a3.354,3.354,0,0,1-3.353-3.352v-8.158L2.5,99.572,1.676,97.9V16.987L2.83,15.31,1.676,13.634V5.029A3.355,3.355,0,0,1,4.8,1.683V105.16a4.469,4.469,0,0,0,4.471,4.47Z" fill="#e8e8e8"/>
    <rect id="Rectángulo_38433" data-name="Rectángulo 38433" width="3.353" height="3.129" transform="translate(13.41 109.63)" fill="#99dbff"/>
    <rect id="Rectángulo_38434" data-name="Rectángulo 38434" width="3.353" height="3.129" transform="translate(67.722 109.63)" fill="#99dbff"/>
    <rect id="Rectángulo_38435" data-name="Rectángulo 38435" width="3.129" height="3.353" transform="translate(1.676 97.896)" fill="#99dbff"/>
    <rect id="Rectángulo_38436" data-name="Rectángulo 38436" width="3.129" height="3.353" transform="translate(1.676 13.634)" fill="#99dbff"/>
    <path id="Trazado_183481" data-name="Trazado 183481" d="M82.708,19.555H68.192A3.353,3.353,0,0,1,64.839,16.2V1.776A1.071,1.071,0,0,1,65.166,2L82.481,19.228a1.068,1.068,0,0,1,.227.327" fill="#e8e8e8"/>
    <path id="Trazado_183482" data-name="Trazado 183482" d="M82.809,63.793a1.677,1.677,0,0,0,1.676-1.676v-42.1a2.817,2.817,0,0,0-.823-1.981L66.349.813A2.777,2.777,0,0,0,64.378,0H55.094a1.677,1.677,0,0,0,0,3.354h8.069v10.28h-46.4V3.353H47.272a1.677,1.677,0,0,0,0-3.354H5.029A5.036,5.036,0,0,0,0,5.029V109.406a5.034,5.034,0,0,0,5.029,5.028h22.2a1.676,1.676,0,1,0,0-3.352H16.763v-9.834H67.722v9.834H35.047a1.676,1.676,0,1,0,0,3.352h44.41a5.033,5.033,0,0,0,5.028-5.028V69.939a1.676,1.676,0,0,0-3.352,0V97.895H71.075V21.232H81.133V62.117a1.677,1.677,0,0,0,1.676,1.676M68.192,17.881A1.679,1.679,0,0,1,66.515,16.2V5.709L78.748,17.881ZM5.029,3.353H13.41v10.28H3.353v-8.6A1.677,1.677,0,0,1,5.029,3.353M13.41,111.082H5.029a1.677,1.677,0,0,1-1.676-1.676v-8.158H13.41Zm67.723-9.834v8.158a1.678,1.678,0,0,1-1.676,1.676H71.075v-9.834Zm-64.37-3.353V57.63a1.677,1.677,0,1,0-3.353,0V97.895H3.353V16.987H13.41v32.82a1.677,1.677,0,1,0,3.353,0V16.987H63.224a5.04,5.04,0,0,0,4.5,4.224V97.895Z"/>
  </g>
</svg>
