<svg id="Grupo_121520" data-name="Grupo 121520" xmlns="http://www.w3.org/2000/svg" xmlns:xlink="http://www.w3.org/1999/xlink" width="114.435" height="114.435" viewBox="0 0 114.435 114.435">
  <defs>
    <clipPath id="clip-path">
      <rect id="Rectángulo_38446" data-name="Rectángulo 38446" width="114.435" height="114.435" fill="none"/>
    </clipPath>
  </defs>
  <path id="Trazado_183511" data-name="Trazado 183511" d="M112.759,66.158V80.619L82.418,81.742l-24.406-.78V66.717l25.071-1.106Z" fill="#ff7d91"/>
  <g id="Grupo_121519" data-name="Grupo 121519">
    <g id="Grupo_121518" data-name="Grupo 121518" clip-path="url(#clip-path)">
      <path id="Trazado_183512" data-name="Trazado 183512" d="M27.938,104.377l1.56,4.6-1.56,3.779H5.252l-.293-.3c-1.85,0-2.948-1.613-2.948-3.462l.049-4.623L16.316,103.1Z" fill="#bde4ff"/>
      <rect id="Rectángulo_38440" data-name="Rectángulo 38440" width="26.721" height="32.36" transform="translate(30.112 18.128)" fill="#c3aff0"/>
      <path id="Trazado_183513" data-name="Trazado 183513" d="M112.759,23.133V33.526L84.338,34.872,57.329,33.526V19.557h54.115Z" fill="#afefa5"/>
      <path id="Trazado_183514" data-name="Trazado 183514" d="M112.759,36.878V48.947l-28.8,1.54-26.326-1.54V36.878l26.707-2.007Z" fill="#bde4ff"/>
      <path id="Trazado_183515" data-name="Trazado 183515" d="M55.653,103.1l1.921,5.193-1.921,4.463H48.948l-1.7-2.066L45.6,112.759h-14.3L30.81,108.3l.481-5.193Z" fill="#ff7d91"/>
      <path id="Trazado_183516" data-name="Trazado 183516" d="M83.591,103.1l1.569,5.706-1.569,3.95H59.005l-1.569-4.191,1.569-5.465Z" fill="#ffa95f"/>
      <path id="Trazado_183517" data-name="Trazado 183517" d="M112.759,52.3V66.157l-29.707.056-25.04-1.732V52.3l25.413-2.515Z" fill="#ffa95f"/>
      <path id="Trazado_183518" data-name="Trazado 183518" d="M112.759,83.368v17.657l-14.268,1.127-12.708-1.127V83.368l13.012-1.626Z" fill="#c3aff0"/>
      <path id="Trazado_183519" data-name="Trazado 183519" d="M112.759,104.377v5.029a3.354,3.354,0,0,1-3.353,3.353H104.6l-1.26-2.238-2.093,2.238h-14.3l-1.161-3.494,1.161-4.888L99.851,103.1Z" fill="#ffa95f"/>
      <rect id="Rectángulo_38441" data-name="Rectángulo 38441" width="27.724" height="19.911" transform="translate(57.436 82.241)" fill="#857e87"/>
      <rect id="Rectángulo_38442" data-name="Rectángulo 38442" width="27.473" height="19.911" transform="translate(29.736 82.241)" fill="#c3aff0"/>
      <rect id="Rectángulo_38443" data-name="Rectángulo 38443" width="27.321" height="30.956" transform="translate(29.811 50.736)" fill="#857e87"/>
      <path id="Trazado_183520" data-name="Trazado 183520" d="M29.615,18.572V81H2.328l.7-62.428Z" fill="#ffe07d"/>
      <path id="Trazado_183521" data-name="Trazado 183521" d="M29.726,82.241v19.911H2.1l.2-19.911Z" fill="#bde4ff"/>
      <path id="Trazado_183522" data-name="Trazado 183522" d="M5.252,83.368v29.391H5.029a3.354,3.354,0,0,1-3.353-3.352v-5.029L3.464,103.1l-1.788-2.078V83.368l1.788-1.436Z" fill="#99dbff"/>
      <path id="Trazado_183523" data-name="Trazado 183523" d="M27.938,18.128v5H7.487a2.236,2.236,0,0,0-2.235,2.236V80.015L3.464,81.39,1.676,77.619V19.556Z" fill="#ffd064"/>
      <rect id="Rectángulo_38444" data-name="Rectángulo 38444" width="53.753" height="3.576" transform="translate(59.006 19.557)" fill="#8ce1a4"/>
      <path id="Trazado_183524" data-name="Trazado 183524" d="M59.006,23.133H28.985v-5l25.394-.967Z" fill="#ad96ed"/>
      <path id="Trazado_183525" data-name="Trazado 183525" d="M47.942,92.2a4.47,4.47,0,1,1-4.47-4.47,4.47,4.47,0,0,1,4.47,4.47" fill="#f9f8f9"/>
      <path id="Trazado_183526" data-name="Trazado 183526" d="M31.291,17.321v5.811H27.938l-.071-1.371.071-4.44Z" fill="#e8e8e8"/>
      <rect id="Rectángulo_38445" data-name="Rectángulo 38445" width="3.353" height="5.811" transform="translate(55.653 17.321)" fill="#e8e8e8"/>
      <path id="Trazado_183527" data-name="Trazado 183527" d="M112.759,5.029V19.557H1.676V5.029A3.354,3.354,0,0,1,5.029,1.676H109.406a3.354,3.354,0,0,1,3.353,3.353" fill="#f9f8f9"/>
      <path id="Trazado_183528" data-name="Trazado 183528" d="M25.489,13,20.437,8.622l-2.176,2.349.005,0A3.35,3.35,0,1,0,23.08,15.63v0Z" fill="#e8e8e8"/>
      <path id="Trazado_183529" data-name="Trazado 183529" d="M26.486,10.616a3.352,3.352,0,1,1-3.354-3.353,3.352,3.352,0,0,1,3.354,3.353" fill="#ffe07d"/>
      <path id="Trazado_183530" data-name="Trazado 183530" d="M38.005,13,32.953,8.622l-2.176,2.349,0,0A3.35,3.35,0,1,0,35.6,15.63v0Z" fill="#e8e8e8"/>
      <path id="Trazado_183531" data-name="Trazado 183531" d="M39,10.616a3.352,3.352,0,1,1-3.353-3.353A3.352,3.352,0,0,1,39,10.616" fill="#afefa5"/>
      <path id="Trazado_183532" data-name="Trazado 183532" d="M12.973,13,7.921,8.622,5.745,10.971l.005,0a3.35,3.35,0,1,0,4.814,4.661v0Z" fill="#e8e8e8"/>
      <path id="Trazado_183533" data-name="Trazado 183533" d="M13.969,10.616a3.352,3.352,0,1,1-3.353-3.353,3.352,3.352,0,0,1,3.353,3.353" fill="#e15f78"/>
      <path id="Trazado_183534" data-name="Trazado 183534" d="M109.407,0H37.549a1.676,1.676,0,0,0,0,3.352h71.858a1.678,1.678,0,0,1,1.676,1.677V17.88H3.353V5.029A1.678,1.678,0,0,1,5.029,3.352H29.838a1.676,1.676,0,1,0,0-3.352H5.029A5.035,5.035,0,0,0,0,5.029V109.406a5.035,5.035,0,0,0,5.029,5.029H109.407a5.035,5.035,0,0,0,5.029-5.029V97.577a1.676,1.676,0,1,0-3.353,0v3.448H86.944V83.368h24.139V89.4a1.676,1.676,0,1,0,3.353,0V5.029A5.035,5.035,0,0,0,109.407,0M86.944,104.377h14.3v6.705h-14.3Zm-3.352,6.705H59.006v-6.705H83.592Zm-27.939,0h-6.7v-6.705h6.7ZM3.353,83.368H27.939v17.657H3.353Zm52.3-3.353H31.291v-27.6H55.653Zm0-30.956H31.291V21.232H55.653ZM31.291,104.377H45.6v6.705h-14.3Zm0-21.009H55.653v17.657H31.291Zm27.715-46.49h52.077V48.947H59.006Zm52.077-3.352H59.006V21.233h52.077ZM27.12,21.233l-12.4,27.485A1.676,1.676,0,1,0,17.773,50.1L27.939,27.57V80.015H4.273L14.54,57.263a1.676,1.676,0,1,0-3.056-1.379L3.353,73.9V21.233ZM3.353,109.406v-5.029H27.939v6.705H5.029a1.677,1.677,0,0,1-1.676-1.676m107.73,0a1.677,1.677,0,0,1-1.676,1.676H104.6v-6.705h6.482Zm-27.491-8.381H59.006V83.368H83.592ZM59.006,80.015V67.834h30.62a1.676,1.676,0,1,0,0-3.353H59.006V52.3h52.077V64.481H97.449a1.676,1.676,0,0,0,0,3.353h13.634V80.015Z"/>
      <path id="Trazado_183535" data-name="Trazado 183535" d="M5.588,10.616a5.029,5.029,0,1,0,5.029-5.029,5.035,5.035,0,0,0-5.029,5.029m6.705,0A1.677,1.677,0,1,1,10.617,8.94a1.678,1.678,0,0,1,1.676,1.676"/>
      <path id="Trazado_183536" data-name="Trazado 183536" d="M18.1,10.616a5.029,5.029,0,1,0,5.029-5.029A5.035,5.035,0,0,0,18.1,10.616m6.7,0A1.677,1.677,0,1,1,23.133,8.94a1.678,1.678,0,0,1,1.676,1.676"/>
      <path id="Trazado_183537" data-name="Trazado 183537" d="M35.649,15.645a5.029,5.029,0,1,0-5.029-5.029,5.035,5.035,0,0,0,5.029,5.029m0-6.705a1.677,1.677,0,1,1-1.676,1.676A1.678,1.678,0,0,1,35.649,8.94"/>
      <path id="Trazado_183538" data-name="Trazado 183538" d="M35.2,28.5H51.741a1.677,1.677,0,1,0,0-3.353H35.2a1.677,1.677,0,0,0,0,3.353"/>
      <path id="Trazado_183539" data-name="Trazado 183539" d="M35.2,34.084H51.741a1.676,1.676,0,1,0,0-3.353H35.2a1.676,1.676,0,0,0,0,3.353"/>
      <path id="Trazado_183540" data-name="Trazado 183540" d="M35.2,39.672H51.741a1.677,1.677,0,1,0,0-3.353H35.2a1.677,1.677,0,0,0,0,3.353"/>
      <path id="Trazado_183541" data-name="Trazado 183541" d="M51.742,41.907H35.2a1.676,1.676,0,1,0,0,3.353H51.742a1.676,1.676,0,0,0,0-3.353"/>
      <path id="Trazado_183542" data-name="Trazado 183542" d="M35.2,59.564H51.741a1.677,1.677,0,1,0,0-3.353H35.2a1.677,1.677,0,0,0,0,3.353"/>
      <path id="Trazado_183543" data-name="Trazado 183543" d="M35.2,65.152H51.741a1.677,1.677,0,1,0,0-3.353H35.2a1.677,1.677,0,0,0,0,3.353"/>
      <path id="Trazado_183544" data-name="Trazado 183544" d="M35.2,70.739H51.741a1.676,1.676,0,1,0,0-3.352H35.2a1.676,1.676,0,1,0,0,3.352"/>
      <path id="Trazado_183545" data-name="Trazado 183545" d="M51.742,72.974H35.2a1.677,1.677,0,1,0,0,3.353H51.742a1.677,1.677,0,0,0,0-3.353"/>
      <path id="Trazado_183546" data-name="Trazado 183546" d="M7.376,91.079H23.915a1.677,1.677,0,1,0,0-3.353H7.376a1.677,1.677,0,0,0,0,3.353"/>
      <path id="Trazado_183547" data-name="Trazado 183547" d="M23.915,93.314H7.376a1.676,1.676,0,1,0,0,3.353H23.915a1.676,1.676,0,0,0,0-3.353"/>
      <path id="Trazado_183548" data-name="Trazado 183548" d="M43.472,86.05A6.146,6.146,0,1,0,49.618,92.2a6.153,6.153,0,0,0-6.146-6.146m0,8.94A2.794,2.794,0,1,1,46.266,92.2a2.8,2.8,0,0,1-2.794,2.794"/>
      <path id="Trazado_183549" data-name="Trazado 183549" d="M67.164,29.055h35.314a1.677,1.677,0,0,0,0-3.353H67.164a1.677,1.677,0,0,0,0,3.353"/>
      <path id="Trazado_183550" data-name="Trazado 183550" d="M102.478,41.237H67.164a1.677,1.677,0,0,0,0,3.353h35.314a1.677,1.677,0,0,0,0-3.353"/>
      <path id="Trazado_183551" data-name="Trazado 183551" d="M104.154,58.335a1.677,1.677,0,0,0-1.676-1.676H67.164a1.676,1.676,0,1,0,0,3.352h35.314a1.677,1.677,0,0,0,1.676-1.676"/>
      <path id="Trazado_183552" data-name="Trazado 183552" d="M102.478,72.3H67.164a1.676,1.676,0,0,0,0,3.353h35.314a1.676,1.676,0,0,0,0-3.353"/>
    </g>
  </g>
</svg>
