<svg xmlns="http://www.w3.org/2000/svg" xmlns:xlink="http://www.w3.org/1999/xlink" width="395" height="292" viewBox="0 0 395 292">
  <defs>
    <clipPath id="clip-path">
      <rect id="Rectángulo_38797" data-name="Rectángulo 38797" width="291.165" height="274.297" fill="none"/>
    </clipPath>
    <clipPath id="clip-path-3">
      <path id="Trazado_187132" data-name="Trazado 187132" d="M238.132,55.42c-15.17,7.093-27.211,20.839-33.635,36.167-6.925,16.521-3.917,35.227-8.33,52.384-6.936,26.965-40.239-14.033-44.008,59.157-.832,16.157-.844,33.974,5.937,49,2.812,6.233,8.977,15.25,16.428,15.96,10.563,1.007,12.429-13.867,16.752-20.188,5.054-7.389,12.668-12.655,20.768-16.215,10.3-4.528,22-8.187,27.5-18.936,3.576-6.98,1.137-15.134-2.611-21.593-2.066-3.56-6.959-8.029-5.407-12.549,1.288-3.75,7.153-5.729,10.3-7.316a231.456,231.456,0,0,0,28.086-16.487c7.986-5.562,21.308-13.81,22.064-24.777.609-8.826-8.392-10.2-15.575-10.693-1.183-.08-2.317-.136-3.35-.2-.607-.035-1.359-.035-2.19-.035-3.562,0-8.6,0-10.135-2.853-3.118-5.81,8.269-13.034,11.41-16.591,3.885-4.4,8.6-9.237,10.165-15.077,2.376-8.884-1.885-22.079-8.779-28-4.584-3.938-10.541-5.487-16.654-5.488a45.684,45.684,0,0,0-18.739,4.323" transform="translate(-151.781 -51.097)" fill="none"/>
    </clipPath>
    <clipPath id="clip-path-4">
      <rect id="Rectángulo_38755" data-name="Rectángulo 38755" width="128.186" height="243.38" fill="none"/>
    </clipPath>
    <clipPath id="clip-path-6">
      <path id="Trazado_187139" data-name="Trazado 187139" d="M295.985,159.171c-11.9.19-22.649,6.237-31.482,13.818-10.377,8.908-13.207,21.528-18.334,33.7-1.005,2.386-7.208,15.421-9.01,6.924-2.511-11.847-12.352-11.38-12.355-11.38a22.568,22.568,0,0,0-18.139,11.4C196.4,230.872,194.9,255.142,193.42,274.68c-.7,9.191-.993,18.4-1.066,27.606a5.813,5.813,0,0,0,9.587,4.471c1.8-1.537,3.652-2.917,5.354-4.12,16.365-11.571,38.9-10.111,57.779-7.981,11.02,1.244,20.148,1.97,30.61-2.4,4.348-1.817,9.127-4.137,11.668-8.31,2.3-3.775,3.712-10.637,1.8-14.786-2.379-5.167-9.348-5.964-12.926-10.059-5.781-6.614,12.244-7.741,15.93-8.316,5.875-.916,10.287-4.791,15.086-8a50.091,50.091,0,0,0,10.088-8.524c8.876-10.186,10.4-25.5,8.91-38.458-1.58-13.769-11.595-25.588-24.31-31.128a66.668,66.668,0,0,0-25.224-5.508c-.242,0-.481,0-.721.006" transform="translate(-192.354 -159.165)" fill="none"/>
    </clipPath>
    <clipPath id="clip-path-7">
      <rect id="Rectángulo_38757" data-name="Rectángulo 38757" width="177.855" height="156.335" fill="none"/>
    </clipPath>
    <clipPath id="clip-path-8">
      <path id="Trazado_187140" data-name="Trazado 187140" d="M29.169,26.318c-3.442-.152-6.109,1.953-6.109,4.745V232.624s-.567,7.85,13.183,7.823c1-1-.718-2.356-3.147-3.657l35.972-4.035v28.588l-13.039,1.774a3.036,3.036,0,0,0-2.671,2.877v3.871c0,.283.029.678.118.678h-.026l-.011.058a2.094,2.094,0,0,0,1.006,1.153c1.233,1.073,3.789,2.65,8.7,3.433,0-1.655-.051-3.039-.121-4.192L143.5,259.557l-.132,1.075s7.452-2.654,10-6.119c-4.74-2.4-7.2-3.115-8.232-3.311a2.254,2.254,0,0,0-.59-.11h-.007a3.9,3.9,0,0,0-.429.05l-11.829,1.624v-27.1l34.517-3.859c2.762-.309,5.132-2.814,5.132-5.3V37.1c0-1.813-.772-1.628-2.262-1.442a11.349,11.349,0,0,1-1.95.1L37.648,31.053l-1.472-4.924Z" transform="translate(-23.057 -26.129)" fill="none"/>
    </clipPath>
    <linearGradient id="linear-gradient" x1="0.195" y1="1" x2="0.197" y2="1" gradientUnits="objectBoundingBox">
      <stop offset="0" stop-color="#405d64"/>
      <stop offset="0.996" stop-color="#193540"/>
      <stop offset="1" stop-color="#193540"/>
    </linearGradient>
    <clipPath id="clip-path-9">
      <path id="Trazado_187141" data-name="Trazado 187141" d="M111.281,350.668v36.115l63.214-8.257V344.151Z" transform="translate(-111.281 -344.151)" fill="none"/>
    </clipPath>
    <linearGradient id="linear-gradient-2" x1="-1.608" y1="1.147" x2="-1.595" y2="1.147" gradientUnits="objectBoundingBox">
      <stop offset="0" stop-color="#899eaa"/>
      <stop offset="0.996" stop-color="#5f7884"/>
      <stop offset="1" stop-color="#5f7884"/>
    </linearGradient>
    <clipPath id="clip-path-10">
      <path id="Trazado_187142" data-name="Trazado 187142" d="M35.927,30.958V235.716c0,2.836,2.712,5.079,6.154,4.687L179.813,224.73a5.745,5.745,0,0,0,4.986-5.383V37.089a5.076,5.076,0,0,0-5.032-4.768L42.052,26.138c-.117-.005-.234-.008-.349-.008-3.273,0-5.775,2.088-5.775,4.828" transform="translate(-35.927 -26.13)" fill="none"/>
    </clipPath>
    <linearGradient id="linear-gradient-3" x1="0.131" y1="1.106" x2="0.133" y2="1.106" xlink:href="#linear-gradient-2"/>
    <clipPath id="clip-path-11">
      <path id="Trazado_187143" data-name="Trazado 187143" d="M51.855,44.436V232.073c0,2.815,2.54,4.654,5.933,4.289l120.551-12.97a6.086,6.086,0,0,0,1.751-.4,5.284,5.284,0,0,0,3.431-4.6V49.084a5.051,5.051,0,0,0-5.087-4.731L57.761,39.645c-.1,0-.2-.006-.3-.006-3.24,0-5.6,2.066-5.6,4.8" transform="translate(-51.855 -39.639)" fill="none"/>
    </clipPath>
    <linearGradient id="linear-gradient-4" x1="-0.182" y1="1.241" x2="-0.177" y2="1.241" gradientUnits="objectBoundingBox">
      <stop offset="0" stop-color="#d2b569"/>
      <stop offset="1" stop-color="#b27953"/>
    </linearGradient>
    <clipPath id="clip-path-13">
      <rect id="Rectángulo_38762" data-name="Rectángulo 38762" width="128.148" height="196.771" fill="none"/>
    </clipPath>
    <clipPath id="clip-path-14">
      <path id="Trazado_187145" data-name="Trazado 187145" d="M176.694,399.881,88.272,411.824a3.087,3.087,0,0,0-2.723,2.876v3.872a2.3,2.3,0,0,0,2.806,2.14l88.264-12.531c1.321-.188,2.818-1.4,2.818-2.694v-3.6a2.271,2.271,0,0,0-2.4-2.03,2.549,2.549,0,0,0-.341.023" transform="translate(-85.549 -399.858)" fill="none"/>
    </clipPath>
    <linearGradient id="linear-gradient-5" x1="-1.322" y1="0.707" x2="-1.311" y2="0.707" xlink:href="#linear-gradient-2"/>
    <clipPath id="clip-path-15">
      <path id="Trazado_187146" data-name="Trazado 187146" d="M59.381,39.2l119.493,4.681a5,5,0,0,1,5.026,4.747V218.514a5.228,5.228,0,0,1-3.361,4.619,5.861,5.861,0,0,1-1.716.4L58.631,236.509a7.375,7.375,0,0,0,1.912.037L181.1,223.531a5.638,5.638,0,0,0,1.683-.4,5.23,5.23,0,0,0,3.363-4.619V48.628a4.992,4.992,0,0,0-5.017-4.747L60.489,39.157c-.093,0-.186-.005-.276-.005a7.312,7.312,0,0,0-.832.049" transform="translate(-58.631 -39.152)" fill="none"/>
    </clipPath>
    <linearGradient id="linear-gradient-6" x1="0.007" y1="1.628" x2="0.01" y2="1.628" xlink:href="#linear-gradient-2"/>
    <clipPath id="clip-path-17">
      <rect id="Rectángulo_38766" data-name="Rectángulo 38766" width="118.692" height="174.956" fill="none"/>
    </clipPath>
    <clipPath id="clip-path-18">
      <path id="Trazado_187159" data-name="Trazado 187159" d="M333.423,204.878c-2.563,2.8-1.875,7.106-1.744,9.069.175,2.625,2.578,5.247,1.88,9.5a5.492,5.492,0,0,1-1.589,3.622c-1.2,1.007-2.609.9-4.283.8a13.373,13.373,0,0,0-4.2.231,10.849,10.849,0,0,0-6.279,3.4l-1.666,4.427a12.917,12.917,0,0,0,2.688,5.107c6.323,7.2,22.254,7.418,30.527-1.2,7.378-7.686,5.429-18.566,5.228-19.589-2.494-12.663-14.627-17.487-15.422-17.788a8.269,8.269,0,0,0-5.139,2.415" transform="translate(-315.541 -202.463)" fill="none"/>
    </clipPath>
    <linearGradient id="linear-gradient-7" x1="-3.41" y1="3.027" x2="-3.399" y2="3.027" xlink:href="#linear-gradient-2"/>
    <clipPath id="clip-path-19">
      <path id="Trazado_187160" data-name="Trazado 187160" d="M360.985,432.983c-.14.775,2.789,2.105,4.485,2.085.511-.006-.023-.309.107-.482.358-.474-.067-1.525-.687-2.044a2.594,2.594,0,0,0-1.674-.526c-1.079,0-2.141.468-2.232.967" transform="translate(-360.98 -432.016)" fill="none"/>
    </clipPath>
    <linearGradient id="linear-gradient-8" x1="-40.758" y1="2" x2="-40.645" y2="2" xlink:href="#linear-gradient"/>
    <clipPath id="clip-path-20">
      <path id="Trazado_187161" data-name="Trazado 187161" d="M363.44,424.181s.314,1.263.847,3.124a12.258,12.258,0,0,1,.294,2.67l2.589-.366c-1.2-1.444-.977-6.043-.977-6.043Z" transform="translate(-363.44 -423.567)" fill="none"/>
    </clipPath>
    <linearGradient id="linear-gradient-9" x1="-48.241" y1="2.317" x2="-48.108" y2="2.317" gradientUnits="objectBoundingBox">
      <stop offset="0" stop-color="#fccb7d"/>
      <stop offset="0.996" stop-color="#b27953"/>
      <stop offset="1" stop-color="#b27953"/>
    </linearGradient>
    <clipPath id="clip-path-21">
      <path id="Trazado_187162" data-name="Trazado 187162" d="M364.905,433.317c-.176.524.1,2.067,2.075,2.12s1.716-1.6,1.379-2.221c-.1-.186-.454-.251-.9-.251a14.426,14.426,0,0,0-2.556.351" transform="translate(-364.861 -432.966)" fill="none"/>
    </clipPath>
    <linearGradient id="linear-gradient-10" x1="-50.078" y1="2.261" x2="-49.94" y2="2.261" xlink:href="#linear-gradient"/>
    <clipPath id="clip-path-22">
      <path id="Trazado_187163" data-name="Trazado 187163" d="M302.794,437.951c-.248.747,2.467,2.475,4.148,2.693.507.065.021-.31.175-.463.421-.42.146-1.52-.394-2.12a2.877,2.877,0,0,0-2.133-.793c-.875,0-1.664.285-1.8.683" transform="translate(-302.778 -437.268)" fill="none"/>
    </clipPath>
    <linearGradient id="linear-gradient-11" x1="-31.277" y1="1.424" x2="-31.173" y2="1.424" xlink:href="#linear-gradient"/>
    <clipPath id="clip-path-23">
      <path id="Trazado_187164" data-name="Trazado 187164" d="M306.495,429.65s.134,1.293.4,3.212a12.211,12.211,0,0,1-.082,2.685h2.614c-.985-1.6-.122-6.121-.122-6.121Z" transform="translate(-306.495 -429.427)" fill="none"/>
    </clipPath>
    <linearGradient id="linear-gradient-12" x1="-63.787" y1="1.977" x2="-63.579" y2="1.977" xlink:href="#linear-gradient-9"/>
    <clipPath id="clip-path-24">
      <path id="Trazado_187165" data-name="Trazado 187165" d="M292.785,276.145A120.958,120.958,0,0,0,288.73,294.7c-3.176,23.1,3.574,23.841,2.314,49.443-.4,8.172,7.08,27.016,7.739,27.433a8.135,8.135,0,0,0,1.035.04,10.284,10.284,0,0,0,2.636-.439c1.185-.2,5.458-11.778,4.467-18.66-.7-4.871-.5-10.1-.091-20.553.066-1.694,4.4-32.957,4.4-32.957,1.318,11.571,2.835,21.4,4.149,29.027,4.223,24.492,17.954,39.317,18.671,39.554a2.9,2.9,0,0,0,2.483-.17,1.706,1.706,0,0,0,.628-.708c.368-.288-.108-24.452-4.3-42.639-6.078-26.4-3.431-32.573-5.358-44.363-.724-4.433-7.376-5.687-14.665-5.687a119.333,119.333,0,0,0-20.057,2.122" transform="translate(-287.872 -274.023)" fill="none"/>
    </clipPath>
    <linearGradient id="linear-gradient-13" x1="-1.36" y1="1.287" x2="-1.354" y2="1.287" xlink:href="#linear-gradient"/>
    <clipPath id="clip-path-25">
      <path id="Trazado_187166" data-name="Trazado 187166" d="M300.234,201.95c-.088.079.959.639.442,1.243a33.57,33.57,0,0,0-3.607,5.178,34.832,34.832,0,0,0-3.033,7.5,64.6,64.6,0,0,0-2.394,13.088q-.08,1.083-.145,2.1c-.679,10.846.184,16.081.976,19.705a42.512,42.512,0,0,0,24.258,3.563,37.75,37.75,0,0,0,11.836-3.851l.258-.131c-2.911-8.8-.63-13.512.446-17.855,1.536-6.189,1.558-5.721,2.823-10.64,2.084-8.116,2.425-16.406.993-18.1-3.86-4.574-10.82-4.74-14.431-4.849-1.6-.047-4.03-.3-6.695-.3-4.05,0-8.647.582-11.728,3.354" transform="translate(-291.252 -198.596)" fill="none"/>
    </clipPath>
    <linearGradient id="linear-gradient-14" x1="-2.402" y1="2.225" x2="-2.394" y2="2.225" xlink:href="#linear-gradient-2"/>
    <clipPath id="clip-path-26">
      <path id="Trazado_187167" data-name="Trazado 187167" d="M306.652,438.846c-.248.495-.193,2.061,1.758,2.39s1.923-1.346,1.676-2.006c-.135-.36-1.144-.441-2.034-.441-.742,0-1.4.057-1.4.057" transform="translate(-306.548 -438.789)" fill="none"/>
    </clipPath>
    <linearGradient id="linear-gradient-15" x1="-39.676" y1="1.535" x2="-39.546" y2="1.535" xlink:href="#linear-gradient"/>
    <clipPath id="clip-path-27">
      <path id="Trazado_187168" data-name="Trazado 187168" d="M317.033,176.213c-.04.023-.076.048-.076.048l-.614.565c-.437.432-.655.749-1.332,2.892a7.018,7.018,0,0,0,.214,5.077c.81,1.617,3.326,2.227,3.765,2.357q.1,1.374.195,2.748c-5.533.335-6.866.929-6.917,1.454-.115,1.2,6.415,3.374,12.948,2.879,3-.227,7.019-1.092,7.023-2.084,0-.471-.9-1.35-7.781-2.419-.35-1.261-.769-2.56-1.271-3.885-.081-.212-.162-.424-.245-.633-.8-5.742-2.625-9.56-3.652-9.58h-.01a8.281,8.281,0,0,0-2.245.58" transform="translate(-312.266 -175.633)" fill="none"/>
    </clipPath>
    <linearGradient id="linear-gradient-16" x1="-6.829" y1="6.312" x2="-6.807" y2="6.312" xlink:href="#linear-gradient-9"/>
    <clipPath id="clip-path-29">
      <path id="Trazado_187170" data-name="Trazado 187170" d="M320.783,185.975c-.427.911-.6,2.185.148,2.2a1.424,1.424,0,0,0,1.187-1.7.99.99,0,0,0-.85-.843.528.528,0,0,0-.485.342" transform="translate(-320.415 -185.633)" fill="none"/>
    </clipPath>
    <linearGradient id="linear-gradient-17" x1="-61.519" y1="49.089" x2="-61.327" y2="49.089" xlink:href="#linear-gradient-9"/>
    <clipPath id="clip-path-30">
      <path id="Trazado_187171" data-name="Trazado 187171" d="M354.565,237.8c-.421,1.617-.692,2.58-.956,3.519-.4,1.438-.786,2.8-1.656,6.309-.159.638-.343,1.285-.533,1.951a24.66,24.66,0,0,0-1.208,10.3.233.233,0,0,0,.233.209h.026a.234.234,0,0,0,.207-.259,24.287,24.287,0,0,1,1.193-10.119c.192-.671.378-1.322.536-1.966.87-3.505,1.25-4.861,1.653-6.295.266-.941.536-1.907.959-3.528a.235.235,0,0,0-.169-.286.212.212,0,0,0-.062-.009.234.234,0,0,0-.225.176" transform="translate(-350.076 -237.621)" fill="none"/>
    </clipPath>
    <linearGradient id="linear-gradient-18" x1="-40.076" y1="5.752" x2="-39.962" y2="5.752" gradientUnits="objectBoundingBox">
      <stop offset="0" stop-color="#5f7884"/>
      <stop offset="0.004" stop-color="#5f7884"/>
      <stop offset="1" stop-color="#899eaa"/>
    </linearGradient>
    <clipPath id="clip-path-32">
      <rect id="Rectángulo_38782" data-name="Rectángulo 38782" width="37.315" height="26.865" fill="none"/>
    </clipPath>
    <clipPath id="clip-path-33">
      <path id="Trazado_187172" data-name="Trazado 187172" d="M292.473,269.456a42.517,42.517,0,0,0,24.258,3.563,37.748,37.748,0,0,0,11.836-3.851,54.624,54.624,0,0,1-5.55-5.585c-3.208-3.484-6.968-2.184-9.179-.871a5.221,5.221,0,0,1-7.875-4.356,23.27,23.27,0,0,1,.118-2.911c.757-7.927-10.225-8.6-10.225-8.6-1.55-.805-3.021.495-4.359,2.906-.679,10.847.184,16.082.976,19.706" transform="translate(-291.252 -246.605)" fill="none"/>
    </clipPath>
    <linearGradient id="linear-gradient-19" x1="-4.699" y1="4.338" x2="-4.683" y2="4.338" xlink:href="#linear-gradient-2"/>
    <clipPath id="clip-path-34">
      <path id="Trazado_187173" data-name="Trazado 187173" d="M229.192,203.108a7.379,7.379,0,0,0,2.466,4.233,2.22,2.22,0,0,0-.137.2,2.331,2.331,0,0,0-.295.825,2.391,2.391,0,0,0,.705,2.022,19.464,19.464,0,0,0,4.264,3.125l.816-.749c.849.017,1.684.029,2.536.051a5.473,5.473,0,0,1-1.3-1.217l.123-.18.048-.162a2.836,2.836,0,0,1-.809-.915c-.206-.705,0-1.108-.229-2.019a6.006,6.006,0,0,0-.622-1.531c-.64-1.12-1.486-1.818-1.766-1.684-.194.092-.053.562.007,1.078a2.719,2.719,0,0,1,.01.532,7.01,7.01,0,0,1-2.964-1.851c-.442-.427-.874-.865-1.3-1.307-.3-.311-.685-.891-1.1-1.058a.455.455,0,0,0-.169-.037c-.261,0-.327.329-.286.645" transform="translate(-229.181 -202.463)" fill="none"/>
    </clipPath>
    <linearGradient id="linear-gradient-20" x1="-9.268" y1="10.167" x2="-9.227" y2="10.167" xlink:href="#linear-gradient-9"/>
    <clipPath id="clip-path-35">
      <path id="Trazado_187174" data-name="Trazado 187174" d="M275.838,205.274c-9.088,5.9-8.166,11.542-12.838,12.672-3.405.824-6.621-1.512-9.872-3.849-3.437-2.471-6.913-4.941-10.7-3.677a8.073,8.073,0,0,0-3.474,2.406,24.462,24.462,0,0,0,5.17,12.63c6.314,7.765,17.873,11.386,27.791,7.6,11.85-4.52,17.658-18.2,15.394-25.463-.26-.836-1.116-3.586-3.423-4.555a4.174,4.174,0,0,0-1.65-.324c-1.425,0-3.414.617-6.4,2.557" transform="translate(-238.958 -202.717)" fill="none"/>
    </clipPath>
    <linearGradient id="linear-gradient-21" x1="-2.314" y1="2.791" x2="-2.304" y2="2.791" xlink:href="#linear-gradient-2"/>
    <clipPath id="clip-path-36">
      <path id="Trazado_187175" data-name="Trazado 187175" d="M289.5,13.373c-24.925.556-44.832,17.576-44.832,38.024S264.575,88.47,289.5,88.532c25.342.063,46.2-16.967,46.2-38.038,0-20.721-20.173-37.134-44.943-37.135-.418,0-.835,0-1.255.014" transform="translate(-244.668 -13.359)" fill="none"/>
    </clipPath>
    <linearGradient id="linear-gradient-22" x1="-1.281" y1="2.473" x2="-1.276" y2="2.473" gradientUnits="objectBoundingBox">
      <stop offset="0" stop-color="#193540"/>
      <stop offset="1" stop-color="#6f4b52"/>
    </linearGradient>
    <linearGradient id="linear-gradient-23" x1="-1.234" y1="2.707" x2="-1.229" y2="2.707" gradientUnits="objectBoundingBox">
      <stop offset="0" stop-color="#6f4b52"/>
      <stop offset="1" stop-color="#193540"/>
    </linearGradient>
    <clipPath id="clip-path-38">
      <path id="Trazado_187177" data-name="Trazado 187177" d="M248.084,110.006a35.292,35.292,0,0,0-4.2,15.936q7.505-2.924,15.392-5.772,5.415-1.953,10.719-3.758L256.483,99.752a35.125,35.125,0,0,0-8.4,10.254" transform="translate(-243.881 -99.752)" fill="none"/>
    </clipPath>
    <linearGradient id="linear-gradient-24" x1="-4.273" y1="6.395" x2="-4.255" y2="6.395" xlink:href="#linear-gradient-23"/>
    <clipPath id="clip-path-39">
      <path id="Trazado_187178" data-name="Trazado 187178" d="M284.252,7.8c-24.925.556-44.832,17.577-44.832,38.025S259.327,82.9,284.252,82.964c25.342.062,46.2-16.967,46.2-38.038,0-20.721-20.172-37.134-44.942-37.135-.418,0-.836,0-1.257.014" transform="translate(-239.42 -7.79)" fill="none"/>
    </clipPath>
    <linearGradient id="linear-gradient-25" x1="-1.252" y1="2.502" x2="-1.246" y2="2.502" xlink:href="#linear-gradient-4"/>
    <linearGradient id="linear-gradient-26" x1="-1.252" y1="2.502" x2="-1.246" y2="2.502" gradientUnits="objectBoundingBox">
      <stop offset="0" stop-color="#fccb7d"/>
      <stop offset="0.314" stop-color="#d2b569"/>
      <stop offset="0.996" stop-color="#b27953"/>
      <stop offset="1" stop-color="#b27953"/>
    </linearGradient>
    <clipPath id="clip-path-41">
      <path id="Trazado_187180" data-name="Trazado 187180" d="M246.409,107.483a49.239,49.239,0,0,0-2.528,13.923q5.153-2.179,10.494-4.618,6.436-2.944,12.412-5.944l-13.509-16.66a49.248,49.248,0,0,0-6.869,13.3" transform="translate(-243.881 -94.184)" fill="none"/>
    </clipPath>
    <linearGradient id="linear-gradient-27" x1="-4.013" y1="6.354" x2="-3.996" y2="6.354" xlink:href="#linear-gradient-26"/>
    <clipPath id="clip-path-43">
      <rect id="Rectángulo_38793" data-name="Rectángulo 38793" width="62.446" height="61.017" fill="none"/>
    </clipPath>
    <clipPath id="clip-path-44">
      <path id="Trazado_187183" data-name="Trazado 187183" d="M291.476,82.429c5.46-11.081-.059-21.394,7.327-28.615,7.541-7.372,17.4-.691,28.074-6.782,4.149-2.366,8.774-6.863,12.222-16.056a33.172,33.172,0,0,1,9.585,22.979c0,21.071-20.857,38.1-46.2,38.038a53.6,53.6,0,0,1-16.247-2.522,24.653,24.653,0,0,0,5.239-7.043" transform="translate(-286.237 -30.976)" fill="none"/>
    </clipPath>
    <linearGradient id="linear-gradient-28" x1="-1.996" y1="3.205" x2="-1.989" y2="3.205" xlink:href="#linear-gradient-26"/>
    <clipPath id="clip-path-45">
      <path id="Trazado_187184" data-name="Trazado 187184" d="M22.791,366.671A19.352,19.352,0,0,1,40.3,347.518,16.061,16.061,0,0,1,58.143,363.4a19.366,19.366,0,0,1-17.319,19.136c-.593.058-1.182.087-1.761.087a16,16,0,0,1-16.271-15.956m19.477-35.752-4.416.361a2.54,2.54,0,0,0-2.316,2.519l.042,2.845a31.364,31.364,0,0,0-5.817,2.009l.733-3.039c-.669-1.062-4.32-.611-5.443.127l-3.831,2.52a2.415,2.415,0,0,0-.822,3.266l1.441,2.278a33.058,33.058,0,0,0-4.328,4.609l.026-1.505c-1.15-.55-5.032.319-5.675,1.5L9.67,352.424a2.218,2.218,0,0,0,.922,3.126l2.3,1.089a30.48,30.48,0,0,0-1.622,6.092l-2.542.231a2.6,2.6,0,0,0-2.359,2.566l.065,4.421a2.161,2.161,0,0,0,2.428,2.124l2.4-.225a27.092,27.092,0,0,0,1.655,5.954l-1.973,1.318a2.437,2.437,0,0,0-.827,3.288l2.3,3.6c.675,1.056,3.712,1.556,4.842.8l.294-1.513a26.238,26.238,0,0,0,4.6,4.11L21.135,391.3a2.2,2.2,0,0,0,.916,3.105l3.9,1.808c1.142.529,4.758.443,5.394-.739l-1.2-2.263a28.061,28.061,0,0,0,6.288,1.047l.029,1.959a2.109,2.109,0,0,0,2.384,2.085l4.414-.453a2.6,2.6,0,0,0,2.306-2.56l-.029-1.953a31.476,31.476,0,0,0,6.18-2.3l1.015,1.606c.659,1.042,4.411,1.412,5.513.659l1.426-2.694a2.425,2.425,0,0,0,.8-3.24L59.422,385.7a33.045,33.045,0,0,0,4.352-4.935l1.843.874c1.114.528,4.341.668,4.961-.5l.289-4.621a2.189,2.189,0,0,0-.889-3.063l-1.937-.925a30.23,30.23,0,0,0,1.421-6.137l2.313-.216a2.533,2.533,0,0,0,2.264-2.514l-.065-4.328a2.1,2.1,0,0,0-2.332-2.091l-2.449.223a26.973,26.973,0,0,0-1.738-5.686l2.18-1.464a2.4,2.4,0,0,0,.8-3.219l.218-4.315c-.653-1.047-4.51-.553-5.606.178L62.75,344.5a26.226,26.226,0,0,0-4.344-3.81l1.338-2.486a2.21,2.21,0,0,0-.9-3.083l-1.734-2.263c-1.121-.546-4.621.353-5.247,1.514l-1.376,2.547a27.978,27.978,0,0,0-5.808-1.028l-.042-2.837a2.147,2.147,0,0,0-2.18-2.137c-.064,0-.129,0-.195.008" transform="translate(-6.366 -330.911)" fill="none"/>
    </clipPath>
    <linearGradient id="linear-gradient-29" x1="0.091" y1="0.917" x2="0.097" y2="0.917" xlink:href="#linear-gradient-22"/>
    <clipPath id="clip-path-46">
      <path id="Trazado_187185" data-name="Trazado 187185" d="M27.643,366.372a19.351,19.351,0,0,1,17.514-19.154,16.061,16.061,0,0,1,17.838,15.888,19.365,19.365,0,0,1-17.319,19.135c-.593.058-1.182.087-1.761.087a16,16,0,0,1-16.271-15.956M47.119,330.62l-4.415.362a2.54,2.54,0,0,0-2.316,2.518l.042,2.845a31.374,31.374,0,0,0-5.817,2.009l-1.467-2.327a2.3,2.3,0,0,0-3.243-.586l-3.831,2.52a2.415,2.415,0,0,0-.822,3.266l1.442,2.278a33.071,33.071,0,0,0-4.329,4.61l-2.4-1.147a2.531,2.531,0,0,0-3.245,1.139l-2.192,4.019a2.218,2.218,0,0,0,.922,3.126l2.3,1.089a30.464,30.464,0,0,0-1.623,6.091l-2.543.231a2.6,2.6,0,0,0-2.358,2.566l.065,4.421a2.162,2.162,0,0,0,2.428,2.124l2.4-.225a27.115,27.115,0,0,0,1.654,5.954l-1.973,1.318a2.437,2.437,0,0,0-.827,3.288l2.3,3.6a2.31,2.31,0,0,0,3.27.538l1.867-1.254a26.24,26.24,0,0,0,4.6,4.11L25.986,391A2.2,2.2,0,0,0,26.9,394.1l3.9,1.807a2.532,2.532,0,0,0,3.217-1.182l.979-1.819a28.067,28.067,0,0,0,6.289,1.047l.029,1.959A2.11,2.11,0,0,0,43.7,398l4.414-.454a2.6,2.6,0,0,0,2.3-2.56l-.029-1.953a31.435,31.435,0,0,0,6.18-2.3l1.016,1.606a2.234,2.234,0,0,0,3.189.524l3.751-2.558a2.425,2.425,0,0,0,.8-3.24l-1.05-1.666a33.045,33.045,0,0,0,4.352-4.935l1.842.874a2.447,2.447,0,0,0,3.138-1.153l2.113-3.964a2.19,2.19,0,0,0-.89-3.063l-1.937-.924a30.277,30.277,0,0,0,1.421-6.138l2.313-.216a2.533,2.533,0,0,0,2.264-2.514l-.065-4.328a2.1,2.1,0,0,0-2.332-2.091l-2.449.223a26.923,26.923,0,0,0-1.738-5.686l2.18-1.464a2.4,2.4,0,0,0,.8-3.219l-2.224-3.564a2.226,2.226,0,0,0-3.164-.571L67.6,344.2a26.223,26.223,0,0,0-4.343-3.811L64.6,337.9a2.21,2.21,0,0,0-.9-3.083l-3.816-1.86a2.445,2.445,0,0,0-3.165,1.111l-1.375,2.547a27.946,27.946,0,0,0-5.808-1.029l-.042-2.837a2.148,2.148,0,0,0-2.18-2.137c-.064,0-.129,0-.195.008" transform="translate(-11.217 -330.612)" fill="none"/>
    </clipPath>
    <linearGradient id="linear-gradient-30" x1="-0.101" y1="1.073" x2="-0.092" y2="1.073" xlink:href="#linear-gradient-26"/>
  </defs>
  <g id="Grupo_122052" data-name="Grupo 122052" transform="translate(19378 7195)">
    <g id="Grupo_121910" data-name="Grupo 121910" transform="translate(-19311.701 -7185.948)">
      <g id="Grupo_121909" data-name="Grupo 121909" clip-path="url(#clip-path)">
        <g id="Grupo_121814" data-name="Grupo 121814">
          <g id="Grupo_121813" data-name="Grupo 121813" clip-path="url(#clip-path)">
            <path id="Trazado_187125" data-name="Trazado 187125" d="M271.779,117.161C264.3,68.224,233.649,8.1,173.09,1.81c0,0-45.979-5.593-91.3,2.883C54.885,9.725,31.3,24.7,16.372,46.223A90.062,90.062,0,0,0,2.511,119.011c3.93,16.251,6.585,33.071,5.857,49.77C7.1,197.844,7.829,224.972,36.034,242.3c25.184,15.476,56.879,29.125,87.115,31.516,20.549,1.625,43.593-1,63.4-6.354C287.479,240.2,279.255,166.1,271.779,117.161" transform="translate(0 0)" fill="#e2dfcf"/>
            <path id="Trazado_187126" data-name="Trazado 187126" d="M276.4,119.339c-1.183-.081-2.316-.137-3.35-.2-3.207-.191-10.433.634-12.324-2.888-3.118-5.81,8.269-13.034,11.41-16.591,3.886-4.4,8.6-9.237,10.165-15.077,2.377-8.883-1.885-22.079-8.778-28-9.508-8.169-24.922-6.06-35.394-1.165-15.17,7.093-27.211,20.839-33.635,36.167-6.925,16.522-3.917,35.228-8.33,52.384-6.936,26.966-40.239-14.033-44.009,59.157-.832,16.157-.843,33.974,5.938,49,2.812,6.233,8.977,15.25,16.427,15.961,10.563,1.007,12.43-13.868,16.753-20.188,5.054-7.389,12.668-12.655,20.768-16.214,10.3-4.529,22-8.187,27.5-18.936,3.576-6.98,1.137-15.133-2.611-21.592-2.066-3.56-6.959-8.029-5.407-12.55,1.288-3.749,7.153-5.728,10.3-7.316a231.585,231.585,0,0,0,28.087-16.487c7.985-5.563,21.307-13.811,22.063-24.777.609-8.826-8.392-10.205-15.575-10.693" transform="translate(-59.108 -19.899)" fill="#d2d6d1"/>
          </g>
        </g>
        <g id="Grupo_121819" data-name="Grupo 121819" transform="translate(92.673 31.198)">
          <g id="Grupo_121818" data-name="Grupo 121818" clip-path="url(#clip-path-3)">
            <g id="Grupo_121817" data-name="Grupo 121817" transform="translate(8.4 -4.296)" opacity="0.8" style="mix-blend-mode: soft-light;isolation: isolate">
              <g id="Grupo_121816" data-name="Grupo 121816">
                <g id="Grupo_121815" data-name="Grupo 121815" clip-path="url(#clip-path-4)">
                  <path id="Trazado_187127" data-name="Trazado 187127" d="M206.482,287.434a.538.538,0,0,1-.292-.147c-15.846-15.571-21.179-36.372-16.3-63.589,4.25-23.729,15.3-48.46,25.99-72.377,8.417-18.834,16.366-36.624,19.633-51.4a67.711,67.711,0,0,1,15.232-30.638,71.7,71.7,0,0,1,22.3-16.767,87.575,87.575,0,0,1,28.906-8.449.537.537,0,1,1,.077,1.072,86.446,86.446,0,0,0-28.542,8.358c-13.626,6.717-31.094,20.264-36.928,46.656-3.291,14.887-11.262,32.725-19.7,51.611-21.032,47.065-44.871,100.41-9.913,134.761a.537.537,0,0,1-.461.914" transform="translate(-174.342 -44.061)" fill="#fff"/>
                  <path id="Trazado_187128" data-name="Trazado 187128" d="M260.871,107.432a.548.548,0,0,1-.159-.051c-.136-.069-3.356-1.738-6.377-6.746-2.755-4.566-5.858-12.921-5-26.791a.537.537,0,1,1,1.073.067c-.841,13.534,2.144,21.658,4.8,26.09,2.862,4.781,5.96,6.405,5.99,6.421a.537.537,0,0,1-.327,1.01" transform="translate(-198.116 -55.463)" fill="#fff"/>
                  <path id="Trazado_187129" data-name="Trazado 187129" d="M250.717,162.935a.537.537,0,0,1,.114-1.067,79.427,79.427,0,0,0,22.123-2.924A94.284,94.284,0,0,0,317.292,132.5a.538.538,0,1,1,.781.739,95.363,95.363,0,0,1-44.887,26.756,80.471,80.471,0,0,1-22.415,2.947.537.537,0,0,1-.055-.006" transform="translate(-198.534 -78.436)" fill="#fff"/>
                  <path id="Trazado_187130" data-name="Trazado 187130" d="M185.72,270.792a.544.544,0,0,1-.172-.058,41.432,41.432,0,0,1-14.466-14.741,40.68,40.68,0,0,1-5.52-19.434c-.283-8.743,1.98-18.252,6.727-28.26a.538.538,0,1,1,.971.46c-10.554,22.252-6.52,37.649-1.277,46.647a41.15,41.15,0,0,0,14.075,14.381.538.538,0,0,1-.339,1" transform="translate(-165.539 -107.901)" fill="#fff"/>
                  <path id="Trazado_187131" data-name="Trazado 187131" d="M207.988,272.964a.537.537,0,0,1,.1-1.068c.433.01,43.483.931,56.326-13.389a.538.538,0,1,1,.8.718c-5.546,6.184-16.864,10.376-33.639,12.46a179.165,179.165,0,0,1-23.515,1.285.551.551,0,0,1-.071-.007" transform="translate(-181.893 -127.504)" fill="#fff"/>
                </g>
              </g>
            </g>
          </g>
        </g>
        <g id="Grupo_121821" data-name="Grupo 121821">
          <g id="Grupo_121820" data-name="Grupo 121820" clip-path="url(#clip-path)">
            <path id="Trazado_187133" data-name="Trazado 187133" d="M346.241,195.8c-1.58-13.769-11.595-25.588-24.31-31.127a66.149,66.149,0,0,0-25.945-5.5c-11.9.19-22.65,6.237-31.482,13.818-10.378,8.908-13.208,21.528-18.334,33.7-1.005,2.387-7.208,15.421-9.01,6.924-2.512-11.847-12.354-11.38-12.355-11.38a22.573,22.573,0,0,0-18.139,11.394c-10.267,17.246-11.761,41.514-13.246,61.054-.7,9.19-.993,18.4-1.065,27.6a5.813,5.813,0,0,0,9.586,4.472c1.8-1.537,3.652-2.917,5.354-4.12,16.366-11.571,38.9-10.111,57.779-7.981,11.021,1.244,20.148,1.97,30.611-2.4,4.347-1.818,9.127-4.137,11.667-8.31,2.3-3.775,3.712-10.637,1.8-14.786-2.379-5.167-9.348-5.964-12.926-10.059-5.781-6.614,12.244-7.741,15.93-8.316,5.876-.916,10.287-4.791,15.087-8a50.068,50.068,0,0,0,10.088-8.524c8.876-10.185,10.4-25.495,8.91-38.458" transform="translate(-74.909 -61.984)" fill="#d2d6d1"/>
          </g>
        </g>
        <g id="Grupo_121826" data-name="Grupo 121826" transform="translate(117.445 97.181)">
          <g id="Grupo_121825" data-name="Grupo 121825" clip-path="url(#clip-path-6)">
            <g id="Grupo_121824" data-name="Grupo 121824" transform="translate(-4.135 -4.144)" opacity="0.8" style="mix-blend-mode: soft-light;isolation: isolate">
              <g id="Grupo_121823" data-name="Grupo 121823">
                <g id="Grupo_121822" data-name="Grupo 121822" clip-path="url(#clip-path-7)">
                  <path id="Trazado_187134" data-name="Trazado 187134" d="M186.035,318.648a.538.538,0,0,1-.36-.833,784.12,784.12,0,0,1,53.9-68.918c17.773-20.11,34.393-36.246,49.4-47.959,18.814-14.685,35.153-22.434,48.565-23.029a.538.538,0,0,1,.048,1.074c-13.185.586-29.318,8.258-47.952,22.8-14.953,11.672-31.524,27.762-49.254,47.823a782.844,782.844,0,0,0-53.818,68.811.539.539,0,0,1-.529.229" transform="translate(-185.582 -162.32)" fill="#fff"/>
                  <path id="Trazado_187135" data-name="Trazado 187135" d="M316.884,212.43a.5.5,0,0,1-.083-.02.537.537,0,0,1-.345-.678c.159-.488,15.812-48.914,9.366-58.518a.538.538,0,0,1,.893-.6c6.736,10.035-8.581,57.437-9.236,59.451a.538.538,0,0,1-.594.364" transform="translate(-236.538 -152.378)" fill="#fff"/>
                  <path id="Trazado_187136" data-name="Trazado 187136" d="M434.767,221.415a.532.532,0,0,1-.268-.125c-18.773-16.3-63.169-16.334-63.616-16.332a.538.538,0,1,1,0-1.075,184.778,184.778,0,0,1,24.888,2.005c12.476,1.868,29.45,5.92,39.436,14.591a.537.537,0,0,1-.437.937" transform="translate(-257.534 -172.436)" fill="#fff"/>
                  <path id="Trazado_187137" data-name="Trazado 187137" d="M219.42,316.13a.518.518,0,0,1-.118-.033.538.538,0,0,1-.3-.7c9.557-23.666-6.108-62.837-6.267-63.231a.537.537,0,1,1,1-.4,155.535,155.535,0,0,1,6.818,22.852c2.557,11.835,4.538,28.587-.549,41.185a.538.538,0,0,1-.581.33" transform="translate(-196.141 -190.951)" fill="#fff"/>
                  <path id="Trazado_187138" data-name="Trazado 187138" d="M260.171,308.409a.537.537,0,0,1,0-1.061,401.524,401.524,0,0,1,44.178-4.18c22.072-.824,51.974.265,69.09,10.131a.538.538,0,1,1-.537.931c-16.894-9.738-46.582-10.806-68.512-9.987a400.351,400.351,0,0,0-44.045,4.166.536.536,0,0,1-.171,0" transform="translate(-214.453 -211.015)" fill="#fff"/>
                </g>
              </g>
            </g>
          </g>
        </g>
        <g id="Grupo_121828" data-name="Grupo 121828" transform="translate(14.078 15.954)">
          <g id="Grupo_121827" data-name="Grupo 121827" clip-path="url(#clip-path-8)">
            <rect id="Rectángulo_38758" data-name="Rectángulo 38758" width="289.236" height="267.699" transform="matrix(0.591, -0.807, 0.807, 0.591, -119.271, 162.157)" fill="url(#linear-gradient)"/>
          </g>
        </g>
        <g id="Grupo_121830" data-name="Grupo 121830" transform="translate(67.945 210.128)">
          <g id="Grupo_121829" data-name="Grupo 121829" clip-path="url(#clip-path-9)">
            <rect id="Rectángulo_38759" data-name="Rectángulo 38759" width="47.236" height="66.223" transform="translate(-3.176 42.394) rotate(-85.715)" fill="url(#linear-gradient-2)"/>
          </g>
        </g>
        <g id="Grupo_121832" data-name="Grupo 121832" transform="translate(21.936 15.954)">
          <g id="Grupo_121831" data-name="Grupo 121831" clip-path="url(#clip-path-10)">
            <rect id="Rectángulo_38760" data-name="Rectángulo 38760" width="260.88" height="249.102" transform="matrix(0.612, -0.791, 0.791, 0.612, -103.892, 134.288)" fill="url(#linear-gradient-3)"/>
          </g>
        </g>
        <g id="Grupo_121834" data-name="Grupo 121834" transform="translate(31.661 24.202)">
          <g id="Grupo_121833" data-name="Grupo 121833" clip-path="url(#clip-path-11)">
            <rect id="Rectángulo_38761" data-name="Rectángulo 38761" width="143.045" height="204.5" transform="translate(-11.587 0.684) rotate(-3.376)" fill="url(#linear-gradient-4)"/>
          </g>
        </g>
        <g id="Grupo_121839" data-name="Grupo 121839">
          <g id="Grupo_121838" data-name="Grupo 121838" clip-path="url(#clip-path)">
            <g id="Grupo_121837" data-name="Grupo 121837" transform="translate(31.661 24.202)" opacity="0.5" style="mix-blend-mode: soft-light;isolation: isolate">
              <g id="Grupo_121836" data-name="Grupo 121836">
                <g id="Grupo_121835" data-name="Grupo 121835" clip-path="url(#clip-path-13)">
                  <path id="Trazado_187144" data-name="Trazado 187144" d="M180,223a5.856,5.856,0,0,1-1.713.394L57.76,236.363c-3.393.365-5.905-1.475-5.905-4.29V44.435c0-2.815,2.512-4.923,5.905-4.791l7.54.3c2.04,2.41,3.762,6.219,4.9,10.991,2.478,10.443-1.275,20.507-.642,30.81.771,12.539,15.439,16.187,24.626,22.475,6.8,4.655,13.887,11.876,17.017,19.179,3.427,8-.2,22.065-2.07,30.335-1.5,6.633-4.245,14.485.184,20.3,7.066,9.276,23.625,10.943,34.442,12.558,6.529.974,13.476,2.175,18.954,5.466,7.961,4.784,12.382,12.921,15.134,21.466.259.8,1.16,4.888,2.161,9.479" transform="translate(-51.855 -39.639)" fill="#fff"/>
                </g>
              </g>
            </g>
          </g>
        </g>
        <g id="Grupo_121841" data-name="Grupo 121841" transform="translate(52.233 244.14)">
          <g id="Grupo_121840" data-name="Grupo 121840" clip-path="url(#clip-path-14)">
            <rect id="Rectángulo_38764" data-name="Rectángulo 38764" width="54.432" height="94.997" transform="translate(-7.266 18.164) rotate(-68.199)" fill="url(#linear-gradient-5)"/>
          </g>
        </g>
        <g id="Grupo_121843" data-name="Grupo 121843" transform="translate(35.798 23.905)">
          <g id="Grupo_121842" data-name="Grupo 121842" clip-path="url(#clip-path-15)">
            <rect id="Rectángulo_38765" data-name="Rectángulo 38765" width="201.875" height="134.453" transform="translate(-7.016 197.217) rotate(-87.963)" fill="url(#linear-gradient-6)"/>
          </g>
        </g>
        <g id="Grupo_121848" data-name="Grupo 121848">
          <g id="Grupo_121847" data-name="Grupo 121847" clip-path="url(#clip-path)">
            <g id="Grupo_121846" data-name="Grupo 121846" transform="translate(36.985 32.25)" opacity="0.8">
              <g id="Grupo_121845" data-name="Grupo 121845">
                <g id="Grupo_121844" data-name="Grupo 121844" clip-path="url(#clip-path-17)">
                  <path id="Trazado_187147" data-name="Trazado 187147" d="M140.593,118.04l-76.078.55a3.906,3.906,0,0,1-3.94-3.839V56.542a3.742,3.742,0,0,1,3.911-3.721L140.559,55.7a3.8,3.8,0,0,1,3.539,3.778v54.893a3.633,3.633,0,0,1-3.506,3.671m-76.075-63.6A2.157,2.157,0,0,0,62.266,56.6v58.144a2.24,2.24,0,0,0,2.252,2.224l76.113-.465a2.174,2.174,0,0,0,2.115-2.125V59.423a2.255,2.255,0,0,0-2.115-2.187Z" transform="translate(-60.575 -52.819)" fill="#e2dfcf"/>
                  <path id="Trazado_187148" data-name="Trazado 187148" d="M236.207,59.908l-20.032-.752a2.705,2.705,0,0,0-2.742,2.757v54.493a2.807,2.807,0,0,0,2.74,2.842l20-.128a2.752,2.752,0,0,0,2.622-2.821V62.811a2.83,2.83,0,0,0-2.588-2.9" transform="translate(-120.103 -55.286)" fill="#e2dfcf"/>
                  <path id="Trazado_187149" data-name="Trazado 187149" d="M93.791,179.759l-28.346.438a3.254,3.254,0,0,0-3.21,3.1v35.384a3.026,3.026,0,0,0,3.2,2.917l28.279-1.238a3.2,3.2,0,0,0,3.014-3.107V182.693a2.911,2.911,0,0,0-2.936-2.934" transform="translate(-61.222 -102.253)" fill="#e2dfcf"/>
                  <path id="Trazado_187150" data-name="Trazado 187150" d="M165.6,178.658l-26.392.412a2.882,2.882,0,0,0-2.757,3v34.3a2.722,2.722,0,0,0,2.809,2.832l26.364-1.165a2.868,2.868,0,0,0,2.613-3.011V181.5a2.682,2.682,0,0,0-2.637-2.846" transform="translate(-90.123 -101.825)" fill="#e2dfcf"/>
                  <path id="Trazado_187151" data-name="Trazado 187151" d="M233.187,177.626l-24.886.39a2.785,2.785,0,0,0-2.622,2.912V214.2a2.586,2.586,0,0,0,2.62,2.749l24.922-1.1a2.825,2.825,0,0,0,2.553-2.92V180.391a2.654,2.654,0,0,0-2.588-2.765" transform="translate(-117.083 -101.423)" fill="#e2dfcf"/>
                  <path id="Trazado_187152" data-name="Trazado 187152" d="M93.791,269.064l-28.346,1.513a3.4,3.4,0,0,0-3.21,3.213v35.384a2.9,2.9,0,0,0,3.2,2.8l28.279-2.313a3.347,3.347,0,0,0,3.014-3.218V271.887a2.782,2.782,0,0,0-2.936-2.823" transform="translate(-61.222 -137.03)" fill="#e2dfcf"/>
                  <path id="Trazado_187153" data-name="Trazado 187153" d="M165.6,265.279,139.207,266.7a3.021,3.021,0,0,0-2.757,3.11v34.3a2.6,2.6,0,0,0,2.809,2.722l26.364-2.175a3.008,3.008,0,0,0,2.613-3.115v-33.52a2.561,2.561,0,0,0-2.637-2.742" transform="translate(-90.123 -135.556)" fill="#e2dfcf"/>
                  <path id="Trazado_187154" data-name="Trazado 187154" d="M233.187,261.715,208.3,263.056a2.918,2.918,0,0,0-2.622,3.014v33.273a2.472,2.472,0,0,0,2.62,2.647l24.922-2.048a2.96,2.96,0,0,0,2.553-3.017V264.382a2.536,2.536,0,0,0-2.588-2.667" transform="translate(-117.083 -134.168)" fill="#e2dfcf"/>
                  <path id="Trazado_187155" data-name="Trazado 187155" d="M125.469,103.6l-24.862-.173a1.9,1.9,0,0,1-1.775-1.277L88.048,71.765a1.469,1.469,0,0,0-1.379-.957l-8.733-.258a2.082,2.082,0,0,1-1.949-2.08,1.931,1.931,0,0,1,1.949-1.959l8.733.282a5.467,5.467,0,0,1,4.977,3.629l10.28,29.04,23.542.23a1.93,1.93,0,0,1,1.818,1.968,1.892,1.892,0,0,1-1.818,1.939" transform="translate(-66.577 -58.151)" fill="#e2dfcf"/>
                  <path id="Trazado_187156" data-name="Trazado 187156" d="M123.429,136.063a4.753,4.753,0,1,1-4.736-4.883,4.806,4.806,0,0,1,4.736,4.883" transform="translate(-81.351 -83.335)" fill="#e2dfcf"/>
                  <path id="Trazado_187157" data-name="Trazado 187157" d="M155.972,136.164a4.624,4.624,0,1,1-4.6-4.816,4.708,4.708,0,0,1,4.6,4.816" transform="translate(-94.127 -83.401)" fill="#e2dfcf"/>
                  <path id="Trazado_187158" data-name="Trazado 187158" d="M139.585,84.669a3.264,3.264,0,0,0-2.58-1.444l-34.939-.9L108.716,102l24.553.3a3.248,3.248,0,0,0,3.064-2.37L140.053,87.7a3.592,3.592,0,0,0-.468-3.031" transform="translate(-76.733 -64.308)" fill="#e2dfcf"/>
                </g>
              </g>
            </g>
          </g>
        </g>
        <g id="Grupo_121850" data-name="Grupo 121850" transform="translate(192.659 123.617)">
          <g id="Grupo_121849" data-name="Grupo 121849" clip-path="url(#clip-path-18)">
            <rect id="Rectángulo_38768" data-name="Rectángulo 38768" width="54.467" height="50.537" transform="translate(-10.822 43.29) rotate(-75.964)" fill="url(#linear-gradient-7)"/>
          </g>
        </g>
        <g id="Grupo_121852" data-name="Grupo 121852" transform="translate(220.403 263.775)">
          <g id="Grupo_121851" data-name="Grupo 121851" clip-path="url(#clip-path-19)">
            <rect id="Rectángulo_38769" data-name="Rectángulo 38769" width="5.401" height="5.978" transform="translate(-1.552 2.131) rotate(-56.394)" fill="url(#linear-gradient-8)"/>
          </g>
        </g>
        <g id="Grupo_121854" data-name="Grupo 121854" transform="translate(221.905 258.616)">
          <g id="Grupo_121853" data-name="Grupo 121853" clip-path="url(#clip-path-20)">
            <rect id="Rectángulo_38770" data-name="Rectángulo 38770" width="4.591" height="6.868" transform="translate(-0.888 0.126) rotate(-8.047)" fill="url(#linear-gradient-9)"/>
          </g>
        </g>
        <g id="Grupo_121856" data-name="Grupo 121856" transform="translate(222.772 264.355)">
          <g id="Grupo_121855" data-name="Grupo 121855" clip-path="url(#clip-path-21)">
            <rect id="Rectángulo_38771" data-name="Rectángulo 38771" width="4.444" height="4.92" transform="matrix(0.553, -0.833, 0.833, 0.553, -1.295, 1.752)" fill="url(#linear-gradient-10)"/>
          </g>
        </g>
        <g id="Grupo_121858" data-name="Grupo 121858" transform="translate(184.867 266.982)">
          <g id="Grupo_121857" data-name="Grupo 121857" clip-path="url(#clip-path-22)">
            <rect id="Rectángulo_38772" data-name="Rectángulo 38772" width="5.889" height="6.017" transform="matrix(0.665, -0.747, 0.747, 0.665, -1.941, 1.921)" fill="url(#linear-gradient-11)"/>
          </g>
        </g>
        <g id="Grupo_121860" data-name="Grupo 121860" transform="translate(187.136 262.194)">
          <g id="Grupo_121859" data-name="Grupo 121859" clip-path="url(#clip-path-23)">
            <rect id="Rectángulo_38773" data-name="Rectángulo 38773" width="2.934" height="6.121" transform="translate(0)" fill="url(#linear-gradient-12)"/>
          </g>
        </g>
        <g id="Grupo_121862" data-name="Grupo 121862" transform="translate(175.765 167.31)">
          <g id="Grupo_121861" data-name="Grupo 121861" clip-path="url(#clip-path-24)">
            <rect id="Rectángulo_38774" data-name="Rectángulo 38774" width="107.238" height="73.916" transform="translate(-25.095 91.964) rotate(-76.089)" fill="url(#linear-gradient-13)"/>
          </g>
        </g>
        <g id="Grupo_121864" data-name="Grupo 121864" transform="translate(177.829 121.256)">
          <g id="Grupo_121863" data-name="Grupo 121863" clip-path="url(#clip-path-25)">
            <rect id="Rectángulo_38775" data-name="Rectángulo 38775" width="68.648" height="72.072" transform="translate(-27.337 18.71) rotate(-34.817)" fill="url(#linear-gradient-14)"/>
          </g>
        </g>
        <g id="Grupo_121866" data-name="Grupo 121866" transform="translate(187.169 267.91)">
          <g id="Grupo_121865" data-name="Grupo 121865" clip-path="url(#clip-path-26)">
            <rect id="Rectángulo_38776" data-name="Rectángulo 38776" width="4.704" height="4.802" transform="translate(-1.523 1.55) rotate(-48.347)" fill="url(#linear-gradient-15)"/>
          </g>
        </g>
        <g id="Grupo_121868" data-name="Grupo 121868" transform="translate(190.659 107.236)">
          <g id="Grupo_121867" data-name="Grupo 121867" clip-path="url(#clip-path-27)">
            <rect id="Rectángulo_38777" data-name="Rectángulo 38777" width="27.369" height="27.113" transform="matrix(0.824, -0.566, 0.566, 0.824, -9.024, 6.12)" fill="url(#linear-gradient-16)"/>
          </g>
        </g>
        <g id="Grupo_121870" data-name="Grupo 121870">
          <g id="Grupo_121869" data-name="Grupo 121869" clip-path="url(#clip-path)">
            <path id="Trazado_187169" data-name="Trazado 187169" d="M316.013,170.194a6.736,6.736,0,0,0,2.02,3.7,2.968,2.968,0,0,1,.772.573.907.907,0,0,1,.14.189c.6,1.036-.912,2.682-.476,3.113.317.313,1.423-.4,1.626-.117.191.267-.689,1.066-.468,1.388.166.242.733-.118,1.2.213.231.165.206.336.529.914a5.723,5.723,0,0,0,.585.867c.808.916,2.605.961,2.857.484.07-.133-.028-.215-.009-.62a3.146,3.146,0,0,1,.188-.838,8.155,8.155,0,0,1,1.769-2.044,5.815,5.815,0,0,0,1.7-2.9c.024-.128.035-.223.044-.291a6.672,6.672,0,0,0-1.009-4.346c-1.357-1.776-3.383-.417-5.563-2.015-2.516-1.843-1.868-5.152-3.064-5.273-1.318-.133-3.477,3.748-2.838,7" transform="translate(-123.021 -63.551)" fill="#193540"/>
          </g>
        </g>
        <g id="Grupo_121872" data-name="Grupo 121872" transform="translate(195.635 113.342)">
          <g id="Grupo_121871" data-name="Grupo 121871" clip-path="url(#clip-path-29)">
            <rect id="Rectángulo_38779" data-name="Rectángulo 38779" width="3.167" height="3.286" transform="translate(-1.425 0.818) rotate(-34.482)" fill="url(#linear-gradient-17)"/>
          </g>
        </g>
        <g id="Grupo_121874" data-name="Grupo 121874" transform="translate(213.745 145.084)">
          <g id="Grupo_121873" data-name="Grupo 121873" clip-path="url(#clip-path-30)">
            <rect id="Rectángulo_38780" data-name="Rectángulo 38780" width="5.325" height="22.463" transform="translate(-0.348)" fill="url(#linear-gradient-18)"/>
          </g>
        </g>
        <g id="Grupo_121881" data-name="Grupo 121881">
          <g id="Grupo_121880" data-name="Grupo 121880" clip-path="url(#clip-path)">
            <g id="Grupo_121879" data-name="Grupo 121879" transform="translate(177.829 150.569)" opacity="0.4" style="mix-blend-mode: multiply;isolation: isolate">
              <g id="Grupo_121878" data-name="Grupo 121878">
                <g id="Grupo_121877" data-name="Grupo 121877" clip-path="url(#clip-path-32)">
                  <g id="Grupo_121876" data-name="Grupo 121876" transform="translate(0 0)">
                    <g id="Grupo_121875" data-name="Grupo 121875" clip-path="url(#clip-path-33)">
                      <rect id="Rectángulo_38781" data-name="Rectángulo 38781" width="37.749" height="28.648" transform="translate(-0.434 -0.567)" fill="url(#linear-gradient-19)"/>
                    </g>
                  </g>
                </g>
              </g>
            </g>
          </g>
        </g>
        <g id="Grupo_121883" data-name="Grupo 121883" transform="translate(139.931 123.617)">
          <g id="Grupo_121882" data-name="Grupo 121882" clip-path="url(#clip-path-34)">
            <rect id="Rectángulo_38784" data-name="Rectángulo 38784" width="14.854" height="15.015" transform="matrix(0.819, -0.574, 0.574, 0.819, -5.222, 3.639)" fill="url(#linear-gradient-20)"/>
          </g>
        </g>
        <g id="Grupo_121885" data-name="Grupo 121885" transform="translate(145.9 123.772)">
          <g id="Grupo_121884" data-name="Grupo 121884" clip-path="url(#clip-path-35)">
            <rect id="Rectángulo_38785" data-name="Rectángulo 38785" width="60.843" height="58.277" transform="translate(-16.65 13.331) rotate(-38.683)" fill="url(#linear-gradient-21)"/>
          </g>
        </g>
        <g id="Grupo_121887" data-name="Grupo 121887" transform="translate(149.386 8.157)">
          <g id="Grupo_121886" data-name="Grupo 121886" clip-path="url(#clip-path-36)">
            <rect id="Rectángulo_38786" data-name="Rectángulo 38786" width="109.425" height="115.832" transform="matrix(0.475, -0.88, 0.88, 0.475, -31.429, 58.291)" fill="url(#linear-gradient-22)"/>
          </g>
        </g>
        <g id="Grupo_121889" data-name="Grupo 121889" transform="translate(149.386 8.157)">
          <g id="Grupo_121888" data-name="Grupo 121888" clip-path="url(#clip-path-36)">
            <rect id="Rectángulo_38787" data-name="Rectángulo 38787" width="112.376" height="103.529" transform="matrix(0.929, -0.369, 0.369, 0.929, -25.814, 10.255)" fill="url(#linear-gradient-23)"/>
          </g>
        </g>
        <g id="Grupo_121891" data-name="Grupo 121891" transform="translate(148.906 60.905)">
          <g id="Grupo_121890" data-name="Grupo 121890" clip-path="url(#clip-path-38)">
            <rect id="Rectángulo_38788" data-name="Rectángulo 38788" width="33.935" height="33.98" transform="translate(-8.986 3.57) rotate(-21.666)" fill="url(#linear-gradient-24)"/>
          </g>
        </g>
        <g id="Grupo_121893" data-name="Grupo 121893" transform="translate(146.182 4.756)">
          <g id="Grupo_121892" data-name="Grupo 121892" clip-path="url(#clip-path-39)">
            <rect id="Rectángulo_38789" data-name="Rectángulo 38789" width="109.425" height="115.832" transform="matrix(0.475, -0.88, 0.88, 0.475, -31.429, 58.291)" fill="url(#linear-gradient-25)"/>
          </g>
        </g>
        <g id="Grupo_121895" data-name="Grupo 121895" transform="translate(146.182 4.756)">
          <g id="Grupo_121894" data-name="Grupo 121894" clip-path="url(#clip-path-39)">
            <rect id="Rectángulo_38790" data-name="Rectángulo 38790" width="109.425" height="115.832" transform="matrix(0.475, -0.88, 0.88, 0.475, -31.429, 58.291)" fill="url(#linear-gradient-26)"/>
          </g>
        </g>
        <g id="Grupo_121897" data-name="Grupo 121897" transform="translate(148.906 57.506)">
          <g id="Grupo_121896" data-name="Grupo 121896" clip-path="url(#clip-path-41)">
            <rect id="Rectángulo_38791" data-name="Rectángulo 38791" width="35.534" height="34.71" transform="matrix(0.605, -0.796, 0.796, 0.605, -13.115, 17.251)" fill="url(#linear-gradient-27)"/>
          </g>
        </g>
        <g id="Grupo_121904" data-name="Grupo 121904">
          <g id="Grupo_121903" data-name="Grupo 121903" clip-path="url(#clip-path)">
            <path id="Trazado_187181" data-name="Trazado 187181" d="M299.968,54.645l-1.567,5.4s7.43-2.089,7.43-.813c0,.794-2.871,12.8-5.044,21.778a6.607,6.607,0,0,0,7.783,8.019c3.975-.841,7.705-1.876,8.174-2.864a22.384,22.384,0,0,1,1.625-5.34s-8.126,2.786-8.126.929c0-1.141,2.713-12.653,4.808-21.37a6.607,6.607,0,0,0-7.823-8c-3.2.7-6.176,1.5-7.259,2.263" transform="translate(-116.207 -20.341)" fill="#fff"/>
            <path id="Trazado_187182" data-name="Trazado 187182" d="M322.688,30.239a6.6,6.6,0,1,1-6.6-6.6,6.6,6.6,0,0,1,6.6,6.6" transform="translate(-120.526 -9.207)" fill="#fff"/>
            <g id="Grupo_121902" data-name="Grupo 121902" transform="translate(174.767 18.913)" opacity="0.3" style="mix-blend-mode: multiply;isolation: isolate">
              <g id="Grupo_121901" data-name="Grupo 121901">
                <g id="Grupo_121900" data-name="Grupo 121900" clip-path="url(#clip-path-43)">
                  <g id="Grupo_121899" data-name="Grupo 121899" transform="translate(0 0)">
                    <g id="Grupo_121898" data-name="Grupo 121898" clip-path="url(#clip-path-44)">
                      <rect id="Rectángulo_38792" data-name="Rectángulo 38792" width="82.519" height="83.133" transform="matrix(0.446, -0.895, 0.895, 0.446, -24.382, 48.929)" fill="url(#linear-gradient-28)"/>
                    </g>
                  </g>
                </g>
              </g>
            </g>
          </g>
        </g>
        <g id="Grupo_121906" data-name="Grupo 121906" transform="translate(3.887 202.044)">
          <g id="Grupo_121905" data-name="Grupo 121905" clip-path="url(#clip-path-45)">
            <rect id="Rectángulo_38795" data-name="Rectángulo 38795" width="92.187" height="92.258" transform="translate(-29.063 50.973) rotate(-60.326)" fill="url(#linear-gradient-29)"/>
          </g>
        </g>
        <g id="Grupo_121908" data-name="Grupo 121908" transform="translate(6.848 201.861)">
          <g id="Grupo_121907" data-name="Grupo 121907" clip-path="url(#clip-path-46)">
            <rect id="Rectángulo_38796" data-name="Rectángulo 38796" width="67.711" height="67.522" transform="translate(-0.019)" fill="url(#linear-gradient-30)"/>
          </g>
        </g>
      </g>
    </g>
    <rect id="Rectángulo_38866" data-name="Rectángulo 38866" width="395" height="292" transform="translate(-19378 -7195)" fill="none"/>
  </g>
</svg>
