<svg id="Grupo_121641" data-name="Grupo 121641" xmlns="http://www.w3.org/2000/svg" xmlns:xlink="http://www.w3.org/1999/xlink" width="293.423" height="301.853" viewBox="0 0 293.423 301.853">
  <defs>
    <clipPath id="clip-path">
      <rect id="Rectángulo_38504" data-name="Rectángulo 38504" width="293.423" height="301.853" fill="none"/>
    </clipPath>
    <clipPath id="clip-path-3">
      <path id="Trazado_183554" data-name="Trazado 183554" d="M181.048,67.72a32.8,32.8,0,0,1,25.429-38.357A32.256,32.256,0,0,1,244.456,54.79,32.785,32.785,0,0,1,219.1,93.5,32.117,32.117,0,0,1,181.048,67.72M206.535,2.015,195.8,4.2a3.206,3.206,0,0,0-2.5,3.749l1.232,6.3a49.987,49.987,0,0,0-7.828,3.911L182.5,13.339a3.155,3.155,0,0,0-4.471-.275l-8.275,7.293a3.215,3.215,0,0,0-.325,4.508l4.242,4.9a51.431,51.431,0,0,0-4.866,7.312l-6.142-2.089a3.208,3.208,0,0,0-4.047,2.021l-3.625,10.52a3.193,3.193,0,0,0,1.953,4.079L163.1,53.71a51.19,51.19,0,0,0-.617,8.8l-6.449,1.315a3.28,3.28,0,0,0-2.543,3.814l2.049,10.989a3.163,3.163,0,0,0,3.739,2.548l6.467-1.319a50.8,50.8,0,0,0,3.789,7.98l-4.973,4.421a3.318,3.318,0,0,0-.333,4.614l7.254,8.5a3.166,3.166,0,0,0,4.536.3L181,101.238a50.467,50.467,0,0,0,7.285,4.988l-2.14,6.361a3.294,3.294,0,0,0,2,4.175l10.542,3.654a3.221,3.221,0,0,0,4.1-2.068l2.106-6.31a49.434,49.434,0,0,0,8.843.587l1.275,6.533a3.236,3.236,0,0,0,3.8,2.592l10.952-2.233a3.291,3.291,0,0,0,2.529-3.884l-1.284-6.477A49.955,49.955,0,0,0,239,105.168l4.267,4.924a3.193,3.193,0,0,0,4.565.3l8.346-7.506a3.321,3.321,0,0,0,.266-4.637l-4.252-4.883a51.51,51.51,0,0,0,4.919-7.535l6.054,2.07a3.2,3.2,0,0,0,4.074-2.055l3.479-10.688a3.289,3.289,0,0,0-2.052-4.127l-6-2.039a51.138,51.138,0,0,0,.494-9l6.186-1.262a3.213,3.213,0,0,0,2.486-3.817l-2.266-10.945a3.226,3.226,0,0,0-3.789-2.522l-6.167,1.258a50.783,50.783,0,0,0-3.974-8.009l4.684-4.176a3.218,3.218,0,0,0,.259-4.53L253.259,17.7a3.179,3.179,0,0,0-4.5-.277l-4.714,4.19a50.448,50.448,0,0,0-7.361-4.877l2-6a3.188,3.188,0,0,0-2-4.033l-10.4-3.485a3.179,3.179,0,0,0-4.021,2.007l-2.023,6.014a49.4,49.4,0,0,0-8.744-.5L210.26,4.495a3.153,3.153,0,0,0-3.089-2.544,3.214,3.214,0,0,0-.636.064" fill="none"/>
    </clipPath>
    <linearGradient id="linear-gradient" x1="-0.761" y1="1.921" x2="-0.755" y2="1.921" gradientUnits="objectBoundingBox">
      <stop offset="0" stop-color="#899eaa"/>
      <stop offset="0.996" stop-color="#5f7884"/>
      <stop offset="1" stop-color="#5f7884"/>
    </linearGradient>
    <clipPath id="clip-path-4">
      <path id="Trazado_183555" data-name="Trazado 183555" d="M183.33,65.77a32.8,32.8,0,0,1,25.429-38.358,32.257,32.257,0,0,1,37.978,25.427,32.785,32.785,0,0,1-25.359,38.707A32.112,32.112,0,0,1,183.33,65.77M208.815.065,198.08,2.254A3.205,3.205,0,0,0,195.579,6l1.231,6.3a50.016,50.016,0,0,0-7.827,3.91l-4.205-4.827a3.155,3.155,0,0,0-4.471-.277l-8.276,7.294a3.216,3.216,0,0,0-.325,4.508l4.242,4.9a51.511,51.511,0,0,0-4.865,7.312l-6.143-2.088a3.206,3.206,0,0,0-4.046,2.019l-3.625,10.52a3.192,3.192,0,0,0,1.953,4.079l6.164,2.106a51.294,51.294,0,0,0-.618,8.8l-6.448,1.315a3.281,3.281,0,0,0-2.544,3.813l2.05,10.989a3.161,3.161,0,0,0,3.738,2.549l6.469-1.319a50.711,50.711,0,0,0,3.788,7.98l-4.974,4.421a3.319,3.319,0,0,0-.333,4.614l7.254,8.5a3.167,3.167,0,0,0,4.537.3l4.973-4.434a50.433,50.433,0,0,0,7.284,4.988l-2.14,6.36a3.3,3.3,0,0,0,2,4.175l10.543,3.654a3.22,3.22,0,0,0,4.1-2.067l2.106-6.311a49.457,49.457,0,0,0,8.845.588l1.275,6.533a3.236,3.236,0,0,0,3.8,2.592l10.952-2.234a3.29,3.29,0,0,0,2.53-3.883l-1.284-6.477a50.008,50.008,0,0,0,7.994-3.988l4.266,4.923a3.192,3.192,0,0,0,4.565.3l8.347-7.506a3.321,3.321,0,0,0,.265-4.637l-4.252-4.883a51.423,51.423,0,0,0,4.918-7.535l6.055,2.069a3.194,3.194,0,0,0,4.074-2.055L273,73.208a3.29,3.29,0,0,0-2.052-4.127l-6-2.04a51.315,51.315,0,0,0,.494-9l6.186-1.262a3.213,3.213,0,0,0,2.485-3.818l-2.265-10.944a3.225,3.225,0,0,0-3.79-2.522l-6.167,1.258a50.609,50.609,0,0,0-3.974-8.009l4.685-4.176a3.221,3.221,0,0,0,.259-4.531l-7.325-8.286a3.179,3.179,0,0,0-4.5-.277l-4.714,4.189a50.453,50.453,0,0,0-7.36-4.875l2-6a3.189,3.189,0,0,0-2.006-4.033l-10.4-3.486a3.18,3.18,0,0,0-4.022,2.007l-2.023,6.014a49.379,49.379,0,0,0-8.743-.5l-1.24-6.25A3.147,3.147,0,0,0,208.815.065" fill="none"/>
    </clipPath>
    <linearGradient id="linear-gradient-2" x1="-0.807" y1="1.974" x2="-0.801" y2="1.974" xlink:href="#linear-gradient"/>
    <clipPath id="clip-path-5">
      <path id="Trazado_183556" data-name="Trazado 183556" d="M6.452,48.555C.095,55.892-1.894,68.347,1.97,77.974c6.637,16.538,26.614,14.945,33.4,33.281,3.326,8.994-1.061,10.516,2.676,19.542,6.832,16.5,22.592,14.068,27.6,27.885,4.576,12.619-6.651,19.944-.765,32.974,3.393,7.511,7.951,6.907,15.874,16.7,9.4,11.626,9.74,20.833,13.035,26.632,5.668,9.974,24.863,18.282,87.282,7.564-44.766-8.9-56.411-20.195-57.885-29.442-1.373-8.612,5.584-18.527-.386-28.873-3.63-6.291-7.468-4.819-11.1-10.3-9.381-14.153,10.089-33.251,1.881-45.828-6.058-9.281-19.85-3.764-25.942-14.212-4.317-7.406.923-13.078-.055-25.241C85.961,68.5,69.22,54.887,67,53.129c-10.132-8.007-24.83-13.258-37.823-13.258-9.149,0-17.453,2.6-22.721,8.684" fill="none"/>
    </clipPath>
    <linearGradient id="linear-gradient-3" x1="0.179" y1="1.075" x2="0.182" y2="1.075" gradientUnits="objectBoundingBox">
      <stop offset="0" stop-color="#bcb19a"/>
      <stop offset="0.004" stop-color="#bcb19a"/>
      <stop offset="1" stop-color="#899eaa"/>
    </linearGradient>
    <clipPath id="clip-path-7">
      <rect id="Rectángulo_38464" data-name="Rectángulo 38464" width="174.796" height="205.135" transform="translate(6.272 39.871)" fill="none"/>
    </clipPath>
    <clipPath id="clip-path-8">
      <path id="Trazado_183558" data-name="Trazado 183558" d="M85.072,6.283c-4.037.285-27.6,1.951-33.434,15.765-5.915,14,8.207,36.178,22.654,47.929C84.764,78.494,93.54,80.017,94,86.723c.624,9.041-14.906,12.346-16.38,25.519-.779,6.965,2.793,12.915,6.307,18.768,7.964,13.265,15.731,12.771,16.87,20.121,1.559,10.058-12.489,14.167-15.608,29.216-2.222,10.722,2.541,20.066,5.225,25.331,10.461,20.525,38.639,32.279,71.464,31.641-20.349-5.176-26.128-11.449-27.021-16.716-1.462-8.62,10.265-13.931,8.7-23.754-1.809-11.316-18.875-13.663-18.349-21.1.568-8.041,20.661-7.466,24.807-19.042,3.759-10.494-10.734-16.6-10.623-31.843.133-18.2,20.887-22.469,24.535-43.186,2.49-14.146-4.719-26.172-10.376-35.609C141.418,25.836,117.1,6.137,89.229,6.136q-2.067,0-4.157.147" fill="none"/>
    </clipPath>
    <linearGradient id="linear-gradient-4" x1="-0.219" y1="1.235" x2="-0.212" y2="1.235" gradientUnits="objectBoundingBox">
      <stop offset="0" stop-color="#fccb7d"/>
      <stop offset="0.996" stop-color="#b27953"/>
      <stop offset="1" stop-color="#b27953"/>
    </linearGradient>
    <clipPath id="clip-path-9">
      <path id="Trazado_183560" data-name="Trazado 183560" d="M85.072,6.283c-4.037.285-27.6,1.951-33.434,15.765-5.915,14,8.207,36.178,22.654,47.929C84.764,78.494,93.54,80.017,94,86.723c.624,9.041-14.906,12.346-16.38,25.519-.779,6.965,2.793,12.915,6.307,18.768,7.964,13.265,15.731,12.771,16.87,20.121,1.559,10.058-12.489,14.167-15.608,29.216-2.222,10.722,2.541,20.066,5.225,25.331,10.461,20.525,38.639,32.279,71.464,31.641-20.349-5.176-26.128-11.449-27.021-16.716-1.462-8.62,10.265-13.931,8.7-23.754-1.809-11.316-18.875-13.663-18.349-21.1.568-8.041,20.661-7.466,24.807-19.042,3.759-10.494-10.733-16.6-10.623-31.843.133-18.2,20.887-22.469,24.535-43.186,2.49-14.146-4.719-26.172-10.376-35.609C141.418,25.836,117.1,6.137,89.229,6.136q-2.067,0-4.157.147" fill="none"/>
    </clipPath>
    <clipPath id="clip-path-10">
      <rect id="Rectángulo_38467" data-name="Rectángulo 38467" width="134.135" height="227.253" transform="translate(44.133 15.033)" fill="none"/>
    </clipPath>
    <clipPath id="clip-path-11">
      <path id="Trazado_183561" data-name="Trazado 183561" d="M33.662,137.985c-1.521.933-15.507,9.817-16.595,25.442-.992,14.248,9.281,26.362,17.82,32.093,10.054,6.749,20.166,6.3,21.2,12.181.756,4.3-4.322,6.424-4.887,13.3-.543,6.615,3.554,11.97,5.1,14,12.613,16.486,49.316,12.241,70.652,6.145a124.436,124.436,0,0,0,23.283-9.279c-2.142.7-26.313,8.3-37.116-1.762a54.33,54.33,0,0,1-7.934-9.986c-4.154-6.635-3.394-8.49-6.053-11.88-6.219-7.935-14.9-3.547-20.014-9.493-5.618-6.531,2.181-14.919.95-33.567-.544-8.241-1.37-20.73-10.183-27.817-4.484-3.606-10.178-5.124-16.028-5.124a39.875,39.875,0,0,0-20.2,5.749" fill="none"/>
    </clipPath>
    <linearGradient id="linear-gradient-5" x1="-0.125" y1="1.252" x2="-0.117" y2="1.252" gradientUnits="objectBoundingBox">
      <stop offset="0" stop-color="#d2b569"/>
      <stop offset="1" stop-color="#b27953"/>
    </linearGradient>
    <clipPath id="clip-path-13">
      <rect id="Rectángulo_38469" data-name="Rectángulo 38469" width="120.431" height="111.587" transform="translate(31.348 126.471)" fill="none"/>
    </clipPath>
    <clipPath id="clip-path-14">
      <path id="Trazado_183564" data-name="Trazado 183564" d="M44.84,46.278V293.715c0,4.18,2.87,7.261,6.786,6.866L209.2,284.687c3.269-.33,5.964-3.675,5.964-7.474V52.3c0-3.8-2.788-6.982-6.056-7.111l-157.347-6.2c-.09,0-.179-.005-.267-.005-3.785,0-6.657,3.208-6.657,7.292" fill="none"/>
    </clipPath>
    <linearGradient id="linear-gradient-6" x1="0.018" y1="1.224" x2="0.021" y2="1.224" gradientUnits="objectBoundingBox">
      <stop offset="0" stop-color="#405d64"/>
      <stop offset="0.996" stop-color="#193540"/>
      <stop offset="1" stop-color="#193540"/>
    </linearGradient>
    <clipPath id="clip-path-15">
      <path id="Trazado_183565" data-name="Trazado 183565" d="M49.322,46.278V293.715c0,4.18,2.923,7.261,6.839,6.866l157.364-15.894c3.269-.33,5.75-3.675,5.75-7.474V52.3c0-3.8-2.548-6.982-5.817-7.111l-157.279-6.2c-.089,0-.179-.005-.267-.005-3.782,0-6.59,3.208-6.59,7.292" fill="none"/>
    </clipPath>
    <linearGradient id="linear-gradient-7" x1="0.002" y1="1.225" x2="0.005" y2="1.225" xlink:href="#linear-gradient-6"/>
    <clipPath id="clip-path-16">
      <path id="Trazado_183566" data-name="Trazado 183566" d="M59.8,60.41a3.754,3.754,0,0,0-.728.509,3.84,3.84,0,0,0-1.158,2.959V276.317a4,4,0,0,0,1.872,3.546,2.986,2.986,0,0,0,1.7.34l10.733-.968,136.727-12.341c1.739-.155,3.236-2.124,3.236-4.142V67.9a3.573,3.573,0,0,0-3.22-3.716L72.2,60.332l-10.789-.3h-.113a2.958,2.958,0,0,0-1.5.382" fill="none"/>
    </clipPath>
    <linearGradient id="linear-gradient-8" x1="-0.095" y1="1.302" x2="-0.09" y2="1.302" gradientUnits="objectBoundingBox">
      <stop offset="0" stop-color="#e2dfcf"/>
      <stop offset="0.494" stop-color="#e2dfcf"/>
      <stop offset="1" stop-color="#fff"/>
    </linearGradient>
    <clipPath id="clip-path-18">
      <rect id="Rectángulo_38473" data-name="Rectángulo 38473" width="148.287" height="219.298" transform="translate(57.913 60.908)" fill="none"/>
    </clipPath>
    <clipPath id="clip-path-19">
      <path id="Trazado_183587" data-name="Trazado 183587" d="M64.308,60.088a.455.455,0,0,0-.419.453v59.1l8.031-8.859,8.031,6.686v-56.9A.457.457,0,0,0,79.5,60.1l-12.96-.072-.654,0h-.109c-.581,0-.976.021-1.467.062" fill="none"/>
    </clipPath>
    <linearGradient id="linear-gradient-9" x1="-3.978" y1="4.057" x2="-3.915" y2="4.057" xlink:href="#linear-gradient-5"/>
    <clipPath id="clip-path-21">
      <rect id="Rectángulo_38477" data-name="Rectángulo 38477" width="16.062" height="59.611" transform="translate(63.889 60.026)" fill="none"/>
    </clipPath>
    <clipPath id="clip-path-22">
      <path id="Trazado_183588" data-name="Trazado 183588" d="M72.977,100.614c-9.461-3.362-4.729-21.915-3.858-30.256A14.979,14.979,0,0,0,66.538,60.03l-.654,0c-.642,0-1.055.017-1.576.06a.457.457,0,0,0-.419.455v59.1l8.031-8.86,8.031,6.686v-8.815c-1.33-3.608-3.5-6.8-6.974-8.034" fill="none"/>
    </clipPath>
    <linearGradient id="linear-gradient-10" x1="-3.865" y1="4.057" x2="-3.804" y2="4.057" xlink:href="#linear-gradient-5"/>
    <clipPath id="clip-path-23">
      <path id="Trazado_183589" data-name="Trazado 183589" d="M149.454,279.464l-20.543,1.406a2.453,2.453,0,0,0-2.269,2.4,2.073,2.073,0,0,0,2.269,2.08l20.543-1.456a2.413,2.413,0,0,0,2.214-2.368,2.036,2.036,0,0,0-2.06-2.065c-.051,0-.1,0-.154.006" fill="none"/>
    </clipPath>
    <linearGradient id="linear-gradient-11" x1="-19.506" y1="1.269" x2="-19.362" y2="1.269" xlink:href="#linear-gradient-6"/>
    <clipPath id="clip-path-25">
      <path id="Trazado_183608" data-name="Trazado 183608" d="M264.971,134.211c-2.976,3.257-2.177,8.252-2.025,10.531.2,3.049,2.993,6.093,2.182,11.037-.237,1.452-.5,3.078-1.845,4.206-1.388,1.169-3.03,1.05-4.974.932a15.487,15.487,0,0,0-4.876.267c-1.717.423-4.931,1.1-7.292,3.948l-1.935,5.14a15,15,0,0,0,3.122,5.931c7.342,8.366,25.842,8.614,35.449-1.394,8.567-8.924,6.3-21.558,6.07-22.746-2.895-14.7-16.984-20.307-17.908-20.657a9.61,9.61,0,0,0-5.968,2.8" fill="none"/>
    </clipPath>
    <linearGradient id="linear-gradient-12" x1="-3.943" y1="3.11" x2="-3.927" y2="3.11" xlink:href="#linear-gradient-5"/>
    <clipPath id="clip-path-26">
      <path id="Trazado_183609" data-name="Trazado 183609" d="M276.429,295.283c-.164.9,3.238,2.444,5.207,2.421.594-.007-.026-.359.125-.56.417-.551-.079-1.772-.8-2.374a3.015,3.015,0,0,0-1.943-.61c-1.254,0-2.488.544-2.592,1.123" fill="none"/>
    </clipPath>
    <linearGradient id="linear-gradient-13" x1="-44.021" y1="1.346" x2="-43.861" y2="1.346" xlink:href="#linear-gradient-6"/>
    <clipPath id="clip-path-27">
      <path id="Trazado_183610" data-name="Trazado 183610" d="M278.167,288.883s.364,1.466.984,3.628a14.156,14.156,0,0,1,.341,3.1l3.007-.425c-1.393-1.677-1.135-7.018-1.135-7.018Z" fill="none"/>
    </clipPath>
    <linearGradient id="linear-gradient-14" x1="-52.083" y1="1.749" x2="-51.895" y2="1.749" xlink:href="#linear-gradient-4"/>
    <clipPath id="clip-path-28">
      <path id="Trazado_183611" data-name="Trazado 183611" d="M279.226,295.242c-.2.608.113,2.4,2.41,2.462s1.993-1.86,1.6-2.578c-.118-.217-.528-.292-1.044-.292a16.738,16.738,0,0,0-2.967.408" fill="none"/>
    </clipPath>
    <linearGradient id="linear-gradient-15" x1="-54.049" y1="1.467" x2="-53.855" y2="1.467" xlink:href="#linear-gradient-6"/>
    <clipPath id="clip-path-29">
      <path id="Trazado_183612" data-name="Trazado 183612" d="M235.175,298.677c-.287.867,2.865,2.874,4.818,3.127.589.076.025-.36.2-.538.488-.487.17-1.765-.458-2.461a3.342,3.342,0,0,0-2.477-.921c-1.016,0-1.932.331-2.086.793" fill="none"/>
    </clipPath>
    <linearGradient id="linear-gradient-16" x1="-34.275" y1="0.774" x2="-34.129" y2="0.774" xlink:href="#linear-gradient-6"/>
    <clipPath id="clip-path-30">
      <path id="Trazado_183613" data-name="Trazado 183613" d="M237.793,292.584s.155,1.5.466,3.73a14.076,14.076,0,0,1-.1,3.118H241.2c-1.145-1.856-.141-7.107-.141-7.107Z" fill="none"/>
    </clipPath>
    <linearGradient id="linear-gradient-17" x1="-69.795" y1="1.341" x2="-69.501" y2="1.341" xlink:href="#linear-gradient-4"/>
    <clipPath id="clip-path-31">
      <path id="Trazado_183614" data-name="Trazado 183614" d="M230.295,184.607a140.447,140.447,0,0,0-4.709,21.548c-3.688,26.828,4.151,27.684,2.687,57.414-.467,9.489,8.221,31.371,8.987,31.854a9.4,9.4,0,0,0,1.2.048,11.969,11.969,0,0,0,3.06-.51c1.376-.237,6.339-13.678,5.189-21.67-.815-5.655-.579-11.725-.107-23.865.077-1.967,5.11-38.271,5.11-38.271,1.531,13.438,3.291,24.856,4.817,33.708,4.9,28.44,20.849,45.655,21.681,45.931a3.372,3.372,0,0,0,2.883-.2,1.987,1.987,0,0,0,.73-.822c.427-.334-.126-28.394-4.99-49.513-7.058-30.653-3.985-37.825-6.22-51.516-.841-5.148-8.566-6.6-17.031-6.6a138.461,138.461,0,0,0-23.289,2.464" fill="none"/>
    </clipPath>
    <linearGradient id="linear-gradient-18" x1="-1.524" y1="1.234" x2="-1.516" y2="1.234" gradientUnits="objectBoundingBox">
      <stop offset="0" stop-color="#b65534"/>
      <stop offset="1" stop-color="#59404b"/>
    </linearGradient>
    <clipPath id="clip-path-32">
      <path id="Trazado_183615" data-name="Trazado 183615" d="M239.111,132.684c-.1.094-.577.621-1.174,1.319a39.042,39.042,0,0,0-4.188,6.014,40.4,40.4,0,0,0-3.5,8.706,74.219,74.219,0,0,0-2.757,15.2c-.016.194,0,.388,0,.579v.011a93.865,93.865,0,0,0,.125,19.61,17.456,17.456,0,0,0,.622,3.556v.007a7.106,7.106,0,0,0,.243,1.558,49.1,49.1,0,0,0,28.089,4.134,44,44,0,0,0,14.041-4.624,34.435,34.435,0,0,1-1.132-4.277c-1.484-7.571.594-12.169,1.655-16.457,1.781-7.187,1.811-6.645,3.279-12.353,2.42-9.424,2.817-19.049,1.154-21.021-4.485-5.312-12.565-5.5-16.759-5.629-1.785-.052-4.205-.305-6.847-.305-4.3,0-9.176.671-12.852,3.976" fill="none"/>
    </clipPath>
    <linearGradient id="linear-gradient-19" x1="-2.751" y1="2.183" x2="-2.738" y2="2.183" xlink:href="#linear-gradient-5"/>
    <clipPath id="clip-path-33">
      <path id="Trazado_183616" data-name="Trazado 183616" d="M237.951,299.028c-.287.574-.223,2.393,2.042,2.776s2.234-1.564,1.947-2.33c-.157-.417-1.33-.512-2.364-.512-.861,0-1.625.066-1.625.066" fill="none"/>
    </clipPath>
    <linearGradient id="linear-gradient-20" x1="-43.425" y1="0.72" x2="-43.242" y2="0.72" xlink:href="#linear-gradient-6"/>
    <clipPath id="clip-path-34">
      <path id="Trazado_183617" data-name="Trazado 183617" d="M241.4,159a46.407,46.407,0,0,1-14.1,9.555.155.155,0,0,0-.089.2.153.153,0,0,0,.144.1.158.158,0,0,0,.056-.01,46.748,46.748,0,0,0,14.21-9.624.155.155,0,0,0,0-.218.15.15,0,0,0-.109-.046.162.162,0,0,0-.11.044" fill="none"/>
    </clipPath>
    <linearGradient id="linear-gradient-21" x1="-22.065" y1="9.8" x2="-21.969" y2="9.8" xlink:href="#linear-gradient-3"/>
    <clipPath id="clip-path-36">
      <rect id="Rectángulo_38492" data-name="Rectángulo 38492" width="5.514" height="25.848" transform="translate(268.81 156.453)" fill="none"/>
    </clipPath>
    <clipPath id="clip-path-37">
      <path id="Trazado_183618" data-name="Trazado 183618" d="M269.121,182.3a.155.155,0,0,1-.153-.138,28.557,28.557,0,0,1,1.4-11.916c.224-.785.435-1.526.619-2.267,1.012-4.085,1.456-5.663,1.925-7.333.3-1.084.62-2.206,1.108-4.079a.154.154,0,1,1,.3.078c-.488,1.876-.8,3-1.109,4.085-.468,1.667-.911,3.242-1.923,7.324-.185.745-.4,1.489-.621,2.277a28.289,28.289,0,0,0-1.39,11.8.154.154,0,0,1-.136.17l-.018,0" fill="none"/>
    </clipPath>
    <linearGradient id="linear-gradient-22" x1="-9.917" y1="19.94" x2="-9.878" y2="19.94" xlink:href="#linear-gradient-5"/>
    <clipPath id="clip-path-38">
      <rect id="Rectángulo_38494" data-name="Rectángulo 38494" width="43.554" height="31.382" transform="translate(227.059 162.516)" fill="none"/>
    </clipPath>
    <clipPath id="clip-path-39">
      <path id="Trazado_183619" data-name="Trazado 183619" d="M270.613,188.75a44.023,44.023,0,0,1-14.041,4.625,49.1,49.1,0,0,1-28.089-4.135,7.115,7.115,0,0,1-.243-1.558v-.007l-.622-3.556a93.865,93.865,0,0,1-.125-19.61V164.5c4.482-2.062,13.337-4.741,11.338,4.878-2.708,13.039.352,12.494,6.609,12.767s4.568,7.276,12.6,5.6c3.866-.81,7.96-2.536,11.445-3.264a34.6,34.6,0,0,0,1.129,4.276" fill="none"/>
    </clipPath>
    <linearGradient id="linear-gradient-23" x1="-3.949" y1="2.844" x2="-3.931" y2="2.844" xlink:href="#linear-gradient-5"/>
    <clipPath id="clip-path-40">
      <path id="Trazado_183620" data-name="Trazado 183620" d="M178.835,136.495c-.943.377-.811,2.6-.818,2.6a7.19,7.19,0,0,0,.791,3.183,6.078,6.078,0,0,0,1.574,1.875l2.749,1.317,1.49-1.239a10.875,10.875,0,0,0-2.455-2.919c-1.766-1.162-1.922-2.282-1.922-2.282l-.978-2.574a1.044,1.044,0,0,0-.154-.013.75.75,0,0,0-.277.051" fill="none"/>
    </clipPath>
    <linearGradient id="linear-gradient-24" x1="-15.662" y1="15.079" x2="-15.573" y2="15.079" xlink:href="#linear-gradient-4"/>
    <clipPath id="clip-path-41">
      <path id="Trazado_183621" data-name="Trazado 183621" d="M223.818,140.721c-15.735,11.175-13.849,18.145-21,14.665-4.832-2.352-5.488-9.445-13.746-12.113-.379-.122-.745-.226-1.091-.313a5.9,5.9,0,0,0-4.216.511l-.957.507-.332.108a5.037,5.037,0,0,0-3.106,2.953,20.992,20.992,0,0,0-1.188,4.393,30.761,30.761,0,0,0,.616,3.875c.31,1.379,3.938,16.461,16.548,21.106a22.379,22.379,0,0,0,5.213,1.216c4.144.5,7.9-.112,14.322-2.325,10.876-3.748,19.181-7.263,26.522-15.856a11.634,11.634,0,0,0,.915-1.244c5.46-8.373,9.033-24.261,4.084-27.48a4.49,4.49,0,0,0-2.488-.649c-6.089,0-16.591,8.153-20.1,10.646" fill="none"/>
    </clipPath>
    <linearGradient id="linear-gradient-25" x1="-1.956" y1="2.375" x2="-1.944" y2="2.375" xlink:href="#linear-gradient-5"/>
    <clipPath id="clip-path-42">
      <path id="Trazado_183622" data-name="Trazado 183622" d="M249.583,112.7a9.55,9.55,0,0,0-2.565.855c-.045.03-.085.06-.085.06l-.666.7c-.471.538-.7.922-1.309,3.459a8.15,8.15,0,0,0,.659,5.864c1.069,1.808,4.034,2.311,4.552,2.426q.225,1.584.449,3.168c-6.382.836-7.879,1.632-7.894,2.244-.035,1.4,7.7,3.389,15.231,2.286,3.452-.505,8.042-1.833,7.966-2.982-.036-.546-1.154-1.491-9.21-2.172-.506-1.433-1.1-2.9-1.787-4.4-.111-.24-.222-.477-.335-.713-1.379-6.542-3.782-10.8-4.982-10.8h-.024" fill="none"/>
    </clipPath>
    <linearGradient id="linear-gradient-26" x1="-7.577" y1="6.224" x2="-7.545" y2="6.224" xlink:href="#linear-gradient-4"/>
    <clipPath id="clip-path-44">
      <path id="Trazado_183624" data-name="Trazado 183624" d="M248.161,120.3c-.422,1.09-.522,2.58.349,2.533a1.655,1.655,0,0,0,1.238-2.06,1.171,1.171,0,0,0-1.008-.91.608.608,0,0,0-.579.437" fill="none"/>
    </clipPath>
    <linearGradient id="linear-gradient-27" x1="-68.907" y1="47.979" x2="-68.628" y2="47.979" xlink:href="#linear-gradient-4"/>
    <clipPath id="clip-path-46">
      <rect id="Rectángulo_38502" data-name="Rectángulo 38502" width="7.844" height="7.844" transform="translate(136.353 49.814)" fill="none"/>
    </clipPath>
    <clipPath id="clip-path-47">
      <path id="Trazado_183626" data-name="Trazado 183626" d="M144.2,53.736a3.922,3.922,0,1,1-3.922-3.922,3.922,3.922,0,0,1,3.922,3.922" fill="none"/>
    </clipPath>
    <linearGradient id="linear-gradient-28" x1="-16.72" y1="30.959" x2="-16.598" y2="30.959" xlink:href="#linear-gradient-8"/>
  </defs>
  <g id="Grupo_121640" data-name="Grupo 121640" clip-path="url(#clip-path)">
    <g id="Grupo_121541" data-name="Grupo 121541">
      <g id="Grupo_121540" data-name="Grupo 121540" clip-path="url(#clip-path)">
        <path id="Trazado_183553" data-name="Trazado 183553" d="M266.311,67.234c-4.258-5.828-40.71-54.024-99.8-51.677-2.952.117-60.578,3.161-81.833,40.941-15.723,27.947.923,52.743-18.258,71.784-16.713,16.591-37.253,5.609-47.523,19.025-15.645,20.437,9.27,75.632,47.549,106.414,39.527,31.784,115.145,55.1,173.919,12.7,65.986-47.61,65.317-145.291,25.944-199.183" fill="#e2dfcf"/>
      </g>
    </g>
    <g id="Grupo_121543" data-name="Grupo 121543">
      <g id="Grupo_121542" data-name="Grupo 121542" clip-path="url(#clip-path-3)">
        <rect id="Rectángulo_38461" data-name="Rectángulo 38461" width="168.668" height="168.779" transform="matrix(0.755, -0.656, 0.656, 0.755, 93.671, 53.699)" fill="url(#linear-gradient)"/>
      </g>
    </g>
    <g id="Grupo_121545" data-name="Grupo 121545">
      <g id="Grupo_121544" data-name="Grupo 121544" clip-path="url(#clip-path-4)">
        <rect id="Rectángulo_38462" data-name="Rectángulo 38462" width="164.446" height="164.066" transform="matrix(0.518, -0.855, 0.855, 0.518, 102.199, 87.896)" fill="url(#linear-gradient-2)"/>
      </g>
    </g>
    <g id="Grupo_121547" data-name="Grupo 121547">
      <g id="Grupo_121546" data-name="Grupo 121546" clip-path="url(#clip-path-5)">
        <rect id="Rectángulo_38463" data-name="Rectángulo 38463" width="278.705" height="269.849" transform="matrix(0.547, -0.837, 0.837, 0.547, -99.564, 189.533)" fill="url(#linear-gradient-3)"/>
      </g>
    </g>
    <g id="Grupo_121552" data-name="Grupo 121552">
      <g id="Grupo_121551" data-name="Grupo 121551" clip-path="url(#clip-path)">
        <g id="Grupo_121550" data-name="Grupo 121550" opacity="0.28" style="mix-blend-mode: soft-light;isolation: isolate">
          <g id="Grupo_121549" data-name="Grupo 121549">
            <g id="Grupo_121548" data-name="Grupo 121548" clip-path="url(#clip-path-7)">
              <path id="Trazado_183557" data-name="Trazado 183557" d="M65.605,81.871c8.1,18.69-5.1,30.5,4.38,45.245,7.7,11.973,19.848,9.526,23.169,20.673,3.183,10.683-7.1,15.844-4.29,28.047,2.319,10.058,10.129,10.109,17.93,23.118,7.853,13.094,4.678,20.944,8.711,28.943,4.329,8.587,16.613,16.639,49.674,17.109,4.959-.671,10.245-1.482,15.89-2.451-44.766-8.9-56.411-20.195-57.886-29.442-1.373-8.612,5.583-18.527-.386-28.873-3.63-6.291-7.468-4.82-11.1-10.3-9.38-14.154,10.09-33.251,1.882-45.828-6.058-9.281-19.851-3.765-25.942-14.212-4.318-7.406.922-13.078-.056-25.241C85.961,68.5,69.221,54.887,67,53.129,49.729,39.484,19.2,33.841,6.452,48.555c-.061.071-.119.145-.18.217a75.212,75.212,0,0,1,29.8,7.2c8.4,4.008,23.074,11,29.529,25.9" fill="#fff"/>
            </g>
          </g>
        </g>
      </g>
    </g>
    <g id="Grupo_121554" data-name="Grupo 121554">
      <g id="Grupo_121553" data-name="Grupo 121553" clip-path="url(#clip-path-8)">
        <rect id="Rectángulo_38466" data-name="Rectángulo 38466" width="147.545" height="244.589" transform="translate(18.202 9.451) rotate(-6.867)" fill="url(#linear-gradient-4)"/>
      </g>
    </g>
    <g id="Grupo_121559" data-name="Grupo 121559">
      <g id="Grupo_121558" data-name="Grupo 121558" clip-path="url(#clip-path-9)">
        <g id="Grupo_121557" data-name="Grupo 121557" opacity="0.7" style="mix-blend-mode: soft-light;isolation: isolate">
          <g id="Grupo_121556" data-name="Grupo 121556">
            <g id="Grupo_121555" data-name="Grupo 121555" clip-path="url(#clip-path-10)">
              <path id="Trazado_183559" data-name="Trazado 183559" d="M44.153,15.033Q63.361,23.841,82.5,32.811c6.391,2.965,12.755,5.986,19.067,9.12,3.159,1.562,6.309,3.143,9.437,4.774s6.236,3.31,9.262,5.153c1.511.924,3,1.893,4.431,2.965.72.529,1.408,1.107,2.083,1.7a19.7,19.7,0,0,1,1.882,1.968,12.274,12.274,0,0,1,1.491,2.323,11.623,11.623,0,0,1,.9,2.615,14.221,14.221,0,0,1,.077,5.466,17.4,17.4,0,0,1-1.863,5.1,31.967,31.967,0,0,1-3,4.455c-2.2,2.806-4.649,5.352-6.994,7.966a64.61,64.61,0,0,0-6.5,8.2,31.277,31.277,0,0,0-2.43,4.58,24.243,24.243,0,0,0-1.45,4.944A21.043,21.043,0,0,0,111.8,119a44.021,44.021,0,0,0,3.04,4.242c1.087,1.378,2.215,2.74,3.251,4.195.525.72,1.008,1.476,1.473,2.244a21.763,21.763,0,0,1,1.223,2.408,18.324,18.324,0,0,1,1.409,5.217,22.84,22.84,0,0,1-.015,5.387,20.937,20.937,0,0,1-1.317,5.228,25.832,25.832,0,0,1-2.534,4.738c-1.967,2.98-4.409,5.564-6.115,8.566a14.4,14.4,0,0,0-1.756,4.785,14.72,14.72,0,0,0,.113,5.1,16.166,16.166,0,0,0,1.788,4.8,24.738,24.738,0,0,0,3.078,4.174c2.313,2.608,5.013,4.92,7.2,7.755a18.073,18.073,0,0,1,2.669,4.662,15.39,15.39,0,0,1,.934,5.3,14.8,14.8,0,0,1-.968,5.291,25.988,25.988,0,0,1-2.581,4.676,12.511,12.511,0,0,0-2.14,4.645,7.733,7.733,0,0,0,.856,4.917,15.319,15.319,0,0,0,3.218,4.029,32.133,32.133,0,0,0,4.144,3.193,68.055,68.055,0,0,0,9.281,4.947c3.207,1.438,6.486,2.719,9.8,3.906s6.657,2.287,10.027,3.306c6.734,2.055,13.547,3.851,20.388,5.525l-.011.047c-6.856-1.614-13.686-3.35-20.445-5.347q-5.071-1.485-10.068-3.222c-3.328-1.161-6.626-2.415-9.859-3.831a68.484,68.484,0,0,1-9.39-4.9,32.726,32.726,0,0,1-4.244-3.211,15.643,15.643,0,0,1-3.368-4.166,8.348,8.348,0,0,1-.941-5.3,8.846,8.846,0,0,1,.861-2.582,24.921,24.921,0,0,1,1.348-2.311,25.447,25.447,0,0,0,2.5-4.567,14.118,14.118,0,0,0,.9-5.048,14.662,14.662,0,0,0-.913-5.045,17.312,17.312,0,0,0-2.585-4.457c-2.137-2.742-4.834-5.033-7.21-7.68a25.5,25.5,0,0,1-3.2-4.3,17.014,17.014,0,0,1-1.908-5.047,15.608,15.608,0,0,1-.144-5.407,15.306,15.306,0,0,1,1.835-5.09,37.936,37.936,0,0,1,3.01-4.414c1.07-1.4,2.142-2.788,3.1-4.235a24.8,24.8,0,0,0,2.433-4.564,19.964,19.964,0,0,0,1.248-4.99,19.341,19.341,0,0,0-1.336-10.094c-1.35-3.173-3.638-5.855-5.828-8.614a44.8,44.8,0,0,1-3.117-4.336,22.073,22.073,0,0,1-3.069-15.562,25.293,25.293,0,0,1,1.507-5.175,32.412,32.412,0,0,1,2.507-4.746,65.621,65.621,0,0,1,6.594-8.351c2.354-2.629,4.79-5.172,6.933-7.918a31.159,31.159,0,0,0,2.887-4.307,16.334,16.334,0,0,0,1.74-4.778,13.173,13.173,0,0,0-.076-5.025,10.508,10.508,0,0,0-2.152-4.488,18.512,18.512,0,0,0-1.759-1.854c-.643-.571-1.3-1.129-2-1.646-1.383-1.047-2.846-2.006-4.335-2.924-2.982-1.833-6.071-3.515-9.18-5.154s-6.251-3.228-9.4-4.8l-9.464-4.689c-3.15-1.573-6.338-3.069-9.506-4.606Q63.115,24.365,44.133,15.077Z" fill="#fff"/>
            </g>
          </g>
        </g>
      </g>
    </g>
    <g id="Grupo_121561" data-name="Grupo 121561">
      <g id="Grupo_121560" data-name="Grupo 121560" clip-path="url(#clip-path-11)">
        <rect id="Rectángulo_38468" data-name="Rectángulo 38468" width="133.105" height="146.313" transform="matrix(0.109, -0.994, 0.994, 0.109, 3.21, 250.081)" fill="url(#linear-gradient-5)"/>
      </g>
    </g>
    <g id="Grupo_121566" data-name="Grupo 121566">
      <g id="Grupo_121565" data-name="Grupo 121565" clip-path="url(#clip-path-11)">
        <g id="Grupo_121564" data-name="Grupo 121564" opacity="0.5" style="mix-blend-mode: soft-light;isolation: isolate">
          <g id="Grupo_121563" data-name="Grupo 121563">
            <g id="Grupo_121562" data-name="Grupo 121562" clip-path="url(#clip-path-13)">
              <path id="Trazado_183562" data-name="Trazado 183562" d="M136.867,238.058a227.24,227.24,0,0,1-30.115-1.987c-29.889-4-33.267-10.693-34.376-12.893-1.725-3.418-1.412-6.293-1.08-9.337.372-3.421.758-6.959-1.486-11.87-2.046-4.479-4.713-6.559-7.292-8.57-2.515-1.962-5.116-3.99-7.029-8.214-2.466-5.442-1.719-9.858-.927-14.534a43.448,43.448,0,0,0,.834-8.183c-.188-11.73-8.279-23.741-24.048-35.7l.225-.3c15.865,12.033,24.006,24.143,24.2,35.993a43.778,43.778,0,0,1-.84,8.252c-.781,4.617-1.519,8.979.9,14.317,1.875,4.14,4.325,6.05,6.919,8.073,2.614,2.039,5.318,4.148,7.4,8.71,2.286,5,1.877,8.756,1.517,12.065-.326,2.988-.633,5.81,1.042,9.129,1.088,2.156,4.4,8.717,34.093,12.691a229.491,229.491,0,0,0,44.953,1.508l.024.373q-7.466.477-14.912.476" fill="#fff"/>
            </g>
          </g>
        </g>
      </g>
    </g>
    <g id="Grupo_121568" data-name="Grupo 121568">
      <g id="Grupo_121567" data-name="Grupo 121567" clip-path="url(#clip-path-14)">
        <rect id="Rectángulo_38470" data-name="Rectángulo 38470" width="269.554" height="182.209" transform="translate(32.79 300.421) rotate(-87.361)" fill="url(#linear-gradient-6)"/>
      </g>
    </g>
    <g id="Grupo_121570" data-name="Grupo 121570">
      <g id="Grupo_121569" data-name="Grupo 121569" clip-path="url(#clip-path-15)">
        <rect id="Rectángulo_38471" data-name="Rectángulo 38471" width="269.537" height="181.835" transform="translate(37.272 300.421) rotate(-87.361)" fill="url(#linear-gradient-7)"/>
      </g>
    </g>
    <g id="Grupo_121572" data-name="Grupo 121572">
      <g id="Grupo_121571" data-name="Grupo 121571" clip-path="url(#clip-path-16)">
        <rect id="Rectángulo_38472" data-name="Rectángulo 38472" width="227.098" height="164.242" transform="translate(47.784 279.79) rotate(-87.361)" fill="url(#linear-gradient-8)"/>
      </g>
    </g>
    <g id="Grupo_121577" data-name="Grupo 121577">
      <g id="Grupo_121576" data-name="Grupo 121576" clip-path="url(#clip-path)">
        <g id="Grupo_121575" data-name="Grupo 121575" style="mix-blend-mode: soft-light;isolation: isolate">
          <g id="Grupo_121574" data-name="Grupo 121574">
            <g id="Grupo_121573" data-name="Grupo 121573" clip-path="url(#clip-path-18)">
              <path id="Trazado_183567" data-name="Trazado 183567" d="M206.2,267.138,61.534,280.193c-2.057.186-3.621-1.676-3.621-3.876V63.879a3.906,3.906,0,0,1,1.212-2.972c.475,1.261.948,2.5,1.5,3.722,16.257,35.883,48.632,12.419,70.038,47.835,16.756,27.722,3.808,53.987,22.737,84.8,14.964,24.348,28.289,16.054,41.922,39.485,5.249,9.022,8.666,19.6,10.879,30.393" fill="#fff"/>
            </g>
          </g>
        </g>
        <path id="Trazado_183568" data-name="Trazado 183568" d="M95.453,119.629l-5.741,17.387H82.33l18.782-55.278h8.611l18.864,55.278h-7.628l-5.9-17.387Zm18.125-5.577-5.413-15.911c-1.23-3.608-2.05-6.889-2.871-10.088h-.164c-.82,3.281-1.722,6.643-2.788,10.006l-5.413,15.993Z" fill="#899eaa"/>
        <path id="Trazado_183569" data-name="Trazado 183569" d="M195.031,104.4l-59.288-.364V99.725l59.288.518Z" fill="#899eaa"/>
        <path id="Trazado_183570" data-name="Trazado 183570" d="M195.031,111.921l-59.288-.085v-4.309l59.288.239Z" fill="#899eaa"/>
        <path id="Trazado_183571" data-name="Trazado 183571" d="M195.031,119.445l-59.288.194V115.33l59.288-.04Z" fill="#899eaa"/>
        <path id="Trazado_183572" data-name="Trazado 183572" d="M195.031,126.969l-59.288.472v-4.309l59.288-.318Z" fill="#899eaa"/>
        <path id="Trazado_183573" data-name="Trazado 183573" d="M195.031,134.492l-59.288.751v-4.309l59.288-.6Z" fill="#899eaa"/>
        <path id="Trazado_183574" data-name="Trazado 183574" d="M195.031,146.911l-117.592,2.4v-4.46l117.592-2.1Z" fill="#899eaa"/>
        <path id="Trazado_183575" data-name="Trazado 183575" d="M195.031,154.435,77.439,157.39v-4.461l117.592-2.649Z" fill="#899eaa"/>
        <path id="Trazado_183576" data-name="Trazado 183576" d="M195.031,161.959,77.439,165.466v-4.46l117.592-3.2Z" fill="#899eaa"/>
        <path id="Trazado_183577" data-name="Trazado 183577" d="M195.031,169.482l-117.592,4.06v-4.46l117.592-3.755Z" fill="#899eaa"/>
        <path id="Trazado_183578" data-name="Trazado 183578" d="M195.031,177.006,77.439,181.619v-4.461l117.592-4.307Z" fill="#899eaa"/>
        <path id="Trazado_183579" data-name="Trazado 183579" d="M195.031,192.054,77.439,197.772v-4.46L195.031,187.9Z" fill="#899eaa"/>
        <path id="Trazado_183580" data-name="Trazado 183580" d="M195.031,199.577,77.439,205.848v-4.461l117.592-5.965Z" fill="#899eaa"/>
        <path id="Trazado_183581" data-name="Trazado 183581" d="M195.031,207.1,77.439,213.925v-4.461l117.592-6.518Z" fill="#899eaa"/>
        <path id="Trazado_183582" data-name="Trazado 183582" d="M195.031,214.625,77.439,222v-4.46l117.592-7.071Z" fill="#899eaa"/>
        <path id="Trazado_183583" data-name="Trazado 183583" d="M195.031,222.149,77.439,230.078v-4.46l117.592-7.624Z" fill="#899eaa"/>
        <path id="Trazado_183584" data-name="Trazado 183584" d="M195.031,235,77.439,243.645v-4.46l117.592-8.339Z" fill="#899eaa"/>
        <path id="Trazado_183585" data-name="Trazado 183585" d="M195.031,242.524l-117.592,9.2V247.26l117.592-8.891Z" fill="#899eaa"/>
        <path id="Trazado_183586" data-name="Trazado 183586" d="M195.031,250.048,77.439,259.8v-4.461l117.592-9.444Z" fill="#899eaa"/>
      </g>
    </g>
    <g id="Grupo_121579" data-name="Grupo 121579">
      <g id="Grupo_121578" data-name="Grupo 121578" clip-path="url(#clip-path-19)">
        <rect id="Rectángulo_38475" data-name="Rectángulo 38475" width="16.062" height="59.611" transform="translate(63.889 60.026)" fill="url(#linear-gradient-9)"/>
      </g>
    </g>
    <g id="Grupo_121586" data-name="Grupo 121586">
      <g id="Grupo_121585" data-name="Grupo 121585" clip-path="url(#clip-path)">
        <g id="Grupo_121584" data-name="Grupo 121584" opacity="0.3" style="mix-blend-mode: multiply;isolation: isolate">
          <g id="Grupo_121583" data-name="Grupo 121583">
            <g id="Grupo_121582" data-name="Grupo 121582" clip-path="url(#clip-path-21)">
              <g id="Grupo_121581" data-name="Grupo 121581">
                <g id="Grupo_121580" data-name="Grupo 121580" clip-path="url(#clip-path-22)">
                  <rect id="Rectángulo_38476" data-name="Rectángulo 38476" width="16.435" height="59.613" transform="translate(63.516 60.024)" fill="url(#linear-gradient-10)"/>
                </g>
              </g>
            </g>
          </g>
        </g>
      </g>
    </g>
    <g id="Grupo_121588" data-name="Grupo 121588">
      <g id="Grupo_121587" data-name="Grupo 121587" clip-path="url(#clip-path-23)">
        <rect id="Rectángulo_38479" data-name="Rectángulo 38479" width="6.956" height="25.241" transform="matrix(0.039, -0.999, 0.999, 0.039, 126.408, 285.427)" fill="url(#linear-gradient-11)"/>
      </g>
    </g>
    <g id="Grupo_121590" data-name="Grupo 121590">
      <g id="Grupo_121589" data-name="Grupo 121589" clip-path="url(#clip-path)">
        <path id="Trazado_183590" data-name="Trazado 183590" d="M175.47,119.9a1.264,1.264,0,0,0-.778.605,1.236,1.236,0,0,0-.1.972l7.222,22.642a1.27,1.27,0,0,0,1.563.823l16.774-4.818a1.244,1.244,0,0,0,.864-1.538l-6.5-22.533a1.27,1.27,0,0,0-1.552-.862Z" fill="#193540"/>
        <path id="Trazado_183591" data-name="Trazado 183591" d="M176.8,121a1.128,1.128,0,0,0-.693.54,1.1,1.1,0,0,0-.087.866l6.441,20.192a1.134,1.134,0,0,0,1.394.734l14.959-4.3a1.109,1.109,0,0,0,.77-1.371l-5.8-20.1a1.132,1.132,0,0,0-1.384-.768Z" fill="#fff"/>
        <path id="Trazado_183592" data-name="Trazado 183592" d="M189.606,121.047l-7.646,1.989-.489-1.572,7.658-1.951Z" fill="#d2d6d1"/>
        <path id="Trazado_183593" data-name="Trazado 183593" d="M194.239,123.838a.1.1,0,0,1-.054.132l-6.429,1.732a.111.111,0,0,1-.125-.086l-.414-1.328a.1.1,0,0,1,.057-.134l6.439-1.7a.108.108,0,0,1,.121.085Z" fill="#d2d6d1"/>
        <path id="Trazado_183594" data-name="Trazado 183594" d="M194.705,125.337a.1.1,0,0,1-.053.132l-6.42,1.764a.11.11,0,0,1-.125-.085l-.115-.369a.1.1,0,0,1,.056-.136l6.424-1.752a.109.109,0,0,1,.121.085Z" fill="#d2d6d1"/>
        <path id="Trazado_183595" data-name="Trazado 183595" d="M195.132,126.709a.1.1,0,0,1-.053.133l-6.411,1.793a.11.11,0,0,1-.125-.085l-.115-.369a.1.1,0,0,1,.057-.136l6.414-1.781a.107.107,0,0,1,.121.084Z" fill="#d2d6d1"/>
        <path id="Trazado_183596" data-name="Trazado 183596" d="M195.559,128.081a.1.1,0,0,1-.053.133l-6.4,1.822a.11.11,0,0,1-.125-.085l-.115-.369a.1.1,0,0,1,.057-.136l6.4-1.81a.108.108,0,0,1,.121.084Z" fill="#d2d6d1"/>
        <path id="Trazado_183597" data-name="Trazado 183597" d="M195.986,129.453a.1.1,0,0,1-.053.133l-6.393,1.851a.109.109,0,0,1-.125-.084l-.114-.369a.1.1,0,0,1,.056-.137l6.4-1.838a.107.107,0,0,1,.121.083Z" fill="#d2d6d1"/>
        <path id="Trazado_183598" data-name="Trazado 183598" d="M187.312,132.143l-5.135,1.488a.409.409,0,0,1-.473-.311l-2.1-6.747a.381.381,0,0,1,.219-.5L185,124.705a.412.412,0,0,1,.461.315l2.061,6.623a.381.381,0,0,1-.207.5" fill="#d2d6d1"/>
        <path id="Trazado_183599" data-name="Trazado 183599" d="M179.869,126.256l.006,0,5.174-1.364a.228.228,0,0,1,.255.177l2.061,6.622a.207.207,0,0,1-.109.271l-5.135,1.489a.23.23,0,0,1-.265-.174l-2.1-6.748a.206.206,0,0,1,.113-.271m-.057-.182a.381.381,0,0,0-.207.5l2.1,6.747a.41.41,0,0,0,.473.311l5.135-1.488h0a.382.382,0,0,0,.205-.5l-2.061-6.623a.412.412,0,0,0-.461-.315l-5.173,1.366-.012,0" fill="#d2d6d1"/>
        <path id="Trazado_183600" data-name="Trazado 183600" d="M186.265,136.114l-3.262.955a.046.046,0,0,1-.054-.035l-.159-.514a.044.044,0,0,1,.024-.058l3.264-.949a.047.047,0,0,1,.053.035l.158.508a.044.044,0,0,1-.024.058" fill="#d2d6d1"/>
        <path id="Trazado_183601" data-name="Trazado 183601" d="M188.964,136.658l-5.573,1.656a.046.046,0,0,1-.054-.035l-.16-.514a.044.044,0,0,1,.025-.058l5.576-1.646a.045.045,0,0,1,.052.035l.157.505a.043.043,0,0,1-.023.057" fill="#d2d6d1"/>
        <path id="Trazado_183602" data-name="Trazado 183602" d="M189.344,137.88l-5.567,1.678a.045.045,0,0,1-.053-.035l-.16-.514a.044.044,0,0,1,.024-.058l5.57-1.668a.046.046,0,0,1,.052.035l.157.505a.043.043,0,0,1-.023.057" fill="#d2d6d1"/>
        <path id="Trazado_183603" data-name="Trazado 183603" d="M189.725,139.1l-5.56,1.7a.045.045,0,0,1-.053-.035l-.16-.514a.045.045,0,0,1,.024-.058l5.563-1.69a.046.046,0,0,1,.052.035l.157.505a.043.043,0,0,1-.023.057" fill="#d2d6d1"/>
        <path id="Trazado_183604" data-name="Trazado 183604" d="M195.469,133.419l-4.921,1.441a.045.045,0,0,1-.052-.034l-.156-.5a.044.044,0,0,1,.023-.057l4.924-1.431a.044.044,0,0,1,.051.034l.153.493a.043.043,0,0,1-.022.056" fill="#d2d6d1"/>
        <path id="Trazado_183605" data-name="Trazado 183605" d="M197.322,134.174l-6.4,1.9a.044.044,0,0,1-.051-.035l-.157-.5a.043.043,0,0,1,.024-.056l6.4-1.889a.045.045,0,0,1,.05.035l.153.491a.042.042,0,0,1-.022.055" fill="#d2d6d1"/>
        <path id="Trazado_183606" data-name="Trazado 183606" d="M197.693,135.364,191.3,137.29a.045.045,0,0,1-.052-.035l-.157-.5a.046.046,0,0,1,.023-.057l6.392-1.914a.045.045,0,0,1,.05.034l.153.492a.041.041,0,0,1-.021.055" fill="#d2d6d1"/>
        <path id="Trazado_183607" data-name="Trazado 183607" d="M198.063,136.554l-6.38,1.951a.045.045,0,0,1-.052-.034l-.156-.5a.044.044,0,0,1,.023-.057l6.384-1.939a.044.044,0,0,1,.05.034l.153.491a.043.043,0,0,1-.022.056" fill="#d2d6d1"/>
      </g>
    </g>
    <g id="Grupo_121592" data-name="Grupo 121592">
      <g id="Grupo_121591" data-name="Grupo 121591" clip-path="url(#clip-path-25)">
        <rect id="Rectángulo_38481" data-name="Rectángulo 38481" width="60.266" height="55.078" transform="translate(235.769 183.449) rotate(-80.791)" fill="url(#linear-gradient-12)"/>
      </g>
    </g>
    <g id="Grupo_121594" data-name="Grupo 121594">
      <g id="Grupo_121593" data-name="Grupo 121593" clip-path="url(#clip-path-26)">
        <rect id="Rectángulo_38482" data-name="Rectángulo 38482" width="6.272" height="6.942" transform="matrix(0.553, -0.833, 0.833, 0.553, 274.621, 296.634)" fill="url(#linear-gradient-13)"/>
      </g>
    </g>
    <g id="Grupo_121596" data-name="Grupo 121596">
      <g id="Grupo_121595" data-name="Grupo 121595" clip-path="url(#clip-path-27)">
        <rect id="Rectángulo_38483" data-name="Rectángulo 38483" width="5.331" height="7.976" transform="translate(277.135 288.315) rotate(-8.047)" fill="url(#linear-gradient-14)"/>
      </g>
    </g>
    <g id="Grupo_121598" data-name="Grupo 121598">
      <g id="Grupo_121597" data-name="Grupo 121597" clip-path="url(#clip-path-28)">
        <rect id="Rectángulo_38484" data-name="Rectángulo 38484" width="5.16" height="5.713" transform="matrix(0.553, -0.833, 0.833, 0.553, 277.67, 296.868)" fill="url(#linear-gradient-15)"/>
      </g>
    </g>
    <g id="Grupo_121600" data-name="Grupo 121600">
      <g id="Grupo_121599" data-name="Grupo 121599" clip-path="url(#clip-path-29)">
        <rect id="Rectángulo_38485" data-name="Rectángulo 38485" width="6.838" height="6.986" transform="matrix(0.665, -0.747, 0.747, 0.665, 232.904, 300.115)" fill="url(#linear-gradient-16)"/>
      </g>
    </g>
    <g id="Grupo_121602" data-name="Grupo 121602">
      <g id="Grupo_121601" data-name="Grupo 121601" clip-path="url(#clip-path-30)">
        <rect id="Rectángulo_38486" data-name="Rectángulo 38486" width="3.407" height="7.107" transform="translate(237.793 292.325)" fill="url(#linear-gradient-17)"/>
      </g>
    </g>
    <g id="Grupo_121604" data-name="Grupo 121604">
      <g id="Grupo_121603" data-name="Grupo 121603" clip-path="url(#clip-path-31)">
        <rect id="Rectángulo_38487" data-name="Rectángulo 38487" width="124.528" height="85.833" transform="translate(195.448 288.933) rotate(-76.089)" fill="url(#linear-gradient-18)"/>
      </g>
    </g>
    <g id="Grupo_121606" data-name="Grupo 121606">
      <g id="Grupo_121605" data-name="Grupo 121605" clip-path="url(#clip-path-32)">
        <rect id="Rectángulo_38488" data-name="Rectángulo 38488" width="77.516" height="83.073" transform="translate(197.405 146.26) rotate(-30.888)" fill="url(#linear-gradient-19)"/>
      </g>
    </g>
    <g id="Grupo_121608" data-name="Grupo 121608">
      <g id="Grupo_121607" data-name="Grupo 121607" clip-path="url(#clip-path-33)">
        <rect id="Rectángulo_38489" data-name="Rectángulo 38489" width="5.463" height="5.576" transform="matrix(0.665, -0.747, 0.747, 0.665, 236.062, 300.762)" fill="url(#linear-gradient-20)"/>
      </g>
    </g>
    <g id="Grupo_121610" data-name="Grupo 121610">
      <g id="Grupo_121609" data-name="Grupo 121609" clip-path="url(#clip-path-34)">
        <rect id="Rectángulo_38490" data-name="Rectángulo 38490" width="10.389" height="14.833" transform="translate(226.843 168.839) rotate(-88.036)" fill="url(#linear-gradient-21)"/>
      </g>
    </g>
    <g id="Grupo_121622" data-name="Grupo 121622">
      <g id="Grupo_121621" data-name="Grupo 121621" clip-path="url(#clip-path)">
        <g id="Grupo_121615" data-name="Grupo 121615" opacity="0.3" style="mix-blend-mode: multiply;isolation: isolate">
          <g id="Grupo_121614" data-name="Grupo 121614">
            <g id="Grupo_121613" data-name="Grupo 121613" clip-path="url(#clip-path-36)">
              <g id="Grupo_121612" data-name="Grupo 121612">
                <g id="Grupo_121611" data-name="Grupo 121611" clip-path="url(#clip-path-37)">
                  <rect id="Rectángulo_38491" data-name="Rectángulo 38491" width="26.052" height="6.815" transform="translate(267.522 182.271) rotate(-88.036)" fill="url(#linear-gradient-22)"/>
                </g>
              </g>
            </g>
          </g>
        </g>
        <g id="Grupo_121620" data-name="Grupo 121620" opacity="0.3" style="mix-blend-mode: multiply;isolation: isolate">
          <g id="Grupo_121619" data-name="Grupo 121619">
            <g id="Grupo_121618" data-name="Grupo 121618" clip-path="url(#clip-path-38)">
              <g id="Grupo_121617" data-name="Grupo 121617">
                <g id="Grupo_121616" data-name="Grupo 121616" clip-path="url(#clip-path-39)">
                  <rect id="Rectángulo_38493" data-name="Rectángulo 38493" width="55.897" height="53.03" transform="translate(211.083 169.126) rotate(-30.888)" fill="url(#linear-gradient-23)"/>
                </g>
              </g>
            </g>
          </g>
        </g>
      </g>
    </g>
    <g id="Grupo_121624" data-name="Grupo 121624">
      <g id="Grupo_121623" data-name="Grupo 121623" clip-path="url(#clip-path-40)">
        <rect id="Rectángulo_38496" data-name="Rectángulo 38496" width="11.215" height="11.032" transform="translate(173.407 141.464) rotate(-48.22)" fill="url(#linear-gradient-24)"/>
      </g>
    </g>
    <g id="Grupo_121626" data-name="Grupo 121626">
      <g id="Grupo_121625" data-name="Grupo 121625" clip-path="url(#clip-path-41)">
        <rect id="Rectángulo_38497" data-name="Rectángulo 38497" width="87.462" height="78.803" transform="translate(157.015 142.739) rotate(-30.887)" fill="url(#linear-gradient-25)"/>
      </g>
    </g>
    <g id="Grupo_121628" data-name="Grupo 121628">
      <g id="Grupo_121627" data-name="Grupo 121627" clip-path="url(#clip-path-42)">
        <rect id="Rectángulo_38498" data-name="Rectángulo 38498" width="31.489" height="31.121" transform="matrix(0.85, -0.527, 0.527, 0.85, 232.764, 118.846)" fill="url(#linear-gradient-26)"/>
      </g>
    </g>
    <g id="Grupo_121630" data-name="Grupo 121630">
      <g id="Grupo_121629" data-name="Grupo 121629" clip-path="url(#clip-path)">
        <path id="Trazado_183623" data-name="Trazado 183623" d="M244.1,112.393c.543,2.011,2.064,3.907,2.64,4.124a3.478,3.478,0,0,1,.941.6,1.057,1.057,0,0,1,.178.207c.779,1.151-.84,3.181-.3,3.645.392.336,1.615-.58,1.873-.268.243.294-.711,1.291-.43,1.646.213.267.84-.2,1.4.149.282.173.266.373.688,1.017a6.516,6.516,0,0,0,.747.956c1.011,1,3.1.9,3.349.329.07-.16-.05-.246-.06-.717a3.687,3.687,0,0,1,.149-.987,9.493,9.493,0,0,1,1.884-2.511,6.747,6.747,0,0,0,1.732-3.5c.017-.15.023-.261.027-.342a7.739,7.739,0,0,0-1.52-4.952c-1.715-1.947-3.952-.209-6.607-1.883-3.064-1.932-2.582-5.817-3.976-5.86-1.538-.048-3.725,4.623-2.721,8.341" fill="#193540"/>
      </g>
    </g>
    <g id="Grupo_121632" data-name="Grupo 121632">
      <g id="Grupo_121631" data-name="Grupo 121631" clip-path="url(#clip-path-44)">
        <rect id="Rectángulo_38500" data-name="Rectángulo 38500" width="3.585" height="3.801" transform="translate(246.288 120.704) rotate(-31.776)" fill="url(#linear-gradient-27)"/>
      </g>
    </g>
    <g id="Grupo_121639" data-name="Grupo 121639">
      <g id="Grupo_121638" data-name="Grupo 121638" clip-path="url(#clip-path)">
        <path id="Trazado_183625" data-name="Trazado 183625" d="M248.169,118.731l-.747,1.794s-.748,2.152-1.734,1.345c-.806-.659-.954-.6-.981-.557-.005.009,0,.019-.006.019s-.022-.429-.03-.807a6.9,6.9,0,0,0-.418,2.362,3.849,3.849,0,0,0,.777,2.87,2.955,2.955,0,0,0,2.033.867,7.845,7.845,0,0,0,2.152-.807,10.383,10.383,0,0,1-2.451-1.226c-.325-.894.813-1.728,1.256-3.857a7.851,7.851,0,0,0,.149-2" fill="#193540"/>
        <g id="Grupo_121637" data-name="Grupo 121637" style="mix-blend-mode: soft-light;isolation: isolate">
          <g id="Grupo_121636" data-name="Grupo 121636">
            <g id="Grupo_121635" data-name="Grupo 121635" clip-path="url(#clip-path-46)">
              <g id="Grupo_121634" data-name="Grupo 121634">
                <g id="Grupo_121633" data-name="Grupo 121633" clip-path="url(#clip-path-47)">
                  <rect id="Rectángulo_38501" data-name="Rectángulo 38501" width="8.146" height="8.146" transform="translate(136.045 57.646) rotate(-87.75)" fill="url(#linear-gradient-28)"/>
                </g>
              </g>
            </g>
          </g>
        </g>
      </g>
    </g>
  </g>
</svg>
