<svg xmlns="http://www.w3.org/2000/svg" xmlns:xlink="http://www.w3.org/1999/xlink" width="395" height="292" viewBox="0 0 395 292">
  <defs>
    <clipPath id="clip-path">
      <rect id="Rectángulo_38508" data-name="Rectángulo 38508" width="310.953" height="273.583" fill="none"/>
    </clipPath>
    <clipPath id="clip-path-3">
      <rect id="Rectángulo_38505" data-name="Rectángulo 38505" width="167.858" height="205.511" fill="none"/>
    </clipPath>
    <clipPath id="clip-path-4">
      <path id="Trazado_183681" data-name="Trazado 183681" d="M41.6,33.593l4.764,34.324,31.253-4.375L73.355,29.317Z" transform="translate(-41.595 -29.317)" fill="none"/>
    </clipPath>
  </defs>
  <g id="Grupo_122046" data-name="Grupo 122046" transform="translate(19378 10031)">
    <g id="Grupo_121653" data-name="Grupo 121653" transform="translate(-19335 -10016.791)">
      <g id="Grupo_121652" data-name="Grupo 121652" clip-path="url(#clip-path)">
        <g id="Grupo_121647" data-name="Grupo 121647">
          <g id="Grupo_121646" data-name="Grupo 121646" clip-path="url(#clip-path)">
            <path id="Trazado_183627" data-name="Trazado 183627" d="M61.346,276.588c14.669-10.249,18-29.271,17.416-46.371-.1-2.855.218-5.864-1.141-8.368s-4.526-4.216-7.082-3.013c-2.119,1-3.043,3.464-4.229,5.5a16.7,16.7,0,0,1-6.695,6.394c-1.817.943-4.066,1.52-5.86.531-2.463-1.359-2.752-4.76-2.735-7.6q.051-7.937.1-15.872a26.5,26.5,0,0,0-.857-8.432c-.883-2.694-2.834-5.2-5.534-5.954s-6.041.8-6.611,3.58a26.263,26.263,0,0,0-.081,3.535,2.983,2.983,0,0,1-1.747,2.81c-1.133.333-2.269-.472-3.117-1.3-2.931-2.866-4.919-6.558-6.777-10.231s-3.662-7.431-6.321-10.558-6.336-5.6-10.4-5.835-8.4,2.28-9.425,6.271,1.3,8.063,3.845,11.3a63.4,63.4,0,0,0,13.194,12.577,5.207,5.207,0,0,1,2.207,2.373c.617,1.893-1.176,3.772-3.045,4.394-2.116.7-4.412.484-6.626.746S5.213,214.3,4.375,216.4c-1.163,2.9,1.264,5.943,3.652,7.935a54.294,54.294,0,0,0,16.066,9.274c2.088.764,4.286,1.434,5.969,2.9s-.929,6.661-1.946,8.66,0,0-2.188-.407-4.145-1.592-6.229-2.379c-3.9-1.473-8.94-1.2-11.439,2.168a8.985,8.985,0,0,0-.956,7.945,20.708,20.708,0,0,0,4.3,7.015,54.582,54.582,0,0,0,23.308,16.38c9.049,3.138,17.436,3.987,26.429.7" transform="translate(0 -15.718)" fill="#e2dfcf"/>
            <path id="Trazado_183628" data-name="Trazado 183628" d="M62,289.5a124.591,124.591,0,0,0-4.638-23.4,254.41,254.41,0,0,0-10.1-27.388l-3.015-7.043c-1-2.309-1.982-4.6-3.085-6.78A126.906,126.906,0,0,0,34.1,212.728c-2.432-3.762-4.877-7.241-7.187-10.478s-4.536-6.208-6.672-8.832A100.776,100.776,0,0,0,9.251,181.8c-1.4-1.266-2.519-2.212-3.286-2.843l-.877-.712a2.242,2.242,0,0,0-.31-.229,1.953,1.953,0,0,0,.276.27l.843.751c.743.657,1.839,1.628,3.217,2.914a106.649,106.649,0,0,1,10.844,11.7c2.112,2.631,4.307,5.61,6.606,8.851s4.722,6.73,7.137,10.488a128.422,128.422,0,0,1,7,12.134c1.094,2.169,2.069,4.441,3.065,6.756s1.995,4.664,3.012,7.04A260.762,260.762,0,0,1,56.9,266.242a126.873,126.873,0,0,1,4.731,23.295" transform="translate(-0.428 -15.954)" fill="#e2dfcf"/>
            <path id="Trazado_183629" data-name="Trazado 183629" d="M44.578,226.411a5.716,5.716,0,0,0,.278-1.211c.149-.785.327-1.926.526-3.34.4-2.827.823-6.75,1.271-11.075s.923-8.234,1.366-11.047c.218-1.407.405-2.545.545-3.328a5.633,5.633,0,0,0,.158-1.233,5.675,5.675,0,0,0-.357,1.19c-.2.773-.445,1.9-.709,3.307-.539,2.807-1.075,6.72-1.523,11.053l-1.118,11.086c-.143,1.333-.265,2.455-.361,3.357a5.647,5.647,0,0,0-.076,1.241" transform="translate(-3.994 -17.492)" fill="#e2dfcf"/>
            <path id="Trazado_183630" data-name="Trazado 183630" d="M4.488,221.989a7.87,7.87,0,0,0,1.456.175c.937.083,2.292.2,3.963.39,3.343.361,7.943,1.021,12.987,1.972s9.571,2.022,12.823,2.886c1.63.42,2.94.8,3.847,1.05a7.829,7.829,0,0,0,1.424.35,7.714,7.714,0,0,0-1.364-.546c-.89-.314-2.188-.746-3.81-1.214-3.235-.959-7.766-2.082-12.825-3.045a128.451,128.451,0,0,0-13.048-1.823c-1.68-.147-3.044-.2-3.987-.224a7.7,7.7,0,0,0-1.466.031" transform="translate(-0.402 -19.891)" fill="#e2dfcf"/>
            <path id="Trazado_183631" data-name="Trazado 183631" d="M62.044,269.448a1.885,1.885,0,0,0,.25-.445l.625-1.32c.536-1.149,1.27-2.832,2.149-4.923,1.761-4.181,4.011-10.033,6.407-16.525s4.591-12.359,6.263-16.571c.818-2.047,1.493-3.732,1.994-4.983l.535-1.359a1.913,1.913,0,0,0,.154-.489,1.9,1.9,0,0,0-.25.446l-.625,1.319c-.537,1.149-1.27,2.832-2.149,4.923-1.761,4.181-4.011,10.033-6.409,16.528s-4.59,12.357-6.261,16.569c-.82,2.047-1.493,3.732-1.994,4.982l-.535,1.359a1.938,1.938,0,0,0-.154.489" transform="translate(-5.56 -19.97)" fill="#e2dfcf"/>
            <path id="Trazado_183632" data-name="Trazado 183632" d="M8.768,256.867a1.963,1.963,0,0,0,.482.2l1.408.472,5.194,1.683c4.385,1.423,10.419,3.457,17.084,5.713s12.725,4.238,17.142,5.57c2.208.666,4,1.187,5.245,1.522l1.437.378a1.953,1.953,0,0,0,.511.1,1.937,1.937,0,0,0-.482-.2l-1.408-.472-5.193-1.683c-4.385-1.421-10.42-3.456-17.087-5.713s-12.723-4.237-17.139-5.569c-2.208-.666-4-1.188-5.246-1.522l-1.437-.378a1.9,1.9,0,0,0-.511-.1" transform="translate(-0.786 -23.02)" fill="#e2dfcf"/>
            <path id="Trazado_183633" data-name="Trazado 183633" d="M260.951,12.735l-39.2,95.722,70.367,28.262,38.6-95.1Z" transform="translate(-19.874 -1.141)" fill="#e2dfcf"/>
            <path id="Trazado_183634" data-name="Trazado 183634" d="M260.939,12.735l69.8,28.805.076.031-.031.077L292.2,136.757l-.039.095-.095-.038-.513-.206-69.85-28.064-.087-.035.036-.087,39.284-95.686-39.112,95.757-.051-.122,69.857,28.046.513.207-.133.056c14.416-35.5,27.766-68.377,38.615-95.094l.046.109-69.735-28.96" transform="translate(-19.862 -1.141)" fill="#e2dfcf"/>
            <path id="Trazado_183635" data-name="Trazado 183635" d="M255.312,2.7l-39.2,95.722,70.367,28.262,38.6-95.1Z" transform="translate(-19.368 -0.242)" fill="#e2dfcf"/>
            <path id="Trazado_183636" data-name="Trazado 183636" d="M255.3,2.7l69.8,28.805.076.031-.031.077-38.579,95.108-.039.095-.095-.038-.513-.206L216.068,98.51l-.087-.035.036-.087L255.3,2.7,216.189,98.459l-.051-.122,69.857,28.047.513.206-.133.056c14.416-35.5,27.766-68.377,38.614-95.094l.046.109L255.3,2.7" transform="translate(-19.356 -0.242)" fill="#e2dfcf"/>
            <path id="Trazado_183637" data-name="Trazado 183637" d="M312.01,48.33c-.062.158-12.262-4.449-27.246-10.291S257.678,27.331,257.74,27.173,270,31.622,284.989,37.464,312.072,48.171,312.01,48.33" transform="translate(-23.099 -2.435)" fill="#e2dfcf"/>
            <path id="Trazado_183638" data-name="Trazado 183638" d="M309.053,57.95c-.062.158-12.262-4.449-27.246-10.291s-27.087-10.708-27.025-10.866,12.259,4.449,27.249,10.292,27.084,10.707,27.022,10.865" transform="translate(-22.834 -3.297)" fill="#e2dfcf"/>
            <path id="Trazado_183639" data-name="Trazado 183639" d="M299.059,87.1C299,87.254,286.8,82.647,271.814,76.8S244.727,66.1,244.789,65.939s12.259,4.449,27.249,10.292S299.121,86.937,299.059,87.1" transform="translate(-21.938 -5.909)" fill="#e2dfcf"/>
            <path id="Trazado_183640" data-name="Trazado 183640" d="M294.342,96.942c-.062.158-12.262-4.449-27.246-10.291S240.01,75.943,240.072,75.785s12.259,4.449,27.249,10.292S294.4,96.783,294.342,96.942" transform="translate(-21.515 -6.791)" fill="#e2dfcf"/>
            <path id="Trazado_183641" data-name="Trazado 183641" d="M290.422,106.885c-.062.158-12.262-4.449-27.246-10.291S236.09,85.886,236.152,85.728s12.259,4.449,27.249,10.292,27.084,10.707,27.022,10.865" transform="translate(-21.164 -7.683)" fill="#e2dfcf"/>
            <path id="Trazado_183642" data-name="Trazado 183642" d="M286.5,116.828c-.062.158-12.262-4.449-27.246-10.291s-27.087-10.708-27.025-10.866,12.259,4.449,27.249,10.292,27.084,10.707,27.022,10.865" transform="translate(-20.813 -8.574)" fill="#e2dfcf"/>
            <path id="Trazado_183643" data-name="Trazado 183643" d="M268.007,40.153c-.178.372-.909,2.054-.909,2.054l29.693,12.04L297.7,51.7Z" transform="translate(-23.937 -3.599)" fill="#e2dfcf"/>
            <path id="Trazado_183644" data-name="Trazado 183644" d="M251.547,44.244,250.275,46.9,305.927,68.09l1.369-2.9Z" transform="translate(-22.43 -3.965)" fill="#e2dfcf"/>
            <path id="Trazado_183645" data-name="Trazado 183645" d="M248,54.147,246.729,56.8,302.38,77.993l1.369-2.9Z" transform="translate(-22.112 -4.853)" fill="#e2dfcf"/>
            <path id="Trazado_183646" data-name="Trazado 183646" d="M244.954,64.538c-.063.132-1,2.864-1,2.864l27.854,10.684,1.569-3.276Z" transform="translate(-21.863 -5.784)" fill="#e2dfcf"/>
            <line id="Línea_327" data-name="Línea 327" x2="295.306" transform="translate(0.549 272.431)" fill="#193540"/>
            <path id="Trazado_183647" data-name="Trazado 183647" d="M295.909,299.232c0,.1-66.112.186-147.646.186C66.7,299.417.6,299.334.6,299.232s66.1-.186,147.66-.186c81.535,0,147.646.084,147.646.186" transform="translate(-0.054 -26.8)" fill="#193540"/>
            <path id="Trazado_183648" data-name="Trazado 183648" d="M49.821,8.386c-.95,32.216-3.75,153.216-4.493,185.5a8.024,8.024,0,0,0,7.783,8.2l132.625,4.054a8.029,8.029,0,0,0,8.274-7.849l2.065-93.533,11.228-.182a5.1,5.1,0,0,0,5.018-5.043l.863-75.374a5.1,5.1,0,0,0-5.021-5.159l-10.144-.16.077-7.289a7.985,7.985,0,0,0-7.813-8.067L57.974.644a7.981,7.981,0,0,0-8.153,7.742" transform="translate(-4.062 -0.058)" fill="#b65534"/>
            <g id="Grupo_121645" data-name="Grupo 121645" transform="translate(41.264 0.584)" opacity="0.4">
              <g id="Grupo_121644" data-name="Grupo 121644">
                <g id="Grupo_121643" data-name="Grupo 121643" clip-path="url(#clip-path-3)">
                  <path id="Trazado_183649" data-name="Trazado 183649" d="M49.821,8.386c-.95,32.216-3.75,153.216-4.493,185.5a8.024,8.024,0,0,0,7.783,8.2l132.625,4.054a8.029,8.029,0,0,0,8.274-7.849l2.065-93.533,11.228-.182a5.1,5.1,0,0,0,5.018-5.043l.863-75.374a5.1,5.1,0,0,0-5.021-5.159l-10.144-.16.077-7.289a7.985,7.985,0,0,0-7.813-8.067L57.974.644a7.981,7.981,0,0,0-8.153,7.742" transform="translate(-45.326 -0.641)"/>
                </g>
              </g>
            </g>
            <path id="Trazado_183650" data-name="Trazado 183650" d="M60.183,10.662l-11.7,186.353,136.672,7.653,11.03-184.944Z" transform="translate(-4.345 -0.956)" fill="#e2dfcf"/>
            <path id="Trazado_183651" data-name="Trazado 183651" d="M43.292,6.208,44.2,192.925l136.877-1.591L179.6,6.068Z" transform="translate(-3.88 -0.544)" fill="#e2dfcf"/>
            <path id="Trazado_183652" data-name="Trazado 183652" d="M23.608,18.527,49.441,203.45,184.881,183.6,158.674.187Z" transform="translate(-2.116 -0.017)" fill="#e2dfcf"/>
            <path id="Trazado_183653" data-name="Trazado 183653" d="M23.609,18.51,158.655.02,158.8,0l.022.149c7.372,51.528,16.442,114.93,26.239,183.4l.026.183-.183.026-.988.145L49.467,203.6l-.168.025-.024-.168C34.092,94.049,23.814,19.984,23.609,18.51c.207,1.472,10.62,75.52,26,184.9l-.19-.143,134.448-19.727.988-.145-.157.21L158.526.191l.17.129L23.609,18.51" transform="translate(-2.116)" fill="#193540"/>
            <path id="Trazado_183654" data-name="Trazado 183654" d="M152.4,67.4c.047.3-23.169,4.2-51.849,8.7s-51.979,7.909-52.026,7.605,23.164-4.2,51.853-8.7S152.35,67.1,152.4,67.4" transform="translate(-4.349 -6.039)" fill="#193540"/>
            <path id="Trazado_183655" data-name="Trazado 183655" d="M163.291,121.944c.047.3-23.169,4.2-51.849,8.7s-51.979,7.909-52.026,7.605,23.164-4.2,51.853-8.7,51.975-7.908,52.022-7.605" transform="translate(-5.325 -10.927)" fill="#193540"/>
            <path id="Trazado_183656" data-name="Trazado 183656" d="M164.879,141.588c.047.3-23.169,4.2-51.849,8.7S61.051,158.2,61,157.9s23.164-4.2,51.853-8.7,51.975-7.908,52.022-7.605" transform="translate(-5.467 -12.687)" fill="#193540"/>
            <path id="Trazado_183657" data-name="Trazado 183657" d="M149.974,24.3c.011.279-15.584,2.709-34.827,5.428s-34.858,4.7-34.869,4.42,15.579-2.708,34.828-5.429,34.856-4.7,34.868-4.419" transform="translate(-7.194 -2.176)" fill="#193540"/>
            <path id="Trazado_183658" data-name="Trazado 183658" d="M152.393,35.177c.011.279-15.583,2.709-34.826,5.428S82.708,45.3,82.7,45.025s15.58-2.708,34.83-5.429,34.855-4.7,34.867-4.419" transform="translate(-7.411 -3.15)" fill="#193540"/>
            <path id="Trazado_183659" data-name="Trazado 183659" d="M155.314,46.655c.011.279-15.583,2.709-34.826,5.428s-34.859,4.7-34.871,4.42,15.58-2.708,34.83-5.429,34.855-4.7,34.867-4.419" transform="translate(-7.673 -4.179)" fill="#193540"/>
            <path id="Trazado_183660" data-name="Trazado 183660" d="M167.8,160.658c.047.3-23.169,4.2-51.849,8.7s-51.979,7.909-52.026,7.605,23.164-4.2,51.853-8.7,51.975-7.908,52.022-7.605" transform="translate(-5.729 -14.396)" fill="#193540"/>
            <path id="Trazado_183661" data-name="Trazado 183661" d="M170.721,179.729c.047.3-23.169,4.2-51.849,8.7s-51.979,7.909-52.026,7.605,23.164-4.2,51.853-8.7,51.975-7.908,52.022-7.605" transform="translate(-5.991 -16.106)" fill="#193540"/>
            <path id="Trazado_183662" data-name="Trazado 183662" d="M72.341,77.579c.06.743.45,4.029.45,4.029l57.253-8.2-.9-4.795Z" transform="translate(-6.483 -6.149)" fill="#b65534"/>
            <path id="Trazado_183663" data-name="Trazado 183663" d="M50.44,98l.428,5.295L156.929,85.782l-.5-5.774Z" transform="translate(-4.52 -7.17)" fill="#b65534"/>
            <path id="Trazado_183664" data-name="Trazado 183664" d="M53.905,116.664l.428,5.295L160.394,104.45l-.5-5.774Z" transform="translate(-4.831 -8.843)" fill="#b65534"/>
            <path id="Trazado_183665" data-name="Trazado 183665" d="M58.556,136.471c.021.263,1.04,5.379,1.04,5.379l53.153-8.644-.528-6.536Z" transform="translate(-5.248 -11.352)" fill="#b65534"/>
            <path id="Trazado_183666" data-name="Trazado 183666" d="M41.6,33.593l4.763,34.324,31.254-4.375L73.355,29.317Z" transform="translate(-3.728 -2.627)" fill="#193540"/>
            <path id="Trazado_183667" data-name="Trazado 183667" d="M41.6,33.593l4.763,34.324,31.254-4.375L73.355,29.317Z" transform="translate(-3.728 -2.627)" fill="#b65534"/>
          </g>
        </g>
        <g id="Grupo_121649" data-name="Grupo 121649" transform="translate(37.867 26.69)">
          <g id="Grupo_121648" data-name="Grupo 121648" clip-path="url(#clip-path-4)">
            <path id="Trazado_183668" data-name="Trazado 183668" d="M58.164,62.615l9.418-2.548c-.148-1.127-1.035-5.431-1.035-5.431s3.863-1.361,3.169-5.347S66.628,36.3,66.628,36.3a14.06,14.06,0,0,0-13.562,4.339l-.505.564Z" transform="translate(-42.578 -29.912)" fill="#fccb7d"/>
            <path id="Trazado_183669" data-name="Trazado 183669" d="M68.383,43.92a.588.588,0,1,1,.808-.192.588.588,0,0,1-.808.192" transform="translate(-43.971 -30.528)" fill="#193540"/>
            <path id="Trazado_183670" data-name="Trazado 183670" d="M69.084,42.793c-.049.08-.5-.147-1.044-.047s-.893.457-.967.4c-.036-.025,0-.162.152-.326a1.376,1.376,0,0,1,1.606-.279c.195.1.278.218.253.255" transform="translate(-43.877 -30.489)" fill="#193540"/>
            <path id="Trazado_183671" data-name="Trazado 183671" d="M62.37,44.647a.588.588,0,1,1-.759.338.587.587,0,0,1,.759-.338" transform="translate(-43.385 -30.687)" fill="#193540"/>
            <path id="Trazado_183672" data-name="Trazado 183672" d="M62.648,44.543c-.049.08-.5-.147-1.044-.047s-.893.457-.967.4c-.036-.025,0-.162.152-.326a1.375,1.375,0,0,1,1.6-.279c.2.1.279.218.254.255" transform="translate(-43.3 -30.646)" fill="#193540"/>
            <path id="Trazado_183673" data-name="Trazado 183673" d="M66.066,48.633a2.713,2.713,0,0,1,.85-.353c.141-.042.248-.1.243-.175a.788.788,0,0,0-.179-.391l-.641-1.032a15.548,15.548,0,0,1-1.484-2.751,15.474,15.474,0,0,1,1.755,2.586c.214.361.418.706.62,1.045a.937.937,0,0,1,.189.581.381.381,0,0,1-.2.275.915.915,0,0,1-.238.077,2.722,2.722,0,0,1-.911.137" transform="translate(-43.679 -30.627)" fill="#193540"/>
            <path id="Trazado_183674" data-name="Trazado 183674" d="M64.345,50.121c-.635-.233,1.727.542,2.832.279a1.541,1.541,0,0,1-1.674.937c-1.272-.214-1.158-1.215-1.158-1.215" transform="translate(-43.624 -31.177)" fill="#fff"/>
            <path id="Trazado_183675" data-name="Trazado 183675" d="M67.383,56.36a9.408,9.408,0,0,1-5.46-.505s1.76,2.633,5.661,1.534Z" transform="translate(-43.417 -31.695)" fill="#d2b569"/>
            <path id="Trazado_183676" data-name="Trazado 183676" d="M53.129,45.946c-.093-.011-3.006.331-1.9,3.6s4.035,1.07,4.009.975-2.107-4.57-2.107-4.57" transform="translate(-42.436 -30.807)" fill="#fccb7d"/>
            <path id="Trazado_183677" data-name="Trazado 183677" d="M53.936,49.842c-.018-.005-.044.059-.125.136a.6.6,0,0,1-.422.152c-.388-.01-.863-.459-1.078-1.041a1.988,1.988,0,0,1-.117-.869.694.694,0,0,1,.28-.581.3.3,0,0,1,.388.043c.075.076.076.148.1.147s.052-.077-.02-.2a.389.389,0,0,0-.2-.161.456.456,0,0,0-.343.024.843.843,0,0,0-.422.706,2.045,2.045,0,0,0,.11.977A1.56,1.56,0,0,0,53.393,50.3a.646.646,0,0,0,.491-.262c.074-.115.066-.194.053-.2" transform="translate(-42.524 -30.941)" fill="#d2b569"/>
            <path id="Trazado_183678" data-name="Trazado 183678" d="M66.567,35.968c-.523,2.922-4.28,4.739-7.163,5.445,1.129-1.435.34-1.033,1.02-2.02a12.539,12.539,0,0,1-7.534,4.521,5.4,5.4,0,0,1,2.26-7.415c.846-.435,1.791-.639,2.663-1.02.736-.32,1.418-.767,2.178-1.028,2.281-.787,5.966-2.128,6.577,1.517" transform="translate(-42.547 -29.696)" fill="#193540"/>
            <path id="Trazado_183679" data-name="Trazado 183679" d="M54.432,42.938c-.08.411-.076,5.084-.076,5.084l-1.827-4.164Z" transform="translate(-42.575 -30.538)" fill="#193540"/>
            <path id="Trazado_183680" data-name="Trazado 183680" d="M38.155,81.454,46.073,69.8v0a17.676,17.676,0,0,1,5.921-5.617,14.138,14.138,0,0,1,4.069-1.6,17.214,17.214,0,0,0,10.2-1.9,24.941,24.941,0,0,1,8.467.8h0l15.668,3.19L88.13,78.426l-8.3-1.17,1.8,12.191,4.924,17.824-30.163,5.956-2.677-16.5-2.2-11.89L47.95,89.9Z" transform="translate(-41.287 -32.123)" fill="#405d64"/>
          </g>
        </g>
        <g id="Grupo_121651" data-name="Grupo 121651">
          <g id="Grupo_121650" data-name="Grupo 121650" clip-path="url(#clip-path)">
            <path id="Trazado_183682" data-name="Trazado 183682" d="M225.268,295.865l-.037-6.548,12.266-.148.157,9.579-.76.058c-3.382.229-17.213.926-19.485.268-2.533-.736,7.86-3.208,7.86-3.208" transform="translate(-19.448 -25.915)" fill="#b65534"/>
            <path id="Trazado_183683" data-name="Trazado 183683" d="M234.8,299.293a4.252,4.252,0,0,1,1.533-2.634,4.136,4.136,0,0,1,2.857-.927l.044,3.428Z" transform="translate(-21.043 -26.503)" fill="#b65534"/>
            <path id="Trazado_183684" data-name="Trazado 183684" d="M220.189,298.051s-3.64,1.1-3.177,1.694,14.467.418,20.637-.2l-.023-.274-16.333.347s-.39-1.545-1.1-1.566" transform="translate(-19.445 -26.711)" fill="#b65534"/>
            <path id="Trazado_183685" data-name="Trazado 183685" d="M237.822,299.378a1.1,1.1,0,0,1-.21.026l-.605.045-2.228.124c-1.883.092-4.485.184-7.359.223s-5.48.016-7.364-.025l-2.23-.064-.605-.028a1.111,1.111,0,0,1-.211-.02,1.219,1.219,0,0,1,.211-.01h.607l2.23.017c1.884.014,4.485.019,7.36-.019s5.474-.115,7.357-.179l2.23-.077.606-.016a1.114,1.114,0,0,1,.212,0" transform="translate(-19.448 -26.83)" fill="#193540"/>
            <path id="Trazado_183686" data-name="Trazado 183686" d="M221.607,299.792a3.238,3.238,0,0,0-1.2-1.9,1.982,1.982,0,0,1,1.2,1.9" transform="translate(-19.753 -26.696)" fill="#193540"/>
            <path id="Trazado_183687" data-name="Trazado 183687" d="M225.608,297.813c-.035.023-.21-.186-.392-.466s-.3-.524-.269-.546.21.186.392.465.3.524.269.547" transform="translate(-20.159 -26.599)" fill="#193540"/>
            <path id="Trazado_183688" data-name="Trazado 183688" d="M226.682,297.255c-.027.031-.222-.1-.436-.283s-.365-.364-.338-.4.222.1.436.283.365.364.338.4" transform="translate(-20.246 -26.579)" fill="#193540"/>
            <path id="Trazado_183689" data-name="Trazado 183689" d="M227.306,296.036a1.463,1.463,0,0,1-.64.09.325.325,0,1,1,.64-.09" transform="translate(-20.256 -26.525)" fill="#193540"/>
            <path id="Trazado_183690" data-name="Trazado 183690" d="M227.514,295.141a1.8,1.8,0,0,1-1.45.127,4.025,4.025,0,0,1,.726-.059,3.953,3.953,0,0,1,.725-.068" transform="translate(-20.26 -26.449)" fill="#193540"/>
            <path id="Trazado_183691" data-name="Trazado 183691" d="M224.975,296.636a2.292,2.292,0,0,1-.788.005,4.616,4.616,0,0,1-.841-.175,2.274,2.274,0,0,1-.482-.192.423.423,0,0,1-.2-.242.309.309,0,0,1,.116-.317,1.445,1.445,0,0,1,1.793.4,1.412,1.412,0,0,1,.264.523.437.437,0,0,1,.023.213,2.2,2.2,0,0,0-.368-.668,1.42,1.42,0,0,0-.678-.429,1.221,1.221,0,0,0-.939.076c-.124.095-.074.241.066.322a2.388,2.388,0,0,0,.445.184,5.445,5.445,0,0,0,.815.2c.473.078.774.075.774.1" transform="translate(-19.954 -26.487)" fill="#193540"/>
            <path id="Trazado_183692" data-name="Trazado 183692" d="M224.969,296.638a.775.775,0,0,1-.1-.546,1.277,1.277,0,0,1,.208-.578.791.791,0,0,1,.651-.411.314.314,0,0,1,.248.361.864.864,0,0,1-.129.353,2.407,2.407,0,0,1-.366.482,1.147,1.147,0,0,1-.447.325c-.015-.019.155-.144.369-.4a2.726,2.726,0,0,0,.324-.477c.107-.167.177-.468-.022-.5-.2-.016-.4.183-.514.341a1.293,1.293,0,0,0-.217.515,2.885,2.885,0,0,0-.006.532" transform="translate(-20.152 -26.447)" fill="#193540"/>
            <path id="Trazado_183693" data-name="Trazado 183693" d="M239.124,295.689c0,.027-.351-.029-.9.044a3.838,3.838,0,0,0-3.18,2.6c-.181.529-.195.882-.222.879a.7.7,0,0,1,0-.247,3.217,3.217,0,0,1,.126-.664,3.727,3.727,0,0,1,3.268-2.674,3.23,3.23,0,0,1,.675.008.712.712,0,0,1,.242.053" transform="translate(-21.043 -26.493)" fill="#193540"/>
            <path id="Trazado_183694" data-name="Trazado 183694" d="M238.078,290.107a42.849,42.849,0,0,1,.128,5.04,42.849,42.849,0,0,1-.128-5.04" transform="translate(-21.333 -25.999)" fill="#193540"/>
            <path id="Trazado_183695" data-name="Trazado 183695" d="M232.733,298.351a10.076,10.076,0,0,1-3.584.079c0-.043.806,0,1.793-.027s1.786-.095,1.792-.052" transform="translate(-20.536 -26.737)" fill="#193540"/>
            <path id="Trazado_183696" data-name="Trazado 183696" d="M235.693,298.315c.03.03-.064.17-.143.355s-.122.349-.164.347-.066-.193.027-.406.253-.325.279-.3" transform="translate(-21.092 -26.734)" fill="#193540"/>
            <path id="Trazado_183697" data-name="Trazado 183697" d="M236.661,297.062c.03.028-.048.157-.173.288s-.251.212-.28.184.047-.157.173-.288.251-.212.28-.184" transform="translate(-21.168 -26.622)" fill="#193540"/>
            <path id="Trazado_183698" data-name="Trazado 183698" d="M238.054,296.473c-.008.042-.171.042-.35.108s-.308.163-.34.136.068-.2.291-.276.411-.006.4.032" transform="translate(-21.272 -26.564)" fill="#193540"/>
            <path id="Trazado_183699" data-name="Trazado 183699" d="M239.1,296.2c.015.038-.055.1-.156.143s-.2.043-.211,0,.055-.1.156-.143.2-.043.211,0" transform="translate(-21.395 -26.543)" fill="#193540"/>
            <path id="Trazado_183700" data-name="Trazado 183700" d="M293.585,292.192l-2-6.236-11.707,3.665,2.825,9.155.74-.18c3.286-.832,16.651-4.463,18.605-5.794,2.179-1.485-8.467-.61-8.467-.61" transform="translate(-25.083 -25.627)" fill="#b65534"/>
            <path id="Trazado_183701" data-name="Trazado 183701" d="M287.1,298.251a4.265,4.265,0,0,0-2.276-2.028,4.137,4.137,0,0,0-3,.006l1.021,3.272Z" transform="translate(-25.256 -26.522)" fill="#b65534"/>
            <path id="Trazado_183702" data-name="Trazado 183702" d="M299.113,292.527s3.8-.086,3.546.625-13.623,4.887-19.681,6.214l-.063-.268,15.634-4.739s-.109-1.59.564-1.832" transform="translate(-25.355 -26.216)" fill="#b65534"/>
            <path id="Trazado_183703" data-name="Trazado 183703" d="M282.711,299.19a1.141,1.141,0,0,0,.208-.041l.589-.146,2.157-.574c1.818-.5,4.32-1.217,7.065-2.072s5.215-1.685,6.993-2.309l2.1-.754.567-.214a1.189,1.189,0,0,0,.195-.085,1.163,1.163,0,0,0-.2.056l-.576.188-2.116.709c-1.786.6-4.258,1.41-7,2.266s-5.239,1.59-7.049,2.113l-2.143.618-.582.173a1.17,1.17,0,0,0-.2.07" transform="translate(-25.336 -26.258)" fill="#193540"/>
            <path id="Trazado_183704" data-name="Trazado 183704" d="M300.135,294.525a3.243,3.243,0,0,1,.551-2.181,1.984,1.984,0,0,0-.551,2.181" transform="translate(-26.886 -26.2)" fill="#193540"/>
            <path id="Trazado_183705" data-name="Trazado 183705" d="M295.749,293.885c.04.011.142-.242.229-.564a1.3,1.3,0,0,0,.086-.6c-.04-.01-.142.242-.229.564a1.282,1.282,0,0,0-.086.6" transform="translate(-26.504 -26.233)" fill="#193540"/>
            <path id="Trazado_183706" data-name="Trazado 183706" d="M294.537,293.688c.036.021.181-.16.327-.4s.234-.46.2-.481-.181.16-.327.4-.234.46-.2.481" transform="translate(-26.396 -26.241)" fill="#193540"/>
            <path id="Trazado_183707" data-name="Trazado 183707" d="M293.5,292.729a2.794,2.794,0,1,0,.593-.256,1.445,1.445,0,0,0-.593.256" transform="translate(-26.303 -26.2)" fill="#193540"/>
            <path id="Trazado_183708" data-name="Trazado 183708" d="M293.007,291.949a1.8,1.8,0,0,0,1.418-.329,3.947,3.947,0,0,0-.708.169,4,4,0,0,0-.71.159" transform="translate(-26.259 -26.134)" fill="#193540"/>
            <path id="Trazado_183709" data-name="Trazado 183709" d="M295.837,292.587a2.284,2.284,0,0,0,.751-.239,4.7,4.7,0,0,0,.746-.427,2.354,2.354,0,0,0,.4-.332.429.429,0,0,0,.113-.292.309.309,0,0,0-.208-.265,1.446,1.446,0,0,0-1.58.937,1.406,1.406,0,0,0-.088.579c.01.137.035.21.044.208a2.236,2.236,0,0,1,.142-.748,1.418,1.418,0,0,1,.513-.618,1.222,1.222,0,0,1,.916-.219c.147.051.144.206.036.327a2.324,2.324,0,0,1-.367.312,5.323,5.323,0,0,1-.712.444c-.425.22-.712.311-.7.334" transform="translate(-26.513 -26.08)" fill="#193540"/>
            <path id="Trazado_183710" data-name="Trazado 183710" d="M295.93,292.592a.773.773,0,0,0-.076-.55,1.3,1.3,0,0,0-.377-.485.791.791,0,0,0-.747-.188.313.313,0,0,0-.123.42.86.86,0,0,0,.232.3,2.4,2.4,0,0,0,.5.345,1.122,1.122,0,0,0,.525.169c.008-.022-.192-.088-.473-.261a2.746,2.746,0,0,1-.456-.353c-.153-.127-.313-.39-.135-.483a.709.709,0,0,1,.6.165,1.293,1.293,0,0,1,.365.422,2.809,2.809,0,0,1,.171.5" transform="translate(-26.399 -26.109)" fill="#193540"/>
            <path id="Trazado_183711" data-name="Trazado 183711" d="M281.874,296.156c.011.025.325-.137.874-.239a3.842,3.842,0,0,1,3.831,1.486c.335.446.458.778.483.767a.713.713,0,0,0-.074-.237,3.186,3.186,0,0,0-.325-.591,3.726,3.726,0,0,0-3.937-1.528,3.173,3.173,0,0,0-.638.218.712.712,0,0,0-.214.125" transform="translate(-25.261 -26.502)" fill="#193540"/>
            <path id="Trazado_183712" data-name="Trazado 183712" d="M281.535,290.431a42.7,42.7,0,0,0,1.443,4.831,42.7,42.7,0,0,0-1.443-4.831" transform="translate(-25.231 -26.028)" fill="#193540"/>
            <path id="Trazado_183713" data-name="Trazado 183713" d="M288.842,296.616a10.04,10.04,0,0,0,3.431-1.037c-.016-.04-.767.246-1.712.53s-1.727.464-1.719.507" transform="translate(-25.886 -26.489)" fill="#193540"/>
            <path id="Trazado_183714" data-name="Trazado 183714" d="M286.32,297.5c-.02.037.113.143.246.293s.225.294.264.279,0-.2-.153-.377-.34-.231-.357-.195" transform="translate(-25.66 -26.661)" fill="#193540"/>
            <path id="Trazado_183715" data-name="Trazado 183715" d="M285,296.616c-.019.036.095.135.254.219s.3.125.323.088-.094-.135-.253-.219-.3-.125-.324-.088" transform="translate(-25.541 -26.581)" fill="#193540"/>
            <path id="Trazado_183716" data-name="Trazado 183716" d="M283.473,296.486c.021.037.176-.013.367-.006s.343.06.366.024-.127-.168-.362-.172-.393.122-.371.155" transform="translate(-25.405 -26.557)" fill="#193540"/>
            <path id="Trazado_183717" data-name="Trazado 183717" d="M282.426,296.543c0,.041.084.08.192.087s.2-.02.2-.061-.083-.08-.192-.087-.2.02-.2.061" transform="translate(-25.311 -26.571)" fill="#193540"/>
            <path id="Trazado_183718" data-name="Trazado 183718" d="M216.914,153.673,222.638,280.9l19.1.4-3.172-106.513,34.612,107.783L288.79,278.3,253.957,153.673" transform="translate(-19.44 -13.772)" fill="#193540"/>
            <path id="Trazado_183719" data-name="Trazado 183719" d="M277.821,293.886l.891,1.712,16.542-4.821L294.248,288Z" transform="translate(-24.898 -25.81)" fill="#405d64"/>
            <path id="Trazado_183720" data-name="Trazado 183720" d="M293.762,287.3c.1-.029.247.176.331.458s.074.536-.025.565-.247-.176-.331-.459-.074-.535.025-.564" transform="translate(-26.32 -25.748)" fill="#405d64"/>
            <path id="Trazado_183721" data-name="Trazado 183721" d="M292.4,282.764c.1-.029.316.409.487.98s.23,1.057.132,1.086-.316-.409-.487-.98-.23-1.057-.132-1.086" transform="translate(-26.201 -25.341)" fill="#405d64"/>
            <path id="Trazado_183722" data-name="Trazado 183722" d="M291.044,278.226c.1-.029.317.409.487.98s.23,1.057.132,1.086-.316-.409-.487-.98-.23-1.057-.132-1.086" transform="translate(-26.079 -24.934)" fill="#405d64"/>
            <path id="Trazado_183723" data-name="Trazado 183723" d="M289.683,273.688c.1-.029.316.409.487.98s.23,1.057.132,1.086-.316-.409-.487-.98-.23-1.057-.132-1.086" transform="translate(-25.957 -24.528)" fill="#405d64"/>
            <path id="Trazado_183724" data-name="Trazado 183724" d="M288.322,269.151c.1-.029.316.409.487.98s.23,1.057.132,1.086-.316-.409-.487-.98-.23-1.057-.132-1.086" transform="translate(-25.835 -24.121)" fill="#405d64"/>
            <path id="Trazado_183725" data-name="Trazado 183725" d="M286.961,264.613c.1-.029.317.409.487.98s.23,1.057.132,1.086-.316-.409-.487-.98-.23-1.057-.132-1.086" transform="translate(-25.713 -23.714)" fill="#405d64"/>
            <path id="Trazado_183726" data-name="Trazado 183726" d="M285.6,260.075c.1-.029.316.409.487.98s.23,1.057.132,1.086-.316-.409-.487-.98-.23-1.057-.132-1.086" transform="translate(-25.591 -23.308)" fill="#405d64"/>
            <path id="Trazado_183727" data-name="Trazado 183727" d="M284.24,255.537c.1-.029.315.409.486.98s.231,1.057.132,1.086-.316-.409-.487-.98-.229-1.057-.131-1.086" transform="translate(-25.469 -22.901)" fill="#405d64"/>
            <path id="Trazado_183728" data-name="Trazado 183728" d="M282.879,251c.1-.029.316.409.487.98s.23,1.057.132,1.086-.316-.409-.487-.98-.23-1.057-.132-1.086" transform="translate(-25.347 -22.494)" fill="#405d64"/>
            <path id="Trazado_183729" data-name="Trazado 183729" d="M281.518,246.462c.1-.029.316.409.487.98s.23,1.057.132,1.086-.316-.409-.487-.98-.23-1.057-.132-1.086" transform="translate(-25.225 -22.088)" fill="#405d64"/>
            <path id="Trazado_183730" data-name="Trazado 183730" d="M280.157,241.924c.1-.029.317.409.487.98s.23,1.057.132,1.086-.316-.409-.487-.98-.23-1.057-.132-1.086" transform="translate(-25.103 -21.681)" fill="#405d64"/>
            <path id="Trazado_183731" data-name="Trazado 183731" d="M278.8,237.386c.1-.029.316.409.487.98s.23,1.057.132,1.086-.316-.409-.487-.98-.23-1.057-.132-1.086" transform="translate(-24.981 -21.274)" fill="#405d64"/>
            <path id="Trazado_183732" data-name="Trazado 183732" d="M277.435,232.848c.1-.029.316.409.487.98s.23,1.057.132,1.086-.316-.409-.487-.98-.23-1.057-.132-1.086" transform="translate(-24.859 -20.868)" fill="#405d64"/>
            <path id="Trazado_183733" data-name="Trazado 183733" d="M276.075,228.31c.1-.029.316.409.487.98s.23,1.057.132,1.086-.316-.409-.487-.98-.23-1.057-.132-1.086" transform="translate(-24.738 -20.461)" fill="#405d64"/>
            <path id="Trazado_183734" data-name="Trazado 183734" d="M274.714,223.773c.1-.029.316.409.487.98s.23,1.057.132,1.086-.316-.409-.487-.98-.23-1.057-.132-1.086" transform="translate(-24.616 -20.054)" fill="#405d64"/>
            <path id="Trazado_183735" data-name="Trazado 183735" d="M273.353,219.235c.1-.029.316.409.487.98s.23,1.057.132,1.086-.316-.409-.487-.98-.23-1.057-.132-1.086" transform="translate(-24.494 -19.648)" fill="#405d64"/>
            <path id="Trazado_183736" data-name="Trazado 183736" d="M271.992,214.7c.1-.029.316.409.487.98s.23,1.057.132,1.086-.316-.409-.487-.98-.23-1.057-.132-1.086" transform="translate(-24.372 -19.241)" fill="#405d64"/>
            <path id="Trazado_183737" data-name="Trazado 183737" d="M270.631,210.159c.1-.029.317.409.487.98s.23,1.057.132,1.086-.316-.409-.487-.98-.23-1.057-.132-1.086" transform="translate(-24.25 -18.834)" fill="#405d64"/>
            <path id="Trazado_183738" data-name="Trazado 183738" d="M269.271,205.621c.1-.029.315.409.486.98s.231,1.057.133,1.086-.317-.409-.487-.98-.23-1.057-.132-1.086" transform="translate(-24.128 -18.428)" fill="#405d64"/>
            <path id="Trazado_183739" data-name="Trazado 183739" d="M267.91,201.083c.1-.029.316.409.487.98s.23,1.057.132,1.086-.316-.409-.487-.98-.23-1.057-.132-1.086" transform="translate(-24.006 -18.021)" fill="#405d64"/>
            <path id="Trazado_183740" data-name="Trazado 183740" d="M266.549,196.546c.1-.029.316.409.487.98s.23,1.056.132,1.086-.316-.409-.487-.98-.23-1.057-.132-1.086" transform="translate(-23.884 -17.614)" fill="#405d64"/>
            <path id="Trazado_183741" data-name="Trazado 183741" d="M265.188,192.008c.1-.029.316.409.487.98s.23,1.057.132,1.086-.316-.409-.487-.98-.23-1.057-.132-1.086" transform="translate(-23.762 -17.208)" fill="#405d64"/>
            <path id="Trazado_183742" data-name="Trazado 183742" d="M263.827,187.47c.1-.029.317.409.487.98s.23,1.057.132,1.086-.316-.409-.487-.98-.23-1.057-.132-1.086" transform="translate(-23.64 -16.801)" fill="#405d64"/>
            <path id="Trazado_183743" data-name="Trazado 183743" d="M262.466,182.932c.1-.029.316.409.487.98s.23,1.057.132,1.086-.316-.409-.487-.98-.23-1.057-.132-1.086" transform="translate(-23.518 -16.394)" fill="#405d64"/>
            <path id="Trazado_183744" data-name="Trazado 183744" d="M261.106,178.394c.1-.029.316.409.487.98s.23,1.057.132,1.086-.316-.409-.487-.98-.23-1.057-.132-1.086" transform="translate(-23.396 -15.988)" fill="#405d64"/>
            <path id="Trazado_183745" data-name="Trazado 183745" d="M259.745,173.857c.1-.029.316.409.487.98s.23,1.057.132,1.086-.316-.409-.487-.98-.23-1.057-.132-1.086" transform="translate(-23.274 -15.581)" fill="#405d64"/>
            <path id="Trazado_183746" data-name="Trazado 183746" d="M258.384,169.319c.1-.029.316.409.487.98s.23,1.057.132,1.086-.316-.409-.487-.98-.23-1.057-.132-1.086" transform="translate(-23.152 -15.174)" fill="#405d64"/>
            <path id="Trazado_183747" data-name="Trazado 183747" d="M257.023,164.781c.1-.029.316.409.487.98s.23,1.057.132,1.086-.316-.409-.487-.98-.23-1.057-.132-1.086" transform="translate(-23.03 -14.767)" fill="#405d64"/>
            <path id="Trazado_183748" data-name="Trazado 183748" d="M255.662,160.243c.1-.029.316.409.487.98s.23,1.057.132,1.086-.316-.409-.487-.98-.23-1.057-.132-1.086" transform="translate(-22.908 -14.361)" fill="#405d64"/>
            <path id="Trazado_183749" data-name="Trazado 183749" d="M254.642,156.85c.1-.029.247.176.331.458s.074.536-.025.565-.247-.176-.331-.459-.074-.535.025-.564" transform="translate(-22.814 -14.057)" fill="#405d64"/>
            <path id="Trazado_183750" data-name="Trazado 183750" d="M240.55,292.722c.1,0,.2.229.213.523s-.056.537-.158.543-.2-.229-.213-.523.056-.538.157-.543" transform="translate(-21.544 -26.234)" fill="#405d64"/>
            <path id="Trazado_183751" data-name="Trazado 183751" d="M240.357,288.067c.1,0,.2.468.226,1.052s-.043,1.062-.146,1.067-.2-.467-.225-1.052.043-1.063.145-1.067" transform="translate(-21.527 -25.816)" fill="#405d64"/>
            <path id="Trazado_183752" data-name="Trazado 183752" d="M240.214,283.41c.1,0,.2.469.216,1.054s-.052,1.062-.155,1.066-.2-.47-.216-1.055.053-1.062.155-1.065" transform="translate(-21.514 -25.399)" fill="#405d64"/>
            <path id="Trazado_183753" data-name="Trazado 183753" d="M240.1,278.752c.1,0,.2.47.211,1.056s-.056,1.062-.159,1.064-.2-.47-.211-1.055.057-1.062.159-1.065" transform="translate(-21.503 -24.982)" fill="#405d64"/>
            <path id="Trazado_183754" data-name="Trazado 183754" d="M239.984,274.092c.1,0,.2.471.21,1.056s-.057,1.062-.159,1.065-.2-.471-.211-1.056.058-1.062.16-1.065" transform="translate(-21.493 -24.564)" fill="#405d64"/>
            <path id="Trazado_183755" data-name="Trazado 183755" d="M239.863,269.43c.1,0,.2.47.214,1.056s-.054,1.063-.157,1.066-.2-.47-.214-1.056.055-1.063.157-1.066" transform="translate(-21.482 -24.146)" fill="#405d64"/>
            <path id="Trazado_183756" data-name="Trazado 183756" d="M239.71,264.771c.1,0,.2.468.223,1.053s-.046,1.064-.147,1.067-.2-.468-.223-1.053.046-1.063.147-1.067" transform="translate(-21.469 -23.729)" fill="#405d64"/>
            <path id="Trazado_183757" data-name="Trazado 183757" d="M239.515,260.115c.1,0,.2.467.229,1.051s-.038,1.063-.14,1.068-.206-.467-.23-1.051.039-1.063.141-1.068" transform="translate(-21.452 -23.311)" fill="#405d64"/>
            <path id="Trazado_183758" data-name="Trazado 183758" d="M239.333,255.459c.1,0,.2.467.225,1.052s-.043,1.063-.145,1.067-.2-.467-.226-1.052.043-1.063.146-1.067" transform="translate(-21.436 -22.894)" fill="#405d64"/>
            <path id="Trazado_183759" data-name="Trazado 183759" d="M239.17,250.8c.1,0,.2.468.221,1.053s-.047,1.063-.149,1.067-.2-.469-.221-1.054.047-1.062.149-1.066" transform="translate(-21.421 -22.477)" fill="#405d64"/>
            <path id="Trazado_183760" data-name="Trazado 183760" d="M239.027,246.141c.1,0,.2.469.217,1.054s-.052,1.062-.154,1.066-.2-.47-.217-1.055.052-1.062.154-1.065" transform="translate(-21.407 -22.059)" fill="#405d64"/>
            <path id="Trazado_183761" data-name="Trazado 183761" d="M238.905,241.482c.1,0,.2.47.212,1.055s-.056,1.062-.159,1.065-.2-.47-.211-1.055.056-1.062.158-1.065" transform="translate(-21.396 -21.642)" fill="#405d64"/>
            <path id="Trazado_183762" data-name="Trazado 183762" d="M238.8,236.824c.1,0,.195.471.207,1.056s-.061,1.062-.164,1.064-.195-.471-.207-1.056.062-1.062.164-1.064" transform="translate(-21.387 -21.224)" fill="#405d64"/>
            <path id="Trazado_183763" data-name="Trazado 183763" d="M238.725,232.165c.1,0,.193.472.2,1.057s-.066,1.062-.169,1.063-.192-.472-.2-1.057.066-1.061.168-1.063" transform="translate(-21.379 -20.807)" fill="#405d64"/>
            <path id="Trazado_183764" data-name="Trazado 183764" d="M238.669,227.506c.1,0,.19.472.2,1.059s-.071,1.061-.174,1.062-.19-.473-.2-1.059.072-1.062.174-1.062" transform="translate(-21.374 -20.389)" fill="#405d64"/>
            <path id="Trazado_183765" data-name="Trazado 183765" d="M238.634,222.846c.1,0,.188.473.192,1.06s-.077,1.061-.179,1.062-.188-.474-.192-1.06.077-1.061.179-1.062" transform="translate(-21.37 -19.971)" fill="#405d64"/>
            <path id="Trazado_183766" data-name="Trazado 183766" d="M238.624,218.187c.1,0,.186.474.187,1.061s-.082,1.061-.185,1.061-.186-.474-.187-1.061.083-1.061.185-1.061" transform="translate(-21.369 -19.554)" fill="#405d64"/>
            <path id="Trazado_183767" data-name="Trazado 183767" d="M238.637,213.527c.1,0,.184.475.181,1.062s-.087,1.06-.19,1.06-.183-.476-.18-1.062.087-1.06.189-1.06" transform="translate(-21.37 -19.136)" fill="#405d64"/>
            <path id="Trazado_183768" data-name="Trazado 183768" d="M238.673,208.867c.1,0,.181.476.176,1.062s-.093,1.06-.195,1.059-.181-.477-.176-1.062.093-1.06.195-1.059" transform="translate(-21.372 -18.719)" fill="#405d64"/>
            <path id="Trazado_183769" data-name="Trazado 183769" d="M238.733,204.208c.1,0,.178.477.17,1.063s-.1,1.059-.2,1.058-.178-.478-.17-1.063.1-1.06.2-1.058" transform="translate(-21.377 -18.301)" fill="#405d64"/>
            <path id="Trazado_183770" data-name="Trazado 183770" d="M238.816,199.55c.1,0,.176.479.165,1.064s-.1,1.059-.2,1.057-.177-.478-.166-1.064.1-1.059.206-1.057" transform="translate(-21.384 -17.884)" fill="#405d64"/>
            <path id="Trazado_183771" data-name="Trazado 183771" d="M238.92,194.889c.1,0,.174.48.159,1.066s-.108,1.059-.211,1.056-.174-.479-.159-1.065.109-1.06.211-1.057" transform="translate(-21.393 -17.466)" fill="#405d64"/>
            <path id="Trazado_183772" data-name="Trazado 183772" d="M239.082,190.227c.1,0,.167.482.143,1.068s-.125,1.057-.227,1.053-.167-.482-.144-1.068.126-1.058.228-1.053" transform="translate(-21.406 -17.048)" fill="#405d64"/>
            <path id="Trazado_183773" data-name="Trazado 183773" d="M239.35,185.573c.1.007.154.487.116,1.071s-.152,1.052-.254,1.047-.154-.485-.116-1.072.152-1.053.254-1.046" transform="translate(-21.427 -16.631)" fill="#405d64"/>
            <path id="Trazado_183774" data-name="Trazado 183774" d="M239.771,180.932c.1.012.137.493.077,1.074s-.19,1.045-.292,1.036-.137-.49-.076-1.074.189-1.048.291-1.036" transform="translate(-21.459 -16.215)" fill="#405d64"/>
            <path id="Trazado_183775" data-name="Trazado 183775" d="M240.226,177.469c.1.015.15.264.108.554s-.157.517-.259.5-.15-.261-.108-.554.158-.518.259-.5" transform="translate(-21.504 -15.905)" fill="#405d64"/>
            <path id="Trazado_183776" data-name="Trazado 183776" d="M222.654,293.805l20.2.33-.158-3.366-20.041.106Z" transform="translate(-19.954 -26.059)" fill="#405d64"/>
            <path id="Trazado_183777" data-name="Trazado 183777" d="M237.2,155.445a3.191,3.191,0,0,1,.12.777c.054.5.118,1.23.191,2.129.145,1.8.32,4.286.49,7.034.079,1.369.156,2.675.225,3.875a11.912,11.912,0,0,0,.37,3.1,2.621,2.621,0,0,0,1.288,1.531,3.821,3.821,0,0,0,.736.211c0,.011-.069.029-.2.033a1.634,1.634,0,0,1-.587-.111,2.682,2.682,0,0,1-1.478-1.573,11.2,11.2,0,0,1-.464-3.165c-.079-1.2-.165-2.5-.255-3.874-.169-2.748-.3-5.237-.381-7.04-.038-.9-.064-1.631-.073-2.137a3.215,3.215,0,0,1,.024-.787" transform="translate(-21.255 -13.931)" fill="#405d64"/>
            <path id="Trazado_183778" data-name="Trazado 183778" d="M239.313,157.286c.029.047-.16.174-.178.474a.576.576,0,0,0,.147.435.505.505,0,0,0,.808-.329.574.574,0,0,0-.2-.414c-.221-.2-.445-.162-.458-.217-.034-.035.236-.215.612,0a.8.8,0,0,1,.386.616.821.821,0,0,1-1.4.57.8.8,0,0,1-.155-.711c.117-.42.436-.478.436-.43" transform="translate(-21.406 -14.082)" fill="#405d64"/>
            <path id="Trazado_183779" data-name="Trazado 183779" d="M258.183,160.205a3.672,3.672,0,0,1-1.587.605,6.718,6.718,0,0,1-7.119-3.183,3.649,3.649,0,0,1-.607-1.585c.06-.023.257.6.828,1.445a6.981,6.981,0,0,0,6.855,3.063c1.012-.139,1.606-.406,1.63-.346" transform="translate(-22.303 -13.984)" fill="#405d64"/>
            <path id="Trazado_183780" data-name="Trazado 183780" d="M223.6,155.446a2.713,2.713,0,0,1-.067,1.378,5.422,5.422,0,0,1-4.77,4.18,2.7,2.7,0,0,1-1.375-.114c.005-.062.528-.006,1.34-.147a5.688,5.688,0,0,0,4.552-3.987c.245-.787.259-1.313.32-1.31" transform="translate(-19.482 -13.931)" fill="#405d64"/>
            <path id="Trazado_183781" data-name="Trazado 183781" d="M218.1,93.912s-19.029,8.045-19.635,7.741c-.518-.259-1.031-15.636-1.031-15.636h-9.493s-1.8,22.737,3.909,26.377c7.8,4.977,26.674-5.381,26.674-5.381Z" transform="translate(-16.819 -7.709)" fill="#fccb7d"/>
            <path id="Trazado_183782" data-name="Trazado 183782" d="M151.1,63.866l-1.955,8.5,9.13,2.173s3.754.833,7.489,6.152,5.176,7.705,5.176,7.705l6.324-31.25-6.866,4.863a14.865,14.865,0,0,1-4.468,2.148,23.47,23.47,0,0,1-6.033,1.143,66.427,66.427,0,0,1-8.8-1.439" transform="translate(-13.366 -5.122)" fill="#193540"/>
            <path id="Trazado_183783" data-name="Trazado 183783" d="M255.684,100.136,173.084,88.4l6.323-31.25L259.722,76.5a3.523,3.523,0,0,1,2.653,3.99l-2.718,16.726a3.523,3.523,0,0,1-3.973,2.923" transform="translate(-15.512 -5.122)" fill="#b65534"/>
            <path id="Trazado_183784" data-name="Trazado 183784" d="M143.15,64.965a.354.354,0,0,0-.414.419,48.46,48.46,0,0,0,1.362,5.472c.189.491,4.762.937,4.762.937l1.264-5.492Z" transform="translate(-12.791 -5.822)" fill="#b65534"/>
            <path id="Trazado_183785" data-name="Trazado 183785" d="M251.3,90.989l1.26-5.05L199.2,75.109l-1.088,5.084Z" transform="translate(-17.755 -6.731)" fill="#193540"/>
            <path id="Trazado_183786" data-name="Trazado 183786" d="M243.492,89.321,231.7,88.38c-.074-1.377.025-6.7.025-6.7s-4.906-.763-4.967-5.668.79-16.17.79-16.17a17.049,17.049,0,0,1,17.132,2.153l.726.56Z" transform="translate(-20.322 -5.238)" fill="#fccb7d"/>
            <path id="Trazado_183787" data-name="Trazado 183787" d="M228.749,69.113a.712.712,0,1,0-1.006-.049.712.712,0,0,0,1.006.049" transform="translate(-20.394 -6.083)" fill="#193540"/>
            <path id="Trazado_183788" data-name="Trazado 183788" d="M227.559,67.936c.076.085.559-.286,1.234-.289s1.166.345,1.241.259c.037-.038-.04-.192-.254-.354a1.662,1.662,0,0,0-1.975.024c-.21.168-.283.323-.246.361" transform="translate(-20.393 -6.026)" fill="#193540"/>
            <path id="Trazado_183789" data-name="Trazado 183789" d="M236.077,68.642a.712.712,0,1,0,.98.234.712.712,0,0,0-.98-.234" transform="translate(-21.127 -6.142)" fill="#193540"/>
            <path id="Trazado_183790" data-name="Trazado 183790" d="M235.62,68.589c.076.085.559-.286,1.234-.289s1.166.345,1.241.259c.037-.038-.04-.191-.254-.354a1.662,1.662,0,0,0-1.975.024c-.21.168-.283.323-.246.361" transform="translate(-21.115 -6.084)" fill="#193540"/>
            <path id="Trazado_183791" data-name="Trazado 183791" d="M232.472,74.2a3.276,3.276,0,0,0-1.092-.231c-.177-.019-.316-.059-.329-.155a.969.969,0,0,1,.127-.506c.174-.446.35-.9.534-1.373a18.813,18.813,0,0,0,1.157-3.609,18.818,18.818,0,0,0-1.517,3.473l-.506,1.384a1.132,1.132,0,0,0-.1.735.466.466,0,0,0,.3.282,1.116,1.116,0,0,0,.3.039,3.286,3.286,0,0,0,1.116-.039" transform="translate(-20.677 -6.124)" fill="#193540"/>
            <path id="Trazado_183792" data-name="Trazado 183792" d="M234.73,75.594c.7-.419-1.938,1.03-3.314.962a1.869,1.869,0,0,0,2.2.744c1.468-.537,1.11-1.706,1.11-1.706" transform="translate(-20.739 -6.768)" fill="#fff"/>
            <path id="Trazado_183793" data-name="Trazado 183793" d="M232.2,83.706a11.41,11.41,0,0,0,6.4-1.817s-1.512,3.53-6.406,3.088Z" transform="translate(-20.809 -7.339)" fill="#d2b569"/>
            <path id="Trazado_183794" data-name="Trazado 183794" d="M247.108,68.167c.108-.034,3.656-.274,3.068,3.862s-4.572,2.173-4.562,2.054,1.494-5.916,1.494-5.916" transform="translate(-22.012 -6.108)" fill="#fccb7d"/>
            <path id="Trazado_183795" data-name="Trazado 183795" d="M247.232,72.958c.02-.011.065.061.178.134a.733.733,0,0,0,.537.088A1.8,1.8,0,0,0,249,71.7a2.4,2.4,0,0,0-.055-1.061.838.838,0,0,0-.463-.63.371.371,0,0,0-.453.137c-.072.108-.057.194-.08.2s-.079-.082-.021-.249a.463.463,0,0,1,.2-.236.55.55,0,0,1,.413-.048,1.022,1.022,0,0,1,.662.748,2.472,2.472,0,0,1,.086,1.188,1.892,1.892,0,0,1-1.305,1.637.782.782,0,0,1-.644-.2c-.114-.12-.122-.216-.107-.221" transform="translate(-22.156 -6.255)" fill="#d2b569"/>
            <path id="Trazado_183796" data-name="Trazado 183796" d="M227.64,59.461c1.273,3.367,6.156,4.7,9.75,4.9-1.665-1.459-.636-1.157-1.665-2.182a15.2,15.2,0,0,0,9.985,3.713,6.55,6.55,0,0,0-4.343-8.335c-1.105-.33-2.277-.363-3.4-.623-.95-.218-1.862-.6-2.825-.741-2.893-.43-7.584-1.209-7.5,3.272" transform="translate(-20.401 -5.005)" fill="#193540"/>
            <path id="Trazado_183797" data-name="Trazado 183797" d="M245.062,64.868c.187.472,1.221,6.042,1.221,6.042l1.252-5.37Z" transform="translate(-21.962 -5.813)" fill="#193540"/>
            <path id="Trazado_183798" data-name="Trazado 183798" d="M281.239,136.832a11.921,11.921,0,0,0-.054-15.708l-19.047-21.6-5.1,14.25c.348.232,14.83,15.757,14.83,15.757l-12.446,15.51a8.926,8.926,0,0,0-1.478,8.491l3.325,8.142,9.1-4.085-.691-1.062h-6.834l-.406-1.638Z" transform="translate(-23.036 -8.92)" fill="#fccb7d"/>
            <path id="Trazado_183799" data-name="Trazado 183799" d="M267.215,107.736l-12.03-12.127v0a21.445,21.445,0,0,0-8.307-5.378,17.146,17.146,0,0,0-5.206-1,20.869,20.869,0,0,1-12.574.007,30.284,30.284,0,0,0-9.914,2.839v0L201.22,99.369l5.755,15.879,9.631-3.241.569,14.93-1.9,22.342,37.276.386-.482-20.263-.027-14.66,5.379,5.236Z" transform="translate(-18.033 -7.997)" fill="#405d64"/>
          </g>
        </g>
      </g>
    </g>
    <rect id="Rectángulo_38861" data-name="Rectángulo 38861" width="395" height="292" transform="translate(-19378 -10031)" fill="none"/>
  </g>
</svg>
