<svg id="Grupo_121506" data-name="Grupo 121506" xmlns="http://www.w3.org/2000/svg" xmlns:xlink="http://www.w3.org/1999/xlink" width="86.72" height="114.435" viewBox="0 0 86.72 114.435">
  <defs>
    <clipPath id="clip-path">
      <rect id="Rectángulo_38429" data-name="Rectángulo 38429" width="86.72" height="114.435" fill="none"/>
    </clipPath>
  </defs>
  <g id="Grupo_121505" data-name="Grupo 121505" clip-path="url(#clip-path)">
    <path id="Trazado_183429" data-name="Trazado 183429" d="M62.694,87.055a3.352,3.352,0,0,1-3.353,3.353l-53.064-.45c-1.776,0-4.593-2.679-4.593-2.679,0-.075-.007-.148-.007-.224V5.029A3.351,3.351,0,0,1,5.029,1.677H59.341a3.351,3.351,0,0,1,3.353,3.352V9.723l-.64,1.334Z" fill="#e8e8e8"/>
    <path id="Trazado_183430" data-name="Trazado 183430" d="M62.694,9.722H16.2A6.482,6.482,0,0,0,9.723,16.2V85.938a1.342,1.342,0,0,1-1.341,1.341h-6.7a3.354,3.354,0,0,0,3.345,3.129H59.341a3.387,3.387,0,0,0,3.344-3.129h0c.006-.075.012-.148.012-.224Z" fill="#dcdbdd"/>
    <path id="Trazado_183431" data-name="Trazado 183431" d="M68.749,95.325c0,1.852-1.5,3.353-2.365,2.673L17.19,100.9c-2.762.68-4.332-2.449-4.332-2.449,0-.074-.006-.148-.006-.223V16.2A3.352,3.352,0,0,1,16.2,12.851H70.516A3.353,3.353,0,0,1,73.869,16.2V26.373Z" fill="#e8e8e8"/>
    <path id="Trazado_183432" data-name="Trazado 183432" d="M73.869,26.373l-4.261-4.237A4.207,4.207,0,0,0,66.614,20.9H27.38A6.482,6.482,0,0,0,20.9,27.379V97.113a1.342,1.342,0,0,1-1.341,1.341h-6.7a3.354,3.354,0,0,0,3.345,3.129H70.516a3.387,3.387,0,0,0,3.344-3.129h0c.006-.075.012-.148.012-.224Z" fill="#dcdbdd"/>
    <path id="Trazado_183433" data-name="Trazado 183433" d="M85.044,42.372v67.034c0,.076,0,.151-.007.224,0,0-2.021,2.712-3.8,2.712l-53.106-.228a3.351,3.351,0,0,1-3.353-3.353l-.228-80.975c0-1.777,2.6-3.752,2.6-3.752.074-.005.148-.007.223-.007H66.613a1.118,1.118,0,0,1,.461.1,2.494,2.494,0,0,0,.249.356L84.446,41.635a2.775,2.775,0,0,0,.5.271,1.129,1.129,0,0,1,.1.466" fill="#f9f8f9"/>
    <path id="Trazado_183434" data-name="Trazado 183434" d="M46.378,94.208a6.709,6.709,0,0,0-10.036-5.822s-2.887,3.357-2.887,5.848c0,3.7,2.616,5.963,6.32,5.963,2.833,0,6.135-3.522,6.135-3.522a6.716,6.716,0,0,0,.468-2.467" fill="#ffa95f"/>
    <path id="Trazado_183435" data-name="Trazado 183435" d="M45.91,96.674a6.707,6.707,0,1,1-9.568-8.288,6.622,6.622,0,0,0-.469,2.469A6.706,6.706,0,0,0,45.91,96.674" fill="#ff9161"/>
    <path id="Trazado_183436" data-name="Trazado 183436" d="M85.037,109.63a3.355,3.355,0,0,1-3.346,3.129H27.379a3.351,3.351,0,0,1-3.352-3.352V27.38a3.353,3.353,0,0,1,3.129-3.346V105.16a4.47,4.47,0,0,0,4.47,4.47Z" fill="#e8e8e8"/>
    <path id="Trazado_183437" data-name="Trazado 183437" d="M67.969,38.555H34.085a.9.9,0,0,1-.9-.894V32.744a.9.9,0,0,1,.9-.894H67.969a.894.894,0,0,1,.894.894v4.917a.894.894,0,0,1-.894.894" fill="#afefa5"/>
    <path id="Trazado_183438" data-name="Trazado 183438" d="M84.943,41.906H70.427a3.353,3.353,0,0,1-3.353-3.352V24.126a1.079,1.079,0,0,1,.328.227L84.716,41.579a1.068,1.068,0,0,1,.227.327" fill="#e8e8e8"/>
    <path id="Trazado_183439" data-name="Trazado 183439" d="M85.9,40.391,75.546,30.09V16.2a5.035,5.035,0,0,0-5.029-5.029H64.37V5.028A5.035,5.035,0,0,0,59.341,0H5.029A5.035,5.035,0,0,0,0,5.028V18.439a1.677,1.677,0,0,0,3.353,0V5.028A1.678,1.678,0,0,1,5.029,3.352H59.341a1.678,1.678,0,0,1,1.677,1.676v6.147H16.2A5.035,5.035,0,0,0,11.176,16.2V88.731H5.029a1.678,1.678,0,0,1-1.676-1.676V26.261a1.677,1.677,0,0,0-3.353,0V87.055a5.035,5.035,0,0,0,5.029,5.029h6.147V98.23a5.035,5.035,0,0,0,5.029,5.029h6.146v6.147a5.035,5.035,0,0,0,5.029,5.029H81.692a5.035,5.035,0,0,0,5.029-5.029V42.371a2.811,2.811,0,0,0-.823-1.98M68.751,28.059,80.983,40.23H70.427a1.677,1.677,0,0,1-1.676-1.676Zm12.941,83.023H27.38a1.678,1.678,0,0,1-1.676-1.676V87.726a1.677,1.677,0,1,0-3.353,0V99.907H16.2a1.679,1.679,0,0,1-1.677-1.677V16.2A1.679,1.679,0,0,1,16.2,14.527H70.517A1.678,1.678,0,0,1,72.193,16.2V26.755l-3.609-3.592a2.778,2.778,0,0,0-1.971-.813H27.38a5.035,5.035,0,0,0-5.029,5.029V79.9a1.677,1.677,0,0,0,3.353,0V27.379A1.677,1.677,0,0,1,27.38,25.7H65.4v4.47H52.189a1.676,1.676,0,0,0,0,3.352H65.4v3.353H34.867V33.525h9.5a1.676,1.676,0,1,0,0-3.352H33.191a1.677,1.677,0,0,0-1.676,1.676v6.7a1.677,1.677,0,0,0,1.676,1.676h32.5a5.035,5.035,0,0,0,4.74,3.353H83.368v65.823a1.678,1.678,0,0,1-1.676,1.676"/>
    <path id="Trazado_183440" data-name="Trazado 183440" d="M75.652,63.7H62.206a1.677,1.677,0,1,0,0,3.353H75.651a1.677,1.677,0,0,0,0-3.353"/>
    <path id="Trazado_183441" data-name="Trazado 183441" d="M33.116,67.052H54.383a1.677,1.677,0,0,0,0-3.353H33.116a1.677,1.677,0,0,0,0,3.353"/>
    <path id="Trazado_183442" data-name="Trazado 183442" d="M33.116,60.346H75.652a1.677,1.677,0,0,0,0-3.353H33.116a1.677,1.677,0,0,0,0,3.353"/>
    <path id="Trazado_183443" data-name="Trazado 183443" d="M45.443,51.406H63.324a1.676,1.676,0,0,0,0-3.353H45.443a1.676,1.676,0,0,0,0,3.353"/>
    <path id="Trazado_183444" data-name="Trazado 183444" d="M76.029,70.4H33.116a1.677,1.677,0,1,0,0,3.353H76.029a1.677,1.677,0,0,0,0-3.353"/>
    <path id="Trazado_183445" data-name="Trazado 183445" d="M76.029,77.109H33.116a1.676,1.676,0,1,0,0,3.353H76.029a1.676,1.676,0,0,0,0-3.353"/>
    <path id="Trazado_183446" data-name="Trazado 183446" d="M75.88,95.884H66.94a1.676,1.676,0,1,0,0,3.353h8.94a1.676,1.676,0,0,0,0-3.353"/>
    <path id="Trazado_183447" data-name="Trazado 183447" d="M75.88,89.179H60.235a1.676,1.676,0,1,0,0,3.353H75.88a1.676,1.676,0,0,0,0-3.353"/>
    <path id="Trazado_183448" data-name="Trazado 183448" d="M39.672,85.827a8.381,8.381,0,1,0,8.381,8.381,8.39,8.39,0,0,0-8.381-8.381m0,13.41A5.029,5.029,0,1,1,44.7,94.208a5.035,5.035,0,0,1-5.029,5.029"/>
  </g>
</svg>
