<svg id="Grupo_121513" data-name="Grupo 121513" xmlns="http://www.w3.org/2000/svg" xmlns:xlink="http://www.w3.org/1999/xlink" width="114.435" height="96.108" viewBox="0 0 114.435 96.108">
  <defs>
    <clipPath id="clip-path">
      <rect id="Rectángulo_38432" data-name="Rectángulo 38432" width="114.435" height="96.108" transform="translate(0 0)" fill="none"/>
    </clipPath>
  </defs>
  <g id="Grupo_121512" data-name="Grupo 121512" clip-path="url(#clip-path)">
    <path id="Trazado_183465" data-name="Trazado 183465" d="M112.759,5.029V53.195l-9.87-5.443a2.236,2.236,0,0,0-2.6.011L83.48,59.911,76.774,57.37l-9.792-6.629a2.233,2.233,0,0,0-2.373-.085l-7.814,4.589-9.479-5.709a2.234,2.234,0,0,0-2.32.009l-7.335,4.49-6.929,3.742L16.457,46.559a2.237,2.237,0,0,0-2.75-.011L2.659,54.281,2.045,5.447c0-1.85,1.153-3.638,3-3.638l.2-.133H109.406a3.354,3.354,0,0,1,3.353,3.353" fill="#bde4ff"/>
    <path id="Trazado_183466" data-name="Trazado 183466" d="M112.759,53.195V90.856l-.477.344c0,1.851-2.012,2.8-3.863,2.8L6.6,93.35A3.354,3.354,0,0,1,3.243,90L1.676,54.281l12.031-9.3a2.238,2.238,0,0,1,2.75.012L30.732,56.212l6.929-3.741L45,47.981a2.232,2.232,0,0,1,2.32-.009l9.479,5.708,2.187-.469,1.1-1.463,4.523-2.657a2.235,2.235,0,0,1,2.373.086l9.792,6.629,6.706,2.541L100.285,46.2a2.236,2.236,0,0,1,2.6-.011Z" fill="#afefa5"/>
    <path id="Trazado_183467" data-name="Trazado 183467" d="M5.252,1.676V51.518l-1.788,4.91L1.676,54.28V5.029A3.354,3.354,0,0,1,5.029,1.676Z" fill="#99dbff"/>
    <path id="Trazado_183468" data-name="Trazado 183468" d="M30.956,13.969V9.5a1.119,1.119,0,0,1,1.118-1.118h4.47A1.118,1.118,0,0,1,37.661,9.5v4.47a1.118,1.118,0,0,1-1.117,1.118h-4.47a1.119,1.119,0,0,1-1.118-1.118" fill="#f9f8f9"/>
    <path id="Trazado_183469" data-name="Trazado 183469" d="M90.185,73.2v-4.47A1.119,1.119,0,0,1,91.3,67.61h4.47a1.118,1.118,0,0,1,1.117,1.118V73.2a1.118,1.118,0,0,1-1.117,1.118H91.3A1.119,1.119,0,0,1,90.185,73.2" fill="#f9f8f9"/>
    <path id="Trazado_183470" data-name="Trazado 183470" d="M95.1,25.7A15.533,15.533,0,0,0,69.8,13.626s-5.073,7.2-5.073,12.077c0,8.579,6.263,14.651,14.842,14.651,5.3,0,9.267-2.184,12.789-5.832A15.459,15.459,0,0,0,95.1,25.7" fill="#ffe07d"/>
    <path id="Trazado_183471" data-name="Trazado 183471" d="M92.369,34.505A15.534,15.534,0,1,1,69.9,13.545a15.534,15.534,0,0,0,22.47,20.96" fill="#ffd064"/>
    <path id="Trazado_183472" data-name="Trazado 183472" d="M36.543,35.2h-4.47a1.119,1.119,0,0,0-1.118,1.118V70.963a3.353,3.353,0,0,0,3.353,3.353H68.951A1.119,1.119,0,0,0,70.069,73.2v-4.47a1.119,1.119,0,0,0-1.118-1.118H38.108a.447.447,0,0,1-.447-.447V36.32A1.119,1.119,0,0,0,36.543,35.2" fill="#f9f8f9"/>
    <path id="Trazado_183473" data-name="Trazado 183473" d="M17.545,22.909v4.47A1.119,1.119,0,0,0,18.663,28.5H76.327a.447.447,0,0,1,.447.447V86.608a1.119,1.119,0,0,0,1.118,1.118h4.47a1.118,1.118,0,0,0,1.117-1.118V25.144a3.352,3.352,0,0,0-3.352-3.353H18.663a1.119,1.119,0,0,0-1.118,1.118" fill="#f9f8f9"/>
    <path id="Trazado_183474" data-name="Trazado 183474" d="M70.045,59.7a1.676,1.676,0,0,1-2.3.573L56.795,53.68l3.291-1.932L69.472,57.4a1.675,1.675,0,0,1,.573,2.3" fill="#8ce1a4"/>
    <path id="Trazado_183475" data-name="Trazado 183475" d="M112.759,90.855v.223a3.351,3.351,0,0,1-3.353,3.353H5.029a3.352,3.352,0,0,1-3.353-3.353V54.28l3.576-2.762V86.161a4.694,4.694,0,0,0,4.694,4.694Z" fill="#8ce1a4"/>
    <path id="Trazado_183476" data-name="Trazado 183476" d="M109.406,0H5.028A5.034,5.034,0,0,0,0,5.029V15.793a1.676,1.676,0,0,0,3.352,0V5.029A1.678,1.678,0,0,1,5.028,3.352H109.406a1.678,1.678,0,0,1,1.676,1.677v44.92l-7.223-5.129a3.907,3.907,0,0,0-4.555.02L85.156,55.066V41.983A17.218,17.218,0,0,0,96.778,25.7c0-.511-.022-1.025-.068-1.531a1.676,1.676,0,0,0-3.34.295c.037.408.055.824.055,1.236a13.864,13.864,0,0,1-8.269,12.684V25.144a5.035,5.035,0,0,0-5.029-5.029H66.883A13.863,13.863,0,0,1,91.06,17.956a1.676,1.676,0,1,0,2.777-1.877,17.213,17.213,0,0,0-30.549,4.036H18.662a2.8,2.8,0,0,0-2.793,2.794v4.47a2.8,2.8,0,0,0,2.793,2.794H42.033a1.676,1.676,0,0,0,0-3.352H19.221V23.468H80.127A1.678,1.678,0,0,1,81.8,25.144V86.05H78.45V28.5a1.677,1.677,0,0,0-1.676-1.676H49.856a1.676,1.676,0,1,0,0,3.352h13.09A17.312,17.312,0,0,0,75.1,42.325V52.646l-7.176-4.859a3.93,3.93,0,0,0-4.147-.15l-7.046,4.048-8.547-5.149a3.9,3.9,0,0,0-4.061.014l-4.784,2.928V36.32a2.8,2.8,0,0,0-2.794-2.794h-4.47a2.8,2.8,0,0,0-2.794,2.794V52.938L17.491,43.677a3.908,3.908,0,0,0-4.808-.02L3.352,50.866V23.616a1.676,1.676,0,0,0-3.352,0V91.079a5.034,5.034,0,0,0,5.028,5.029H109.406a5.035,5.035,0,0,0,5.029-5.029V5.029A5.035,5.035,0,0,0,109.406,0M66.451,30.173H75.1v8.648a13.955,13.955,0,0,1-8.647-8.648m42.955,62.582H5.028a1.678,1.678,0,0,1-1.676-1.676V55.1L14.733,46.31a.559.559,0,0,1,.687,0L29.279,57.2V70.963a5.035,5.035,0,0,0,5.029,5.029h16.2a1.676,1.676,0,0,0,0-3.353h-16.2a1.677,1.677,0,0,1-1.676-1.676V36.878h3.352V67.611a1.677,1.677,0,0,0,1.676,1.676H68.393v3.352H58.335a1.676,1.676,0,1,0,0,3.353H68.951A2.8,2.8,0,0,0,71.745,73.2v-4.47a2.8,2.8,0,0,0-2.794-2.794H39.337V53.41l6.534-4a.557.557,0,0,1,.581,0L64.957,60.554a1.676,1.676,0,1,0,1.73-2.872l-6.671-4.019,5.434-3.12a.555.555,0,0,1,.592.021L75.1,56.695V86.609A2.8,2.8,0,0,0,77.892,89.4h4.47a2.8,2.8,0,0,0,2.794-2.793V59.2l16.112-11.646a.557.557,0,0,1,.651,0l9.163,6.507V91.079a1.678,1.678,0,0,1-1.676,1.676"/>
    <path id="Trazado_183477" data-name="Trazado 183477" d="M36.543,16.763a2.8,2.8,0,0,0,2.794-2.794V9.5A2.8,2.8,0,0,0,36.543,6.7h-4.47A2.8,2.8,0,0,0,29.279,9.5v4.47a2.8,2.8,0,0,0,2.794,2.794Zm-3.911-6.705h3.353v3.353H32.632Z"/>
    <path id="Trazado_183478" data-name="Trazado 183478" d="M95.773,65.935H91.3a2.8,2.8,0,0,0-2.793,2.793V73.2A2.8,2.8,0,0,0,91.3,75.992h4.471A2.8,2.8,0,0,0,98.566,73.2V68.728a2.8,2.8,0,0,0-2.793-2.793m-.559,6.705H91.861V69.287h3.353Z"/>
  </g>
</svg>
