<svg id="Grupo_121517" data-name="Grupo 121517" xmlns="http://www.w3.org/2000/svg" xmlns:xlink="http://www.w3.org/1999/xlink" width="114.435" height="114.435" viewBox="0 0 114.435 114.435">
  <defs>
    <clipPath id="clip-path">
      <rect id="Rect치ngulo_38439" data-name="Rect치ngulo 38439" width="114.435" height="114.435" fill="none"/>
    </clipPath>
  </defs>
  <g id="Grupo_121516" data-name="Grupo 121516" clip-path="url(#clip-path)">
    <path id="Trazado_183483" data-name="Trazado 183483" d="M111.482,19.556l1.277,3.576v86.274a3.353,3.353,0,0,1-3.353,3.352H5.252l-.292-.3c-1.851,0-2.948-1.611-2.948-3.462l.969-89.443Z" fill="#857e87"/>
    <path id="Trazado_183484" data-name="Trazado 183484" d="M112.759,19.556,55.1,16.65,1.676,19.556v89.85a3.352,3.352,0,0,0,3.353,3.352h.223V25.368a2.236,2.236,0,0,1,2.235-2.236H112.759Z" fill="#6f6571"/>
    <path id="Trazado_183485" data-name="Trazado 183485" d="M112.759,5.029V19.557H1.676V5.029A3.354,3.354,0,0,1,5.029,1.676H109.406a3.354,3.354,0,0,1,3.353,3.353" fill="#f9f8f9"/>
    <path id="Trazado_183486" data-name="Trazado 183486" d="M25.489,13,20.437,8.622l-2.176,2.349.005,0A3.35,3.35,0,1,0,23.08,15.63v0Z" fill="#e8e8e8"/>
    <path id="Trazado_183487" data-name="Trazado 183487" d="M26.486,10.616a3.352,3.352,0,1,1-3.354-3.353,3.352,3.352,0,0,1,3.354,3.353" fill="#ffe07d"/>
    <path id="Trazado_183488" data-name="Trazado 183488" d="M38.005,13,32.953,8.622l-2.176,2.349,0,0A3.35,3.35,0,1,0,35.6,15.63v0Z" fill="#e8e8e8"/>
    <path id="Trazado_183489" data-name="Trazado 183489" d="M39,10.616a3.352,3.352,0,1,1-3.353-3.353A3.352,3.352,0,0,1,39,10.616" fill="#afefa5"/>
    <path id="Trazado_183490" data-name="Trazado 183490" d="M12.973,13,7.921,8.622,5.745,10.971l.005,0a3.35,3.35,0,1,0,4.814,4.661v0Z" fill="#e8e8e8"/>
    <path id="Trazado_183491" data-name="Trazado 183491" d="M13.969,10.616a3.352,3.352,0,1,1-3.353-3.353,3.352,3.352,0,0,1,3.353,3.353" fill="#e15f78"/>
    <rect id="Rect치ngulo_38438" data-name="Rect치ngulo 38438" width="88.285" height="70.852" transform="translate(13.075 30.732)" fill="#ffa95f"/>
    <path id="Trazado_183492" data-name="Trazado 183492" d="M97.784,93.984a4.029,4.029,0,0,0-3.793,2.691.671.671,0,0,1-.636.438H62.728a.455.455,0,0,1-.344-.164,4.01,4.01,0,0,0-3.043-1.4H55.094a4.01,4.01,0,0,0-3.043,1.4.459.459,0,0,1-.344.164h-30.8a.445.445,0,0,1-.425-.311,4.037,4.037,0,0,0-2.63-2.629.447.447,0,0,1-.311-.425v-21.9a.454.454,0,0,1,.188-.363,4.021,4.021,0,0,0,1.6-3.209V64.034a4.021,4.021,0,0,0-1.6-3.209.455.455,0,0,1-.188-.363V38.737a.669.669,0,0,1,.438-.636,4.027,4.027,0,0,0,2.691-3.793V30.732h-7.6v70.851H101.36v-7.6Z" fill="#ff9161"/>
    <path id="Trazado_183493" data-name="Trazado 183493" d="M16.651,26.262H9.5a.894.894,0,0,0-.894.894v7.152A.894.894,0,0,0,9.5,35.2h7.152a.894.894,0,0,0,.894-.894V27.156a.9.9,0,0,0-.894-.894" fill="#6f6571"/>
    <path id="Trazado_183494" data-name="Trazado 183494" d="M104.936,26.262H97.784a.894.894,0,0,0-.894.894v7.152a.894.894,0,0,0,.894.894h7.152a.894.894,0,0,0,.894-.894V27.156a.9.9,0,0,0-.894-.894" fill="#6f6571"/>
    <path id="Trazado_183495" data-name="Trazado 183495" d="M103.483,63.14H99.236a.9.9,0,0,0-.894.894v4.247a.9.9,0,0,0,.894.894h4.247a.9.9,0,0,0,.894-.894V64.034a.9.9,0,0,0-.894-.894" fill="#6f6571"/>
    <path id="Trazado_183496" data-name="Trazado 183496" d="M15.31,63.14H11.063a.9.9,0,0,0-.894.894v4.247a.9.9,0,0,0,.894.894H15.31a.894.894,0,0,0,.894-.894V64.034a.894.894,0,0,0-.894-.894" fill="#6f6571"/>
    <path id="Trazado_183497" data-name="Trazado 183497" d="M59.341,27.6H55.094a.9.9,0,0,0-.894.894v4.247a.9.9,0,0,0,.894.894h4.247a.9.9,0,0,0,.894-.894V28.5a.9.9,0,0,0-.894-.894" fill="#6f6571"/>
    <path id="Trazado_183498" data-name="Trazado 183498" d="M59.341,98.678H55.094a.9.9,0,0,0-.894.894v4.247a.9.9,0,0,0,.894.894h4.247a.9.9,0,0,0,.894-.894V99.572a.9.9,0,0,0-.894-.894" fill="#6f6571"/>
    <path id="Trazado_183499" data-name="Trazado 183499" d="M16.651,97.113H9.5a.894.894,0,0,0-.894.894v7.152a.894.894,0,0,0,.894.894h7.152a.894.894,0,0,0,.894-.894V98.007a.9.9,0,0,0-.894-.894" fill="#6f6571"/>
    <path id="Trazado_183500" data-name="Trazado 183500" d="M104.936,97.113H97.784a.894.894,0,0,0-.894.894v7.152a.894.894,0,0,0,.894.894h7.152a.894.894,0,0,0,.894-.894V98.007a.9.9,0,0,0-.894-.894" fill="#6f6571"/>
    <path id="Trazado_183501" data-name="Trazado 183501" d="M16.651,97.113H9.5a.894.894,0,0,0-.894.894v7.152a.894.894,0,0,0,.894.894h7.152a.894.894,0,0,0,.894-.894V98.007a.9.9,0,0,0-.894-.894" fill="#6f6571"/>
    <path id="Trazado_183502" data-name="Trazado 183502" d="M109.406,0H52.11a1.677,1.677,0,0,0,0,3.353h57.3a1.677,1.677,0,0,1,1.676,1.676V17.881H3.352V5.029A1.677,1.677,0,0,1,5.028,3.353h39.1a1.677,1.677,0,0,0,0-3.353H5.028A5.034,5.034,0,0,0,0,5.029V43.846a1.676,1.676,0,0,0,3.352,0V21.233h107.73v88.173a1.678,1.678,0,0,1-1.676,1.677H5.028a1.678,1.678,0,0,1-1.676-1.677V51.668a1.676,1.676,0,0,0-3.352,0v57.738a5.034,5.034,0,0,0,5.028,5.029H109.406a5.035,5.035,0,0,0,5.029-5.029V5.029A5.035,5.035,0,0,0,109.406,0"/>
    <path id="Trazado_183503" data-name="Trazado 183503" d="M5.588,10.616a5.029,5.029,0,1,0,5.029-5.029,5.035,5.035,0,0,0-5.029,5.029m6.705,0A1.677,1.677,0,1,1,10.617,8.94a1.678,1.678,0,0,1,1.676,1.676"/>
    <path id="Trazado_183504" data-name="Trazado 183504" d="M18.1,10.616a5.029,5.029,0,1,0,5.029-5.029A5.035,5.035,0,0,0,18.1,10.616m6.7,0A1.677,1.677,0,1,1,23.133,8.94a1.678,1.678,0,0,1,1.676,1.676"/>
    <path id="Trazado_183505" data-name="Trazado 183505" d="M30.621,10.616A5.029,5.029,0,1,0,35.65,5.587a5.035,5.035,0,0,0-5.029,5.029m6.7,0A1.677,1.677,0,1,1,35.65,8.94a1.678,1.678,0,0,1,1.676,1.676"/>
    <path id="Trazado_183506" data-name="Trazado 183506" d="M8.6,95.437a1.677,1.677,0,0,0-1.676,1.676v8.94A1.677,1.677,0,0,0,8.6,107.73h8.94a1.677,1.677,0,0,0,1.677-1.677V103.26h33.3V104.6a1.677,1.677,0,0,0,1.676,1.676h6.035a1.677,1.677,0,0,0,1.676-1.676V103.26h33.3v2.793a1.677,1.677,0,0,0,1.676,1.677h8.94a1.677,1.677,0,0,0,1.677-1.677v-8.94a1.677,1.677,0,0,0-1.677-1.676h-2.794V88.408a1.676,1.676,0,0,0-3.352,0v7.029H96.89a1.677,1.677,0,0,0-1.676,1.676v2.794h-33.3V98.566a1.677,1.677,0,0,0-1.676-1.676H54.2a1.677,1.677,0,0,0-1.676,1.676v1.341h-33.3V97.113a1.677,1.677,0,0,0-1.677-1.676H14.751V70.851h1.341a1.677,1.677,0,0,0,1.677-1.676V63.14a1.677,1.677,0,0,0-1.677-1.676H14.751V36.878h2.794A1.677,1.677,0,0,0,19.222,35.2V32.408h33.3v1.341A1.677,1.677,0,0,0,54.2,35.425h6.035a1.677,1.677,0,0,0,1.676-1.676V32.408h33.3V35.2a1.677,1.677,0,0,0,1.676,1.676h2.794V61.464H98.343a1.677,1.677,0,0,0-1.676,1.676v6.035a1.677,1.677,0,0,0,1.676,1.676h1.341v9.734a1.676,1.676,0,1,0,3.352,0V70.851h1.342a1.677,1.677,0,0,0,1.676-1.676V63.14a1.677,1.677,0,0,0-1.676-1.676h-1.342V36.878h2.794a1.677,1.677,0,0,0,1.677-1.676v-8.94a1.677,1.677,0,0,0-1.677-1.677H96.89a1.677,1.677,0,0,0-1.676,1.677v2.794h-33.3V27.714a1.677,1.677,0,0,0-1.676-1.676H54.2a1.677,1.677,0,0,0-1.676,1.676v1.342h-33.3V26.262a1.677,1.677,0,0,0-1.677-1.677H8.6a1.677,1.677,0,0,0-1.676,1.677V35.2A1.677,1.677,0,0,0,8.6,36.878H11.4V61.464H10.058A1.677,1.677,0,0,0,8.381,63.14v6.035a1.677,1.677,0,0,0,1.677,1.676H11.4V95.437ZM98.566,98.79h5.588v5.588H98.566Zm-42.689,1.452h2.682v2.682H55.877ZM102.7,67.5h-2.682V64.817H102.7ZM98.566,27.938h5.588v5.588H98.566ZM55.877,29.391h2.682v2.682H55.877Zm-45.6-1.453h5.588v5.588H10.281Zm1.453,36.879h2.682V67.5H11.734Zm4.135,39.56H10.281V98.789h5.588Z"/>
    <path id="Trazado_183507" data-name="Trazado 183507" d="M36.554,54.087H35.68a1.674,1.674,0,0,0-1.567,1.088L26.307,75.962a1.676,1.676,0,0,0,3.139,1.178l1.509-4.017H41.224l1.493,4.012a1.675,1.675,0,0,0,1.571,1.092,1.64,1.64,0,0,0,.584-.106,1.675,1.675,0,0,0,.987-2.155L38.124,55.179a1.676,1.676,0,0,0-1.57-1.092M32.213,69.77l3.9-10.384L39.976,69.77Z"/>
    <path id="Trazado_183508" data-name="Trazado 183508" d="M57.025,54.088H50.987a1.677,1.677,0,0,0-1.676,1.677V76.551a1.676,1.676,0,0,0,1.676,1.676h.006L58.08,78.2a7.269,7.269,0,0,0,3.837-13.444,6.455,6.455,0,0,0-4.892-10.671m0,3.353a3.107,3.107,0,1,1-.005,6.213c-.969.005-3.322.007-4.356.005V57.441ZM58.073,74.85l-5.409.018V67.023c1.336-.007,4.046-.013,5.415-.011a3.919,3.919,0,1,1-.006,7.838"/>
    <path id="Trazado_183509" data-name="Trazado 183509" d="M70.366,61.931a1.675,1.675,0,0,0-2.042,1.2A12.078,12.078,0,0,0,80.012,78.227a9.842,9.842,0,0,0,7.831-3.533,1.676,1.676,0,1,0-2.569-2.154,6.826,6.826,0,0,1-.673.7,6.681,6.681,0,0,1-4.589,1.639,8.728,8.728,0,0,1-8.442-10.9,1.676,1.676,0,0,0-1.2-2.042"/>
    <path id="Trazado_183510" data-name="Trazado 183510" d="M75.641,58.614a8.72,8.72,0,0,1,9.242.314,1.677,1.677,0,1,0,1.877-2.779,12.084,12.084,0,0,0-12.8-.435,1.677,1.677,0,1,0,1.685,2.9"/>
  </g>
</svg>
