<svg id="_033-text" data-name="033-text" xmlns="http://www.w3.org/2000/svg" width="85.071" height="85.071" viewBox="0 0 85.071 85.071">
  <g id="Grupo_120752" data-name="Grupo 120752" transform="translate(1.246 1.246)">
    <g id="Grupo_120748" data-name="Grupo 120748" transform="translate(0 16.366)">
      <path id="Trazado_182824" data-name="Trazado 182824" d="M14.338,171.5l54.877.325c1.844,0,5.045-2.1,5.045-2.1a4.962,4.962,0,0,0,.668-2.493V110.985A4.985,4.985,0,0,0,69.944,106H13.7a4.962,4.962,0,0,0-2.493.668s-2.249,2.851-2.249,4.7l.4,55.149A4.984,4.984,0,0,0,14.338,171.5Z" transform="translate(-8.716 -106)" fill="#f9f8f9"/>
      <g id="Grupo_120747" data-name="Grupo 120747" transform="translate(0 0.668)">
        <path id="Trazado_182825" data-name="Trazado 182825" d="M73.045,173.072a4.979,4.979,0,0,1-4.317,2.491H12.485A4.984,4.984,0,0,1,7.5,170.578V114.335a4.979,4.979,0,0,1,2.491-4.317v57.569a5.482,5.482,0,0,0,5.483,5.483Z" transform="translate(-7.5 -110.018)" fill="#e8e8e8"/>
        <path id="Trazado_182826" data-name="Trazado 182826" d="M42.5,193.92V142.662A1.662,1.662,0,0,1,44.162,141H95.42a1.662,1.662,0,0,1,1.662,1.662V193.92a1.662,1.662,0,0,1-1.662,1.662H44.162A1.662,1.662,0,0,1,42.5,193.92Z" transform="translate(-36.685 -135.852)" fill="#e8e8e8"/>
      </g>
    </g>
    <g id="Grupo_120750" data-name="Grupo 120750" transform="translate(16.366)">
      <path id="Trazado_182827" data-name="Trazado 182827" d="M112.838,73l54.877.325c1.844,0,5.045-2.1,5.045-2.1a4.962,4.962,0,0,0,.668-2.493V12.485A4.985,4.985,0,0,0,168.444,7.5H112.2a4.962,4.962,0,0,0-2.493.668s-2.249,2.851-2.249,4.7l.4,55.149A4.984,4.984,0,0,0,112.838,73Z" transform="translate(-107.216 -7.5)" fill="#bde4ff"/>
      <g id="Grupo_120749" data-name="Grupo 120749" transform="translate(0 0.668)">
        <path id="Trazado_182828" data-name="Trazado 182828" d="M171.545,74.572a4.979,4.979,0,0,1-4.317,2.491H110.985A4.984,4.984,0,0,1,106,72.078V15.835a4.979,4.979,0,0,1,2.491-4.317v57.57a5.482,5.482,0,0,0,5.483,5.483Z" transform="translate(-106 -11.518)" fill="#99dbff"/>
        <path id="Trazado_182829" data-name="Trazado 182829" d="M141,95.42V44.162a1.662,1.662,0,0,1,1.662-1.662H193.92a1.662,1.662,0,0,1,1.662,1.662V95.42a1.661,1.661,0,0,1-1.662,1.662H142.662A1.661,1.661,0,0,1,141,95.42Z" transform="translate(-135.185 -37.352)" fill="#99dbff"/>
      </g>
    </g>
    <g id="Grupo_120751" data-name="Grupo 120751" transform="translate(26.959 14.082)">
      <path id="Trazado_182830" data-name="Trazado 182830" d="M169.75,92.748v8.557a.5.5,0,0,0,.5.5h3.988a.5.5,0,0,0,.5-.5V98.564a.5.5,0,0,1,.5-.5h5.9a.5.5,0,0,1,.5.5v26.252a.5.5,0,0,1-.5.5h-2.991a.5.5,0,0,0-.5.5V129.8a.5.5,0,0,0,.5.5h13.126a.5.5,0,0,0,.5-.5v-3.988a.5.5,0,0,0-.5-.5h-2.991a.5.5,0,0,1-.5-.5V98.564a.5.5,0,0,1,.5-.5h5.9a.5.5,0,0,1,.5.5v2.742a.5.5,0,0,0,.5.5h3.988a.5.5,0,0,0,.5-.5V92.748a.5.5,0,0,0-.5-.5H170.248A.5.5,0,0,0,169.75,92.748Z" transform="translate(-169.75 -92.25)" fill="#f9f8f9"/>
      <path id="Trazado_182831" data-name="Trazado 182831" d="M303.75,187.748v6.9a.5.5,0,0,0,.5.5h3.157a.5.5,0,0,0,.5-.5v-1.911a.5.5,0,0,1,.5-.5h3.738a.5.5,0,0,1,.5.5v11.3a.5.5,0,0,1-.5.5h-2.16a.5.5,0,0,0-.5.5v3.988a.5.5,0,0,0,.5.5h10.3a.5.5,0,0,0,.5-.5v-3.988a.5.5,0,0,0-.5-.5h-2.16a.5.5,0,0,1-.5-.5v-11.3a.5.5,0,0,1,.5-.5h3.738a.5.5,0,0,1,.5.5v1.911a.5.5,0,0,0,.5.5h3.157a.5.5,0,0,0,.5-.5v-6.9a.5.5,0,0,0-.5-.5H304.248A.5.5,0,0,0,303.75,187.748Z" transform="translate(-281.485 -171.465)" fill="#f9f8f9"/>
    </g>
  </g>
  <g id="Grupo_120753" data-name="Grupo 120753" transform="translate(0)">
    <path id="Trazado_182832" data-name="Trazado 182832" d="M78.84,0H63.191a1.246,1.246,0,1,0,0,2.492H78.84a3.743,3.743,0,0,1,3.738,3.738V62.474a3.743,3.743,0,0,1-3.738,3.738H22.6a3.743,3.743,0,0,1-3.738-3.738V6.231A3.743,3.743,0,0,1,22.6,2.492H57.375a1.246,1.246,0,1,0,0-2.492H22.6a6.238,6.238,0,0,0-6.231,6.231V16.366H6.231A6.238,6.238,0,0,0,0,22.6V78.84a6.238,6.238,0,0,0,6.231,6.231H62.474A6.238,6.238,0,0,0,68.7,78.84V68.7H78.84a6.238,6.238,0,0,0,6.231-6.231V6.231A6.238,6.238,0,0,0,78.84,0ZM66.213,78.84a3.743,3.743,0,0,1-3.738,3.738H6.231A3.743,3.743,0,0,1,2.492,78.84V22.6a3.743,3.743,0,0,1,3.738-3.738H16.366v3.323h-9.3a1.246,1.246,0,0,0-1.246,1.246v5.483a1.246,1.246,0,0,0,2.492,0V24.674h8.058v37.8A6.238,6.238,0,0,0,22.6,68.7H60.4v8.058H8.308V34.81a1.246,1.246,0,1,0-2.492,0v43.2a1.246,1.246,0,0,0,1.246,1.246H61.643a1.246,1.246,0,0,0,1.246-1.246V68.7h3.323Z" transform="translate(0 0)"/>
    <path id="Trazado_182833" data-name="Trazado 182833" d="M133.5,36.246V90.828a1.246,1.246,0,0,0,1.246,1.246h54.582a1.246,1.246,0,0,0,1.246-1.246V36.246A1.246,1.246,0,0,0,189.328,35H134.746A1.246,1.246,0,0,0,133.5,36.246Zm2.492,1.246h52.089V89.582H135.992Z" transform="translate(-111.318 -29.185)"/>
    <path id="Trazado_182834" data-name="Trazado 182834" d="M185.512,117.815H182.77V93.058h4.4V95.55a1.246,1.246,0,0,0,1.246,1.246H193.4a1.246,1.246,0,0,0,1.246-1.246V86A1.246,1.246,0,0,0,193.4,84.75H163.5A1.246,1.246,0,0,0,162.25,86V95.55A1.246,1.246,0,0,0,163.5,96.8h4.985a1.246,1.246,0,0,0,1.246-1.246V93.058h4.4v12.98a1.246,1.246,0,0,0,2.492,0V91.812a1.246,1.246,0,0,0-1.246-1.246h-6.9a1.246,1.246,0,0,0-1.246,1.246V94.3h-2.492V87.242h27.415V94.3h-2.492V91.812a1.246,1.246,0,0,0-1.246-1.246h-6.9a1.246,1.246,0,0,0-1.246,1.246v27.249a1.246,1.246,0,0,0,1.246,1.246h2.742V122.8H172.635v-2.492h2.742a1.246,1.246,0,0,0,1.246-1.246v-7.207a1.246,1.246,0,0,0-2.492,0v5.961h-2.742a1.246,1.246,0,0,0-1.246,1.246v4.985a1.246,1.246,0,0,0,1.246,1.246h14.123a1.246,1.246,0,0,0,1.246-1.246v-4.985A1.246,1.246,0,0,0,185.512,117.815Z" transform="translate(-135.291 -70.668)"/>
    <path id="Trazado_182835" data-name="Trazado 182835" d="M320.259,179.75h-4.943a1.246,1.246,0,0,0,0,2.492h3.7v5.4h-1.662v-1.662a1.246,1.246,0,0,0-1.246-1.246H311.37a1.246,1.246,0,0,0-1.246,1.246v12.3a1.246,1.246,0,0,0,1.246,1.246h1.911v2.492h-8.806v-2.492h1.911a1.246,1.246,0,0,0,1.246-1.246v-12.3a1.246,1.246,0,0,0-1.246-1.246H301.65a1.246,1.246,0,0,0-1.246,1.246v1.662h-1.662v-5.4H309.5a1.246,1.246,0,0,0,0-2.492h-12A1.246,1.246,0,0,0,296.25,181v7.892a1.246,1.246,0,0,0,1.246,1.246h4.154a1.246,1.246,0,0,0,1.246-1.246v-1.662h2.243v9.8h-1.911a1.246,1.246,0,0,0-1.246,1.246v4.985a1.246,1.246,0,0,0,1.246,1.246h11.3a1.246,1.246,0,0,0,1.246-1.246v-4.985a1.246,1.246,0,0,0-1.246-1.246h-1.911v-9.8h2.243v1.662a1.246,1.246,0,0,0,1.246,1.246h4.154a1.246,1.246,0,0,0,1.246-1.246V181A1.246,1.246,0,0,0,320.259,179.75Z" transform="translate(-247.027 -149.884)"/>
  </g>
</svg>
