<svg id="_025-jpg" data-name="025-jpg" xmlns="http://www.w3.org/2000/svg" width="62.806" height="85.071" viewBox="0 0 62.806 85.071">
  <g id="Grupo_120817" data-name="Grupo 120817" transform="translate(1.246 1.246)">
    <path id="Trazado_182918" data-name="Trazado 182918" d="M136.69,216.331v19.342c0-1.7-2.186-2.3-3.081-3.718C127.955,223,108,218.634,93.9,218.634L76.77,217l-.02-4.985,5.528-1.692,33.259,1.692Z" transform="translate(-76.376 -176.62)" fill="#afefa5"/>
    <path id="Trazado_182919" data-name="Trazado 182919" d="M136.015,21.138V47.211h-7.809l-44.862-4.32H76.075L75.94,10.316C75.94,9,78.027,7.5,78.027,7.5c.055,0,.11,0,.166,0h44.121a.8.8,0,0,1,.342.075,1.708,1.708,0,0,0,.179.389l12.837,12.621a2.882,2.882,0,0,0,.268.208.839.839,0,0,1,.075.346Z" transform="translate(-75.701 -7.5)" fill="#bde4ff"/>
    <path id="Trazado_182920" data-name="Trazado 182920" d="M370.383,21.167H359.592a2.493,2.493,0,0,1-2.492-2.492V7.95a.8.8,0,0,1,.243.168l12.872,12.806A.793.793,0,0,1,370.383,21.167Z" transform="translate(-310.145 -7.875)" fill="#99dbff"/>
    <g id="Grupo_120815" data-name="Grupo 120815" transform="translate(7.643 25.255)">
      <path id="Trazado_182921" data-name="Trazado 182921" d="M365.485,197.331v17.612l-4.985-.867V197.241l2.326-.741h1.828A.831.831,0,0,1,365.485,197.331Z" transform="translate(-320.623 -190.352)" fill="#f9f8f9"/>
      <path id="Trazado_182922" data-name="Trazado 182922" d="M356.643,196.5v17.981l-2.326-.405-1.232-7.983,1.232-9.593Z" transform="translate(-314.44 -190.352)" fill="#e8e8e8"/>
      <path id="Trazado_182923" data-name="Trazado 182923" d="M315.472,173.331v20.733L306.5,192.5l.359-18.978a.831.831,0,0,1,.831-.831l1.137-.193h5.815A.831.831,0,0,1,315.472,173.331Z" transform="translate(-275.595 -170.34)" fill="#f9f8f9"/>
      <path id="Trazado_182924" data-name="Trazado 182924" d="M311.983,178.315a3.161,3.161,0,0,0-2.61-3.11.676.676,0,0,1-.547-.671V172.5h-1.5a.831.831,0,0,0-.831.831V192.5l2.326.405h0l3.157.549Z" transform="translate(-275.595 -170.34)" fill="#e8e8e8"/>
      <path id="Trazado_182925" data-name="Trazado 182925" d="M282.14,203.331v14.736l-8.64-1.505V202.838l2.492-.338h5.317A.831.831,0,0,1,282.14,203.331Z" transform="translate(-248.078 -195.355)" fill="#f9f8f9"/>
      <path id="Trazado_182926" data-name="Trazado 182926" d="M271.885,202.5V217l-2.492-.434-.818-6.814.818-7.248Z" transform="translate(-243.971 -195.355)" fill="#e8e8e8"/>
      <path id="Trazado_182927" data-name="Trazado 182927" d="M125.485,199.5l.8,4.852-.8,6.151-4.985-.867.249-9.017a.831.831,0,0,1,.831-.831l1.08-.288Z" transform="translate(-120.5 -192.854)" fill="#f9f8f9"/>
      <path id="Trazado_182928" data-name="Trazado 182928" d="M122.66,199.5v10.511l-2.16-.376v-9.3a.831.831,0,0,1,.831-.831Z" transform="translate(-120.5 -192.854)" fill="#e8e8e8"/>
      <path id="Trazado_182929" data-name="Trazado 182929" d="M241.814,160.331v20.376l-6.314-1.1.171-19.046a.831.831,0,0,1,.831-.831l1.49-.232h2.991A.831.831,0,0,1,241.814,160.331Z" transform="translate(-216.392 -159.5)" fill="#f9f8f9"/>
      <path id="Trazado_182930" data-name="Trazado 182930" d="M202.146,199.5l.49,6.731-.49,6.731-6.646-1.156V200l2.492-.5Z" transform="translate(-183.038 -192.854)" fill="#f9f8f9"/>
      <path id="Trazado_182931" data-name="Trazado 182931" d="M193.992,199.5v12.739l-2.492-.434-.8-6.01.8-6.3Z" transform="translate(-179.038 -192.854)" fill="#e8e8e8"/>
      <path id="Trazado_182932" data-name="Trazado 182932" d="M157.977,178.331v15.13l-7.477-1.3.274-13.6a.831.831,0,0,1,.831-.831l1.388-.232h4.154A.831.831,0,0,1,157.977,178.331Z" transform="translate(-145.515 -174.509)" fill="#f9f8f9"/>
      <g id="Grupo_120814" data-name="Grupo 120814" transform="translate(4.985)">
        <path id="Trazado_182933" data-name="Trazado 182933" d="M237.992,159.5v20.542l-2.492-.434V160.331a.831.831,0,0,1,.831-.831Z" transform="translate(-221.377 -159.5)" fill="#e8e8e8"/>
        <path id="Trazado_182934" data-name="Trazado 182934" d="M152.992,177.5v15.092l-2.492-.434V178.331a.831.831,0,0,1,.831-.831Z" transform="translate(-150.5 -174.509)" fill="#e8e8e8"/>
      </g>
    </g>
    <g id="Grupo_120816" data-name="Grupo 120816" transform="translate(18.609 6.563)">
      <path id="Trazado_182935" data-name="Trazado 182935" d="M198.287,51.985a4.986,4.986,0,0,0-7.46-4.327S188.68,50.152,188.68,52c0,2.753,1.945,4.433,4.7,4.433,2.106,0,4.561-2.619,4.561-2.619A4.972,4.972,0,0,0,198.287,51.985Z" transform="translate(-188.318 -47)" fill="#ffe07d"/>
      <path id="Trazado_182936" data-name="Trazado 182936" d="M196.121,57.116a4.985,4.985,0,1,1-7.112-6.161,4.921,4.921,0,0,0-.349,1.835,4.985,4.985,0,0,0,7.461,4.326Z" transform="translate(-186.5 -50.298)" fill="#ffd064"/>
    </g>
    <path id="Trazado_182937" data-name="Trazado 182937" d="M125.523,270.6l-26.888,2.363L76.953,270.6l-.083-20.1h8.057C102.895,250.5,120.123,257.183,125.523,270.6Z" transform="translate(-76.476 -210.124)" fill="#afefa5"/>
    <path id="Trazado_182938" data-name="Trazado 182938" d="M177.223,269.177V270.6l-6.717,2.872-4.55-2.872c-5.4-13.422-22.629-20.1-40.6-20.1h9.969C151.657,250.5,177.223,256.706,177.223,269.177Z" transform="translate(-116.909 -210.124)" fill="#8ce1a4"/>
    <path id="Trazado_182939" data-name="Trazado 182939" d="M137.207,371.5v19.606c0,.056,0,.111,0,.166,0,0-1.731,1.816-3.051,1.816l-54.21.01a2.493,2.493,0,0,1-2.492-2.492L77.37,371.5Z" transform="translate(-76.893 -311.02)" fill="#f9f8f9"/>
    <path id="Trazado_182940" data-name="Trazado 182940" d="M76.826,212.011V237.1l-1.487,1.1-.84-1.1V212.011l1.163-1.692Z" transform="translate(-74.5 -176.62)" fill="#8ce1a4"/>
    <path id="Trazado_182941" data-name="Trazado 182941" d="M76.826,7.53V42.916H74.5v-32.9A2.493,2.493,0,0,1,76.826,7.53Z" transform="translate(-74.5 -7.525)" fill="#99dbff"/>
    <path id="Trazado_182942" data-name="Trazado 182942" d="M134.807,391.272a2.491,2.491,0,0,1-2.486,2.326H76.992a2.493,2.493,0,0,1-2.492-2.492V371.5h2.326v16.449a3.322,3.322,0,0,0,3.323,3.323Z" transform="translate(-74.5 -311.02)" fill="#e8e8e8"/>
  </g>
  <g id="Grupo_120818" data-name="Grupo 120818" transform="translate(0 0)">
    <path id="Trazado_182943" data-name="Trazado 182943" d="M129.194,13.412,116.324.6a2.064,2.064,0,0,0-1.465-.6H89.933a1.246,1.246,0,0,0,0,2.492h24.022v9.554a3.743,3.743,0,0,0,3.738,3.738h9.62V39.711H122V32.649a1.246,1.246,0,0,0-1.246-1.246h-3.738V28.662a1.246,1.246,0,0,0-1.246-1.246h-8.972a1.246,1.246,0,0,0-1.246,1.246V32.4h-2.991V26.5a1.246,1.246,0,0,0-1.246-1.246H95A1.246,1.246,0,0,0,93.751,26.5v5.4H89.6V29.492a1.246,1.246,0,0,0-1.246-1.246H80.874a1.246,1.246,0,0,0-1.246,1.246V31.9H75.889a1.246,1.246,0,0,0-1.246,1.246v2.243H69.492V3.738a1.247,1.247,0,0,1,1.246-1.246H84.117a1.246,1.246,0,0,0,0-2.492H70.738A3.743,3.743,0,0,0,67,3.738V48.6a1.246,1.246,0,1,0,2.492,0V42.868H76.7c18.579,0,33.159,6.7,38.664,17.612h-7.919a1.246,1.246,0,1,0,0,2.492h19.871v18.36a1.247,1.247,0,0,1-1.246,1.246H70.738a1.247,1.247,0,0,1-1.246-1.246V62.973h32.135a1.246,1.246,0,1,0,0-2.492H69.492V54.416a1.246,1.246,0,1,0-2.492,0V81.333a3.743,3.743,0,0,0,3.738,3.738h55.329a3.743,3.743,0,0,0,3.738-3.738V14.884A2.091,2.091,0,0,0,129.194,13.412Zm-12.747-1.365v-7.8l9.094,9.048h-7.847A1.247,1.247,0,0,1,116.448,12.046ZM108.04,29.908h6.48v6.236a1.246,1.246,0,1,0,2.492,0V33.9H119.5V47.439q-1.181-.61-2.492-1.183v-4.3a1.246,1.246,0,1,0-2.492,0v3.289c-.884-.338-2.045-.739-3.323-1.14V33.646a1.246,1.246,0,0,0-1.246-1.246H108.04Zm.665,4.985v8.489c-1.979-.538-4.043-1.014-6.148-1.419V34.892ZM96.243,27.748h3.822V41.52c-1.269-.208-2.546-.389-3.822-.542Zm-2.492,6.646v6.319c-1.4-.128-2.788-.22-4.154-.276V34.394ZM82.12,30.739H87.1v9.64c.12,0-4.955,0-4.985,0Zm-4.985,3.655h2.492v5.982H77.135Zm-7.643,3.489h5.151v2.492H69.492Zm48.625,22.6c-2.786-6.29-8.215-11.455-15.758-14.969a47.73,47.73,0,0,0-4.469-1.806c9.229,1.437,18.89,3.808,25.6,9.349,2.513,2.2,3.887,4.794,3.828,7.425ZM122,48.86V42.2h5.317V53.47A20.509,20.509,0,0,0,122,48.86Z" transform="translate(-67 0)"/>
    <path id="Trazado_182944" data-name="Trazado 182944" d="M158.906,395.414v9.658a1.242,1.242,0,0,1-.606,1.1c-.715.4-1.5-.332-1.544-.378A1.246,1.246,0,0,0,155,407.56a4.225,4.225,0,0,0,2.849,1.235,3.392,3.392,0,0,0,1.665-.442,3.734,3.734,0,0,0,1.889-3.281v-9.658a1.246,1.246,0,0,0-2.492,0Z" transform="translate(-140.073 -328.675)"/>
    <path id="Trazado_182945" data-name="Trazado 182945" d="M281.469,396.672a4.783,4.783,0,0,1,3.094.806,1.246,1.246,0,0,0,1.4-2.065,7.247,7.247,0,0,0-4.689-1.225,7.311,7.311,0,0,0,.6,14.6c3.5,0,6.02-2.462,6.427-6.273a2.061,2.061,0,0,0-.518-1.593,2.086,2.086,0,0,0-1.549-.691h-2.753a1.246,1.246,0,1,0,0,2.492h2.272a3.908,3.908,0,0,1-3.879,3.572,4.884,4.884,0,0,1-4.806-5.167A4.833,4.833,0,0,1,281.469,396.672Z" transform="translate(-240.063 -328.671)"/>
    <path id="Trazado_182946" data-name="Trazado 182946" d="M209.11,394.167a1.246,1.246,0,0,0-1.246,1.246v12.129a1.246,1.246,0,0,0,2.492,0V403.5h2.125a4.666,4.666,0,1,0,0-9.332Zm5.615,4.669a2.238,2.238,0,0,1-2.244,2.171h-2.125v-4.347h2.125A2.241,2.241,0,0,1,214.725,398.836Z" transform="translate(-184.459 -328.674)"/>
    <path id="Trazado_182947" data-name="Trazado 182947" d="M185.231,51.962A6.231,6.231,0,1,0,179,45.731,6.238,6.238,0,0,0,185.231,51.962Zm0-9.969a3.738,3.738,0,1,1-3.738,3.738A3.743,3.743,0,0,1,185.231,41.992Z" transform="translate(-160.391 -32.937)"/>
  </g>
</svg>
