<svg id="_044-grid" data-name="044-grid" xmlns="http://www.w3.org/2000/svg" width="85.071" height="85.071" viewBox="0 0 85.071 85.071">
  <g id="Grupo_120767" data-name="Grupo 120767" transform="translate(1.246 1.246)">
    <path id="Trazado_182850" data-name="Trazado 182850" d="M90.38,87.5l.949,2.658v15.764l-2.7,2.825,2.7,2.825v21.143l-2.7,3.013,2.7,2.636v15.93a2.493,2.493,0,0,1-2.492,2.492H74.673l-2.825-.624-2.825.624H52.865L50.04,156l-2.825.787H31.057l-2.825-.843-2.825.843h-14l-.217-.221A2.326,2.326,0,0,1,9,153.992L9.721,87.5Z" transform="translate(-8.751 -74.208)" fill="#857e87"/>
    <path id="Trazado_182851" data-name="Trazado 182851" d="M90.079,76.66,47.216,74.5,7.5,76.66V95.083l.758,2.592L7.5,100.732v21.143l.595,2.825L7.5,127.525v15.929a2.492,2.492,0,0,0,2.492,2.492h.166V80.98a1.662,1.662,0,0,1,1.662-1.662H90.079Z" transform="translate(-7.5 -63.368)" fill="#6f6571"/>
    <g id="Grupo_120759" data-name="Grupo 120759" transform="translate(16.657 13.292)">
      <path id="Trazado_182852" data-name="Trazado 182852" d="M239,87.5h5.649v69.286H239Z" transform="translate(-217.192 -87.5)" fill="#f9f8f9"/>
      <path id="Trazado_182853" data-name="Trazado 182853" d="M370.25,87.5H375.9v69.286H370.25Z" transform="translate(-326.634 -87.5)" fill="#f9f8f9"/>
      <path id="Trazado_182854" data-name="Trazado 182854" d="M107.75,87.5H113.4v69.286H107.75Z" transform="translate(-107.75 -87.5)" fill="#f9f8f9"/>
    </g>
    <g id="Grupo_120760" data-name="Grupo 120760" transform="translate(16.657 11.132)">
      <path id="Trazado_182855" data-name="Trazado 182855" d="M244.649,74.721v4.6H239v-4.75l1.251-.068Z" transform="translate(-217.192 -74.5)" fill="#e8e8e8"/>
      <path id="Trazado_182856" data-name="Trazado 182856" d="M375.9,81.016v3.5H370.25V80.73Z" transform="translate(-326.634 -79.695)" fill="#e8e8e8"/>
      <path id="Trazado_182857" data-name="Trazado 182857" d="M113.4,80.2v3.871H107.75V80.507Z" transform="translate(-107.75 -79.253)" fill="#e8e8e8"/>
    </g>
    <path id="Trazado_182858" data-name="Trazado 182858" d="M11.079,364.81l2.064.464h79.92v-5.649H13.143l-2.064.419Z" transform="translate(-10.484 -301.118)" fill="#e8e8e8"/>
    <path id="Trazado_182859" data-name="Trazado 182859" d="M11.079,203.527l2.064.5h79.92v-5.649H13.143l-2.064.358Z" transform="translate(-10.484 -166.66)" fill="#e8e8e8"/>
    <g id="Grupo_120762" data-name="Grupo 120762" transform="translate(0 31.716)">
      <path id="Trazado_182860" data-name="Trazado 182860" d="M370.25,359.63H375.9v5.649H370.25Z" transform="translate(-309.977 -332.838)" fill="#dcdbdd"/>
      <path id="Trazado_182861" data-name="Trazado 182861" d="M239,359.63h5.649v5.649H239Z" transform="translate(-200.535 -332.838)" fill="#dcdbdd"/>
      <path id="Trazado_182862" data-name="Trazado 182862" d="M107.75,359.63H113.4v5.649H107.75Z" transform="translate(-91.093 -332.838)" fill="#dcdbdd"/>
      <path id="Trazado_182863" data-name="Trazado 182863" d="M107.75,198.38H113.4v5.649H107.75Z" transform="translate(-91.093 -198.38)" fill="#dcdbdd"/>
      <path id="Trazado_182864" data-name="Trazado 182864" d="M239,198.38h5.649v5.649H239Z" transform="translate(-200.535 -198.38)" fill="#dcdbdd"/>
      <path id="Trazado_182865" data-name="Trazado 182865" d="M370.25,198.38H375.9v5.649H370.25Z" transform="translate(-309.977 -198.38)" fill="#dcdbdd"/>
      <g id="Grupo_120761" data-name="Grupo 120761">
        <path id="Trazado_182866" data-name="Trazado 182866" d="M7.5,359.63h2.658v5.649H7.5Z" transform="translate(-7.5 -332.838)" fill="#dcdbdd"/>
        <path id="Trazado_182867" data-name="Trazado 182867" d="M7.5,198.38h2.658v5.649H7.5Z" transform="translate(-7.5 -198.38)" fill="#dcdbdd"/>
      </g>
    </g>
    <path id="Trazado_182868" data-name="Trazado 182868" d="M90.079,9.992v10.8H7.5V9.992A2.493,2.493,0,0,1,9.992,7.5H87.586A2.493,2.493,0,0,1,90.079,9.992Z" transform="translate(-7.5 -7.5)" fill="#f9f8f9"/>
    <g id="Grupo_120766" data-name="Grupo 120766" transform="translate(2.326 4.154)">
      <g id="Grupo_120763" data-name="Grupo 120763" transform="translate(9.305)">
        <path id="Trazado_182869" data-name="Trazado 182869" d="M83.572,41.835,79.816,38.58,78.2,40.326h0a2.491,2.491,0,1,0,3.579,3.464v0Z" transform="translate(-77.5 -37.57)" fill="#e8e8e8"/>
        <ellipse id="Elipse_5117" data-name="Elipse 5117" cx="2.492" cy="2.492" rx="2.492" ry="2.492" transform="translate(1.828)" fill="#ffe07d"/>
      </g>
      <g id="Grupo_120764" data-name="Grupo 120764" transform="translate(18.609)">
        <path id="Trazado_182870" data-name="Trazado 182870" d="M139.572,41.835l-3.755-3.255L134.2,40.326h0a2.491,2.491,0,1,0,3.579,3.464v0Z" transform="translate(-133.5 -37.57)" fill="#e8e8e8"/>
        <ellipse id="Elipse_5118" data-name="Elipse 5118" cx="2.492" cy="2.492" rx="2.492" ry="2.492" transform="translate(1.828)" fill="#afefa5"/>
      </g>
      <g id="Grupo_120765" data-name="Grupo 120765">
        <path id="Trazado_182871" data-name="Trazado 182871" d="M27.572,41.835,23.816,38.58,22.2,40.326h0a2.491,2.491,0,1,0,3.579,3.464v0Z" transform="translate(-21.5 -37.57)" fill="#e8e8e8"/>
        <ellipse id="Elipse_5119" data-name="Elipse 5119" cx="2.492" cy="2.492" rx="2.492" ry="2.492" transform="translate(1.828)" fill="#e15f78"/>
      </g>
    </g>
  </g>
  <g id="Grupo_120768" data-name="Grupo 120768">
    <path id="Trazado_182872" data-name="Trazado 182872" d="M83.825,44.737a1.246,1.246,0,0,0,1.246-1.246V3.738A3.743,3.743,0,0,0,81.333,0H3.738A3.743,3.743,0,0,0,0,3.738V20.1a1.246,1.246,0,1,0,2.492,0v-4.32H16.657v15.93H2.492V26.169a1.246,1.246,0,1,0-2.492,0V81.333a3.743,3.743,0,0,0,3.738,3.738H81.333a3.743,3.743,0,0,0,3.738-3.738V49.348a1.246,1.246,0,1,0-2.492,0v9.159H68.414V39.856H82.579v3.635A1.246,1.246,0,0,0,83.825,44.737ZM56.493,61h3.78v3.157H46.606V61h4.071a1.246,1.246,0,0,0,0-2.492H46.606V39.856H60.273V58.507h-3.78a1.246,1.246,0,0,0,0,2.492Zm-54-21.143H16.657V58.507H2.492Zm16.657,0h3.157V58.507H19.149ZM38.465,15.785v15.93H24.8V15.785Zm5.649,0v15.93H40.957V15.785Zm16.159,0v15.93H46.606V15.785ZM38.465,61v3.157H24.8V61ZM24.8,58.507V39.856H38.465V58.507ZM40.957,61h3.157v3.157H40.957Zm0-2.492V39.856h3.157V58.507Zm0-21.143V34.207h3.157v3.157Zm-2.492-3.157v3.157H24.8V34.207ZM22.306,37.364H19.149V34.207h3.157Zm0,23.635v3.157H19.149V61Zm0,5.649v15.93H19.149V66.649Zm2.492,0H38.465v15.93H24.8Zm16.159,0h3.157v15.93H40.957Zm5.649,0H60.273v15.93H46.606Zm16.159,0h3.157v15.93H62.765Zm0-2.492V61h3.157v3.157ZM46.606,37.364V34.207H60.273v3.157Zm16.159-3.157h3.157v3.157H62.765Zm0-2.492V15.785h3.157v15.93Zm5.649-15.93H82.579v15.93H68.414ZM2.492,3.738A1.247,1.247,0,0,1,3.738,2.492H81.333a1.247,1.247,0,0,1,1.246,1.246v9.554H2.492ZM19.149,15.785h3.157v15.93H19.149ZM16.657,34.207v3.157H2.492V34.207ZM2.492,81.333V66.649H6.48a1.246,1.246,0,0,0,0-2.492H2.492V61H16.657v3.157H12.3a1.246,1.246,0,0,0,0,2.492h4.362v15.93H3.738A1.247,1.247,0,0,1,2.492,81.333Zm78.84,1.246H68.414V66.649H82.579V81.333A1.247,1.247,0,0,1,81.333,82.579ZM82.579,61v3.157H68.414V61ZM65.922,58.507H62.765V39.856h3.157Zm2.492-21.143V34.207H82.579v3.157Z"/>
    <path id="Trazado_182873" data-name="Trazado 182873" d="M28.738,25a3.738,3.738,0,1,0,3.738,3.738A3.743,3.743,0,0,0,28.738,25Zm0,4.985a1.246,1.246,0,1,1,1.246-1.246A1.247,1.247,0,0,1,28.738,29.985Z" transform="translate(-20.846 -20.846)"/>
    <path id="Trazado_182874" data-name="Trazado 182874" d="M88.477,28.738a3.738,3.738,0,1,0-3.738,3.738A3.743,3.743,0,0,0,88.477,28.738Zm-3.738,1.246a1.246,1.246,0,1,1,1.246-1.246A1.247,1.247,0,0,1,84.738,29.985Z" transform="translate(-67.541 -20.846)"/>
    <path id="Trazado_182875" data-name="Trazado 182875" d="M140.738,32.477A3.738,3.738,0,1,0,137,28.738,3.743,3.743,0,0,0,140.738,32.477Zm0-4.985a1.246,1.246,0,1,1-1.246,1.246A1.247,1.247,0,0,1,140.738,27.492Z" transform="translate(-114.237 -20.846)"/>
  </g>
</svg>
