<svg id="_035-cover" data-name="035-cover" xmlns="http://www.w3.org/2000/svg" width="65.963" height="85.071" viewBox="0 0 65.963 85.071">
  <g id="Grupo_120771" data-name="Grupo 120771" transform="translate(1.246 1.246)">
    <path id="Trazado_182876" data-name="Trazado 182876" d="M75.607,7.5l2.239,37.621L75.607,80.99l-8.256.708-.59-67.549c0-1.976,2.2-5.606,2.2-5.606A5.789,5.789,0,0,1,72.284,7.5Z" transform="translate(-66.468 -7.5)" fill="#857e87"/>
    <path id="Trazado_182877" data-name="Trazado 182877" d="M124.985,7.5l1.864,37.1-1.864,35.994-4.985.4V7.5Z" transform="translate(-110.862 -7.5)" fill="#f9f8f9"/>
    <path id="Trazado_182878" data-name="Trazado 182878" d="M199.348,8.331V72.466l-1.534,4.32L150,80.593V7.5h48.517A.831.831,0,0,1,199.348,8.331Z" transform="translate(-135.877 -7.5)" fill="#ffa95f"/>
    <path id="Trazado_182879" data-name="Trazado 182879" d="M74.138,77.7H70.78a3.246,3.246,0,0,1-3.287-3.231V13.776A5.806,5.806,0,0,0,65,18.549V86.931l2.492-.193,6.646-.515,1.325-6.276Z" transform="translate(-65 -12.733)" fill="#6f6571"/>
    <path id="Trazado_182880" data-name="Trazado 182880" d="M124.985,398.5l.584,2.2-.584,2.2-4.985.176V398.5Z" transform="translate(-110.862 -333.534)" fill="#e8e8e8"/>
    <path id="Trazado_182881" data-name="Trazado 182881" d="M199.348,398.5v2.658L150,402.895V398.5Z" transform="translate(-135.877 -333.534)" fill="#ff9161"/>
    <path id="Trazado_182882" data-name="Trazado 182882" d="M87.238,440.872h56.453v6.19H87.238Z" transform="translate(-83.543 -368.865)" fill="#f9f8f9"/>
    <path id="Trazado_182883" data-name="Trazado 182883" d="M73.385,419.485a.831.831,0,0,0-.831.831v3.323a.831.831,0,0,0,.831.831H130.21a.831.831,0,0,1,.831.831v1.662l-.392,1.3a.831.831,0,0,1-.831.831L73.9,428.831a5.815,5.815,0,0,1-5.815-5.815l.027-1.651c0-1.976,1.952-5.822,1.952-5.822a5.789,5.789,0,0,1,3.324-1.043h57.655v4.154a.831.831,0,0,1-.831.831Z" transform="translate(-67.57 -346.875)" fill="#857e87"/>
    <path id="Trazado_182884" data-name="Trazado 182884" d="M128.471,432.195v1.662a.831.831,0,0,1-.831.831H70.815A5.815,5.815,0,0,1,65,428.872v-3.323a5.806,5.806,0,0,1,2.492-4.773v7.1a4.32,4.32,0,0,0,4.32,4.32Z" transform="translate(-65 -352.108)" fill="#6f6571"/>
    <g id="Grupo_120769" data-name="Grupo 120769" transform="translate(19.108 5.102)">
      <path id="Trazado_182885" data-name="Trazado 182885" d="M217.644,52.913l-1.775.246h-32.36l-1.563-.374-1.916-.97A1.671,1.671,0,0,1,180,51.5V39.867a1.671,1.671,0,0,1,.03-.317l1.816-1.061,1.665-.284h32.355l1.54.374,1.939.953a1.672,1.672,0,0,1,.034.335V51.5a1.668,1.668,0,0,1-.03.316Z" transform="translate(-180 -38.205)" fill="#f9f8f9"/>
    </g>
    <g id="Grupo_120770" data-name="Grupo 120770" transform="translate(19.108 47.682)">
      <path id="Trazado_182886" data-name="Trazado 182886" d="M217.644,309.18l-1.775.246h-32.36l-1.563-.374-1.916-.97a1.671,1.671,0,0,1-.03-.318V296.134a1.671,1.671,0,0,1,.03-.317l1.816-1.061,1.665-.284h32.355l1.54.374,1.939.953a1.672,1.672,0,0,1,.034.335v11.631a1.668,1.668,0,0,1-.03.316Z" transform="translate(-180 -294.472)" fill="#f9f8f9"/>
    </g>
  </g>
  <g id="Grupo_120772" data-name="Grupo 120772" transform="translate(0)">
    <path id="Trazado_182887" data-name="Trazado 182887" d="M121.386,0H109.672a1.246,1.246,0,1,0,0,2.492h11.3V67.625H74.115V2.492h29.742a1.246,1.246,0,1,0,0-2.492h-39.3A7.07,7.07,0,0,0,57.5,7.062V39.707a1.246,1.246,0,0,0,2.492,0V7.062a4.575,4.575,0,0,1,4.569-4.569h2.077v14.66a1.246,1.246,0,0,0,2.492,0V2.492h2.492V67.625H69.131V22.968a1.246,1.246,0,0,0-2.492,0V67.625H64.562a7.029,7.029,0,0,0-4.569,1.684V45.523a1.246,1.246,0,1,0-2.492,0V78.009a7.069,7.069,0,0,0,7.062,7.062h56.825a2.079,2.079,0,0,0,2.077-2.077V79.671a2.079,2.079,0,0,0-2.077-2.077H120.14V75.1h1.246a2.079,2.079,0,0,0,2.077-2.077V2.077A2.079,2.079,0,0,0,121.386,0Zm-.415,72.609H85.433a1.246,1.246,0,1,0,0,2.492h32.215v2.492H64.977V75.1h14.64a1.246,1.246,0,1,0,0-2.492H64.562a2.079,2.079,0,0,0-2.077,2.077v3.323a2.079,2.079,0,0,0,2.077,2.077h56.409v2.492H64.562a4.574,4.574,0,0,1-4.569-4.569V74.686a4.574,4.574,0,0,1,4.569-4.569h56.409Z" transform="translate(-57.5)"/>
    <path id="Trazado_182888" data-name="Trazado 182888" d="M214.369,46.9V31.95a1.258,1.258,0,0,0-1.246-1.246H173.744A1.258,1.258,0,0,0,172.5,31.95V46.9a1.233,1.233,0,0,0,1.254,1.246h39.364A1.3,1.3,0,0,0,214.369,46.9ZM174.99,33.757l14.933,5.671L174.99,45.1Zm5.546-.56h25.795l-12.9,4.9Zm12.9,7.564,12.9,4.9H180.536Zm3.51-1.333,14.933-5.671V45.1Z" transform="translate(-153.39 -25.602)"/>
    <path id="Trazado_182889" data-name="Trazado 182889" d="M172.5,288.219v14.954a1.233,1.233,0,0,0,1.254,1.246h39.364a1.274,1.274,0,0,0,1.254-1.246V288.219a1.258,1.258,0,0,0-1.246-1.246H173.746A1.336,1.336,0,0,0,172.5,288.219Zm39.379,13.148L196.946,295.7l14.933-5.671Zm-5.546.56H180.538l12.9-4.9Zm-12.9-7.564-12.9-4.9h25.795Zm-3.51,1.333-14.933,5.671V290.026Z" transform="translate(-153.392 -239.291)"/>
    <path id="Trazado_182890" data-name="Trazado 182890" d="M249.748,161.333a1.246,1.246,0,0,0,0-2.492H228.6a1.246,1.246,0,1,0,0,2.492Z" transform="translate(-199.129 -132.449)"/>
    <path id="Trazado_182891" data-name="Trazado 182891" d="M213.125,188.841H173.746a1.246,1.246,0,0,0,0,2.492h39.379a1.246,1.246,0,0,0,0-2.492Z" transform="translate(-153.392 -157.464)"/>
    <path id="Trazado_182892" data-name="Trazado 182892" d="M173.746,221.333H188.9a1.246,1.246,0,0,0,0-2.492H173.746a1.246,1.246,0,0,0,0,2.492Z" transform="translate(-153.392 -182.48)"/>
    <path id="Trazado_182893" data-name="Trazado 182893" d="M173.746,251.333H188.9a1.246,1.246,0,0,0,0-2.492H173.746a1.246,1.246,0,0,0,0,2.492Z" transform="translate(-153.392 -207.495)"/>
  </g>
</svg>
