<svg id="_045-move" data-name="045-move" xmlns="http://www.w3.org/2000/svg" width="85.071" height="85.071" viewBox="0 0 85.071 85.071">
  <g id="Grupo_120795" data-name="Grupo 120795" transform="translate(1.246 1.246)">
    <g id="Grupo_120794" data-name="Grupo 120794">
      <g id="Grupo_120777" data-name="Grupo 120777">
        <g id="Grupo_120773" data-name="Grupo 120773" transform="translate(60.935 60.935)">
          <path id="Trazado_182894" data-name="Trazado 182894" d="M394.22,395.882H376.735a2.5,2.5,0,1,1,0-4.995h13.653a.5.5,0,0,0,.5-.5V376.735a2.5,2.5,0,1,1,4.995,0V394.22A1.662,1.662,0,0,1,394.22,395.882Z" transform="translate(-374.238 -374.238)" fill="#e8e8e8"/>
        </g>
        <g id="Grupo_120774" data-name="Grupo 120774" transform="translate(0 60.935)">
          <path id="Trazado_182895" data-name="Trazado 182895" d="M26.646,395.882H9.162A1.662,1.662,0,0,1,7.5,394.22V376.735a2.5,2.5,0,1,1,4.995,0v13.653a.5.5,0,0,0,.5.5H26.646a2.5,2.5,0,0,1,0,4.995Z" transform="translate(-7.5 -374.238)" fill="#e8e8e8"/>
        </g>
        <g id="Grupo_120775" data-name="Grupo 120775" transform="translate(0)">
          <path id="Trazado_182896" data-name="Trazado 182896" d="M10,29.144a2.5,2.5,0,0,1-2.5-2.5V9.162A1.662,1.662,0,0,1,9.162,7.5H26.646a2.5,2.5,0,0,1,0,4.995H12.993a.5.5,0,0,0-.5.5V26.646a2.5,2.5,0,0,1-2.5,2.5Z" transform="translate(-7.5 -7.5)" fill="#e8e8e8"/>
        </g>
        <g id="Grupo_120776" data-name="Grupo 120776" transform="translate(60.935 0)">
          <path id="Trazado_182897" data-name="Trazado 182897" d="M393.384,29.144a2.5,2.5,0,0,1-2.5-2.5V12.993a.5.5,0,0,0-.5-.5H376.735a2.5,2.5,0,1,1,0-4.995H394.22a1.662,1.662,0,0,1,1.662,1.662V26.646a2.5,2.5,0,0,1-2.5,2.5Z" transform="translate(-374.238 -7.5)" fill="#e8e8e8"/>
        </g>
      </g>
      <g id="Grupo_120781" data-name="Grupo 120781" transform="translate(28.302 0)">
        <g id="Grupo_120778" data-name="Grupo 120778" transform="translate(0.555 0.261)">
          <path id="Trazado_182898" data-name="Trazado 182898" d="M193.981,9.245a.5.5,0,0,0-.749,0l-6.446,7.143-5.476,6.721a.548.548,0,0,0,.413.908l1.58.206h3.713a.516.516,0,0,1,.068,0c.217.03.483.065.515.287l2.624,17.29a.662.662,0,0,0,.656.567l1.717.171h3.94a.663.663,0,0,0,.656-.567L199.7,24.649a.5.5,0,0,1,.493-.427h5.848a.548.548,0,0,0,.413-.908l-6.03-6.926-5.151-5.916Z" transform="translate(-181.174 -9.074)" fill="#afefa5"/>
        </g>
        <g id="Grupo_120779" data-name="Grupo 120779" transform="translate(6.398 15.409)">
          <path id="Trazado_182899" data-name="Trazado 182899" d="M221.919,118.56H220a.663.663,0,0,1-.656-.568l-2.511-17.325a.5.5,0,0,0-.493-.427h2.492a.5.5,0,0,1,.493.427Z" transform="translate(-216.34 -100.24)" fill="#8ce1a4"/>
        </g>
        <g id="Grupo_120780" data-name="Grupo 120780">
          <path id="Trazado_182900" data-name="Trazado 182900" d="M192.49,9.16l-6.164,7.08-5.809,6.671h-2.135a.548.548,0,0,1-.414-.907L184,15.077l6.445-7.4a.5.5,0,0,1,.751,0Z" transform="translate(-177.833 -7.503)" fill="#8ce1a4"/>
        </g>
      </g>
      <g id="Grupo_120785" data-name="Grupo 120785" transform="translate(0 28.302)">
        <g id="Grupo_120782" data-name="Grupo 120782" transform="translate(0.261)">
          <path id="Trazado_182901" data-name="Trazado 182901" d="M9.245,190.447a.5.5,0,0,0,0,.749l7.143,6.446,6.721,5.476a.548.548,0,0,0,.908-.413l.206-1.58v-3.713a.516.516,0,0,1,0-.068c.03-.217.065-.483.287-.515L41.8,194.2a.662.662,0,0,0,.567-.656l.171-1.717v-3.94a.663.663,0,0,0-.567-.656l-17.326-2.511a.5.5,0,0,1-.427-.493v-5.848a.548.548,0,0,0-.908-.413L16.387,184l-5.916,5.151Z" transform="translate(-9.074 -177.834)" fill="#afefa5"/>
        </g>
        <g id="Grupo_120783" data-name="Grupo 120783" transform="translate(15.409 13.998)">
          <path id="Trazado_182902" data-name="Trazado 182902" d="M118.56,262.08V264a.663.663,0,0,1-.568.656l-17.325,2.511a.5.5,0,0,0-.427.493v-2.492a.5.5,0,0,1,.427-.493Z" transform="translate(-100.24 -262.08)" fill="#8ce1a4"/>
        </g>
        <g id="Grupo_120784" data-name="Grupo 120784" transform="translate(0 11.318)">
          <path id="Trazado_182903" data-name="Trazado 182903" d="M9.16,245.95l7.08,6.164,6.671,5.809v2.135a.548.548,0,0,1-.907.414l-6.927-6.031L7.673,248a.5.5,0,0,1,0-.751Z" transform="translate(-7.503 -245.95)" fill="#8ce1a4"/>
        </g>
      </g>
      <g id="Grupo_120789" data-name="Grupo 120789" transform="translate(28.302 48.849)">
        <g id="Grupo_120786" data-name="Grupo 120786" transform="translate(0.555)">
          <path id="Trazado_182904" data-name="Trazado 182904" d="M193.983,334.8a.5.5,0,0,1-.749,0l-6.446-7.143-5.476-6.721a.548.548,0,0,1,.413-.908l1.58-.206h3.713a.516.516,0,0,0,.068,0c.217-.03.483-.065.515-.287l2.624-17.29a.662.662,0,0,1,.656-.567l1.717-.171h3.94a.663.663,0,0,1,.656.567l2.511,17.326a.5.5,0,0,0,.493.427h5.848a.548.548,0,0,1,.413.908l-6.03,6.926-5.151,5.917Z" transform="translate(-181.176 -301.5)" fill="#afefa5"/>
        </g>
        <g id="Grupo_120787" data-name="Grupo 120787" transform="translate(6.398 0)">
          <path id="Trazado_182905" data-name="Trazado 182905" d="M221.921,301.5H220a.663.663,0,0,0-.656.568l-2.511,17.325a.5.5,0,0,1-.493.427h2.492a.5.5,0,0,0,.493-.427Z" transform="translate(-216.342 -301.5)" fill="#8ce1a4"/>
        </g>
        <g id="Grupo_120788" data-name="Grupo 120788" transform="translate(0 18.32)">
          <path id="Trazado_182906" data-name="Trazado 182906" d="M192.492,425.511l-6.164-7.08-5.809-6.671h-2.135a.548.548,0,0,0-.414.907L184,419.594l6.445,7.4a.5.5,0,0,0,.751,0Z" transform="translate(-177.835 -411.76)" fill="#8ce1a4"/>
        </g>
      </g>
      <g id="Grupo_120793" data-name="Grupo 120793" transform="translate(48.849 28.301)">
        <g id="Grupo_120790" data-name="Grupo 120790">
          <path id="Trazado_182907" data-name="Trazado 182907" d="M334.8,190.445a.5.5,0,0,1,0,.749l-7.143,6.446-6.721,5.476a.548.548,0,0,1-.908-.413l-.206-1.58V197.41a.516.516,0,0,0,0-.068c-.03-.217-.065-.483-.287-.515l-17.29-2.624a.662.662,0,0,1-.567-.656l-.171-1.717v-3.94a.663.663,0,0,1,.567-.656l17.326-2.511a.5.5,0,0,0,.427-.493v-5.848a.548.548,0,0,1,.908-.413l6.926,6.03,5.917,5.151Z" transform="translate(-301.5 -177.832)" fill="#afefa5"/>
        </g>
        <g id="Grupo_120791" data-name="Grupo 120791" transform="translate(0 13.998)">
          <path id="Trazado_182908" data-name="Trazado 182908" d="M301.5,262.078V264a.663.663,0,0,0,.568.656l17.325,2.511a.5.5,0,0,1,.427.493v-2.492a.5.5,0,0,0-.427-.493Z" transform="translate(-301.5 -262.078)" fill="#8ce1a4"/>
        </g>
        <g id="Grupo_120792" data-name="Grupo 120792" transform="translate(18.32 11.318)">
          <path id="Trazado_182909" data-name="Trazado 182909" d="M425.511,245.948l-7.08,6.164-6.671,5.809v2.135a.548.548,0,0,0,.907.414l6.927-6.031,7.4-6.445a.5.5,0,0,0,0-.751Z" transform="translate(-411.76 -245.948)" fill="#8ce1a4"/>
        </g>
      </g>
    </g>
  </g>
  <g id="Grupo_120813" data-name="Grupo 120813" transform="translate(0 0)">
    <g id="Grupo_120797" data-name="Grupo 120797" transform="translate(28.303)">
      <g id="Grupo_120796" data-name="Grupo 120796">
        <path id="Trazado_182910" data-name="Trazado 182910" d="M187.506,36.222h-5.86a1.919,1.919,0,0,1-1.889-1.635L177.339,17.9h-5.2a1.794,1.794,0,0,1-1.353-2.973l4.562-5.24a1.246,1.246,0,0,1,1.88,1.637l-3.556,4.084h4.746a1.246,1.246,0,0,1,1.233,1.067l2.5,17.252H187l2.5-17.253a1.246,1.246,0,0,1,1.233-1.067h4.747L184.576,2.884l-3.507,4.028a1.246,1.246,0,0,1-1.88-1.637L183.262.6a1.743,1.743,0,0,1,2.629,0l12.477,14.331a1.794,1.794,0,0,1-1.353,2.972h-5.2L189.4,34.587A1.919,1.919,0,0,1,187.506,36.222Z" transform="translate(-170.344 0)"/>
      </g>
    </g>
    <g id="Grupo_120799" data-name="Grupo 120799" transform="translate(0 28.304)">
      <g id="Grupo_120798" data-name="Grupo 120798">
        <path id="Trazado_182911" data-name="Trazado 182911" d="M16.109,198.809a1.8,1.8,0,0,1-1.18-.44L.6,185.891a1.743,1.743,0,0,1,0-2.629h0l14.331-12.477a1.794,1.794,0,0,1,2.973,1.353v5.2l16.685,2.419a1.919,1.919,0,0,1,1.635,1.889v5.86a1.919,1.919,0,0,1-1.635,1.889L17.9,191.814v5.2a1.792,1.792,0,0,1-1.793,1.794ZM2.884,184.577l12.525,10.905v-4.747a1.246,1.246,0,0,1,1.067-1.233L33.729,187v-4.849l-17.253-2.5a1.246,1.246,0,0,1-1.067-1.233v-4.747Z" transform="translate(0 -170.345)"/>
      </g>
    </g>
    <g id="Grupo_120801" data-name="Grupo 120801" transform="translate(28.304 48.849)">
      <g id="Grupo_120800" data-name="Grupo 120800">
        <path id="Trazado_182912" data-name="Trazado 182912" d="M184.577,330.222a1.742,1.742,0,0,1-1.314-.6h0l-12.477-14.331a1.794,1.794,0,0,1,1.353-2.973h5.2l2.419-16.685A1.919,1.919,0,0,1,181.647,294h5.86a1.919,1.919,0,0,1,1.889,1.635l2.419,16.685h5.2a1.794,1.794,0,0,1,1.353,2.973l-12.477,14.331A1.742,1.742,0,0,1,184.577,330.222Zm-10.905-15.409,10.905,12.525,10.905-12.525h-4.747a1.246,1.246,0,0,1-1.233-1.067L187,296.492h-4.849l-2.5,17.253a1.246,1.246,0,0,1-1.233,1.067Z" transform="translate(-170.345 -294)"/>
      </g>
    </g>
    <g id="Grupo_120803" data-name="Grupo 120803" transform="translate(48.849 28.304)">
      <g id="Grupo_120802" data-name="Grupo 120802">
        <path id="Trazado_182913" data-name="Trazado 182913" d="M314.113,198.809a1.792,1.792,0,0,1-1.793-1.794v-5.2l-3.573-.518a1.246,1.246,0,1,1,.358-2.467l4.64.673a1.246,1.246,0,0,1,1.067,1.233v4.747l12.525-10.905-12.525-10.905v4.747a1.246,1.246,0,0,1-1.067,1.233l-17.253,2.5V187l6.848.993a1.246,1.246,0,0,1-.358,2.467l-7.348-1.065A1.919,1.919,0,0,1,294,187.507v-5.86a1.919,1.919,0,0,1,1.635-1.889l16.685-2.419v-5.2a1.794,1.794,0,0,1,2.972-1.353l14.331,12.477a1.743,1.743,0,0,1,0,2.629l-14.331,12.477a1.8,1.8,0,0,1-1.18.44Z" transform="translate(-294 -170.345)"/>
      </g>
    </g>
    <g id="Grupo_120812" data-name="Grupo 120812" transform="translate(0 0)">
      <g id="Grupo_120805" data-name="Grupo 120805" transform="translate(60.935 60.935)">
        <g id="Grupo_120804" data-name="Grupo 120804">
          <path id="Trazado_182914" data-name="Trazado 182914" d="M387.967,390.875H370.482a3.743,3.743,0,0,1,0-7.487h12.906V370.482a3.743,3.743,0,0,1,7.487,0v17.485A2.911,2.911,0,0,1,387.967,390.875Zm-17.485-4.995a1.251,1.251,0,0,0,0,2.5h17.485a.416.416,0,0,0,.415-.415V370.482a1.251,1.251,0,0,0-2.5,0v14.152a1.246,1.246,0,0,1-1.246,1.246H370.482Z" transform="translate(-366.739 -366.739)"/>
        </g>
      </g>
      <g id="Grupo_120807" data-name="Grupo 120807" transform="translate(0 60.935)">
        <g id="Grupo_120806" data-name="Grupo 120806">
          <path id="Trazado_182915" data-name="Trazado 182915" d="M20.392,390.875H2.908A2.911,2.911,0,0,1,0,387.967V370.482a3.743,3.743,0,0,1,7.487,0v4.794a1.246,1.246,0,0,1-2.492,0v-4.794a1.251,1.251,0,0,0-2.5,0v17.485a.416.416,0,0,0,.415.415H20.392a1.251,1.251,0,0,0,0-2.5H6.241a1.246,1.246,0,0,1-1.246-1.246V381.1a1.246,1.246,0,0,1,2.492,0v2.286H20.393a3.743,3.743,0,0,1,0,7.487Z" transform="translate(0 -366.739)"/>
        </g>
      </g>
      <g id="Grupo_120809" data-name="Grupo 120809">
        <g id="Grupo_120808" data-name="Grupo 120808">
          <path id="Trazado_182916" data-name="Trazado 182916" d="M3.743,24.136A3.748,3.748,0,0,1,0,20.392V2.908A2.911,2.911,0,0,1,2.908,0H20.392a3.743,3.743,0,0,1,0,7.487H7.487V20.392a3.748,3.748,0,0,1-3.744,3.743ZM2.908,2.492a.416.416,0,0,0-.415.415V20.392a1.251,1.251,0,0,0,2.5,0V6.241A1.246,1.246,0,0,1,6.241,4.995H20.392a1.251,1.251,0,0,0,0-2.5Z" transform="translate(0 0)"/>
        </g>
      </g>
      <g id="Grupo_120811" data-name="Grupo 120811" transform="translate(60.935 0)">
        <g id="Grupo_120810" data-name="Grupo 120810">
          <path id="Trazado_182917" data-name="Trazado 182917" d="M387.131,24.136a3.748,3.748,0,0,1-3.743-3.743V7.487H370.482a3.744,3.744,0,0,1,0-7.487h17.485a2.911,2.911,0,0,1,2.908,2.908V8.575a1.246,1.246,0,1,1-2.492,0V2.908a.416.416,0,0,0-.415-.415H370.482a1.251,1.251,0,0,0,0,2.5h14.152a1.246,1.246,0,0,1,1.246,1.246V20.392a1.251,1.251,0,0,0,2.5,0V14.4a1.246,1.246,0,1,1,2.492,0v5.992A3.748,3.748,0,0,1,387.131,24.136Z" transform="translate(-366.739 0)"/>
        </g>
      </g>
    </g>
  </g>
</svg>
