<svg xmlns="http://www.w3.org/2000/svg" width="83.227" height="87.013" viewBox="0 0 83.227 87.013">
  <g id="_048-draw" data-name="048-draw" transform="translate(-11.139)">
    <g id="Grupo_120827" data-name="Grupo 120827" transform="translate(12.414 1.275)">
      <path id="Trazado_183011" data-name="Trazado 183011" d="M85.525,91.159l-63.083.26a1.7,1.7,0,0,1-1.7-1.7L20.4,9.386a1.7,1.7,0,0,1,1.7-1.7l.637-.186H85.525a1.7,1.7,0,0,1,1.7,1.7V90.264C87.224,91.2,86.463,91.159,85.525,91.159Z" transform="translate(-20.103 -7.5)" fill="#f9f8f9"/>
      <path id="Trazado_183012" data-name="Trazado 183012" d="M85.673,89.414v.85c0,.939-.384,1.322-1.322,1.322L72.8,91.964H20.338a1.7,1.7,0,0,1-1.7-1.7V9.2a1.7,1.7,0,0,1,1.7-1.7h.85V86.525a2.889,2.889,0,0,0,2.889,2.889Z" transform="translate(-18.639 -7.5)" fill="#dcdbdd"/>
      <path id="Trazado_183013" data-name="Trazado 183013" d="M235.874,202.527h10.707a5.013,5.013,0,0,0,0-10.027H235.874a5.013,5.013,0,0,0,0,10.027Z" transform="translate(-194.795 -161.06)" fill="#f2bb88"/>
      <path id="Trazado_183014" data-name="Trazado 183014" d="M246.861,248.5h18.014v7.818H246.861Z" transform="translate(-208.075 -207.543)" fill="#f2bb88"/>
      <path id="Trazado_183015" data-name="Trazado 183015" d="M223.634,126.7l-2.316-5.9a6.8,6.8,0,0,0-7.044-4.277l-37.412,3.96a4.476,4.476,0,0,0-3.7,6.063s3.13,2.3,5.031,2.3L190.32,129a5.459,5.459,0,0,0,1.3,2.878l3.059,3.254a18.037,18.037,0,0,1,4.452,11.976c0,.041,0-.041,0,0a9.758,9.758,0,0,0,4.319,7.511l-.135,11.829h21.379V132.306a15.342,15.342,0,0,0-1.06-5.6Z" transform="translate(-146.651 -97.964)" fill="#f2d1a5"/>
      <path id="Trazado_183016" data-name="Trazado 183016" d="M352.014,340.568v11.624h-2.379V340.568l-.046-.032A2.6,2.6,0,0,1,352.014,340.568Z" transform="translate(-293.345 -283.704)" fill="#f2bb88"/>
      <path id="Trazado_183017" data-name="Trazado 183017" d="M337.7,415.826l-.275-14.724a2.209,2.209,0,0,1,2.209-2.209l2.283-.392h19.8a2.209,2.209,0,0,1,2.209,2.209V416a.51.51,0,0,1-.51.51h-21.5Z" transform="translate(-283.248 -332.051)" fill="#bde4ff"/>
      <path id="Trazado_183018" data-name="Trazado 183018" d="M339.372,398.5v18.014h-4.5a.51.51,0,0,1-.51-.51v-15.3a2.209,2.209,0,0,1,2.209-2.209Z" transform="translate(-280.703 -332.051)" fill="#99dbff"/>
      <path id="Trazado_183019" data-name="Trazado 183019" d="M213.461,177.109a1.429,1.429,0,0,1-1.429,1.429H178.8a4.479,4.479,0,0,1-4.172-2.858h37.4A1.429,1.429,0,0,1,213.461,177.109Z" transform="translate(-148.118 -147.098)" fill="#f2bb88"/>
      <g id="Grupo_120826" data-name="Grupo 120826" transform="translate(32.127 9.005)">
        <path id="Trazado_183020" data-name="Trazado 183020" d="M260.267,111.434l-23.674,27.081a6.862,6.862,0,0,1-.819.8l-4.229-2.167-2.367-3.55c.2-.326.662-.327.913-.616l23.78-27.091,3.914,1.961Z" transform="translate(-225.525 -98.174)" fill="#afefa5"/>
        <path id="Trazado_183021" data-name="Trazado 183021" d="M214.712,300.25,211,302.395a1.5,1.5,0,0,1-1.273.109c-.167-.062-.229-.287-.369-.409a1.15,1.15,0,0,1-.4-1.01,1.5,1.5,0,0,1,.107-.559l1.576-3.861,2.427,1.33Z" transform="translate(-208.746 -256.527)" fill="#857e87"/>
        <path id="Trazado_183022" data-name="Trazado 183022" d="M400.941,68.842l-2.685,3.071-4.29-2.141-2.32-3.589,2.562-3.039c.781-.9,3.04-.425,3.04-.425l.068.056,3.4,2.95A2.209,2.209,0,0,1,400.941,68.842Z" transform="translate(-360.381 -62.236)" fill="#ff7d91"/>
        <path id="Trazado_183023" data-name="Trazado 183023" d="M382.313,88.884l-3.132,3.582-6.742-5.844,2.321-.964.811-2.618Z" transform="translate(-344.439 -79.207)" fill="#f9f8f9"/>
        <path id="Trazado_183024" data-name="Trazado 183024" d="M226.254,274.637a6.908,6.908,0,0,1-.914.634l-3.37,1.949-4.261-3.693,1.474-1.611c.138-.345.282-2.681.475-3Z" transform="translate(-216.004 -233.497)" fill="#f2d1a5"/>
        <path id="Trazado_183025" data-name="Trazado 183025" d="M255.023,105.418l-.647.741L230.7,133.242c-.034.039-.068.078-.1.119l-1.086-.331-.338-.9a6.618,6.618,0,0,1,.673-.925l23.674-27.083h1.2Z" transform="translate(-225.525 -96.704)" fill="#8ce1a4"/>
        <path id="Trazado_183026" data-name="Trazado 183026" d="M210.621,297.1l-.387.967-1.57,3.908a1.481,1.481,0,0,1-.465-.276,1.511,1.511,0,0,1-.411-1.7l1.6-3.973h.877Z" transform="translate(-207.679 -256)" fill="#6f6571"/>
        <path id="Trazado_183027" data-name="Trazado 183027" d="M396.6,60.968l-4.224,4.66L391,65.439l-.13-1.121,2.685-3.071A2.211,2.211,0,0,1,396.6,60.968Z" transform="translate(-359.737 -60.485)" fill="#e15f78"/>
        <path id="Trazado_183028" data-name="Trazado 183028" d="M377.082,84.35l-.661.729-2.485,2.842-1.5-1.3,3.132-3.582Z" transform="translate(-344.439 -79.207)" fill="#e8e8e8"/>
        <path id="Trazado_183029" data-name="Trazado 183029" d="M221.082,270.154a6.313,6.313,0,0,0-.574.806,6.542,6.542,0,0,0-.5.994l-1.064,2.646-1.237-1.072,1.451-3.613a6.545,6.545,0,0,1,.5-.994Z" transform="translate(-216.004 -233.497)" fill="#f2bb88"/>
      </g>
      <path id="Trazado_183030" data-name="Trazado 183030" d="M287.289,172.153l2.661-3.054-6.419-6.974A4.846,4.846,0,0,0,277.942,161s-.76.61-1.143.962l.007.018c-1.97,1.809-1.589,4.647.221,6.617l2.605,3.254a17.93,17.93,0,0,1,4.628,11.869q0,.062,0,.123a9.466,9.466,0,0,0,9.26,9.335Z" transform="translate(-231.839 -134.546)" fill="#f2d1a5"/>
      <path id="Trazado_183031" data-name="Trazado 183031" d="M291.779,194.014v.012a1.259,1.259,0,0,1-1.459,1.18A9.651,9.651,0,0,1,282.245,186c0-.041,0-.082,0-.124a17.8,17.8,0,0,0-4.667-11.8l-2.991-3.249a4.844,4.844,0,0,1,.292-6.842,4.775,4.775,0,0,1,1.255-.836,4.854,4.854,0,0,0,.662,5.639l2.991,3.249a17.8,17.8,0,0,1,4.667,11.8c0,.042,0,.083,0,.124a9.652,9.652,0,0,0,6.464,8.8,1.269,1.269,0,0,1,.861,1.256Z" transform="translate(-230.03 -136.697)" fill="#f2bb88"/>
    </g>
    <g id="Grupo_120828" data-name="Grupo 120828" transform="translate(11.139 0)">
      <path id="Trazado_183032" data-name="Trazado 183032" d="M91.731,66.558V53.024a1.275,1.275,0,1,0-2.549,0V66.449h-19.2V60.311a10.767,10.767,0,0,0,4.1.869H74.1a1.275,1.275,0,0,0,.017-2.549,8.446,8.446,0,0,1-8.213-8.2,19.058,19.058,0,0,0-5-12.644l-2.989-3.248a3.573,3.573,0,0,1,.215-5.043,3.646,3.646,0,0,1,5.044.216L74.107,41.6a1.275,1.275,0,1,0,1.876-1.726L71.219,34.7l.623-.712h4.85a1.275,1.275,0,1,0,0-2.549H74.07l8.722-9.977a5.488,5.488,0,0,1,3.1,3.114l2.316,5.9a14.012,14.012,0,0,1,.972,5.139V47.072a1.275,1.275,0,0,0,2.549,0V35.617a16.548,16.548,0,0,0-1.148-6.07l-2.316-5.9a8.02,8.02,0,0,0-3.729-4.18l1.525-1.745a3.488,3.488,0,0,0-.35-4.915l-3.4-2.95a3.463,3.463,0,0,0-1.587-.78v-7.8A1.275,1.275,0,0,0,79.448,0H12.414a1.275,1.275,0,0,0-1.275,1.275V9.928a1.275,1.275,0,0,0,2.549,0V2.549H78.174V9.537a3.475,3.475,0,0,0-.774.666l-8.313,9.509h-.008L54.845,21.219a1.275,1.275,0,0,0-1.133,1.4,1.371,1.371,0,0,0,1.4,1.133l11.5-1.217-3.525,4.032A6.255,6.255,0,0,0,56.4,27.623a6.091,6.091,0,0,0-1.937,3.817H43.1a3.2,3.2,0,0,1-.337-6.379l6.126-.648a1.275,1.275,0,1,0-.268-2.535l-6.126.648A5.747,5.747,0,0,0,43.1,33.989h5.345a6.278,6.278,0,0,0,.827,8.392c-.779.923-1.193,1.283-1.909,2.266a5.246,5.246,0,0,1-1.428.218,10.676,10.676,0,0,1-5.6-1.764,12.93,12.93,0,0,0-6.724-2.058,16.982,16.982,0,0,0-7.85,2.3,10.764,10.764,0,0,1-4.471,1.523,1.275,1.275,0,0,0,0,2.549,12.693,12.693,0,0,0,5.6-1.788,14.708,14.708,0,0,1,6.717-2.034A10.381,10.381,0,0,1,39.1,45.334a13.336,13.336,0,0,0,6.932,2.079l-2.569,6.4a2.774,2.774,0,0,0-.194.856A15.808,15.808,0,0,1,40.334,53.3a12.93,12.93,0,0,0-6.724-2.058,16.982,16.982,0,0,0-7.85,2.3,10.767,10.767,0,0,1-4.471,1.522,1.275,1.275,0,1,0,0,2.549,12.693,12.693,0,0,0,5.6-1.788A14.708,14.708,0,0,1,33.61,53.79,10.381,10.381,0,0,1,39.1,55.531a12.824,12.824,0,0,0,6.669,2.077,3.209,3.209,0,0,0,1.665-.359l7.078-4.094a8.825,8.825,0,0,0,2.173-1.832H63.4a10.943,10.943,0,0,0,4.028,7.452v7.783a3.487,3.487,0,0,0-2.634,3.375v14.53H13.688V15.885a1.275,1.275,0,1,0-2.549,0V85.738a1.275,1.275,0,0,0,1.275,1.275H66.07a1.275,1.275,0,0,0,1.275-1.275V69.933A.936.936,0,0,1,68.279,69h22.6a.936.936,0,0,1,.935.935V85.738a1.275,1.275,0,0,0,2.549,0V69.933a3.487,3.487,0,0,0-2.634-3.375ZM72.667,19.49l1.472,1.276-7.678,8.767L65.141,28.1ZM75.8,15.907l4.816,4.174L79.16,21.745,74.344,17.57ZM68.2,31.419l7.868-8.983,1.417,1.228-8,9.151ZM79.322,11.877a.935.935,0,0,1,1.319-.094l3.4,2.95a.935.935,0,0,1,.1,1.315l-1.849,2.115-4.816-4.174ZM50.653,52.444l-2.888-2.5.871-2.169,4.04,3.5ZM57.04,37.365l1.313,1.426-6.985,7.975L49.919,45.51Zm-2.305,12.32-1.44-1.248,6.742-7.7a16.259,16.259,0,0,1,1.086,1.64Zm-4.98-11.956a3.743,3.743,0,0,1,3.739-3.739H54.71a6.077,6.077,0,0,0,.659,1.413l-4.424,5.06A3.735,3.735,0,0,1,49.755,37.728ZM46.16,55.043c-.2.11-.419-.008-.329-.285l.93-2.315,1.558,1.351ZM62.307,44.9a16.687,16.687,0,0,1,.93,3.879H58.916Z" transform="translate(-11.139 0)"/>
      <path id="Trazado_183033" data-name="Trazado 183033" d="M77.1,76.374,66.735,86.74a1.275,1.275,0,1,0,1.8,1.8L78.9,78.176a1.275,1.275,0,0,0-1.8-1.8Z" transform="translate(-56.976 -63.084)"/>
      <path id="Trazado_183034" data-name="Trazado 183034" d="M78.735,96.72a1.274,1.274,0,0,0,1.8,0l19.544-19.544a1.275,1.275,0,0,0-1.8-1.8L78.735,94.917A1.274,1.274,0,0,0,78.735,96.72Z" transform="translate(-66.937 -62.254)"/>
      <path id="Trazado_183035" data-name="Trazado 183035" d="M72.539,364.548a6.584,6.584,0,0,1,2.579.52,1.275,1.275,0,0,0,.993-2.348,9.168,9.168,0,1,0,5.118,5.5,1.275,1.275,0,1,0-2.414.821,6.629,6.629,0,1,1-6.277-4.492Z" transform="translate(-54.487 -300.478)"/>
      <path id="Trazado_183036" data-name="Trazado 183036" d="M217.591,382a1.275,1.275,0,0,0,1.275-1.275V365.775a1.275,1.275,0,0,0-1.275-1.275H202.636a1.275,1.275,0,0,0-1.275,1.275V380.73A1.275,1.275,0,0,0,202.636,382ZM203.91,367.049h12.406v12.406H203.91Z" transform="translate(-169.033 -302.554)"/>
    </g>
  </g>
</svg>
