<svg xmlns="http://www.w3.org/2000/svg" width="91.779" height="86.477" viewBox="0 0 91.779 86.477">
  <g id="_050-color_wheel" data-name="050-color wheel" transform="translate(0 -14.787)">
    <g id="Grupo_120829" data-name="Grupo 120829" transform="translate(1.344 16.131)">
      <path id="Trazado_183037" data-name="Trazado 183037" d="M63.519,95.993c-1.884,1.1-2.232,3.48-3.816,5.064-4.862,4.862-8.946,10.3-8.946,17.18v.09H37.3l.419-.191A38.177,38.177,0,0,1,48.963,90.652c.982-.982,2.892-2.905,2.892-2.905q1.151-.934,2.361-1.774a18.22,18.22,0,0,0,2.881-1.1Z" transform="translate(-31.958 -73.652)" fill="#ff9161"/>
      <path id="Trazado_183038" data-name="Trazado 183038" d="M185.59,407.093c-5.871,3.378-12.549,3.97-19.5,3.97-7.008,0-13.735-.618-19.638-4.047l6.73-11.659c3.879,2.255,8.3,2.339,12.908,2.339,4.554,0,8.926-.055,12.773-2.26Z" transform="translate(-121.542 -328.482)" fill="#ad96ed"/>
      <path id="Trazado_183039" data-name="Trazado 183039" d="M354.037,115.431v.09H340.581v-.09c0-2.756-1.344-4.82-2.318-7.249-1.456-3.633-3.065-7.43-5.979-10.343-1.622-1.622-2.666-3.613-4.6-4.729l6.732-11.659a39.38,39.38,0,0,1,8.138,6.26A38.945,38.945,0,0,1,354.037,115.431Z" transform="translate(-270.289 -70.846)" fill="#8ce1a4"/>
      <path id="Trazado_183040" data-name="Trazado 183040" d="M129.424,160.473a12.068,12.068,0,0,0-3.253,5.733l-1.256,2.009s.91,1.009.912,1.038H112.369v-.09a25.82,25.82,0,0,1,12.762-22.245l6.139,11.4C130.4,158.841,130.173,159.725,129.424,160.473Z" transform="translate(-93.57 -124.579)" fill="#ffa95f"/>
      <path id="Trazado_183041" data-name="Trazado 183041" d="M209.673,343.04a25.828,25.828,0,0,1-25.68-.079l6.608-11.443a6.11,6.11,0,0,0,2.944.995,12.761,12.761,0,0,0,6.551.043,12.243,12.243,0,0,0,2.989-.926Z" transform="translate(-152.355 -276.086)" fill="#c3aff0"/>
      <path id="Trazado_183042" data-name="Trazado 183042" d="M311,168.812v.09l-13.073-.092c0-.029,0-.059,0-.09a12.211,12.211,0,0,0-.715-2.8,12.062,12.062,0,0,0-3.269-5.8l-.122-.12a12.659,12.659,0,0,0-2.181-2.145L298.1,146.49A25.813,25.813,0,0,1,311,168.812Z" transform="translate(-240.704 -124.226)" fill="#afefa5"/>
      <path id="Trazado_183043" data-name="Trazado 183043" d="M40.792,126.745A38.807,38.807,0,0,1,52.02,100.163a40.167,40.167,0,0,0-3.239,2.906A38.946,38.946,0,0,0,37.3,130.789v.089h0l6.682,1.037,6.775-1.037,1.266-1.005-1.1-2.042H41.868A1.076,1.076,0,0,1,40.792,126.745Z" transform="translate(-31.956 -86.203)" fill="#f4805d"/>
      <path id="Trazado_183044" data-name="Trazado 183044" d="M140.967,93.541c-.494.289.2,2.147-.277,2.47-.368.25-1.907-1.042-2.263-.772l-6.764-11.717q1.256-.874,2.571-1.639l6,5.738Z" transform="translate(-109.406 -71.199)" fill="#f4805d"/>
      <path id="Trazado_183045" data-name="Trazado 183045" d="M185.589,407.089l-1.612-6.719-5.118-4.938c-.455.262-1.278-.232-1.747,0-.444.219-.532,1.164-.988,1.357l6.291,10.9a.359.359,0,0,1-.227.529,43.778,43.778,0,0,1-10.056,1.163,43.216,43.216,0,0,1-19.553-4.624,1.076,1.076,0,0,1-.444-1.5l3.683-6.381.088-.152c-.476-.2-.459-1.058-.922-1.292-.446-.225-1.372.172-1.8-.08l-4.234,4.513-2.5,7.146h0a39.349,39.349,0,0,0,36.437,1.492h0q1.376-.653,2.7-1.416Z" transform="translate(-121.541 -328.479)" fill="#a088e2"/>
      <path id="Trazado_183046" data-name="Trazado 183046" d="M336.493,83.082l-6.762,11.711c-.449-.337-2.08.59-2.547.286-.385-.251.4-1.739,0-1.967l1.2-6.382,5.535-5.277Q335.232,82.214,336.493,83.082Z" transform="translate(-269.788 -70.847)" fill="#80d696"/>
      <path id="Trazado_183047" data-name="Trazado 183047" d="M404.5,257.471v.09l-7.154,2.074-6.3-2.074v-.09c0-.419-1.855-1.018-1.875-1.434-.027-.572,1.772-.959,1.708-1.524h13.514Q404.5,255.984,404.5,257.471Z" transform="translate(-320.752 -212.885)" fill="#80d696"/>
      <path id="Trazado_183048" data-name="Trazado 183048" d="M125.825,257.471c0,.03,0,.061,0,.09l-6.892,1.647-6.567-1.647v-.09a26.123,26.123,0,0,1,.167-2.958h13.636A12.567,12.567,0,0,0,125.825,257.471Z" transform="translate(-93.57 -212.885)" fill="#ff9161"/>
      <path id="Trazado_183049" data-name="Trazado 183049" d="M178.664,158.572a12.466,12.466,0,0,0-2.433,1.9L169.4,148.621a25.57,25.57,0,0,1,2.54-1.7l4.269,5.3Z" transform="translate(-140.377 -124.581)" fill="#ff9161"/>
      <path id="Trazado_183050" data-name="Trazado 183050" d="M193.554,331.572l-6.824,11.819A25,25,0,0,1,184,342.02l.683-4.095,6.043-7.553A11.673,11.673,0,0,0,193.554,331.572Z" transform="translate(-152.364 -275.146)" fill="#ad96ed"/>
      <path id="Trazado_183051" data-name="Trazado 183051" d="M283.4,342.456a25.038,25.038,0,0,1-2.735,1.357l-6.843-11.841a11.784,11.784,0,0,0,2.851-1.166l5.254,5.877Z" transform="translate(-226.085 -275.503)" fill="#ad96ed"/>
      <path id="Trazado_183052" data-name="Trazado 183052" d="M299.442,148.174,292.614,160a12.366,12.366,0,0,0-2.444-1.862l.6-5.347,6.126-6.3A25.06,25.06,0,0,1,299.442,148.174Z" transform="translate(-239.5 -124.228)" fill="#8ce1a4"/>
      <path id="Trazado_183053" data-name="Trazado 183053" d="M336.432,257.47v.09l-6.9,1.586-6.556-1.586c0-.029,0-.059,0-.09a12.568,12.568,0,0,0-.345-2.958h13.635A26.085,26.085,0,0,1,336.432,257.47Z" transform="translate(-266.141 -212.884)" fill="#8ce1a4"/>
      <path id="Trazado_183054" data-name="Trazado 183054" d="M177.14,27.339a1.794,1.794,0,0,1,.718,2.486l-1.77,3.067-6.732,11.659c-3.865-2.236-8.266-1.449-12.85-1.449-4.636,0-9.088-.757-12.985,1.527L136.79,32.97,135.017,29.9a1.794,1.794,0,0,1,.713-2.484,44.655,44.655,0,0,1,41.409-.076Z" transform="translate(-111.961 -22.287)" fill="#ffd064"/>
      <path id="Trazado_183055" data-name="Trazado 183055" d="M42.386,293.713l-4.233,7.333-4.436,5.822a1.8,1.8,0,0,1-2.516.619c-11.905-7.586-19.091-18.607-19.741-33.609A1.8,1.8,0,0,1,13.253,272l6.429-.49h9.864c4.9,4.9,3.373,12.22,8.214,17.061C39.366,290.18,40.613,291.941,42.386,293.713Z" transform="translate(-10.748 -226.839)" fill="#e15f78"/>
      <path id="Trazado_183056" data-name="Trazado 183056" d="M34.9,301.045l-2.5,4.325-1.769,3.065a1.8,1.8,0,0,1-2.517.618A44.568,44.568,0,0,1,7.5,273.388,1.8,1.8,0,0,1,9.3,271.513h7.2A39.495,39.495,0,0,0,34.9,301.045Z" transform="translate(-7.499 -226.838)" fill="#d1546b"/>
      <path id="Trazado_183057" data-name="Trazado 183057" d="M359.025,273.388a44.564,44.564,0,0,1-20.756,35.754,1.8,1.8,0,0,1-2.511-.622l-1.773-3.071-6.73-11.657c1.963-1.125,2.789-3.168,4.432-4.811a27.175,27.175,0,0,0,7.186-12.769c.392-1.522,1.351-3.055,1.356-4.7h17A1.8,1.8,0,0,1,359.025,273.388Z" transform="translate(-269.937 -226.839)" fill="#99dbff"/>
      <path id="Trazado_183058" data-name="Trazado 183058" d="M209.4,130.808l-6.725,11.648a12.405,12.405,0,0,0-12.384.079l-6.726-11.65a25.819,25.819,0,0,1,25.835-.077Z" transform="translate(-152.003 -108.544)" fill="#ffe07d"/>
      <path id="Trazado_183059" data-name="Trazado 183059" d="M131.935,282.065l-6.726,11.648a25.847,25.847,0,0,1-5.3-4.084,25.581,25.581,0,0,1-7.541-18.116h13.458a12.048,12.048,0,0,0,3.6,8.6,12.5,12.5,0,0,0,2.51,1.95Z" transform="translate(-93.57 -226.838)" fill="#ff7d91"/>
      <path id="Trazado_183060" data-name="Trazado 183060" d="M309.43,271.513a25.581,25.581,0,0,1-7.541,18.116,25.887,25.887,0,0,1-5.433,4.162l-6.726-11.65a12.446,12.446,0,0,0,2.645-2.027,12.048,12.048,0,0,0,3.6-8.6Z" transform="translate(-239.138 -226.838)" fill="#bde4ff"/>
    </g>
    <path id="Trazado_183061" data-name="Trazado 183061" d="M90.906,60.431a3.154,3.154,0,0,0-2.267-.968H86.416A40.262,40.262,0,0,0,74.56,32.046,40.881,40.881,0,0,0,67.3,26.265l1.11-1.923a3.156,3.156,0,0,0,.3-2.447,3.1,3.1,0,0,0-1.555-1.9A46.1,46.1,0,0,0,36.1,15.832a1.344,1.344,0,1,0,.571,2.628A43.414,43.414,0,0,1,65.9,22.375a.441.441,0,0,1,.22.27.451.451,0,0,1-.042.353l-7.846,13.59a27.2,27.2,0,0,0-24.821.071L25.564,23.071a.45.45,0,0,1-.043-.352.442.442,0,0,1,.219-.27,43.125,43.125,0,0,1,5.083-2.275,1.344,1.344,0,0,0-.937-2.52,45.866,45.866,0,0,0-5.4,2.417,3.139,3.139,0,0,0-1.25,4.345l1.115,1.932a40.917,40.917,0,0,0-7.133,5.7A40.263,40.263,0,0,0,5.363,59.462H3.14A3.141,3.141,0,0,0,0,62.739,45.981,45.981,0,0,0,21.244,99.481a3.105,3.105,0,0,0,1.675.492A3.155,3.155,0,0,0,25.647,98.4l1.107-1.917a40.523,40.523,0,0,0,19.136,4.78,1.344,1.344,0,0,0,0-2.689A37.835,37.835,0,0,1,28.1,94.154l5.392-9.341a27.169,27.169,0,0,0,24.658.072l5.392,9.34a37.33,37.33,0,0,1-11.562,3.866,1.344,1.344,0,0,0-1.114,1.541,1.247,1.247,0,0,0,1.326,1.131,39.706,39.706,0,0,0,12.7-4.208L66,98.485a3.154,3.154,0,0,0,2.728,1.573,3.107,3.107,0,0,0,1.666-.486A45.962,45.962,0,0,0,91.776,62.739a3.154,3.154,0,0,0-.87-2.308ZM72.659,33.947A37.589,37.589,0,0,1,83.725,59.462H72.951a26.9,26.9,0,0,0-7.905-17.9,27.286,27.286,0,0,0-4.488-3.625L65.949,28.6a38.2,38.2,0,0,1,6.71,5.351ZM51.271,70.267a11.171,11.171,0,0,1-5.381,1.4,10.8,10.8,0,0,1-7.9-3.367,1.344,1.344,0,1,0-1.937,1.864,15.354,15.354,0,0,0,1.857,1.624l-5.4,9.348a24.627,24.627,0,0,1-3.877-3.16,24.231,24.231,0,0,1-7.1-15.821h10.8a13.638,13.638,0,0,0,.332,1.921,1.344,1.344,0,0,0,2.61-.648,11.224,11.224,0,0,1-.324-2.627,10.945,10.945,0,1,1,16.326,9.469ZM32.437,40.351l5.4,9.354a13.747,13.747,0,0,0-5.526,9.758H21.519a24.225,24.225,0,0,1,7.115-16A24.651,24.651,0,0,1,32.437,40.351ZM59.468,59.462a13.629,13.629,0,0,0-5.651-9.85l5.4-9.345a24.618,24.618,0,0,1,3.933,3.2,24.225,24.225,0,0,1,7.115,16H59.468Zm-2.585-20.54L51.49,48.263a14,14,0,0,0-11.342.065l-5.391-9.336a24.482,24.482,0,0,1,22.126-.07ZM19.12,33.947A38.232,38.232,0,0,1,25.7,28.679l5.393,9.34a27.326,27.326,0,0,0-4.358,3.542,26.9,26.9,0,0,0-7.905,17.9H8.054A37.59,37.59,0,0,1,19.12,33.947Zm4.2,63.109a.45.45,0,0,1-.285.213.442.442,0,0,1-.345-.056,43.29,43.29,0,0,1-20-34.591.452.452,0,0,1,.451-.471h15.7a26.9,26.9,0,0,0,7.9,17.722,27.329,27.329,0,0,0,4.431,3.593ZM34.837,82.483l5.393-9.339a13.871,13.871,0,0,0,11.177.064l5.4,9.346a24.491,24.491,0,0,1-21.966-.072ZM68.958,97.3a.443.443,0,0,1-.345.055.45.45,0,0,1-.284-.213l-1.771-3.068h0L60.484,83.552a27.852,27.852,0,0,0,7.881-7.7,1.344,1.344,0,1,0-2.227-1.507,24.692,24.692,0,0,1-7,6.868l-5.394-9.342a14.125,14.125,0,0,0,1.79-1.517,13.334,13.334,0,0,0,3.92-8.207h10.8A24.3,24.3,0,0,1,68.858,69a1.344,1.344,0,0,0,2.53.91,26.983,26.983,0,0,0,1.555-7.757h15.7a.452.452,0,0,1,.451.472A43.271,43.271,0,0,1,68.958,97.3Z" transform="translate(0 0)"/>
  </g>
</svg>
