<svg id="_041-design" data-name="041-design" xmlns="http://www.w3.org/2000/svg" width="85.071" height="85.071" viewBox="0 0 85.071 85.071">
  <g id="Grupo_120821" data-name="Grupo 120821" transform="translate(1.186 1.246)">
    <path id="Trazado_182948" data-name="Trazado 182948" d="M89.887,87.5l.259,2.658v64.136a2.493,2.493,0,0,1-2.492,2.492H10.225l-.166-.166a2.219,2.219,0,0,1-2.326-2.326L7.653,87.5Z" transform="translate(-7.567 -74.208)" fill="#857e87"/>
    <path id="Trazado_182949" data-name="Trazado 182949" d="M10.751,79.5H89.714V76.84L46.968,74.716,7.135,76.84v66.794a2.492,2.492,0,0,0,2.492,2.492h.166V80.456a.958.958,0,0,1,.958-.958Z" transform="translate(-7.135 -63.548)" fill="#6f6571"/>
    <path id="Trazado_182950" data-name="Trazado 182950" d="M89.714,9.992v10.8H7.135V9.992A2.493,2.493,0,0,1,9.627,7.5H87.221A2.493,2.493,0,0,1,89.714,9.992Z" transform="translate(-7.135 -7.5)" fill="#f9f8f9"/>
    <path id="Trazado_182951" data-name="Trazado 182951" d="M134.731,126.006a1.439,1.439,0,0,0-2.035,0l-8.254,8.254-.618.948-1.145.815-1.527,1.527-.628.959-1.135.8-1.529,1.529-.668.937-1.093.825L102.683,156.02l-.56,1.109-1.2.653-1.529,1.529-.664,1.057-1.1.706L96.1,162.6l-.675,1.13-1.088.633-1.527,1.527-.747,1.078-1.016.685-1.529,1.529-.663,1.118-1.1.643v0l-.808.808-.578.744a1.257,1.257,0,0,0-.166,1.869l7.264,7.1c.562.562,1.141.894,1.7.332l46.488-46.488c.562-.562.894-1.141.332-1.7l-.744-1.076Zm-2.737,10a2.409,2.409,0,1,1,3.406,0A2.406,2.406,0,0,1,131.994,136.008Z" transform="translate(-72.78 -105.964)" fill="#ffe07d"/>
    <path id="Trazado_182952" data-name="Trazado 182952" d="M141.623,170.145l-46.49,46.49a1.438,1.438,0,0,1-2.034,0l-7.264-7.264a1.437,1.437,0,0,1,0-2.035l.744-.744,6.479,6.479a1.5,1.5,0,0,0,2.115,0l45.705-45.7.744.744a1.438,1.438,0,0,1,0,2.034Z" transform="translate(-72.406 -140.804)" fill="#ffd064"/>
    <g id="Grupo_120819" data-name="Grupo 120819" transform="translate(15.617 22.392)">
      <path id="Trazado_182953" data-name="Trazado 182953" d="M107.421,144.037l-1.742,2.488-2.449,1.7-2.061-5.364c-.148-.445.109-.7.555-.555l1.246.248Z" transform="translate(-101.127 -142.266)" fill="#6f6571"/>
      <path id="Trazado_182954" data-name="Trazado 182954" d="M122.571,154.966l-3.712,4.639-4.43,3.5a2.13,2.13,0,0,1-.3-.5l-1.878-5.247,4.446-4.446,5.252,1.755A3,3,0,0,1,122.571,154.966Z" transform="translate(-110.399 -151.149)" fill="#f2d1a5"/>
      <path id="Trazado_182955" data-name="Trazado 182955" d="M164.966,196.629l-3.088,3.007-1.764,1.791-3.168,3.189-30.858-30.757a3.014,3.014,0,0,1-.45-.575l3.153-3.1,1.151-.729.612-1.032,3.184-3.185a3.016,3.016,0,0,1,.575.45l30.5,30.5Z" transform="translate(-121.565 -161.422)" fill="#afefa5"/>
      <path id="Trazado_182956" data-name="Trazado 182956" d="M324.482,355.6l-3.294,4.522-4.829,3.646-4.152-4.152,3.129-3.146.669-1.124,1.088-.643,3.284-3.207Z" transform="translate(-277.135 -316.732)" fill="#f9f8f9"/>
      <path id="Trazado_182957" data-name="Trazado 182957" d="M348.472,382.747l-5.646,5.644-.382.216a1.544,1.544,0,0,1-2.283.166l-4.1-4.262,8.311-8.311,4.1,4.1A1.734,1.734,0,0,1,348.472,382.747Z" transform="translate(-297.029 -337.331)" fill="#ff7d91"/>
    </g>
    <path id="Trazado_182958" data-name="Trazado 182958" d="M103.672,146.234l-.636.895-.916.657-1.9-5.7a.571.571,0,0,1,.721-.721l1.246.414,1.4,4.215Z" transform="translate(-84.732 -119.101)" fill="#635a63"/>
    <path id="Trazado_182959" data-name="Trazado 182959" d="M115.416,176.615l-.449,1.057-1.135.558a2.987,2.987,0,0,1-.292-.626l-1.755-5.252,1.552-1.552,1.675,5.016a2.988,2.988,0,0,0,.292.626C115.344,176.507,115.371,176.553,115.416,176.615Z" transform="translate(-94.397 -143.667)" fill="#f2bb88"/>
    <path id="Trazado_182960" data-name="Trazado 182960" d="M156.635,236.805l-.594.893-1.036.737-30.449-30.448a3.016,3.016,0,0,1-.45-.575l1.584-1.616a3.123,3.123,0,0,0,.338.4l30.449,30.448Z" transform="translate(-104.67 -172.849)" fill="#8ce1a4"/>
    <path id="Trazado_182961" data-name="Trazado 182961" d="M315.857,396.572l-.55.891-1.08.739-4.152-4.152,1.63-1.63,3.994,3.994Z" transform="translate(-259.74 -328.464)" fill="#e8e8e8"/>
    <path id="Trazado_182962" data-name="Trazado 182962" d="M341.992,422.753l-.383.383a1.729,1.729,0,0,1-2.449,0l-4.1-4.1,1.63-1.63Z" transform="translate(-280.578 -349.302)" fill="#e15f78"/>
    <g id="Grupo_120820" data-name="Grupo 120820" transform="translate(2.326 5.2)">
      <path id="Trazado_182963" data-name="Trazado 182963" d="M83.206,42.051,79.45,38.8l-1.618,1.746h0a2.491,2.491,0,1,0,3.579,3.464v0Z" transform="translate(-67.829 -38.796)" fill="#e8e8e8"/>
      <path id="Trazado_182964" data-name="Trazado 182964" d="M139.206,42.051,135.45,38.8l-1.618,1.746h0a2.491,2.491,0,1,0,3.579,3.464v0Z" transform="translate(-114.525 -38.796)" fill="#e8e8e8"/>
      <path id="Trazado_182965" data-name="Trazado 182965" d="M27.206,42.051,23.45,38.8l-1.618,1.746h0a2.491,2.491,0,1,0,3.579,3.464v0Z" transform="translate(-21.134 -38.796)" fill="#e8e8e8"/>
    </g>
    <ellipse id="Elipse_5120" data-name="Elipse 5120" cx="2.492" cy="2.492" rx="2.492" ry="2.492" transform="translate(4.154 4.154)" fill="#e15f78"/>
    <ellipse id="Elipse_5121" data-name="Elipse 5121" cx="2.492" cy="2.492" rx="2.492" ry="2.492" transform="translate(13.459 4.154)" fill="#ffe07d"/>
    <ellipse id="Elipse_5122" data-name="Elipse 5122" cx="2.492" cy="2.492" rx="2.492" ry="2.492" transform="translate(22.763 4.154)" fill="#afefa5"/>
  </g>
  <g id="Grupo_120822" data-name="Grupo 120822">
    <path id="Trazado_182966" data-name="Trazado 182966" d="M81.333,0H3.738A3.743,3.743,0,0,0,0,3.738V81.333a3.743,3.743,0,0,0,3.738,3.738H81.333a3.743,3.743,0,0,0,3.738-3.738V3.738A3.743,3.743,0,0,0,81.333,0Zm0,82.579H3.738a1.247,1.247,0,0,1-1.246-1.246V15.785H39.628a1.246,1.246,0,1,0,0-2.492H2.492V3.738A1.247,1.247,0,0,1,3.738,2.492H81.333a1.247,1.247,0,0,1,1.246,1.246v9.554H45.443a1.246,1.246,0,1,0,0,2.492H82.579V81.333A1.247,1.247,0,0,1,81.333,82.579Z"/>
    <path id="Trazado_182967" data-name="Trazado 182967" d="M28.738,25a3.738,3.738,0,1,0,3.738,3.738A3.743,3.743,0,0,0,28.738,25Zm0,4.985a1.246,1.246,0,1,1,1.246-1.246A1.247,1.247,0,0,1,28.738,29.985Z" transform="translate(-20.846 -20.846)"/>
    <path id="Trazado_182968" data-name="Trazado 182968" d="M84.738,25a3.738,3.738,0,1,0,3.738,3.738A3.743,3.743,0,0,0,84.738,25Zm0,4.985a1.246,1.246,0,1,1,1.246-1.246A1.247,1.247,0,0,1,84.738,29.985Z" transform="translate(-67.541 -20.846)"/>
    <path id="Trazado_182969" data-name="Trazado 182969" d="M140.738,25a3.738,3.738,0,1,0,3.738,3.738A3.743,3.743,0,0,0,140.738,25Zm0,4.985a1.246,1.246,0,1,1,1.246-1.246A1.247,1.247,0,0,1,140.738,29.985Z" transform="translate(-114.237 -20.846)"/>
    <path id="Trazado_182970" data-name="Trazado 182970" d="M124.978,114.862a1.246,1.246,0,0,0-1.762,0L104.075,134l-3.359-3.359a1.246,1.246,0,1,0-1.762,1.762L120.347,153.8l-2.365,2.365-29.2-29.2,2.365-2.365,3.693,3.693a1.246,1.246,0,0,0,1.762-1.762l-4.061-4.061a4.2,4.2,0,0,0-1.687-1.044l-12.02-4.018a1.246,1.246,0,0,0-1.276.3A1.385,1.385,0,0,0,77.24,119l4.018,12.02a4.206,4.206,0,0,0,1.043,1.687l11.533,11.533L74.693,163.385a1.246,1.246,0,0,0,0,1.762l9.3,9.3a1.246,1.246,0,0,0,1.762,0L104.9,155.306l16.1,16.1a2.982,2.982,0,0,0,4.212,0l1-1a1.246,1.246,0,1,0-1.762-1.762l-1,1a.486.486,0,0,1-.687,0l-3.215-3.215,6.715-6.715,3.215,3.215a.487.487,0,0,1,0,.687l-.917.917a1.246,1.246,0,0,0,1.762,1.762l.917-.917a2.982,2.982,0,0,0,0-4.212l-16.1-16.1,19.141-19.141a1.246,1.246,0,0,0,0-1.762Zm-8.759,43.066-2.588,2.588-29.2-29.2,2.588-2.588ZM82.111,125.713l3.433-3.433,3.3,1.1-5.629,5.629ZM82.9,121.4l-1.675,1.674-.841-2.515ZM84.874,171.8l-7.537-7.537,1.688-1.688,4.251,4.249a1.246,1.246,0,0,0,1.762-1.763l-4.251-4.249,1.528-1.528,2.5,2.5a1.246,1.246,0,0,0,1.762-1.762l-2.5-2.5L85.6,156l2.5,2.5a1.246,1.246,0,0,0,1.762-1.762l-2.5-2.5,1.527-1.527,4.251,4.249a1.246,1.246,0,0,0,1.762-1.763l-4.251-4.249,1.528-1.528,2.5,2.5a1.246,1.246,0,0,0,1.762-1.762l-2.5-2.5,1.649-1.649,7.537,7.537Zm32.91-7.135-2.389-2.389,6.715-6.715,2.389,2.389Zm-4.41-21.365-7.537-7.537,1.528-1.528,4.275,4.273a1.246,1.246,0,0,0,1.762-1.763l-4.275-4.272,1.528-1.528,2.5,2.5a1.246,1.246,0,1,0,1.762-1.762l-2.5-2.5,1.527-1.527,2.5,2.5a1.246,1.246,0,0,0,1.762-1.762l-2.5-2.5,8.39-8.39,7.537,7.537Z" transform="translate(-61.978 -95.473)"/>
    <path id="Trazado_182971" data-name="Trazado 182971" d="M352.834,157.139a3.655,3.655,0,1,0,5.17,0h0a3.656,3.656,0,0,0-5.17,0Zm3.407,1.762a1.163,1.163,0,1,1-.822-.341,1.155,1.155,0,0,1,.822.341Z" transform="translate(-293.316 -130.137)"/>
  </g>
</svg>
