<svg xmlns="http://www.w3.org/2000/svg" xmlns:xlink="http://www.w3.org/1999/xlink" width="625.259" height="250.003" viewBox="0 0 625.259 250.003">
  <defs>
    <clipPath id="clip-path">
      <rect id="Rectángulo_40361" data-name="Rectángulo 40361" width="625.259" height="212.003" fill="none"/>
    </clipPath>
  </defs>
  <g id="Grupo_125932" data-name="Grupo 125932" transform="translate(12841.629 9126.5)">
    <g id="Grupo_125852" data-name="Grupo 125852" transform="translate(-12841.63 -9099)">
      <line id="Línea_351" data-name="Línea 351" y1="57.944" x2="30.334" transform="translate(437.368 152.844)" fill="#fff"/>
      <g id="Grupo_125841" data-name="Grupo 125841">
        <g id="Grupo_125840" data-name="Grupo 125840" clip-path="url(#clip-path)">
          <line id="Línea_352" data-name="Línea 352" y1="49.467" x2="25.896" transform="translate(437.368 161.321)" fill="none" stroke="#d9000d" stroke-linecap="square" stroke-miterlimit="10" stroke-width="1.8"/>
        </g>
      </g>
      <path id="Trazado_190804" data-name="Trazado 190804" d="M465.052,164.672l2.65-11.828-8.21,8.918Z" fill="#d9000d"/>
      <line id="Línea_353" data-name="Línea 353" y1="76.844" x2="32.134" transform="translate(63.415 113.98)" fill="#fff"/>
      <line id="Línea_354" data-name="Línea 354" y1="68.017" x2="28.443" transform="translate(63.415 122.807)" fill="none" stroke="#d9000d" stroke-linecap="square" stroke-miterlimit="10" stroke-width="1.8"/>
      <path id="Trazado_190805" data-name="Trazado 190805" d="M93.927,125.992l1.622-12.012-7.412,9.591Z" fill="#d9000d"/>
      <line id="Línea_355" data-name="Línea 355" x1="32.134" y1="76.844" transform="translate(63.415 115.663)" fill="#fff"/>
      <line id="Línea_356" data-name="Línea 356" x1="28.443" y1="68.017" transform="translate(67.106 124.49)" fill="none" stroke="#d9000d" stroke-linecap="square" stroke-miterlimit="10" stroke-width="1.8"/>
      <path id="Trazado_190806" data-name="Trazado 190806" d="M70.827,125.254l-7.412-9.591,1.622,12.012Z" fill="#d9000d"/>
      <line id="Línea_357" data-name="Línea 357" x1="27.369" y2="65.404" transform="translate(433.296 1.178)" fill="#fff"/>
      <g id="Grupo_125843" data-name="Grupo 125843">
        <g id="Grupo_125842" data-name="Grupo 125842" clip-path="url(#clip-path)">
          <line id="Línea_358" data-name="Línea 358" x1="23.675" y2="56.577" transform="translate(436.99 1.178)" fill="none" stroke="#d9000d" stroke-linecap="square" stroke-miterlimit="10" stroke-width="1.8"/>
        </g>
      </g>
      <path id="Trazado_190807" data-name="Trazado 190807" d="M434.922,54.57,433.3,66.582l7.414-9.59Z" fill="#d9000d"/>
      <line id="Línea_359" data-name="Línea 359" x2="70.441" y2="144.949" transform="translate(286.999 45.96)" fill="#fff"/>
      <line id="Línea_360" data-name="Línea 360" x2="70.441" y2="144.949" transform="translate(286.999 45.96)" fill="none" stroke="#d9000d" stroke-linecap="square" stroke-miterlimit="10" stroke-width="2.7"/>
      <path id="Trazado_190808" data-name="Trazado 190808" d="M376.729,106.332h0Z" fill="#fff"/>
      <line id="Línea_361" data-name="Línea 361" x2="84.602" transform="translate(376.729 106.332)" fill="none" stroke="#d9000d" stroke-linecap="square" stroke-miterlimit="10" stroke-width="2.7"/>
      <path id="Trazado_190809" data-name="Trazado 190809" d="M.838,24.406h0Z" fill="#fff"/>
      <g id="Grupo_125845" data-name="Grupo 125845">
        <g id="Grupo_125844" data-name="Grupo 125844" clip-path="url(#clip-path)">
          <line id="Línea_362" data-name="Línea 362" x2="623.583" transform="translate(0.838 24.406)" fill="none" stroke="#858484" stroke-linecap="round" stroke-linejoin="round" stroke-width="1.676"/>
        </g>
      </g>
      <path id="Trazado_190810" data-name="Trazado 190810" d="M.838,69.251h0Z" fill="#fff"/>
      <g id="Grupo_125847" data-name="Grupo 125847">
        <g id="Grupo_125846" data-name="Grupo 125846" clip-path="url(#clip-path)">
          <line id="Línea_363" data-name="Línea 363" x2="623.583" transform="translate(0.838 69.252)" fill="none" stroke="#858484" stroke-linecap="round" stroke-linejoin="round" stroke-width="1.676"/>
        </g>
      </g>
      <path id="Trazado_190811" data-name="Trazado 190811" d="M.838,150.651h0Z" fill="#fff"/>
      <g id="Grupo_125849" data-name="Grupo 125849">
        <g id="Grupo_125848" data-name="Grupo 125848" clip-path="url(#clip-path)">
          <line id="Línea_364" data-name="Línea 364" x2="623.583" transform="translate(0.838 150.651)" fill="none" stroke="#858484" stroke-linecap="round" stroke-linejoin="round" stroke-width="1.676"/>
        </g>
      </g>
      <path id="Trazado_190812" data-name="Trazado 190812" d="M.838,195.5h0Z" fill="#fff"/>
      <g id="Grupo_125851" data-name="Grupo 125851">
        <g id="Grupo_125850" data-name="Grupo 125850" clip-path="url(#clip-path)">
          <line id="Línea_365" data-name="Línea 365" x2="623.583" transform="translate(0.838 195.497)" fill="none" stroke="#858484" stroke-linecap="round" stroke-linejoin="round" stroke-width="1.676"/>
          <path id="Trazado_190813" data-name="Trazado 190813" d="M236.51,79.148c1.9.755,3.69,1.412,5.435,2.169,10.655,4.618,19.237,11.361,22.4,23.13,4.875,18.15-6.361,37.6-25.268,43.3a59.967,59.967,0,0,1-16.424,2.444c-23.218.263-46.441.074-69.661.162-2.825.011-3.5-1-2.641-3.767,3.589-.166,7.268-.294,10.942-.514,8.415-.505,12.521-4.463,12.555-12.923q.18-45.048-.009-90.1c-.038-8.464-3.853-12.1-12.391-12.6-3.074-.178-6.167-.028-9.469-.028v-3.8c7.131-.381,14.207-1,21.29-1.087,15.467-.2,30.949-.5,46.4,0a74.516,74.516,0,0,1,19.947,3.732c12.949,4.14,20.369,15.623,18.515,28.252-1.615,11-8.981,17.175-19.08,20.563-.678.228-1.373.407-2.056.622-.089.028-.154.134-.483.436m-45.951,2.678c0,1.6,0,2.618,0,3.64.039,14.647-.2,29.3.232,43.939.239,8.066,4.38,12.935,12.186,14.155a71.436,71.436,0,0,0,18.994.334c8.5-.979,15.811-4.977,20.216-12.7,8.907-15.624,6.22-39.887-18.005-47.43-10.885-3.389-22.1-1.152-33.624-1.935m.194-52.652V78.5c10.488-.356,20.833-.116,31.028-1.235,8.694-.955,15.63-5.528,17.859-14.778,3.284-13.626-1.212-27.757-18.706-32.25-9.94-2.552-19.886-1.139-30.181-1.067" fill="#161615"/>
          <path id="Trazado_190814" data-name="Trazado 190814" d="M16.958,150.072c-.847-2.538-.4-3.944,2.481-3.865,7.748.211,12.568-3.785,15.182-10.8q8.142-21.851,16.229-43.72c7.327-19.9,14.66-39.807,21.815-59.773.888-2.48.7-5.346,1.048-8.371,4.253,0,9.305-.14,14.337.126.932.049,2.183,1.577,2.6,2.682C97.186,43.475,103.6,60.643,110.049,77.8c7.027,18.7,14.144,37.363,21.042,56.108,2.847,7.736,7.408,12.779,16.281,12.414a7.161,7.161,0,0,1,1.567.305c.062.681.156,1.282.157,1.884a14.575,14.575,0,0,1-.188,1.635H94.744l-.166-3.564c3.668-.17,7.14-.33,10.613-.492.928-.043,1.864-.028,2.782-.149,6.464-.851,8.656-3.791,6.516-10-4.494-13.04-9.365-25.951-14.194-38.872a3.226,3.226,0,0,0-2.394-1.69q-18.733-.161-37.468.005a3.253,3.253,0,0,0-2.325,1.8C53.453,109.507,48.8,121.841,44.4,134.262c-2.608,7.361.12,11.169,7.988,11.737,3.181.23,6.373.318,9.876.485.055,1.213.1,2.278.163,3.588ZM78.939,40.32C73.2,56.116,67.75,71.1,62.253,86.222H96.231c-5.738-15.233-11.339-30.1-17.292-45.9" fill="#161615"/>
          <path id="Trazado_190815" data-name="Trazado 190815" d="M543,154.259c-4.957-2.376-9.679-3.859-13.469-6.621-7.489-5.459-6.453-13.21,1.943-17.2,4.15-1.969,8.46-3.6,13.519-5.73-1.969-1.036-3.085-1.644-4.219-2.216-20.857-10.529-17.817-34.536-4.012-45.317,12.552-9.8,33.913-10.734,44.988-1.1a5.221,5.221,0,0,0,3.4.884c7.794-.395,15.581-.927,23.529-1.425v12.2L590.266,85.79c.707,4.332,2.048,8.552,1.957,12.741-.266,12.258-7.039,20.378-17.909,25.144a36.529,36.529,0,0,1-24.172,2.158,2.681,2.681,0,0,0-1.773-.069,104.3,104.3,0,0,0-10.3,6.789c-2.651,2.133-2.017,5.625,1.526,6.8a59.81,59.81,0,0,0,14.131,2.813c7.912.6,15.885.351,23.812.808a77.135,77.135,0,0,1,14.652,1.937c12.8,3.282,18.387,16.874,11.965,28.407A35.024,35.024,0,0,1,591.5,186.238c-16.574,10.06-34.486,12.482-53.232,8.139a27.228,27.228,0,0,1-10.309-5.3c-7.74-6.15-7.74-15.957-.273-22.426,3.426-2.968,7.143-5.6,10.689-8.429,1.673-1.335,3.256-2.784,4.621-3.959m23.277,36.65c2.443-.567,7.512-1.2,12.165-2.941,8.273-3.1,15.1-8.126,17.616-17.245,1.782-6.466-.822-11.6-7.128-13.731a33.495,33.495,0,0,0-8.755-1.605c-9.264-.515-18.551-.629-27.809-1.21-3.443-.216-6.172.256-8.344,3.159a24.294,24.294,0,0,1-3.856,3.561c-7.177,6.143-7.6,13.193-1.008,19.972,6.691,6.884,15.07,9.765,27.119,10.04m13.662-91.066-.8-.255c-.167-6.579-1.215-12.934-5.1-18.474-8.226-11.713-26.118-10.567-32.32,2.044-4.958,10.079-2.714,25.806,4.849,34,8.588,9.3,23.5,7.648,29.213-3.619,2.125-4.19,2.815-9.108,4.16-13.694" fill="#161615"/>
          <path id="Trazado_190816" data-name="Trazado 190816" d="M346.994,139.022c-6.663,3.738-12.6,7.495-18.888,10.51-15.541,7.447-29.347.128-36.649-11.047-16.694-25.547-3.1-63.452,29.461-68.765a48.35,48.35,0,0,1,22.007,1.95c1.163.355,2.334.682,3.84,1.121V62.056c0-9.085-.074-18.171.037-27.255.037-3.032-1.221-4.651-4.126-5.13-3.242-.535-6.484-1.067-9.831-1.618-.852-2.215-.326-3.369,2.233-4.071,8.213-2.254,16.351-4.78,25.031-7.353v3.935q0,54.823,0,109.645c0,10.072,2.157,11.683,11.982,8.971.682-.188,1.371-.355,2.157-.557.893,2.672.364,4.15-2.469,5.155-6.891,2.445-13.642,5.282-20.467,7.913-1.216.469-2.519.71-4.319,1.2Zm-.229-27.191c0-5.265-.409-10.571.112-15.784.552-5.524-1.7-9.393-5.291-13.138-12.821-13.37-32.136-10.3-40.156,6.448-3.454,7.213-4.246,14.863-3.546,22.649.911,10.132,4.2,19.369,11.962,26.413,5.681,5.155,12.4,7.227,19.733,4.422a120.791,120.791,0,0,0,15.152-7.545,4.941,4.941,0,0,0,1.944-3.646c.192-6.6.09-13.212.09-19.819" fill="#161615"/>
          <path id="Trazado_190817" data-name="Trazado 190817" d="M479.227,80.118H465.38c-1.012-2.462-.314-3.412,2.086-4.04A59.547,59.547,0,0,0,477.3,72.46a4.7,4.7,0,0,0,2.1-3.166c.769-4.881.7-9.95,1.925-14.692,4.721-18.2,16.13-30.671,33.893-36.734,8.889-3.034,17.554-1.07,25.267,4.358,3.2,2.254,3.4,3.487,1.767,7.089-3.295,7.246-3.387,7.3-9.919,2.722-4.637-3.248-9.585-5.715-15.323-6.059-11.13-.669-18.672,4.359-21.974,15.021a49.294,49.294,0,0,0-2,11.828c-.328,6.047-.086,12.124-.086,18.438h19.758c.5,2.925.97,5.672,1.515,8.858H493.049c-.062,1.275-.144,2.185-.144,3.094q-.01,25.711.006,51.424c.014,8.156,2.651,10.993,10.78,11.431,3.677.2,7.373.033,11.072.033.326,2.443,1.053,4.234-1.975,4.221-15.179-.066-30.358-.056-45.536-.08a2.023,2.023,0,0,1-.58-.176c-1.115-3.223-.9-3.585,2.231-3.841,8.358-.685,10.426-2.767,10.472-11.2.094-17.554.055-35.108.06-52.663,0-.609-.11-1.218-.208-2.244" fill="#161615"/>
          <path id="Trazado_190818" data-name="Trazado 190818" d="M452.049,129.684l2.19,2.523c-10.456,12.005-21.876,21.683-39.082,20.067-9.045-.849-16.116-5.4-21.611-12.462-12.782-16.426-11.943-42.542,1.767-58.219,10.432-11.93,25.721-14.691,39.514-10.614,6.6,1.95,11.043,6.6,14.2,12.59,1.918,3.641,4.03,7.187,5.781,10.9.652,1.385.524,3.138.807,5.108H397.684c-2.264,13.233.048,24.946,9.368,34.565,8.289,8.555,18.524,10.24,29.655,6.854,6.217-1.89,10.823-6.257,15.342-11.317M438.272,94.173c.1-10.434-9.467-20.945-18.958-21.029-10.4-.092-20.459,10.193-20.534,21.029Z" fill="#161615"/>
        </g>
      </g>
    </g>
    <text id="Filete_horizontal_e_de_caja_baja" data-name="Filete horizontal &quot;e&quot; de caja baja" transform="translate(-12514 -9126.5)" fill="#9b5003" font-size="18" font-family="MicrosoftSansSerif, Microsoft Sans Serif"><tspan x="-128.232" y="17">Filete horizontal &quot;e&quot; de caja baja</tspan></text>
    <text id="Contraste_medio" data-name="Contraste medio" transform="translate(-12832 -8897.497)" fill="#9b5003" font-size="18" font-family="MicrosoftSansSerif, Microsoft Sans Serif"><tspan x="-65.975" y="17">Contraste medio</tspan></text>
    <text id="Trazos_terminales_ligeros" data-name="Trazos terminales ligeros" transform="translate(-12628 -8897.497)" fill="#9b5003" font-size="18" font-family="MicrosoftSansSerif, Microsoft Sans Serif"><tspan x="-201.05" y="17">Trazos terminales ligeros</tspan></text>
    <text id="Modulación_oblicua" data-name="Modulación oblicua" transform="translate(-12673 -8934.497)" fill="#9b5003" font-size="18" font-family="MicrosoftSansSerif, Microsoft Sans Serif"><tspan x="-77.15" y="17">Modulación oblicua</tspan></text>
  </g>
</svg>
