<svg xmlns="http://www.w3.org/2000/svg" xmlns:xlink="http://www.w3.org/1999/xlink" width="639" height="222.224" viewBox="0 0 639 222.224">
  <defs>
    <clipPath id="clip-path">
      <rect id="Rectángulo_40367" data-name="Rectángulo 40367" width="625.259" height="194.224" fill="none"/>
    </clipPath>
  </defs>
  <g id="Grupo_125931" data-name="Grupo 125931" transform="translate(12753 8322)">
    <g id="Grupo_125863" data-name="Grupo 125863" transform="translate(-12753 -8294)">
      <path id="Trazado_190819" data-name="Trazado 190819" d="M49.934,126.285l15.3,35.1,16.3-35.189" fill="none" stroke="#d9000d" stroke-linecap="square" stroke-miterlimit="10" stroke-width="1.8"/>
      <path id="Trazado_190820" data-name="Trazado 190820" d="M47.912,129.5l-1.8-11.987,7.554,9.48Z" fill="#d9000d"/>
      <path id="Trazado_190821" data-name="Trazado 190821" d="M83.48,129.456l2.075-11.942-7.769,9.3Z" fill="#d9000d"/>
      <g id="Grupo_125854" data-name="Grupo 125854">
        <g id="Grupo_125853" data-name="Grupo 125853" clip-path="url(#clip-path)">
          <path id="Trazado_190822" data-name="Trazado 190822" d="M551.417,9.886l11.474-8.639L601.048,49.4" fill="none" stroke="#d9000d" stroke-linecap="square" stroke-miterlimit="10" stroke-width="1.8"/>
        </g>
      </g>
      <path id="Trazado_190823" data-name="Trazado 190823" d="M555.014,11.105l-11.241,4.536,7.467-9.549Z" fill="#d9000d"/>
      <path id="Trazado_190824" data-name="Trazado 190824" d="M597.261,49.667l9.731,7.227-4.813-11.125Z" fill="#d9000d"/>
      <line id="Línea_366" data-name="Línea 366" x2="19.303" y2="125.239" transform="translate(294.006 42.741)" fill="#fff"/>
      <line id="Línea_367" data-name="Línea 367" x2="19.303" y2="125.239" transform="translate(294.006 42.741)" fill="none" stroke="#d9000d" stroke-linecap="square" stroke-miterlimit="10" stroke-width="2.7"/>
      <line id="Línea_368" data-name="Línea 368" x1="67.318" y2="12.065" transform="translate(298.652 5.712)" fill="#fff"/>
      <line id="Línea_369" data-name="Línea 369" x1="67.318" y2="12.065" transform="translate(298.652 5.712)" fill="none" stroke="#d9000d" stroke-linecap="square" stroke-miterlimit="10" stroke-width="2.7"/>
      <path id="Trazado_190825" data-name="Trazado 190825" d="M.838,19.762h0Z" fill="#fff"/>
      <g id="Grupo_125856" data-name="Grupo 125856">
        <g id="Grupo_125855" data-name="Grupo 125855" clip-path="url(#clip-path)">
          <line id="Línea_370" data-name="Línea 370" x2="623.583" transform="translate(0.838 19.762)" fill="none" stroke="#858484" stroke-linecap="round" stroke-linejoin="round" stroke-width="1.676"/>
        </g>
      </g>
      <path id="Trazado_190826" data-name="Trazado 190826" d="M.838,62.474h0Z" fill="#fff"/>
      <g id="Grupo_125858" data-name="Grupo 125858">
        <g id="Grupo_125857" data-name="Grupo 125857" clip-path="url(#clip-path)">
          <line id="Línea_371" data-name="Línea 371" x2="623.583" transform="translate(0.838 62.474)" fill="none" stroke="#858484" stroke-linecap="round" stroke-linejoin="round" stroke-width="1.676"/>
        </g>
      </g>
      <path id="Trazado_190827" data-name="Trazado 190827" d="M.838,145.274h0Z" fill="#fff"/>
      <g id="Grupo_125860" data-name="Grupo 125860">
        <g id="Grupo_125859" data-name="Grupo 125859" clip-path="url(#clip-path)">
          <line id="Línea_372" data-name="Línea 372" x2="623.583" transform="translate(0.838 145.273)" fill="none" stroke="#858484" stroke-linecap="round" stroke-linejoin="round" stroke-width="1.676"/>
        </g>
      </g>
      <path id="Trazado_190828" data-name="Trazado 190828" d="M.838,193.386h0Z" fill="#fff"/>
      <g id="Grupo_125862" data-name="Grupo 125862">
        <g id="Grupo_125861" data-name="Grupo 125861" clip-path="url(#clip-path)">
          <line id="Línea_373" data-name="Línea 373" x2="623.583" transform="translate(0.838 193.386)" fill="none" stroke="#858484" stroke-linecap="round" stroke-linejoin="round" stroke-width="1.676"/>
          <path id="Trazado_190829" data-name="Trazado 190829" d="M207.186,79.237c7.422.9,14.234,2.15,20.717,4.747,7.551,3.024,14.027,7.411,17.667,14.993,8.071,16.81.159,35.176-17.727,41.448a76.222,76.222,0,0,1-24.97,4.1c-8.663.048-17.328-.587-25.993-.584-9.543,0-19.085.4-28.628.6a18.772,18.772,0,0,1-4.112-.182,2.3,2.3,0,0,1-1.53-1.55,2.278,2.278,0,0,1,1.332-1.7,36.651,36.651,0,0,1,4.579-.962,37.743,37.743,0,0,0,3.858-.816c4.16-1.295,6.77-4.021,7.221-8.46a76.944,76.944,0,0,0,.4-7.709q.042-39.785,0-79.567a57.108,57.108,0,0,0-.454-7.7,8.994,8.994,0,0,0-7.331-8.08c-1.582-.377-3.211-.554-4.817-.829a14.683,14.683,0,0,1-3.126-.615c-.688-.285-1.172-1.064-1.747-1.623a8.583,8.583,0,0,1,2-1.4,6.929,6.929,0,0,1,2.428-.118c2.637.091,5.274.319,7.91.313,9.229-.021,18.461,0,27.688-.215,10.385-.239,20.741-.285,30.9,2.314,6.742,1.725,13.019,4.4,17.46,10.074a25.237,25.237,0,0,1-8.269,38.016c-3.854,2.006-8.167,3.134-12.281,4.633-.865.316-1.779.5-3.171.873M179.22,105.973c0,5.214-.028,10.429.015,15.643a51.3,51.3,0,0,0,.327,5.444c.708,6.13,3.918,10.415,9.988,11.759a47.538,47.538,0,0,0,12.3,1.148c10.619-.487,18.531-5.5,22.8-15.441,2.669-6.215,2.926-12.791,1.9-19.434-1.6-10.349-7.426-17.01-17.421-20.076-8.8-2.7-17.785-2.888-26.85-2.15a2.692,2.692,0,0,0-2.714,2.405,21.23,21.23,0,0,0-.327,3.174c-.031,5.842-.015,11.685-.015,17.528m0-52.444c0,6.216-.012,12.432.011,18.648,0,1.124.13,2.249.246,3.37.194,1.885,1.329,2.714,3.158,2.8,6.749.3,13.419-.073,19.878-2.281,6.407-2.189,10.9-6.3,12.859-12.916a37.217,37.217,0,0,0,.444-18.257c-1.749-8.6-6.795-14.2-15.38-16.467a47.465,47.465,0,0,0-15.324-1.05c-4.521.288-5.709,1.464-5.877,6-.023.627-.014,1.256-.015,1.884V53.529" fill="#161615"/>
          <path id="Trazado_190830" data-name="Trazado 190830" d="M550.24,117.734c-.746-.355-1.875-.848-2.964-1.417-9.562-4.989-15.505-12.51-15.849-23.6-.354-11.39,4.995-19.735,14.613-25.421,11.388-6.732,29.968-6.94,41.737,2.718a1.789,1.789,0,0,0,2.467.108,92.783,92.783,0,0,1,9.773-5.617,14.882,14.882,0,0,1,13.791.311,7.029,7.029,0,0,1,3.589,7.817,5.353,5.353,0,0,1-7.55,3.831,17.356,17.356,0,0,1-3.8-2.723c-5-4.442-8.788-4.446-13.821.034,1.451,2.714,3.228,5.287,4.271,8.129,3.367,9.168,3.078,18.164-2.569,26.445-3.569,5.235-8.973,8.14-14.959,9.449-6.47,1.415-13.107,2.064-19.67,3.056-3.409.516-6.836.944-10.214,1.616-2.249.447-4.317,1.42-5.373,3.708-1.114,2.415-.687,4.293,1.763,5.3a27.228,27.228,0,0,0,7.918,2.148c7.252.609,14.543.731,21.8,1.239a59.115,59.115,0,0,1,18.156,3.844c8.86,3.574,13.515,10.267,14.518,19.63,1.687,15.756-5.887,27.773-21.017,32.593-14.2,4.524-28.472,4.472-42.414-1.171-6.305-2.552-11.576-6.587-14.567-12.99-3.431-7.343-1.854-15.313,3.956-20.266a12.112,12.112,0,0,1,11.625-2.562c.853.232,1.527,1.121,2.283,1.707a10.972,10.972,0,0,1-1.477,1.774,16.363,16.363,0,0,0,1.139,26.815c6.18,4.08,13.18,5.069,20.337,5.209,6.528.127,12.921-.7,18.729-4.047a19.578,19.578,0,0,0,8.422-24.316c-1.882-4.718-5.681-7.23-10.393-8.071-5.295-.944-10.686-1.383-16.049-1.9-6.24-.6-12.511-.9-18.732-1.644a27.043,27.043,0,0,1-6.963-2.2c-10.739-4.47-10.565-19.458-2.307-24.773,3.057-1.967,6.571-3.224,9.8-4.768M546.58,91.3c.143,5.431.649,10.851,3.149,15.869,2.73,5.477,6.87,9.072,13.191,9.559,7.17.552,12.713-2.137,16.374-8.448a28.6,28.6,0,0,0,3.522-12.569c.475-6.641.16-13.2-2.759-19.343-3.108-6.536-8.248-10.087-15.607-10.157-7.156-.068-11.668,3.835-14.732,9.864C547.3,80.838,546.729,86,546.58,91.3" fill="#161615"/>
          <path id="Trazado_190831" data-name="Trazado 190831" d="M337.666,132.561c-3.7,4.083-7.529,7.611-12.2,10.071-6.36,3.347-13.134,4.25-20.26,3.647-12.128-1.024-21.543-6.662-28.559-16.425-6.006-8.355-7.683-17.888-6.925-27.93.744-9.847,3.978-18.751,10.619-26.229,9.433-10.622,21.267-14.328,35.147-12.2a34.489,34.489,0,0,1,20.03,10.51c.064-.8.141-1.319.141-1.84q.009-21.586,0-43.172c-.005-5.246-1.613-7.071-6.823-7.879-1.8-.279-3.612-.472-5.366-.915a2.125,2.125,0,0,1-1.365-1.46c-.011-.5.771-1.151,1.35-1.477a5.365,5.365,0,0,1,2-.456c7.484-.85,14.972-1.665,22.455-2.523,3.286-.378,3.9.121,3.9,3.468q0,52.221.038,104.442a34.107,34.107,0,0,0,.863,8.006c1.075,4.379,4.419,6.738,8.961,6.939a12.112,12.112,0,0,1,3.137.52,2.014,2.014,0,0,1,1.157,1.271c.079.36-.431,1.067-.85,1.277a16.939,16.939,0,0,1-3.163,1.167c-5.563,1.51-11.149,2.938-16.7,4.479-3.535.98-4.249,1.11-5.458-3.09-.93-3.229-1.391-6.6-2.122-10.2m-1.31-28.943-.291-.006c0-5.091.178-10.188-.047-15.267a20.112,20.112,0,0,0-6.926-14.959c-5.865-5.048-12.885-6.037-20.2-4.983-8.189,1.181-13.657,6.366-16.837,13.616-6.37,14.521-6.518,29.437-.941,44.2,2.843,7.525,8.176,13.006,16.516,14.489,12.892,2.291,25.78-3.673,27.975-19.039.847-5.932.535-12.029.751-18.051" fill="#161615"/>
          <path id="Trazado_190832" data-name="Trazado 190832" d="M66.755,100.175q-10.554,0-21.109-.006c-.892,0-1.671-.05-2.1,1.056-2.795,7.262-5.731,14.471-8.432,21.767a25.811,25.811,0,0,0-1.312,6.624c-.528,5.935,3.167,10.02,9.567,10.838a5.98,5.98,0,0,1,2.359.5,10.258,10.258,0,0,1,1.878,2.028c-.762.531-1.5,1.469-2.289,1.516a36.42,36.42,0,0,1-6.195-.278,131.217,131.217,0,0,0-24.079-.1,23.47,23.47,0,0,1-5.409-.226c-.722-.118-1.307-1.068-1.955-1.639.644-.592,1.193-1.431,1.952-1.722a31.66,31.66,0,0,1,4.2-1,16.218,16.218,0,0,0,11.286-8.66c2.788-5.473,5.427-11.039,7.817-16.7q19.314-45.7,38.472-91.472a8.625,8.625,0,0,1,.88-1.658c1.205-1.695,2.953-1.745,4.184-.041a13.905,13.905,0,0,1,1.57,2.99q19.907,50.035,39.8,100.076a72.765,72.765,0,0,0,3.537,7.483,15.374,15.374,0,0,0,12.739,8.508,10.407,10.407,0,0,1,3.123.616,2.552,2.552,0,0,1,1.443,1.692c.024.507-.855,1.264-1.495,1.541a6.21,6.21,0,0,1-2.573.367c-3.955-.106-7.91-.444-11.861-.4-8.91.1-17.819.37-26.727.576-2.072.047-4.144.144-6.216.147a6.041,6.041,0,0,1-2.4-.349,7.554,7.554,0,0,1-1.725-1.505c.513-.56.936-1.45,1.556-1.621,2.531-.7,5.129-1.143,7.689-1.737,5.047-1.171,6.814-3.448,5.53-8.355-1.535-5.868-3.6-11.6-5.573-17.349-1.343-3.915-2.994-7.725-4.35-11.637a2.493,2.493,0,0,0-2.865-1.921c-6.972.084-13.947.037-20.921.037m21.18-5.361L67.769,42.741C60.458,60.317,53.32,77.475,46.107,94.814Z" fill="#161615"/>
          <path id="Trazado_190833" data-name="Trazado 190833" d="M481.116,67.8c0-.968-.024-1.7,0-2.438.269-7.214.192-14.464.956-21.624a47.2,47.2,0,0,1,3.505-12.625C488.3,24.472,493.5,20.128,500.3,18a49.215,49.215,0,0,1,29.132-.3,23.22,23.22,0,0,1,6.124,3.2,8.136,8.136,0,0,1,3.409,5.657c.5,3.035-.736,5.583-3.311,6.683a6.3,6.3,0,0,1-7.666-2.269,13.365,13.365,0,0,1-1.323-2.892c-2.009-5.681-5.412-8.246-11.48-8.595-10.152-.584-16.563,5.043-18.126,16a41.239,41.239,0,0,0-.356,5.634c-.038,8.169-.017,16.338-.017,24.509v2.063c.866.043,1.59.1,2.315.111,5.775.094,11.55.167,17.324.285a2.594,2.594,0,0,1,2.857,2.417,2.51,2.51,0,0,1-1.4,1.682,8.071,8.071,0,0,1-2.953.416c-5.278.036-10.555.018-15.833.019h-2.312v2.15q0,26.961,0,53.92c0,.566,0,1.13.016,1.7.119,5.643,1.665,7.638,7.186,8.892,2.929.665,5.926,1.029,8.87,1.636,1.237.255,3.114.4,2.945,2.023-.185,1.781-2.108,1.733-3.519,1.672-4.956-.21-9.908-.779-14.859-.758-8.6.038-17.189.424-25.784.645a16.664,16.664,0,0,1-3.729-.137,2.257,2.257,0,0,1-1.425-1.463c-.09-.419.6-1.254,1.125-1.5a23.173,23.173,0,0,1,3.222-.954c2.332-.7,4.7-1.306,6.973-2.156a4.864,4.864,0,0,0,3.105-4.567c.133-1.753.288-3.512.29-5.266q.031-26.868.01-53.733c0-.615-.05-1.23-.089-2.1-3.332,0-6.575.027-9.817-.016a7.728,7.728,0,0,1-2.946-.4c-.664-.294-1.5-1.206-1.471-1.805a2.956,2.956,0,0,1,1.408-2.12,7.514,7.514,0,0,1,3.126-.453c3.185-.05,6.371-.019,9.793-.019" fill="#161615"/>
          <path id="Trazado_190834" data-name="Trazado 190834" d="M424.553,94.795c-8.481,0-16.963.052-25.443-.043-1.727-.019-2.355.4-2.542,2.192-1.057,10.159-.167,19.947,5.046,28.993,8.967,15.56,25.8,16.583,36.271,11.041,2.884-1.526,5.275-3.989,7.871-6.049a15.653,15.653,0,0,1,2.263-1.948,2.9,2.9,0,0,1,2.4-.183,2.774,2.774,0,0,1,.8,2.258c-.326,2.938-2.194,5.009-4.355,6.8a37.563,37.563,0,0,1-17.027,8.012c-8.734,1.711-17.472,1.591-25.789-1.666-16.037-6.279-25.252-18.14-25.865-35.447-.659-18.593,7.327-33.084,23.852-41.952,13.475-7.231,34.183-6.433,46.411,7.913a23.934,23.934,0,0,1,6.085,15.058c.145,4.3-.465,4.979-4.722,5.009-4.272.03-8.544.009-12.815.009H424.553m-26.591-5.536a3.517,3.517,0,0,0,.683.249c12.044.013,24.088.044,36.132.006,2.146-.006,3.089-.926,3.235-3.114a19.786,19.786,0,0,0-3.07-12.742c-4.626-6.878-14.368-9.422-22.733-5.76-9.25,4.048-12.624,12.088-14.247,21.361" fill="#161615"/>
        </g>
      </g>
    </g>
    <text id="Gotas_pequeñas" data-name="Gotas pequeñas" transform="translate(-12264 -8317)" fill="#9b5003" font-size="18" font-family="MicrosoftSansSerif, Microsoft Sans Serif"><tspan x="-65.94" y="17">Gotas pequeñas</tspan></text>
    <text id="Trazos_terminales_delgados_ligeramente_oblicuos" data-name="Trazos terminales delgados ligeramente oblicuos" transform="translate(-12676 -8322)" fill="#9b5003" font-size="18" font-family="MicrosoftSansSerif, Microsoft Sans Serif"><tspan x="-110.492" y="17">Trazos terminales delgados </tspan><tspan x="-82.648" y="35">ligeramente oblicuos</tspan></text>
    <text id="Gran_contraste" data-name="Gran contraste" transform="translate(-12753 -8124.497)" fill="#9b5003" font-size="18" font-family="MicrosoftSansSerif, Microsoft Sans Serif"><tspan x="-59.418" y="17">Gran contraste</tspan></text>
    <text id="Modulación_casi_vertical" data-name="Modulación casi vertical" transform="translate(-12540 -8124.497)" fill="#9b5003" font-size="18" font-family="MicrosoftSansSerif, Microsoft Sans Serif"><tspan x="-95.585" y="17">Modulación casi vertical</tspan></text>
  </g>
</svg>
