<svg xmlns="http://www.w3.org/2000/svg" xmlns:xlink="http://www.w3.org/1999/xlink" width="295" height="90" viewBox="0 0 295 90">
  <defs>
    <clipPath id="clip-path">
      <rect id="Rect치ngulo_40409" data-name="Rect치ngulo 40409" width="196.943" height="50.11" fill="#12263f"/>
    </clipPath>
  </defs>
  <g id="Grupo_126017" data-name="Grupo 126017" transform="translate(-1125.285 -10213)">
    <g id="Grupo_126016" data-name="Grupo 126016">
      <g id="Grupo_125960" data-name="Grupo 125960">
        <rect id="Rect치ngulo_40413" data-name="Rect치ngulo 40413" width="295" height="90" rx="16" transform="translate(1125.285 10213)" fill="#fff3bf"/>
        <g id="Grupo_125953" data-name="Grupo 125953" transform="translate(1174.285 10233)">
          <g id="Grupo_125952" data-name="Grupo 125952" transform="translate(0)" clip-path="url(#clip-path)">
            <path id="Trazado_190946" data-name="Trazado 190946" d="M246.212,28.824c-.581.532-1.137,1.058-1.712,1.563a10.261,10.261,0,0,1-1.341,1.089,25.391,25.391,0,0,1-3.282,1.847,2.789,2.789,0,0,1-3.4-1.028,6.658,6.658,0,0,1-1.235-2.277,7.763,7.763,0,0,0-1.208-2.013c-.236-.346-.7-.329-1.063.007-1.132,1.045-2.249,2.105-3.38,3.15a8.6,8.6,0,0,1-4.348,2.309,4.146,4.146,0,0,1-1.037-.039c-.311-.026-.62-.106-.93-.108a3.359,3.359,0,0,1-2.111-1.067,5.789,5.789,0,0,1-1.858-3.16c-.079-.315-.195-.621-.347-1.1-.6.6-1.092,1.106-1.606,1.588-1,.935-1.975,1.9-3.022,2.772a3.446,3.446,0,0,1-3.9.438,3.534,3.534,0,0,1-1.909-3.02c-.056-.44-.161-.875-.266-1.43-.636.556-1.157,1.012-1.678,1.468-1.539,1.352-3.034,2.758-4.634,4.033a5.5,5.5,0,0,1-2.718,1.307,2.347,2.347,0,0,1-2.042-1.178,3.446,3.446,0,0,1,.653-3.373c.117-.173.214-.361.32-.542l-.146-.128c-.214.181-.441.347-.638.544a1.094,1.094,0,0,1-1.956-.331,1,1,0,0,1,.316-1.429,8.835,8.835,0,0,0,2.117-2.156,3.575,3.575,0,0,1,1.3-.948,4.452,4.452,0,0,0,1.587-1.413,5.9,5.9,0,0,1,1.056-1c.383-.357.741-.742,1.144-1.074,1.689-1.392,3.374-2.791,5.1-4.142A20.527,20.527,0,0,1,210.2,16.6a2.353,2.353,0,0,1,2.551.168.913.913,0,0,1,.121,1.285,3.9,3.9,0,0,1-1.622,1.606.837.837,0,0,0-.237.2c-.644.656-1.285,1.316-1.93,1.971-.391.4-.792.784-1.182,1.182q-.944.966-1.877,1.941c-1.03,1.073-2.087,2.123-3.071,3.237a10.775,10.775,0,0,0-1,1.617l.129.153a4.2,4.2,0,0,0,.84-.412c.984-.788,1.958-1.589,2.906-2.419,1.274-1.116,2.511-2.274,3.783-3.393a2.378,2.378,0,0,1,2.1-.355c.146.025.328.324.352.515.111.9.192,1.808.247,2.715a2.756,2.756,0,0,0,.718,2.223,2.213,2.213,0,0,0,.774.422.71.71,0,0,0,.538-.163c.42-.341.816-.712,1.206-1.088.337-.325.656-.67.978-1.01.467-.492.906-1.013,1.4-1.473a2.229,2.229,0,0,0,.916-1.736,27.263,27.263,0,0,1,1.041-6.714c.561-1.933,1.108-3.881,1.84-5.752a54.908,54.908,0,0,1,2.616-5.61,34.275,34.275,0,0,1,2.533-3.983A4.143,4.143,0,0,1,228.7.13a1.927,1.927,0,0,1,2.634,1.719,14.653,14.653,0,0,1-.45,4.472c-.153.5-.153,1.042-.277,1.551-.161.658-.362,1.308-.575,1.952-.384,1.164-.772,2.327-1.193,3.478a11.922,11.922,0,0,1-.615,1.213c-.2.4-.389.818-.6,1.218-.449.848-.914,1.686-1.363,2.534-.31.585-.574,1.2-.912,1.763-.683,1.143-1.4,2.265-2.11,3.393a1.332,1.332,0,0,1-.3.36,1.579,1.579,0,0,0-.593,1.87,15.588,15.588,0,0,0,.949,2.6,3.126,3.126,0,0,0,3.663,1.312,7.523,7.523,0,0,0,3.639-2.787,5.64,5.64,0,0,1,.54-.641c1.09-1.04,2.2-2.064,3.283-3.107.338-.325.629-.7.956-1.036a.906.906,0,0,1,.356-.217,2.984,2.984,0,0,1,2.73,1.724c.178,1.215.318,2.437.551,3.641a8.04,8.04,0,0,0,.625,1.778,1.2,1.2,0,0,0,1.6.51,16.387,16.387,0,0,0,1.583-.894,13.008,13.008,0,0,0,2.322-2.229,10.572,10.572,0,0,0,2.739-3.941c.882-2.257,2.567-3.859,4.065-5.617a11.624,11.624,0,0,1,2.929-2.665c.714-.411,1.442-1.036,2.369-.462a1.25,1.25,0,0,1,.328.257,3.086,3.086,0,0,1,.079,2.988c-1.02,1.337-2.039,2.677-3.123,3.961a45.531,45.531,0,0,1-3.3,3.6,2.975,2.975,0,0,0-.8,2.447c-.019,1.774.994,3.01,1.967,4.29.233.306.515.575.769.866a.376.376,0,0,0,.628.031q.974-1,1.942-2c.036-.037.1-.086.091-.124-.11-1,.78-1.309,1.3-1.871.414-.445.816-.9,1.236-1.339a7.161,7.161,0,0,1,1.047-1.019,12.913,12.913,0,0,0,3.6-4.389.79.79,0,0,0,.012-.591,1.169,1.169,0,0,1,.521-1.5,22.561,22.561,0,0,1,2.074-1.339,2.164,2.164,0,0,1,2.467.311,8.052,8.052,0,0,1,3.332,5.509,9.513,9.513,0,0,1-.745,4.052c-.236.713-.413,1.446-.6,2.175a3.3,3.3,0,0,0-.006.673,4.37,4.37,0,0,0,.891-.395c.772-.6,1.508-1.249,2.273-1.859a10.292,10.292,0,0,0,1.71-1.819,8.251,8.251,0,0,1,1.656-1.175,12.873,12.873,0,0,0,1.062-.985c.414-.4.822-.8,1.235-1.192.364-.35.71-.723,1.1-1.044,1.688-1.393,3.373-2.792,5.095-4.142a17.786,17.786,0,0,1,2.207-1.418,2.225,2.225,0,0,1,2.543.222.923.923,0,0,1,.1,1.247,4.093,4.093,0,0,1-1.62,1.608.846.846,0,0,0-.239.194c-.658.668-1.312,1.339-1.969,2.007-.391.4-.789.788-1.179,1.187q-.962.983-1.917,1.974c-1.018,1.06-2.061,2.1-3.032,3.2a10.25,10.25,0,0,0-.967,1.586l.127.159a4.561,4.561,0,0,0,.87-.442c1.061-.859,2.113-1.732,3.14-2.63,1.169-1.022,2.309-2.077,3.462-3.117a2.438,2.438,0,0,1,2.14-.4c.154.022.352.349.377.554.108.9.168,1.81.23,2.716a2.768,2.768,0,0,0,.671,2.14,3.132,3.132,0,0,0,.859.483.505.505,0,0,0,.429-.082c.32-.266.59-.59.91-.855a15.172,15.172,0,0,0,3.363-4.442,12.3,12.3,0,0,0,.828-3.24c.628-2.424,1.187-4.865,1.767-7.3a46.511,46.511,0,0,1,2.768-7.815,12.865,12.865,0,0,1,1.427-2.491,3.459,3.459,0,0,1,1.386-.979,1.5,1.5,0,0,1,2.025,1.289,23.377,23.377,0,0,1-.328,5.3,18.021,18.021,0,0,1-.534,1.755c-.126.487-.187.99-.277,1.487a3,3,0,0,1-.073.413c-.657,1.987-1.273,3.989-2,5.951a23.157,23.157,0,0,1-1.787,4.014,16.269,16.269,0,0,0-1.927,6.549c-.372,2.832-.661,5.676-.962,8.517-.118,1.116-.228,2.237-.241,3.357a8.84,8.84,0,0,0,.29,2.985l.2.072c.269-.445.562-.877.8-1.338a18.005,18.005,0,0,0,1.23-2.553,8.483,8.483,0,0,0,.889-2.7,3.6,3.6,0,0,1,.3-.945c.448-1.49.793-3.021,1.365-4.462A15.836,15.836,0,0,1,304.88,27.7c1.2-1.541,2.843-2.6,4.023-4.135a16.292,16.292,0,0,1,1.476-1.552,1.072,1.072,0,0,1,.494-.281,2.866,2.866,0,0,1,2.659,1.872c.178,1.161.324,2.328.554,3.479a8.781,8.781,0,0,0,.608,1.783,1.194,1.194,0,0,0,1.626.554,12.518,12.518,0,0,0,1.578-.9,7.188,7.188,0,0,0,2.225-2.165,5.668,5.668,0,0,1,1.285-1.075c.635-.488,1.286-.954,1.923-1.439,1.424-1.083,2.813-2.217,4.278-3.242a31.624,31.624,0,0,1,3.456-2.066,5.87,5.87,0,0,1,1.722-.418c.454-.078.691.206.732.632a7.986,7.986,0,0,1,.066,1.466,1.667,1.667,0,0,1-.376.845,8.193,8.193,0,0,1-3.025,2.31,1.722,1.722,0,0,0-.363.2c-1.21.954-2.4,1.938-3.628,2.862a4.174,4.174,0,0,0-1.811,3.506,2.011,2.011,0,0,0,2.094,2.25,8.614,8.614,0,0,0,2.612-.4,2.222,2.222,0,0,0,.589-.338c.9-.576,1.818-1.122,2.681-1.746.541-.391.978-.924,1.5-1.351a11.5,11.5,0,0,0,1.7-1.826,8.4,8.4,0,0,1,1.657-1.176,11.9,11.9,0,0,0,1.028-.943c.426-.407.844-.823,1.267-1.233.35-.34.683-.7,1.058-1.012,1.674-1.383,3.342-2.773,5.051-4.112a12.27,12.27,0,0,1,2.3-1.462,3.607,3.607,0,0,1,1.743-.263,1.133,1.133,0,0,1,.809,1.835,3.739,3.739,0,0,1-1.577,1.5.676.676,0,0,0-.2.166q-.985,1-1.967,2.009-.622.634-1.246,1.266c-.68.691-1.378,1.367-2.038,2.077a22.255,22.255,0,0,0-3.63,4.254,2.945,2.945,0,0,0-.144.375l.087.13a4.022,4.022,0,0,0,.829-.4c1.01-.811,2.011-1.634,2.986-2.487,1.235-1.08,2.443-2.192,3.66-3.292a2.454,2.454,0,0,1,2.09-.41c.159.018.382.329.406.526.112.917.167,1.841.238,2.762a2.8,2.8,0,0,0,.79,2.251c.6.478.9.479,1.444-.032.621-.585,1.252-1.161,1.876-1.743a16.994,16.994,0,0,1,1.45-1.343,19.414,19.414,0,0,0,2.463-2.187c1.932-2,3.951-3.908,5.913-5.877a2.328,2.328,0,0,1,3.534-.087,1.274,1.274,0,0,1,.4.762,15.127,15.127,0,0,1-.1,2.352,28.05,28.05,0,0,1-.616,3.563c-.385,1.454-.93,2.864-1.4,4.3-.2.621-.382,1.25-.573,1.876l.188.146a6.36,6.36,0,0,0,.732-.376,14.514,14.514,0,0,0,1.523-1.115,18.179,18.179,0,0,0,1.757-1.779,1.371,1.371,0,0,1,1.387-.541,1.326,1.326,0,0,1,.78.672,1.157,1.157,0,0,1-.345,1.33,15.943,15.943,0,0,1-3.725,3.206,26.993,26.993,0,0,0-3.082,2.42c-.55.421-1.119.84-1.691,1.243a7.287,7.287,0,0,1-1.468.7c-.651.265-.957.013-1.047-.686-.06-.469-.336-.91-.4-1.379-.142-.979-.211-1.969-.309-2.954-.01-.1-.01-.211-.03-.313a1.964,1.964,0,0,1,1.471-2.294.59.59,0,0,1,.773.353,1.917,1.917,0,0,0,.313.38c.106-.148.273-.282.306-.445.152-.738.3-1.48.388-2.227q.18-1.459.263-2.929a.908.908,0,0,0-.275-.7.763.763,0,0,0-.706.047c-.792.578-1.55,1.2-2.311,1.823a45.816,45.816,0,0,0-4.767,4.671,30.029,30.029,0,0,1-2.863,2.629,3.507,3.507,0,0,1-5.771-2.381c-.062-.509-.181-1.011-.3-1.647-.671.594-1.213,1.079-1.761,1.559-1.541,1.349-3.038,2.755-4.648,4.017a5.982,5.982,0,0,1-2.486,1.163,1.969,1.969,0,0,1-2.385-2.268,3.479,3.479,0,0,1,.958-2.328,1.316,1.316,0,0,0,.206-.384l-.111-.105c-.178.137-.351.282-.535.41-1.075.744-2.16,1.474-3.227,2.229-.642.454-1.248.96-1.889,1.417a8.03,8.03,0,0,1-6.1,1.581,4.638,4.638,0,0,1-4.009-4.285,6.2,6.2,0,0,1,.187-1.3c-.062,0-.1-.013-.124,0q-1.575,1.174-3.147,2.354a4.9,4.9,0,0,1-3.856.987,1.855,1.855,0,0,1-1.072-.617,7.582,7.582,0,0,1-1.591-2.62,7.652,7.652,0,0,0-1.3-2.194.8.8,0,0,0-.786-.062c-1.228,1.074-2.66,1.986-3.089,3.736-.308,1.257-.656,2.506-1.014,3.75-.533,1.852-1.032,3.718-1.656,5.54-.634,1.851-1.327,3.689-2.14,5.467a17.467,17.467,0,0,1-1.818,2.75c-.766,1.072-3.08.622-3.427-.662A15.086,15.086,0,0,1,294.4,45c-.06-1.908-.2-3.814-.269-5.722-.027-.717.018-1.438.062-2.156.134-2.183.284-4.366.427-6.548a.837.837,0,0,0,0-.262c-.044-.162-.111-.318-.169-.476a1.476,1.476,0,0,0-.467.18c-.526.463-1.03.951-1.542,1.43-.269.251-.532.511-.812.75a3.582,3.582,0,0,1-6.071-2.6c-.04-.374-.147-.741-.25-1.241l-1.691,1.482c-1.553,1.362-3.06,2.782-4.679,4.061a4.838,4.838,0,0,1-2.526,1.221,2.056,2.056,0,0,1-2.359-2.435,3.527,3.527,0,0,1,.956-2.22.493.493,0,0,0,.082-.455c-.093.059-.192.111-.278.179-1.155.91-2.264,1.886-3.473,2.716a27.026,27.026,0,0,1-3.411,1.945,2.144,2.144,0,0,1-2.134-.31,1.215,1.215,0,0,1-.32-.965,5.571,5.571,0,0,1,.4-1.575,27.21,27.21,0,0,0,1.4-5.267,4.347,4.347,0,0,0-.3-2.827,3.1,3.1,0,0,0-.958-.913c-.093-.07-.385,0-.5.106-.671.585-1.339,1.177-1.964,1.809-.5.511-.918,1.113-1.425,1.622-.77.772-1.6,1.481-2.378,2.248a22.519,22.519,0,0,0-3.095,3.758,9.586,9.586,0,0,1-1.06,1.372.74.74,0,0,0-.066,1.069c.566.864,1.157,1.72,1.634,2.633a5.317,5.317,0,0,1,.6,3.769,9.969,9.969,0,0,1-2.876,5.258,14.2,14.2,0,0,1-2.547,2.095,8.59,8.59,0,0,1-4.074,1.381,5.622,5.622,0,0,1-2.817-.822c-.625-.33-.58-1.008-.633-1.587a12.327,12.327,0,0,1-.029-2,6.8,6.8,0,0,1,.319-1.743,12.459,12.459,0,0,1,2.284-4.1c.98-1.138,1.824-2.393,2.7-3.619a.7.7,0,0,0,.008-.653,19.536,19.536,0,0,0-1.688-2.006,6.713,6.713,0,0,1-1.886-3.794c-.043-.259-.11-.514-.176-.769a.8.8,0,0,0-.127-.192M254,41.238a5.6,5.6,0,0,0-1.33-2.972c-.338-.376-.569-.312-.876.124-.422.6-.865,1.187-1.3,1.779-.25.338-.529.658-.75,1.014-.965,1.555-2.135,3.006-2.518,4.86a1.1,1.1,0,0,0-.017.638,1.05,1.05,0,0,0,1.357.58,7.545,7.545,0,0,0,4.551-3.4A5.552,5.552,0,0,0,254,41.238M222.5,19.932c1.7-.727,5.579-9.7,5.229-11.87-.065.04-.14.062-.176.112-.694.964-1.381,1.933-2.073,2.9-.5.692-.444,1.577-.776,2.3a49.755,49.755,0,0,0-2.05,5.66,7.036,7.036,0,0,0-.154.9m80.6-8.663-.227-.047a9.541,9.541,0,0,0-1.247,3.949,1.462,1.462,0,0,0,.432-.616c.13-.335.2-.692.343-1.022.168-.4.422-.771.556-1.182a5.7,5.7,0,0,0,.143-1.082" transform="translate(-174.673 -0.001)" fill="#12263f"/>
            <path id="Trazado_190947" data-name="Trazado 190947" d="M10.65,41.7a9.84,9.84,0,0,1-2.935-.69c-.871-.406-1.846-.59-2.712-1a7.621,7.621,0,0,1-3.368-3.5A17.6,17.6,0,0,1,.14,31.662a.269.269,0,0,1-.014-.1c.312-1.411-.353-2.806-.039-4.23.222-1.007.29-2.047.452-3.068a2.9,2.9,0,0,1,.274-.791,1.622,1.622,0,0,0,.28-1.239,1.07,1.07,0,0,1,.137-.6A30.349,30.349,0,0,1,4.5,15.112c.651-.9,1.457-1.7,2.195-2.536.457-.521.882-1.077,1.385-1.55A18.057,18.057,0,0,1,10.2,9.248a13.878,13.878,0,0,1,6.507-2.72c1.089-.1,2.293-.293,3.287.516a.625.625,0,0,0,.294.1,2.577,2.577,0,0,1,2.146,2.468,21.793,21.793,0,0,1,.313,3.764,14.391,14.391,0,0,1-.622,4.874c-.324.91-.329,1.932-.636,2.85-.521,1.56-1.153,3.084-1.779,4.607a1.207,1.207,0,0,1-.634.563,7.812,7.812,0,0,1-1.658.489c-.971.153-1.457-.188-1.226-1.089a4.757,4.757,0,0,0-.036-1.091,22.717,22.717,0,0,1,.768-4.8,26.947,26.947,0,0,1,1-3.634,5.28,5.28,0,0,1,.606-1.02,9.279,9.279,0,0,0,.671-.935,1.936,1.936,0,0,0-.961-2.846,4.422,4.422,0,0,0-2.887-.719c-.563.1-1.113.273-1.665.423-.524.143-1.045.3-1.566.452a.875.875,0,0,0-.329.151,20.045,20.045,0,0,0-3.313,3.57,19.309,19.309,0,0,0-2.952,6.9c-.285,1.3-.464,2.617-.7,3.924-.062.342-.172.676-.244,1.016a.976.976,0,0,0-.025.456A5.226,5.226,0,0,1,4.779,30.1,3.125,3.125,0,0,0,5.3,32.045c.421.86.79,1.747,1.133,2.642a1.425,1.425,0,0,0,.64.9,2.84,2.84,0,0,1,.691.636,5.962,5.962,0,0,0,5.223,2.046c.782-.077,1.558-.217,2.333-.352a2.011,2.011,0,0,0,.51-.249c.217-.111.432-.226.65-.333.372-.181.743-.364,1.119-.535.424-.192.866-.347,1.275-.565a4.761,4.761,0,0,0,.605-.51c.2-.157.418-.292.628-.437a2.252,2.252,0,0,1,.22.754A2.554,2.554,0,0,1,19.258,37.9c-.3.233-.549.531-.848.767a7.325,7.325,0,0,1-1.282.913,30.827,30.827,0,0,1-3.51,1.526,22.7,22.7,0,0,1-2.969.6" transform="translate(0 -5.754)" fill="#12263f"/>
            <path id="Trazado_190948" data-name="Trazado 190948" d="M1288.479,84.277c-.358-.149-.837-.2-1.049-.466a2.138,2.138,0,0,1-.432-2.08,4.273,4.273,0,0,1,2.294-2.72.53.53,0,0,0,.226-.2,3.154,3.154,0,0,1,2.348-1.327.963.963,0,0,1,1.163,1.3c-.26.976-.532,1.95-.846,2.909a3.656,3.656,0,0,1-3.643,2.444l-.061.145" transform="translate(-1151.254 -69.294)" fill="#12263f"/>
            <path id="Trazado_190949" data-name="Trazado 190949" d="M573.7,82.33a7.9,7.9,0,0,1,.6-1.482c.489-.729.931-1.541,1.869-1.829a.443.443,0,0,0,.236-.183,3.063,3.063,0,0,1,2.377-1.357.956.956,0,0,1,1.162,1.266c-.28,1.079-.578,2.159-.963,3.2a3.661,3.661,0,0,1-3.453,2.177c-.382-.021-.925.008-1.1-.216a6.828,6.828,0,0,1-.725-1.58" transform="translate(-513.235 -69.292)" fill="#12263f"/>
            <path id="Trazado_190950" data-name="Trazado 190950" d="M1054.076,74.384c-.484,0-.782-.357-.665-.761a1.928,1.928,0,0,1,.425-.766c1.118-1.182,2.262-2.34,3.393-3.51.485-.5.961-1.013,1.434-1.526a.935.935,0,0,0,.174-.312,3.486,3.486,0,0,0,.1-.409,1,1,0,0,1,.779-.888.81.81,0,0,1,.9.576c.219.684.66,1.31.408,2.148a3.193,3.193,0,0,1-1.466,1.763c-1.076.716-2.2,1.366-3.271,2.086-.651.436-1.245.956-1.872,1.429a1.649,1.649,0,0,1-.341.169" transform="translate(-942.364 -59.221)" fill="#12263f"/>
          </g>
        </g>
      </g>
    </g>
  </g>
</svg>
