<svg xmlns="http://www.w3.org/2000/svg" width="445.87" height="123.946" viewBox="0 0 445.87 123.946">
  <g id="Grupo_125765" data-name="Grupo 125765" transform="translate(-532.715 -6456.896)">
    <path id="Trazado_190760" data-name="Trazado 190760" d="M0,0H425.87" transform="translate(532.715 6579.842)" fill="none" stroke="#646464" stroke-width="2"/>
    <path id="Trazado_190763" data-name="Trazado 190763" d="M0,0H425.87" transform="translate(532.715 6477.934)" fill="#c92020" stroke="#646464" stroke-width="2"/>
    <path id="Trazado_190761" data-name="Trazado 190761" d="M0,0H445.87" transform="translate(532.715 6555.789)" fill="none" stroke="#646464" stroke-width="2"/>
    <path id="Trazado_190762" data-name="Trazado 190762" d="M0,0H445.87" transform="translate(532.715 6500.285)" fill="none" stroke="#646464" stroke-width="2"/>
    <path id="Trazado_190755" data-name="Trazado 190755" d="M106.224,113.739,98.97,91.566H71.2L64.09,111.739H51.569L81.232,34.426H92.068l26.777,77.313ZM95.84,81.33,89.033,61.555q-.745-1.987-2.062-6.261t-1.814-6.261A111.357,111.357,0,0,1,81.232,62.4L74.673,81.33Zm43.575,2.335L120.981,56.785H134.3l12.521,19.229,12.62-19.229h13.217L154.172,83.666,173.6,111.739H160.383l-13.565-20.57L133.3,111.739H120.087Zm71.7,29.067q-10.434,0-16.2-7.5h-.7q.7,6.956.7,8.447v22.508H183.239v-79.4h9.441q.4,1.54,1.64,7.354h.6q5.466-8.347,16.4-8.347,10.285,0,16.024,7.453t5.739,20.918q0,13.465-5.838,21.018T211.114,112.732Zm-2.832-47.4q-6.956,0-10.161,4.074t-3.2,13.018v1.739q0,10.037,3.18,14.533t10.385,4.5a10.542,10.542,0,0,0,9.341-4.969q3.279-4.969,3.279-14.161,0-9.242-3.254-13.987T208.281,65.331Zm86.7,46.408H283.259V77.952q0-6.36-2.559-9.49t-8.124-3.13q-7.354,0-10.807,4.4T258.316,84.46v27.278H246.64V34.426h11.676V54.052a91.589,91.589,0,0,1-.6,10.086h.745a16.213,16.213,0,0,1,6.633-6.161,21.379,21.379,0,0,1,9.913-2.186q19.974,0,19.974,20.123Zm64.99-27.576q0,13.465-6.906,21.018t-19.229,7.552a26.346,26.346,0,0,1-13.614-3.478,22.962,22.962,0,0,1-9.093-9.987,34.015,34.015,0,0,1-3.18-15.1q0-13.366,6.857-20.868t19.328-7.5q11.925,0,18.881,7.677T359.975,84.162Zm-40,0q0,19.03,14.061,19.03,13.912,0,13.912-19.03,0-18.831-14.012-18.831-7.354,0-10.658,4.869T319.978,84.162Z" transform="translate(488.217 6443.588)" fill="#f57c00"/>
    <path id="Trazado_190767" data-name="Trazado 190767" d="M7.128,14.548V12.482H5.994q-3.6,0-3.6,1.96a1.27,1.27,0,0,0,.527,1.094,2.378,2.378,0,0,0,1.424.382,3.6,3.6,0,0,0,1.582-.369A3.037,3.037,0,0,0,7.128,14.548Zm0,1.494A4.6,4.6,0,0,1,3.867,17.22a3.436,3.436,0,0,1-2.285-.751,2.413,2.413,0,0,1-.9-1.938q0-3.27,5.634-3.27h.809a7.106,7.106,0,0,0-.105-1.455,1.207,1.207,0,0,0-.589-.751,3.025,3.025,0,0,0-1.538-.3q-2.215,0-2.285,1.582H.958q.185-2.874,4.025-2.874a4.763,4.763,0,0,1,2.795.712,3.239,3.239,0,0,1,1,2.795V17H7.128ZM12.894,17H11.232V4.115h1.661Zm6.064.018a6.251,6.251,0,0,1-1.187.105,2.458,2.458,0,0,1-1.494-.365,1.525,1.525,0,0,1-.589-.936,8.314,8.314,0,0,1-.114-1.556V8.976H14.423v-1.3h1.151V5.354h1.652v2.32h1.512v1.3H17.227v5.379a1.98,1.98,0,0,0,.242,1.217.863.863,0,0,0,.664.259,4.714,4.714,0,0,0,.826-.07Zm7.286-1.2a3.657,3.657,0,0,1-2.786,1.406q-3.155,0-3.155-3.445v-6.1h1.661V13.7a2.632,2.632,0,0,0,.4,1.644,1.62,1.62,0,0,0,1.336.5,3.235,3.235,0,0,0,2.54-1.494V7.675H27.9V17H26.244Zm8.947-6.627a3.712,3.712,0,0,0-1.011-.105,2.6,2.6,0,0,0-2.171,1.327V17H30.349V7.675H32.01v1.3a2.961,2.961,0,0,1,2.426-1.512,4.426,4.426,0,0,1,.756.07Zm7.058,5.361V12.482H41.115q-3.6,0-3.6,1.96a1.27,1.27,0,0,0,.527,1.094,2.378,2.378,0,0,0,1.424.382,3.6,3.6,0,0,0,1.582-.369A3.037,3.037,0,0,0,42.249,14.548Zm0,1.494a4.6,4.6,0,0,1-3.261,1.178,3.436,3.436,0,0,1-2.285-.751,2.413,2.413,0,0,1-.9-1.938q0-3.27,5.634-3.27h.809a7.106,7.106,0,0,0-.105-1.455,1.207,1.207,0,0,0-.589-.751,3.025,3.025,0,0,0-1.538-.3q-2.215,0-2.285,1.582H36.079q.185-2.874,4.025-2.874a4.763,4.763,0,0,1,2.795.712,3.239,3.239,0,0,1,1,2.795V17H42.249Zm14.792-1.723V9.89a3.292,3.292,0,0,0-2.452-1.134,1.974,1.974,0,0,0-1.7.918,4.815,4.815,0,0,0-.637,2.738,4.683,4.683,0,0,0,.6,2.615,1.9,1.9,0,0,0,1.666.892A3.155,3.155,0,0,0,57.041,14.319Zm0,1.564a3.518,3.518,0,0,1-5.493.035,5.6,5.6,0,0,1-1-3.507A5.439,5.439,0,0,1,51.667,8.8a3.529,3.529,0,0,1,2.817-1.332,3.708,3.708,0,0,1,2.558.932V4.115h1.652V17H57.041Zm8.068,1.336a4.392,4.392,0,0,1-3.3-1.288,4.943,4.943,0,0,1-1.248-3.59A5.048,5.048,0,0,1,61.765,8.76a4.559,4.559,0,0,1,6.346-.022,5.078,5.078,0,0,1,1.191,3.6v.4H62.279a3.6,3.6,0,0,0,.892,2.4,2.641,2.641,0,0,0,1.938.782,2.864,2.864,0,0,0,1.569-.444,1.493,1.493,0,0,0,.734-1.261h1.714a3.092,3.092,0,0,1-1.305,2.224A4.593,4.593,0,0,1,65.109,17.22Zm2.443-5.783a3.38,3.38,0,0,0-.905-2.013,2.539,2.539,0,0,0-3.428,0,3.3,3.3,0,0,0-.905,2.017Zm6.935,5.783q-3.823,0-4-3.006h1.661q.018,1.705,2.32,1.705a2.49,2.49,0,0,0,1.569-.426,1.308,1.308,0,0,0,.541-1.068.914.914,0,0,0-.527-.892,13.269,13.269,0,0,0-2.175-.672,8.012,8.012,0,0,1-2.408-.923,2,2,0,0,1-.76-1.793,2.364,2.364,0,0,1,.945-1.92,3.913,3.913,0,0,1,2.527-.76q3.665,0,3.744,2.61H76.271q-.088-1.318-1.978-1.318a2.742,2.742,0,0,0-1.384.316A1.007,1.007,0,0,0,72.36,10a.837.837,0,0,0,.422.787,10.533,10.533,0,0,0,2.114.65,8.178,8.178,0,0,1,2.514.954,2.087,2.087,0,0,1,.822,1.881,2.629,2.629,0,0,1-1.015,2.114A4.15,4.15,0,0,1,74.487,17.22Zm9.448,0a4.134,4.134,0,0,1-3.177-1.279,5.081,5.081,0,0,1-1.191-3.6,5.078,5.078,0,0,1,1.191-3.6,4.6,4.6,0,0,1,5.73-.5A3.155,3.155,0,0,1,87.7,10.47H85.992A1.577,1.577,0,0,0,85.364,9.2a2.332,2.332,0,0,0-1.428-.439,2.371,2.371,0,0,0-1.925.9,4.163,4.163,0,0,0-.738,2.685,4.147,4.147,0,0,0,.738,2.676,2.371,2.371,0,0,0,1.925.9,2.332,2.332,0,0,0,1.428-.439,1.568,1.568,0,0,0,.628-1.266H87.7a3.155,3.155,0,0,1-1.208,2.232A4.115,4.115,0,0,1,83.936,17.22Zm9.185,0a4.392,4.392,0,0,1-3.3-1.288,4.943,4.943,0,0,1-1.248-3.59A5.048,5.048,0,0,1,89.776,8.76a4.559,4.559,0,0,1,6.346-.022,5.078,5.078,0,0,1,1.191,3.6v.4H90.29a3.6,3.6,0,0,0,.892,2.4,2.641,2.641,0,0,0,1.938.782,2.864,2.864,0,0,0,1.569-.444,1.493,1.493,0,0,0,.734-1.261h1.714a3.092,3.092,0,0,1-1.305,2.224A4.593,4.593,0,0,1,93.12,17.22Zm2.443-5.783a3.38,3.38,0,0,0-.905-2.013,2.539,2.539,0,0,0-3.428,0,3.3,3.3,0,0,0-.905,2.017Zm5.265-2.575a3.665,3.665,0,0,1,2.786-1.4q3.155,0,3.155,3.437V17h-1.661V10.971a2.611,2.611,0,0,0-.409-1.644,1.634,1.634,0,0,0-1.34-.5,3.467,3.467,0,0,0-2.531,1.494V17H99.167V7.675h1.661Zm14.256,5.458V9.89a3.292,3.292,0,0,0-2.452-1.134,1.974,1.974,0,0,0-1.7.918,4.815,4.815,0,0,0-.637,2.738,4.683,4.683,0,0,0,.6,2.615,1.9,1.9,0,0,0,1.666.892A3.155,3.155,0,0,0,115.084,14.319Zm0,1.564a3.518,3.518,0,0,1-5.493.035,5.6,5.6,0,0,1-1-3.507A5.439,5.439,0,0,1,109.709,8.8a3.529,3.529,0,0,1,2.817-1.332,3.708,3.708,0,0,1,2.558.932V4.115h1.652V17h-1.652Zm8.068,1.336a4.392,4.392,0,0,1-3.3-1.288,4.943,4.943,0,0,1-1.248-3.59,5.048,5.048,0,0,1,1.208-3.582,4.559,4.559,0,0,1,6.346-.022,5.078,5.078,0,0,1,1.191,3.6v.4h-7.022a3.6,3.6,0,0,0,.892,2.4,2.641,2.641,0,0,0,1.938.782,2.864,2.864,0,0,0,1.569-.444,1.493,1.493,0,0,0,.734-1.261h1.714a3.092,3.092,0,0,1-1.305,2.224A4.593,4.593,0,0,1,123.152,17.22Zm2.443-5.783a3.38,3.38,0,0,0-.905-2.013,2.539,2.539,0,0,0-3.428,0,3.3,3.3,0,0,0-.905,2.017Zm5.265-2.575a3.665,3.665,0,0,1,2.786-1.4q3.155,0,3.155,3.437V17h-1.661V10.971a2.611,2.611,0,0,0-.409-1.644,1.634,1.634,0,0,0-1.34-.5,3.467,3.467,0,0,0-2.531,1.494V17H129.2V7.675h1.661Zm11.971,8.156a6.251,6.251,0,0,1-1.187.105,2.458,2.458,0,0,1-1.494-.365,1.525,1.525,0,0,1-.589-.936,8.314,8.314,0,0,1-.114-1.556V8.976H138.3v-1.3h1.151V5.354H141.1v2.32h1.512v1.3H141.1v5.379a1.98,1.98,0,0,0,.242,1.217.863.863,0,0,0,.664.259,4.714,4.714,0,0,0,.826-.07Zm5.344.2a4.392,4.392,0,0,1-3.3-1.288,4.943,4.943,0,0,1-1.248-3.59,5.048,5.048,0,0,1,1.208-3.582,4.559,4.559,0,0,1,6.346-.022,5.078,5.078,0,0,1,1.191,3.6v.4h-7.022a3.6,3.6,0,0,0,.892,2.4,2.641,2.641,0,0,0,1.938.782,2.864,2.864,0,0,0,1.569-.444,1.493,1.493,0,0,0,.734-1.261h1.714a3.092,3.092,0,0,1-1.305,2.224A4.593,4.593,0,0,1,148.175,17.22Zm2.443-5.783a3.38,3.38,0,0,0-.905-2.013,2.539,2.539,0,0,0-3.428,0,3.3,3.3,0,0,0-.905,2.017Zm6.935,5.783q-3.823,0-4-3.006h1.661q.018,1.705,2.32,1.705a2.49,2.49,0,0,0,1.569-.426,1.308,1.308,0,0,0,.541-1.068.914.914,0,0,0-.527-.892,13.269,13.269,0,0,0-2.175-.672,8.012,8.012,0,0,1-2.408-.923,2,2,0,0,1-.76-1.793,2.364,2.364,0,0,1,.945-1.92,3.913,3.913,0,0,1,2.527-.76q3.665,0,3.744,2.61h-1.652q-.088-1.318-1.978-1.318a2.742,2.742,0,0,0-1.384.316,1.007,1.007,0,0,0-.549.923.837.837,0,0,0,.422.787,10.533,10.533,0,0,0,2.114.65,8.178,8.178,0,0,1,2.514.954,2.087,2.087,0,0,1,.822,1.881,2.629,2.629,0,0,1-1.015,2.114A4.15,4.15,0,0,1,157.553,17.22Z" transform="translate(776.285 6557)" fill="#12263f"/>
    <path id="Trazado_190766" data-name="Trazado 190766" d="M23.828,17H22.167V4.115h1.661Zm4.1,0H26.271V7.675h1.661ZM29.356,3.9l-1.942,2.47h-1.3L27.282,3.9Zm2.681,4.966a3.665,3.665,0,0,1,2.786-1.4q3.155,0,3.155,3.437V17H36.317V10.971a2.611,2.611,0,0,0-.409-1.644,1.634,1.634,0,0,0-1.34-.5,3.467,3.467,0,0,0-2.531,1.494V17H30.376V7.675h1.661ZM44.351,17.22a4.392,4.392,0,0,1-3.3-1.288,4.943,4.943,0,0,1-1.248-3.59A5.048,5.048,0,0,1,41.006,8.76a4.559,4.559,0,0,1,6.346-.022,5.078,5.078,0,0,1,1.191,3.6v.4H41.521a3.6,3.6,0,0,0,.892,2.4,2.641,2.641,0,0,0,1.938.782,2.864,2.864,0,0,0,1.569-.444,1.493,1.493,0,0,0,.734-1.261h1.714a3.092,3.092,0,0,1-1.305,2.224A4.593,4.593,0,0,1,44.351,17.22Zm2.443-5.783a3.38,3.38,0,0,0-.905-2.013,2.539,2.539,0,0,0-3.428,0,3.3,3.3,0,0,0-.905,2.017Zm9.51,3.111V12.482H55.17q-3.6,0-3.6,1.96a1.27,1.27,0,0,0,.527,1.094,2.378,2.378,0,0,0,1.424.382A3.6,3.6,0,0,0,55.1,15.55,3.037,3.037,0,0,0,56.3,14.548Zm0,1.494a4.6,4.6,0,0,1-3.261,1.178,3.436,3.436,0,0,1-2.285-.751,2.413,2.413,0,0,1-.9-1.938q0-3.27,5.634-3.27H56.3A7.106,7.106,0,0,0,56.2,9.806a1.207,1.207,0,0,0-.589-.751,3.025,3.025,0,0,0-1.538-.3q-2.215,0-2.285,1.582H50.134q.185-2.874,4.025-2.874a4.763,4.763,0,0,1,2.795.712,3.239,3.239,0,0,1,1,2.795V17H56.3ZM66.851,8.791a3.529,3.529,0,0,1,5.493-.031,5.585,5.585,0,0,1,1,3.5,5.454,5.454,0,0,1-1.121,3.625A3.538,3.538,0,0,1,69.4,17.22a3.655,3.655,0,0,1-2.549-.94V17H65.189V4.115h1.661Zm0,5.994a3.265,3.265,0,0,0,2.443,1.134A1.971,1.971,0,0,0,71,15a4.841,4.841,0,0,0,.633-2.738,4.71,4.71,0,0,0-.6-2.615,1.9,1.9,0,0,0-1.67-.892,3.149,3.149,0,0,0-2.514,1.6Zm14.256-.237V12.482H79.973q-3.6,0-3.6,1.96a1.27,1.27,0,0,0,.527,1.094,2.378,2.378,0,0,0,1.424.382A3.6,3.6,0,0,0,79.9,15.55,3.037,3.037,0,0,0,81.106,14.548Zm0,1.494a4.6,4.6,0,0,1-3.261,1.178,3.436,3.436,0,0,1-2.285-.751,2.413,2.413,0,0,1-.9-1.938q0-3.27,5.634-3.27h.809A7.106,7.106,0,0,0,81,9.806a1.207,1.207,0,0,0-.589-.751,3.025,3.025,0,0,0-1.538-.3q-2.215,0-2.285,1.582H74.937q.185-2.874,4.025-2.874a4.763,4.763,0,0,1,2.795.712,3.239,3.239,0,0,1,1,2.795V17H81.106Zm7.436,1.178q-3.823,0-4-3.006H86.2q.018,1.705,2.32,1.705a2.49,2.49,0,0,0,1.569-.426,1.308,1.308,0,0,0,.541-1.068.914.914,0,0,0-.527-.892,13.269,13.269,0,0,0-2.175-.672,8.012,8.012,0,0,1-2.408-.923,2,2,0,0,1-.76-1.793,2.364,2.364,0,0,1,.945-1.92,3.913,3.913,0,0,1,2.527-.76q3.665,0,3.744,2.61H90.326q-.088-1.318-1.978-1.318a2.742,2.742,0,0,0-1.384.316,1.007,1.007,0,0,0-.549.923.837.837,0,0,0,.422.787,10.533,10.533,0,0,0,2.114.65,8.178,8.178,0,0,1,2.514.954,2.087,2.087,0,0,1,.822,1.881,2.629,2.629,0,0,1-1.015,2.114A4.15,4.15,0,0,1,88.542,17.22Zm9.633,0a4.392,4.392,0,0,1-3.3-1.288,4.943,4.943,0,0,1-1.248-3.59A5.048,5.048,0,0,1,94.831,8.76a4.559,4.559,0,0,1,6.346-.022,5.078,5.078,0,0,1,1.191,3.6v.4H95.345a3.6,3.6,0,0,0,.892,2.4,2.641,2.641,0,0,0,1.938.782,2.864,2.864,0,0,0,1.569-.444,1.493,1.493,0,0,0,.734-1.261h1.714a3.092,3.092,0,0,1-1.305,2.224A4.593,4.593,0,0,1,98.175,17.22Zm2.443-5.783a3.38,3.38,0,0,0-.905-2.013,2.539,2.539,0,0,0-3.428,0,3.3,3.3,0,0,0-.905,2.017Z" transform="translate(855.285 6533)" fill="#12263f"/>
    <path id="Trazado_190765" data-name="Trazado 190765" d="M13.729,17H12.068V4.115h1.661Zm4.1,0H16.173V7.675h1.661ZM19.258,3.9l-1.942,2.47h-1.3L17.184,3.9Zm2.681,4.966a3.665,3.665,0,0,1,2.786-1.4q3.155,0,3.155,3.437V17H26.219V10.971a2.611,2.611,0,0,0-.409-1.644,1.634,1.634,0,0,0-1.34-.5,3.467,3.467,0,0,0-2.531,1.494V17H20.277V7.675h1.661ZM34.252,17.22a4.392,4.392,0,0,1-3.3-1.288,4.943,4.943,0,0,1-1.248-3.59A5.048,5.048,0,0,1,30.908,8.76a4.119,4.119,0,0,1,3.16-1.3,4.152,4.152,0,0,1,3.186,1.274,5.078,5.078,0,0,1,1.191,3.6v.4H31.422a3.6,3.6,0,0,0,.892,2.4,2.641,2.641,0,0,0,1.938.782,2.864,2.864,0,0,0,1.569-.444,1.493,1.493,0,0,0,.734-1.261h1.714a3.092,3.092,0,0,1-1.305,2.224A4.593,4.593,0,0,1,34.252,17.22ZM36.7,11.437a3.38,3.38,0,0,0-.905-2.013,2.539,2.539,0,0,0-3.428,0,3.3,3.3,0,0,0-.905,2.017Zm9.51,3.111V12.482H45.071q-3.6,0-3.6,1.96A1.27,1.27,0,0,0,42,15.537a2.378,2.378,0,0,0,1.424.382A3.6,3.6,0,0,0,45,15.55,3.037,3.037,0,0,0,46.205,14.548Zm0,1.494a4.6,4.6,0,0,1-3.261,1.178,3.436,3.436,0,0,1-2.285-.751,2.413,2.413,0,0,1-.9-1.938q0-3.27,5.634-3.27h.809A7.106,7.106,0,0,0,46.1,9.806a1.207,1.207,0,0,0-.589-.751,3.025,3.025,0,0,0-1.538-.3q-2.215,0-2.285,1.582H40.035q.185-2.874,4.025-2.874a4.763,4.763,0,0,1,2.795.712,3.239,3.239,0,0,1,1,2.795V17H46.205ZM67.694,17H66.033V10.971A3.058,3.058,0,0,0,65.7,9.318a1.25,1.25,0,0,0-1.116-.492,3.15,3.15,0,0,0-2.364,1.494V17H60.566V10.971a3.058,3.058,0,0,0-.334-1.652,1.26,1.26,0,0,0-1.125-.492,3.127,3.127,0,0,0-2.355,1.494V17H55.091V7.675h1.661V8.861a3.4,3.4,0,0,1,2.61-1.4,2.446,2.446,0,0,1,2.61,1.688,5.21,5.21,0,0,1,1.582-1.393,3.076,3.076,0,0,1,1.274-.294q2.865,0,2.865,3.437Zm6.354.22a4.392,4.392,0,0,1-3.3-1.288,4.943,4.943,0,0,1-1.248-3.59A5.048,5.048,0,0,1,70.7,8.76a4.559,4.559,0,0,1,6.346-.022,5.078,5.078,0,0,1,1.191,3.6v.4H71.219a3.6,3.6,0,0,0,.892,2.4,2.641,2.641,0,0,0,1.938.782,2.864,2.864,0,0,0,1.569-.444,1.493,1.493,0,0,0,.734-1.261h1.714a3.092,3.092,0,0,1-1.305,2.224A4.593,4.593,0,0,1,74.049,17.22Zm2.443-5.783a3.38,3.38,0,0,0-.905-2.013,2.539,2.539,0,0,0-3.428,0,3.3,3.3,0,0,0-.905,2.017ZM86,14.319V9.89A3.292,3.292,0,0,0,83.55,8.756a1.974,1.974,0,0,0-1.7.918,4.815,4.815,0,0,0-.637,2.738,4.683,4.683,0,0,0,.6,2.615,1.9,1.9,0,0,0,1.666.892A3.155,3.155,0,0,0,86,14.319Zm0,1.564a3.518,3.518,0,0,1-5.493.035,5.6,5.6,0,0,1-1-3.507A5.439,5.439,0,0,1,80.627,8.8a3.529,3.529,0,0,1,2.817-1.332A3.708,3.708,0,0,1,86,8.4V4.115h1.652V17H86ZM91.768,17H90.106V7.675h1.661Zm0-11.092H90.106V4.115h1.661Zm8.35,8.64V12.482H98.983q-3.6,0-3.6,1.96a1.27,1.27,0,0,0,.527,1.094,2.378,2.378,0,0,0,1.424.382,3.6,3.6,0,0,0,1.582-.369A3.037,3.037,0,0,0,100.117,14.548Zm0,1.494a4.6,4.6,0,0,1-3.261,1.178,3.436,3.436,0,0,1-2.285-.751,2.413,2.413,0,0,1-.9-1.938q0-3.27,5.634-3.27h.809a7.106,7.106,0,0,0-.105-1.455,1.207,1.207,0,0,0-.589-.751,3.025,3.025,0,0,0-1.538-.3q-2.215,0-2.285,1.582H93.947q.185-2.874,4.025-2.874a4.763,4.763,0,0,1,2.795.712,3.239,3.239,0,0,1,1,2.795V17h-1.652Z" transform="translate(855.285 6479)" fill="#12263f"/>
    <path id="Trazado_190764" data-name="Trazado 190764" d="M7.128,14.548V12.482H5.994q-3.6,0-3.6,1.96a1.27,1.27,0,0,0,.527,1.094,2.378,2.378,0,0,0,1.424.382,3.6,3.6,0,0,0,1.582-.369A3.037,3.037,0,0,0,7.128,14.548Zm0,1.494A4.6,4.6,0,0,1,3.867,17.22a3.436,3.436,0,0,1-2.285-.751,2.413,2.413,0,0,1-.9-1.938q0-3.27,5.634-3.27h.809a7.106,7.106,0,0,0-.105-1.455,1.207,1.207,0,0,0-.589-.751,3.025,3.025,0,0,0-1.538-.3q-2.215,0-2.285,1.582H.958q.185-2.874,4.025-2.874a4.763,4.763,0,0,1,2.795.712,3.239,3.239,0,0,1,1,2.795V17H7.128ZM12.894,17H11.232V4.115h1.661Zm6.064.018a6.251,6.251,0,0,1-1.187.105,2.458,2.458,0,0,1-1.494-.365,1.525,1.525,0,0,1-.589-.936,8.314,8.314,0,0,1-.114-1.556V8.976H14.423v-1.3h1.151V5.354h1.652v2.32h1.512v1.3H17.227v5.379a1.98,1.98,0,0,0,.242,1.217.863.863,0,0,0,.664.259,4.714,4.714,0,0,0,.826-.07Zm7.286-1.2a3.657,3.657,0,0,1-2.786,1.406q-3.155,0-3.155-3.445v-6.1h1.661V13.7a2.632,2.632,0,0,0,.4,1.644,1.62,1.62,0,0,0,1.336.5,3.235,3.235,0,0,0,2.54-1.494V7.675H27.9V17H26.244Zm8.947-6.627a3.712,3.712,0,0,0-1.011-.105,2.6,2.6,0,0,0-2.171,1.327V17H30.349V7.675H32.01v1.3a2.961,2.961,0,0,1,2.426-1.512,4.426,4.426,0,0,1,.756.07Zm7.058,5.361V12.482H41.115q-3.6,0-3.6,1.96a1.27,1.27,0,0,0,.527,1.094,2.378,2.378,0,0,0,1.424.382,3.6,3.6,0,0,0,1.582-.369A3.037,3.037,0,0,0,42.249,14.548Zm0,1.494a4.6,4.6,0,0,1-3.261,1.178,3.436,3.436,0,0,1-2.285-.751,2.413,2.413,0,0,1-.9-1.938q0-3.27,5.634-3.27h.809a7.106,7.106,0,0,0-.105-1.455,1.207,1.207,0,0,0-.589-.751,3.025,3.025,0,0,0-1.538-.3q-2.215,0-2.285,1.582H36.079q.185-2.874,4.025-2.874a4.763,4.763,0,0,1,2.795.712,3.239,3.239,0,0,1,1,2.795V17H42.249ZM63.738,17H62.077V10.971a3.058,3.058,0,0,0-.334-1.652,1.25,1.25,0,0,0-1.116-.492,3.15,3.15,0,0,0-2.364,1.494V17H56.61V10.971a3.058,3.058,0,0,0-.334-1.652,1.26,1.26,0,0,0-1.125-.492A3.127,3.127,0,0,0,52.8,10.32V17H51.135V7.675H52.8V8.861a3.4,3.4,0,0,1,2.61-1.4,2.446,2.446,0,0,1,2.61,1.688A5.21,5.21,0,0,1,59.6,7.758a3.076,3.076,0,0,1,1.274-.294q2.865,0,2.865,3.437Zm8.3-2.452V12.482H70.9q-3.6,0-3.6,1.96a1.27,1.27,0,0,0,.527,1.094,2.378,2.378,0,0,0,1.424.382,3.6,3.6,0,0,0,1.582-.369A3.037,3.037,0,0,0,72.035,14.548Zm0,1.494a4.6,4.6,0,0,1-3.261,1.178,3.436,3.436,0,0,1-2.285-.751,2.413,2.413,0,0,1-.9-1.938q0-3.27,5.634-3.27h.809a7.106,7.106,0,0,0-.105-1.455,1.207,1.207,0,0,0-.589-.751,3.025,3.025,0,0,0-1.538-.3q-2.215,0-2.285,1.582H65.865q.185-2.874,4.025-2.874a4.763,4.763,0,0,1,2.795.712,3.239,3.239,0,0,1,1,2.795V17H72.035Zm4.632,3.208q1.23,0,2.013-2.25L75.155,7.675h1.793l2.47,7.295,2.47-7.295h1.793L80.156,17q-.51,1.336-.866,2.061a3.805,3.805,0,0,1-.932,1.222,2.085,2.085,0,0,1-1.411.5,4.089,4.089,0,0,1-1.072-.123V19.127A2.594,2.594,0,0,0,76.667,19.25Zm14.379-3.437A3.657,3.657,0,0,1,88.26,17.22q-3.155,0-3.155-3.445v-6.1h1.661V13.7a2.632,2.632,0,0,0,.4,1.644,1.62,1.62,0,0,0,1.336.5,3.235,3.235,0,0,0,2.54-1.494V7.675H92.7V17H91.046ZM91.178,3.9l-1.942,2.47h-1.3L89.1,3.9Zm7.3,13.324q-3.823,0-4-3.006h1.661q.018,1.705,2.32,1.705a2.49,2.49,0,0,0,1.569-.426,1.308,1.308,0,0,0,.541-1.068.914.914,0,0,0-.527-.892,13.269,13.269,0,0,0-2.175-.672,8.012,8.012,0,0,1-2.408-.923,2,2,0,0,1-.76-1.793,2.364,2.364,0,0,1,.945-1.92,3.913,3.913,0,0,1,2.527-.76q3.665,0,3.744,2.61h-1.652q-.088-1.318-1.978-1.318a2.742,2.742,0,0,0-1.384.316,1.007,1.007,0,0,0-.549.923.837.837,0,0,0,.422.787,10.533,10.533,0,0,0,2.114.65,8.178,8.178,0,0,1,2.514.954,2.087,2.087,0,0,1,.822,1.881,2.629,2.629,0,0,1-1.015,2.114A4.15,4.15,0,0,1,98.481,17.22Zm9.448,0a4.134,4.134,0,0,1-3.177-1.279,5.081,5.081,0,0,1-1.191-3.6,5.078,5.078,0,0,1,1.191-3.6,4.6,4.6,0,0,1,5.73-.5,3.155,3.155,0,0,1,1.208,2.232h-1.705a1.577,1.577,0,0,0-.628-1.274,2.332,2.332,0,0,0-1.428-.439,2.371,2.371,0,0,0-1.925.9,4.163,4.163,0,0,0-.738,2.685A4.147,4.147,0,0,0,106,15.018a2.371,2.371,0,0,0,1.925.9,2.332,2.332,0,0,0,1.428-.439,1.568,1.568,0,0,0,.628-1.266h1.705a3.155,3.155,0,0,1-1.208,2.232A4.115,4.115,0,0,1,107.93,17.22Zm11.127-1.406a3.657,3.657,0,0,1-2.786,1.406q-3.155,0-3.155-3.445v-6.1h1.661V13.7a2.632,2.632,0,0,0,.4,1.644,1.62,1.62,0,0,0,1.336.5,3.235,3.235,0,0,0,2.54-1.494V7.675h1.652V17h-1.652ZM124.822,17h-1.661V4.115h1.661Zm8.35-2.452V12.482h-1.134q-3.6,0-3.6,1.96a1.27,1.27,0,0,0,.527,1.094,2.378,2.378,0,0,0,1.424.382,3.6,3.6,0,0,0,1.582-.369A3.037,3.037,0,0,0,133.172,14.548Zm0,1.494a4.6,4.6,0,0,1-3.261,1.178,3.436,3.436,0,0,1-2.285-.751,2.413,2.413,0,0,1-.9-1.938q0-3.27,5.634-3.27h.809a7.106,7.106,0,0,0-.105-1.455,1.207,1.207,0,0,0-.589-.751,3.025,3.025,0,0,0-1.538-.3q-2.215,0-2.285,1.582H127q.185-2.874,4.025-2.874a4.763,4.763,0,0,1,2.795.712,3.239,3.239,0,0,1,1,2.795V17h-1.652Zm7.436,1.178q-3.823,0-4-3.006h1.661q.018,1.705,2.32,1.705a2.49,2.49,0,0,0,1.569-.426,1.308,1.308,0,0,0,.541-1.068.914.914,0,0,0-.527-.892A13.269,13.269,0,0,0,140,12.86a8.012,8.012,0,0,1-2.408-.923,2,2,0,0,1-.76-1.793,2.364,2.364,0,0,1,.945-1.92,3.913,3.913,0,0,1,2.527-.76q3.665,0,3.744,2.61h-1.652q-.088-1.318-1.978-1.318a2.742,2.742,0,0,0-1.384.316,1.007,1.007,0,0,0-.549.923.837.837,0,0,0,.422.787,10.533,10.533,0,0,0,2.114.65,8.178,8.178,0,0,1,2.514.954,2.087,2.087,0,0,1,.822,1.881,2.629,2.629,0,0,1-1.015,2.114A4.15,4.15,0,0,1,140.607,17.22Z" transform="translate(776.285 6453)" fill="#12263f"/>
  </g>
</svg>
