<svg xmlns="http://www.w3.org/2000/svg" xmlns:xlink="http://www.w3.org/1999/xlink" width="654.019" height="256" viewBox="0 0 654.019 256">
  <defs>
    <clipPath id="clip-path">
      <rect id="Rectángulo_40381" data-name="Rectángulo 40381" width="654.019" height="186.227" fill="none"/>
    </clipPath>
  </defs>
  <g id="Grupo_125928" data-name="Grupo 125928" transform="translate(12832 6415)">
    <g id="Grupo_125894" data-name="Grupo 125894" transform="translate(-12832 -6382)">
      <g id="Grupo_125885" data-name="Grupo 125885">
        <g id="Grupo_125884" data-name="Grupo 125884" clip-path="url(#clip-path)">
          <line id="Línea_392" data-name="Línea 392" y1="117.041" x2="63.581" transform="translate(273.392 67.966)" fill="none" stroke="#d9000d" stroke-linecap="square" stroke-miterlimit="10" stroke-width="1.8"/>
        </g>
      </g>
      <path id="Trazado_190869" data-name="Trazado 190869" d="M338.709,71.344l2.832-11.786-8.346,8.79Z" fill="#d9000d"/>
      <path id="Trazado_190870" data-name="Trazado 190870" d="M379.895,134v0Z" fill="#fff"/>
      <line id="Línea_393" data-name="Línea 393" y2="93.616" transform="translate(379.895 40.382)" fill="none" stroke="#d9000d" stroke-linecap="square" stroke-miterlimit="10" stroke-width="4.5"/>
      <path id="Trazado_190871" data-name="Trazado 190871" d="M480.684,134v0Z" fill="#fff"/>
      <line id="Línea_394" data-name="Línea 394" y2="93.616" transform="translate(480.684 40.382)" fill="none" stroke="#d9000d" stroke-linecap="square" stroke-miterlimit="10" stroke-width="4.5"/>
      <path id="Trazado_190872" data-name="Trazado 190872" d="M.889,1.8h0Z" fill="#fff"/>
      <g id="Grupo_125887" data-name="Grupo 125887">
        <g id="Grupo_125886" data-name="Grupo 125886" clip-path="url(#clip-path)">
          <line id="Línea_395" data-name="Línea 395" x2="652.24" transform="translate(0.889 1.801)" fill="none" stroke="#858484" stroke-linecap="round" stroke-linejoin="round" stroke-width="1.779"/>
        </g>
      </g>
      <path id="Trazado_190873" data-name="Trazado 190873" d="M.889,35.4h0Z" fill="#fff"/>
      <g id="Grupo_125889" data-name="Grupo 125889">
        <g id="Grupo_125888" data-name="Grupo 125888" clip-path="url(#clip-path)">
          <line id="Línea_396" data-name="Línea 396" x2="652.24" transform="translate(0.889 35.395)" fill="none" stroke="#858484" stroke-linecap="round" stroke-linejoin="round" stroke-width="1.779"/>
        </g>
      </g>
      <path id="Trazado_190874" data-name="Trazado 190874" d="M.889,138.307h0Z" fill="#fff"/>
      <g id="Grupo_125891" data-name="Grupo 125891">
        <g id="Grupo_125890" data-name="Grupo 125890" clip-path="url(#clip-path)">
          <line id="Línea_397" data-name="Línea 397" x2="652.24" transform="translate(0.889 138.306)" fill="none" stroke="#858484" stroke-linecap="round" stroke-linejoin="round" stroke-width="1.779"/>
        </g>
      </g>
      <path id="Trazado_190875" data-name="Trazado 190875" d="M.889,179.1h0Z" fill="#fff"/>
      <g id="Grupo_125893" data-name="Grupo 125893">
        <g id="Grupo_125892" data-name="Grupo 125892" clip-path="url(#clip-path)">
          <line id="Línea_398" data-name="Línea 398" x2="652.24" transform="translate(0.889 179.1)" fill="none" stroke="#858484" stroke-linecap="round" stroke-linejoin="round" stroke-width="1.779"/>
          <path id="Trazado_190876" data-name="Trazado 190876" d="M160.582,2a12.145,12.145,0,0,1,1.221-.128c20.887.036,41.781-.234,62.658.237,12.514.283,23.049,5.393,29.858,16.436a32.1,32.1,0,0,1-12.344,45.5c-.282.151-.551.327-.927.55,2.591,1.206,5.108,2.259,7.516,3.519,10.1,5.289,15.53,13.766,16.57,25.025,1.245,13.487-2.523,25.191-13.012,34.193A44.05,44.05,0,0,1,223.4,137.913c-20.685.306-41.378.111-62.067.119a5.927,5.927,0,0,1-.752-.118Zm18.227,120.21c.886.041,1.471.092,2.055.092,12.778,0,25.556.058,38.333-.045a45.878,45.878,0,0,0,9-.949c6.79-1.423,12.37-4.788,15.825-11.048,2.641-4.784,3.163-9.991,2.777-15.329-.56-7.736-4.222-13.441-11.279-16.812-6.021-2.876-12.494-3.548-19.042-3.587-11.856-.071-23.712.017-35.567-.07-1.841-.014-2.143.639-2.137,2.282.058,14.428.034,28.856.034,43.283v2.183m.138-104.439a11.174,11.174,0,0,0-.13,1.143c-.007,12.983.017,25.966-.039,38.948-.006,1.54.7,1.683,1.923,1.679,10.872-.032,21.747.122,32.613-.109A61.421,61.421,0,0,0,225.8,57.771c6.49-1.508,11.647-4.918,13.594-11.8a28.605,28.605,0,0,0,.627-13.1c-1.133-6.166-4.64-10.521-10.49-12.539a39.543,39.543,0,0,0-11.515-2.407c-12.64-.362-25.294-.255-37.943-.32a8.473,8.473,0,0,0-1.123.161" fill="#161615"/>
          <path id="Trazado_190877" data-name="Trazado 190877" d="M547.611,150.381h16.374a55.511,55.511,0,0,0,2.084,5.639,16.333,16.333,0,0,0,10.449,8.467,36.867,36.867,0,0,0,21.617-.143c7.423-2.248,12.216-7.3,14.587-14.627,2.307-7.13,2.245-14.493,2.07-22.282-.476.554-.732.8-.926,1.085a26.581,26.581,0,0,1-18.091,11.626c-10.537,1.864-20.638.737-29.8-5.176a41.064,41.064,0,0,1-16.19-20.414c-6.388-16.719-7.576-33.759-1.716-50.846,4.473-13.042,13.108-22.3,26.664-26.158,14.932-4.246,29.993-.4,39.647,13.685.317.464.667.906,1.375,1.864V38.935h15.685c.05.678.13,1.252.129,1.826q-.01,46.759-.053,93.518a63.7,63.7,0,0,1-3.32,20.979c-4.108,11.8-12.619,18.91-24.383,22.169-10.967,3.038-22.135,3.633-33.169.442-12.792-3.7-20.691-12.088-22.881-25.459-.1-.628-.1-1.273-.149-2.029m67.97-60.395.5-.074c-.947-6.1-1.566-12.278-2.925-18.287-1.621-7.168-4.92-13.511-11.585-17.439-5.418-3.194-11.338-3.629-17.407-2.862-7.834.99-13.821,4.828-17.629,11.832-2.856,5.255-4,10.993-4.425,16.877-.683,9.381-.56,18.714,2.528,27.751,2.23,6.526,5.66,12.256,11.861,15.726,11.2,6.265,28.1,3.193,35.435-11.925,3.316-6.832,3.894-14.152,3.651-21.6" fill="#161615"/>
          <path id="Trazado_190878" data-name="Trazado 190878" d="M22.451,138.045c1.424-3.834,2.754-7.46,4.114-11.075Q49.641,65.6,72.685,4.228c.691-1.844,1.56-2.481,3.543-2.423,5.4.156,10.807.107,16.209.019a2.471,2.471,0,0,1,2.842,1.929q23.87,66.121,47.849,132.2c.219.605.387,1.228.657,2.088h-2.127c-5.207,0-10.415-.086-15.617.049-1.74.045-2.509-.45-3.065-2.124-3.9-11.743-7.943-23.438-11.85-35.179-.581-1.746-1.33-2.426-3.285-2.415q-24.908.138-49.817.009c-1.8-.007-2.612.491-3.227,2.247-4.181,11.927-8.528,23.794-12.735,35.711a2.195,2.195,0,0,1-2.525,1.733c-5.595-.074-11.19-.03-17.086-.03M61.4,81.949h42.175c-6.711-20-13.349-39.787-19.986-59.57l-.506.011C75.887,42.149,68.694,61.907,61.4,81.949" fill="#161615"/>
          <path id="Trazado_190879" data-name="Trazado 190879" d="M351.826,137.867V124.209c-1.048,1.658-1.735,2.822-2.495,3.936-5.581,8.173-13.578,12.018-23.217,12.683-21.708,1.5-35.932-11.085-42.212-29.072-5.232-14.988-6.048-30.326-1.494-45.639,3.766-12.662,11.126-22.673,23.88-27.41,12.252-4.551,24.354-4.26,35.22,4.02,2.783,2.12,4.932,5.079,7.339,7.683a10.133,10.133,0,0,0,2.08,2.07V1.859c3.585,0,6.858-.036,10.129.012,2.148.032,4.294.185,6.44.284.075,2.091.213,4.181.214,6.271q.02,63.352.01,126.706v2.735Zm-1.061-45.985c-.113-7.8-.808-15.51-3.214-22.994-3.662-11.387-11.409-17.519-22.627-17.852-14.074-.418-23.094,6.408-26.321,20.259a71.2,71.2,0,0,0,.247,32.9c1.643,6.949,4.629,13.205,10.425,17.689,10.258,7.935,28.777,6.328,37.123-8.969,3.581-6.562,4.5-13.689,4.367-21.032" fill="#161615"/>
          <path id="Trazado_190880" data-name="Trazado 190880" d="M476.163,93.923H404.3c-.924,14.035,5,30.57,23.992,32.332,9.512.882,17.731-1.39,24.516-8.215a19.878,19.878,0,0,0,5.413-9.711c.121-.525.809-1.305,1.243-1.311,5-.071,10.008-.016,15.013.016.107,0,.214.126.491.3a42,42,0,0,1-4.341,12.094c-6.707,12.51-17.271,19.3-31.266,21-8.415,1.024-16.718.689-24.743-2.215-12.614-4.563-21.1-13.474-25.062-26.1-5.795-18.447-4.986-36.746,4.166-54.041,6.983-13.2,18.465-20.111,33.277-21.706,7.514-.809,14.873-.448,21.99,2.2,10.33,3.844,17,11.494,21.364,21.3,4.721,10.6,6.078,21.873,6.067,33.365a3.458,3.458,0,0,1-.26.695m-16.838-13.46c-.521-3.053-.856-5.859-1.49-8.594-4.092-17.635-17.326-22.828-31.344-20.255-10.474,1.922-17.021,9.2-20.776,18.978a21.885,21.885,0,0,0-1.55,9.871Z" fill="#161615"/>
          <path id="Trazado_190881" data-name="Trazado 190881" d="M486.807,52.633V38.862h13.62V34.308c0-4.151-.014-8.3,0-12.453.057-12.438,6.081-19.5,18.406-21.379A58.9,58.9,0,0,1,526.912,0c2.228-.03,4.46.186,6.8.3V15.052c-1.341,0-2.629,0-3.918,0-1.252,0-2.5-.056-3.754-.013-5.236.177-8.356,2.819-8.69,8.07-.324,5.11-.07,10.256-.07,15.65h16.412V52.6H517.2v85.3H500.434V52.633Z" fill="#161615"/>
        </g>
      </g>
    </g>
    <text id="Elevada_altura_X" data-name="Elevada altura X" transform="translate(-12448 -6415)" fill="#9b5003" font-size="18" font-family="MicrosoftSansSerif, Microsoft Sans Serif"><tspan x="-65.927" y="17">Elevada altura X</tspan></text>
    <text id="Trazos_que_se_estrechan_en_las_uniones" data-name="Trazos que se estrechan en las uniones" transform="translate(-12764 -6198)" fill="#9b5003" font-size="18" font-family="MicrosoftSansSerif, Microsoft Sans Serif"><tspan x="-98.723" y="17">Trazos que se estrechan </tspan><tspan x="-57.929" y="35">en las uniones</tspan></text>
  </g>
</svg>
