<svg xmlns="http://www.w3.org/2000/svg" xmlns:xlink="http://www.w3.org/1999/xlink" width="295" height="100" viewBox="0 0 295 100">
  <defs>
    <clipPath id="clip-path">
      <rect id="Rect치ngulo_40408" data-name="Rect치ngulo 40408" width="143.898" height="37.18" fill="#12263f"/>
    </clipPath>
  </defs>
  <g id="Grupo_126015" data-name="Grupo 126015" transform="translate(-1125.285 -9977)">
    <g id="Grupo_126014" data-name="Grupo 126014">
      <g id="Grupo_126013" data-name="Grupo 126013">
        <g id="Grupo_126012" data-name="Grupo 126012">
          <g id="Grupo_126011" data-name="Grupo 126011">
            <g id="Grupo_125961" data-name="Grupo 125961">
              <rect id="Rect치ngulo_40412" data-name="Rect치ngulo 40412" width="295" height="100" rx="16" transform="translate(1125.285 9977)" fill="#b1f9ff"/>
              <g id="Grupo_125951" data-name="Grupo 125951" transform="translate(1200.505 10008.334)">
                <g id="Grupo_125950" data-name="Grupo 125950" transform="translate(0)" clip-path="url(#clip-path)">
                  <path id="Trazado_190938" data-name="Trazado 190938" d="M146.623,128.081h-4.309c0-.141-.005-.366,0-.591.119-4.655.246-9.311.354-13.967a11.194,11.194,0,0,0-.653-4.269,5.384,5.384,0,0,0-6.264-3.655q-4.951.78-5.639,6.081a14.49,14.49,0,0,0-.141,1.786,139.788,139.788,0,0,0,.333,14.072,5.391,5.391,0,0,1,0,.55h-4.619a97.108,97.108,0,0,0,.381-12.293c-.031-4.124-.146-8.247-.223-12.313h4.185v4.008c.148-.2.262-.343.369-.493a9.156,9.156,0,0,1,5.87-3.981,9.932,9.932,0,0,1,6.315.68,7.189,7.189,0,0,1,4.007,6.411c.168,2.323.034,4.668.033,7q0,5.192,0,10.384v.588" transform="translate(-112.025 -91.62)" fill="#12263f"/>
                  <path id="Trazado_190939" data-name="Trazado 190939" d="M938.6,108.55c0-.777-.016-1.555.013-2.33a.731.731,0,0,1,.277-.475,12.7,12.7,0,0,1,8.688-2.815,8.056,8.056,0,0,1,6.622,3.355,7.22,7.22,0,0,1,1.254,4.261c-.05,3.86-.145,7.72-.19,11.58a18.3,18.3,0,0,0,.171,2.815,1.812,1.812,0,0,0,2.475,1.618c.138-.031.278-.051.477-.088a7.56,7.56,0,0,1-.01.836.453.453,0,0,1-.2.325,7.036,7.036,0,0,1-3.921.583,3.254,3.254,0,0,1-2.724-2.682c-.028-.117-.074-.23-.118-.363-.7.594-1.355,1.2-2.06,1.728a9.084,9.084,0,0,1-8.575,1.52,6.253,6.253,0,0,1-4.456-5.656,6.442,6.442,0,0,1,3.861-6.421,19.808,19.808,0,0,1,4.759-1.244c1.612-.317,3.231-.623,4.819-1.038,1.4-.365,1.786-.91,1.722-2.359a12.072,12.072,0,0,0-.437-2.993,4.8,4.8,0,0,0-4.679-3.564,7.454,7.454,0,0,0-7.009,3.219c-.122.175-.4.238-.612.353l-.142-.163m12.787,6.724-.72.158c-1.94.433-3.9.786-5.814,1.318-3.174.882-4.511,2.827-4.187,5.857a4.395,4.395,0,0,0,4.518,4.047,7.182,7.182,0,0,0,5.961-3.436,1.228,1.228,0,0,0,.147-.617c.043-.96.082-1.92.092-2.88.015-1.463,0-2.927,0-4.448" transform="translate(-834.533 -91.72)" fill="#12263f"/>
                  <path id="Trazado_190940" data-name="Trazado 190940" d="M1190.752,104.224c-.384,1.216-.737,2.352-1.111,3.481-.037.113-.23.276-.307.255a.753.753,0,0,1-.47-.307,4.721,4.721,0,0,0-2.615-2.547,4.515,4.515,0,0,0-6.026,2.466,4.074,4.074,0,0,0,2.625,5.455c1.363.523,2.8.843,4.175,1.349a14.687,14.687,0,0,1,2.983,1.393c2.055,1.347,2.522,3.441,2.171,5.7a8.108,8.108,0,0,1-6,6.767,12.289,12.289,0,0,1-9.771-1.036,1.141,1.141,0,0,1-.164-.114l1.021-3.792c.311-.123.539.022.761.366a6.711,6.711,0,0,0,7.344,2.954,4.434,4.434,0,0,0,2.839-6.376,4.989,4.989,0,0,0-2.723-1.964c-1.346-.473-2.731-.837-4.074-1.317a13.359,13.359,0,0,1-2.305-1.072,5.53,5.53,0,0,1-2.7-4.9,7.334,7.334,0,0,1,4.284-7.253,10.01,10.01,0,0,1,6.945-.533c1.076.293,2.12.7,3.115,1.033" transform="translate(-1048.385 -91.632)" fill="#12263f"/>
                  <path id="Trazado_190941" data-name="Trazado 190941" d="M764.112,104.44l-1.238,3.651c-.332.119-.536,0-.721-.4a4.8,4.8,0,0,0-6.609-2.251,4.106,4.106,0,0,0-2.22,3.947,3.91,3.91,0,0,0,2.852,3.769c1.363.524,2.794.87,4.176,1.35a16.7,16.7,0,0,1,2.49,1.058,5.274,5.274,0,0,1,2.771,5.313,8.369,8.369,0,0,1-6.043,7.506,12.614,12.614,0,0,1-9.687-.972c-.328-.168-.31-.335-.216-.644.289-.949.524-1.914.792-2.869.047-.169.18-.466.225-.458a1,1,0,0,1,.612.275,7.2,7.2,0,0,0,2.887,2.57,5.972,5.972,0,0,0,5.917-.145c2.215-1.3,3.15-5.652-.226-7.237-1.316-.618-2.757-.963-4.127-1.472a27.242,27.242,0,0,1-3-1.247,5.157,5.157,0,0,1-2.908-4.248,7.8,7.8,0,0,1,1.734-6.248,8.251,8.251,0,0,1,5.17-2.6,13.086,13.086,0,0,1,7.22,1.275,1.21,1.21,0,0,1,.147.081" transform="translate(-668.125 -91.776)" fill="#12263f"/>
                  <path id="Trazado_190942" data-name="Trazado 190942" d="M0,7.541H4.967c-.565,11.842-.571,23.777,0,35.643H0C.092,37.3.258,31.327.258,25.358S.092,13.448,0,7.541" transform="translate(0 -6.721)" fill="#12263f"/>
                  <path id="Trazado_190943" data-name="Trazado 190943" d="M389.234,128.73a13.983,13.983,0,0,1-7.842-2,11.5,11.5,0,0,1-5.16-8.144,14.967,14.967,0,0,1,.678-8.079,11.584,11.584,0,0,1,8.424-7.238,17.017,17.017,0,0,1,10.242.631,10.984,10.984,0,0,1,1.818.956.575.575,0,0,1,.178.513c-.287.951-.611,1.891-.938,2.83-.04.116-.188.3-.253.282a.7.7,0,0,1-.421-.255,8.835,8.835,0,0,0-2.725-2.686,8.076,8.076,0,0,0-11.554,3.911,17.664,17.664,0,0,0-1.039,7.632,14.019,14.019,0,0,0,.842,4.3,7.606,7.606,0,0,0,7.088,5.111,10.807,10.807,0,0,0,8.5-3.261,3.132,3.132,0,0,1,.467-.309,2.6,2.6,0,0,1,.081.595c-.043.468-.176.932-.179,1.4a1.121,1.121,0,0,1-.563,1.019,14.48,14.48,0,0,1-7.642,2.792" transform="translate(-335.105 -91.588)" fill="#12263f"/>
                  <path id="Trazado_190944" data-name="Trazado 190944" d="M641.736,133.853a208.291,208.291,0,0,0-.022-24.694h4.572a193.639,193.639,0,0,0,.014,24.709c-.785-.075-1.552-.2-2.319-.206-.749,0-1.5.122-2.246.191" transform="translate(-571.96 -97.294)" fill="#12263f"/>
                  <path id="Trazado_190945" data-name="Trazado 190945" d="M638.29,2.651a2.656,2.656,0,1,1,2.651,2.657,2.649,2.649,0,0,1-2.651-2.657" transform="translate(-568.909 0)" fill="#12263f"/>
                </g>
              </g>
            </g>
          </g>
        </g>
      </g>
    </g>
  </g>
</svg>
