<svg xmlns="http://www.w3.org/2000/svg" xmlns:xlink="http://www.w3.org/1999/xlink" width="625.259" height="230.397" viewBox="0 0 625.259 230.397">
  <defs>
    <clipPath id="clip-path">
      <rect id="Rectángulo_40372" data-name="Rectángulo 40372" width="625.259" height="200.397" fill="none"/>
    </clipPath>
  </defs>
  <g id="Grupo_125930" data-name="Grupo 125930" transform="translate(12832 7534)">
    <g id="Grupo_125874" data-name="Grupo 125874" transform="translate(-12832 -7504)">
      <line id="Línea_374" data-name="Línea 374" x2="46.159" y2="15.102" transform="translate(294.189 1.871)" fill="#fff"/>
      <g id="Grupo_125865" data-name="Grupo 125865">
        <g id="Grupo_125864" data-name="Grupo 125864" clip-path="url(#clip-path)">
          <line id="Línea_375" data-name="Línea 375" x2="37.065" y2="12.127" transform="translate(294.189 1.871)" fill="none" stroke="#d9000d" stroke-linecap="square" stroke-miterlimit="10" stroke-width="1.8"/>
        </g>
      </g>
      <path id="Trazado_190835" data-name="Trazado 190835" d="M328.244,16.315l12.1.659L330.2,10.351Z" fill="#d9000d"/>
      <path id="Trazado_190836" data-name="Trazado 190836" d="M57.364,126.8,88.3,163.364l1.925-46.011" fill="none" stroke="#d9000d" stroke-linecap="square" stroke-miterlimit="10" stroke-width="1.8"/>
      <path id="Trazado_190837" data-name="Trazado 190837" d="M56.35,130.458l-5.167-10.965,9.958,6.912Z" fill="#d9000d"/>
      <path id="Trazado_190838" data-name="Trazado 190838" d="M93.272,119.622l-2.645-11.829L87,119.36Z" fill="#d9000d"/>
      <path id="Trazado_190839" data-name="Trazado 190839" d="M621.117,137.27,572.636,5.516l39.708,53.272" fill="none" stroke="#d9000d" stroke-linecap="square" stroke-miterlimit="10" stroke-width="1.8"/>
      <path id="Trazado_190840" data-name="Trazado 190840" d="M623.322,134.178l1.1,12.071-6.988-9.9Z" fill="#d9000d"/>
      <path id="Trazado_190841" data-name="Trazado 190841" d="M608.549,58.947l9.513,7.512L613.58,55.2Z" fill="#d9000d"/>
      <path id="Trazado_190842" data-name="Trazado 190842" d="M419.253,174.221v0Z" fill="#fff"/>
      <line id="Línea_376" data-name="Línea 376" y2="127.082" transform="translate(419.254 47.14)" fill="none" stroke="#d9000d" stroke-linecap="square" stroke-miterlimit="10" stroke-width="5"/>
      <path id="Trazado_190843" data-name="Trazado 190843" d="M456.53,146.249v0Z" fill="#fff"/>
      <line id="Línea_377" data-name="Línea 377" y2="41.957" transform="translate(456.531 104.292)" fill="none" stroke="#d9000d" stroke-linecap="square" stroke-miterlimit="10" stroke-width="2.7"/>
      <path id="Trazado_190844" data-name="Trazado 190844" d="M508.289,146.249v0Z" fill="#fff"/>
      <line id="Línea_378" data-name="Línea 378" y2="41.957" transform="translate(508.289 104.292)" fill="none" stroke="#d9000d" stroke-linecap="square" stroke-miterlimit="10" stroke-width="2.7"/>
      <path id="Trazado_190845" data-name="Trazado 190845" d="M.838,18.773h0Z" fill="#fff"/>
      <g id="Grupo_125867" data-name="Grupo 125867">
        <g id="Grupo_125866" data-name="Grupo 125866" clip-path="url(#clip-path)">
          <line id="Línea_379" data-name="Línea 379" x2="623.583" transform="translate(0.838 18.773)" fill="none" stroke="#858484" stroke-linecap="round" stroke-linejoin="round" stroke-width="1.676"/>
        </g>
      </g>
      <path id="Trazado_190846" data-name="Trazado 190846" d="M.838,69.857h0Z" fill="#fff"/>
      <g id="Grupo_125869" data-name="Grupo 125869">
        <g id="Grupo_125868" data-name="Grupo 125868" clip-path="url(#clip-path)">
          <line id="Línea_380" data-name="Línea 380" x2="623.583" transform="translate(0.838 69.857)" fill="none" stroke="#858484" stroke-linecap="round" stroke-linejoin="round" stroke-width="1.676"/>
        </g>
      </g>
      <path id="Trazado_190847" data-name="Trazado 190847" d="M.838,148.475h0Z" fill="#fff"/>
      <g id="Grupo_125871" data-name="Grupo 125871">
        <g id="Grupo_125870" data-name="Grupo 125870" clip-path="url(#clip-path)">
          <line id="Línea_381" data-name="Línea 381" x2="623.583" transform="translate(0.838 148.475)" fill="none" stroke="#858484" stroke-linecap="round" stroke-linejoin="round" stroke-width="1.676"/>
        </g>
      </g>
      <path id="Trazado_190848" data-name="Trazado 190848" d="M.838,199.559h0Z" fill="#fff"/>
      <g id="Grupo_125873" data-name="Grupo 125873">
        <g id="Grupo_125872" data-name="Grupo 125872" clip-path="url(#clip-path)">
          <line id="Línea_382" data-name="Línea 382" x2="623.583" transform="translate(0.838 199.559)" fill="none" stroke="#858484" stroke-linecap="round" stroke-linejoin="round" stroke-width="1.676"/>
          <path id="Trazado_190849" data-name="Trazado 190849" d="M154.824,145.516h19.355V24.537h-5.2c-4.116,0-8.234-.064-12.347.03-1.784.041-2.406-.532-1.719-2.527.556,0,1.208.006,1.859,0,16.831-.17,33.661-.37,50.492-.5,9.887-.078,19.53,1.22,28.235,6.3,10.291,6.008,15.443,14.931,14.057,26.988-.847,7.362-4.971,12.954-10.776,17.353a40.75,40.75,0,0,1-18.048,7.4c-.59.1-1.177.223-2.224.423,3.534.734,6.634,1.247,9.663,2.032a43.182,43.182,0,0,1,17.687,9.1c15.034,12.983,11.585,36.409-1.83,47.018a45.79,45.79,0,0,1-23.614,9.5,171.879,171.879,0,0,1-19.649.824c-14.68-.007-29.36-.252-44.04-.4-2.22-.021-2.222-.014-1.9-2.563m37.34-63.632v63.6a81.281,81.281,0,0,0,22.522-.035c8.25-1.3,14.887-5.179,17.668-13.412,4.035-11.945,4.407-24.144.171-36.127-2.87-8.119-8.8-13.3-17.556-13.914-7.508-.526-15.081-.109-22.8-.109m-.044-2.707c4.086,0,7.953.085,11.814-.024a81.572,81.572,0,0,0,11.18-.7,15.569,15.569,0,0,0,12.445-10.082c3.7-9.344,3.616-18.967,1.334-28.592-1.853-7.816-6.846-12.767-14.683-14.613-7.205-1.7-14.5-1.4-21.792-.566-.1.011-.177.146-.3.252Z" fill="#161615"/>
          <path id="Trazado_190850" data-name="Trazado 190850" d="M338.328,85.668V22.908h-13.39v-2.3h28.741V145.478h13.366c.647,2.429.526,2.6-1.745,2.6q-12.163,0-24.325,0h-2.062V133.134l-.407-.078c-.413.978-.807,1.966-1.244,2.935-4.86,10.776-15.328,16.26-26.986,14.146-18.4-3.337-31.942-18.452-33.526-37.433-1.527-18.283,10.105-35.977,27.489-41.389,8.568-2.667,17-2.246,24.76,2.817A23.664,23.664,0,0,1,337.632,84.9c.12.275.264.54.4.81l.3-.045m-44.139,27.639c.311,3.684.529,10.455,1.522,17.109C297.385,141.624,302.8,147,313.047,147.9c9.455.829,17.183-2.726,21.18-11.642a41.5,41.5,0,0,0,3.313-11.228,110.726,110.726,0,0,0-.613-33.739c-2.005-11.676-9.99-18.649-21.828-18.979-7.13-.2-13.1,2.111-16.434,8.911a37.448,37.448,0,0,0-2.625,7.428c-1.758,7.088-1.683,14.354-1.851,24.658" fill="#161615"/>
          <path id="Trazado_190851" data-name="Trazado 190851" d="M544.563,153.488c-2.788-.274-5.6-.407-8.359-.849-10.561-1.688-15.091-7.934-13.651-19.233.994-7.8,6.255-12.506,12.737-16.1,1.124-.624,2.29-1.172,3.737-1.908-.461-.328-.806-.567-1.144-.814-11.4-8.324-12.128-24.911-1.693-34.993,10.2-9.85,27.736-13.84,41.666-4.377,1.517,1.03,2.941,2.195,4.547,3.4.7-.878,1.4-1.785,2.132-2.661,4.584-5.471,12.428-7.7,18.462-5.229,3.012,1.233,4.1,3.69,4.175,6.75a6.04,6.04,0,0,1-3.62,6.089,5.157,5.157,0,0,1-7.109-2.236c-.728-1.278-1.283-2.654-2.018-3.928-1.209-2.093-2.989-2.6-5.175-1.537a9.827,9.827,0,0,0-1.563.965c-3.354,2.507-3.419,2.9-1.121,6.228,7.995,11.577,4.77,25.7-7.746,33.056-11.07,6.508-22.629,7.244-34.388,1.962-2.148-.965-3.906-1.07-5.811.214a61,61,0,0,0-6.082,4.1,10.329,10.329,0,0,0-2.97,11.238c1.655,4.109,5.276,5.166,9.16,5.225,9.825.149,19.654.06,29.482.106a38.616,38.616,0,0,1,14.11,2.219c8.046,3.154,12.218,9.227,13.4,17.647,2.434,17.3-8.767,31.265-23.8,36.832-12.648,4.684-25.212,4.212-37.224-2.2-5.554-2.965-9.441-7.5-10.149-14.056-.658-6.087,1.353-11.363,5.392-15.9a35.905,35.905,0,0,1,12.438-8.688q1.156-.521,2.316-1.037l-.129-.281m15.587.139c0-.107,0-.214,0-.321-3.314,0-6.628-.014-9.942.013a3.986,3.986,0,0,0-1.773.295c-7.311,3.874-12.33,9.247-12.707,18.13-.475,11.208,5.07,19.569,15.741,22.274a31.854,31.854,0,0,0,24.4-3.114c7.914-4.556,12.455-11.236,12.124-20.738-.335-9.627-5.72-15.636-15.343-16.478-4.136-.362-8.33-.061-12.5-.061M541.966,95.016c.259,3.392.3,6.046.694,8.647.817,5.44,2.56,10.461,7.834,13.244,3.989,2.105,8.348,2.367,12.747,1.919,6.871-.7,11.053-4.615,12.821-11.158a48.383,48.383,0,0,0,1-18.642,31.925,31.925,0,0,0-.939-5.056c-2.244-7.707-5.994-10.916-14.012-11.552-10.033-.8-16.786,3.222-18.923,13.305-.7,3.281-.891,6.669-1.224,9.293" fill="#161615"/>
          <path id="Trazado_190852" data-name="Trazado 190852" d="M95.159,147.918v-2.369h19.554c-1.732-4.621-3.353-8.974-4.994-13.321-4.245-11.248-8.531-22.48-12.713-33.751-.577-1.556-1.256-2.162-3-2.149q-18.423.13-36.849.009a2.473,2.473,0,0,0-2.764,1.923q-8.559,22.929-17.243,45.812c-.148.391-.259.8-.455,1.407H56.04v2.5H18.2c-.036-.745-.07-1.447-.118-2.452h4.625c3.194,0,6.389-.046,9.581.024a1.752,1.752,0,0,0,1.963-1.39q12.518-33.334,25.11-66.64Q70.073,49.11,80.741,20.684c.491-1.312,1.077-1.978,2.625-1.905,1.516.07,2.493.208,3.143,1.93q17.347,45.968,34.845,91.878c3.964,10.436,7.949,20.864,11.862,31.319a2.1,2.1,0,0,0,2.355,1.655c4.6-.089,9.2-.034,13.927-.034v2.391ZM75.65,42.426,56.238,93.8H95.063C88.612,76.727,82.232,59.843,75.65,42.426" fill="#161615"/>
          <path id="Trazado_190853" data-name="Trazado 190853" d="M489.525,145.543H505.3v2.452c-.58.028-1.167.079-1.755.08-13.7,0-27.4-.028-41.1.04-1.875.009-2.268-.689-1.776-2.488h13.26V74.62c-3.986,0-7.9.038-11.815-.043a2,2,0,0,1-1.556-.944c-.379-1.162.3-1.573,1.492-1.556,3.919.056,7.839.021,12.033.021,0-.874-.031-1.585,0-2.293.339-6.861.232-13.782,1.131-20.569,1.9-14.365,14.757-27.594,29.032-29.98,8.34-1.394,16.038.435,22.112,6.827a13.263,13.263,0,0,1,3.762,8.217c.572,7.162-4.208,11.32-11.23,9.789-4.794-1.045-6.457-4.234-4.558-8.793.683-1.641,1.53-3.221,2.123-4.892,1.37-3.862-.227-7.013-4.087-8.288-7.606-2.51-15.506.832-19.449,8.229a26.854,26.854,0,0,0-3.3,11.977c-.237,9.455-.149,18.918-.247,28.377-.015,1.4.74,1.411,1.753,1.408,5.959-.02,11.918-.01,17.877-.01h2.137v2.524h-2.17c-5.9,0-11.8.036-17.692-.025-1.379-.014-1.921.3-1.918,1.819q.07,33.726.037,67.454c0,.479.069.957.124,1.674" fill="#161615"/>
          <path id="Trazado_190854" data-name="Trazado 190854" d="M452.84,104.147h-54.2c-.189.284-.311.383-.316.487-.426,8.967-.7,17.938,1.8,26.692,1.666,5.825,4.533,10.89,10.036,13.989a20.955,20.955,0,0,0,12.436,2.62,46.831,46.831,0,0,0,11.472-2.28c7.323-2.67,11.518-8.522,13.915-15.7.63-1.887,1.469-2.15,3.233-1.212a28.557,28.557,0,0,1-8.739,14.706c-5.848,5.111-12.873,6.947-20.445,7.012-13.192.113-24.711-3.877-33.229-14.414-11.844-14.652-11.181-37.133,1.462-51.877,8.113-9.46,18.3-14.7,30.971-14.293,16.581.535,28.726,11.507,31.042,27.93.28,1.99.363,4.008.565,6.338m-18.362-2.59c1.057-4.517.531-15.4-.857-19.5-1.243-3.678-3.171-6.782-6.861-8.461-5.477-2.492-16.6-1.717-21.692,5.084a25.668,25.668,0,0,0-4.631,9.935c-.925,4.216-1.5,8.508-2.262,12.947Z" fill="#161615"/>
        </g>
      </g>
    </g>
    <text id="Trazos_terminales_horizontales_finos_y_ligeramente_cóncavos" data-name="Trazos terminales horizontales finos y ligeramente cóncavos" transform="translate(-12815 -7534)" fill="#9b5003" font-size="18" font-family="MicrosoftSansSerif, Microsoft Sans Serif"><tspan x="-122.542" y="17">Trazos terminales horizontales </tspan><tspan x="-115.888" y="35">finos y ligeramente cóncavos</tspan></text>
    <text id="Gran_altura_X" data-name="Gran altura X" transform="translate(-12323 -7525)" fill="#9b5003" font-size="18" font-family="MicrosoftSansSerif, Microsoft Sans Serif"><tspan x="-53.358" y="17">Gran altura X</tspan></text>
    <text id="Contraste_abrupto" data-name="Contraste abrupto" transform="translate(-12815 -7331)" fill="#9b5003" font-size="18" font-family="MicrosoftSansSerif, Microsoft Sans Serif"><tspan x="-71.934" y="17">Contraste abrupto</tspan></text>
    <text id="Fuerte_modulación_vertical" data-name="Fuerte modulación vertical" transform="translate(-12592 -7348)" fill="#9b5003" font-size="18" font-family="MicrosoftSansSerif, Microsoft Sans Serif"><tspan x="-74.536" y="17">Fuerte modulación </tspan><tspan x="-28.613" y="35">vertical</tspan></text>
    <text id="Espaciado_estrecho" data-name="Espaciado
estrecho" transform="translate(-12407 -7348)" fill="#9b5003" font-size="18" font-family="MicrosoftSansSerif, Microsoft Sans Serif"><tspan x="-42.082" y="17">Espaciado</tspan><tspan x="-34.519" y="35">estrecho</tspan></text>
  </g>
</svg>
