<svg xmlns="http://www.w3.org/2000/svg" xmlns:xlink="http://www.w3.org/1999/xlink" width="601.77" height="246" viewBox="0 0 601.77 246">
  <defs>
    <clipPath id="clip-path">
      <rect id="Rectángulo_40390" data-name="Rectángulo 40390" width="601.77" height="213.797" fill="none"/>
    </clipPath>
  </defs>
  <g id="Grupo_125926" data-name="Grupo 125926" transform="translate(12791.9 5752)">
    <g id="Grupo_125916" data-name="Grupo 125916" transform="translate(-12791.9 -5736.096)">
      <line id="Línea_405" data-name="Línea 405" x2="40.798" y2="112.109" transform="translate(393.372 7.736)" fill="none" stroke="#d9000d" stroke-linecap="square" stroke-miterlimit="10" stroke-width="1.8"/>
      <path id="Trazado_190894" data-name="Trazado 190894" d="M430.49,118.907l6.952,9.929-1.055-12.075Z" fill="#d9000d"/>
      <g id="Grupo_125905" data-name="Grupo 125905">
        <g id="Grupo_125904" data-name="Grupo 125904" clip-path="url(#clip-path)">
          <line id="Línea_406" data-name="Línea 406" x1="38.819" y2="14.511" transform="translate(94.484 1.159)" fill="none" stroke="#d9000d" stroke-linecap="square" stroke-miterlimit="10" stroke-width="1.8"/>
        </g>
      </g>
      <path id="Trazado_190895" data-name="Trazado 190895" d="M95.39,11.982l-9.868,7.039L97.587,17.86Z" fill="#d9000d"/>
      <g id="Grupo_125907" data-name="Grupo 125907">
        <g id="Grupo_125906" data-name="Grupo 125906" clip-path="url(#clip-path)">
          <line id="Línea_407" data-name="Línea 407" y1="22.108" x2="47.271" transform="translate(443.473 190.492)" fill="none" stroke="#d9000d" stroke-linecap="square" stroke-miterlimit="10" stroke-width="1.8"/>
        </g>
      </g>
      <path id="Trazado_190896" data-name="Trazado 190896" d="M490.134,194.241l9.276-7.8-11.935,2.118Z" fill="#d9000d"/>
      <line id="Línea_408" data-name="Línea 408" y1="79.031" x2="51.965" transform="translate(271.319 92.516)" fill="none" stroke="#d9000d" stroke-linecap="square" stroke-miterlimit="10" stroke-width="1.8"/>
      <path id="Trazado_190897" data-name="Trazado 190897" d="M324.731,96.028l3.811-11.507-9.054,8.059Z" fill="#d9000d"/>
      <path id="Trazado_190898" data-name="Trazado 190898" d="M.889,21.493h0Z" fill="#fff"/>
      <g id="Grupo_125909" data-name="Grupo 125909">
        <g id="Grupo_125908" data-name="Grupo 125908" clip-path="url(#clip-path)">
          <line id="Línea_409" data-name="Línea 409" x2="599.991" transform="translate(0.889 21.493)" fill="none" stroke="#858484" stroke-linecap="round" stroke-linejoin="round" stroke-width="1.779"/>
        </g>
      </g>
      <path id="Trazado_190899" data-name="Trazado 190899" d="M.889,66.2h0Z" fill="#fff"/>
      <g id="Grupo_125911" data-name="Grupo 125911">
        <g id="Grupo_125910" data-name="Grupo 125910" clip-path="url(#clip-path)">
          <line id="Línea_410" data-name="Línea 410" x2="599.991" transform="translate(0.889 66.199)" fill="none" stroke="#858484" stroke-linecap="round" stroke-linejoin="round" stroke-width="1.779"/>
        </g>
      </g>
      <path id="Trazado_190900" data-name="Trazado 190900" d="M.889,156.608h0Z" fill="#fff"/>
      <g id="Grupo_125913" data-name="Grupo 125913">
        <g id="Grupo_125912" data-name="Grupo 125912" clip-path="url(#clip-path)">
          <line id="Línea_411" data-name="Línea 411" x2="599.991" transform="translate(0.889 156.608)" fill="none" stroke="#858484" stroke-linecap="round" stroke-linejoin="round" stroke-width="1.779"/>
        </g>
      </g>
      <path id="Trazado_190901" data-name="Trazado 190901" d="M.889,201.314h0Z" fill="#fff"/>
      <g id="Grupo_125915" data-name="Grupo 125915">
        <g id="Grupo_125914" data-name="Grupo 125914" clip-path="url(#clip-path)">
          <line id="Línea_412" data-name="Línea 412" x2="599.991" transform="translate(0.889 201.314)" fill="none" stroke="#858484" stroke-linecap="round" stroke-linejoin="round" stroke-width="1.779"/>
          <path id="Trazado_190902" data-name="Trazado 190902" d="M166.478,22.334c.566-.044,1.025-.112,1.485-.111,11.8.025,23.6-.044,35.4.125a49.933,49.933,0,0,1,20.5,4.569c12.735,5.923,19.273,17.6,18.192,32.111-.855,11.482-6.615,19.666-16.622,25.05-.705.379-1.419.744-2.564,1.345,2.356.662,4.329,1.138,6.25,1.769,10.822,3.556,19,10.037,22.8,21.13a35.4,35.4,0,0,1-20.2,43.93,42.5,42.5,0,0,1-15.65,3.178c-16.141.139-32.283.063-48.426.067-.33,0-.66-.047-1.169-.085Zm14.64,120.008a14.938,14.938,0,0,0,1.486.156c8.2,0,16.409.042,24.613-.051a51.266,51.266,0,0,0,16.376-2.634,22.317,22.317,0,0,0,10.247-34.561c-4.986-6.451-12.066-9.377-19.763-9.941-10.662-.782-21.394-.59-32.1-.805a4.028,4.028,0,0,0-.862.2Zm-.039-60.722c10.685-.353,21.315,1.086,31.525-2.69,6.409-2.371,10.995-6.633,12.866-13.359a30.236,30.236,0,0,0,.227-14.7c-1.25-5.722-4.464-10.062-9.948-12.262a34.482,34.482,0,0,0-9.918-2.713c-7.551-.581-15.151-.521-22.728-.817-1.721-.067-2.157.522-2.15,2.184.059,14.1.033,28.2.037,42.305,0,.538.045,1.076.089,2.056" fill="#161615"/>
          <path id="Trazado_190903" data-name="Trazado 190903" d="M20.412,155.5c1.6-3.651,3.073-7.049,4.57-10.437q26.742-60.544,53.451-121.1c.815-1.852,1.706-2.844,3.865-2.551a20.489,20.489,0,0,0,4.875.008c1.817-.194,2.579.626,3.288,2.193Q119.45,87.72,148.532,151.784c.5,1.1.974,2.212,1.558,3.54-.706.074-1.2.17-1.7.171-3.8.013-7.6-.094-11.4.054-1.651.065-2.342-.557-2.98-1.984-5.839-13.055-11.784-26.062-17.611-39.122a2.5,2.5,0,0,0-2.731-1.731q-28.595.062-57.191,0a2.484,2.484,0,0,0-2.7,1.77c-5.7,13.041-11.505,26.039-17.225,39.073a2.736,2.736,0,0,1-2.995,2c-4.261-.147-8.53-.049-13.157-.049m64.1-111L60.394,99.555h49.02c-8.287-18.322-16.458-36.386-24.9-55.049" fill="#161615"/>
          <path id="Trazado_190904" data-name="Trazado 190904" d="M523.96,152.673c-2.7-2.143-5.72-3.956-7.972-6.461-3.924-4.364-3.241-10,1.6-13.41,2.836-2,6.216-3.222,9.364-4.769.641-.316,1.337-.521,2.129-.823-2.977-1.644-5.942-3-8.606-4.8-10.391-7.03-13.566-17.153-11.851-29.1,2.143-14.925,12.8-22.1,26.2-24.41a94.262,94.262,0,0,1,14.359-1.166c9.9-.172,19.8-.052,29.707-.053h2.363V78.459h-18.5c1.164,1.219,1.965,2.051,2.758,2.89,8.865,9.373,10.35,22.709,3.584,33.332-4.578,7.188-11.508,11.11-19.476,13.414-5.715,1.652-11.476,3.145-17.19,4.8a12.539,12.539,0,0,0-3.443,1.7c-3.962,2.681-3.825,7.739.429,9.924a28.746,28.746,0,0,0,7.47,2.471c7.9,1.574,15.873,2.76,23.746,4.436a31.513,31.513,0,0,1,13,6.013c9.482,7.459,10.365,22.423,1.879,31.511-5.324,5.7-12.221,8.457-19.638,9.934-11.753,2.342-23.464,2.125-34.964-1.553a31.661,31.661,0,0,1-13.631-8.19c-9.4-9.888-7.495-24.807,4.276-31.686,3.336-1.949,7.229-2.946,10.876-4.357a12.262,12.262,0,0,1,1.521-.425m14.75,7.194a55.716,55.716,0,0,0-8.518.916,37.406,37.406,0,0,0-10.21,3.717,11.582,11.582,0,0,0-4.644,15.545,13.02,13.02,0,0,0,7.378,6.372c10.194,3.9,20.648,4.047,31.2,1.757a22.661,22.661,0,0,0,10.5-5.1c5.631-5.018,5.527-12.321-.341-17.042a22.024,22.024,0,0,0-5.235-3.064c-5.918-2.49-12.213-2.918-20.131-3.1m2.251-41.454c11.714-.015,19.995-8.085,19.964-19.451a19.855,19.855,0,0,0-20.1-19.684c-11.222.01-20.359,8.9-20.26,19.783a19.807,19.807,0,0,0,20.4,19.352" fill="#161615"/>
          <path id="Trazado_190905" data-name="Trazado 190905" d="M345.837,155.5c-6.988,0-13.771.148-20.546-.039-7.784-.215-15.643-.143-23.319-1.244-12.137-1.741-22.442-7.165-29.125-17.985-5.219-8.447-6.632-17.855-6.13-27.57.51-9.893,3.312-19.094,9.479-27.022,7.083-9.1,16.538-13.914,27.907-15.338A50.258,50.258,0,0,1,330.3,70.3c.557.235,1.137.415,2.025.737V22.4h13.508Zm-13.465-12.461a5.228,5.228,0,0,0,.092-.727c.007-19.132.025-38.263-.048-57.4a2.978,2.978,0,0,0-1.4-2.1A37.78,37.78,0,0,0,304.5,78.68c-8.088,1.641-14.538,5.849-18.793,13.046-5.425,9.176-6.366,19.043-3.974,29.261,1.968,8.409,6.875,14.782,14.707,18.4a35.933,35.933,0,0,0,12.2,3.492c7.808.548,15.682.158,23.73.158" fill="#161615"/>
          <path id="Trazado_190906" data-name="Trazado 190906" d="M445.659,112.377H380.568c.239,2.514.3,4.864.705,7.155,2.95,16.826,17.118,27.216,34.544,25.6A49.667,49.667,0,0,0,442.4,134.491c.513-.4,1.045-.778,1.967-1.461,0,4.632.051,8.8-.063,12.97-.015.543-.8,1.181-1.37,1.576-11.239,7.808-23.814,10.49-37.265,9.364-21.761-1.822-34.9-17.115-38.066-36.212-1.955-11.808-.883-23.318,4.837-34,6.354-11.87,16.378-18.644,29.761-20.436,18.482-2.476,35.222,8.7,41.109,27.16a52.526,52.526,0,0,1,2.35,18.928m-13.895-9.908c-.159-1.1-.23-2.107-.459-3.075-.437-1.842-.865-3.7-1.471-5.486a23.528,23.528,0,0,0-27.678-15.4c-10.937,2.521-19.021,11.938-20.492,23.964Z" fill="#161615"/>
          <path id="Trazado_190907" data-name="Trazado 190907" d="M481.763,155.435h-13.5V79.709h-8.939c-5.141,0-5.141,0-5.141-5.234V67.734h14c0-2.4-.007-4.548,0-6.695A64.264,64.264,0,0,1,470.2,43.51c2.874-10.075,8.435-17.869,18.719-21.446,7.926-2.758,15.778-1.772,23.529.863a1.55,1.55,0,0,1,.859,1.125c.065,3.723.039,7.449.039,11.3-2.914-.619-5.643-1.561-8.412-1.694a39.078,39.078,0,0,0-10.471.638c-5.688,1.3-9.371,5.321-10.754,10.865A95.524,95.524,0,0,0,481.758,59c-.268,2.746-.049,5.54-.049,8.531.861.055,1.572.138,2.284.14,4.138.013,8.277.043,12.415-.014,1.293-.018,1.826.368,1.788,1.733-.08,2.848-.092,5.7,0,8.549.05,1.5-.577,1.813-1.926,1.795-4.742-.063-9.485-.024-14.511-.024Z" fill="#161615"/>
        </g>
      </g>
    </g>
    <text id="Vértice_plano" data-name="Vértice plano" transform="translate(-12655 -5752)" fill="#9b5003" font-size="18" font-family="MicrosoftSansSerif, Microsoft Sans Serif"><tspan x="-52.528" y="17">Vértice plano</tspan></text>
    <text id="Remates_engrosados" data-name="Remates engrosados" transform="translate(-12498 -5752)" fill="#9b5003" font-size="18" font-family="MicrosoftSansSerif, Microsoft Sans Serif"><tspan x="-85.438" y="17">Remates engrosados</tspan></text>
    <text id="Ligero_contraste" data-name="Ligero contraste" transform="translate(-12599 -5562)" fill="#9b5003" font-size="18" font-family="MicrosoftSansSerif, Microsoft Sans Serif"><tspan x="-64.481" y="17">Ligero contraste</tspan></text>
    <text id="_g_descendente" data-name="&quot;g&quot; descendente" transform="translate(-12502 -5527)" fill="#9b5003" font-size="18" font-family="MicrosoftSansSerif, Microsoft Sans Serif"><tspan x="-130.658" y="17">&quot;g&quot; descendente</tspan></text>
  </g>
</svg>
