<svg xmlns="http://www.w3.org/2000/svg" xmlns:xlink="http://www.w3.org/1999/xlink" width="208" height="208" viewBox="0 0 208 208">
  <defs>
    <filter id="Elipse_5500" x="0" y="0" width="208" height="208" filterUnits="userSpaceOnUse">
      <feOffset dx="-6" dy="6" input="SourceAlpha"/>
      <feGaussianBlur stdDeviation="3" result="blur"/>
      <feFlood flood-opacity="0.161"/>
      <feComposite operator="in" in2="blur"/>
      <feComposite in="SourceGraphic"/>
    </filter>
  </defs>
  <g id="Grupo_126002" data-name="Grupo 126002" transform="translate(-270.285 -12417)">
    <g transform="matrix(1, 0, 0, 1, 270.29, 12417)" filter="url(#Elipse_5500)">
      <g id="Elipse_5500-2" data-name="Elipse 5500" transform="translate(15 3)" fill="#fff" stroke="#fdd835" stroke-width="6">
        <circle cx="95" cy="95" r="95" stroke="none"/>
        <circle cx="95" cy="95" r="92" fill="none"/>
      </g>
    </g>
    <g id="Grupo_125998" data-name="Grupo 125998" transform="translate(14292.152 18601.867)">
      <path id="Trazado_190968" data-name="Trazado 190968" d="M19.149,21.946H10.294a2.8,2.8,0,0,1-2.8-2.8V10.3a2.8,2.8,0,0,1,2.8-2.8H19.15a2.8,2.8,0,0,1,2.8,2.8V19.15A2.8,2.8,0,0,1,19.149,21.946Z" transform="translate(-13967.068 -6142.069)" fill="#26ccda"/>
      <g id="Grupo_125963" data-name="Grupo 125963" transform="translate(-13953.265 -6134.569)">
        <path id="Trazado_190969" data-name="Trazado 190969" d="M48.688,10.3v8.855a2.8,2.8,0,0,1-2.8,2.8H40.545a2.8,2.8,0,0,0,2.8-2.8V10.3a2.8,2.8,0,0,0-2.8-2.8h5.347A2.8,2.8,0,0,1,48.688,10.3Z" transform="translate(-40.545 -7.502)" fill="#1fa4af"/>
      </g>
      <path id="Trazado_190970" data-name="Trazado 190970" d="M440.422,21.945h-8.855a2.8,2.8,0,0,1-2.8-2.8V10.294a2.8,2.8,0,0,1,2.8-2.8h8.855a2.8,2.8,0,0,1,2.8,2.8v8.855A2.8,2.8,0,0,1,440.422,21.945Z" transform="translate(-14307.98 -6142.068)" fill="#26ccda"/>
      <path id="Trazado_190971" data-name="Trazado 190971" d="M469.954,10.3v8.855a2.8,2.8,0,0,1-2.8,2.8h-5.347a2.8,2.8,0,0,0,2.8-2.8V10.3a2.8,2.8,0,0,0-2.8-2.8h5.347A2.8,2.8,0,0,1,469.954,10.3Z" transform="translate(-14334.718 -6142.071)" fill="#1fa4af"/>
      <path id="Trazado_190972" data-name="Trazado 190972" d="M19.149,443.218H10.294a2.8,2.8,0,0,1-2.8-2.8v-8.855a2.8,2.8,0,0,1,2.8-2.8h8.855a2.8,2.8,0,0,1,2.8,2.8v8.855A2.8,2.8,0,0,1,19.149,443.218Z" transform="translate(-13967.068 -6482.98)" fill="#26ccda"/>
      <g id="Grupo_125965" data-name="Grupo 125965" transform="translate(-13953.265 -6054.209)">
        <path id="Trazado_190973" data-name="Trazado 190973" d="M48.688,431.563v8.855a2.8,2.8,0,0,1-2.8,2.8H40.545a2.8,2.8,0,0,0,2.8-2.8v-8.855a2.8,2.8,0,0,0-2.8-2.8h5.347A2.8,2.8,0,0,1,48.688,431.563Z" transform="translate(-40.545 -428.767)" fill="#1fa4af"/>
      </g>
      <path id="Trazado_190974" data-name="Trazado 190974" d="M440.422,443.218h-8.855a2.8,2.8,0,0,1-2.8-2.8v-8.855a2.8,2.8,0,0,1,2.8-2.8h8.855a2.8,2.8,0,0,1,2.8,2.8v8.855A2.8,2.8,0,0,1,440.422,443.218Z" transform="translate(-14307.98 -6482.98)" fill="#26ccda"/>
      <path id="Trazado_190975" data-name="Trazado 190975" d="M469.954,431.563v8.855a2.8,2.8,0,0,1-2.8,2.8h-5.347a2.8,2.8,0,0,0,2.8-2.8v-8.855a2.8,2.8,0,0,0-2.8-2.8h5.347A2.8,2.8,0,0,1,469.954,431.563Z" transform="translate(-14334.718 -6482.976)" fill="#1fa4af"/>
      <g id="Grupo_125967" data-name="Grupo 125967" transform="translate(-13961 -6136)">
        <path id="Trazado_190976" data-name="Trazado 190976" d="M367.49,37.86h-2.314a1.431,1.431,0,0,0,0,2.861h2.314a1.431,1.431,0,0,0,0-2.861Z" transform="translate(-294.358 -30.638)"/>
        <path id="Trazado_190977" data-name="Trazado 190977" d="M318.964,37.86H316.65a1.431,1.431,0,1,0,0,2.861h2.314a1.431,1.431,0,1,0,0-2.861Z" transform="translate(-255.089 -30.638)"/>
        <path id="Trazado_190978" data-name="Trazado 190978" d="M173.384,37.86H171.07a1.431,1.431,0,0,0,0,2.861h2.314a1.431,1.431,0,0,0,0-2.861Z" transform="translate(-137.279 -30.638)"/>
        <path id="Trazado_190979" data-name="Trazado 190979" d="M270.437,37.86h-2.314a1.431,1.431,0,1,0,0,2.861h2.314a1.431,1.431,0,1,0,0-2.861Z" transform="translate(-215.818 -30.638)"/>
        <path id="Trazado_190980" data-name="Trazado 190980" d="M221.911,37.86H219.6a1.431,1.431,0,0,0,0,2.861h2.314a1.431,1.431,0,1,0,0-2.861Z" transform="translate(-176.549 -30.638)"/>
        <path id="Trazado_190981" data-name="Trazado 190981" d="M124.858,37.86h-2.314a1.431,1.431,0,0,0,0,2.861h2.314a1.431,1.431,0,0,0,0-2.861Z" transform="translate(-98.01 -30.638)"/>
        <path id="Trazado_190982" data-name="Trazado 190982" d="M17.591,7.222h-.284v-3A4.231,4.231,0,0,0,13.081,0H4.226A4.231,4.231,0,0,0,0,4.226v8.855a4.231,4.231,0,0,0,4.226,4.226h3v.288a1.431,1.431,0,0,0,2.861,0v-.288h3a4.231,4.231,0,0,0,4.226-4.226v-3h.284a1.431,1.431,0,0,0,0-2.861Zm-3.146,5.859a1.366,1.366,0,0,1-1.364,1.364H4.226a1.366,1.366,0,0,1-1.364-1.364V4.226A1.366,1.366,0,0,1,4.226,2.861h8.855a1.366,1.366,0,0,1,1.364,1.364v8.855Z" transform="translate(0)"/>
        <path id="Trazado_190983" data-name="Trazado 190983" d="M318.964,459.142H316.65a1.431,1.431,0,1,0,0,2.861h2.314a1.431,1.431,0,1,0,0-2.861Z" transform="translate(-255.089 -371.557)"/>
        <path id="Trazado_190984" data-name="Trazado 190984" d="M173.384,459.142H171.07a1.431,1.431,0,0,0,0,2.861h2.314a1.431,1.431,0,0,0,0-2.861Z" transform="translate(-137.279 -371.557)"/>
        <path id="Trazado_190985" data-name="Trazado 190985" d="M270.437,459.142h-2.314a1.431,1.431,0,1,0,0,2.861h2.314a1.431,1.431,0,1,0,0-2.861Z" transform="translate(-215.818 -371.557)"/>
        <path id="Trazado_190986" data-name="Trazado 190986" d="M367.49,459.142h-2.314a1.431,1.431,0,0,0,0,2.861h2.314a1.431,1.431,0,0,0,0-2.861Z" transform="translate(-294.358 -371.557)"/>
        <path id="Trazado_190987" data-name="Trazado 190987" d="M124.858,459.142h-2.314a1.431,1.431,0,1,0,0,2.861h2.314a1.431,1.431,0,1,0,0-2.861Z" transform="translate(-98.01 -371.557)"/>
        <path id="Trazado_190988" data-name="Trazado 190988" d="M221.911,459.142H219.6a1.431,1.431,0,1,0,0,2.861h2.314a1.431,1.431,0,1,0,0-2.861Z" transform="translate(-176.549 -371.557)"/>
        <path id="Trazado_190989" data-name="Trazado 190989" d="M17.591,421.21h-.284v-3a4.231,4.231,0,0,0-4.226-4.226h-3V413.7a1.431,1.431,0,0,0-2.861,0v.287h-3A4.23,4.23,0,0,0,0,418.213v8.855a4.231,4.231,0,0,0,4.226,4.226H5.282a1.431,1.431,0,1,0,0-2.861H4.226a1.366,1.366,0,0,1-1.364-1.365v-8.855a1.366,1.366,0,0,1,1.364-1.365h8.855a1.366,1.366,0,0,1,1.364,1.365v8.855a1.366,1.366,0,0,1-1.364,1.365H12.034a1.431,1.431,0,1,0,0,2.861h1.047a4.231,4.231,0,0,0,4.226-4.226v-3h.284a1.431,1.431,0,0,0,0-2.861Z" transform="translate(0 -333.625)"/>
        <path id="Trazado_190990" data-name="Trazado 190990" d="M459.146,367.489a1.431,1.431,0,1,0,2.861,0v-2.314a1.431,1.431,0,0,0-2.861,0Z" transform="translate(-371.56 -294.357)"/>
        <path id="Trazado_190991" data-name="Trazado 190991" d="M460.577,126.3a1.43,1.43,0,0,0,1.431-1.431v-2.314a1.431,1.431,0,1,0-2.861,0v2.314A1.431,1.431,0,0,0,460.577,126.3Z" transform="translate(-371.56 -98.02)"/>
        <path id="Trazado_190992" data-name="Trazado 190992" d="M459.146,173.394a1.431,1.431,0,1,0,2.861,0V171.08a1.431,1.431,0,1,0-2.861,0Z" transform="translate(-371.56 -137.287)"/>
        <path id="Trazado_190993" data-name="Trazado 190993" d="M459.146,318.966a1.431,1.431,0,1,0,2.861,0v-2.314a1.431,1.431,0,1,0-2.861,0Z" transform="translate(-371.56 -255.09)"/>
        <path id="Trazado_190994" data-name="Trazado 190994" d="M459.146,270.442a1.431,1.431,0,1,0,2.861,0v-2.314a1.431,1.431,0,1,0-2.861,0Z" transform="translate(-371.56 -215.822)"/>
        <path id="Trazado_190995" data-name="Trazado 190995" d="M459.146,221.919a1.431,1.431,0,1,0,2.861,0V219.6a1.431,1.431,0,1,0-2.861,0Z" transform="translate(-371.56 -176.556)"/>
        <path id="Trazado_190996" data-name="Trazado 190996" d="M39.295,126.3a1.431,1.431,0,0,0,1.431-1.431v-2.314a1.431,1.431,0,0,0-2.861,0v2.314A1.431,1.431,0,0,0,39.295,126.3Z" transform="translate(-30.641 -98.02)"/>
        <path id="Trazado_190997" data-name="Trazado 190997" d="M37.864,173.394a1.431,1.431,0,1,0,2.861,0V171.08a1.431,1.431,0,1,0-2.861,0Z" transform="translate(-30.641 -137.287)"/>
        <path id="Trazado_190998" data-name="Trazado 190998" d="M37.864,270.442a1.431,1.431,0,1,0,2.861,0v-2.314a1.431,1.431,0,1,0-2.861,0Z" transform="translate(-30.641 -215.822)"/>
        <path id="Trazado_190999" data-name="Trazado 190999" d="M37.864,221.919a1.431,1.431,0,1,0,2.861,0V219.6a1.431,1.431,0,1,0-2.861,0Z" transform="translate(-30.641 -176.556)"/>
        <path id="Trazado_191000" data-name="Trazado 191000" d="M37.864,367.489a1.431,1.431,0,1,0,2.861,0v-2.314a1.431,1.431,0,0,0-2.861,0Z" transform="translate(-30.641 -294.357)"/>
        <path id="Trazado_191001" data-name="Trazado 191001" d="M37.864,318.966a1.431,1.431,0,1,0,2.861,0v-2.314a1.431,1.431,0,1,0-2.861,0Z" transform="translate(-30.641 -255.09)"/>
        <path id="Trazado_191002" data-name="Trazado 191002" d="M427.07,0h-8.855a4.231,4.231,0,0,0-4.226,4.226v3H413.7a1.431,1.431,0,0,0,0,2.861h.287v3a4.231,4.231,0,0,0,4.226,4.226h3v.288a1.431,1.431,0,1,0,2.861,0v-.288h3a4.231,4.231,0,0,0,4.226-4.226V4.226A4.231,4.231,0,0,0,427.07,0Zm1.365,13.081a1.366,1.366,0,0,1-1.365,1.364h-8.855a1.366,1.366,0,0,1-1.365-1.364V4.226a1.366,1.366,0,0,1,1.365-1.364h8.855a1.366,1.366,0,0,1,1.365,1.364Z" transform="translate(-333.628)"/>
        <path id="Trazado_191003" data-name="Trazado 191003" d="M427.07,413.986h-3V413.7a1.431,1.431,0,1,0-2.861,0v.287h-3a4.231,4.231,0,0,0-4.226,4.226v3H413.7a1.431,1.431,0,0,0,0,2.861h.287v3a4.231,4.231,0,0,0,4.226,4.226h8.855a4.231,4.231,0,0,0,4.226-4.226v-8.855A4.231,4.231,0,0,0,427.07,413.986Zm1.365,13.081a1.366,1.366,0,0,1-1.365,1.365h-8.855a1.366,1.366,0,0,1-1.365-1.365v-8.855a1.366,1.366,0,0,1,1.365-1.365h8.855a1.366,1.366,0,0,1,1.365,1.365Z" transform="translate(-333.628 -333.625)"/>
      </g>
      <g id="Grupo_125973" data-name="Grupo 125973" transform="translate(-13938.728 -6117.535)">
        <path id="Trazado_191004" data-name="Trazado 191004" d="M169.881,97.838v13.538a1.039,1.039,0,0,1-1.039,1.039h-4.571a1.035,1.035,0,0,1-1.016-.819c-.349-1.66-1.533-5.267-5.246-5.267H148.2v41.086c0,3.713,3.607,4.9,5.267,5.244a1.038,1.038,0,0,1,.819,1.016v4.571a1.039,1.039,0,0,1-1.039,1.039H133.4a1.039,1.039,0,0,1-1.039-1.039v-4.571a1.038,1.038,0,0,1,.819-1.016c1.66-.347,5.267-1.531,5.267-5.244V106.33h-9.813c-3.713,0-4.9,3.607-5.246,5.267a1.035,1.035,0,0,1-1.016.819H117.8a1.039,1.039,0,0,1-1.039-1.039V97.838A1.038,1.038,0,0,1,117.8,96.8h51.044a1.038,1.038,0,0,1,1.039,1.039Z" transform="translate(-116.759 -96.799)" fill="#fca62f"/>
        <g id="Grupo_125972" data-name="Grupo 125972" transform="translate(26.302 0)">
          <path id="Trazado_191005" data-name="Trazado 191005" d="M364.638,97.84v13.538a1.039,1.039,0,0,1-1.039,1.039h-4.571a1.037,1.037,0,0,1-.8-.378,1.036,1.036,0,0,0,.237-.661V97.84a1.038,1.038,0,0,0-1.039-1.039H363.6A1.038,1.038,0,0,1,364.638,97.84Z" transform="translate(-337.817 -96.801)" fill="#f98824"/>
          <path id="Trazado_191006" data-name="Trazado 191006" d="M265.861,194.107v4.571a1.039,1.039,0,0,1-1.039,1.039h-5.136a1.039,1.039,0,0,0,1.039-1.039v-4.571a1.038,1.038,0,0,0-.819-1.016c-1.66-.347-5.267-1.531-5.267-5.244V147.8a1.039,1.039,0,0,1,1.039-1.039h4.1v41.086c0,3.713,3.607,4.9,5.267,5.244A1.039,1.039,0,0,1,265.861,194.107Z" transform="translate(-254.64 -137.231)" fill="#f98824"/>
        </g>
      </g>
      <path id="Trazado_191007" data-name="Trazado 191007" d="M274.9,243.067H263.126a1.975,1.975,0,0,0-1.975,1.975v11.772a1.975,1.975,0,0,0,3.372,1.4l1.756-1.755,6.436,6.436a1.975,1.975,0,0,0,2.793,0l5.468-5.468a1.975,1.975,0,0,0,0-2.793l-6.436-6.436,1.756-1.756A1.975,1.975,0,0,0,274.9,243.067Z" transform="translate(-14172.335 -6332.7)" fill="#fdd835"/>
      <path id="Trazado_191008" data-name="Trazado 191008" d="M280.972,257.421l-3.173,3.173a1.974,1.974,0,0,0,0-2.793l-5.773-5.771a.938.938,0,0,1,0-1.327l1.093-1.093a1.975,1.975,0,0,0-1.4-3.372H261.147v-1.2a1.976,1.976,0,0,1,1.976-1.976h11.771a1.975,1.975,0,0,1,1.4,3.372l-1.755,1.755,6.435,6.437a1.974,1.974,0,0,1,0,2.793Z" transform="translate(-14172.331 -6332.698)" fill="#d9ba2e"/>
      <g id="Grupo_125974" data-name="Grupo 125974" transform="translate(-13940.156 -6118.966)">
        <path id="Trazado_191009" data-name="Trazado 191009" d="M239,89.3H204.881a1.431,1.431,0,1,0,0,2.861H238.6v12.756h-3.865c-.9-3.818-3.344-6.086-6.574-6.086H218.35a1.43,1.43,0,0,0-1.431,1.431v7.435a1.431,1.431,0,1,0,2.861,0v-6h8.384c2.591,0,3.521,2.588,3.845,4.13a2.476,2.476,0,0,0,2.415,1.956H239a2.472,2.472,0,0,0,2.469-2.469V91.766A2.472,2.472,0,0,0,239,89.3Z" transform="translate(-185.483 -89.297)"/>
        <path id="Trazado_191010" data-name="Trazado 191010" d="M153.648,123.757l.744-.744a3.406,3.406,0,0,0-2.408-5.814h-8.423v-2.753a1.431,1.431,0,1,0-2.861,0V117.2h-.488a3.41,3.41,0,0,0-3.406,3.406v11.772a3.406,3.406,0,0,0,3.893,3.371v5.6c0,3.231,2.268,5.671,6.086,6.574v3.865H127.723v-3.865c3.818-.9,6.086-3.343,6.086-6.574V100.259a1.431,1.431,0,0,0-1.431-1.431h-9.814c-3.231,0-5.67,2.268-6.574,6.086h-3.865V92.158h9.784a1.431,1.431,0,0,0,0-2.861H111.732a2.472,2.472,0,0,0-2.47,2.469v13.54a2.472,2.472,0,0,0,2.47,2.469H116.3a2.476,2.476,0,0,0,2.415-1.956c.324-1.542,1.254-4.13,3.845-4.13h8.384v39.655c0,2.591-2.587,3.521-4.13,3.845a2.476,2.476,0,0,0-1.955,2.415v4.571a2.472,2.472,0,0,0,2.47,2.469h19.846a2.472,2.472,0,0,0,2.47-2.469v-4.571a2.477,2.477,0,0,0-1.956-2.415c-1.542-.324-4.13-1.253-4.13-3.845v-7.106l5.227,5.227a3.41,3.41,0,0,0,4.817,0L159.073,134a3.406,3.406,0,0,0,0-4.816Zm3.4,8.217-5.468,5.468a.545.545,0,0,1-.77,0l-6.436-6.436a1.431,1.431,0,0,0-2.024,0l-1.755,1.755a.544.544,0,0,1-.929-.385V120.6a.545.545,0,0,1,.544-.544h11.772a.544.544,0,0,1,.385.929l-1.755,1.755a1.431,1.431,0,0,0,0,2.023l6.436,6.436a.544.544,0,0,1,0,.77Z" transform="translate(-109.263 -89.297)"/>
      </g>
    </g>
  </g>
</svg>
