<svg xmlns="http://www.w3.org/2000/svg" xmlns:xlink="http://www.w3.org/1999/xlink" width="208" height="208" viewBox="0 0 208 208">
  <defs>
    <filter id="Elipse_4259" x="0" y="0" width="208" height="208" filterUnits="userSpaceOnUse">
      <feOffset dx="-6" dy="6" input="SourceAlpha"/>
      <feGaussianBlur stdDeviation="3" result="blur"/>
      <feFlood flood-opacity="0.161"/>
      <feComposite operator="in" in2="blur"/>
      <feComposite in="SourceGraphic"/>
    </filter>
  </defs>
  <g id="Grupo_126001" data-name="Grupo 126001" transform="translate(-270.285 -12157)">
    <g transform="matrix(1, 0, 0, 1, 270.29, 12157)" filter="url(#Elipse_4259)">
      <g id="Elipse_4259-2" data-name="Elipse 4259" transform="translate(15 3)" fill="#fff" stroke="#f57c00" stroke-width="6">
        <circle cx="95" cy="95" r="95" stroke="none"/>
        <circle cx="95" cy="95" r="92" fill="none"/>
      </g>
    </g>
    <g id="Grupo_125997" data-name="Grupo 125997" transform="translate(14002.652 18009.367)">
      <path id="Shape" d="M38.584,84.842h15.9V79.06a1.446,1.446,0,0,0-1.446-1.446H48.7a4.337,4.337,0,0,1-4.337-4.337V11.119a1.446,1.446,0,0,1,1.446-1.446H63.159c5.571,0,7.706,5.739,8.393,7.708a1.437,1.437,0,0,0,1.362.966h1.81A1.446,1.446,0,0,0,76.169,16.9V2.446A1.446,1.446,0,0,0,74.723,1H2.446A1.446,1.446,0,0,0,1,2.446V16.9a1.446,1.446,0,0,0,1.446,1.446h1.81a1.437,1.437,0,0,0,1.362-.966C6.3,15.412,8.439,9.673,14.01,9.673H31.357A1.446,1.446,0,0,1,32.8,11.119V73.278a4.337,4.337,0,0,1-4.337,4.337H24.129a1.446,1.446,0,0,0-1.446,1.446v5.782Z" transform="translate(-13664.922 -5796.922)" fill="#26ccda"/>
      <g id="Grupo_125996" data-name="Grupo 125996" transform="translate(-13663.739 -5795.922)">
        <path id="Shape-2" data-name="Shape" d="M32.337,70.6V8.446A1.446,1.446,0,0,1,33.782,7H29.446A1.446,1.446,0,0,0,28,8.446V70.6a4.337,4.337,0,0,0,4.337,4.337h4.337A4.337,4.337,0,0,1,32.337,70.6Z" transform="translate(10.848 1.673)" fill="#1fa4af"/>
        <path id="Shape-3" data-name="Shape" d="M1.224,14.708a1.31,1.31,0,0,1-.1.184,1.43,1.43,0,0,0,1.263.782H4.2a1.437,1.437,0,0,0,1.362-.966C6.248,12.739,8.383,7,13.954,7H9.617c-5.571,0-7.706,5.739-8.393,7.708Z" transform="translate(-1.126 1.673)" fill="#1fa4af"/>
        <path id="Shape-4" data-name="Shape" d="M38.337,54H34a1.446,1.446,0,0,1,1.446,1.446v5.782h4.337V55.446A1.446,1.446,0,0,0,38.337,54Z" transform="translate(13.521 22.615)" fill="#1fa4af"/>
        <path id="Shape-5" data-name="Shape" d="M53.337,1H49a1.446,1.446,0,0,1,1.446,1.446V16.9a1.4,1.4,0,0,1-.182.664,1.422,1.422,0,0,0,1.263.782h1.81A1.446,1.446,0,0,0,54.782,16.9V2.446A1.446,1.446,0,0,0,53.337,1Z" transform="translate(20.205 -1)" fill="#1fa4af"/>
      </g>
      <path id="Shape-6" data-name="Shape" d="M69.248,62.812S67.8,77.268,57.683,77.268c-11.564,0-13.01-7.228-13.01-14.456V35.347A1.446,1.446,0,0,0,43.228,33.9H37.446A1.446,1.446,0,0,1,36,32.456V29.469a1.446,1.446,0,0,1,1.292-1.437C40.431,27.7,48.452,26.047,51.9,18v7.228a2.891,2.891,0,0,0,2.891,2.891h5.782a1.446,1.446,0,0,1,1.446,1.446v2.891A1.446,1.446,0,0,1,60.574,33.9H53.347A1.446,1.446,0,0,0,51.9,35.347V62.812C51.9,71.486,63.466,74.377,69.248,62.812Z" transform="translate(-13649.327 -5789.347)" fill="#f57c00"/>
      <path id="Shape-7" data-name="Shape" d="M51.446,26.446v2.891A1.446,1.446,0,0,1,50,30.782h4.337a1.446,1.446,0,0,0,1.446-1.446V26.446A1.446,1.446,0,0,0,54.337,25H50A1.446,1.446,0,0,1,51.446,26.446Z" transform="translate(-13643.089 -5786.228)" fill="#d06a01"/>
      <path id="Shape-8" data-name="Shape" d="M48.34,57.911V30.446A1.446,1.446,0,0,1,49.785,29H45.449A1.446,1.446,0,0,0,44,30.446V57.911a7.286,7.286,0,0,0,9.477,7.322,7.281,7.281,0,0,1-5.14-7.322Z" transform="translate(-13645.766 -5784.446)" fill="#d06a01"/>
      <path id="Shape-9" data-name="Shape" d="M57.3,55.616c-1.391,3.37-3.844,6.916-8.1,7.685a22.859,22.859,0,0,0,2.592.155C61.918,63.456,63.363,49,63.363,49A14.311,14.311,0,0,1,57.3,55.616Z" transform="translate(-13643.442 -5775.535)" fill="#d06a01"/>
      <path id="Shape-10" data-name="Shape" d="M44,25.228a2.891,2.891,0,0,0,2.891,2.891h4.337a2.891,2.891,0,0,1-2.891-2.891V18A15.5,15.5,0,0,1,44,23.866Z" transform="translate(-13645.763 -5789.347)" fill="#d06a01"/>
      <path id="Shape-11" data-name="Shape" d="M2.891,20.238H4.7A2.891,2.891,0,0,0,7.429,18.3c1.557-4.471,3.922-6.738,7.027-6.738H31.8V73.723a2.891,2.891,0,0,1-2.891,2.891H24.574a2.891,2.891,0,0,0-2.891,2.891v5.782a1.446,1.446,0,0,0,1.446,1.446h31.8a1.446,1.446,0,0,0,1.446-1.446V79.506a2.891,2.891,0,0,0-2.891-2.891H49.149a2.891,2.891,0,0,1-2.891-2.891V11.564H63.6c3.105,0,5.47,2.267,7.027,6.739a2.891,2.891,0,0,0,2.728,1.934h1.81a2.891,2.891,0,0,0,2.891-2.891V2.891A2.891,2.891,0,0,0,75.169,0H2.891A2.891,2.891,0,0,0,0,2.891V17.347a2.891,2.891,0,0,0,2.891,2.891Zm0-17.347H75.169V17.347H73.362c-2.5-7.167-6.686-8.673-9.758-8.673H46.258a2.891,2.891,0,0,0-2.891,2.891V73.723a5.782,5.782,0,0,0,5.782,5.782h4.337v4.337H24.574V79.506h4.337a5.782,5.782,0,0,0,5.782-5.782V11.564A2.891,2.891,0,0,0,31.8,8.673H14.456c-3.072,0-7.258,1.506-9.755,8.673H2.891Z" transform="translate(-13665.367 -5797.367)"/>
      <path id="Shape-12" data-name="Shape" d="M58.129,79.159c9.039,0,12.458-10.307,13-15.757a1.446,1.446,0,0,0-2.732-.791c-2.994,5.987-7.359,7.335-10.193,6.665a5.859,5.859,0,0,1-4.415-6.019V35.792H61.02A2.891,2.891,0,0,0,63.911,32.9V30.01a2.891,2.891,0,0,0-2.891-2.891H55.238a1.446,1.446,0,0,1-1.446-1.446V18.445a1.446,1.446,0,0,0-2.774-.57c-3.131,7.3-10.44,8.842-13.435,9.165A2.891,2.891,0,0,0,35,29.915V32.9a2.891,2.891,0,0,0,2.891,2.891h5.782V63.258C43.673,70.662,45.317,79.159,58.129,79.159ZM37.891,32.9V29.915A20.148,20.148,0,0,0,50.9,23.5v2.168a4.337,4.337,0,0,0,4.337,4.337H61.02V32.9H53.792A2.891,2.891,0,0,0,50.9,35.792V63.258a8.665,8.665,0,0,0,6.65,8.832,10.475,10.475,0,0,0,8.89-2.327c-1.443,3.268-3.975,6.505-8.312,6.505-9.63,0-11.564-4.979-11.564-13.01V35.792A2.891,2.891,0,0,0,43.673,32.9Z" transform="translate(-13649.772 -5789.792)"/>
    </g>
  </g>
</svg>
