<svg xmlns="http://www.w3.org/2000/svg" xmlns:xlink="http://www.w3.org/1999/xlink" width="563.97" height="205.131" viewBox="0 0 563.97 205.131">
  <defs>
    <clipPath id="clip-path">
      <rect id="Rectángulo_40386" data-name="Rectángulo 40386" width="563.97" height="194.131" fill="none"/>
    </clipPath>
  </defs>
  <g id="Grupo_125927" data-name="Grupo 125927" transform="translate(12773 6021)">
    <g id="Grupo_125903" data-name="Grupo 125903" transform="translate(-12773 -6010)">
      <path id="Trazado_190882" data-name="Trazado 190882" d="M.889,21.057h0Z" fill="#fff"/>
      <g id="Grupo_125896" data-name="Grupo 125896">
        <g id="Grupo_125895" data-name="Grupo 125895" clip-path="url(#clip-path)">
          <line id="Línea_399" data-name="Línea 399" x2="562.192" transform="translate(0.889 21.057)" fill="none" stroke="#858484" stroke-linecap="round" stroke-linejoin="round" stroke-width="1.779"/>
        </g>
      </g>
      <path id="Trazado_190883" data-name="Trazado 190883" d="M.889,72.038h0Z" fill="#fff"/>
      <g id="Grupo_125898" data-name="Grupo 125898">
        <g id="Grupo_125897" data-name="Grupo 125897" clip-path="url(#clip-path)">
          <line id="Línea_400" data-name="Línea 400" x2="562.192" transform="translate(0.889 72.038)" fill="none" stroke="#858484" stroke-linecap="round" stroke-linejoin="round" stroke-width="1.779"/>
        </g>
      </g>
      <path id="Trazado_190884" data-name="Trazado 190884" d="M.889,150.36h0Z" fill="#fff"/>
      <g id="Grupo_125900" data-name="Grupo 125900">
        <g id="Grupo_125899" data-name="Grupo 125899" clip-path="url(#clip-path)">
          <line id="Línea_401" data-name="Línea 401" x2="562.192" transform="translate(0.889 150.36)" fill="none" stroke="#858484" stroke-linecap="round" stroke-linejoin="round" stroke-width="1.779"/>
        </g>
      </g>
      <path id="Trazado_190885" data-name="Trazado 190885" d="M.889,193.242h0Z" fill="#fff"/>
      <g id="Grupo_125902" data-name="Grupo 125902">
        <g id="Grupo_125901" data-name="Grupo 125901" clip-path="url(#clip-path)">
          <line id="Línea_402" data-name="Línea 402" x2="562.192" transform="translate(0.889 193.242)" fill="none" stroke="#858484" stroke-linecap="round" stroke-linejoin="round" stroke-width="1.779"/>
          <path id="Trazado_190886" data-name="Trazado 190886" d="M151.493,150.136v-2.191q0-59.534-.043-119.069c0-1.784.524-2.172,2.2-2.143,8.015.139,16.038-.016,24.047.261,7.637.263,14.971,1.951,21.591,6.026,8.079,4.973,12.292,12.363,13.485,21.622a35.737,35.737,0,0,1-1.521,16.65A24.4,24.4,0,0,1,203.514,82.3c-.7.568-1.409,1.118-2.165,1.718a63.521,63.521,0,0,1,6.562,2.879c10.383,5.99,15.745,15.188,16.421,27.019.62,10.834-2.706,20.186-11.486,27.1-6.153,4.849-13.316,7.292-20.972,8.308a94.049,94.049,0,0,1-11.215.77c-9.039.107-18.081.035-27.122.035h-2.044m14.1-57.487a4.692,4.692,0,0,0-.27.774q-.021,21.4-.045,42.8c0,.919.406,1.172,1.24,1.157,8.114-.146,16.265.528,24.319-.964,10.329-1.913,18.977-7.1,19.732-19.918.531-9.007-2.959-16.207-11.593-20.079a35.157,35.157,0,0,0-12.664-3.079c-6.906-.352-13.825-.471-20.719-.688M165.4,81.138c2.53,0,4.961.077,7.386-.016,5-.191,10.02-.3,14.81-1.958,5.113-1.767,8.89-4.98,10.492-10.33A30.766,30.766,0,0,0,198.3,52a13.805,13.805,0,0,0-10.834-10.641,70.575,70.575,0,0,0-10.578-1.618c-3.771-.273-7.577-.061-11.48-.061Z" fill="#161615"/>
          <path id="Trazado_190887" data-name="Trazado 190887" d="M524.664,139.681a33.217,33.217,0,0,1-13.914,10.111A34.949,34.949,0,0,1,468.477,136.3c-11.039-16.671-9.032-40.514,4.64-54.581s37.672-14.913,50.954,1.556a4.709,4.709,0,0,1,.456.892l.566-.3V75.793c0-2.6,0-2.6,2.544-2.6h10.629v1.976q0,38.726-.01,77.45c-.007,7.94-1.133,15.686-5.207,22.661a33.842,33.842,0,0,1-22.6,16.508c-10.728,2.4-21.208,1.546-30.834-4.153-10.7-6.334-16.129-15.975-16.8-28.346a8.5,8.5,0,0,1,0-1.022,2.579,2.579,0,0,1,.195-.56H475.66c.264,1.882.388,3.8.818,5.656a22.417,22.417,0,0,0,19.061,17.115,31.781,31.781,0,0,0,13.512-.783c7.745-2.3,12.165-7.763,14.234-15.377a61.243,61.243,0,0,0,1.808-16.384c-.008-2.706,0-5.412,0-8.118l-.428-.131m1.067-28.55a29.627,29.627,0,0,0-2.495-12.951c-4.052-8.648-10.775-13.862-20.339-14.815-9.763-.973-17.59,2.7-23.1,10.884-6.895,10.244-6.411,25.587.661,35.734,9.583,13.752,29.431,12.618,38.243,2.007,5.047-6.077,7.031-13.117,7.03-20.859" fill="#161615"/>
          <path id="Trazado_190888" data-name="Trazado 190888" d="M82.674,20.862c18.594,43.28,37.01,86.142,55.541,129.274h-11.8c-3.437,0-3.445,0-4.732-3.082-4.242-10.167-8.5-20.326-12.682-30.519A2.139,2.139,0,0,0,106.617,115q-24.561.063-49.122-.006a2.291,2.291,0,0,0-2.517,1.645c-4.489,10.68-9.066,21.323-13.562,32a2.026,2.026,0,0,1-2.216,1.532c-3.921-.09-7.846-.03-11.769-.037-.49,0-.981-.052-1.731-.1L82.674,20.862m-.1,32.669-.436-.059L61.3,102.206h41.61L82.574,53.531" fill="#161615"/>
          <path id="Trazado_190889" data-name="Trazado 190889" d="M301.764,15.261h13V149.994H301.886V139.76l-.372-.177c-.388.426-.785.845-1.164,1.279-7.9,9.033-18.006,12.577-29.677,11.015-16.736-2.24-26.758-12.529-31-28.336-3.675-13.684-1.64-26.8,6.858-38.423,12.689-17.354,39.874-19.447,54.183-1.886.243.3.435.639.651.96l.4-.215Zm.67,95.974a32.318,32.318,0,0,0-2.279-12.656c-7.294-17.539-30.06-20.041-41.324-7.489-9.657,10.761-8.721,28.563-1.922,38.589,9.646,14.226,30.6,13.3,39.657.937,4.247-5.8,5.821-12.344,5.868-19.381" fill="#161615"/>
          <path id="Trazado_190890" data-name="Trazado 190890" d="M345.8,114.453c-.587,9.965,6.124,20.319,15.394,23.865a24.972,24.972,0,0,0,19.262-.154c6.392-2.705,10.275-8.025,13.822-13.9l11.106,6.348a41.726,41.726,0,0,1-9.3,11.977c-8.96,7.858-19.449,10.5-31.17,9.33-16.482-1.651-30.363-14.537-32.388-33.973-1.114-10.691.505-20.872,6.165-30.153,5.81-9.528,14.408-14.963,25.437-16.366,10.476-1.333,20.147.761,28.438,7.644,7.7,6.388,11.514,14.9,13,24.575.447,2.907.434,5.884.68,8.825.131,1.558-.481,2.015-2.046,2.011q-28.053-.077-56.106-.033Zm.66-11.216h45.594c-1-10.041-10.462-19.577-21.478-20.049-11.34-.486-23.283,9.7-24.116,20.049" fill="#161615"/>
          <path id="Trazado_190891" data-name="Trazado 190891" d="M457.777,85.34h-19.4v64.648H425.156V85.343h-7.234c0-3.914-.031-7.6.058-11.274.007-.3.82-.814,1.278-.838,1.862-.1,3.731-.04,5.852-.04V71.049c0-10.462-.089-20.925.05-31.385a54.768,54.768,0,0,1,1.094-10.82c1.875-8.631,7.75-13.3,16.114-15.151a28.281,28.281,0,0,1,14,.5,1.638,1.638,0,0,1,1.436,1.882c-.063,3.856-.024,7.713-.024,11.78a25.493,25.493,0,0,0-3.947-1.027A41.2,41.2,0,0,0,445.9,26.5a7.191,7.191,0,0,0-6.495,5.9,27.618,27.618,0,0,0-.985,6.2c-.117,11.2-.09,22.4-.109,33.6a8.7,8.7,0,0,0,.1.865c.651.041,1.3.116,1.957.117,5.231.01,10.462.043,15.692-.018,1.323-.016,1.783.365,1.747,1.732-.091,3.395-.03,6.794-.03,10.443" fill="#161615"/>
          <line id="Línea_403" data-name="Línea 403" x1="38.819" y2="14.511" transform="translate(92.972 1.159)" fill="none" stroke="#d9000d" stroke-linecap="square" stroke-miterlimit="10" stroke-width="1.8"/>
          <path id="Trazado_190892" data-name="Trazado 190892" d="M93.878,11.981,84.01,19.02l12.065-1.161Z" fill="#d9000d"/>
          <line id="Línea_404" data-name="Línea 404" x2="59.257" transform="translate(379.243 171.815)" fill="none" stroke="#d9000d" stroke-linecap="square" stroke-miterlimit="10" stroke-width="1.8"/>
          <path id="Trazado_190893" data-name="Trazado 190893" d="M436.36,174.952l11.708-3.138-11.708-3.137Z" fill="#d9000d"/>
        </g>
      </g>
    </g>
    <text id="Vértice_puntiagudo" data-name="Vértice puntiagudo" transform="translate(-12637 -6021)" fill="#9b5003" font-size="18" font-family="MicrosoftSansSerif, Microsoft Sans Serif"><tspan x="-75.05" y="17">Vértice puntiagudo</tspan></text>
    <text id="Ojal_abierto" data-name="Ojal abierto" transform="translate(-12557 -5850)" fill="#9b5003" font-size="18" font-family="MicrosoftSansSerif, Microsoft Sans Serif"><tspan x="-92.145" y="17">Ojal abierto</tspan></text>
  </g>
</svg>
