<svg xmlns="http://www.w3.org/2000/svg" xmlns:xlink="http://www.w3.org/1999/xlink" width="703.927" height="230" viewBox="0 0 703.927 230">
  <defs>
    <clipPath id="clip-path">
      <rect id="Rectángulo_40377" data-name="Rectángulo 40377" width="703.927" height="193.22" fill="none"/>
    </clipPath>
  </defs>
  <g id="Grupo_125929" data-name="Grupo 125929" transform="translate(12851 6726)">
    <g id="Grupo_125883" data-name="Grupo 125883" transform="translate(-12851 -6726)">
      <path id="Trazado_190855" data-name="Trazado 190855" d="M.889,40h0Z" fill="#fff"/>
      <g id="Grupo_125876" data-name="Grupo 125876">
        <g id="Grupo_125875" data-name="Grupo 125875" clip-path="url(#clip-path)">
          <line id="Línea_383" data-name="Línea 383" x2="702.148" transform="translate(0.889 40.002)" fill="none" stroke="#858484" stroke-linecap="round" stroke-linejoin="round" stroke-width="1.779"/>
        </g>
      </g>
      <path id="Trazado_190856" data-name="Trazado 190856" d="M.889,2.749h0Z" fill="#fff"/>
      <g id="Grupo_125878" data-name="Grupo 125878">
        <g id="Grupo_125877" data-name="Grupo 125877" clip-path="url(#clip-path)">
          <line id="Línea_384" data-name="Línea 384" x2="702.148" transform="translate(0.889 2.749)" fill="none" stroke="#858484" stroke-linecap="round" stroke-linejoin="round" stroke-width="1.779"/>
        </g>
      </g>
      <path id="Trazado_190857" data-name="Trazado 190857" d="M.889,180.061h0Z" fill="#fff"/>
      <g id="Grupo_125880" data-name="Grupo 125880">
        <g id="Grupo_125879" data-name="Grupo 125879" clip-path="url(#clip-path)">
          <line id="Línea_385" data-name="Línea 385" x2="702.148" transform="translate(0.889 180.061)" fill="none" stroke="#858484" stroke-linecap="round" stroke-linejoin="round" stroke-width="1.779"/>
        </g>
      </g>
      <path id="Trazado_190858" data-name="Trazado 190858" d="M.889,136.508h0Z" fill="#fff"/>
      <g id="Grupo_125882" data-name="Grupo 125882">
        <g id="Grupo_125881" data-name="Grupo 125881" clip-path="url(#clip-path)">
          <line id="Línea_386" data-name="Línea 386" x2="702.148" transform="translate(0.889 136.508)" fill="none" stroke="#858484" stroke-linecap="round" stroke-linejoin="round" stroke-width="1.779"/>
          <path id="Trazado_190859" data-name="Trazado 190859" d="M178.187,19.515H162.05V2.928a14.463,14.463,0,0,1,1.569-.166c18.344,0,36.688-.051,55.031.048a44.317,44.317,0,0,1,19.772,4.464c12.524,6.242,18.4,16.628,18.281,30.392-.1,11.577-4.883,20.791-14.85,27.054-.225.142-.425.323-.963.735,1.174.5,2.142.871,3.07,1.32,13.347,6.469,20.518,19.208,19.358,34.2-1.228,15.865-9.886,25.922-24.424,31.366a61.916,61.916,0,0,1-21.641,3.721c-17.866.069-35.733.041-53.6.044-.529,0-1.059-.094-1.665-.152V119.421H164.2c4.023,0,8.048-.069,12.069.034,1.572.04,2.121-.512,1.924-2a7.932,7.932,0,0,1-.006-1.023V19.515ZM198.2,119.766c8.952-.371,17.528-.48,26.055-1.182a20.8,20.8,0,0,0,11.857-5.051c5.2-4.462,6.638-10.419,6.6-16.922-.029-5.654-1.495-10.8-5.757-14.791-4.77-4.467-10.738-6.14-17.01-6.5-6.455-.369-12.943-.122-19.413-.289-1.9-.049-2.388.541-2.377,2.4.077,13.156.041,26.312.041,39.468Zm.177-99.923a2.816,2.816,0,0,0-.147.675q-.022,18.192-.04,36.386c0,1.2.545,1.5,1.628,1.48,6.263-.138,12.539-.025,18.786-.4,8.462-.514,14.59-5.175,16.7-12.7a28.472,28.472,0,0,0,.825-8.473c-.26-8.278-4.575-13.627-12.522-15.841a22.97,22.97,0,0,0-5.591-1.075c-6.511-.131-13.026-.051-19.64-.051" fill="#161615"/>
          <path id="Trazado_190860" data-name="Trazado 190860" d="M106.707,135.974V119.488h16.27c-.422-1.444-.723-2.585-1.087-3.706-2.693-8.291-5.425-16.57-8.069-24.876a1.993,1.993,0,0,0-2.262-1.69c-14.865.049-29.73.016-44.6.08a2.5,2.5,0,0,0-1.956,1.127c-3.324,9.372-6.539,18.782-9.766,28.189-.059.17.029.391.069.8H71.083V136H18.757V119.421c4.288,0,8.5.039,12.7-.012,3.9-.048,2.963.726,4.343-3.1Q53.057,68.444,70.216,20.543c.315-.877.556-1.781.9-2.9H55.693V2.909h67.8V17.568h-15.5c1.188,3.441,2.246,6.567,3.345,9.679q15.859,44.892,31.685,89.794c.658,1.875,1.515,2.5,3.472,2.427,4-.159,8.02-.048,12.182-.048v16.554ZM70.347,73.493h37.641c-.148-.566-.231-.951-.349-1.326Q99.47,46.251,91.262,20.349a12.773,12.773,0,0,0-1.675-2.689,13.157,13.157,0,0,0-1.71,2.7q-6.7,20.055-13.28,40.15c-1.4,4.252-2.787,8.509-4.25,12.98" fill="#161615"/>
          <path id="Trazado_190861" data-name="Trazado 190861" d="M582.147,167.655c4.087-4.634,7.909-8.97,11.82-13.4,1.772,1.184,3.407,2.389,5.145,3.421,11.513,6.837,23.577,8.3,36,2.951,9.814-4.227,15.016-11.856,15.089-22.714.031-4.632,0-9.264,0-14.306-.627.551-1.012.847-1.348,1.191-12.508,12.828-27.631,16.911-44.72,12.312-16.407-4.416-26.594-15.657-30.806-31.923-4.3-16.614-1.845-32.346,8.86-46.073,10.4-13.331,24.467-18.718,41.158-16.9,9.7,1.058,17.754,5.827,24.819,12.38.5.462,1.005.913,1.512,1.363.043.038.126.028.421.085V43.526h35.061c0,5.044.037,10-.079,14.963-.008.355-1.138.966-1.757.979-4.158.088-8.322.145-12.477,0-1.919-.065-2.379.565-2.375,2.417.057,24.9.014,49.8.049,74.694.016,10.916-2.816,20.75-10.578,28.775A44.452,44.452,0,0,1,637.1,177.34c-12.913,3.478-25.843,3.826-38.63-.646a45.419,45.419,0,0,1-7.206-3.376c-3.019-1.7-5.9-3.647-9.12-5.663m8.873-75.139a83.769,83.769,0,0,0,1.9,9.822c6.787,22.718,33.334,25.839,47.467,12.59,10.66-9.992,13.151-27.4,5.863-40.705a29,29,0,0,0-39.631-11.691c-10.929,6.142-15.124,16.276-15.6,29.984" fill="#161615"/>
          <path id="Trazado_190862" data-name="Trazado 190862" d="M358.7,55.282V18.9H341.311V2.872h35.873V119.85c1.152.053,2.069.129,2.986.132,4.092.013,8.185-.038,12.274.056.584.014,1.644.688,1.653,1.075.114,4.9.075,9.8.075,14.848H358.885V122.5c-.99.9-1.57,1.4-2.113,1.933-6.461,6.357-13.892,11.064-22.937,12.58-19.75,3.31-41.188-5.5-49.375-25.712-7.59-18.735-5.826-37.031,6.488-53.44a43.605,43.605,0,0,1,64.542-5.487c.972.9,1.964,1.782,3.207,2.908M299.824,90.411c.242,1.927.426,4.723.964,7.45,2.629,13.3,12.115,22.154,25.058,23.508,12.775,1.337,24.024-4.914,29.468-16.541a37.324,37.324,0,0,0,2.3-25.53c-5.686-22.773-31.171-26.517-44.241-17.263-9.5,6.73-13.093,16.319-13.546,28.376" fill="#161615"/>
          <path id="Trazado_190863" data-name="Trazado 190863" d="M499.827,94.339H422.1c2.085,16.215,12.974,29.227,33.218,28.344a36.077,36.077,0,0,0,27.444-13.736c.406-.495,1.434-1.042,1.878-.857,5.019,2.088,9.982,4.315,15.166,6.6a47.95,47.95,0,0,1-11.674,12.859c-12.989,9.933-27.837,12.819-43.682,10.685-14.171-1.908-26.046-8.308-34.341-20.293C394.328,95.13,399.592,57.519,432.4,44.265c27.672-11.179,57.841,4.416,65.317,33.35a65.477,65.477,0,0,1,2.11,16.724M422.78,80.7h58.258c-2.55-13.516-15.716-27.119-34.186-25.049C432.36,57.274,424.1,69.737,422.78,80.7" fill="#161615"/>
          <path id="Trazado_190864" data-name="Trazado 190864" d="M560.11,23.913a48.376,48.376,0,0,0-1.7-5.181A5.849,5.849,0,0,0,552.4,15a6.155,6.155,0,0,0-5.7,4.242,8.542,8.542,0,0,0-.781,2.947c-.067,6.948-.035,13.9-.035,21.084h15.384V59.367c-.714.049-1.431.139-2.148.141-3.819.015-7.64.069-11.456-.022-1.521-.036-2,.445-1.983,1.977.068,7.5.03,15.006.03,22.51v35.985h17.686v16.006H514.215V120.07H527V59.515c-3.554,0-7.076,0-10.6,0-2.785,0-2.787-.005-2.787-2.745,0-4.356,0-8.712,0-13.352h13.557c0-1.213-.02-2.145,0-3.076.168-6.538-.312-13.174.652-19.593C529.985,6.38,540.791-1.388,555.314.2c11.729,1.287,18.165,8.965,20.312,19.569.111.545-.433,1.725-.818,1.794-4.884.869-9.8,1.588-14.7,2.345" fill="#161615"/>
          <path id="Trazado_190865" data-name="Trazado 190865" d="M51.848,145.409l37.319,43.717,36.041-42.907" fill="none" stroke="#d9000d" stroke-linecap="square" stroke-miterlimit="10" stroke-width="1.8"/>
          <path id="Trazado_190866" data-name="Trazado 190866" d="M50.852,149.074l-5.215-10.942L55.625,145Z" fill="#d9000d"/>
          <path id="Trazado_190867" data-name="Trazado 190867" d="M126.234,149.875l5.128-10.983-9.933,6.947Z" fill="#d9000d"/>
          <line id="Línea_387" data-name="Línea 387" y1="19.644" x2="36.491" transform="translate(538.649 172.357)" fill="none" stroke="#d9000d" stroke-linecap="square" stroke-miterlimit="10" stroke-width="1.8"/>
          <path id="Trazado_190868" data-name="Trazado 190868" d="M574.742,176.134l8.822-8.313-11.8,2.787Z" fill="#d9000d"/>
          <line id="Línea_388" data-name="Línea 388" y2="92.39" transform="translate(397.807 41.869)" fill="#fff"/>
          <line id="Línea_389" data-name="Línea 389" y2="92.39" transform="translate(397.807 41.869)" fill="none" stroke="#d9000d" stroke-linecap="square" stroke-miterlimit="10" stroke-width="5.4"/>
          <line id="Línea_390" data-name="Línea 390" y2="92.39" transform="translate(505.672 41.869)" fill="#fff"/>
          <line id="Línea_391" data-name="Línea 391" y2="92.39" transform="translate(505.672 41.869)" fill="none" stroke="#d9000d" stroke-linecap="square" stroke-miterlimit="10" stroke-width="5.4"/>
        </g>
      </g>
    </g>
    <text id="Espaciado_ancho" data-name="Espaciado
ancho" transform="translate(-12445 -6724)" fill="#9b5003" font-size="18" font-family="MicrosoftSansSerif, Microsoft Sans Serif"><tspan x="-42.082" y="17">Espaciado</tspan><tspan x="-24.521" y="33">ancho</tspan></text>
    <text id="Trazos_terminales_cuadrados" data-name="Trazos terminales cuadrados" transform="translate(-12840 -6535)" fill="#9b5003" font-size="18" font-family="MicrosoftSansSerif, Microsoft Sans Serif"><tspan x="-71.517" y="17">Trazos terminales </tspan><tspan x="-42.029" y="35">cuadrados</tspan></text>
    <text id="_g_de_caja_baja_prácticamente_no_desciende" data-name="&quot;g&quot; de caja baja, prácticamente no desciende" transform="translate(-12500 -6535)" fill="#9b5003" font-size="18" font-family="MicrosoftSansSerif, Microsoft Sans Serif"><tspan x="-64.709" y="17">&quot;g&quot; de caja baja, </tspan><tspan x="-112.456" y="35">prácticamente no desciende</tspan></text>
    <text id="Sin_contraste_en_sus_trazos" data-name="Sin contraste en sus trazos" transform="translate(-12693 -6585)" fill="#9b5003" font-size="18" font-family="MicrosoftSansSerif, Microsoft Sans Serif"><tspan x="-64.872" y="17">Sin contraste en </tspan><tspan x="-40.904" y="33">sus trazos</tspan></text>
  </g>
</svg>
