<svg xmlns="http://www.w3.org/2000/svg" xmlns:xlink="http://www.w3.org/1999/xlink" width="295" height="90" viewBox="0 0 295 90">
  <defs>
    <clipPath id="clip-path">
      <rect id="Rect치ngulo_40411" data-name="Rect치ngulo 40411" width="137.883" height="39.29" fill="#12263f"/>
    </clipPath>
  </defs>
  <g id="Grupo_126020" data-name="Grupo 126020" transform="translate(-1125.285 -10499)">
    <g id="Grupo_125958" data-name="Grupo 125958">
      <rect id="Rect치ngulo_40415" data-name="Rect치ngulo 40415" width="295" height="90" rx="16" transform="translate(1125.285 10499)" fill="#b1f9ff"/>
      <g id="Grupo_125957" data-name="Grupo 125957" transform="translate(1204.285 10524)">
        <g id="Grupo_125956" data-name="Grupo 125956" transform="translate(0)" clip-path="url(#clip-path)">
          <path id="Trazado_190959" data-name="Trazado 190959" d="M15.763,46.9V13.294l.627-.04V16.14c.245-.139.4-.216.545-.311,1.23-.807,2.469-1.6,3.682-2.434a.987.987,0,0,1,1.048-.1q4.94,1.939,9.9,3.829c.609.233,1.246.391,1.872.578a4.319,4.319,0,0,0,2.659-.283c.515-.171.513-.178.935.358l-11.845,7.1,0,.124c.269.047.539.088.806.14A10.848,10.848,0,0,1,33.341,29.6a10.547,10.547,0,0,1,.8,10.554,15.421,15.421,0,0,1-8.455,8.166,21.266,21.266,0,0,1-16.3.542A13.561,13.561,0,0,1,.833,40.644a15.238,15.238,0,0,1-.79-4.315,25.091,25.091,0,0,1,2.873-13.52,9.069,9.069,0,0,1,2.942-3.231c1.563-1.06,3.084-2.182,4.64-3.254a.837.837,0,0,0,.4-.811c-.022-.617-.023-1.237.008-1.853.007-.138.184-.267.282-.4a1.658,1.658,0,0,1,.284.4,1.607,1.607,0,0,1,.011.487q0,15.461-.011,30.921c0,.524.128.752.667.872,1.182.263,2.345.615,3.619.959m.644-7.942c0,2.6.017,5.2-.014,7.8-.006.524.15.728.654.834a17.533,17.533,0,0,0,6.551.124,7.5,7.5,0,0,0,4.6-2.249,8.925,8.925,0,0,0,1.858-9.342,9.424,9.424,0,0,0-12.989-5.956.958.958,0,0,0-.681,1.05c.037,2.58.016,5.161.016,7.742M10.866,17.64l-.122-.046q-.506.668-1.012,1.337a17.878,17.878,0,0,0-3.6,8.477,39.1,39.1,0,0,0-.1,7.505,15.061,15.061,0,0,0,4.709,10.177c.017.017.066,0,.118,0Zm5.575,11.781L28.533,22.37,16.441,16.683Z" transform="translate(0 -11.757)" fill="#12263f"/>
          <path id="Trazado_190960" data-name="Trazado 190960" d="M359.1,112.724c.126-.159.218-.289.324-.407a1.969,1.969,0,0,0,.5-1.4q-.038-6.9-.051-13.794c-.005-1.8.008-3.6-.008-5.4a.681.681,0,0,1,.424-.717q3.2-1.639,6.371-3.329a.865.865,0,0,1,.911-.012c2.455,1.3,4.92,2.578,7.38,3.867.564.3.533.327.079.789a1.35,1.35,0,0,0-.332.85c-.031,1.672-.015,3.344-.015,5.017,0,4.635-.014,9.27.016,13.905a1.028,1.028,0,0,1-.782,1.172c-2.7,1.017-5.377,2.094-8.055,3.167a.93.93,0,0,1-.949-.091c-1.751-1.1-3.518-2.183-5.279-3.271-.168-.1-.33-.216-.532-.35m5.656-22.273c-.024.276-.045.4-.045.523q0,9.807.015,19.615a1.282,1.282,0,0,0,.377.844,12.734,12.734,0,0,0,3.918,2.512c.712.281.84.18.84-.6,0-6.484-.009-12.968.014-19.451a1.529,1.529,0,0,0-.75-1.459c-.984-.572-1.988-1.113-3.01-1.614a7.466,7.466,0,0,0-1.359-.366" transform="translate(-319.951 -78.002)" fill="#12263f"/>
          <path id="Trazado_190961" data-name="Trazado 190961" d="M1111.154,102.432a10.2,10.2,0,0,0,.235-1.493q-.008-4.443-.075-8.886a1.078,1.078,0,0,1,.776-1.231,23.789,23.789,0,0,0,5.893-3.132.854.854,0,0,1,1.276.133c1.311,1.309,2.642,2.6,3.979,3.88a8.55,8.55,0,0,0,1.063.849c.484.334.653.283.951-.219.251-.421.485-.853.75-1.265a.876.876,0,0,1,.459-.32,23.652,23.652,0,0,1-2.4,4.161c-.918,1.322-1.891,2.606-2.866,3.942,1.471.781,2.929,1.593,4.423,2.331a1.186,1.186,0,0,1,.765,1.283c-.051,3.343-.036,6.687-.021,10.031a.729.729,0,0,1-.5.775q-3.231,1.509-6.437,3.069a1.377,1.377,0,0,1-1.242.007c-1.655-.7-3.308-1.4-4.978-2.064a19.118,19.118,0,0,0-2.126-.669c-.642-.172-.973-.023-1.068.631a12.584,12.584,0,0,0-.015,2.215c.017.495.043.494-.353.758a7.74,7.74,0,0,1-.112-.93,9.087,9.087,0,0,1,1.794-5.658c1.166-1.531,2.37-3.034,3.537-4.565.713-.935.693-.956-.312-1.564-1.176-.712-2.35-1.429-3.4-2.07m10.26,10.848a2.237,2.237,0,0,0,.062-.294c0-2.435.026-4.87-.021-7.3a2.113,2.113,0,0,0-.513-1.21,5.929,5.929,0,0,0-2.624-1.693.707.707,0,0,0-.923.3c-1.175,1.593-2.375,3.166-3.558,4.753-.541.725-.568.927.194,1.444,1.272.864,2.588,1.672,3.937,2.409,1.092.6,2.26,1.053,3.447,1.6M1116.4,90.722l-.17.117c-.007.158-.022.316-.022.474,0,2.687.01,5.373-.01,8.06a1.467,1.467,0,0,0,.664,1.346,8.348,8.348,0,0,0,1.356.669.514.514,0,0,0,.461-.113c1.165-1.343,2.309-2.7,3.464-4.056.234-.273.215-.472-.052-.732q-2.162-2.111-4.289-4.256c-.484-.486-.935-1-1.4-1.508" transform="translate(-988.578 -77.927)" fill="#12263f"/>
          <path id="Trazado_190962" data-name="Trazado 190962" d="M945.685,109.986v-3.949l-4.6,3.97c-.611-.4-1.215-.8-1.816-1.193q-1.7-1.126-3.407-2.256c-.448-.3-.491-.64-.065-.933a.863.863,0,0,0,.373-.831c-.01-2.163,0-4.327-.012-6.49a.719.719,0,0,1,.442-.763c1.036-.521,2.046-1.093,3.158-1.694-.184-.13-.3-.225-.426-.3-2.388-1.378-3.3-3.1-2.892-5.8a18.583,18.583,0,0,1,4.381-9.229.907.907,0,0,1,1.144-.3c2.98,1.1,5.968,2.17,8.949,3.263.142.052.323.218.333.343s-.159.31-.293.368a.731.731,0,0,0-.459.778q.008,10.362,0,20.724c0,.521.224.674.66.541.562-.172,1.106-.4,1.654-.608.216.861.182.935-.621,1.314q-2.954,1.4-5.907,2.794c-.162.076-.33.14-.594.251m-.007-19.628c0-1.163-.019-2.327.01-3.49a.68.68,0,0,0-.519-.763c-1.627-.567-3.242-1.169-4.877-1.708-1.051-.346-1.295-.236-1.86.743a11.272,11.272,0,0,0-1.511,6.16,3.92,3.92,0,0,0,1.812,3.195,6.238,6.238,0,0,0,6.557.1.991.991,0,0,0,.372-.7c.038-1.18.017-2.362.017-3.544m0,9.873q0-2.1,0-4.2c0-.788-.147-.928-.9-.664a8.657,8.657,0,0,1-3.467.546c-.516-.034-.75.307-.86.746a18.4,18.4,0,0,0-.316,7.135,1.733,1.733,0,0,0,1.331,1.567,7.082,7.082,0,0,0,3.659-.085.71.71,0,0,0,.563-.8c-.023-1.416-.009-2.833-.009-4.25" transform="translate(-833.517 -71.396)" fill="#12263f"/>
          <path id="Trazado_190963" data-name="Trazado 190963" d="M539.743,50.709v4.769h.675q3.079,0,6.159,0c.608,0,.692.075.569.659-.194.923-.438,1.836-.646,2.756-.082.364-.333.362-.62.361-1.817-.005-3.634,0-5.451,0h-.649c-.012.236-.031.428-.031.619,0,5.744.007,11.488-.013,17.231a1.336,1.336,0,0,0,.656,1.217,6.344,6.344,0,0,0,5.021,1.068,3.247,3.247,0,0,1,.811-.084c.163.008.449.13.453.212.012.218-.028.555-.174.648-1.85,1.185-3.72,2.339-5.594,3.487a.509.509,0,0,1-.434,0q-3.315-1.883-6.615-3.792c-.042-.024-.069-.077-.171-.2.272-.166.515-.335.776-.469a.811.811,0,0,0,.486-.819q-.02-8.834,0-17.668a.584.584,0,0,0-.421-.645c-.557-.218-1.1-.48-1.645-.721-.7-.308-.8-.835-.252-1.417q2.454-2.63,4.911-5.258c.484-.518.954-1.05,1.458-1.547a3.558,3.558,0,0,1,.741-.414" transform="translate(-474.256 -45.181)" fill="#12263f"/>
          <path id="Trazado_190964" data-name="Trazado 190964" d="M807.823,112.33l-2.769,1.738c-1.491.937-2.987,1.868-4.47,2.817a.542.542,0,0,1-.757-.041q-2.373-1.962-4.782-3.879a.787.787,0,0,1-.3-.8c.106-1.263.246-2.529.253-3.795.029-4.98.02-9.96,0-14.939a8.959,8.959,0,0,0-.24-1.766.6.6,0,0,1,.34-.785c2.086-1.1,4.154-2.24,6.24-3.341a1.62,1.62,0,0,1,.826-.131c1.267.084,2.531.254,3.8.285a15.541,15.541,0,0,0,2.2-.265,4.606,4.606,0,0,1,.518-.007,2.208,2.208,0,0,1-.069.555c-.152.388-.364.753-.517,1.14-.293.739-.565,1.487-.842,2.233-.113.306-.189.628-.326.921-.238.507-.5.589-1.006.374-1.468-.622-2.933-1.252-4.408-1.859-1.308-.538-1.487-.409-1.487,1,0,6.052.007,12.1-.012,18.156a1.207,1.207,0,0,0,.634,1.213c.961.506,1.909,1.053,2.912,1.458a2.662,2.662,0,0,0,1.43-.015,12.08,12.08,0,0,0,1.867-.585.729.729,0,0,1,.963.316" transform="translate(-708.088 -77.878)" fill="#12263f"/>
          <path id="Trazado_190965" data-name="Trazado 190965" d="M682.434,87.463l3.545,2.72c.375.287.734.6,1.125.861a.45.45,0,0,1,.13.727,16.693,16.693,0,0,0-.984,1.566,2.748,2.748,0,0,0-.322,1.181c-.021,5.324-.01,10.648-.02,15.971a1.487,1.487,0,0,0,.581,1.28l1.784,1.378-4.344,3.607-4.141-3.99c.059-.082.073-.124.1-.134,1.205-.437,1.214-.449,1.214-1.7,0-5.469-.007-10.938.01-16.407a1.7,1.7,0,0,0-.592-1.391c-.452-.393-.895-.8-1.347-1.19-.243-.211-.31-.385-.058-.672,1.044-1.186,2.061-2.4,3.09-3.594a2.863,2.863,0,0,1,.231-.211" transform="translate(-604.935 -77.928)" fill="#12263f"/>
          <path id="Trazado_190966" data-name="Trazado 190966" d="M389.771,2.018,377.944,5.9l-.685-1.63,2.669-1.451c1.643-.894,3.289-1.781,4.924-2.69A.831.831,0,0,1,385.71.11c1.305.629,2.621,1.234,4.061,1.908" transform="translate(-336.131 0)" fill="#12263f"/>
          <path id="Trazado_190967" data-name="Trazado 190967" d="M711.027,18.3a1.646,1.646,0,0,0-2.578-.46c-.486.4-.873.916-1.323,1.362a6.792,6.792,0,0,1-.663.517c-.137-.281-.424-.588-.381-.838a5.486,5.486,0,0,1,.6-1.927,8.516,8.516,0,0,1,1.585-1.773,1.984,1.984,0,0,1,2.423-.158,2.478,2.478,0,0,1,.846,2.581,3.769,3.769,0,0,1-.511.7" transform="translate(-629.103 -13.085)" fill="#12263f"/>
        </g>
      </g>
    </g>
  </g>
</svg>
