<svg xmlns="http://www.w3.org/2000/svg" xmlns:xlink="http://www.w3.org/1999/xlink" width="589" height="255" viewBox="0 0 589 255">
  <defs>
    <clipPath id="clip-path">
      <rect id="Rectángulo_40357" data-name="Rectángulo 40357" width="551.999" height="192.206" fill="none"/>
    </clipPath>
  </defs>
  <g id="Grupo_125933" data-name="Grupo 125933" transform="translate(-524.285 -8150.5)">
    <g id="Grupo_125838" data-name="Grupo 125838" transform="translate(524.285 8182)">
      <path id="Trazado_190788" data-name="Trazado 190788" d="M139.261,137.282v0Z" fill="#fff"/>
      <line id="Línea_339" data-name="Línea 339" y2="65.439" transform="translate(139.261 71.842)" fill="none" stroke="#d9000d" stroke-linecap="square" stroke-miterlimit="10" stroke-width="4.5"/>
      <path id="Trazado_190789" data-name="Trazado 190789" d="M237.221,137.282v0Z" fill="#fff"/>
      <line id="Línea_340" data-name="Línea 340" y2="65.439" transform="translate(237.221 71.842)" fill="none" stroke="#d9000d" stroke-linecap="square" stroke-miterlimit="10" stroke-width="4.5"/>
      <line id="Línea_341" data-name="Línea 341" x1="71.24" y2="16.397" transform="translate(326.667 96.394)" fill="#fff"/>
      <line id="Línea_342" data-name="Línea 342" x1="71.24" y2="16.397" transform="translate(326.667 96.394)" fill="none" stroke="#d9000d" stroke-linecap="square" stroke-miterlimit="10" stroke-width="2.7"/>
      <line id="Línea_343" data-name="Línea 343" x2="36.028" y2="97.101" transform="translate(258.245 56.672)" fill="#fff"/>
      <line id="Línea_344" data-name="Línea 344" x2="36.028" y2="97.101" transform="translate(258.245 56.672)" fill="none" stroke="#d9000d" stroke-linecap="square" stroke-miterlimit="10" stroke-width="2.7"/>
      <path id="Trazado_190790" data-name="Trazado 190790" d="M.788,18.443h0Z" fill="#fff"/>
      <g id="Grupo_125831" data-name="Grupo 125831">
        <g id="Grupo_125830" data-name="Grupo 125830" clip-path="url(#clip-path)">
          <line id="Línea_345" data-name="Línea 345" x2="550.424" transform="translate(0.788 18.443)" fill="none" stroke="#858484" stroke-linecap="round" stroke-linejoin="round" stroke-width="1.575"/>
        </g>
      </g>
      <path id="Trazado_190791" data-name="Trazado 190791" d="M.788,69.143h0Z" fill="#fff"/>
      <g id="Grupo_125833" data-name="Grupo 125833">
        <g id="Grupo_125832" data-name="Grupo 125832" clip-path="url(#clip-path)">
          <line id="Línea_346" data-name="Línea 346" x2="550.424" transform="translate(0.788 69.142)" fill="none" stroke="#858484" stroke-linecap="round" stroke-linejoin="round" stroke-width="1.575"/>
        </g>
      </g>
      <path id="Trazado_190792" data-name="Trazado 190792" d="M.788,139.614h0Z" fill="#fff"/>
      <g id="Grupo_125835" data-name="Grupo 125835">
        <g id="Grupo_125834" data-name="Grupo 125834" clip-path="url(#clip-path)">
          <line id="Línea_347" data-name="Línea 347" x2="550.424" transform="translate(0.788 139.613)" fill="none" stroke="#858484" stroke-linecap="round" stroke-linejoin="round" stroke-width="1.575"/>
        </g>
      </g>
      <path id="Trazado_190793" data-name="Trazado 190793" d="M.788,191.213h0Z" fill="#fff"/>
      <g id="Grupo_125837" data-name="Grupo 125837">
        <g id="Grupo_125836" data-name="Grupo 125836" clip-path="url(#clip-path)">
          <line id="Línea_348" data-name="Línea 348" x2="550.424" transform="translate(0.788 191.213)" fill="none" stroke="#858484" stroke-linecap="round" stroke-linejoin="round" stroke-width="1.575"/>
          <path id="Trazado_190794" data-name="Trazado 190794" d="M143.234,140.181V137.1a67.193,67.193,0,0,0,6.681-1.6c2.7-.936,4.642-2.828,4.928-5.813.631-6.589,1.462-13.185,1.6-19.791q.63-29.32.71-58.651a123.866,123.866,0,0,0-1.4-16.537c-.906-6.815-3.3-9.164-10.06-10.749-2.762-.647-2.762-.647-2.1-3.971,1.523.089,3.091.287,4.654.254,9.8-.2,19.61-.332,29.405-.738,7.4-.307,14.733-.743,21.9,1.827,15.6,5.594,23.38,21.918,17.292,36.5-3.1,7.431-9.129,11.565-16.314,14.36a24.1,24.1,0,0,0-4.618,2.062c2.073.506,4.164.951,6.217,1.529A51.751,51.751,0,0,1,217.571,82.9c16.684,11.462,16.018,34.253,6.27,44.8-5.794,6.268-13.231,9.591-21.392,10.749a200.84,200.84,0,0,1-23,1.411c-10.726.278-21.461.231-32.192.32-1.247.011-2.495,0-4.02,0m26.2-37.526c0,2.265-.044,4.531.008,6.794.15,6.533.1,13.083.594,19.591.331,4.369,2.6,6.377,6.945,6.448a105.5,105.5,0,0,0,16.545-.576c8.451-1.2,15.719-4.861,19.839-12.913,8.212-16.053-.717-36.669-18.393-42.716-7.906-2.7-15.988-2.4-24.121-1.655-1.728.157-1.407,1.344-1.409,2.379q-.021,11.323-.008,22.648m.55-28.963c5.824-.544,11.817-.626,17.6-1.759,8.329-1.631,14.379-6.362,16.157-15.164a36.96,36.96,0,0,0,.73-8.732c-.632-15.62-13.518-26.291-28.987-24.163-3.548.488-4.5,1.119-4.634,4.707-.564,14.654-.925,29.316-1.351,43.976a5.853,5.853,0,0,0,.482,1.135" fill="#161615"/>
          <path id="Trazado_190795" data-name="Trazado 190795" d="M471.955,151.234a22.316,22.316,0,0,1-3.026-2.167,25.189,25.189,0,0,1-4.29-4.856c-2.968-5.082-2.335-7.35,2.894-9.882,4.135-2,8.494-3.541,12.753-5.284.918-.376,1.839-.745,3.483-1.41-1.748-.515-2.817-.835-3.889-1.145-25.788-7.442-25.505-34.5-12.574-48.332,10.649-11.388,27.788-14.1,40.121-6.252,1.887,1.2,5.26.036,7.946.021,4.492-.026,8.985-.008,14.14-.008-.837,3.152-1.527,6.043-2.446,8.86-.121.371-1.47.619-2.159.48-3.561-.723-7.092-1.591-11.324-2.567.6,1.478.8,2.086,1.089,2.65,8,15.76,3.994,30.8-11.164,39.944-6.8,4.1-14.179,7.216-21.256,10.854a37.129,37.129,0,0,0-5.544,3.432c-2.581,1.967-2.483,4.814.5,6.18a23.363,23.363,0,0,0,8.186,1.955c7.116.425,14.266.285,21.38.727a44.515,44.515,0,0,1,10.591,1.942c6.98,2.212,10.414,8.223,9.883,16.494-.43,6.683-3.642,11.962-8.526,16.285-8.48,7.5-18.718,10.959-29.717,12.433-6.52.874-13.052,1.042-19.455-.975-14.528-4.578-18.586-20.239-7.874-31.085,3.029-3.067,6.733-5.468,10.278-8.294m35.555-50.182c-.169-8.759-2.5-16.733-9.042-22.945-9.712-9.218-24.1-5.868-28.892,6.631a26.019,26.019,0,0,0,6.418,27.55,45.143,45.143,0,0,0,16.279,9.691,3.946,3.946,0,0,0,2.759-.316c8.526-4.194,12.751-11.043,12.478-20.611M490.357,184.77c2.113-.295,5.974-.59,9.719-1.413,6.451-1.418,12.565-3.716,17.12-8.847,5.729-6.453,3.17-16.432-4.971-18.89a34.252,34.252,0,0,0-8.419-1.054c-8.523-.351-17.053-.549-25.58-.788a4.577,4.577,0,0,0-1.723.2c-4.534,1.736-8.606,4.144-11.458,8.224-2.95,4.221-3.113,9.132,0,13.08a23.351,23.351,0,0,0,5.764,5.123c5.4,3.43,11.528,4.319,19.551,4.361" fill="#161615"/>
          <path id="Trazado_190796" data-name="Trazado 190796" d="M324.858,133.831c.719,2.154.356,3.427-2.05,4.151-6.247,1.878-12.4,4.057-18.618,6.048-3.14,1.005-3.841.652-4.384-2.7-.588-3.627-.821-7.311-1.244-11.3-.8.363-1.579.748-2.384,1.084-6.086,2.545-11.978,5.851-18.3,7.475-18.993,4.879-36.729-10.247-35.729-29.954.914-18.02,10.6-30.733,28.3-36.942,3.384-1.187,6.885-2.483,10.4-2.728,3.767-.262,7.63.564,11.425,1.1,2.549.358,5.053,1.035,7.734,1.6a8.517,8.517,0,0,0,.312-1.535c.026-11.824.169-23.649,0-35.47-.113-7.742-2.086-9.162-9.643-7.822-.641.114-1.291.182-1.942.272-.866-1.851-.271-2.737,1.439-3.567,7.228-3.509,14.363-7.209,21.577-10.746a3.672,3.672,0,0,1,2.5.071c.317.105.523,1.094.48,1.658-.838,11.035-2.133,22.053-2.508,33.1-.772,22.719-1.166,45.454-1.468,68.185a129.537,129.537,0,0,0,1.273,17.274c.437,3.588,1.207,3.9,4.653,3.058,2.748-.672,5.449-1.533,8.185-2.314M298.9,104.413h.476c0-5.624-.023-11.248.007-16.872.028-5.274-.5-6.443-5.558-8.1A123.492,123.492,0,0,0,280.2,76.1a22.672,22.672,0,0,0-24.152,10.651c-4.295,7.027-4.17,14.576-2.412,22.163,2.617,11.294,8.9,19.462,20.722,22.2,8.289,1.922,15.724-.561,22.759-4.865a3.262,3.262,0,0,0,1.819-3.2c-.069-6.211-.029-12.423-.029-18.635" fill="#161615"/>
          <path id="Trazado_190797" data-name="Trazado 190797" d="M136.561,136.382v3.026H100.218q-.045-.981-.11-2.384c1.553-.439,3-.774,4.392-1.255,4.412-1.52,5.8-3.657,4.394-8.034-2.9-9.007-6.238-17.871-9.148-26.873-.906-2.8-2.353-3.836-5.2-3.78-12.738.254-25.479.4-38.219.543a2.668,2.668,0,0,0-2.717,2.048c-2.966,7.477-6.036,14.913-9.018,22.385-3.4,8.517-1.319,12.286,7.707,14.1,1.063.213,2.129.414,3.2.61,2.3.423,2.412.6,2.008,2.883H22.756c-.382-1.431-.649-2.475,1.309-3.034a15.954,15.954,0,0,0,10.216-8.386c4.1-8.25,8.239-16.5,11.815-24.986,9.863-23.4,19.483-46.9,29.1-70.4,1.711-4.18,2.9-8.569,4.478-12.809A2.732,2.732,0,0,1,81.6,18.443a2.692,2.692,0,0,1,1.937,1.579c10.907,33.663,23.829,66.576,36.959,99.411,1.057,2.643,2.312,5.209,3.541,7.779,3.238,6.772,4.924,8.008,12.529,9.17M57.645,90.312c5.032,1.734,31.843,2.04,38.493.411Q86.589,67,77.109,43.45l-.982.071L57.645,90.312" fill="#161615"/>
          <path id="Trazado_190798" data-name="Trazado 190798" d="M440.907,135.6v3.737H400.864c-.054-1.157-.1-2.009-.138-2.927,1.493-.267,2.793-.494,4.091-.732,5.173-.95,7.272-3.067,7.842-8.3.364-3.328.569-6.686.616-10.033.173-12.082.268-24.165.35-36.247.029-4.341-.178-4.5-4.432-4.858-2.5-.208-5-.437-7.694-.673v-5.62h11.8c.5-5.9.764-11.5,1.487-17.046,1.005-7.706,2.834-15.274,7.743-21.524a50.118,50.118,0,0,1,31.917-18.909c5.317-.9,10.515.639,15.279,3.154,2.8,1.476,3.1,2.947,1.564,5.791a20.266,20.266,0,0,1-1.936,2.928,3.741,3.741,0,0,1-4.665,1.267,133.775,133.775,0,0,0-14.108-4.45c-9.328-2.13-16.34,1.75-19.9,10.646-2.843,7.092-3.66,14.611-4.309,22.133-.382,4.426-.478,8.877-.688,13.317-.038.814-.005,1.631-.005,2.75H436.7c3.692,0,7.39.125,11.074-.048,2.271-.106,3.294.543,2.946,2.913a21.516,21.516,0,0,0-.019,2.819H425.922a16.554,16.554,0,0,0-.317,2.183q.033,25.04.1,50.078c0,.419.033.838.057,1.257.32,5.565,1.06,6.294,6.653,6.384,2.754.045,5.511.008,8.491.008" fill="#161615"/>
          <path id="Trazado_190799" data-name="Trazado 190799" d="M344.9,101.625c.2,9.008,1.346,17.614,7.824,24.564,7.081,7.6,15.331,9.663,25.109,5.919,3.488-1.335,6.729-3.312,10.3-5.106l1.5,1.915c-9.744,6.986-19.76,12.761-32.246,11.295-8.806-1.033-15.025-5.923-19.462-13.507-8.363-14.3-7.573-42.138,15.074-54.8a22.419,22.419,0,0,1,26.052,3.3c2.8,2.776,4.7,6.452,7.149,9.61.961,1.238,2.392,2.1,3.464,3.266a4.248,4.248,0,0,1,1.164,2.33c.033.423-.924,1.215-1.542,1.352q-21.656,4.822-43.336,9.528c-.312.068-.611.195-1.048.337m.225-4.211c.468.138.637.25.773.219q14.389-3.281,28.771-6.586c1.874-.431,2.151-1.6,1.461-3.216-2.6-6.086-6.778-10.585-13.246-12.435-4.2-1.2-8.426-1.065-11.522,2.647-4.686,5.62-5.49,12.5-6.237,19.371" fill="#161615"/>
          <line id="Línea_349" data-name="Línea 349" y2="65.404" transform="translate(360.996 0.9)" fill="#fff"/>
          <line id="Línea_350" data-name="Línea 350" y2="55.836" transform="translate(360.996 0.9)" fill="none" stroke="#d9000d" stroke-linecap="square" stroke-miterlimit="10" stroke-width="1.8"/>
          <path id="Trazado_190800" data-name="Trazado 190800" d="M357.859,54.6,361,66.3,364.134,54.6Z" fill="#d9000d"/>
          <path id="Trazado_190801" data-name="Trazado 190801" d="M61.891,121.562l15.3,35.1,16.3-35.189" fill="none" stroke="#d9000d" stroke-linecap="square" stroke-miterlimit="10" stroke-width="1.8"/>
          <path id="Trazado_190802" data-name="Trazado 190802" d="M59.87,124.778l-1.8-11.987,7.554,9.48Z" fill="#d9000d"/>
          <path id="Trazado_190803" data-name="Trazado 190803" d="M95.438,124.733l2.075-11.942-7.769,9.3Z" fill="#d9000d"/>
        </g>
      </g>
    </g>
    <text id="Filete_inclinado_en_la_e_de_caja_baja" data-name="Filete inclinado en la &quot;e&quot; de caja baja" transform="translate(720.785 8150.5)" fill="#9b5003" font-size="18" font-family="MicrosoftSansSerif, Microsoft Sans Serif"><tspan x="-146.637" y="17">Filete inclinado en la &quot;e&quot; de caja baja</tspan></text>
    <text id="Pobre_contraste" data-name="Pobre contraste" transform="translate(527.285 8350.5)" fill="#9b5003" font-size="18" font-family="MicrosoftSansSerif, Microsoft Sans Serif"><tspan x="-63.426" y="17">Pobre contraste</tspan></text>
    <text id="Modulación_oblicua" data-name="Modulación oblicua" transform="translate(751.285 8350.5)" fill="#9b5003" font-size="18" font-family="MicrosoftSansSerif, Microsoft Sans Serif"><tspan x="-77.15" y="17">Modulación oblicua</tspan></text>
    <text id="Descendentes_largas" data-name="Descendentes largas" transform="translate(936.285 8384.5)" fill="#9b5003" font-size="18" font-family="MicrosoftSansSerif, Microsoft Sans Serif"><tspan x="-84.494" y="17">Descendentes largas</tspan></text>
    <text id="Espaciado_amplio" data-name="Espaciado amplio" transform="translate(631.285 8327.5)" fill="#9b5003" font-size="18" font-family="MicrosoftSansSerif, Microsoft Sans Serif"><tspan x="-71.09" y="17">Espaciado amplio</tspan></text>
  </g>
</svg>
