<svg xmlns="http://www.w3.org/2000/svg" xmlns:xlink="http://www.w3.org/1999/xlink" width="295" height="90" viewBox="0 0 295 90">
  <defs>
    <clipPath id="clip-path">
      <rect id="Rect치ngulo_40410" data-name="Rect치ngulo 40410" width="160.711" height="31.916" fill="#12263f"/>
    </clipPath>
  </defs>
  <g id="Grupo_126019" data-name="Grupo 126019" transform="translate(-1125.285 -10318)">
    <g id="Grupo_126018" data-name="Grupo 126018">
      <g id="Grupo_125959" data-name="Grupo 125959">
        <rect id="Rect치ngulo_40414" data-name="Rect치ngulo 40414" width="295" height="90" rx="16" transform="translate(1125.285 10318)" fill="#ffd1a2"/>
        <g id="Grupo_125955" data-name="Grupo 125955" transform="translate(1192.574 10346.845)">
          <g id="Grupo_125954" data-name="Grupo 125954" clip-path="url(#clip-path)">
            <path id="Trazado_190951" data-name="Trazado 190951" d="M14.609,39.479c.408-1.113.782-2.112,1.141-3.118q2.049-5.734,3.575-11.629c.305-1.178.488-2.389.789-3.568a13.441,13.441,0,0,1,.755-2.111,2.883,2.883,0,0,1,.724-.947,1.762,1.762,0,0,1,2.632.21,5.607,5.607,0,0,1,1.174,2.7c.38,2.189.7,4.39,1.017,6.59a102.27,102.27,0,0,0,3.267,15.018c.3,1,.518,2.023.741,3.042a1.929,1.929,0,0,1-1.18,2.289,1.845,1.845,0,0,1-2.38-.847,9.217,9.217,0,0,1-1.05-3.06C24.658,38.954,23.7,33.821,22.89,28.661c-.052-.329-.118-.655-.194-1.07a3.491,3.491,0,0,0-.158.334c-1.683,5.14-3.349,10.285-5.06,15.416a19.157,19.157,0,0,1-1.254,2.776,2.131,2.131,0,0,1-2.107,1.211A1.656,1.656,0,0,1,12.6,46.292a24.934,24.934,0,0,1-1.11-3.088c-.749-2.737-1.468-5.484-2.132-8.243-.523-2.173-.948-4.37-1.417-6.556a.654.654,0,0,0-.165-.345c-.12.608-.222,1.22-.363,1.823-.63,2.7-1.227,5.406-1.923,8.087-.536,2.065-.873,4.164-1.267,6.254-.122.644-.25,1.29-.422,1.922a1.931,1.931,0,0,1-1.488,1.573A1.865,1.865,0,0,1,0,45.738a22.339,22.339,0,0,1,.435-4.147c.745-3.22,1.677-6.4,2.454-9.608.516-2.131.909-4.293,1.331-6.446a28.538,28.538,0,0,1,1.436-5.467,5.286,5.286,0,0,1,.837-1.4,1.864,1.864,0,0,1,3.262.378,13.112,13.112,0,0,1,.927,2.936c.6,2.965,1.068,5.959,1.713,8.914C13,33.662,13.771,36.4,14.47,39.148a3.216,3.216,0,0,0,.139.332" transform="translate(0 -16.196)" fill="#12263f"/>
            <path id="Trazado_190952" data-name="Trazado 190952" d="M1544.831,146.326a6.857,6.857,0,0,0,4.612,2.962,10.661,10.661,0,0,0,6.225-.923,3.334,3.334,0,0,0,1.436-1.187c.593-.855,1.22-1.066,1.977-.714a1.728,1.728,0,0,1,.934,2.115,3.48,3.48,0,0,1-1.505,1.967,13.542,13.542,0,0,1-12.018,1.477,7.649,7.649,0,0,1-5.143-6.908,14.116,14.116,0,0,1,1.235-7.328,9.157,9.157,0,0,1,4.919-4.942,8.938,8.938,0,0,1,3.748-.539,10.6,10.6,0,0,1,4.243.936,4.325,4.325,0,0,1,2.628,3.709,3.755,3.755,0,0,1-1.293,3.113,12.1,12.1,0,0,1-3.29,2.056c-2.792,1.358-5.6,2.691-8.394,4.036-.094.045-.184.1-.313.17m-.352-3.5c.408-.193.709-.328,1-.475,2.562-1.279,5.131-2.545,7.678-3.852.683-.35,1.3-.829,1.994-1.279-.234-.183-.386-.312-.549-.427a6.741,6.741,0,0,0-4.04-1.1,4.787,4.787,0,0,0-3.614,1.569,9.013,9.013,0,0,0-1.919,3.537c-.2.633-.351,1.281-.554,2.029" transform="translate(-1417.304 -121.649)" fill="#12263f"/>
            <path id="Trazado_190953" data-name="Trazado 190953" d="M422.065,151.048c-.694.325-1.471.68-2.242,1.05a8.687,8.687,0,0,1-7.063.191,5.9,5.9,0,0,1-3.655-3.869,13.227,13.227,0,0,1-.042-9.142,10.465,10.465,0,0,1,8.113-6.869,9.067,9.067,0,0,1,6.917,1.508,3.639,3.639,0,0,1,.964,1.1,1.29,1.29,0,0,1,.01,1.235,4.244,4.244,0,0,0-.4,1.234,40.79,40.79,0,0,0-.1,8.306,17.576,17.576,0,0,0,1.475,4.614,4.963,4.963,0,0,0,.255.546,1.3,1.3,0,0,1-.141,1.5,1.6,1.6,0,0,1-1.456.7,1.281,1.281,0,0,1-.672-.327c-.655-.566-1.284-1.162-1.957-1.778m-10.1-7.35c.155.961.235,1.942.482,2.879a3.653,3.653,0,0,0,3.125,3,6.331,6.331,0,0,0,5.645-1.87.6.6,0,0,0,.125-.426c-.085-.987-.193-1.972-.288-2.958a26.537,26.537,0,0,1,.086-7.684c.053-.27-.046-.374-.259-.493a4.272,4.272,0,0,0-3.682-.2,8.212,8.212,0,0,0-5.235,7.753" transform="translate(-375.424 -121.606)" fill="#12263f"/>
            <path id="Trazado_190954" data-name="Trazado 190954" d="M1169.1,151c-.911.407-1.87.887-2.865,1.271a8.274,8.274,0,0,1-7.928-.876,6.083,6.083,0,0,1-2.406-3.741,13.57,13.57,0,0,1-.063-7.7,10.547,10.547,0,0,1,8.384-7.612,8.992,8.992,0,0,1,6.881,1.494,3.425,3.425,0,0,1,.955,1.055,1.376,1.376,0,0,1-.069,1.483,2.717,2.717,0,0,0-.3,1.061,46.838,46.838,0,0,0-.167,7.748,12.939,12.939,0,0,0,1.025,3.867c.252.634.526,1.26.8,1.885a1.423,1.423,0,0,1-.452,1.754,1.32,1.32,0,0,1-1.794.111c-.666-.575-1.307-1.178-2-1.8m-5.36-1.419a6.126,6.126,0,0,0,4.382-1.809.674.674,0,0,0,.253-.622c-.126-1.2-.231-2.4-.353-3.6a24.186,24.186,0,0,1,.142-7,.342.342,0,0,0-.21-.436,4.089,4.089,0,0,0-3.254-.374,7.58,7.58,0,0,0-5.01,4.574,9.263,9.263,0,0,0-.251,6.109c.53,2.125,1.92,3.171,4.3,3.16" transform="translate(-1062.37 -121.547)" fill="#12263f"/>
            <path id="Trazado_190955" data-name="Trazado 190955" d="M676.79,126.08c.681-.729,1.256-1.4,1.889-2.01a7.231,7.231,0,0,1,3.475-1.993c2.278-.5,4.415.266,5.351,2.452a9.154,9.154,0,0,1,.716,2.618,36.583,36.583,0,0,1,.2,4.732,37.289,37.289,0,0,0,.5,6.559,28.872,28.872,0,0,1,.276,3.238,1.869,1.869,0,0,1-3.414.945,3,3,0,0,1-.275-.957c-.233-1.873-.524-3.744-.641-5.626-.113-1.814-.066-3.64-.036-5.46a11.938,11.938,0,0,0-.324-3.664c-.312-1.042-.867-1.313-1.925-1.063a5.943,5.943,0,0,0-3.315,2.461,13.809,13.809,0,0,0-2.624,5.682,15.494,15.494,0,0,0-.258,4.8c.085.745.132,1.5.155,2.245a1.765,1.765,0,0,1-1.409,1.887,1.8,1.8,0,0,1-2.145-1.058,2.863,2.863,0,0,1-.134-.706,44.126,44.126,0,0,1,.055-9.268,53.98,53.98,0,0,0,.1-8.312,1.8,1.8,0,0,1,2-2.053,1.5,1.5,0,0,1,1.48,1.09,6.691,6.691,0,0,1,.283,1.569c.047.6.011,1.2.011,1.891" transform="translate(-618.53 -111.752)" fill="#12263f"/>
            <path id="Trazado_190956" data-name="Trazado 190956" d="M1806.624,113.961c-1.664.544-3.3,1.016-4.878,1.623a6.524,6.524,0,0,0-1.812,1.224,3.139,3.139,0,0,0-.619,1.055c-.152.32-.036.512.339.579.776.139,1.549.3,2.317.475a14.757,14.757,0,0,1,5.152,2.047,6.529,6.529,0,0,1,2.39,7.589,5.252,5.252,0,0,1-3.052,2.92,12.775,12.775,0,0,1-7.849.548,14.206,14.206,0,0,1-2.894-1.045,2.685,2.685,0,0,1-1.675-2.068,1.923,1.923,0,0,1,1.86-2.158,1.538,1.538,0,0,1,.94.379,5.478,5.478,0,0,0,3.135,1.3,9.676,9.676,0,0,0,4.683-.307c1.453-.491,1.9-1.447,1.215-2.976a3.493,3.493,0,0,0-2.3-1.824c-1.017-.322-2.075-.515-3.108-.792a20.68,20.68,0,0,1-2.492-.754,3.718,3.718,0,0,1-2.416-3.875,5.675,5.675,0,0,1,3.778-5.42c1.342-.557,2.756-.94,4.136-1.4.963-.324,1.916-.682,2.889-.969a8.175,8.175,0,0,1,1.872-.361,1.683,1.683,0,0,1,1.69,1.479c.155.991.321,1.981.448,2.976a3.514,3.514,0,0,1-.01,1.158,1.873,1.873,0,0,1-2.783,1.134,1.82,1.82,0,0,1-.71-1.258c-.094-.389-.156-.785-.251-1.274" transform="translate(-1649.71 -100.917)" fill="#12263f"/>
            <path id="Trazado_190957" data-name="Trazado 190957" d="M932.115,147.132a11.111,11.111,0,0,1-3.57,1.062,9.8,9.8,0,0,1-4.76-.362,4.94,4.94,0,0,1-3.316-4.179,51.058,51.058,0,0,1-.7-9.286,54.351,54.351,0,0,1,.627-5.662c.154-1.074.9-1.518,2.027-1.393a1.724,1.724,0,0,1,1.586,1.807c-.081,1.227-.257,2.448-.409,3.67a31.386,31.386,0,0,0-.005,6.3c.114,1.476.406,2.938.644,4.4a.714.714,0,0,0,.343.438,4.5,4.5,0,0,0,2.116.552,19.877,19.877,0,0,0,5.115-.732c.273-.072.239-.238.237-.421-.021-2.077-.094-4.156-.053-6.232.049-2.544.191-5.086.3-7.628a3.849,3.849,0,0,1,.1-.675,1.714,1.714,0,0,1,2.071-1.38,1.763,1.763,0,0,1,1.575,1.866c-.1,2.2-.235,4.39-.3,6.586-.054,1.714-.057,3.43-.033,5.145.029,1.969.111,3.937.174,5.906a1.82,1.82,0,0,1-1.392,1.911,1.72,1.72,0,0,1-2.143-1.093c-.079-.181-.143-.368-.233-.6" transform="translate(-845.764 -117.051)" fill="#12263f"/>
            <path id="Trazado_190958" data-name="Trazado 190958" d="M1431.178,15.5q.1-6.735.207-13.47c0-.174,0-.349.023-.522a1.531,1.531,0,0,1,1.54-1.5,3.228,3.228,0,0,1,.362-.01,1.628,1.628,0,0,1,1.786,1.814c-.006,1.809-.048,3.619-.077,5.428-.051,3.27-.079,6.541-.162,9.811-.1,4.046-.246,8.092-.386,12.137a1.813,1.813,0,0,1-2.385,1.9,1.469,1.469,0,0,1-1.242-1.206,3.165,3.165,0,0,1-.074-.717q.126-4.24.267-8.48.085-2.592.177-5.184h-.036" transform="translate(-1315.674 -0.001)" fill="#12263f"/>
          </g>
        </g>
      </g>
    </g>
  </g>
</svg>
