<svg xmlns="http://www.w3.org/2000/svg" xmlns:xlink="http://www.w3.org/1999/xlink" width="208" height="208" viewBox="0 0 208 208">
  <defs>
    <filter id="Elipse_4258" x="0" y="0" width="208" height="208" filterUnits="userSpaceOnUse">
      <feOffset dx="-6" dy="6" input="SourceAlpha"/>
      <feGaussianBlur stdDeviation="3" result="blur"/>
      <feFlood flood-opacity="0.161"/>
      <feComposite operator="in" in2="blur"/>
      <feComposite in="SourceGraphic"/>
    </filter>
  </defs>
  <g id="Grupo_126000" data-name="Grupo 126000" transform="translate(-270.285 -11783)">
    <g transform="matrix(1, 0, 0, 1, 270.29, 11783)" filter="url(#Elipse_4258)">
      <g id="Elipse_4258-2" data-name="Elipse 4258" transform="translate(15 3)" fill="#fff" stroke="#26ccda" stroke-width="6">
        <circle cx="95" cy="95" r="95" stroke="none"/>
        <circle cx="95" cy="95" r="92" fill="none"/>
      </g>
    </g>
    <g id="Grupo_125999" data-name="Grupo 125999" transform="translate(14280.57 18225)">
      <path id="Trazado_191012" data-name="Trazado 191012" d="M457.883,12.391v67.07a2.9,2.9,0,0,1-2.9,2.9H446.73a2.9,2.9,0,0,0,2.9-2.9V12.391a2.9,2.9,0,0,0-2.9-2.9h8.257a2.9,2.9,0,0,1,2.9,2.9Z" transform="translate(-14309.769 -6401.047)" fill="#d8d8d8"/>
      <path id="Trazado_191013" data-name="Trazado 191013" d="M103.452,21.663V12.39a2.9,2.9,0,0,0-2.9-2.9H10.4a2.9,2.9,0,0,0-2.9,2.9v9.273Z" transform="translate(-13955.337 -6401.046)" fill="#eef4f5"/>
      <path id="Trazado_191014" data-name="Trazado 191014" d="M216.69,9.494H151.419V21.663h68.166V12.39A2.9,2.9,0,0,0,216.69,9.494Z" transform="translate(-14071.471 -6401.046)" fill="#ffac57"/>
      <path id="Trazado_191015" data-name="Trazado 191015" d="M457.883,12.391v9.273h-8.257V12.391a2.9,2.9,0,0,0-2.9-2.9h8.257A2.9,2.9,0,0,1,457.883,12.391Z" transform="translate(-14309.769 -6401.047)" fill="#ee7900" opacity="0.61"/>
      <g id="Grupo_125978" data-name="Grupo 125978" transform="translate(-13900.578 -6358.302)">
        <path id="Trazado_191016" data-name="Trazado 191016" d="M270.3,195.325V184.838a3.119,3.119,0,0,0-5.8-1.589,9,9,0,1,0,1.065,16.341c.085.095.173.188.265.279a5.847,5.847,0,0,0,4.122,1.685h.122a3.121,3.121,0,0,0,.23-6.228Zm-9-.9a2.762,2.762,0,1,1,2.762-2.762A2.765,2.765,0,0,1,261.295,194.426Z" transform="translate(-252.291 -181.717)" fill="#45eefc"/>
      </g>
      <g id="Grupo_125979" data-name="Grupo 125979" transform="translate(-13938.425 -6371.669)">
        <path id="Trazado_191017" data-name="Trazado 191017" d="M92.984,149.482l-13.745-34.94a3.2,3.2,0,0,0-2.559-2.038,3.121,3.121,0,0,0-3.282,1.956L59.62,149.482a2.009,2.009,0,0,1-1.233,1.174,3.117,3.117,0,0,0-2.129,3.161,3.176,3.176,0,0,0,3.2,2.918h6.824a3.179,3.179,0,0,0,3.205-2.97,3.121,3.121,0,0,0-3.117-3.272H65.93l3.271-8.315H83.4l3.271,8.315h-.35a3.179,3.179,0,0,0-3.205,2.97,3.121,3.121,0,0,0,3.117,3.272h6.912a3.176,3.176,0,0,0,3.2-2.918,3.117,3.117,0,0,0-2.129-3.161A2.008,2.008,0,0,1,92.984,149.482ZM71.656,135.937l4.646-11.81,4.646,11.81Z" transform="translate(-56.252 -112.481)" fill="#45eefc"/>
      </g>
      <g id="Grupo_125989" data-name="Grupo 125989" transform="translate(-13915.813 -6351.429)">
        <g id="Grupo_125988" data-name="Grupo 125988">
          <g id="Grupo_125987" data-name="Grupo 125987">
            <g id="Grupo_125980" data-name="Grupo 125980" transform="translate(41.562 41.58)">
              <path id="Trazado_191018" data-name="Trazado 191018" d="M0,0H6.327V12.736H0Z" transform="translate(0 4.473) rotate(-45)" fill="#557983"/>
              <path id="Trazado_191019" data-name="Trazado 191019" d="M397.218,436.693a9.289,9.289,0,0,1-1.846,2.627,9.393,9.393,0,0,1-2.623,1.851l-4-4,4.473-4.473Z" transform="translate(-388.727 -432.693)" fill="#3f5959"/>
            </g>
            <g id="Grupo_125981" data-name="Grupo 125981" transform="translate(34.308 34.309)">
              <path id="Trazado_191020" data-name="Trazado 191020" d="M361.992,405.937a5.141,5.141,0,0,1-7.271,0l-3.635-3.635,7.271-7.271,3.635,3.635A5.141,5.141,0,0,1,361.992,405.937Z" transform="translate(-351.085 -395.031)" fill="#ffac57"/>
              <path id="Trazado_191021" data-name="Trazado 191021" d="M362.826,399.765a27.79,27.79,0,0,1-7.007,7.007,5.058,5.058,0,0,1-1.1-.838l-3.636-3.634,7.272-7.272,3.636,3.636A5.1,5.1,0,0,1,362.826,399.765Z" transform="translate(-351.081 -395.029)" fill="#ffac57"/>
            </g>
            <g id="Grupo_125986" data-name="Grupo 125986">
              <circle id="Elipse_5501" data-name="Elipse 5501" cx="23.362" cy="23.362" r="23.362" transform="translate(0 0.001)" fill="#fff3bf"/>
              <path id="Trazado_191022" data-name="Trazado 191022" d="M301.729,240.682a23.38,23.38,0,0,1-27.194,23.048,23.367,23.367,0,0,0,0-46.1,23.381,23.381,0,0,1,27.194,23.05Z" transform="translate(-255.005 -217.319)" fill="#ffe881"/>
              <g id="Grupo_125985" data-name="Grupo 125985" transform="translate(6.744 6.885)">
                <path id="Trazado_191038" data-name="Trazado 191038" d="M16.478,0A16.478,16.478,0,1,1,0,16.478,16.478,16.478,0,0,1,16.478,0Z" fill="#fff"/>
                <g id="Grupo_125983" data-name="Grupo 125983" transform="translate(0 6.024)">
                  <g id="Grupo_125982" data-name="Grupo 125982">
                    <path id="Trazado_191023" data-name="Trazado 191023" d="M217.843,296.795a2.16,2.16,0,0,1-1.328-1.265l-4.466-11.348a16.478,16.478,0,0,0-1.249,19.163h5.892a3.42,3.42,0,0,0,3.444-3.143A3.36,3.36,0,0,0,217.843,296.795Zm-7.043,6.551h5.892a3.42,3.42,0,0,0,3.444-3.143,3.36,3.36,0,0,0-2.294-3.408,2.16,2.16,0,0,1-1.328-1.265l-4.466-11.348" transform="translate(-208.31 -284.182)" fill="#b1f9ff"/>
                  </g>
                </g>
                <path id="Trazado_191024" data-name="Trazado 191024" d="M295.4,269.459a16.489,16.489,0,0,1-20,16.1,16.482,16.482,0,0,0,0-32.2,16.489,16.489,0,0,1,20,16.1Z" transform="translate(-262.447 -252.98)" fill="#e7e7e7"/>
                <g id="Grupo_125984" data-name="Grupo 125984" transform="translate(9.406 0.001)">
                  <path id="Trazado_191025" data-name="Trazado 191025" d="M269.048,253.739a2.975,2.975,0,1,1-3.794-.716q-.571-.041-1.153-.041a16.394,16.394,0,0,0-7.014,1.564,9.7,9.7,0,0,0,14.24,9.6c.093.1.187.2.286.3a6.3,6.3,0,0,0,4.44,1.815c.044,0,.089,0,.131,0a3.364,3.364,0,0,0,3.255-2.834,16.514,16.514,0,0,0-10.393-9.688Z" transform="translate(-257.03 -252.982)" fill="#b1f9ff"/>
                </g>
              </g>
            </g>
          </g>
        </g>
      </g>
      <path id="Trazado_191026" data-name="Trazado 191026" d="M277.839,119.365H242.97a1.931,1.931,0,0,1-1.931-1.931v-2.669a1.931,1.931,0,0,1,1.931-1.931h34.87a1.931,1.931,0,0,1,1.931,1.931v2.669A1.931,1.931,0,0,1,277.839,119.365Z" transform="translate(-14143.789 -6484.436)" fill="#d9ecfd"/>
      <path id="Trazado_191027" data-name="Trazado 191027" d="M408.477,114.763v2.67a1.93,1.93,0,0,1-1.931,1.931H400.54a1.931,1.931,0,0,0,1.931-1.931v-2.67a1.931,1.931,0,0,0-1.931-1.931h6.006A1.93,1.93,0,0,1,408.477,114.763Z" transform="translate(-14272.496 -6484.433)" fill="#b5dbfd"/>
      <g id="Grupo_125995" data-name="Grupo 125995" transform="translate(-13949.285 -6393)">
        <path id="Trazado_191028" data-name="Trazado 191028" d="M46.928,36.4h.02a1.448,1.448,0,0,0,0-2.9h-.02a1.448,1.448,0,0,0,0,2.9Z" transform="translate(-36.7 -27.424)"/>
        <path id="Trazado_191029" data-name="Trazado 191029" d="M73.025,36.4h.02a1.448,1.448,0,0,0,0-2.9h-.02a1.448,1.448,0,1,0,0,2.9Z" transform="translate(-57.758 -27.424)"/>
        <path id="Trazado_191030" data-name="Trazado 191030" d="M99.122,36.4h.02a1.448,1.448,0,0,0,0-2.9h-.02a1.448,1.448,0,1,0,0,2.9Z" transform="translate(-78.817 -27.424)"/>
        <path id="Trazado_191031" data-name="Trazado 191031" d="M81.638,85.209a6.7,6.7,0,0,0-1.928-4.724L78.4,79.177q.4-.7.753-1.427H94.5a4.349,4.349,0,0,0,4.344-4.344V6.336A4.349,4.349,0,0,0,94.5,1.992H74.319a1.448,1.448,0,0,0,0,2.9H94.5a1.45,1.45,0,0,1,1.448,1.448v7.825H30.681V4.888H67.17a1.448,1.448,0,1,0,0-2.9H4.344A4.349,4.349,0,0,0,0,6.336v67.07a4.349,4.349,0,0,0,4.344,4.344H34.5A24.811,24.811,0,0,0,69.084,88.494L70.392,89.8a6.7,6.7,0,0,0,4.727,1.928l7.915,7.915A1.448,1.448,0,0,0,85.081,97.6l-6.743-6.743a6.62,6.62,0,0,0,2.425-2.426l6.743,6.743a1.448,1.448,0,0,0,2.048-2.048ZM4.344,4.888H27.785v9.273H2.9V6.336A1.45,1.45,0,0,1,4.344,4.888ZM41.339,82.421a21.914,21.914,0,1,1,15.5,6.418,21.771,21.771,0,0,1-15.5-6.418ZM65.266,43.592a24.859,24.859,0,0,0-14.037-.838A7.552,7.552,0,0,1,60.4,39.575a1.448,1.448,0,0,0,1.759-.613,1.671,1.671,0,0,1,3.111.849v3.782Zm12.4,38.94a3.693,3.693,0,0,1-5.222,5.224l-.877-.878a25.024,25.024,0,0,0,5.223-5.222ZM94.5,74.854H80.345a24.812,24.812,0,0,0-12.183-30V39.811a4.564,4.564,0,0,0-7.751-3.271,10.45,10.45,0,0,0-12.783,7.348A24.751,24.751,0,0,0,43.514,46L35.195,24.852a4.635,4.635,0,0,0-3.734-2.943,4.573,4.573,0,0,0-4.8,2.863L22.505,35.331a1.448,1.448,0,0,0,2.695,1.06l4.153-10.559a1.675,1.675,0,0,1,1.762-1.048A1.768,1.768,0,0,1,32.5,25.914l8.594,21.849a25.019,25.019,0,0,0-3.734,3.809H23.809a1.448,1.448,0,0,0-1.347.918l-3.27,8.315a1.448,1.448,0,0,0,1.347,1.978h.438a1.672,1.672,0,0,1,1.67,1.758,1.735,1.735,0,0,1-1.758,1.588H14.065a1.721,1.721,0,0,1-1.754-1.561,1.676,1.676,0,0,1,1.139-1.7,3.446,3.446,0,0,0,2.126-2.018L22.6,43a1.448,1.448,0,1,0-2.695-1.06l-7.021,17.85a.559.559,0,0,1-.343.33,4.575,4.575,0,0,0-3.118,4.629,4.622,4.622,0,0,0,4.644,4.272h6.823a4.6,4.6,0,0,0,4.651-4.349A4.532,4.532,0,0,0,24.282,61.3a4.579,4.579,0,0,0-1.729-1.133l2.243-5.7H35.386a24.864,24.864,0,0,0-2.073,20.385H4.344A1.45,1.45,0,0,1,2.9,73.406V17.057H95.952V73.406A1.45,1.45,0,0,1,94.5,74.854Z" transform="translate(0 -1.992)"/>
        <path id="Trazado_191032" data-name="Trazado 191032" d="M129.988,180.009h9.292a1.448,1.448,0,0,0,1.347-1.978l-4.646-11.81a1.448,1.448,0,0,0-2.695,0l-4.646,11.81a1.448,1.448,0,0,0,1.347,1.978Zm4.646-9.3,2.521,6.407h-5.041Z" transform="translate(-103.724 -133.774)"/>
        <path id="Trazado_191033" data-name="Trazado 191033" d="M218.736,245.479a17.926,17.926,0,1,0,9.59,33.068,1.448,1.448,0,1,0-1.552-2.445,15.008,15.008,0,0,1-19.1-2.539h2.971a4.81,4.81,0,0,0,1.6-9.374.717.717,0,0,1-.435-.42l-4.143-10.529c.144-.156.29-.312.441-.463a15.185,15.185,0,0,1,2.2-1.819,11.144,11.144,0,0,0,15.37,8.874,7.74,7.74,0,0,0,5.01,1.825c.06,0,.119,0,.177,0a4.8,4.8,0,0,0,2.663-.891A14.968,14.968,0,0,1,231.4,271.5a1.448,1.448,0,0,0,2.438,1.562,17.922,17.922,0,0,0-15.1-27.583Zm-9.621,19.348a3.591,3.591,0,0,0,2.218,2.11,1.92,1.92,0,0,1,1.306,1.943,1.963,1.963,0,0,1-2,1.786h-5.058a15.019,15.019,0,0,1,.064-14.653Zm13.779-15.276a1.528,1.528,0,1,1-2.592-1.094,14.932,14.932,0,0,1,2.456.469A1.516,1.516,0,0,1,222.894,249.551Zm7.9,9.207h-.1a4.859,4.859,0,0,1-3.416-1.39c-.082-.082-.16-.165-.237-.25a1.448,1.448,0,0,0-1.761-.3,8.25,8.25,0,0,1-12.162-7.267c0-.031,0-.061,0-.092a14.92,14.92,0,0,1,3.962-.992,4.423,4.423,0,1,0,8.675,1.651,15.122,15.122,0,0,1,6.8,7.378,1.926,1.926,0,0,1-1.763,1.262Z" transform="translate(-162.041 -198.471)"/>
        <path id="Trazado_191034" data-name="Trazado 191034" d="M417.017,175.28h-4.446a1.448,1.448,0,1,0,0,2.9h4.446a1.448,1.448,0,1,0,0-2.9Z" transform="translate(-331.751 -141.825)"/>
        <path id="Trazado_191035" data-name="Trazado 191035" d="M417.017,201.5h-4.446a1.448,1.448,0,0,0,0,2.9h4.446a1.448,1.448,0,0,0,0-2.9Z" transform="translate(-331.751 -162.982)"/>
        <path id="Trazado_191036" data-name="Trazado 191036" d="M417.017,227.719h-4.446a1.448,1.448,0,1,0,0,2.9h4.446a1.448,1.448,0,1,0,0-2.9Z" transform="translate(-331.751 -184.14)"/>
        <path id="Trazado_191037" data-name="Trazado 191037" d="M271.788,105.334h-34.87a3.383,3.383,0,0,0-3.379,3.379v2.669a3.383,3.383,0,0,0,3.379,3.379h34.87a3.383,3.383,0,0,0,3.379-3.379v-2.669A3.383,3.383,0,0,0,271.788,105.334Zm.483,6.048a.483.483,0,0,1-.483.483h-34.87a.483.483,0,0,1-.483-.483v-2.669a.483.483,0,0,1,.483-.483h34.87a.483.483,0,0,1,.483.483Z" transform="translate(-188.452 -85.383)"/>
      </g>
    </g>
  </g>
</svg>
