<svg xmlns="http://www.w3.org/2000/svg" width="98.283" height="122.867" viewBox="0 0 98.283 122.867">
  <g id="typography" transform="translate(-51.222)">
    <path id="Trazado_190393" data-name="Trazado 190393" d="M110.419,79.111v-57.9a1.206,1.206,0,0,1,1.206-1.206h16.664a1.206,1.206,0,0,1,1.206,1.206V31.3A1.206,1.206,0,0,0,130.7,32.5h10.227a1.206,1.206,0,0,0,1.206-1.206V8.717a1.206,1.206,0,0,0-1.206-1.206H59.939a1.206,1.206,0,0,0-1.206,1.206V31.3A1.206,1.206,0,0,0,59.939,32.5H70.166A1.206,1.206,0,0,0,71.372,31.3V21.212a1.206,1.206,0,0,1,1.206-1.206H89.241a1.206,1.206,0,0,1,1.206,1.206v87.274a1.206,1.206,0,0,1-.466.952l-5.53,4.3a1.206,1.206,0,0,1-.74.254H76.2a1.206,1.206,0,0,0-1.206,1.206v10.368a1.206,1.206,0,0,0,1.206,1.206h48.471a1.206,1.206,0,0,0,1.206-1.206V115.2a1.206,1.206,0,0,0-1.206-1.206h-7.513a1.2,1.2,0,0,1-.74-.254l-5.53-4.3a1.206,1.206,0,0,1-.466-.952V79.111" transform="translate(-5.709 -5.709)" fill="#63cff1"/>
    <g id="Grupo_124885" data-name="Grupo 124885" transform="translate(98.892 1.802)">
      <path id="Trazado_190394" data-name="Trazado 190394" d="M256.153,149.012l5.855,4.555h-3.663a6.279,6.279,0,0,1-3.855-1.323l-2.106-1.638a6.515,6.515,0,0,1-2.515-5.146l.046-84.675a1.206,1.206,0,0,1,1.206-1.205h3.408a1.206,1.206,0,0,1,1.206,1.207l-.047,87.273A1.207,1.207,0,0,0,256.153,149.012Z" transform="translate(-249.869 -47.085)" fill="#33bddd"/>
      <path id="Trazado_190395" data-name="Trazado 190395" d="M314.264,451.233h4.614a1.206,1.206,0,0,1,1.206,1.206v10.368a1.206,1.206,0,0,1-1.206,1.206H315.47a1.206,1.206,0,0,1-1.206-1.206V451.233Z" transform="translate(-298.811 -344.751)" fill="#33bddd"/>
      <path id="Trazado_190396" data-name="Trazado 190396" d="M387.841,8.717V31.3a1.206,1.206,0,0,1-1.206,1.206h-4.614V7.511h4.614A1.206,1.206,0,0,1,387.841,8.717Z" transform="translate(-350.308 -7.511)" fill="#33bddd"/>
    </g>
    <path id="Trazado_190397" data-name="Trazado 190397" d="M364.488,382.324l-10.743,10.743a1.2,1.2,0,0,1-1.7,0l-3.147-3.147a1.2,1.2,0,0,1,0-1.7l10.743-10.744a1.2,1.2,0,0,1,1.7,0l3.147,3.147A1.2,1.2,0,0,1,364.488,382.324Z" transform="translate(-225.976 -286.628)" fill="#e6eaee"/>
    <path id="Trazado_190398" data-name="Trazado 190398" d="M385.3,376.846l3.593,3.593a.885.885,0,0,1,0,1.251l-3.681,3.681a.885.885,0,0,0,0-1.251l-3.593-3.593a.885.885,0,0,0-1.251,0l3.681-3.681A.885.885,0,0,1,385.3,376.846Z" transform="translate(-250.162 -286.216)" fill="#cdd3d9"/>
    <path id="Trazado_190399" data-name="Trazado 190399" d="M274.081,303.74,279,322.506a7.367,7.367,0,0,0,6.541,5.475l2.021.161a7.9,7.9,0,0,1,4.96,2.289l.465.465,9.329-9.329-.465-.465a7.9,7.9,0,0,1-2.289-4.96l-.161-2.021a7.367,7.367,0,0,0-5.475-6.541l-18.766-4.921A.884.884,0,0,0,274.081,303.74Z" transform="translate(-169.355 -230.007)" fill="#ffd071"/>
    <path id="Trazado_190400" data-name="Trazado 190400" d="M299.4,314.123l.162,2.021a7.9,7.9,0,0,0,2.288,4.959l.465.465L299.98,323.9l-.465-.465a7.9,7.9,0,0,1-2.288-4.959l-.161-2.022a7.365,7.365,0,0,0-5.475-6.54l-17.065-4.476-.446-1.7a.886.886,0,0,1,1.08-1.08l18.766,4.921A7.368,7.368,0,0,1,299.4,314.123Z" transform="translate(-169.354 -230.007)" fill="#f7b657"/>
    <path id="Trazado_190401" data-name="Trazado 190401" d="M392.377,413.07l-7.913,7.913a.884.884,0,0,1-1.251,0l-9.723-9.748,9.163-9.163,9.725,9.749A.884.884,0,0,1,392.377,413.07Z" transform="translate(-244.932 -305.584)" fill="#ff6e5e"/>
    <path id="Trazado_190402" data-name="Trazado 190402" d="M414.168,413.061l-1.661,1.661-10.358-10.365,2.286-2.286,9.733,9.74A.884.884,0,0,1,414.168,413.061Z" transform="translate(-266.713 -305.584)" fill="#f4584d"/>
    <circle id="Elipse_5442" data-name="Elipse 5442" cx="4.118" cy="4.118" r="4.118" transform="translate(115.112 83.041)" fill="#e6eaee"/>
    <path id="Trazado_190403" data-name="Trazado 190403" d="M326.037,347.25a4.119,4.119,0,0,1-.965,6.54,4.118,4.118,0,0,0-5.575-5.575,4.119,4.119,0,0,1,6.54-.965Z" transform="translate(-203.896 -263.002)" fill="#cdd3d9"/>
    <path id="Trazado_190404" data-name="Trazado 190404" d="M244.459,496.978h-27.9a1.8,1.8,0,1,0,0,3.6h27.9a1.8,1.8,0,1,0,0-3.6Z" transform="translate(-124.294 -377.716)"/>
    <path id="Trazado_190405" data-name="Trazado 190405" d="M136.231,158.038a1.8,1.8,0,0,0-1.8,1.8V222.6l-5.139,4h-7.308a3.012,3.012,0,0,0-3.008,3.008v10.368a3.012,3.012,0,0,0,3.008,3.008h9a1.8,1.8,0,0,0,0-3.6h-8.4V230.2h6.917a3.022,3.022,0,0,0,1.847-.634l5.531-4.3a2.989,2.989,0,0,0,1.161-2.375V159.84A1.8,1.8,0,0,0,136.231,158.038Z" transform="translate(-51.492 -120.113)"/>
    <path id="Trazado_190406" data-name="Trazado 190406" d="M148.722,104.963l-8.511-8.533a3.007,3.007,0,0,0-.426-3.707l-3.144-3.144a3.006,3.006,0,0,0-3.524-.535A6.1,6.1,0,0,1,132,85.993l-.161-2.021a9.179,9.179,0,0,0-6.814-8.141l-18.515-4.855V16.1h15.47v9.487a3.012,3.012,0,0,0,3.008,3.008h10.227a3.012,3.012,0,0,0,3.008-3.008V3.008A3.012,3.012,0,0,0,135.218,0H54.23a3.012,3.012,0,0,0-3.008,3.008V25.587A3.012,3.012,0,0,0,54.23,28.6H64.457a3.012,3.012,0,0,0,3.008-3.008V16.1h15.47V26.793a1.8,1.8,0,0,0,3.6,0V15.5A3.012,3.012,0,0,0,83.533,12.5H66.869A3.012,3.012,0,0,0,63.861,15.5v9.487H54.827V3.6h79.795V24.991h-9.034V15.5A3.012,3.012,0,0,0,122.58,12.5H105.916a3.012,3.012,0,0,0-3.008,3.008V71.74a25.649,25.649,0,0,0,1.18,6.671l2.026,7.728,1.788,6.817a9.178,9.178,0,0,0,8.141,6.815l2.021.161a6.1,6.1,0,0,1,3.053,1.114,3.006,3.006,0,0,0,.535,3.523l3.144,3.144a3,3,0,0,0,3.7.429l8.507,8.529a2.686,2.686,0,0,0,3.8,0l7.913-7.913A2.69,2.69,0,0,0,148.722,104.963ZM118.35,96.338l-2.021-.161a5.57,5.57,0,0,1-4.94-4.135l-3.616-13.791,6.2,6.2a5.919,5.919,0,1,0,2.549-2.549l-6.2-6.2,13.792,3.616a5.57,5.57,0,0,1,4.135,4.94l.161,2.021a9.715,9.715,0,0,0,2.05,5.234l-6.876,6.876A9.713,9.713,0,0,0,118.35,96.338Zm-.757-10.816a2.315,2.315,0,1,1,0,3.273A2.307,2.307,0,0,1,117.594,85.522Zm9.326,19.217-2.294-2.294,9.891-9.891,2.294,2.294-.363.363h0l-4.862,4.862Zm11.989,8.734-7.8-7.822,4.572-4.572,2.042-2.042,7.8,7.822Z" transform="translate(0)"/>
  </g>
</svg>
