<svg xmlns="http://www.w3.org/2000/svg" xmlns:xlink="http://www.w3.org/1999/xlink" width="1328" height="491.333" viewBox="0 0 1328 491.333">
  <defs>
    <linearGradient id="linear-gradient" x1="0.5" y1="1" x2="0.5" gradientUnits="objectBoundingBox">
      <stop offset="0" stop-color="#f6f6f6"/>
      <stop offset="1" stop-color="#fff"/>
    </linearGradient>
    <filter id="Trazado_190768" x="214.11" y="112.544" width="904.522" height="164.535" filterUnits="userSpaceOnUse">
      <feOffset dy="3" input="SourceAlpha"/>
      <feGaussianBlur stdDeviation="3" result="blur"/>
      <feFlood flood-opacity="0.161"/>
      <feComposite operator="in" in2="blur"/>
      <feComposite in="SourceGraphic"/>
    </filter>
  </defs>
  <g id="Grupo_126011" data-name="Grupo 126011" transform="translate(-136.285 -5995.667)">
    <g id="Grupo_126010" data-name="Grupo 126010">
      <g id="Grupo_126009" data-name="Grupo 126009">
        <g id="Grupo_126008" data-name="Grupo 126008">
          <rect id="Rectángulo_40338" data-name="Rectángulo 40338" width="1328" height="258" transform="translate(136.285 6229)" fill="url(#linear-gradient)"/>
          <g transform="matrix(1, 0, 0, 1, 136.29, 5995.67)" filter="url(#Trazado_190768)">
            <path id="Trazado_190768-2" data-name="Trazado 190768" d="M114.393,36.4l1.179,25h-2.987q-.865-6.6-2.358-9.434a15.781,15.781,0,0,0-6.486-6.721q-4.049-2.162-10.652-2.162H78.073v81.443q0,9.827,2.123,12.264,2.987,3.3,9.2,3.3h3.695V143h-45.2v-2.909h3.773q6.761,0,9.591-4.088,1.729-2.516,1.729-11.478V43.083H50.166q-7.468,0-10.613,1.1a14.571,14.571,0,0,0-7,5.739Q29.648,54.167,29.1,61.4H26.11l1.258-25Zm22.876-5.188a7.918,7.918,0,0,1,7.94,7.94,7.785,7.785,0,0,1-2.319,5.66,7.591,7.591,0,0,1-5.621,2.358,8.052,8.052,0,0,1-8.019-8.019,7.655,7.655,0,0,1,2.319-5.621A7.748,7.748,0,0,1,137.269,31.212Zm6.525,37.656v57.859q0,6.761.983,9a6.9,6.9,0,0,0,2.909,3.341q1.926,1.1,7.036,1.1V143H119.739v-2.83q5.267,0,7.075-1.022a7.01,7.01,0,0,0,2.869-3.38q1.061-2.358,1.061-9.041V98.977q0-11.713-.708-15.172a6.166,6.166,0,0,0-1.729-3.5,4.883,4.883,0,0,0-3.223-.983,15.74,15.74,0,0,0-5.346,1.179l-1.1-2.83,21.7-8.8Zm14.7,9.276,22.169-8.962h2.987V86.005q5.582-9.512,11.2-13.325a20.743,20.743,0,0,1,11.831-3.813,22.784,22.784,0,0,1,18.081,8.49q8.883,10.377,8.883,27.043,0,18.631-10.691,30.816a28.3,28.3,0,0,1-22.169,9.984,27.728,27.728,0,0,1-10.062-1.651,23.568,23.568,0,0,1-7.075-4.717v21.933q0,7.39.9,9.394a6.722,6.722,0,0,0,3.145,3.184q2.24,1.179,8.136,1.179v2.909H158.1v-2.909h1.965a14.274,14.274,0,0,0,7.39-1.651,5.656,5.656,0,0,0,2.319-2.791q.825-1.926.825-9.787V92.216q0-7-.629-8.883a5.341,5.341,0,0,0-2-2.83,6.51,6.51,0,0,0-3.734-.943,14.22,14.22,0,0,0-4.8,1.1Zm25.156,12.5v26.886q0,8.726.708,11.478a14.7,14.7,0,0,0,5.385,8.019,16.656,16.656,0,0,0,10.809,3.459,15.5,15.5,0,0,0,12.735-6.132q6.368-8.019,6.368-22.562,0-16.509-7.232-25.392-5.031-6.132-11.949-6.132a16.271,16.271,0,0,0-7.468,1.887Q190.176,83.568,183.651,90.644ZM265.33,31.212V83.883q8.726-9.591,13.836-12.3a21.629,21.629,0,0,1,10.22-2.712,16.788,16.788,0,0,1,10.534,3.38q4.4,3.38,6.525,10.613,1.494,5.031,1.494,18.4v25.471q0,6.839,1.1,9.355a6.142,6.142,0,0,0,2.673,2.987q1.887,1.1,6.918,1.1V143H283.254v-2.83h1.651q5.031,0,7-1.533a8.134,8.134,0,0,0,2.751-4.52,62.367,62.367,0,0,0,.236-7.39V101.256q0-11.792-1.219-15.487a10.44,10.44,0,0,0-3.891-5.542,11.057,11.057,0,0,0-6.446-1.847,18.188,18.188,0,0,0-8.019,2.044q-4.167,2.044-9.984,8.254v38.049q0,7.39.825,9.2a6.712,6.712,0,0,0,3.066,3.027q2.24,1.218,7.743,1.219V143h-35.69v-2.83a15.934,15.934,0,0,0,7.547-1.494,5.612,5.612,0,0,0,2.516-2.987q.943-2.2.943-8.962V61.557q0-12.342-.59-15.172a6.769,6.769,0,0,0-1.808-3.852,4.913,4.913,0,0,0-3.262-1.022,19.185,19.185,0,0,0-5.346,1.258l-1.1-2.751,21.54-8.8Zm78.613,85.531a23.653,23.653,0,0,1-13.679-21.776,24.574,24.574,0,0,1,8.058-18.4q8.058-7.7,20.636-7.7A31.417,31.417,0,0,1,376.8,73.9h15.251a20.056,20.056,0,0,1,3.931.2,1.338,1.338,0,0,1,.786.668,4.819,4.819,0,0,1,.472,2.516,7.019,7.019,0,0,1-.393,2.83,1.617,1.617,0,0,1-.825.629,17.392,17.392,0,0,1-3.97.236H382.7q4.4,5.66,4.4,14.465a22.663,22.663,0,0,1-7.7,17.216q-7.7,7.154-20.675,7.154a40.194,40.194,0,0,1-10.927-1.572,20.7,20.7,0,0,0-4.677,5.228,8.359,8.359,0,0,0-1.219,3.813,3.643,3.643,0,0,0,1.3,2.594q1.3,1.258,5.071,1.808,2.2.314,11.006.55,16.194.393,20.99,1.1a19.729,19.729,0,0,1,11.674,5.424A14.811,14.811,0,0,1,396.3,149.6q0,8.883-8.333,16.666-12.264,11.478-32,11.478-15.172,0-25.628-6.839-5.9-3.931-5.9-8.176a8.99,8.99,0,0,1,.865-3.773,43.958,43.958,0,0,1,5.5-8.1q.55-.708,8.019-8.49a24.816,24.816,0,0,1-5.778-4.363,6.436,6.436,0,0,1-1.69-4.363,12.939,12.939,0,0,1,2.24-6.446Q335.846,123.5,343.944,116.743Zm13.679-44.1a12.279,12.279,0,0,0-9.748,4.638q-3.931,4.638-3.931,14.229,0,12.421,5.346,19.26a12.665,12.665,0,0,0,10.377,5.188,12.383,12.383,0,0,0,9.827-4.481Q373.345,107,373.345,97.4q0-12.5-5.424-19.575A12.454,12.454,0,0,0,357.622,72.641ZM343.157,143a38.729,38.729,0,0,0-5.582,7.468,13.468,13.468,0,0,0-1.887,6.368q0,3.773,4.56,6.6,7.861,4.874,22.719,4.874,14.15,0,20.872-4.992t6.721-10.652a5.957,5.957,0,0,0-4.009-5.817q-4.088-1.729-16.194-2.044A258.78,258.78,0,0,1,343.157,143Zm83.094-74.132V85.062q9.041-16.194,18.553-16.194a10.09,10.09,0,0,1,7.154,2.634,8.1,8.1,0,0,1,2.83,6.093,7.2,7.2,0,0,1-2.044,5.188A6.534,6.534,0,0,1,447.87,84.9q-2.751,0-6.171-2.712t-5.071-2.712a4.68,4.68,0,0,0-3.066,1.572q-3.538,3.223-7.311,10.613v34.511q0,5.975,1.494,9.041a8.143,8.143,0,0,0,3.616,3.538,15.885,15.885,0,0,0,7.468,1.415V143H401.96v-2.83q5.5,0,8.176-1.729a6.712,6.712,0,0,0,2.751-4.009,40.436,40.436,0,0,0,.393-7.625V98.9q0-12.578-.511-14.976a5.863,5.863,0,0,0-1.887-3.5,5.3,5.3,0,0,0-3.42-1.1,15.545,15.545,0,0,0-5.5,1.179l-.786-2.83,21.776-8.8ZM527.427,107.31H486.155l-7.232,16.823q-2.673,6.21-2.673,9.276a5.388,5.388,0,0,0,2.319,4.284q2.319,1.847,10.023,2.4V143H455.024v-2.909q6.682-1.179,8.647-3.066,4.009-3.773,8.883-15.33l37.5-87.732H512.8l37.105,88.676q4.481,10.691,8.136,13.875t10.18,3.577V143H526.169v-2.909q6.368-.314,8.608-2.123a5.474,5.474,0,0,0,2.24-4.4q0-3.459-3.145-10.927Zm-2.2-5.817-18.081-43.08-18.553,43.08ZM603.21,76.65v47.325q0,10.062,2.2,12.735a9.651,9.651,0,0,0,7.783,3.459h6.525V143h-43v-2.83h3.223a10.86,10.86,0,0,0,5.739-1.572,8.176,8.176,0,0,0,3.577-4.245q.983-2.673.983-10.377V76.65H576.246V70.99h13.993V66.273q0-10.77,3.459-18.238a28.315,28.315,0,0,1,10.573-12.067,28.833,28.833,0,0,1,16-4.6,24.265,24.265,0,0,1,15.172,5.346q4.56,3.538,4.56,7.94a6.287,6.287,0,0,1-2.044,4.442,6.11,6.11,0,0,1-4.4,2.083,7.071,7.071,0,0,1-3.813-1.3q-2-1.3-4.913-5.582a19.751,19.751,0,0,0-5.346-5.778,10.175,10.175,0,0,0-5.424-1.494,9.789,9.789,0,0,0-6.132,1.926,10.787,10.787,0,0,0-3.616,5.975q-1.1,4.049-1.1,20.872V70.99h18.553v5.66ZM663.9,68.868q16.352,0,26.257,12.421a38.141,38.141,0,0,1,8.412,24.37,45.891,45.891,0,0,1-4.638,19.575,32.941,32.941,0,0,1-30.9,19.968q-16.273,0-25.864-12.971a40.186,40.186,0,0,1-8.1-24.527,43.519,43.519,0,0,1,4.913-19.693q4.913-9.787,12.932-14.465A33.178,33.178,0,0,1,663.9,68.868Zm-2.437,5.11a16.394,16.394,0,0,0-8.372,2.476q-4.206,2.476-6.8,8.687T643.7,101.1q0,15.723,6.25,27.122t16.469,11.4a15.347,15.347,0,0,0,12.578-6.289q4.953-6.289,4.953-21.619,0-19.182-8.254-30.187Q670.11,73.978,661.463,73.978ZM737.8,42.218V84.354h23.427q9.119,0,12.185-2.751,4.088-3.616,4.56-12.735h2.909v37.105h-2.909q-1.1-7.783-2.2-9.984a9.841,9.841,0,0,0-4.638-4.324q-3.223-1.572-9.905-1.572H737.8v35.14q0,7.075.629,8.608a4.945,4.945,0,0,0,2.2,2.437q1.572.9,5.975.9h18.081q9.041,0,13.128-1.258a19.581,19.581,0,0,0,7.861-4.953q4.874-4.874,9.984-14.7H798.8L789.6,143H707.451v-2.909h3.773a14.952,14.952,0,0,0,7.154-1.808,6.614,6.614,0,0,0,3.42-3.773q.9-2.516.9-10.3V54.953q0-10.141-2.044-12.5-2.83-3.145-9.434-3.145h-3.773V36.4H789.6l1.179,23.348h-3.066q-1.651-8.412-3.656-11.556a12.553,12.553,0,0,0-5.935-4.8q-3.145-1.179-11.084-1.179ZM873.4,144.179q8.019,13.836,17.334,20.361a42.03,42.03,0,0,0,21.186,7.468v2.516a86.19,86.19,0,0,1-23.191-4.363,100.839,100.839,0,0,1-23.387-11.006,114.031,114.031,0,0,1-19.064-14.976q-11.32-4.56-17.924-9.669a52.535,52.535,0,0,1-14.9-18.749q-5.306-11.124-5.306-26.3,0-23.9,15.487-39.7a50.567,50.567,0,0,1,37.5-15.8q20.911,0,36.2,15.841t15.29,39.975q0,19.575-10.888,34.354A53.58,53.58,0,0,1,873.4,144.179ZM860.2,40.017q-14.308,0-23.034,10.22Q826.158,63.05,826.157,89.464q0,25.864,11.163,39.857,8.647,10.77,22.876,10.77,14.779,0,23.82-10.77,10.613-12.735,10.613-37.577,0-19.1-5.817-32.153-4.481-10.062-11.91-14.819A30.322,30.322,0,0,0,860.2,40.017Z" transform="translate(197 87.33)" fill="#1fa4af"/>
          </g>
          <path id="Trazado_190780" data-name="Trazado 190780" d="M32.566-12.966,0,104" transform="translate(368.785 6227.5)" fill="none" stroke="#f57c00" stroke-width="2"/>
          <line id="Línea_329" data-name="Línea 329" x2="19" y2="115" transform="translate(427.785 6247.5)" fill="none" stroke="#f57c00" stroke-width="2"/>
          <line id="Línea_330" data-name="Línea 330" x2="45" y2="90" transform="translate(522.785 6301.5)" fill="none" stroke="#f57c00" stroke-width="2"/>
          <line id="Línea_331" data-name="Línea 331" x2="45" y2="118" transform="translate(701.785 6245.5)" fill="none" stroke="#f57c00" stroke-width="2"/>
          <line id="Línea_332" data-name="Línea 332" x2="57" y2="60" transform="translate(516.785 6051.5)" fill="none" stroke="#f57c00" stroke-width="2"/>
          <line id="Línea_333" data-name="Línea 333" x2="75" y2="86" transform="translate(649.785 6072.5)" fill="none" stroke="#f57c00" stroke-width="2"/>
          <line id="Línea_334" data-name="Línea 334" x2="53" y2="57" transform="translate(781.785 6051.5)" fill="none" stroke="#f57c00" stroke-width="2"/>
          <path id="Trazado_190781" data-name="Trazado 190781" d="M3.7,3.966,68,106" transform="translate(848.785 6207.5)" fill="none" stroke="#f57c00" stroke-width="2"/>
          <line id="Línea_336" data-name="Línea 336" x2="13" y2="102" transform="translate(910.785 6038.5)" fill="none" stroke="#f57c00" stroke-width="2"/>
          <line id="Línea_337" data-name="Línea 337" y2="42" transform="translate(1096.785 6069.5)" fill="none" stroke="#f57c00" stroke-width="2"/>
          <line id="Línea_338" data-name="Línea 338" x1="53" y2="49" transform="translate(1167.785 6275.5)" fill="none" stroke="#f57c00" stroke-width="2"/>
          <path id="Trazado_190770" data-name="Trazado 190770" d="M19.044,12.434,16.651,6.125l-2.282,6.309ZM23.182,18H21.15l-1.577-4.138h-5.7L12.374,18h-1.9L15.7,4.4h1.939Zm4.787.232q-4.036,0-4.221-3.173H25.5q.019,1.8,2.449,1.8a2.628,2.628,0,0,0,1.656-.45,1.381,1.381,0,0,0,.571-1.127.965.965,0,0,0-.557-.942,14.006,14.006,0,0,0-2.3-.71,8.458,8.458,0,0,1-2.542-.974,2.11,2.11,0,0,1-.8-1.893,2.5,2.5,0,0,1,1-2.027,4.131,4.131,0,0,1,2.667-.8q3.869,0,3.952,2.755H29.853Q29.76,9.3,27.765,9.3a2.894,2.894,0,0,0-1.461.334,1.063,1.063,0,0,0-.58.974.883.883,0,0,0,.445.83,11.118,11.118,0,0,0,2.231.687,8.632,8.632,0,0,1,2.653,1.007,2.2,2.2,0,0,1,.867,1.985,2.775,2.775,0,0,1-1.072,2.231A4.381,4.381,0,0,1,27.969,18.232Zm9.806-.213a6.6,6.6,0,0,1-1.252.111,2.6,2.6,0,0,1-1.577-.385,1.61,1.61,0,0,1-.622-.988,8.776,8.776,0,0,1-.121-1.642V9.53H32.988V8.157H34.2V5.708h1.744V8.157h1.6V9.53h-1.6v5.678a2.09,2.09,0,0,0,.255,1.285.911.911,0,0,0,.7.274,4.976,4.976,0,0,0,.872-.074Zm7.691-2.607v-2.18h-1.2q-3.8,0-3.8,2.069a1.34,1.34,0,0,0,.557,1.155,2.51,2.51,0,0,0,1.5.4,3.8,3.8,0,0,0,1.67-.39A3.206,3.206,0,0,0,45.466,15.412Zm0,1.577a4.851,4.851,0,0,1-3.442,1.243,3.627,3.627,0,0,1-2.412-.793,2.547,2.547,0,0,1-.946-2.046q0-3.451,5.947-3.451h.854a7.5,7.5,0,0,0-.111-1.535,1.274,1.274,0,0,0-.622-.793A3.193,3.193,0,0,0,43.11,9.3q-2.338,0-2.412,1.67H38.954q.195-3.034,4.249-3.034a5.027,5.027,0,0,1,2.95.751q1.058.751,1.058,2.95V18H45.466Z" transform="translate(340.285 6337.5)" fill="#12263f"/>
          <path id="Trazado_190771" data-name="Trazado 190771" d="M28.594,18H26.646l-1.28-3.627A3.367,3.367,0,0,0,24.225,12.8a2.934,2.934,0,0,0-1.837-.612H19.057V18h-1.8V4.4h6.021a9.022,9.022,0,0,1,2.579.306A2.935,2.935,0,0,1,27.49,6a4.018,4.018,0,0,1,.631,2.217,3.48,3.48,0,0,1-.816,2.356A3.859,3.859,0,0,1,25.069,11.8v.037A3.652,3.652,0,0,1,27.231,14.3Zm-9.537-7.431h4.017a4.341,4.341,0,0,0,2.435-.529,2.074,2.074,0,0,0,.756-1.828q0-2.319-2.913-2.319h-4.3Zm15.874,7.663a4.636,4.636,0,0,1-3.488-1.359,5.218,5.218,0,0,1-1.317-3.79A5.328,5.328,0,0,1,31.4,9.3a4.348,4.348,0,0,1,3.335-1.368A4.383,4.383,0,0,1,38.1,9.279a5.361,5.361,0,0,1,1.257,3.8V13.5H31.944a3.8,3.8,0,0,0,.942,2.533,2.788,2.788,0,0,0,2.046.826,3.023,3.023,0,0,0,1.656-.469,1.576,1.576,0,0,0,.775-1.331h1.809a3.264,3.264,0,0,1-1.378,2.347A4.848,4.848,0,0,1,34.931,18.232Zm2.579-6.1A3.568,3.568,0,0,0,36.554,10a2.68,2.68,0,0,0-3.618,0,3.485,3.485,0,0,0-.956,2.129ZM54.617,18H52.864V11.636a3.228,3.228,0,0,0-.353-1.744,1.319,1.319,0,0,0-1.178-.52,3.325,3.325,0,0,0-2.5,1.577V18H47.094V11.636a3.228,3.228,0,0,0-.353-1.744,1.33,1.33,0,0,0-1.187-.52,3.3,3.3,0,0,0-2.486,1.577V18H41.314V8.157h1.753V9.409a3.583,3.583,0,0,1,2.755-1.475,2.582,2.582,0,0,1,2.755,1.781,5.5,5.5,0,0,1,1.67-1.47,3.247,3.247,0,0,1,1.345-.311q3.024,0,3.024,3.627Zm8.758-2.588v-2.18h-1.2q-3.8,0-3.8,2.069a1.34,1.34,0,0,0,.557,1.155,2.51,2.51,0,0,0,1.5.4,3.8,3.8,0,0,0,1.67-.39A3.206,3.206,0,0,0,63.375,15.412Zm0,1.577a4.851,4.851,0,0,1-3.442,1.243,3.627,3.627,0,0,1-2.412-.793,2.547,2.547,0,0,1-.946-2.046q0-3.451,5.947-3.451h.854a7.5,7.5,0,0,0-.111-1.535,1.274,1.274,0,0,0-.622-.793A3.193,3.193,0,0,0,61.019,9.3q-2.338,0-2.412,1.67H56.863q.195-3.034,4.249-3.034a5.027,5.027,0,0,1,2.95.751q1.058.751,1.058,2.95V18H63.375Zm8.155,1.03a6.6,6.6,0,0,1-1.252.111,2.6,2.6,0,0,1-1.577-.385,1.61,1.61,0,0,1-.622-.988,8.775,8.775,0,0,1-.121-1.642V9.53H66.743V8.157h1.215V5.708H69.7V8.157h1.6V9.53H69.7v5.678a2.09,2.09,0,0,0,.255,1.285.911.911,0,0,0,.7.274,4.976,4.976,0,0,0,.872-.074Zm5.641.213a4.636,4.636,0,0,1-3.488-1.359,5.218,5.218,0,0,1-1.317-3.79A5.328,5.328,0,0,1,73.641,9.3a4.812,4.812,0,0,1,6.7-.023,5.361,5.361,0,0,1,1.257,3.8V13.5H74.183a3.8,3.8,0,0,0,.942,2.533,2.788,2.788,0,0,0,2.046.826,3.023,3.023,0,0,0,1.656-.469,1.576,1.576,0,0,0,.775-1.331H81.41a3.264,3.264,0,0,1-1.378,2.347A4.848,4.848,0,0,1,77.171,18.232Zm2.579-6.1A3.568,3.568,0,0,0,78.794,10a2.68,2.68,0,0,0-3.618,0,3.485,3.485,0,0,0-.956,2.129Zm-51.318,24.1a6.257,6.257,0,0,1-4.755-1.92A7.118,7.118,0,0,1,21.854,29.2a7.169,7.169,0,0,1,1.8-5.116,6.179,6.179,0,0,1,4.722-1.916,6.772,6.772,0,0,1,4.087,1.183,4.272,4.272,0,0,1,1.823,3.168H32.421a2.67,2.67,0,0,0-1.187-2.064,4.886,4.886,0,0,0-2.839-.747A4.328,4.328,0,0,0,25,25.146,5.879,5.879,0,0,0,23.719,29.2a5.841,5.841,0,0,0,1.3,4.05,4.353,4.353,0,0,0,3.4,1.443,5.072,5.072,0,0,0,4.37-1.939V30.684h-3.59V29.061h5.334V36H33.256l-.473-1.429A5.345,5.345,0,0,1,28.432,36.232Zm13.712-8.479a3.918,3.918,0,0,0-1.067-.111,2.749,2.749,0,0,0-2.292,1.4V36H37.032V26.157h1.753V27.53a3.126,3.126,0,0,1,2.561-1.6,4.672,4.672,0,0,1,.8.074Zm7.45,5.659v-2.18H48.4q-3.8,0-3.8,2.069a1.34,1.34,0,0,0,.557,1.155,2.51,2.51,0,0,0,1.5.4,3.8,3.8,0,0,0,1.67-.39A3.206,3.206,0,0,0,49.594,33.412Zm0,1.577a4.851,4.851,0,0,1-3.442,1.243,3.627,3.627,0,0,1-2.412-.793,2.547,2.547,0,0,1-.946-2.046q0-3.451,5.947-3.451h.854a7.5,7.5,0,0,0-.111-1.535,1.274,1.274,0,0,0-.622-.793,3.193,3.193,0,0,0-1.624-.315q-2.338,0-2.412,1.67H43.081q.195-3.034,4.249-3.034a5.027,5.027,0,0,1,2.95.751q1.058.751,1.058,2.95V36H49.594Zm8.322,1.243a4.364,4.364,0,0,1-3.354-1.35,5.364,5.364,0,0,1-1.257-3.8,5.361,5.361,0,0,1,1.257-3.8,4.855,4.855,0,0,1,6.049-.529,3.331,3.331,0,0,1,1.276,2.356h-1.8a1.665,1.665,0,0,0-.663-1.345,2.462,2.462,0,0,0-1.508-.464,2.5,2.5,0,0,0-2.032.951,4.394,4.394,0,0,0-.779,2.834,4.377,4.377,0,0,0,.779,2.825,2.5,2.5,0,0,0,2.032.951,2.462,2.462,0,0,0,1.508-.464,1.655,1.655,0,0,0,.663-1.336h1.8a3.331,3.331,0,0,1-1.276,2.356A4.344,4.344,0,0,1,57.916,36.232ZM65.18,36H63.426V26.157H65.18Zm0-11.708H63.426V22.4H65.18Zm8.813,9.12v-2.18H72.8q-3.8,0-3.8,2.069a1.34,1.34,0,0,0,.557,1.155,2.51,2.51,0,0,0,1.5.4,3.8,3.8,0,0,0,1.67-.39A3.205,3.205,0,0,0,73.993,33.412Zm0,1.577a4.851,4.851,0,0,1-3.442,1.243,3.627,3.627,0,0,1-2.412-.793,2.547,2.547,0,0,1-.946-2.046q0-3.451,5.947-3.451h.854a7.5,7.5,0,0,0-.111-1.535,1.274,1.274,0,0,0-.622-.793,3.193,3.193,0,0,0-1.624-.315q-2.338,0-2.412,1.67H67.48q.195-3.034,4.249-3.034a5.027,5.027,0,0,1,2.95.751q1.058.751,1.058,2.95V36H73.993ZM23.125,42.014h-4.5V54H16.817V42.014H12.354V40.4H23.125Zm5.891,12.218a4.636,4.636,0,0,1-3.488-1.359,5.218,5.218,0,0,1-1.317-3.79A5.328,5.328,0,0,1,25.487,45.3a4.348,4.348,0,0,1,3.335-1.368,4.383,4.383,0,0,1,3.363,1.345,5.361,5.361,0,0,1,1.257,3.8V49.5H26.029a3.8,3.8,0,0,0,.942,2.533,2.788,2.788,0,0,0,2.046.826,3.023,3.023,0,0,0,1.656-.469,1.576,1.576,0,0,0,.775-1.331h1.809a3.264,3.264,0,0,1-1.378,2.347A4.848,4.848,0,0,1,29.017,54.232Zm2.579-6.1A3.568,3.568,0,0,0,30.64,46a2.68,2.68,0,0,0-3.618,0,3.485,3.485,0,0,0-.956,2.129Zm8.916-2.375a3.918,3.918,0,0,0-1.067-.111,2.749,2.749,0,0,0-2.292,1.4V54H35.4V44.157h1.753V45.53a3.126,3.126,0,0,1,2.561-1.6,4.671,4.671,0,0,1,.8.074ZM55.03,54H53.277V47.636a3.228,3.228,0,0,0-.353-1.744,1.319,1.319,0,0,0-1.178-.52,3.325,3.325,0,0,0-2.5,1.577V54H47.506V47.636a3.228,3.228,0,0,0-.353-1.744,1.33,1.33,0,0,0-1.187-.52,3.3,3.3,0,0,0-2.486,1.577V54H41.727V44.157H43.48v1.252a3.583,3.583,0,0,1,2.755-1.475,2.582,2.582,0,0,1,2.755,1.781,5.5,5.5,0,0,1,1.67-1.47,3.247,3.247,0,0,1,1.345-.311q3.024,0,3.024,3.627Zm4.277,0H57.554V44.157h1.753Zm0-11.708H57.554V40.4h1.753Zm4.333,3.117a3.869,3.869,0,0,1,2.941-1.475q3.331,0,3.331,3.627V54H68.158V47.636a2.756,2.756,0,0,0-.431-1.735,1.725,1.725,0,0,0-1.415-.529,3.66,3.66,0,0,0-2.672,1.577V54H61.886V44.157H63.64Zm15.048,6v-2.18h-1.2q-3.8,0-3.8,2.069a1.34,1.34,0,0,0,.557,1.155,2.51,2.51,0,0,0,1.5.4,3.8,3.8,0,0,0,1.67-.39A3.205,3.205,0,0,0,78.688,51.412Zm0,1.577a4.851,4.851,0,0,1-3.442,1.243,3.627,3.627,0,0,1-2.412-.793,2.547,2.547,0,0,1-.946-2.046q0-3.451,5.947-3.451h.854a7.5,7.5,0,0,0-.111-1.535,1.274,1.274,0,0,0-.622-.793,3.193,3.193,0,0,0-1.624-.315q-2.338,0-2.412,1.67H72.175q.195-3.034,4.249-3.034a5.027,5.027,0,0,1,2.95.751q1.058.751,1.058,2.95V54H78.688ZM84.773,54H83.02V40.4h1.753Z" transform="translate(399.785 6367.5)" fill="#12263f"/>
          <path id="Trazado_190775" data-name="Trazado 190775" d="M19.619,14.048a3.508,3.508,0,0,1-1.3,2.932A6.01,6.01,0,0,1,14.545,18H9.451V4.4h4.843a5.6,5.6,0,0,1,3.414.928,3,3,0,0,1,1.243,2.542,3.079,3.079,0,0,1-1.958,2.913,3.243,3.243,0,0,1,2.625,3.266ZM11.251,10.1h3.024a3.985,3.985,0,0,0,2.2-.478,1.781,1.781,0,0,0,.705-1.591,1.752,1.752,0,0,0-.687-1.508,4.172,4.172,0,0,0-2.384-.506H11.251Zm0,6.29h3.275q3.229,0,3.229-2.338a2.078,2.078,0,0,0-.747-1.777,4.743,4.743,0,0,0-2.714-.561H11.251Zm16.875-.974v-2.18h-1.2q-3.8,0-3.8,2.069a1.34,1.34,0,0,0,.557,1.155,2.51,2.51,0,0,0,1.5.4,3.8,3.8,0,0,0,1.67-.39A3.206,3.206,0,0,0,28.127,15.412Zm0,1.577a4.851,4.851,0,0,1-3.442,1.243,3.627,3.627,0,0,1-2.412-.793,2.547,2.547,0,0,1-.946-2.046q0-3.451,5.947-3.451h.854a7.5,7.5,0,0,0-.111-1.535,1.274,1.274,0,0,0-.622-.793A3.193,3.193,0,0,0,25.77,9.3q-2.338,0-2.412,1.67H21.614q.195-3.034,4.249-3.034a5.027,5.027,0,0,1,2.95.751q1.058.751,1.058,2.95V18H28.127Zm9.444-7.236A3.918,3.918,0,0,0,36.5,9.641a2.749,2.749,0,0,0-2.292,1.4V18H32.459V8.157h1.753V9.53a3.126,3.126,0,0,1,2.561-1.6,4.672,4.672,0,0,1,.8.074Zm6.327,0a3.918,3.918,0,0,0-1.067-.111,2.749,2.749,0,0,0-2.292,1.4V18H38.786V8.157H40.54V9.53a3.126,3.126,0,0,1,2.561-1.6,4.672,4.672,0,0,1,.8.074Zm7.45,5.659v-2.18h-1.2q-3.8,0-3.8,2.069a1.34,1.34,0,0,0,.557,1.155,2.51,2.51,0,0,0,1.5.4,3.8,3.8,0,0,0,1.67-.39A3.206,3.206,0,0,0,51.348,15.412Zm0,1.577a4.851,4.851,0,0,1-3.442,1.243,3.627,3.627,0,0,1-2.412-.793,2.547,2.547,0,0,1-.946-2.046q0-3.451,5.947-3.451h.854a7.5,7.5,0,0,0-.111-1.535,1.274,1.274,0,0,0-.622-.793A3.193,3.193,0,0,0,48.991,9.3q-2.338,0-2.412,1.67H44.835q.195-3.034,4.249-3.034a5.027,5.027,0,0,1,2.95.751q1.058.751,1.058,2.95V18H51.348ZM64.717,7.934A4.383,4.383,0,0,1,68.08,9.279a5.361,5.361,0,0,1,1.257,3.8,5.364,5.364,0,0,1-1.257,3.8,4.853,4.853,0,0,1-6.717,0,5.364,5.364,0,0,1-1.257-3.8,5.361,5.361,0,0,1,1.257-3.8A4.372,4.372,0,0,1,64.717,7.934Zm0,8.925a2.5,2.5,0,0,0,2.032-.951,4.377,4.377,0,0,0,.779-2.825,4.394,4.394,0,0,0-.779-2.834,2.646,2.646,0,0,0-4.063,0,4.394,4.394,0,0,0-.779,2.834,4.377,4.377,0,0,0,.779,2.825A2.5,2.5,0,0,0,64.717,16.859Zm18.889-4.425L81.212,6.125l-2.282,6.309ZM87.743,18H85.711l-1.577-4.138h-5.7L76.935,18h-1.9L80.256,4.4H82.2Zm4.787.232q-4.036,0-4.221-3.173h1.753q.019,1.8,2.449,1.8a2.628,2.628,0,0,0,1.656-.45,1.381,1.381,0,0,0,.571-1.127.965.965,0,0,0-.557-.942,14.006,14.006,0,0,0-2.3-.71,8.458,8.458,0,0,1-2.542-.974,2.11,2.11,0,0,1-.8-1.893,2.5,2.5,0,0,1,1-2.027,4.131,4.131,0,0,1,2.667-.8q3.869,0,3.952,2.755H94.413Q94.321,9.3,92.326,9.3a2.894,2.894,0,0,0-1.461.334,1.063,1.063,0,0,0-.58.974.883.883,0,0,0,.445.83,11.118,11.118,0,0,0,2.231.687,8.632,8.632,0,0,1,2.653,1.007,2.2,2.2,0,0,1,.867,1.985,2.775,2.775,0,0,1-1.072,2.231A4.381,4.381,0,0,1,92.53,18.232Zm9.806-.213a6.6,6.6,0,0,1-1.252.111,2.6,2.6,0,0,1-1.577-.385,1.61,1.61,0,0,1-.622-.988,8.775,8.775,0,0,1-.121-1.642V9.53H97.549V8.157h1.215V5.708h1.744V8.157h1.6V9.53h-1.6v5.678a2.09,2.09,0,0,0,.255,1.285.911.911,0,0,0,.7.274,4.976,4.976,0,0,0,.872-.074Zm7.691-2.607v-2.18h-1.2q-3.8,0-3.8,2.069a1.34,1.34,0,0,0,.557,1.155,2.51,2.51,0,0,0,1.5.4,3.8,3.8,0,0,0,1.67-.39A3.205,3.205,0,0,0,110.027,15.412Zm0,1.577a4.851,4.851,0,0,1-3.442,1.243,3.627,3.627,0,0,1-2.412-.793,2.547,2.547,0,0,1-.946-2.046q0-3.451,5.947-3.451h.854a7.5,7.5,0,0,0-.111-1.535,1.274,1.274,0,0,0-.622-.793,3.193,3.193,0,0,0-1.624-.315q-2.338,0-2.412,1.67h-1.744q.195-3.034,4.249-3.034a5.027,5.027,0,0,1,2.95.751q1.058.751,1.058,2.95V18h-1.744ZM19.1,36.019a6.6,6.6,0,0,1-1.252.111,2.6,2.6,0,0,1-1.577-.385,1.61,1.61,0,0,1-.622-.988,8.776,8.776,0,0,1-.121-1.642V27.53H14.308V26.157h1.215V23.708h1.744v2.449h1.6V27.53h-1.6v5.678a2.09,2.09,0,0,0,.255,1.285.911.911,0,0,0,.7.274,4.976,4.976,0,0,0,.872-.074Zm6.568-8.266a3.918,3.918,0,0,0-1.067-.111,2.749,2.749,0,0,0-2.292,1.4V36H20.552V26.157h1.753V27.53a3.126,3.126,0,0,1,2.561-1.6,4.672,4.672,0,0,1,.8.074Zm7.45,5.659v-2.18h-1.2q-3.8,0-3.8,2.069a1.34,1.34,0,0,0,.557,1.155,2.51,2.51,0,0,0,1.5.4,3.8,3.8,0,0,0,1.67-.39A3.206,3.206,0,0,0,33.113,33.412Zm0,1.577a4.851,4.851,0,0,1-3.442,1.243,3.627,3.627,0,0,1-2.412-.793,2.547,2.547,0,0,1-.946-2.046q0-3.451,5.947-3.451h.854A7.5,7.5,0,0,0,33,28.406a1.274,1.274,0,0,0-.622-.793,3.193,3.193,0,0,0-1.624-.315q-2.338,0-2.412,1.67H26.6q.195-3.034,4.249-3.034a5.027,5.027,0,0,1,2.95.751q1.058.751,1.058,2.95V36H33.113Zm6.086-7.58a3.869,3.869,0,0,1,2.941-1.475q3.331,0,3.331,3.627V36H43.717V29.636a2.756,2.756,0,0,0-.431-1.735,1.725,1.725,0,0,0-1.415-.529A3.66,3.66,0,0,0,39.2,28.949V36H37.446V26.157H39.2Zm12.33,8.823q-4.036,0-4.221-3.173h1.753q.019,1.8,2.449,1.8a2.628,2.628,0,0,0,1.656-.45,1.381,1.381,0,0,0,.571-1.127.965.965,0,0,0-.557-.942,14.006,14.006,0,0,0-2.3-.71,8.457,8.457,0,0,1-2.542-.974,2.11,2.11,0,0,1-.8-1.893,2.5,2.5,0,0,1,1-2.027,4.131,4.131,0,0,1,2.667-.8q3.869,0,3.952,2.755H53.412Q53.319,27.3,51.325,27.3a2.894,2.894,0,0,0-1.461.334,1.063,1.063,0,0,0-.58.974.883.883,0,0,0,.445.83,11.118,11.118,0,0,0,2.231.687,8.632,8.632,0,0,1,2.653,1.007,2.2,2.2,0,0,1,.867,1.985,2.775,2.775,0,0,1-1.072,2.231A4.381,4.381,0,0,1,51.529,36.232ZM65.473,26.157,61.752,36H60.194l-3.72-9.843h1.893l2.607,7.7,2.607-7.7ZM71.2,36.232a4.636,4.636,0,0,1-3.488-1.359,5.218,5.218,0,0,1-1.317-3.79A5.328,5.328,0,0,1,67.667,27.3a4.812,4.812,0,0,1,6.7-.023,5.361,5.361,0,0,1,1.257,3.8V31.5H68.209a3.8,3.8,0,0,0,.942,2.533,2.788,2.788,0,0,0,2.046.826,3.023,3.023,0,0,0,1.656-.469,1.576,1.576,0,0,0,.775-1.331h1.809a3.264,3.264,0,0,1-1.378,2.347A4.848,4.848,0,0,1,71.2,36.232Zm2.579-6.1A3.568,3.568,0,0,0,72.82,28,2.68,2.68,0,0,0,69.2,28a3.485,3.485,0,0,0-.956,2.129Zm8.916-2.375a3.918,3.918,0,0,0-1.067-.111,2.749,2.749,0,0,0-2.292,1.4V36H77.58V26.157h1.753V27.53a3.126,3.126,0,0,1,2.561-1.6,4.672,4.672,0,0,1,.8.074Zm4.731,8.479q-4.036,0-4.221-3.173h1.753q.019,1.8,2.449,1.8a2.628,2.628,0,0,0,1.656-.45,1.381,1.381,0,0,0,.571-1.127.965.965,0,0,0-.557-.942,14.006,14.006,0,0,0-2.3-.71,8.458,8.458,0,0,1-2.542-.974,2.11,2.11,0,0,1-.8-1.893,2.5,2.5,0,0,1,1-2.027,4.131,4.131,0,0,1,2.667-.8q3.869,0,3.952,2.755H89.306Q89.213,27.3,87.219,27.3a2.894,2.894,0,0,0-1.461.334,1.063,1.063,0,0,0-.58.974.883.883,0,0,0,.445.83,11.118,11.118,0,0,0,2.231.687,8.632,8.632,0,0,1,2.653,1.007,2.2,2.2,0,0,1,.867,1.985A2.775,2.775,0,0,1,90.3,35.346,4.381,4.381,0,0,1,87.423,36.232Zm12.218-2.82v-2.18h-1.2q-3.8,0-3.8,2.069a1.34,1.34,0,0,0,.557,1.155,2.51,2.51,0,0,0,1.5.4,3.8,3.8,0,0,0,1.67-.39A3.205,3.205,0,0,0,99.641,33.412Zm0,1.577A4.851,4.851,0,0,1,96.2,36.232a3.627,3.627,0,0,1-2.412-.793,2.547,2.547,0,0,1-.946-2.046q0-3.451,5.947-3.451h.854a7.5,7.5,0,0,0-.111-1.535,1.274,1.274,0,0,0-.622-.793,3.193,3.193,0,0,0-1.624-.315q-2.338,0-2.412,1.67H93.128q.195-3.034,4.249-3.034a5.027,5.027,0,0,1,2.95.751q1.058.751,1.058,2.95V36H99.641ZM105.727,36h-1.753V22.4h1.753Z" transform="translate(862.285 6319.5)" fill="#12263f"/>
          <path id="Trazado_190779" data-name="Trazado 190779" d="M48.124,18.232a5.914,5.914,0,0,1-4.606-1.9A7.354,7.354,0,0,1,41.8,11.2a7.354,7.354,0,0,1,1.721-5.135,5.914,5.914,0,0,1,4.606-1.9,6.016,6.016,0,0,1,3.776,1.2,4.365,4.365,0,0,1,1.753,3.154H51.8a2.754,2.754,0,0,0-1.118-2.05,4.532,4.532,0,0,0-5.812.663A6.124,6.124,0,0,0,43.662,11.2a6.16,6.16,0,0,0,1.2,4.063,4.508,4.508,0,0,0,5.826.649A3.045,3.045,0,0,0,51.8,13.686h1.855a4.578,4.578,0,0,1-1.707,3.358A6,6,0,0,1,48.124,18.232Zm11.782-10.3a4.383,4.383,0,0,1,3.363,1.345,5.361,5.361,0,0,1,1.257,3.8,5.364,5.364,0,0,1-1.257,3.8,4.853,4.853,0,0,1-6.717,0,5.364,5.364,0,0,1-1.257-3.8,5.361,5.361,0,0,1,1.257-3.8A4.372,4.372,0,0,1,59.906,7.934Zm0,8.925a2.5,2.5,0,0,0,2.032-.951,4.377,4.377,0,0,0,.779-2.825,4.394,4.394,0,0,0-.779-2.834,2.646,2.646,0,0,0-4.063,0,4.394,4.394,0,0,0-.779,2.834,4.377,4.377,0,0,0,.779,2.825A2.5,2.5,0,0,0,59.906,16.859ZM68.237,18H66.484V4.4h1.753Zm8.813-2.588v-2.18h-1.2q-3.8,0-3.8,2.069a1.34,1.34,0,0,0,.557,1.155,2.51,2.51,0,0,0,1.5.4,3.8,3.8,0,0,0,1.67-.39A3.205,3.205,0,0,0,77.051,15.412Zm0,1.577a4.851,4.851,0,0,1-3.442,1.243,3.627,3.627,0,0,1-2.412-.793,2.547,2.547,0,0,1-.946-2.046q0-3.451,5.947-3.451h.854a7.5,7.5,0,0,0-.111-1.535,1.274,1.274,0,0,0-.622-.793A3.193,3.193,0,0,0,74.694,9.3q-2.338,0-2.412,1.67H70.538q.195-3.034,4.249-3.034a5.027,5.027,0,0,1,2.95.751q1.058.751,1.058,2.95V18H77.051Z" transform="translate(1114.285 6332.5)" fill="#12263f"/>
          <path id="Trazado_190778" data-name="Trazado 190778" d="M47.373,14.048a3.508,3.508,0,0,1-1.3,2.932A6.01,6.01,0,0,1,42.3,18H37.2V4.4h4.843a5.6,5.6,0,0,1,3.414.928A3,3,0,0,1,46.7,7.869a3.079,3.079,0,0,1-1.958,2.913,3.243,3.243,0,0,1,2.625,3.266ZM39,10.1h3.024a3.985,3.985,0,0,0,2.2-.478,1.781,1.781,0,0,0,.705-1.591,1.752,1.752,0,0,0-.687-1.508,4.172,4.172,0,0,0-2.384-.506H39Zm0,6.29h3.275q3.229,0,3.229-2.338a2.078,2.078,0,0,0-.747-1.777,4.743,4.743,0,0,0-2.714-.561H39ZM54.757,9.752a3.918,3.918,0,0,0-1.067-.111,2.749,2.749,0,0,0-2.292,1.4V18H49.646V8.157H51.4V9.53a3.126,3.126,0,0,1,2.561-1.6,4.672,4.672,0,0,1,.8.074Zm7.45,5.659v-2.18h-1.2q-3.8,0-3.8,2.069a1.34,1.34,0,0,0,.557,1.155,2.51,2.51,0,0,0,1.5.4,3.8,3.8,0,0,0,1.67-.39A3.206,3.206,0,0,0,62.207,15.412Zm0,1.577a4.851,4.851,0,0,1-3.442,1.243,3.627,3.627,0,0,1-2.412-.793,2.547,2.547,0,0,1-.946-2.046q0-3.451,5.947-3.451h.854a7.5,7.5,0,0,0-.111-1.535,1.274,1.274,0,0,0-.622-.793A3.193,3.193,0,0,0,59.851,9.3q-2.338,0-2.412,1.67H55.694q.195-3.034,4.249-3.034a5.027,5.027,0,0,1,2.95.751q1.058.751,1.058,2.95V18H62.207ZM74.351,18H65.63V16.516l6.132-6.875H65.992V8.157h8.053V9.641l-6.132,6.875h6.438ZM80.029,7.934a4.383,4.383,0,0,1,3.363,1.345,5.361,5.361,0,0,1,1.257,3.8,5.364,5.364,0,0,1-1.257,3.8,4.853,4.853,0,0,1-6.717,0,5.364,5.364,0,0,1-1.257-3.8,5.361,5.361,0,0,1,1.257-3.8A4.372,4.372,0,0,1,80.029,7.934Zm0,8.925a2.5,2.5,0,0,0,2.032-.951,4.377,4.377,0,0,0,.779-2.825,4.394,4.394,0,0,0-.779-2.834,2.646,2.646,0,0,0-4.063,0,4.394,4.394,0,0,0-.779,2.834A4.377,4.377,0,0,0,78,15.908,2.5,2.5,0,0,0,80.029,16.859Z" transform="translate(1035.785 6024.5)" fill="#12263f"/>
          <path id="Trazado_190776" data-name="Trazado 190776" d="M39.853,18.232a5.914,5.914,0,0,1-4.606-1.9A7.354,7.354,0,0,1,33.526,11.2a7.354,7.354,0,0,1,1.721-5.135,5.914,5.914,0,0,1,4.606-1.9,6.016,6.016,0,0,1,3.776,1.2,4.365,4.365,0,0,1,1.753,3.154H43.527a2.754,2.754,0,0,0-1.118-2.05,4.532,4.532,0,0,0-5.812.663A6.124,6.124,0,0,0,35.391,11.2a6.16,6.16,0,0,0,1.2,4.063,4.508,4.508,0,0,0,5.826.649,3.045,3.045,0,0,0,1.113-2.227h1.855a4.578,4.578,0,0,1-1.707,3.358A6,6,0,0,1,39.853,18.232Zm12.9-8.479a3.918,3.918,0,0,0-1.067-.111,2.749,2.749,0,0,0-2.292,1.4V18H47.646V8.157H49.4V9.53a3.126,3.126,0,0,1,2.561-1.6,4.672,4.672,0,0,1,.8.074Zm7.45,7a3.861,3.861,0,0,1-2.941,1.484q-3.331,0-3.331-3.637V8.157H55.69v6.364a2.778,2.778,0,0,0,.427,1.735,1.71,1.71,0,0,0,1.41.529,3.415,3.415,0,0,0,2.681-1.577V8.157h1.744V18H60.208ZM72.352,18H63.631V16.516l6.132-6.875H63.993V8.157h8.053V9.641l-6.132,6.875h6.438ZM83.076,7.934a4.383,4.383,0,0,1,3.363,1.345,5.361,5.361,0,0,1,1.257,3.8,5.364,5.364,0,0,1-1.257,3.8,4.853,4.853,0,0,1-6.717,0,5.364,5.364,0,0,1-1.257-3.8,5.361,5.361,0,0,1,1.257-3.8A4.372,4.372,0,0,1,83.076,7.934Zm0,8.925a2.5,2.5,0,0,0,2.032-.951,4.377,4.377,0,0,0,.779-2.825,4.394,4.394,0,0,0-.779-2.834,2.646,2.646,0,0,0-4.063,0,4.394,4.394,0,0,0-.779,2.834,4.377,4.377,0,0,0,.779,2.825A2.5,2.5,0,0,0,83.076,16.859ZM23.892,36.019a6.6,6.6,0,0,1-1.252.111,2.6,2.6,0,0,1-1.577-.385,1.61,1.61,0,0,1-.622-.988,8.775,8.775,0,0,1-.121-1.642V27.53H19.1V26.157H20.32V23.708h1.744v2.449h1.6V27.53h-1.6v5.678a2.09,2.09,0,0,0,.255,1.285.911.911,0,0,0,.7.274,4.976,4.976,0,0,0,.872-.074Zm6.568-8.266a3.918,3.918,0,0,0-1.067-.111,2.749,2.749,0,0,0-2.292,1.4V36H25.348V26.157H27.1V27.53a3.126,3.126,0,0,1,2.561-1.6,4.672,4.672,0,0,1,.8.074Zm7.45,5.659v-2.18h-1.2q-3.8,0-3.8,2.069a1.34,1.34,0,0,0,.557,1.155,2.51,2.51,0,0,0,1.5.4,3.8,3.8,0,0,0,1.67-.39A3.206,3.206,0,0,0,37.91,33.412Zm0,1.577a4.851,4.851,0,0,1-3.442,1.243,3.627,3.627,0,0,1-2.412-.793,2.547,2.547,0,0,1-.946-2.046q0-3.451,5.947-3.451h.854a7.5,7.5,0,0,0-.111-1.535,1.274,1.274,0,0,0-.622-.793,3.193,3.193,0,0,0-1.624-.315q-2.338,0-2.412,1.67H31.4q.195-3.034,4.249-3.034a5.027,5.027,0,0,1,2.95.751q1.058.751,1.058,2.95V36H37.91ZM50.2,26.157,46.482,36H44.923L41.2,26.157H43.1l2.607,7.7,2.607-7.7Zm5.724,10.075a4.636,4.636,0,0,1-3.488-1.359,5.218,5.218,0,0,1-1.317-3.79A5.328,5.328,0,0,1,52.4,27.3a4.812,4.812,0,0,1,6.7-.023,5.361,5.361,0,0,1,1.257,3.8V31.5H52.939a3.8,3.8,0,0,0,.942,2.533,2.788,2.788,0,0,0,2.046.826,3.023,3.023,0,0,0,1.656-.469,1.576,1.576,0,0,0,.775-1.331h1.809a3.264,3.264,0,0,1-1.378,2.347A4.848,4.848,0,0,1,55.926,36.232Zm2.579-6.1A3.568,3.568,0,0,0,57.55,28a2.68,2.68,0,0,0-3.618,0,3.485,3.485,0,0,0-.956,2.129Zm7.32,6.1q-4.036,0-4.221-3.173h1.753q.019,1.8,2.449,1.8a2.628,2.628,0,0,0,1.656-.45,1.381,1.381,0,0,0,.571-1.127.965.965,0,0,0-.557-.942,14.006,14.006,0,0,0-2.3-.71,8.457,8.457,0,0,1-2.542-.974,2.11,2.11,0,0,1-.8-1.893,2.5,2.5,0,0,1,1-2.027,4.131,4.131,0,0,1,2.667-.8q3.869,0,3.952,2.755H67.708Q67.616,27.3,65.621,27.3a2.894,2.894,0,0,0-1.461.334,1.063,1.063,0,0,0-.58.974.883.883,0,0,0,.445.83,11.118,11.118,0,0,0,2.231.687,8.632,8.632,0,0,1,2.653,1.007,2.2,2.2,0,0,1,.867,1.985,2.775,2.775,0,0,1-1.072,2.231A4.381,4.381,0,0,1,65.825,36.232Zm12.218-2.82v-2.18h-1.2q-3.8,0-3.8,2.069a1.34,1.34,0,0,0,.557,1.155,2.51,2.51,0,0,0,1.5.4,3.8,3.8,0,0,0,1.67-.39A3.205,3.205,0,0,0,78.043,33.412Zm0,1.577A4.851,4.851,0,0,1,74.6,36.232a3.627,3.627,0,0,1-2.412-.793,2.547,2.547,0,0,1-.946-2.046q0-3.451,5.947-3.451h.854a7.5,7.5,0,0,0-.111-1.535,1.274,1.274,0,0,0-.622-.793,3.193,3.193,0,0,0-1.624-.315q-2.338,0-2.412,1.67H71.531q.195-3.034,4.249-3.034a5.027,5.027,0,0,1,2.95.751q1.058.751,1.058,2.95V36H78.043Zm6.086-7.58a3.869,3.869,0,0,1,2.941-1.475q3.331,0,3.331,3.627V36H88.647V29.636a2.756,2.756,0,0,0-.431-1.735,1.725,1.725,0,0,0-1.415-.529,3.66,3.66,0,0,0-2.672,1.577V36H82.376V26.157h1.753Zm5.362-5.028a2.17,2.17,0,0,1-.538,1.559,1.779,1.779,0,0,1-1.345.566,3.456,3.456,0,0,1-1.327-.39,3.594,3.594,0,0,0-1.123-.39q-.584,0-.668.8H83.276a2.17,2.17,0,0,1,.538-1.559,1.779,1.779,0,0,1,1.345-.566,3.456,3.456,0,0,1,1.327.39,3.594,3.594,0,0,0,1.123.39q.584,0,.668-.8Zm7.44,3.553a4.383,4.383,0,0,1,3.363,1.345,5.361,5.361,0,0,1,1.257,3.8,5.364,5.364,0,0,1-1.257,3.8,4.853,4.853,0,0,1-6.717,0,5.364,5.364,0,0,1-1.257-3.8,5.361,5.361,0,0,1,1.257-3.8A4.372,4.372,0,0,1,96.932,25.934Zm0,8.925a2.5,2.5,0,0,0,2.032-.951,4.377,4.377,0,0,0,.779-2.825,4.394,4.394,0,0,0-.779-2.834,2.646,2.646,0,0,0-4.063,0,4.394,4.394,0,0,0-.779,2.834,4.377,4.377,0,0,0,.779,2.825A2.5,2.5,0,0,0,96.932,34.859Z" transform="translate(850.785 5991.5)" fill="#12263f"/>
          <path id="Trazado_190772" data-name="Trazado 190772" d="M7.037,4.4h4.314q6.93,0,6.93,6.726,0,6.875-6.93,6.875H7.037Zm1.8,11.986h2.477q2.959,0,4.036-1.378a6.176,6.176,0,0,0,1.076-3.883A5.9,5.9,0,0,0,15.354,7.35q-1.072-1.336-4.04-1.336H8.837Zm15.874,1.846a4.636,4.636,0,0,1-3.488-1.359,5.218,5.218,0,0,1-1.317-3.79A5.328,5.328,0,0,1,21.181,9.3a4.348,4.348,0,0,1,3.335-1.368,4.383,4.383,0,0,1,3.363,1.345,5.361,5.361,0,0,1,1.257,3.8V13.5H21.723a3.8,3.8,0,0,0,.942,2.533,2.788,2.788,0,0,0,2.046.826,3.023,3.023,0,0,0,1.656-.469,1.576,1.576,0,0,0,.775-1.331H28.95a3.264,3.264,0,0,1-1.378,2.347A4.848,4.848,0,0,1,24.711,18.232Zm2.579-6.1A3.568,3.568,0,0,0,26.334,10a2.68,2.68,0,0,0-3.618,0,3.485,3.485,0,0,0-.956,2.129Zm7.32,6.1q-4.036,0-4.221-3.173h1.753q.019,1.8,2.449,1.8a2.628,2.628,0,0,0,1.656-.45,1.381,1.381,0,0,0,.571-1.127.965.965,0,0,0-.557-.942,14.006,14.006,0,0,0-2.3-.71,8.458,8.458,0,0,1-2.542-.974,2.11,2.11,0,0,1-.8-1.893,2.5,2.5,0,0,1,1-2.027,4.131,4.131,0,0,1,2.667-.8q3.869,0,3.952,2.755H36.493Q36.4,9.3,34.406,9.3a2.894,2.894,0,0,0-1.461.334,1.063,1.063,0,0,0-.58.974.883.883,0,0,0,.445.83,11.118,11.118,0,0,0,2.231.687,8.632,8.632,0,0,1,2.653,1.007,2.2,2.2,0,0,1,.867,1.985,2.775,2.775,0,0,1-1.072,2.231A4.381,4.381,0,0,1,34.61,18.232Zm9.973,0a4.364,4.364,0,0,1-3.354-1.35,5.364,5.364,0,0,1-1.257-3.8,5.361,5.361,0,0,1,1.257-3.8,4.855,4.855,0,0,1,6.049-.529,3.331,3.331,0,0,1,1.276,2.356h-1.8a1.665,1.665,0,0,0-.663-1.345A2.462,2.462,0,0,0,44.583,9.3a2.5,2.5,0,0,0-2.032.951,4.394,4.394,0,0,0-.779,2.834,4.377,4.377,0,0,0,.779,2.825,2.5,2.5,0,0,0,2.032.951A2.462,2.462,0,0,0,46.09,16.4a1.655,1.655,0,0,0,.663-1.336h1.8a3.331,3.331,0,0,1-1.276,2.356A4.344,4.344,0,0,1,44.583,18.232Zm9.695,0a4.636,4.636,0,0,1-3.488-1.359,5.218,5.218,0,0,1-1.317-3.79A5.328,5.328,0,0,1,50.748,9.3a4.812,4.812,0,0,1,6.7-.023,5.361,5.361,0,0,1,1.257,3.8V13.5H51.29a3.8,3.8,0,0,0,.942,2.533,2.788,2.788,0,0,0,2.046.826,3.023,3.023,0,0,0,1.656-.469,1.576,1.576,0,0,0,.775-1.331h1.809a3.264,3.264,0,0,1-1.378,2.347A4.848,4.848,0,0,1,54.278,18.232Zm2.579-6.1A3.568,3.568,0,0,0,55.9,10a2.68,2.68,0,0,0-3.618,0,3.485,3.485,0,0,0-.956,2.129Zm5.557-2.718a3.869,3.869,0,0,1,2.941-1.475q3.331,0,3.331,3.627V18H66.932V11.636A2.756,2.756,0,0,0,66.5,9.9a1.725,1.725,0,0,0-1.415-.529,3.66,3.66,0,0,0-2.672,1.577V18H60.66V8.157h1.753ZM77.462,15.17V10.495a3.475,3.475,0,0,0-2.588-1.2,2.084,2.084,0,0,0-1.8.969,5.082,5.082,0,0,0-.673,2.89,4.943,4.943,0,0,0,.635,2.76,2.009,2.009,0,0,0,1.758.942A3.33,3.33,0,0,0,77.462,15.17Zm0,1.651a3.714,3.714,0,0,1-5.8.037,5.915,5.915,0,0,1-1.058-3.7A5.742,5.742,0,0,1,71.789,9.34a3.725,3.725,0,0,1,2.973-1.406,3.914,3.914,0,0,1,2.7.983V4.4h1.744V18H77.462Zm8.517,1.41a4.636,4.636,0,0,1-3.488-1.359,5.218,5.218,0,0,1-1.317-3.79A5.328,5.328,0,0,1,82.448,9.3a4.812,4.812,0,0,1,6.7-.023,5.361,5.361,0,0,1,1.257,3.8V13.5H82.991a3.8,3.8,0,0,0,.942,2.533,2.788,2.788,0,0,0,2.046.826,3.023,3.023,0,0,0,1.656-.469,1.576,1.576,0,0,0,.775-1.331h1.809a3.264,3.264,0,0,1-1.378,2.347A4.848,4.848,0,0,1,85.978,18.232Zm2.579-6.1A3.568,3.568,0,0,0,87.6,10a2.68,2.68,0,0,0-3.618,0,3.485,3.485,0,0,0-.956,2.129Zm5.557-2.718a3.869,3.869,0,0,1,2.941-1.475q3.331,0,3.331,3.627V18H98.633V11.636A2.756,2.756,0,0,0,98.2,9.9a1.725,1.725,0,0,0-1.415-.529,3.66,3.66,0,0,0-2.672,1.577V18H92.361V8.157h1.753Zm12.636,8.609a6.6,6.6,0,0,1-1.252.111,2.6,2.6,0,0,1-1.577-.385,1.61,1.61,0,0,1-.622-.988,8.775,8.775,0,0,1-.121-1.642V9.53h-1.215V8.157h1.215V5.708h1.744V8.157h1.6V9.53h-1.6v5.678a2.09,2.09,0,0,0,.255,1.285.911.911,0,0,0,.7.274,4.976,4.976,0,0,0,.872-.074Zm5.641.213a4.636,4.636,0,0,1-3.488-1.359,5.218,5.218,0,0,1-1.317-3.79A5.328,5.328,0,0,1,108.861,9.3a4.812,4.812,0,0,1,6.7-.023,5.361,5.361,0,0,1,1.257,3.8V13.5H109.4a3.8,3.8,0,0,0,.942,2.533,2.788,2.788,0,0,0,2.046.826,3.023,3.023,0,0,0,1.656-.469,1.576,1.576,0,0,0,.775-1.331h1.809a3.264,3.264,0,0,1-1.378,2.347A4.848,4.848,0,0,1,112.391,18.232Zm2.579-6.1A3.568,3.568,0,0,0,114.014,10a2.68,2.68,0,0,0-3.618,0,3.485,3.485,0,0,0-.956,2.129Z" transform="translate(507.285 6396.5)" fill="#12263f"/>
          <path id="Trazado_190769" data-name="Trazado 190769" d="M19.877,12.434,17.484,6.125,15.2,12.434ZM24.015,18H21.983l-1.577-4.138h-5.7L13.207,18H11.3L16.528,4.4h1.939Zm4.787.232q-4.036,0-4.221-3.173h1.753q.019,1.8,2.449,1.8a2.628,2.628,0,0,0,1.656-.45,1.381,1.381,0,0,0,.571-1.127.965.965,0,0,0-.557-.942,14.006,14.006,0,0,0-2.3-.71,8.458,8.458,0,0,1-2.542-.974,2.11,2.11,0,0,1-.8-1.893,2.5,2.5,0,0,1,1-2.027,4.131,4.131,0,0,1,2.667-.8q3.869,0,3.952,2.755H30.685Q30.593,9.3,28.6,9.3a2.894,2.894,0,0,0-1.461.334,1.063,1.063,0,0,0-.58.974.883.883,0,0,0,.445.83,11.118,11.118,0,0,0,2.231.687,8.632,8.632,0,0,1,2.653,1.007,2.2,2.2,0,0,1,.867,1.985,2.775,2.775,0,0,1-1.072,2.231A4.381,4.381,0,0,1,28.8,18.232Zm9.973,0a4.364,4.364,0,0,1-3.354-1.35,5.364,5.364,0,0,1-1.257-3.8,5.361,5.361,0,0,1,1.257-3.8A4.855,4.855,0,0,1,41.47,8.75a3.331,3.331,0,0,1,1.276,2.356h-1.8a1.665,1.665,0,0,0-.663-1.345A2.462,2.462,0,0,0,38.775,9.3a2.5,2.5,0,0,0-2.032.951,4.394,4.394,0,0,0-.779,2.834,4.377,4.377,0,0,0,.779,2.825,2.5,2.5,0,0,0,2.032.951,2.462,2.462,0,0,0,1.508-.464,1.655,1.655,0,0,0,.663-1.336h1.8a3.331,3.331,0,0,1-1.276,2.356A4.344,4.344,0,0,1,38.775,18.232Zm9.695,0a4.636,4.636,0,0,1-3.488-1.359,5.218,5.218,0,0,1-1.317-3.79A5.328,5.328,0,0,1,44.94,9.3a4.812,4.812,0,0,1,6.7-.023,5.361,5.361,0,0,1,1.257,3.8V13.5H45.483a3.8,3.8,0,0,0,.942,2.533,2.788,2.788,0,0,0,2.046.826,3.023,3.023,0,0,0,1.656-.469,1.576,1.576,0,0,0,.775-1.331H52.71a3.264,3.264,0,0,1-1.378,2.347A4.848,4.848,0,0,1,48.47,18.232Zm2.579-6.1A3.568,3.568,0,0,0,50.094,10a2.68,2.68,0,0,0-3.618,0,3.485,3.485,0,0,0-.956,2.129Zm5.557-2.718a3.869,3.869,0,0,1,2.941-1.475q3.331,0,3.331,3.627V18H61.124V11.636A2.756,2.756,0,0,0,60.693,9.9a1.725,1.725,0,0,0-1.415-.529,3.66,3.66,0,0,0-2.672,1.577V18H54.853V8.157h1.753ZM71.654,15.17V10.495a3.475,3.475,0,0,0-2.588-1.2,2.084,2.084,0,0,0-1.8.969,5.082,5.082,0,0,0-.673,2.89,4.943,4.943,0,0,0,.635,2.76,2.009,2.009,0,0,0,1.758.942A3.33,3.33,0,0,0,71.654,15.17Zm0,1.651a3.714,3.714,0,0,1-5.8.037,5.915,5.915,0,0,1-1.058-3.7A5.742,5.742,0,0,1,65.981,9.34a3.725,3.725,0,0,1,2.973-1.406,3.914,3.914,0,0,1,2.7.983V4.4H73.4V18H71.654Zm8.517,1.41a4.636,4.636,0,0,1-3.488-1.359,5.218,5.218,0,0,1-1.317-3.79A5.328,5.328,0,0,1,76.641,9.3a4.812,4.812,0,0,1,6.7-.023,5.361,5.361,0,0,1,1.257,3.8V13.5H77.183a3.8,3.8,0,0,0,.942,2.533,2.788,2.788,0,0,0,2.046.826,3.023,3.023,0,0,0,1.656-.469,1.576,1.576,0,0,0,.775-1.331H84.41a3.264,3.264,0,0,1-1.378,2.347A4.848,4.848,0,0,1,80.171,18.232Zm2.579-6.1A3.568,3.568,0,0,0,81.794,10a2.68,2.68,0,0,0-3.618,0,3.485,3.485,0,0,0-.956,2.129Zm5.557-2.718a3.869,3.869,0,0,1,2.941-1.475q3.331,0,3.331,3.627V18H92.825V11.636A2.756,2.756,0,0,0,92.394,9.9a1.725,1.725,0,0,0-1.415-.529,3.66,3.66,0,0,0-2.672,1.577V18H86.553V8.157h1.753Zm12.636,8.609a6.6,6.6,0,0,1-1.252.111,2.6,2.6,0,0,1-1.577-.385,1.61,1.61,0,0,1-.622-.988,8.775,8.775,0,0,1-.121-1.642V9.53H96.156V8.157h1.215V5.708h1.744V8.157h1.6V9.53h-1.6v5.678a2.09,2.09,0,0,0,.255,1.285.911.911,0,0,0,.7.274,4.976,4.976,0,0,0,.872-.074Zm5.641.213a4.636,4.636,0,0,1-3.488-1.359,5.218,5.218,0,0,1-1.317-3.79A5.328,5.328,0,0,1,103.053,9.3a4.812,4.812,0,0,1,6.7-.023,5.361,5.361,0,0,1,1.257,3.8V13.5H103.6a3.8,3.8,0,0,0,.942,2.533,2.788,2.788,0,0,0,2.046.826,3.023,3.023,0,0,0,1.656-.469,1.576,1.576,0,0,0,.775-1.331h1.809a3.264,3.264,0,0,1-1.378,2.347A4.848,4.848,0,0,1,106.583,18.232Zm2.579-6.1A3.568,3.568,0,0,0,108.207,10a2.68,2.68,0,0,0-3.618,0,3.485,3.485,0,0,0-.956,2.129Z" transform="translate(389.285 6034.5)" fill="#12263f"/>
          <path id="Trazado_190773" data-name="Trazado 190773" d="M45.626,4.167A6.138,6.138,0,0,1,50.3,6.1a7.137,7.137,0,0,1,1.818,5.1A7.137,7.137,0,0,1,50.3,16.3a6.647,6.647,0,0,1-9.37,0A7.119,7.119,0,0,1,39.1,11.2a7.115,7.115,0,0,1,1.828-5.1A6.179,6.179,0,0,1,45.626,4.167Zm-.019,12.524a4.3,4.3,0,0,0,3.344-1.447,5.831,5.831,0,0,0,1.3-4.045,5.844,5.844,0,0,0-1.3-4.045,4.253,4.253,0,0,0-3.312-1.447,4.337,4.337,0,0,0-3.363,1.447A5.8,5.8,0,0,0,40.969,11.2a5.821,5.821,0,0,0,1.308,4.04A4.285,4.285,0,0,0,45.608,16.692ZM59.394,9.752a3.918,3.918,0,0,0-1.067-.111,2.749,2.749,0,0,0-2.292,1.4V18H54.282V8.157h1.753V9.53a3.126,3.126,0,0,1,2.561-1.6,4.672,4.672,0,0,1,.8.074Zm5.4,8.479a4.636,4.636,0,0,1-3.488-1.359,5.218,5.218,0,0,1-1.317-3.79A5.328,5.328,0,0,1,61.263,9.3a4.812,4.812,0,0,1,6.7-.023,5.361,5.361,0,0,1,1.257,3.8V13.5H61.806a3.8,3.8,0,0,0,.942,2.533,2.788,2.788,0,0,0,2.046.826,3.023,3.023,0,0,0,1.656-.469,1.576,1.576,0,0,0,.775-1.331h1.809a3.264,3.264,0,0,1-1.378,2.347A4.848,4.848,0,0,1,64.793,18.232Zm2.579-6.1A3.568,3.568,0,0,0,66.417,10,2.68,2.68,0,0,0,62.8,10a3.485,3.485,0,0,0-.956,2.129Zm5.557,6.4a4.066,4.066,0,0,1-.668,2.779,2.531,2.531,0,0,1-1.865.663,6.176,6.176,0,0,1-1.178-.093V20.394a3.875,3.875,0,0,0,.974.13.79.79,0,0,0,.779-.4,4.206,4.206,0,0,0,.2-1.628V8.157H72.93Zm0-12.237H71.176V4.4H72.93Zm8.813,9.12v-2.18h-1.2q-3.8,0-3.8,2.069a1.34,1.34,0,0,0,.557,1.155,2.51,2.51,0,0,0,1.5.4,3.8,3.8,0,0,0,1.67-.39A3.205,3.205,0,0,0,81.743,15.412Zm0,1.577A4.851,4.851,0,0,1,78.3,18.232a3.627,3.627,0,0,1-2.412-.793,2.547,2.547,0,0,1-.946-2.046q0-3.451,5.947-3.451h.854a7.5,7.5,0,0,0-.111-1.535,1.274,1.274,0,0,0-.622-.793A3.193,3.193,0,0,0,79.387,9.3q-2.338,0-2.412,1.67H75.23q.195-3.034,4.249-3.034a5.027,5.027,0,0,1,2.95.751q1.058.751,1.058,2.95V18H81.743Z" transform="translate(585.285 6034.5)" fill="#12263f"/>
          <path id="Trazado_190777" data-name="Trazado 190777" d="M44.42,4.4,39.132,18H37.277L31.989,4.4h1.92l4.3,11.662L42.5,4.4Zm5.6,13.833a4.636,4.636,0,0,1-3.488-1.359,5.218,5.218,0,0,1-1.317-3.79A5.328,5.328,0,0,1,46.494,9.3a4.812,4.812,0,0,1,6.7-.023,5.361,5.361,0,0,1,1.257,3.8V13.5H47.037a3.8,3.8,0,0,0,.942,2.533,2.788,2.788,0,0,0,2.046.826,3.023,3.023,0,0,0,1.656-.469,1.576,1.576,0,0,0,.775-1.331h1.809a3.264,3.264,0,0,1-1.378,2.347A4.848,4.848,0,0,1,50.024,18.232Zm2.579-6.1A3.568,3.568,0,0,0,51.647,10a2.68,2.68,0,0,0-3.618,0,3.485,3.485,0,0,0-.956,2.129Zm-.39-7.96-2.05,2.607H48.79l1.234-2.607Zm9.305,5.585a3.918,3.918,0,0,0-1.067-.111,2.749,2.749,0,0,0-2.292,1.4V18H56.407V8.157H58.16V9.53a3.126,3.126,0,0,1,2.561-1.6,4.672,4.672,0,0,1,.8.074Zm5.038,8.266a6.6,6.6,0,0,1-1.252.111,2.6,2.6,0,0,1-1.577-.385,1.61,1.61,0,0,1-.622-.988,8.776,8.776,0,0,1-.121-1.642V9.53H61.769V8.157h1.215V5.708h1.744V8.157h1.6V9.53h-1.6v5.678a2.09,2.09,0,0,0,.255,1.285.911.911,0,0,0,.7.274,4.976,4.976,0,0,0,.872-.074ZM69.766,18H68.013V8.157h1.753Zm0-11.708H68.013V4.4h1.753Zm6.568,11.94a4.364,4.364,0,0,1-3.354-1.35,5.364,5.364,0,0,1-1.257-3.8,5.361,5.361,0,0,1,1.257-3.8A4.855,4.855,0,0,1,79.03,8.75a3.331,3.331,0,0,1,1.276,2.356h-1.8a1.665,1.665,0,0,0-.663-1.345A2.462,2.462,0,0,0,76.334,9.3a2.5,2.5,0,0,0-2.032.951,4.394,4.394,0,0,0-.779,2.834,4.377,4.377,0,0,0,.779,2.825,2.5,2.5,0,0,0,2.032.951,2.462,2.462,0,0,0,1.508-.464,1.655,1.655,0,0,0,.663-1.336h1.8a3.331,3.331,0,0,1-1.276,2.356A4.344,4.344,0,0,1,76.334,18.232Zm9.695,0a4.636,4.636,0,0,1-3.488-1.359,5.218,5.218,0,0,1-1.317-3.79A5.328,5.328,0,0,1,82.5,9.3a4.812,4.812,0,0,1,6.7-.023,5.361,5.361,0,0,1,1.257,3.8V13.5H83.042a3.8,3.8,0,0,0,.942,2.533,2.788,2.788,0,0,0,2.046.826,3.023,3.023,0,0,0,1.656-.469,1.576,1.576,0,0,0,.775-1.331h1.809a3.264,3.264,0,0,1-1.378,2.347A4.848,4.848,0,0,1,86.029,18.232Zm2.579-6.1A3.568,3.568,0,0,0,87.653,10a2.68,2.68,0,0,0-3.618,0,3.485,3.485,0,0,0-.956,2.129Z" transform="translate(722.285 6012.5)" fill="#12263f"/>
          <path id="Trazado_190774" data-name="Trazado 190774" d="M51.907,4.167A6.138,6.138,0,0,1,56.583,6.1,7.137,7.137,0,0,1,58.4,11.2a7.137,7.137,0,0,1-1.818,5.1,6.647,6.647,0,0,1-9.37,0,7.119,7.119,0,0,1-1.828-5.1,7.115,7.115,0,0,1,1.828-5.1A6.179,6.179,0,0,1,51.907,4.167Zm-.019,12.524a4.3,4.3,0,0,0,3.344-1.447,5.831,5.831,0,0,0,1.3-4.045,5.844,5.844,0,0,0-1.3-4.045,4.253,4.253,0,0,0-3.312-1.447,4.337,4.337,0,0,0-3.363,1.447A5.8,5.8,0,0,0,47.25,11.2a5.821,5.821,0,0,0,1.308,4.04A4.285,4.285,0,0,0,51.889,16.692Zm10.428,1.837a4.066,4.066,0,0,1-.668,2.779,2.531,2.531,0,0,1-1.865.663,6.176,6.176,0,0,1-1.178-.093V20.394a3.875,3.875,0,0,0,.974.13.79.79,0,0,0,.779-.4,4.206,4.206,0,0,0,.2-1.628V8.157h1.753Zm0-12.237H60.563V4.4h1.753Zm8.813,9.12v-2.18h-1.2q-3.8,0-3.8,2.069a1.34,1.34,0,0,0,.557,1.155,2.51,2.51,0,0,0,1.5.4,3.8,3.8,0,0,0,1.67-.39A3.205,3.205,0,0,0,71.13,15.412Zm0,1.577a4.851,4.851,0,0,1-3.442,1.243,3.627,3.627,0,0,1-2.412-.793,2.547,2.547,0,0,1-.946-2.046q0-3.451,5.947-3.451h.854a7.5,7.5,0,0,0-.111-1.535,1.274,1.274,0,0,0-.622-.793A3.193,3.193,0,0,0,68.773,9.3q-2.338,0-2.412,1.67H64.617q.195-3.034,4.249-3.034a5.027,5.027,0,0,1,2.95.751q1.058.751,1.058,2.95V18H71.13ZM77.216,18H75.462V4.4h1.753Z" transform="translate(679.9 6372.5)" fill="#12263f"/>
          <g id="Elipse_5443" data-name="Elipse 5443" transform="translate(373.285 6153)" fill="none" stroke="#f57c00" stroke-linecap="round" stroke-width="2.5" stroke-dasharray="0 5">
            <circle cx="30.5" cy="30.5" r="30.5" stroke="none"/>
            <circle cx="30.5" cy="30.5" r="29.25" fill="none"/>
          </g>
          <g id="Elipse_5445" data-name="Elipse 5445" transform="translate(565.285 6105)" fill="none" stroke="#f57c00" stroke-linecap="round" stroke-width="2.5" stroke-dasharray="0 5">
            <circle cx="26.5" cy="26.5" r="26.5" stroke="none"/>
            <circle cx="26.5" cy="26.5" r="25.25" fill="none"/>
          </g>
          <g id="Elipse_5447" data-name="Elipse 5447" transform="translate(714.285 6153)" fill="none" stroke="#f57c00" stroke-linecap="round" stroke-width="2.5" stroke-dasharray="0 5">
            <circle cx="14.5" cy="14.5" r="14.5" stroke="none"/>
            <circle cx="14.5" cy="14.5" r="13.25" fill="none"/>
          </g>
          <g id="Elipse_5451" data-name="Elipse 5451" transform="translate(409.285 6217)" fill="none" stroke="#f57c00" stroke-linecap="round" stroke-width="2.5" stroke-dasharray="0 5">
            <circle cx="15.5" cy="15.5" r="15.5" stroke="none"/>
            <circle cx="15.5" cy="15.5" r="14.25" fill="none"/>
          </g>
          <g id="Elipse_5448" data-name="Elipse 5448" transform="translate(828.285 6178)" fill="none" stroke="#f57c00" stroke-linecap="round" stroke-width="2.5" stroke-dasharray="0 5">
            <circle cx="17" cy="17" r="17" stroke="none"/>
            <circle cx="17" cy="17" r="15.75" fill="none"/>
          </g>
          <g id="Elipse_5452" data-name="Elipse 5452" transform="translate(829.285 6102)" fill="none" stroke="#f57c00" stroke-linecap="round" stroke-width="2.5" stroke-dasharray="0 5">
            <circle cx="19" cy="19" r="19" stroke="none"/>
            <circle cx="19" cy="19" r="17.75" fill="none"/>
          </g>
          <g id="Elipse_5449" data-name="Elipse 5449" transform="translate(1077.285 6111)" fill="none" stroke="#f57c00" stroke-linecap="round" stroke-width="2.5" stroke-dasharray="0 5">
            <circle cx="19" cy="19" r="19" stroke="none"/>
            <circle cx="19" cy="19" r="17.75" fill="none"/>
          </g>
          <g id="Elipse_5450" data-name="Elipse 5450" transform="translate(1216.285 6243)" fill="none" stroke="#f57c00" stroke-linecap="round" stroke-width="2.5" stroke-dasharray="0 5">
            <circle cx="19" cy="19" r="19" stroke="none"/>
            <circle cx="19" cy="19" r="17.75" fill="none"/>
          </g>
          <g id="Elipse_5446" data-name="Elipse 5446" transform="translate(910.285 6135)" fill="none" stroke="#f57c00" stroke-linecap="round" stroke-width="2.5" stroke-dasharray="0 5">
            <circle cx="28" cy="28" r="28" stroke="none"/>
            <circle cx="28" cy="28" r="26.75" fill="none"/>
          </g>
          <g id="Elipse_5444" data-name="Elipse 5444" transform="translate(475.285 6241)" fill="none" stroke="#f57c00" stroke-linecap="round" stroke-width="2.5" stroke-dasharray="0 5">
            <circle cx="32" cy="32" r="32" stroke="none"/>
            <circle cx="32" cy="32" r="30.75" fill="none"/>
          </g>
        </g>
      </g>
    </g>
  </g>
</svg>
