<svg xmlns="http://www.w3.org/2000/svg" width="193.424" height="40.047" viewBox="0 0 193.424 40.047">
  <path id="Trazado_191039" data-name="Trazado 191039" d="M75.538,9.867,75.86,16.7h-.816a8.251,8.251,0,0,0-.645-2.578,4.313,4.313,0,0,0-1.772-1.837,6.181,6.181,0,0,0-2.911-.591h-4.1V33.951q0,2.686.58,3.352a3.226,3.226,0,0,0,2.514.9h1.01V39H57.362v-.795h1.031a2.96,2.96,0,0,0,2.621-1.117,6.519,6.519,0,0,0,.473-3.137V11.693h-3.5a9.765,9.765,0,0,0-2.9.3,3.982,3.982,0,0,0-1.912,1.568,6.35,6.35,0,0,0-.945,3.137h-.816l.344-6.832Zm3.029,16.865a10.108,10.108,0,0,0,2.127,6.875A6.486,6.486,0,0,0,85.743,36.1a5.475,5.475,0,0,0,3.362-1.063,7.849,7.849,0,0,0,2.4-3.642l.666.43a10.244,10.244,0,0,1-2.621,5.36A7,7,0,0,1,84.11,39.6a7.938,7.938,0,0,1-6.069-2.761,10.575,10.575,0,0,1-2.524-7.423q0-5.049,2.589-7.874a8.443,8.443,0,0,1,6.5-2.825A7.265,7.265,0,0,1,90.04,20.9a8,8,0,0,1,2.127,5.833Zm0-1.246h9.109a8.421,8.421,0,0,0-.451-2.664,4.266,4.266,0,0,0-1.6-1.891,4.036,4.036,0,0,0-2.224-.687,4.432,4.432,0,0,0-3.19,1.386A6.013,6.013,0,0,0,78.567,25.486ZM111.5,31.523a10.66,10.66,0,0,1-3.115,5.983,7.492,7.492,0,0,1-5.135,2.095,7.588,7.588,0,0,1-5.844-2.814,11.059,11.059,0,0,1-2.492-7.605,10.487,10.487,0,0,1,2.761-7.541,8.827,8.827,0,0,1,6.628-2.9,7.265,7.265,0,0,1,4.77,1.536,4.249,4.249,0,0,1,1.869,3.19,1.748,1.748,0,0,1-.526,1.321,2.039,2.039,0,0,1-1.472.5,2.288,2.288,0,0,1-1.912-.816,3.4,3.4,0,0,1-.483-1.719,2.817,2.817,0,0,0-.87-1.934,3.1,3.1,0,0,0-2.084-.645,4.262,4.262,0,0,0-3.459,1.59,8.455,8.455,0,0,0-1.74,5.564,11.267,11.267,0,0,0,1.729,6.22,5.311,5.311,0,0,0,4.673,2.7,5.65,5.65,0,0,0,3.781-1.439,9.715,9.715,0,0,0,2.3-3.588Zm8.551-8.615q3.459-4.168,6.6-4.168a4.737,4.737,0,0,1,2.771.806,5.4,5.4,0,0,1,1.848,2.653,12.274,12.274,0,0,1,.473,3.953v8.4a7.079,7.079,0,0,0,.3,2.535,1.765,1.765,0,0,0,.763.838,4.322,4.322,0,0,0,1.944.3V39h-9.732v-.773h.408a3.275,3.275,0,0,0,1.923-.419,2.2,2.2,0,0,0,.763-1.235,12.552,12.552,0,0,0,.086-2.02V26.5a8.181,8.181,0,0,0-.7-3.9,2.493,2.493,0,0,0-2.353-1.214q-2.557,0-5.092,2.793V34.553a7.417,7.417,0,0,0,.236,2.471,1.988,1.988,0,0,0,.827.913,5.122,5.122,0,0,0,2.138.29V39h-9.732v-.773h.43a2.312,2.312,0,0,0,2.03-.763,5.565,5.565,0,0,0,.526-2.911v-7.3a31.749,31.749,0,0,0-.161-4.318,1.85,1.85,0,0,0-.494-1.053,1.343,1.343,0,0,0-.892-.279,4.13,4.13,0,0,0-1.439.322l-.322-.773,5.93-2.406h.924Zm25.889-4.168a8.721,8.721,0,0,1,7.176,3.395,10.423,10.423,0,0,1,2.3,6.66,12.542,12.542,0,0,1-1.268,5.35,9,9,0,0,1-8.443,5.457,8.339,8.339,0,0,1-7.068-3.545,10.983,10.983,0,0,1-2.213-6.7,11.893,11.893,0,0,1,1.343-5.382,9.171,9.171,0,0,1,3.534-3.953A9.067,9.067,0,0,1,145.942,18.74Zm-.666,1.4a4.48,4.48,0,0,0-2.288.677,4.745,4.745,0,0,0-1.858,2.374,11.424,11.424,0,0,0-.709,4.361,15.2,15.2,0,0,0,1.708,7.412q1.708,3.115,4.5,3.115a4.194,4.194,0,0,0,3.438-1.719q1.354-1.719,1.354-5.908,0-5.242-2.256-8.25A4.649,4.649,0,0,0,145.276,20.137ZM165.085,8.449v26.1A7.139,7.139,0,0,0,165.354,37a1.9,1.9,0,0,0,.827.913,4.754,4.754,0,0,0,2.084.312V39h-9.646v-.773a4.169,4.169,0,0,0,1.848-.279,1.862,1.862,0,0,0,.773-.924,7.194,7.194,0,0,0,.279-2.471V16.678a30.979,30.979,0,0,0-.15-4.093,1.792,1.792,0,0,0-.483-1.042,1.276,1.276,0,0,0-.849-.279,4.012,4.012,0,0,0-1.418.344l-.365-.752,5.865-2.406ZM180.167,18.74a8.721,8.721,0,0,1,7.176,3.395,10.423,10.423,0,0,1,2.3,6.66,12.542,12.542,0,0,1-1.268,5.35,9,9,0,0,1-8.443,5.457,8.339,8.339,0,0,1-7.068-3.545,10.983,10.983,0,0,1-2.213-6.7,11.893,11.893,0,0,1,1.343-5.382,9.171,9.171,0,0,1,3.534-3.953A9.067,9.067,0,0,1,180.167,18.74Zm-.666,1.4a4.48,4.48,0,0,0-2.288.677,4.745,4.745,0,0,0-1.858,2.374,11.424,11.424,0,0,0-.709,4.361,15.2,15.2,0,0,0,1.708,7.412q1.708,3.115,4.5,3.115a4.194,4.194,0,0,0,3.438-1.719q1.354-1.719,1.354-5.908,0-5.242-2.256-8.25A4.649,4.649,0,0,0,179.5,20.137Zm18.3,11.688a6.464,6.464,0,0,1-3.738-5.951,6.716,6.716,0,0,1,2.2-5.027,7.827,7.827,0,0,1,5.64-2.105,8.586,8.586,0,0,1,4.877,1.375h4.168a5.481,5.481,0,0,1,1.074.054.366.366,0,0,1,.215.183,1.317,1.317,0,0,1,.129.688,1.918,1.918,0,0,1-.107.773.442.442,0,0,1-.226.172,4.753,4.753,0,0,1-1.085.064H208.4A6.249,6.249,0,0,1,209.6,26a6.194,6.194,0,0,1-2.105,4.705,7.974,7.974,0,0,1-5.65,1.955,10.985,10.985,0,0,1-2.986-.43,5.658,5.658,0,0,0-1.278,1.429,2.285,2.285,0,0,0-.333,1.042,1,1,0,0,0,.354.709,2.6,2.6,0,0,0,1.386.494q.6.086,3.008.15,4.426.107,5.736.3a5.392,5.392,0,0,1,3.19,1.482,4.048,4.048,0,0,1,1.192,2.965,6.213,6.213,0,0,1-2.277,4.555,12.28,12.28,0,0,1-8.744,3.137,12.522,12.522,0,0,1-7-1.869q-1.611-1.074-1.611-2.234a2.457,2.457,0,0,1,.236-1.031,12.013,12.013,0,0,1,1.5-2.213q.15-.193,2.191-2.32a6.782,6.782,0,0,1-1.579-1.192,1.759,1.759,0,0,1-.462-1.192,3.536,3.536,0,0,1,.612-1.762A14.1,14.1,0,0,1,197.806,31.824Zm3.738-12.053a3.356,3.356,0,0,0-2.664,1.268,5.917,5.917,0,0,0-1.074,3.889,8.369,8.369,0,0,0,1.461,5.264,3.461,3.461,0,0,0,2.836,1.418,3.384,3.384,0,0,0,2.686-1.225,5.819,5.819,0,0,0,1.053-3.846,8.6,8.6,0,0,0-1.482-5.35A3.4,3.4,0,0,0,201.544,19.771ZM197.591,39a10.585,10.585,0,0,0-1.525,2.041,3.681,3.681,0,0,0-.516,1.74,2.176,2.176,0,0,0,1.246,1.8A11.87,11.87,0,0,0,203,45.918q3.867,0,5.7-1.364a3.749,3.749,0,0,0,1.837-2.911,1.628,1.628,0,0,0-1.1-1.59,14.353,14.353,0,0,0-4.426-.559A70.723,70.723,0,0,1,197.591,39ZM221.31,18.74V34.553a6.981,6.981,0,0,0,.279,2.46,1.942,1.942,0,0,0,.806.913,4.255,4.255,0,0,0,1.923.3V39h-9.561v-.773a4.45,4.45,0,0,0,1.934-.279,1.916,1.916,0,0,0,.784-.924,6.944,6.944,0,0,0,.29-2.471V26.969a26.82,26.82,0,0,0-.193-4.146,1.685,1.685,0,0,0-.473-.956,1.334,1.334,0,0,0-.881-.269,4.3,4.3,0,0,0-1.461.322l-.3-.773,5.93-2.406Zm2.557-9.6-6.338,7.412h-.73l2.256-7.412Zm14.051,27.027a32.435,32.435,0,0,1-3.8,2.707,5.81,5.81,0,0,1-2.471.537,4.427,4.427,0,0,1-3.362-1.4,5.126,5.126,0,0,1-1.321-3.674,4.679,4.679,0,0,1,.645-2.492,8.534,8.534,0,0,1,3.062-2.75,47.635,47.635,0,0,1,7.251-3.137v-.773q0-2.943-.935-4.039a3.374,3.374,0,0,0-2.718-1.1,3.052,3.052,0,0,0-2.148.73,2.2,2.2,0,0,0-.816,1.676l.043,1.246a2.142,2.142,0,0,1-.5,1.525,1.73,1.73,0,0,1-1.321.537,1.672,1.672,0,0,1-1.3-.559,2.191,2.191,0,0,1-.5-1.525,4.4,4.4,0,0,1,1.891-3.395,8.164,8.164,0,0,1,5.307-1.547,9.2,9.2,0,0,1,4.3.881,4.05,4.05,0,0,1,1.869,2.084,11.743,11.743,0,0,1,.387,3.781v6.682a30.6,30.6,0,0,0,.107,3.448,1.448,1.448,0,0,0,.354.849.842.842,0,0,0,.569.215,1.172,1.172,0,0,0,.6-.15,13.421,13.421,0,0,0,1.74-1.568v1.2q-2.406,3.223-4.6,3.223a2.09,2.09,0,0,1-1.676-.73A3.945,3.945,0,0,1,237.917,36.164Zm0-1.4v-7.5a42.422,42.422,0,0,0-4.189,1.826,7.235,7.235,0,0,0-2.428,1.977,3.82,3.82,0,0,0-.73,2.256,3.681,3.681,0,0,0,.924,2.567,2.8,2.8,0,0,0,2.127,1.021Q235.253,36.916,237.917,34.768Z" transform="translate(-51.411 -8.449)" fill="#9b5003"/>
</svg>
