<svg xmlns="http://www.w3.org/2000/svg" width="194.13" height="57.024" viewBox="0 0 194.13 57.024">
  <path id="Trazado_191041" data-name="Trazado 191041" d="M122.741,14.356q3.348,0,3.348-1.62,0-.81.567-.81t.567,1.323a2.2,2.2,0,0,1-1.512,2.025,6.493,6.493,0,0,1-2.673.7,13.978,13.978,0,0,1-1.917-.108,51.377,51.377,0,0,1-13.608-3.456A65.863,65.863,0,0,0,100.655,28.5a55.129,55.129,0,0,1-3.213,7.83,31.656,31.656,0,0,1-4.482,6.939,20.587,20.587,0,0,1-5.535,4.455A29.958,29.958,0,0,1,72.9,51.076a25.539,25.539,0,0,1-12.744-3.348,13.154,13.154,0,0,1-6.8-10.152,25.344,25.344,0,0,1-.108-2.727A18.722,18.722,0,0,1,54.3,29.692a8.727,8.727,0,0,1,3.969-5.076,4.083,4.083,0,0,1,1.782-.7q.972,0,.864.918a6.3,6.3,0,0,1-1.107.891q-.891.621-1.7,1.3a7.717,7.717,0,0,0-1.62,2.079,10.309,10.309,0,0,0-1.4,5.346q0,6.8,4.644,10.476a18.038,18.038,0,0,0,5.562,3.132,18.49,18.49,0,0,0,6.156,1.08h.27a24.667,24.667,0,0,0,18.36-8.1q4.536-4.914,12.42-22.194a60.563,60.563,0,0,1,3.456-6.966A57.61,57.61,0,0,0,88.775,8.848q-7.614,0-12.366,4.59-3.834,3.672-3.834,7.668,0,4.374,3.834,5.562a9.188,9.188,0,0,0,2.457.378,9.458,9.458,0,0,0,2.538-.405,6.617,6.617,0,0,0,2.754-1.674,10.518,10.518,0,0,0,2-2.511,3.3,3.3,0,0,0,.567-1.89v-.108q.432-.378.756-.243t.324.675a8.086,8.086,0,0,1-4.266,6.318,8.338,8.338,0,0,1-4.212,1.35,10.243,10.243,0,0,1-3.456-.54,8.346,8.346,0,0,1-5.616-5.994,10.566,10.566,0,0,1-.378-2.754,11.468,11.468,0,0,1,2-6.318Q75.437,7.444,83.051,6.31a21.362,21.362,0,0,1,3.294-.27q1.566,0,3.645.162A32.176,32.176,0,0,1,95.5,7.282q3.429.918,7.02,2.133t4.293,1.431q2.646-3.24,3.942-3.294a2.009,2.009,0,0,1,.729-.108q.459,0,.729.756t-.378.972a1.656,1.656,0,0,1-.7-.054q-.324-.216-1.323.675a14.19,14.19,0,0,0-1.485,1.485,77.5,77.5,0,0,0,8.91,2.349A33.771,33.771,0,0,0,122.741,14.356ZM106.649,37.684a10.686,10.686,0,0,0-.756,4.1,3.886,3.886,0,0,0,.675,2.4,2.263,2.263,0,0,0,1.917.891q4.914,0,8.91-9.234.378-.864.918-.756a.255.255,0,0,1,.216.27,22.679,22.679,0,0,1-1.215,2.835,22.787,22.787,0,0,1-2.457,4.239,8.178,8.178,0,0,1-6.8,3.78,5.2,5.2,0,0,1-3.672-1.4,4.976,4.976,0,0,1-1.512-3.834,13.188,13.188,0,0,1,1.161-5.157,19.745,19.745,0,0,1,3.159-5.076,12.126,12.126,0,0,1,4.59-3.429,5.956,5.956,0,0,1,2.376-.54,3.723,3.723,0,0,1,2.106.648,2.163,2.163,0,0,1,.918,1.674q0,3.24-3.888,6.21a11.574,11.574,0,0,1-3.348,1.647A11.335,11.335,0,0,1,106.649,37.684Zm9.072-8.64q0-1.08-.864-1.08-1.512,0-4.59,3.726a27.768,27.768,0,0,0-3.24,5.076,8.532,8.532,0,0,0,2.673-.648,10.278,10.278,0,0,0,3.051-1.728Q115.721,31.852,115.721,29.044Zm11.772,4.536q1.89-2.268,1.89-3.834t-1.3-1.566q-2.538,0-5.778,4.644a19.69,19.69,0,0,0-2,3.834,11.484,11.484,0,0,0-.972,4.293,5.552,5.552,0,0,0,.783,3.1,2.7,2.7,0,0,0,2.43,1.188,6.161,6.161,0,0,0,3.051-.783,8.761,8.761,0,0,0,2.673-2.484,29.356,29.356,0,0,0,1.917-2.835q.648-1.134,1.782-3.4.378-.756.648-.621a.415.415,0,0,1,.27.378,8.624,8.624,0,0,1-.729,1.782q-.729,1.539-1.458,2.889a20.414,20.414,0,0,1-2.079,3.024,8.061,8.061,0,0,1-6.642,3.024q-3.024,0-4.347-1.485a5,5,0,0,1-1.323-3.429,13.663,13.663,0,0,1,1.161-5.184,22.933,22.933,0,0,1,2.673-4.86q3.132-4.266,7.236-4.266a3.821,3.821,0,0,1,2.889.945,3.092,3.092,0,0,1,.891,2.187,3.986,3.986,0,0,1-1.512,3.132,2.107,2.107,0,0,1-1.269.7A1.219,1.219,0,0,1,127.493,33.58Zm20.412-5.292q-6.642,11.664-6.642,15.228,0,1.4,1.026,1.4,2.754,0,7.4-9.342.324-.756.648-.594a.487.487,0,0,1,.324.432,1.367,1.367,0,0,1-.216.648,38.147,38.147,0,0,1-4.833,7.965,5.485,5.485,0,0,1-3.942,2.187,3.393,3.393,0,0,1-3-1.512,3.071,3.071,0,0,1-.54-1.917,10.16,10.16,0,0,1,.54-2.943,29.148,29.148,0,0,1,2.97-5.616,3.279,3.279,0,0,0,.594-1.539q0-.567-.918-.567t-3.51,2.43A37.48,37.48,0,0,0,130.3,45.244a1.43,1.43,0,0,1-.729.675,7.048,7.048,0,0,1-1.593.189,4.039,4.039,0,0,0-1.566.27q.864-1.728,3.4-7.074,4.536-9.45,5.94-10.8a2.408,2.408,0,0,1,1.782-.648,9.06,9.06,0,0,1,1.107.162,3.415,3.415,0,0,0,1.323.054q-2,1.08-6.534,10.152a43.82,43.82,0,0,1,4.617-4.995,26.454,26.454,0,0,1,4.995-3.456,10.565,10.565,0,0,1,4.266-1.593A1.586,1.586,0,0,1,147.905,28.288Zm11.61-1.188q3.942,0,3.942,4.968a11.714,11.714,0,0,1-1.188,4.86,19.22,19.22,0,0,1-4.536,6.372,2.6,2.6,0,0,0,2.538,1.35,3.7,3.7,0,0,0,2.754-1.458,14.807,14.807,0,0,0,2.322-2.943q.7-1.269,1.026-1.863t.837-1.7q.513-1.107.621-1.35a.382.382,0,0,1,.378-.243q.54-.054.54.378a.87.87,0,0,1-.108.378l-.324.756q-.324.756-.486,1.08t-.567,1.161q-.405.837-.7,1.323t-.81,1.3a12.6,12.6,0,0,1-.918,1.3q-.405.486-1,1.08a6.042,6.042,0,0,1-1.134.918,4.976,4.976,0,0,1-2.538.81,4.374,4.374,0,0,1-3.456-1.4A7.926,7.926,0,0,1,152.117,46q-3.942,0-3.942-4.968a11.714,11.714,0,0,1,1.188-4.86,18.113,18.113,0,0,1,4.563-6.426Q156.869,27.1,159.515,27.1Zm.594,1.674q-1.458,0-3.456,1.944a17.865,17.865,0,0,0-3.564,5.292,15.5,15.5,0,0,0-1.89,6.372q0,2.484,1.89,2.484a4.867,4.867,0,0,0,3.024-1.458,4.552,4.552,0,0,1-.864-2.646q.108-2.322,1.89-2.322a1.528,1.528,0,0,1,1.161.486,1.375,1.375,0,0,1,.459.891,3.446,3.446,0,0,1-.108.837,30.458,30.458,0,0,0,2.106-3.834,12.212,12.212,0,0,0,1.35-5.4Q162.107,28.774,160.109,28.774Zm10.638,6.8q-.054.216-.486,1.485t-.729,2.43a9.336,9.336,0,0,0-.3,2.322,4.471,4.471,0,0,0,.54,2.16,1.823,1.823,0,0,0,1.728,1q1.944,0,3.78-2.619a55.429,55.429,0,0,0,3.888-6.669q.432-.756.81-.594a.426.426,0,0,1,.108.567q-.162.351-.675,1.512t-.756,1.62q-.243.459-.864,1.62a11.479,11.479,0,0,1-1.08,1.728q-.459.567-1.242,1.458a7.139,7.139,0,0,1-5.049,2.511,4.076,4.076,0,0,1-2.592-.729,2.859,2.859,0,0,1-1.107-1.566,6.835,6.835,0,0,1-.189-1.485q0-.648.054-1.674a16.006,16.006,0,0,1,.675-3.348q.513-1.62.567-1.836a75.469,75.469,0,0,1,3.537-9.774,74.186,74.186,0,0,1,3.888-7.965,23.026,23.026,0,0,1,2.511-3.645,5.147,5.147,0,0,1,3.618-1.944q1.242,0,1.674,1.782a5.057,5.057,0,0,1,.054.81,11.7,11.7,0,0,1-1.3,4.644Q177.173,29.692,170.747,35.578Zm.432-1.728a42.708,42.708,0,0,0,5.454-7.074,52.379,52.379,0,0,0,3.969-7.263,13.344,13.344,0,0,0,1.269-4.077q0-1.08-.378-1.08-.54,0-2.052,2.133a54.305,54.305,0,0,0-4.077,7.668Q172.8,29.692,171.179,33.85Zm17.874-6.75q3.942,0,3.942,4.968a11.714,11.714,0,0,1-1.188,4.86,19.22,19.22,0,0,1-4.536,6.372,2.6,2.6,0,0,0,2.538,1.35,3.7,3.7,0,0,0,2.754-1.458,14.807,14.807,0,0,0,2.322-2.943q.7-1.269,1.026-1.863t.837-1.7q.513-1.107.621-1.35a.382.382,0,0,1,.378-.243q.54-.054.54.378a.87.87,0,0,1-.108.378l-.324.756q-.324.756-.486,1.08t-.567,1.161q-.405.837-.7,1.323t-.81,1.3a12.6,12.6,0,0,1-.918,1.3q-.405.486-1,1.08a6.042,6.042,0,0,1-1.134.918,4.976,4.976,0,0,1-2.538.81,4.374,4.374,0,0,1-3.456-1.4A7.926,7.926,0,0,1,181.655,46q-3.942,0-3.942-4.968a11.714,11.714,0,0,1,1.188-4.86,18.113,18.113,0,0,1,4.563-6.426Q186.407,27.1,189.053,27.1Zm.594,1.674q-1.458,0-3.456,1.944a17.865,17.865,0,0,0-3.564,5.292,15.5,15.5,0,0,0-1.89,6.372q0,2.484,1.89,2.484a4.867,4.867,0,0,0,3.024-1.458,4.552,4.552,0,0,1-.864-2.646q.108-2.322,1.89-2.322a1.528,1.528,0,0,1,1.161.486,1.375,1.375,0,0,1,.459.891,3.446,3.446,0,0,1-.108.837,30.458,30.458,0,0,0,2.106-3.834,12.212,12.212,0,0,0,1.35-5.4Q191.645,28.774,189.647,28.774Zm3.942,34.29q-5.076,0-5.076-4.158,0-3.456,4.7-6.21a54.754,54.754,0,0,1,10.206-4.374q2.862-.918,4.158-1.458a27.532,27.532,0,0,0,1.4-8.964,7.263,7.263,0,0,0-.108-1.458,33.354,33.354,0,0,1-4.158,6.318q-3.132,3.888-6.21,3.024a4.558,4.558,0,0,1-2.808-4.644q0-4.644,4.644-10.206a11.012,11.012,0,0,1,5.94-3.834,6.479,6.479,0,0,1,1.836-.27,8.219,8.219,0,0,1,4.752,1.62q.864.7.864,1.188a1.62,1.62,0,0,1-.324.945q-.324.459-.675.108a1.8,1.8,0,0,1-.459-.675q-.7-2-2.268-2-2.862,0-6.426,4a28.4,28.4,0,0,0-3.456,4.86,11.659,11.659,0,0,0-1.782,4.995,2.436,2.436,0,0,0,1.08,2.349,1.906,1.906,0,0,0,.756.162,5.217,5.217,0,0,0,3.1-1.7,19.562,19.562,0,0,0,3.456-4.32,19.29,19.29,0,0,0,2.025-4.077,3.162,3.162,0,0,1,1.053-1.836,3.023,3.023,0,0,1,1.377-.432,1.963,1.963,0,0,0,1.026-.27,32.934,32.934,0,0,1,.432,5.7,28.579,28.579,0,0,1-1.134,7.425,16.507,16.507,0,0,0,3.537-3.186,21.706,21.706,0,0,0,1.674-2.538q.621-1.134,1.107-2.241t.648-1.431a.743.743,0,0,1,.54-.405q.378-.081.378.351a1.7,1.7,0,0,1-.162.648,49.753,49.753,0,0,1-3.969,7.1,11.083,11.083,0,0,1-4.347,3.483,31.908,31.908,0,0,1-3.753,7.29,26.245,26.245,0,0,1-6.183,6.372A12.434,12.434,0,0,1,193.589,63.064Zm-3.942-3.132q0,2.052,2.646,2.052a8.524,8.524,0,0,0,3.537-.918,18.46,18.46,0,0,0,3.267-1.89,30.093,30.093,0,0,0,4.86-5.292,27.271,27.271,0,0,0,3.078-5.454l-1.89.648q-8.424,2.916-11.88,5.184a7.868,7.868,0,0,0-3.348,4.266A4.546,4.546,0,0,0,189.647,59.932Zm34.317-16.443a10.414,10.414,0,0,1-1.971,1.7,4.68,4.68,0,0,1-2.7.81,2.92,2.92,0,0,1-2.43-1.188,4.418,4.418,0,0,1-.918-2.781,6.2,6.2,0,0,1,.81-3.051l4.7-8.964a12.2,12.2,0,0,1,1.35-2.3,2.617,2.617,0,0,1,1.566-.3h2.754a6.537,6.537,0,0,1-.54.432,4.468,4.468,0,0,0-1.458,1.512,72.377,72.377,0,0,0-5.616,10.476,8.743,8.743,0,0,0-.972,3.456q0,1.512,1.728,1.512l2.106-1.026q2.16-2.106,5.076-8.154.432-.81.756-.513t-.243,1.458q-.567,1.161-.891,1.809t-1.323,2.43A16.154,16.154,0,0,1,223.964,43.489Zm1.809-19.9a.47.47,0,0,1-.189-.081.29.29,0,0,1-.135-.27.62.62,0,0,1,.108-.351,14.039,14.039,0,0,1,1.539-1.242q1.431-1.08,3.105-2.241t2.43-1.728a2.482,2.482,0,0,1,1.485-.567,2.98,2.98,0,0,1,1.3.27q.567.27.567.675a1.608,1.608,0,0,1-.162.729q-.27.648-4.86,2.727A29.669,29.669,0,0,1,225.773,23.59Zm18.2,7.776a20.66,20.66,0,0,0-2.754,4.4,22.672,22.672,0,0,0-2.133,5.13,14.287,14.287,0,0,0-.351,2.754q0,1.053.81,1.053,1.026,0,2.538-1.89a38.411,38.411,0,0,0,4.374-7.182q.216-.486.486-.54.432-.162.432.324a1.7,1.7,0,0,1-.162.648q-4.968,10.044-8.37,10.044A2.918,2.918,0,0,1,236.3,44.6a4.173,4.173,0,0,1-.486-2.16,12.68,12.68,0,0,1,.54-3.294q-4.32,6.966-7.452,6.966a2.506,2.506,0,0,1-1.566-.54,4.413,4.413,0,0,1-1.62-3.888q0-5.292,4.59-10.746a11.92,11.92,0,0,1,6.372-3.942,7.647,7.647,0,0,1,1.944-.27,5.732,5.732,0,0,1,4.212,1.728,1.056,1.056,0,0,1,.324,1.134.745.745,0,0,1-.918.432,2.489,2.489,0,0,0-2.592-1.944q-2.322,0-5.724,3.672a29.538,29.538,0,0,0-3.618,5.076q-2.106,3.51-2.106,5.616t1.35,2.106q3.24,0,8.478-9.936a12.427,12.427,0,0,1,1.728-2.727,2.368,2.368,0,0,1,1.782-.729,9.06,9.06,0,0,1,1.107.162A3.415,3.415,0,0,0,243.971,31.366Z" transform="translate(-53.243 -6.04)" fill="#9b5003"/>
</svg>
