<svg xmlns="http://www.w3.org/2000/svg" width="210.727" height="61.014" viewBox="0 0 210.727 61.014">
  <path id="Trazado_190410" data-name="Trazado 190410" d="M265.092,16.254l.264-6.908q2.742.211,5.537.211a113.463,113.463,0,0,0,14.4-.9l-.58,2.9q-.264,1.213-.5,2.5t-.448,2.241a16.786,16.786,0,0,1-2.426.448q-1.213.132-2.373.343-.949,4.061-1.9,10.072-2.109,13.289-2.953,19.354l-9.7,1.529q4.271-20.039,5.748-31.377a15.253,15.253,0,0,0-2.531-.105A7.824,7.824,0,0,1,265.092,16.254Zm14.449,31.8,7.066-38.391,17.086-1.477q-.369,1.213-.633,2.347t-.527,2.241q-.264,1.107-.422,1.951-1.582.158-4.324.158h-3.639l-1.9,9.7q2.9-.158,4.852-.211t2.531-.105q-.211,1.529-.4,2.979t-.448,2.979q-.58.053-1.793.079t-2.531.079q-1.318.053-2.953.105l-1.846,9.967,7.857-1.266L297,45.363Zm29.848-9.018a4.024,4.024,0,0,0,2.795-1.635,8.15,8.15,0,0,0,1.9-3.48l6.17,2.479a23.388,23.388,0,0,1-6.223,8.807,10.812,10.812,0,0,1-7.014,2.9,6.4,6.4,0,0,1-5.484-3.059,15.061,15.061,0,0,1-2.215-8.6,37.716,37.716,0,0,1,1.4-10.283,32.648,32.648,0,0,1,3.929-8.886,22.254,22.254,0,0,1,6.038-6.354A13.2,13.2,0,0,1,318.354,8.5a6.019,6.019,0,0,1,4.588,2.057,8.1,8.1,0,0,1,1.846,5.537v.686a4.868,4.868,0,0,1-.053.686l-7.066,1.9q-.633-1.318-1.5-1.318a2.632,2.632,0,0,0-1.819,1,14.05,14.05,0,0,0-1.872,2.584,31.987,31.987,0,0,0-1.767,3.56q-.844,1.978-1.477,3.981a23.915,23.915,0,0,0-1.477,7.146Q307.754,39.035,309.389,39.035ZM328.057,8.449h1.529q1.055,0,5.906-.211.738,3.8,1.371,7.066,1.688,9.387,2.32,12.076.211-1.107.475-2.531t.58-2.979q.316-1.556.633-3.19.527-2.584,2.162-10.389l6.592-.791q-5.748,26.631-7.172,38.232a33.647,33.647,0,0,0-4.351.9q-3.718.9-4.456,1.16-1.055-14.449-2.32-20.461-.158,1-.422,2.347t-.527,2.874q-1,5.748-2.637,13.869l-7.91,1.846q6.012-28.635,7.014-39.867Q327.582,8.449,328.057,8.449ZM366.711,23.32q0-4.377-2.531-4.377-3.217,0-5.8,3.164a22.183,22.183,0,0,0-3.533,6.908,21.971,21.971,0,0,0-1.16,6.75,3.439,3.439,0,0,0,1.793,3.164,2.063,2.063,0,0,0,1.213.369,6.287,6.287,0,0,0,4.3-1.661,14.133,14.133,0,0,0,3.138-4.087,22.392,22.392,0,0,0,1.925-5.194A21.917,21.917,0,0,0,366.711,23.32ZM374.2,20a31.162,31.162,0,0,1-.923,7.119,34.807,34.807,0,0,1-2.5,7.172,30.331,30.331,0,0,1-3.665,5.854,27.709,27.709,0,0,1-4.351,4.377q-4.693,3.691-9.018,3.691a6.966,6.966,0,0,1-5.748-2.637q-2.32-2.9-2.32-8.437a34.976,34.976,0,0,1,2.795-12.973,35.03,35.03,0,0,1,7.33-11.6q4.9-4.957,10.283-4.957a6.941,6.941,0,0,1,6.486,3.586Q374.2,14.092,374.2,20Zm6.645,20.408q2-.158,5.59-.158a31.6,31.6,0,0,0,.316,3.349q.211,1.292.29,1.9t.132.817l-1.635-.053a61.2,61.2,0,0,0-11.021,1,31.433,31.433,0,0,0-3.27.844q1.266-9.756,3.349-20.514T378.154,9.5l9.492-1.266q-4.9,20.777-5.722,25.523T380.844,40.406Zm27.58-17.086q0-4.377-2.531-4.377-3.217,0-5.8,3.164a22.183,22.183,0,0,0-3.533,6.908,21.971,21.971,0,0,0-1.16,6.75,3.439,3.439,0,0,0,1.793,3.164,2.063,2.063,0,0,0,1.213.369,6.287,6.287,0,0,0,4.3-1.661,14.133,14.133,0,0,0,3.138-4.087,22.392,22.392,0,0,0,1.925-5.194A21.917,21.917,0,0,0,408.424,23.32ZM415.912,20a31.162,31.162,0,0,1-.923,7.119,34.807,34.807,0,0,1-2.5,7.172,30.331,30.331,0,0,1-3.665,5.854,27.709,27.709,0,0,1-4.351,4.377q-4.693,3.691-9.018,3.691a6.966,6.966,0,0,1-5.748-2.637q-2.32-2.9-2.32-8.437a34.976,34.976,0,0,1,2.795-12.973,35.03,35.03,0,0,1,7.33-11.6q4.9-4.957,10.283-4.957a6.941,6.941,0,0,1,6.486,3.586Q415.912,14.092,415.912,20Zm19.67-1.635q-.9-4.008-3.111-4.008-1.371,0-2.979,1.925a23.129,23.129,0,0,0-3.032,4.931,35.574,35.574,0,0,0-3.428,13.764q0,3.375,1,4.8a2.841,2.841,0,0,0,2.32,1.424,5.681,5.681,0,0,0,2.479-.554,6.891,6.891,0,0,0,2.057-1.5A7.736,7.736,0,0,0,433.1,33.92l-5.748.844,1-5.326q7.436-.949,13.342-2A28.505,28.505,0,0,1,439.537,37a24.8,24.8,0,0,1-4.3,6.829,17.478,17.478,0,0,1-5.405,4.113,12.379,12.379,0,0,1-5.194,1.371,9.245,9.245,0,0,1-4.087-.87,8.425,8.425,0,0,1-3.111-2.663q-2.848-3.8-2.848-10.679a33.224,33.224,0,0,1,2-12.05,28.6,28.6,0,0,1,5.036-8.622,20.741,20.741,0,0,1,6.539-5.142,14.488,14.488,0,0,1,6.091-1.687,9.637,9.637,0,0,1,4.166.765,7.268,7.268,0,0,1,2.584,2.03,9.953,9.953,0,0,1,2,6.539Zm22.2-9.492q-6.012,30.586-7.33,38.074a46.192,46.192,0,0,0-5.115.475q-3.639.475-3.744.527,1.688-6.117,3.111-13.342,3.27-16.506,4.641-24.416ZM447.447,4.547,447.5.908q3.691-3.691,6.908-6.618t6.064-5.985q.264,3.586.29,6.724a54.949,54.949,0,0,0,.448,6.46q-3.164,1.266-6.855,2.584T447.5,6.6q-.053-.58-.053-1.107Zm12.92,34.225-2.162,7.752-2.821.369q-1.608.211-3.19.4t-3.27.4q2.162-7.172,3.665-12.129t2.452-8.147q.949-3.19,1.872-6.328t1.793-6.064q.87-2.927,1.556-5.353a130.694,130.694,0,0,0,14.871-1.687q-.475,5.221-.791,12.34-.686,14.186-1.16,26.156-1.582.264-3.085.475t-3.111.475q-1.608.264-2.927.475.58-5.062,1-9.123Zm1.266-5.379,3.9-.264q0-.316.079-1.081t.185-1.767q.422-5.643.9-10.494l.369-4.693-.844.053Z" transform="translate(-264.406 11.695)" fill="#9b5003"/>
</svg>
