<svg xmlns="http://www.w3.org/2000/svg" width="250.619" height="53.473" viewBox="0 0 250.619 53.473">
  <path id="Trazado_191042" data-name="Trazado 191042" d="M47.081,24.2H36.165V58h-4.43V24.2H20.845V20.189H47.081ZM68.86,45.581H49.8a10.1,10.1,0,0,0,2.426,6.961A8.363,8.363,0,0,0,58.6,54.994a13.266,13.266,0,0,0,8.385-3.006v4.061q-3.56,2.584-9.413,2.584a11.412,11.412,0,0,1-8.991-3.678q-3.27-3.678-3.27-10.349a14.764,14.764,0,0,1,3.573-10.27,11.456,11.456,0,0,1,8.873-3.968q5.3,0,8.2,3.428t2.9,9.519Zm-4.43-3.665a8.8,8.8,0,0,0-1.806-5.827,6.154,6.154,0,0,0-4.944-2.083,6.985,6.985,0,0,0-5.194,2.188,9.931,9.931,0,0,0-2.637,5.722ZM93.8,56.761a14.051,14.051,0,0,1-7.383,1.872A12.223,12.223,0,0,1,77.1,54.875a13.617,13.617,0,0,1-3.546-9.743q0-6.671,3.823-10.718a13.375,13.375,0,0,1,10.2-4.047,14.2,14.2,0,0,1,6.275,1.318v4.43a11,11,0,0,0-6.434-2.109,8.694,8.694,0,0,0-6.79,2.966,11.256,11.256,0,0,0-2.65,7.792,10.718,10.718,0,0,0,2.492,7.488,8.588,8.588,0,0,0,6.684,2.742A10.838,10.838,0,0,0,93.8,52.647ZM122.754,58H118.43V42.6q0-8.6-6.275-8.6a6.807,6.807,0,0,0-5.366,2.439,9.04,9.04,0,0,0-2.123,6.157V58h-4.324V31h4.324v4.482h.105a9.745,9.745,0,0,1,8.859-5.115,8.26,8.26,0,0,1,6.776,2.861q2.347,2.861,2.347,8.266Zm19.433.633a12.524,12.524,0,0,1-9.558-3.784q-3.573-3.784-3.573-10.033,0-6.8,3.718-10.626t10.046-3.823q6.038,0,9.426,3.718t3.388,10.31q0,6.46-3.652,10.349A12.8,12.8,0,0,1,142.187,58.633Zm.316-24.627a8.225,8.225,0,0,0-6.592,2.834q-2.426,2.834-2.426,7.818a11.009,11.009,0,0,0,2.452,7.567,8.334,8.334,0,0,0,6.565,2.769,7.905,7.905,0,0,0,6.447-2.716q2.254-2.716,2.254-7.726,0-5.062-2.254-7.8A7.87,7.87,0,0,0,142.5,34.006ZM166.867,58h-4.324V18.027h4.324Zm20.039.633a12.524,12.524,0,0,1-9.558-3.784q-3.573-3.784-3.573-10.033,0-6.8,3.718-10.626t10.046-3.823q6.038,0,9.426,3.718t3.388,10.31q0,6.46-3.652,10.349A12.8,12.8,0,0,1,186.906,58.633Zm.316-24.627a8.225,8.225,0,0,0-6.592,2.834q-2.426,2.834-2.426,7.818a11.009,11.009,0,0,0,2.452,7.567,8.334,8.334,0,0,0,6.565,2.769,7.905,7.905,0,0,0,6.447-2.716q2.254-2.716,2.254-7.726,0-5.062-2.254-7.8A7.87,7.87,0,0,0,187.222,34.006Zm43.084,21.832q0,14.871-14.238,14.871a19.117,19.117,0,0,1-8.754-1.9V64.486a17.978,17.978,0,0,0,8.7,2.531q9.967,0,9.967-10.6V53.465h-.105a10.924,10.924,0,0,1-17.389,1.569q-3.072-3.6-3.072-9.664,0-6.882,3.309-10.942a11.054,11.054,0,0,1,9.057-4.061,8.8,8.8,0,0,1,8.095,4.377h.105V31h4.324Zm-4.324-10.046V41.811a7.725,7.725,0,0,0-2.175-5.511,7.161,7.161,0,0,0-5.418-2.294,7.509,7.509,0,0,0-6.275,2.914q-2.268,2.914-2.268,8.161a11.164,11.164,0,0,0,2.175,7.211,7.028,7.028,0,0,0,5.761,2.7A7.526,7.526,0,0,0,223.7,52.41,9.631,9.631,0,0,0,225.982,45.792ZM243.384,58H239.06V31h4.324Zm3.876-40.764-6.908,8.648H237l5.88-8.648ZM271.465,58h-4.324V53.781h-.105a9.053,9.053,0,0,1-8.306,4.852,8.876,8.876,0,0,1-6.315-2.136,7.4,7.4,0,0,1-2.281-5.669q0-7.567,8.912-8.807l8.095-1.134q0-6.882-5.563-6.882a13.292,13.292,0,0,0-8.807,3.322V32.9a16.732,16.732,0,0,1,9.176-2.531q9.519,0,9.519,10.072Zm-4.324-13.658-6.513.9a10.574,10.574,0,0,0-4.535,1.49q-1.529,1.068-1.529,3.784a4.121,4.121,0,0,0,1.411,3.23,5.451,5.451,0,0,0,3.757,1.252,6.941,6.941,0,0,0,5.313-2.254,8.055,8.055,0,0,0,2.1-5.708Z" transform="translate(-20.846 -17.236)" fill="#9b5003"/>
</svg>
